M48
; DRILL file {KiCad 9.0.5} date 2025-10-22T13:12:43-0400
; FORMAT={-:-/ absolute / metric / decimal}
; #@! TF.CreationDate,2025-10-22T13:12:43-04:00
; #@! TF.GenerationSoftware,Kicad,Pcbnew,9.0.5
; #@! TF.FileFunction,Plated,1,4,PTH
FMAT,2
METRIC
; #@! TA.AperFunction,Plated,PTH,ViaDrill
T1C0.300
; #@! TA.AperFunction,Plated,PTH,ViaDrill
T2C0.500
; #@! TA.AperFunction,Plated,PTH,ComponentDrill
T3C0.600
; #@! TA.AperFunction,Plated,PTH,ComponentDrill
T4C0.750
; #@! TA.AperFunction,Plated,PTH,ComponentDrill
T5C0.800
; #@! TA.AperFunction,Plated,PTH,ComponentDrill
T6C1.000
; #@! TA.AperFunction,Plated,PTH,ComponentDrill
T7C1.300
; #@! TA.AperFunction,Plated,PTH,ComponentDrill
T8C1.900
; #@! TA.AperFunction,Plated,PTH,ComponentDrill
T9C2.700
%
G90
G05
T1
X52.586Y-58.214
X53.086Y-53.214
X53.086Y-82.714
X53.586Y-40.214
X53.586Y-47.214
X53.586Y-68.714
X54.086Y-27.714
X54.086Y-33.714
X54.086Y-74.214
X55.286Y-63.114
X56.586Y-56.214
X56.586Y-59.214
X57.086Y-69.214
X57.586Y-27.714
X58.086Y-39.714
X58.086Y-43.214
X58.586Y-32.714
X59.986Y-27.414
X60.086Y-56.714
X60.586Y-35.214
X62.586Y-39.214
X63.586Y-32.714
X64.086Y-74.714
X64.086Y-83.214
X66.086Y-44.214
X66.586Y-46.214
X67.086Y-63.214
X67.086Y-77.714
X67.586Y-81.714
X68.586Y-56.214
X71.586Y-46.214
X71.586Y-75.214
X72.486Y-63.764
X72.586Y-55.214
X73.586Y-57.714
X74.086Y-51.714
X74.086Y-78.214
X74.586Y-34.714
X74.586Y-81.714
X75.186Y-66.914
X75.686Y-46.514
X75.786Y-48.714
X76.586Y-55.214
X76.686Y-27.914
X77.586Y-67.214
X77.586Y-84.214
X78.086Y-35.714
X78.086Y-64.714
X79.586Y-27.714
X80.086Y-81.214
X81.586Y-52.214
X81.586Y-66.714
X81.686Y-54.764
X82.586Y-78.214
X83.086Y-65.214
X83.586Y-43.214
X83.586Y-75.214
X84.086Y-28.214
X85.086Y-55.714
X86.086Y-52.214
X86.586Y-44.214
X87.086Y-45.214
X87.086Y-50.914
X87.086Y-59.714
X88.086Y-66.714
X88.586Y-80.714
X90.086Y-77.214
X90.286Y-78.214
X90.286Y-80.814
X90.586Y-65.214
X91.086Y-75.214
X91.586Y-55.214
X92.086Y-57.214
X93.086Y-34.214
X93.086Y-44.714
X93.086Y-84.214
X94.486Y-84.214
X95.086Y-28.214
X95.286Y-79.164
X97.086Y-67.214
X97.586Y-57.714
X98.086Y-55.214
X98.086Y-74.714
X98.986Y-78.914
X100.586Y-28.214
X100.586Y-43.214
X100.586Y-51.214
X102.586Y-58.214
X103.086Y-67.214
X103.086Y-77.214
X103.586Y-55.214
X104.086Y-80.214
X106.586Y-58.714
X106.586Y-74.714
X107.086Y-67.214
X107.086Y-80.214
X108.086Y-77.214
X109.086Y-27.714
X109.086Y-43.214
X109.586Y-55.714
X109.586Y-59.214
X109.986Y-79.014
X113.086Y-61.214
X113.286Y-54.414
X114.986Y-80.614
X115.586Y-65.714
X115.586Y-66.714
X116.586Y-28.214
X116.586Y-72.714
X116.586Y-75.914
X116.786Y-77.514
X117.086Y-81.714
X117.086Y-84.214
X117.586Y-43.714
X118.186Y-70.514
X120.286Y-74.114
X120.486Y-53.414
X121.986Y-77.414
X123.086Y-52.714
X123.586Y-38.714
X123.586Y-61.214
X123.586Y-63.214
X125.086Y-43.214
X125.586Y-28.214
X126.586Y-83.714
X130.086Y-82.714
X131.086Y-38.714
X131.086Y-63.214
X131.586Y-61.714
X132.086Y-52.714
X132.586Y-43.214
X133.636Y-56.664
X134.586Y-63.214
X135.586Y-28.214
X137.086Y-61.714
X138.086Y-44.714
X138.086Y-81.214
X138.586Y-48.214
X138.586Y-51.714
X138.586Y-76.214
X139.086Y-38.714
X140.086Y-53.714
X142.586Y-61.214
X142.586Y-76.214
X143.586Y-54.214
X145.086Y-28.214
X146.086Y-46.214
X149.086Y-36.714
X150.086Y-60.714
X150.086Y-64.214
X150.586Y-55.714
X151.086Y-62.714
X152.586Y-47.714
X153.586Y-34.214
X154.086Y-29.214
X154.086Y-43.714
X154.086Y-75.214
X155.086Y-51.214
X155.086Y-62.714
X156.586Y-55.714
X156.986Y-71.164
X157.086Y-67.714
X158.086Y-38.214
X158.586Y-30.214
X158.586Y-46.714
X159.086Y-61.214
X159.586Y-79.214
X160.086Y-52.714
T2
X89.586Y-37.714
X89.586Y-39.714
X93.086Y-37.714
X93.086Y-39.714
X116.086Y-62.214
X116.086Y-63.714
X119.586Y-62.214
T4
X98.086Y-47.014
X98.086Y-49.014
X104.086Y-47.014
X104.086Y-49.014
X109.836Y-47.014
X109.836Y-49.014
X115.436Y-47.014
X115.436Y-49.014
X121.086Y-47.014
X121.086Y-49.014
X126.836Y-47.014
X126.836Y-49.014
X147.186Y-78.164
X149.186Y-78.164
T5
X80.486Y-31.597
X80.486Y-34.097
X84.686Y-40.114
X84.686Y-42.614
T6
X60.386Y-69.674
X60.386Y-72.214
X62.926Y-69.674
X62.926Y-72.214
X65.466Y-69.674
X65.466Y-72.214
X68.006Y-69.674
X68.006Y-72.214
X70.546Y-69.674
X70.546Y-72.214
X73.086Y-69.674
X73.086Y-72.214
X73.746Y-43.114
X75.626Y-69.674
X75.626Y-72.214
X76.286Y-43.114
X78.166Y-69.674
X78.166Y-72.214
X78.826Y-43.114
X80.706Y-69.674
X80.706Y-72.214
X83.246Y-69.674
X83.246Y-72.214
X85.786Y-69.674
X85.786Y-72.214
X88.326Y-69.674
X88.326Y-72.214
X90.866Y-69.674
X90.866Y-72.214
X93.406Y-69.674
X93.406Y-72.214
X95.946Y-69.674
X95.946Y-72.214
X98.486Y-69.674
X98.486Y-72.214
X101.026Y-69.674
X101.026Y-72.214
X103.566Y-69.674
X103.566Y-72.214
X106.106Y-69.674
X106.106Y-72.214
X108.646Y-69.674
X108.646Y-72.214
X153.586Y-78.164
X156.126Y-78.164
X157.086Y-48.214
X157.086Y-59.214
X157.086Y-63.214
X157.086Y-74.214
T7
X124.486Y-79.514
X129.486Y-79.514
X135.636Y-79.487
X140.636Y-79.487
T8
X147.086Y-51.214
X147.086Y-56.214
X147.086Y-66.214
X147.086Y-71.214
T9
X68.486Y-33.214
X68.486Y-40.414
X98.336Y-34.214
X98.336Y-39.214
X105.586Y-34.214
X105.586Y-39.214
X112.836Y-34.214
X112.836Y-39.214
X120.086Y-34.214
X120.086Y-39.214
X127.336Y-34.214
X127.336Y-39.214
X134.586Y-34.214
X134.586Y-39.214
X143.936Y-33.614
X143.936Y-40.814
T3
G00X61.936Y-30.064
M15
G01X63.036Y-30.064
M16
G05
G00X61.936Y-43.564
M15
G01X63.036Y-43.564
M16
G05
G00X150.486Y-30.464
M15
G01X149.386Y-30.464
M16
G05
G00X150.486Y-43.964
M15
G01X149.386Y-43.964
M16
G05
M30
