%TF.GenerationSoftware,KiCad,Pcbnew,9.0.5*%
%TF.CreationDate,2025-10-22T13:12:40-04:00*%
%TF.ProjectId,mainBoard,6d61696e-426f-4617-9264-2e6b69636164,rev?*%
%TF.SameCoordinates,Original*%
%TF.FileFunction,Paste,Top*%
%TF.FilePolarity,Positive*%
%FSLAX46Y46*%
G04 Gerber Fmt 4.6, Leading zero omitted, Abs format (unit mm)*
G04 Created by KiCad (PCBNEW 9.0.5) date 2025-10-22 13:12:40*
%MOMM*%
%LPD*%
G01*
G04 APERTURE LIST*
G04 Aperture macros list*
%AMRoundRect*
0 Rectangle with rounded corners*
0 $1 Rounding radius*
0 $2 $3 $4 $5 $6 $7 $8 $9 X,Y pos of 4 corners*
0 Add a 4 corners polygon primitive as box body*
4,1,4,$2,$3,$4,$5,$6,$7,$8,$9,$2,$3,0*
0 Add four circle primitives for the rounded corners*
1,1,$1+$1,$2,$3*
1,1,$1+$1,$4,$5*
1,1,$1+$1,$6,$7*
1,1,$1+$1,$8,$9*
0 Add four rect primitives between the rounded corners*
20,1,$1+$1,$2,$3,$4,$5,0*
20,1,$1+$1,$4,$5,$6,$7,0*
20,1,$1+$1,$6,$7,$8,$9,0*
20,1,$1+$1,$8,$9,$2,$3,0*%
G04 Aperture macros list end*
%ADD10RoundRect,0.250000X-0.475000X0.337500X-0.475000X-0.337500X0.475000X-0.337500X0.475000X0.337500X0*%
%ADD11RoundRect,0.250000X0.475000X-0.337500X0.475000X0.337500X-0.475000X0.337500X-0.475000X-0.337500X0*%
%ADD12RoundRect,0.250000X-1.275000X-1.125000X1.275000X-1.125000X1.275000X1.125000X-1.275000X1.125000X0*%
%ADD13RoundRect,0.250000X-0.850000X-0.350000X0.850000X-0.350000X0.850000X0.350000X-0.850000X0.350000X0*%
%ADD14RoundRect,0.250000X-0.350000X-0.450000X0.350000X-0.450000X0.350000X0.450000X-0.350000X0.450000X0*%
%ADD15RoundRect,0.150000X0.150000X0.625000X-0.150000X0.625000X-0.150000X-0.625000X0.150000X-0.625000X0*%
%ADD16RoundRect,0.250000X0.350000X0.650000X-0.350000X0.650000X-0.350000X-0.650000X0.350000X-0.650000X0*%
%ADD17RoundRect,0.250000X0.337500X0.475000X-0.337500X0.475000X-0.337500X-0.475000X0.337500X-0.475000X0*%
%ADD18RoundRect,0.250000X-0.337500X-0.475000X0.337500X-0.475000X0.337500X0.475000X-0.337500X0.475000X0*%
%ADD19RoundRect,0.250000X0.350000X0.450000X-0.350000X0.450000X-0.350000X-0.450000X0.350000X-0.450000X0*%
%ADD20RoundRect,0.150000X0.512500X0.150000X-0.512500X0.150000X-0.512500X-0.150000X0.512500X-0.150000X0*%
%ADD21RoundRect,0.250000X0.450000X-0.350000X0.450000X0.350000X-0.450000X0.350000X-0.450000X-0.350000X0*%
%ADD22RoundRect,0.150000X-0.825000X-0.150000X0.825000X-0.150000X0.825000X0.150000X-0.825000X0.150000X0*%
%ADD23RoundRect,0.235000X-0.940000X-1.465000X0.940000X-1.465000X0.940000X1.465000X-0.940000X1.465000X0*%
%ADD24RoundRect,0.250000X0.325000X0.450000X-0.325000X0.450000X-0.325000X-0.450000X0.325000X-0.450000X0*%
%ADD25RoundRect,0.250000X-0.325000X-0.450000X0.325000X-0.450000X0.325000X0.450000X-0.325000X0.450000X0*%
%ADD26RoundRect,0.250000X0.450000X-0.325000X0.450000X0.325000X-0.450000X0.325000X-0.450000X-0.325000X0*%
%ADD27RoundRect,0.250000X-1.075000X0.400000X-1.075000X-0.400000X1.075000X-0.400000X1.075000X0.400000X0*%
G04 APERTURE END LIST*
D10*
%TO.C,C24*%
X139085786Y-68576715D03*
X139085786Y-70651715D03*
%TD*%
D11*
%TO.C,C14*%
X77085786Y-48651715D03*
X77085786Y-46576715D03*
%TD*%
D12*
%TO.C,Q2*%
X123710786Y-55769215D03*
X123710786Y-58819215D03*
X127060786Y-55769215D03*
X127060786Y-58819215D03*
D13*
X119085786Y-55014215D03*
X119085786Y-59574215D03*
%TD*%
D14*
%TO.C,R29*%
X59135786Y-61139215D03*
X61135786Y-61139215D03*
%TD*%
D15*
%TO.C,J20*%
X100985786Y-80689215D03*
X99985786Y-80689215D03*
X98985786Y-80689215D03*
X97985786Y-80689215D03*
D16*
X102285786Y-83214215D03*
X96685786Y-83214215D03*
%TD*%
D17*
%TO.C,C20*%
X66110786Y-59444215D03*
X64035786Y-59444215D03*
%TD*%
D18*
%TO.C,C4*%
X126348286Y-71814215D03*
X128423286Y-71814215D03*
%TD*%
D14*
%TO.C,R4*%
X156710786Y-81014215D03*
X158710786Y-81014215D03*
%TD*%
D18*
%TO.C,C21*%
X65248286Y-65314215D03*
X67323286Y-65314215D03*
%TD*%
D19*
%TO.C,R16*%
X120285786Y-75514215D03*
X118285786Y-75514215D03*
%TD*%
D20*
%TO.C,U1*%
X127085786Y-69714215D03*
X127085786Y-68764215D03*
X127085786Y-67814215D03*
X124810786Y-67814215D03*
X124810786Y-68764215D03*
X124810786Y-69714215D03*
%TD*%
D21*
%TO.C,R8*%
X143495786Y-51294215D03*
X143495786Y-49294215D03*
%TD*%
D22*
%TO.C,IC1*%
X79835786Y-46174215D03*
X79835786Y-47444215D03*
X79835786Y-48714215D03*
X79835786Y-49984215D03*
X84785786Y-49984215D03*
X84785786Y-48714215D03*
X84785786Y-47444215D03*
X84785786Y-46174215D03*
%TD*%
D14*
%TO.C,R28*%
X59135786Y-65139215D03*
X61135786Y-65139215D03*
%TD*%
D21*
%TO.C,R24*%
X89485786Y-50914215D03*
X89485786Y-48914215D03*
%TD*%
D14*
%TO.C,R31*%
X144585786Y-83614215D03*
X146585786Y-83614215D03*
%TD*%
D19*
%TO.C,R15*%
X120285786Y-77514215D03*
X118285786Y-77514215D03*
%TD*%
D17*
%TO.C,C2*%
X127048286Y-63964215D03*
X124973286Y-63964215D03*
%TD*%
D11*
%TO.C,C15*%
X153585786Y-83051715D03*
X153585786Y-80976715D03*
%TD*%
D10*
%TO.C,C5*%
X143295786Y-68614215D03*
X143295786Y-70689215D03*
%TD*%
D12*
%TO.C,Q3*%
X64435786Y-49264215D03*
X64435786Y-52314215D03*
X67785786Y-49264215D03*
X67785786Y-52314215D03*
D13*
X59810786Y-48509215D03*
X59810786Y-53069215D03*
%TD*%
D23*
%TO.C,L5*%
X69110786Y-62214215D03*
X75160786Y-62214215D03*
%TD*%
D20*
%TO.C,U3*%
X66135786Y-63114215D03*
X66135786Y-62164215D03*
X66135786Y-61214215D03*
X63860786Y-61214215D03*
X63860786Y-62164215D03*
X63860786Y-63114215D03*
%TD*%
D24*
%TO.C,D4*%
X150410786Y-83614215D03*
X148360786Y-83614215D03*
%TD*%
D25*
%TO.C,D2*%
X62685786Y-27414215D03*
X64735786Y-27414215D03*
%TD*%
D14*
%TO.C,R5*%
X66510786Y-27414215D03*
X68510786Y-27414215D03*
%TD*%
D19*
%TO.C,R30*%
X61135786Y-63139215D03*
X59135786Y-63139215D03*
%TD*%
D14*
%TO.C,R2*%
X120285786Y-65914215D03*
X122285786Y-65914215D03*
%TD*%
D17*
%TO.C,C3*%
X127048286Y-66014215D03*
X124973286Y-66014215D03*
%TD*%
D18*
%TO.C,C16*%
X91348286Y-50914215D03*
X93423286Y-50914215D03*
%TD*%
D26*
%TO.C,D3*%
X141485786Y-51314215D03*
X141485786Y-49264215D03*
%TD*%
D10*
%TO.C,C17*%
X139585786Y-40676715D03*
X139585786Y-42751715D03*
%TD*%
D27*
%TO.C,R23*%
X56735786Y-49964215D03*
X56735786Y-53064215D03*
%TD*%
D17*
%TO.C,C19*%
X66110786Y-57414215D03*
X64035786Y-57414215D03*
%TD*%
%TO.C,C1*%
X127048286Y-61914215D03*
X124973286Y-61914215D03*
%TD*%
D10*
%TO.C,C18*%
X72085786Y-37176715D03*
X72085786Y-39251715D03*
%TD*%
D27*
%TO.C,R13*%
X115985786Y-56564215D03*
X115985786Y-59664215D03*
%TD*%
D21*
%TO.C,R25*%
X92485786Y-82814215D03*
X92485786Y-80814215D03*
%TD*%
D10*
%TO.C,C6*%
X141185786Y-68576715D03*
X141185786Y-70651715D03*
%TD*%
D11*
%TO.C,C23*%
X79735786Y-62214215D03*
X79735786Y-60139215D03*
%TD*%
D15*
%TO.C,J16*%
X113385786Y-80664215D03*
X112385786Y-80664215D03*
X111385786Y-80664215D03*
X110385786Y-80664215D03*
D16*
X114685786Y-83189215D03*
X109085786Y-83189215D03*
%TD*%
D19*
%TO.C,R9*%
X116685786Y-54419215D03*
X114685786Y-54419215D03*
%TD*%
D21*
%TO.C,R26*%
X94485786Y-82814215D03*
X94485786Y-80814215D03*
%TD*%
D23*
%TO.C,L1*%
X130160786Y-68814215D03*
X136210786Y-68814215D03*
%TD*%
D25*
%TO.C,D1*%
X156685786Y-83014215D03*
X158735786Y-83014215D03*
%TD*%
D19*
%TO.C,R1*%
X122285786Y-67814215D03*
X120285786Y-67814215D03*
%TD*%
D17*
%TO.C,C7*%
X66130786Y-55314215D03*
X64055786Y-55314215D03*
%TD*%
D11*
%TO.C,C25*%
X81735786Y-62214215D03*
X81735786Y-60139215D03*
%TD*%
D19*
%TO.C,R27*%
X59835786Y-46114215D03*
X57835786Y-46114215D03*
%TD*%
D11*
%TO.C,C22*%
X77735786Y-62214215D03*
X77735786Y-60139215D03*
%TD*%
D14*
%TO.C,R12*%
X120285786Y-69714215D03*
X122285786Y-69714215D03*
%TD*%
D21*
%TO.C,R3*%
X89485786Y-47214215D03*
X89485786Y-45214215D03*
%TD*%
M02*
