%TF.GenerationSoftware,KiCad,Pcbnew,9.0.5*%
%TF.CreationDate,2025-10-21T23:33:11-04:00*%
%TF.ProjectId,mainBoard,6d61696e-426f-4617-9264-2e6b69636164,rev?*%
%TF.SameCoordinates,Original*%
%TF.FileFunction,Soldermask,Bot*%
%TF.FilePolarity,Negative*%
%FSLAX46Y46*%
G04 Gerber Fmt 4.6, Leading zero omitted, Abs format (unit mm)*
G04 Created by KiCad (PCBNEW 9.0.5) date 2025-10-21 23:33:11*
%MOMM*%
%LPD*%
G01*
G04 APERTURE LIST*
G04 Aperture macros list*
%AMRoundRect*
0 Rectangle with rounded corners*
0 $1 Rounding radius*
0 $2 $3 $4 $5 $6 $7 $8 $9 X,Y pos of 4 corners*
0 Add a 4 corners polygon primitive as box body*
4,1,4,$2,$3,$4,$5,$6,$7,$8,$9,$2,$3,0*
0 Add four circle primitives for the rounded corners*
1,1,$1+$1,$2,$3*
1,1,$1+$1,$4,$5*
1,1,$1+$1,$6,$7*
1,1,$1+$1,$8,$9*
0 Add four rect primitives between the rounded corners*
20,1,$1+$1,$2,$3,$4,$5,0*
20,1,$1+$1,$4,$5,$6,$7,0*
20,1,$1+$1,$6,$7,$8,$9,0*
20,1,$1+$1,$8,$9,$2,$3,0*%
G04 Aperture macros list end*
%ADD10O,1.750000X1.200000*%
%ADD11RoundRect,0.250000X0.625000X-0.350000X0.625000X0.350000X-0.625000X0.350000X-0.625000X-0.350000X0*%
%ADD12R,2.000000X0.900000*%
%ADD13RoundRect,1.025000X1.025000X-1.025000X1.025000X1.025000X-1.025000X1.025000X-1.025000X-1.025000X0*%
%ADD14C,4.100000*%
%ADD15R,1.700000X1.700000*%
%ADD16C,1.700000*%
%ADD17RoundRect,0.250000X-1.050000X-1.050000X1.050000X-1.050000X1.050000X1.050000X-1.050000X1.050000X0*%
%ADD18C,2.600000*%
%ADD19RoundRect,0.760000X-1.140000X1.140000X-1.140000X-1.140000X1.140000X-1.140000X1.140000X1.140000X0*%
%ADD20C,3.800000*%
%ADD21C,4.300000*%
%ADD22RoundRect,0.250000X-0.350000X-0.625000X0.350000X-0.625000X0.350000X0.625000X-0.350000X0.625000X0*%
%ADD23O,1.200000X1.750000*%
%ADD24RoundRect,1.025000X-1.025000X1.025000X-1.025000X-1.025000X1.025000X-1.025000X1.025000X1.025000X0*%
%ADD25C,1.400000*%
%ADD26RoundRect,0.770000X-0.980000X0.980000X-0.980000X-0.980000X0.980000X-0.980000X0.980000X0.980000X0*%
%ADD27C,3.500000*%
%ADD28RoundRect,0.250000X1.075000X-0.400000X1.075000X0.400000X-1.075000X0.400000X-1.075000X-0.400000X0*%
%ADD29RoundRect,0.250000X-0.337500X-0.475000X0.337500X-0.475000X0.337500X0.475000X-0.337500X0.475000X0*%
%ADD30RoundRect,0.250000X0.350000X0.450000X-0.350000X0.450000X-0.350000X-0.450000X0.350000X-0.450000X0*%
%ADD31RoundRect,0.250000X-0.475000X0.337500X-0.475000X-0.337500X0.475000X-0.337500X0.475000X0.337500X0*%
%ADD32RoundRect,0.235000X-0.940000X-1.465000X0.940000X-1.465000X0.940000X1.465000X-0.940000X1.465000X0*%
%ADD33RoundRect,0.250000X0.337500X0.475000X-0.337500X0.475000X-0.337500X-0.475000X0.337500X-0.475000X0*%
%ADD34RoundRect,0.250000X-0.350000X-0.450000X0.350000X-0.450000X0.350000X0.450000X-0.350000X0.450000X0*%
%ADD35RoundRect,0.250000X-0.850000X-0.350000X0.850000X-0.350000X0.850000X0.350000X-0.850000X0.350000X0*%
%ADD36RoundRect,0.249997X-2.950003X-2.650003X2.950003X-2.650003X2.950003X2.650003X-2.950003X2.650003X0*%
%ADD37RoundRect,0.150000X0.512500X0.150000X-0.512500X0.150000X-0.512500X-0.150000X0.512500X-0.150000X0*%
G04 APERTURE END LIST*
D10*
%TO.C,J13*%
X98085786Y-47014215D03*
D11*
X98085786Y-49014215D03*
%TD*%
%TO.C,J14*%
X104085786Y-49014215D03*
D10*
X104085786Y-47014215D03*
%TD*%
D12*
%TO.C,J1*%
X62485786Y-43564215D03*
X62485786Y-30064215D03*
D13*
X68485786Y-40414215D03*
D14*
X68485786Y-33214215D03*
%TD*%
D15*
%TO.C,J23*%
X60385786Y-72214215D03*
D16*
X60385786Y-69674215D03*
X62925786Y-72214215D03*
X62925786Y-69674215D03*
X65465786Y-72214215D03*
X65465786Y-69674215D03*
X68005786Y-72214215D03*
X68005786Y-69674215D03*
X70545786Y-72214215D03*
X70545786Y-69674215D03*
X73085786Y-72214215D03*
X73085786Y-69674215D03*
X75625786Y-72214215D03*
X75625786Y-69674215D03*
X78165786Y-72214215D03*
X78165786Y-69674215D03*
X80705786Y-72214215D03*
X80705786Y-69674215D03*
X83245786Y-72214215D03*
X83245786Y-69674215D03*
X85785786Y-72214215D03*
X85785786Y-69674215D03*
X88325786Y-72214215D03*
X88325786Y-69674215D03*
X90865786Y-72214215D03*
X90865786Y-69674215D03*
X93405786Y-72214215D03*
X93405786Y-69674215D03*
X95945786Y-72214215D03*
X95945786Y-69674215D03*
X98485786Y-72214215D03*
X98485786Y-69674215D03*
X101025786Y-72214215D03*
X101025786Y-69674215D03*
X103565786Y-72214215D03*
X103565786Y-69674215D03*
X106105786Y-72214215D03*
X106105786Y-69674215D03*
X108645786Y-72214215D03*
X108645786Y-69674215D03*
%TD*%
D17*
%TO.C,J17*%
X135635786Y-79486715D03*
D18*
X140635786Y-79486715D03*
%TD*%
D19*
%TO.C,J7*%
X127335786Y-34214215D03*
D20*
X127335786Y-39214215D03*
%TD*%
D21*
%TO.C,H2*%
X88485786Y-31414215D03*
%TD*%
D19*
%TO.C,J10*%
X105585786Y-34214215D03*
D20*
X105585786Y-39214215D03*
%TD*%
D22*
%TO.C,J21*%
X147185786Y-78164215D03*
D23*
X149185786Y-78164215D03*
%TD*%
D11*
%TO.C,J26*%
X126835786Y-49014215D03*
D10*
X126835786Y-47014215D03*
%TD*%
D17*
%TO.C,J5*%
X124485786Y-79514215D03*
D18*
X129485786Y-79514215D03*
%TD*%
D19*
%TO.C,J6*%
X134585786Y-34214215D03*
D20*
X134585786Y-39214215D03*
%TD*%
D11*
%TO.C,J25*%
X121085786Y-49014215D03*
D10*
X121085786Y-47014215D03*
%TD*%
D11*
%TO.C,J15*%
X109835786Y-49014215D03*
D10*
X109835786Y-47014215D03*
%TD*%
D21*
%TO.C,H1*%
X58385786Y-79014215D03*
%TD*%
D12*
%TO.C,J2*%
X149935786Y-30464215D03*
X149935786Y-43964215D03*
D24*
X143935786Y-33614215D03*
D14*
X143935786Y-40814215D03*
%TD*%
D15*
%TO.C,J22*%
X153585786Y-78164215D03*
D16*
X156125786Y-78164215D03*
%TD*%
D19*
%TO.C,J8*%
X120085786Y-34214215D03*
D20*
X120085786Y-39214215D03*
%TD*%
D15*
%TO.C,J12*%
X78825786Y-43114215D03*
D16*
X76285786Y-43114215D03*
X73745786Y-43114215D03*
%TD*%
D25*
%TO.C,J3*%
X157085786Y-63214215D03*
X157085786Y-74214215D03*
D26*
X147085786Y-71214215D03*
D27*
X147085786Y-66214215D03*
%TD*%
D25*
%TO.C,J4*%
X157085786Y-48214215D03*
X157085786Y-59214215D03*
D26*
X147085786Y-56214215D03*
D27*
X147085786Y-51214215D03*
%TD*%
D11*
%TO.C,J24*%
X115435786Y-49014215D03*
D10*
X115435786Y-47014215D03*
%TD*%
D19*
%TO.C,J9*%
X112835786Y-34214215D03*
D20*
X112835786Y-39214215D03*
%TD*%
D19*
%TO.C,J11*%
X98335786Y-34214215D03*
D20*
X98335786Y-39214215D03*
%TD*%
D28*
%TO.C,R14*%
X118548166Y-68664215D03*
X118548166Y-65564215D03*
%TD*%
D29*
%TO.C,C11*%
X126748286Y-53514215D03*
X128823286Y-53514215D03*
%TD*%
D30*
%TO.C,R10*%
X121648166Y-72514215D03*
X119648166Y-72514215D03*
%TD*%
D31*
%TO.C,C12*%
X139448166Y-56714215D03*
X139448166Y-58789215D03*
%TD*%
D32*
%TO.C,L3*%
X130723166Y-56714215D03*
X136773166Y-56714215D03*
%TD*%
D33*
%TO.C,C8*%
X127885666Y-63214215D03*
X125810666Y-63214215D03*
%TD*%
D34*
%TO.C,R7*%
X120448166Y-59314215D03*
X122448166Y-59314215D03*
%TD*%
D35*
%TO.C,Q1*%
X121623166Y-70119215D03*
D36*
X127923166Y-67839215D03*
D35*
X121623166Y-65559215D03*
%TD*%
D34*
%TO.C,R11*%
X120448166Y-55314215D03*
X122448166Y-55314215D03*
%TD*%
D31*
%TO.C,C13*%
X141458166Y-56714215D03*
X141458166Y-58789215D03*
%TD*%
%TO.C,C26*%
X143458166Y-56714215D03*
X143458166Y-58789215D03*
%TD*%
D37*
%TO.C,U2*%
X127823166Y-55514215D03*
X127823166Y-56464215D03*
X127823166Y-57414215D03*
X125548166Y-57414215D03*
X125548166Y-56464215D03*
X125548166Y-55514215D03*
%TD*%
D33*
%TO.C,C10*%
X127885666Y-61214215D03*
X125810666Y-61214215D03*
%TD*%
D30*
%TO.C,R6*%
X122448166Y-57314215D03*
X120448166Y-57314215D03*
%TD*%
D33*
%TO.C,C9*%
X127885666Y-59214215D03*
X125810666Y-59214215D03*
%TD*%
M02*
