%TF.GenerationSoftware,KiCad,Pcbnew,9.0.6*%
%TF.CreationDate,2025-12-09T22:18:26-05:00*%
%TF.ProjectId,mainBoard,6d61696e-426f-4617-9264-2e6b69636164,rev?*%
%TF.SameCoordinates,Original*%
%TF.FileFunction,Soldermask,Top*%
%TF.FilePolarity,Negative*%
%FSLAX46Y46*%
G04 Gerber Fmt 4.6, Leading zero omitted, Abs format (unit mm)*
G04 Created by KiCad (PCBNEW 9.0.6) date 2025-12-09 22:18:26*
%MOMM*%
%LPD*%
G01*
G04 APERTURE LIST*
G04 Aperture macros list*
%AMRoundRect*
0 Rectangle with rounded corners*
0 $1 Rounding radius*
0 $2 $3 $4 $5 $6 $7 $8 $9 X,Y pos of 4 corners*
0 Add a 4 corners polygon primitive as box body*
4,1,4,$2,$3,$4,$5,$6,$7,$8,$9,$2,$3,0*
0 Add four circle primitives for the rounded corners*
1,1,$1+$1,$2,$3*
1,1,$1+$1,$4,$5*
1,1,$1+$1,$6,$7*
1,1,$1+$1,$8,$9*
0 Add four rect primitives between the rounded corners*
20,1,$1+$1,$2,$3,$4,$5,0*
20,1,$1+$1,$4,$5,$6,$7,0*
20,1,$1+$1,$6,$7,$8,$9,0*
20,1,$1+$1,$8,$9,$2,$3,0*%
G04 Aperture macros list end*
%ADD10RoundRect,0.250000X-0.337500X-0.475000X0.337500X-0.475000X0.337500X0.475000X-0.337500X0.475000X0*%
%ADD11C,2.000000*%
%ADD12RoundRect,0.250000X-0.475000X0.337500X-0.475000X-0.337500X0.475000X-0.337500X0.475000X0.337500X0*%
%ADD13RoundRect,0.250000X0.475000X-0.337500X0.475000X0.337500X-0.475000X0.337500X-0.475000X-0.337500X0*%
%ADD14RoundRect,0.250000X0.625000X-0.350000X0.625000X0.350000X-0.625000X0.350000X-0.625000X-0.350000X0*%
%ADD15O,1.750000X1.200000*%
%ADD16RoundRect,0.250000X-0.850000X-0.350000X0.850000X-0.350000X0.850000X0.350000X-0.850000X0.350000X0*%
%ADD17RoundRect,0.249997X-2.950003X-2.650003X2.950003X-2.650003X2.950003X2.650003X-2.950003X2.650003X0*%
%ADD18RoundRect,0.150000X0.150000X0.625000X-0.150000X0.625000X-0.150000X-0.625000X0.150000X-0.625000X0*%
%ADD19RoundRect,0.250000X0.350000X0.650000X-0.350000X0.650000X-0.350000X-0.650000X0.350000X-0.650000X0*%
%ADD20R,2.000000X0.900000*%
%ADD21RoundRect,1.025000X1.025000X-1.025000X1.025000X1.025000X-1.025000X1.025000X-1.025000X-1.025000X0*%
%ADD22C,4.100000*%
%ADD23RoundRect,0.250000X-0.350000X-0.450000X0.350000X-0.450000X0.350000X0.450000X-0.350000X0.450000X0*%
%ADD24R,1.700000X1.700000*%
%ADD25C,1.700000*%
%ADD26RoundRect,0.250000X-0.450000X0.350000X-0.450000X-0.350000X0.450000X-0.350000X0.450000X0.350000X0*%
%ADD27RoundRect,0.150000X0.512500X0.150000X-0.512500X0.150000X-0.512500X-0.150000X0.512500X-0.150000X0*%
%ADD28RoundRect,0.760000X-1.140000X1.140000X-1.140000X-1.140000X1.140000X-1.140000X1.140000X1.140000X0*%
%ADD29C,3.800000*%
%ADD30RoundRect,0.250000X0.450000X-0.350000X0.450000X0.350000X-0.450000X0.350000X-0.450000X-0.350000X0*%
%ADD31C,4.300000*%
%ADD32RoundRect,0.150000X-0.825000X-0.150000X0.825000X-0.150000X0.825000X0.150000X-0.825000X0.150000X0*%
%ADD33RoundRect,0.250000X-0.350000X-0.625000X0.350000X-0.625000X0.350000X0.625000X-0.350000X0.625000X0*%
%ADD34O,1.200000X1.750000*%
%ADD35RoundRect,0.250000X-0.550000X0.550000X-0.550000X-0.550000X0.550000X-0.550000X0.550000X0.550000X0*%
%ADD36C,1.600000*%
%ADD37RoundRect,0.250000X0.337500X0.475000X-0.337500X0.475000X-0.337500X-0.475000X0.337500X-0.475000X0*%
%ADD38RoundRect,0.250000X0.550000X-0.550000X0.550000X0.550000X-0.550000X0.550000X-0.550000X-0.550000X0*%
%ADD39RoundRect,0.250000X-0.325000X-0.450000X0.325000X-0.450000X0.325000X0.450000X-0.325000X0.450000X0*%
%ADD40RoundRect,1.025000X-1.025000X1.025000X-1.025000X-1.025000X1.025000X-1.025000X1.025000X1.025000X0*%
%ADD41RoundRect,0.250000X0.450000X-0.325000X0.450000X0.325000X-0.450000X0.325000X-0.450000X-0.325000X0*%
%ADD42RoundRect,0.250000X-1.075000X0.400000X-1.075000X-0.400000X1.075000X-0.400000X1.075000X0.400000X0*%
%ADD43C,1.400000*%
%ADD44RoundRect,0.770000X-0.980000X0.980000X-0.980000X-0.980000X0.980000X-0.980000X0.980000X0.980000X0*%
%ADD45C,3.500000*%
%ADD46RoundRect,0.250000X0.350000X0.450000X-0.350000X0.450000X-0.350000X-0.450000X0.350000X-0.450000X0*%
%ADD47RoundRect,0.235000X-0.940000X-1.465000X0.940000X-1.465000X0.940000X1.465000X-0.940000X1.465000X0*%
%ADD48RoundRect,0.162500X-0.837500X-0.162500X0.837500X-0.162500X0.837500X0.162500X-0.837500X0.162500X0*%
G04 APERTURE END LIST*
D10*
%TO.C,C7*%
X83048286Y-52214215D03*
X85123286Y-52214215D03*
%TD*%
D11*
%TO.C,TP1*%
X73035786Y-30214215D03*
%TD*%
D12*
%TO.C,C24*%
X139085786Y-68576715D03*
X139085786Y-70651715D03*
%TD*%
D13*
%TO.C,C14*%
X77085786Y-48651715D03*
X77085786Y-46576715D03*
%TD*%
D14*
%TO.C,J14*%
X108085786Y-48614215D03*
D15*
X108085786Y-46614215D03*
%TD*%
D16*
%TO.C,Q2*%
X119085786Y-55014215D03*
D17*
X125385786Y-57294215D03*
D16*
X119085786Y-59574215D03*
%TD*%
D18*
%TO.C,J20*%
X130185786Y-80689215D03*
X129185786Y-80689215D03*
X128185786Y-80689215D03*
X127185786Y-80689215D03*
D19*
X131485786Y-83214215D03*
X125885786Y-83214215D03*
%TD*%
D11*
%TO.C,TP9*%
X139385786Y-64864215D03*
%TD*%
%TO.C,TP7*%
X137085786Y-49314215D03*
%TD*%
%TO.C,TP6*%
X75885786Y-39514215D03*
%TD*%
D20*
%TO.C,J1*%
X62485786Y-43564215D03*
X62485786Y-30064215D03*
D21*
X68485786Y-40414215D03*
D22*
X68485786Y-33214215D03*
%TD*%
D10*
%TO.C,C4*%
X126348286Y-71814215D03*
X128423286Y-71814215D03*
%TD*%
D23*
%TO.C,R4*%
X156710786Y-81014215D03*
X158710786Y-81014215D03*
%TD*%
D24*
%TO.C,J23*%
X63505786Y-80014215D03*
D25*
X63505786Y-77474215D03*
X66045786Y-80014215D03*
X66045786Y-77474215D03*
X68585786Y-80014215D03*
X68585786Y-77474215D03*
X71125786Y-80014215D03*
X71125786Y-77474215D03*
X73665786Y-80014215D03*
X73665786Y-77474215D03*
X76205786Y-80014215D03*
X76205786Y-77474215D03*
X78745786Y-80014215D03*
X78745786Y-77474215D03*
X81285786Y-80014215D03*
X81285786Y-77474215D03*
X83825786Y-80014215D03*
X83825786Y-77474215D03*
X86365786Y-80014215D03*
X86365786Y-77474215D03*
X88905786Y-80014215D03*
X88905786Y-77474215D03*
X91445786Y-80014215D03*
X91445786Y-77474215D03*
X93985786Y-80014215D03*
X93985786Y-77474215D03*
X96525786Y-80014215D03*
X96525786Y-77474215D03*
X99065786Y-80014215D03*
X99065786Y-77474215D03*
X101605786Y-80014215D03*
X101605786Y-77474215D03*
X104145786Y-80014215D03*
X104145786Y-77474215D03*
X106685786Y-80014215D03*
X106685786Y-77474215D03*
X109225786Y-80014215D03*
X109225786Y-77474215D03*
X111765786Y-80014215D03*
X111765786Y-77474215D03*
%TD*%
D26*
%TO.C,R16*%
X140285786Y-73514215D03*
X140285786Y-75514215D03*
%TD*%
D27*
%TO.C,U1*%
X127085786Y-69714215D03*
X127085786Y-68764215D03*
X127085786Y-67814215D03*
X124810786Y-67814215D03*
X124810786Y-68764215D03*
X124810786Y-69714215D03*
%TD*%
D11*
%TO.C,TP5*%
X79185786Y-39614215D03*
%TD*%
D28*
%TO.C,J7*%
X127335786Y-34214215D03*
D29*
X127335786Y-39214215D03*
%TD*%
D30*
%TO.C,R8*%
X143495786Y-51294215D03*
X143495786Y-49294215D03*
%TD*%
D31*
%TO.C,H2*%
X88485786Y-31414215D03*
%TD*%
D28*
%TO.C,J10*%
X105585786Y-34214215D03*
D29*
X105585786Y-39214215D03*
%TD*%
D32*
%TO.C,IC1*%
X79835786Y-46174215D03*
X79835786Y-47444215D03*
X79835786Y-48714215D03*
X79835786Y-49984215D03*
X84785786Y-49984215D03*
X84785786Y-48714215D03*
X84785786Y-47444215D03*
X84785786Y-46174215D03*
%TD*%
D33*
%TO.C,J21*%
X147185786Y-78164215D03*
D34*
X149185786Y-78164215D03*
%TD*%
D30*
%TO.C,R24*%
X89485786Y-50914215D03*
X89485786Y-48914215D03*
%TD*%
D14*
%TO.C,J26*%
X130835786Y-48614215D03*
D15*
X130835786Y-46614215D03*
%TD*%
D35*
%TO.C,C27*%
X84685786Y-40114215D03*
D36*
X84685786Y-42614215D03*
%TD*%
D26*
%TO.C,R15*%
X142285786Y-73514215D03*
X142285786Y-75514215D03*
%TD*%
D37*
%TO.C,C2*%
X127048286Y-63964215D03*
X124973286Y-63964215D03*
%TD*%
D28*
%TO.C,J6*%
X134585786Y-34214215D03*
D29*
X134585786Y-39214215D03*
%TD*%
D13*
%TO.C,C15*%
X153585786Y-83051715D03*
X153585786Y-80976715D03*
%TD*%
D12*
%TO.C,C5*%
X143295786Y-68614215D03*
X143295786Y-70689215D03*
%TD*%
D14*
%TO.C,J25*%
X125085786Y-48614215D03*
D15*
X125085786Y-46614215D03*
%TD*%
D38*
%TO.C,C28*%
X80485786Y-34096595D03*
D36*
X80485786Y-31596595D03*
%TD*%
D14*
%TO.C,J15*%
X113835786Y-48614215D03*
D15*
X113835786Y-46614215D03*
%TD*%
D39*
%TO.C,D2*%
X62685786Y-27414215D03*
X64735786Y-27414215D03*
%TD*%
D23*
%TO.C,R5*%
X66510786Y-27414215D03*
X68510786Y-27414215D03*
%TD*%
D11*
%TO.C,TP10*%
X119585786Y-82814215D03*
%TD*%
D23*
%TO.C,R2*%
X120285786Y-65914215D03*
X122285786Y-65914215D03*
%TD*%
D31*
%TO.C,H1*%
X57085786Y-78814215D03*
%TD*%
D11*
%TO.C,TP4*%
X122885786Y-82914215D03*
%TD*%
D20*
%TO.C,J2*%
X149935786Y-30464215D03*
X149935786Y-43964215D03*
D40*
X143935786Y-33614215D03*
D22*
X143935786Y-40814215D03*
%TD*%
D37*
%TO.C,C3*%
X127048286Y-66014215D03*
X124973286Y-66014215D03*
%TD*%
D14*
%TO.C,J13*%
X102085786Y-48614215D03*
D15*
X102085786Y-46614215D03*
%TD*%
D10*
%TO.C,C16*%
X91348286Y-50914215D03*
X93423286Y-50914215D03*
%TD*%
D24*
%TO.C,J22*%
X153585786Y-78164215D03*
D25*
X156125786Y-78164215D03*
%TD*%
D28*
%TO.C,J8*%
X120085786Y-34214215D03*
D29*
X120085786Y-39214215D03*
%TD*%
D41*
%TO.C,D3*%
X141485786Y-51314215D03*
X141485786Y-49264215D03*
%TD*%
D12*
%TO.C,C17*%
X139585786Y-40676715D03*
X139585786Y-42751715D03*
%TD*%
D24*
%TO.C,J12*%
X78825786Y-43114215D03*
D25*
X76285786Y-43114215D03*
X73745786Y-43114215D03*
%TD*%
D11*
%TO.C,TP11*%
X76185786Y-30214215D03*
%TD*%
D37*
%TO.C,C1*%
X127048286Y-61914215D03*
X124973286Y-61914215D03*
%TD*%
D12*
%TO.C,C18*%
X72085786Y-37176715D03*
X72085786Y-39251715D03*
%TD*%
D42*
%TO.C,R13*%
X115985786Y-56564215D03*
X115985786Y-59664215D03*
%TD*%
D26*
%TO.C,R25*%
X134085786Y-75814215D03*
X134085786Y-77814215D03*
%TD*%
D11*
%TO.C,TP2*%
X142585786Y-65114215D03*
%TD*%
D12*
%TO.C,C6*%
X141185786Y-68576715D03*
X141185786Y-70651715D03*
%TD*%
D43*
%TO.C,J3*%
X157085786Y-63214215D03*
X157085786Y-74214215D03*
D44*
X147085786Y-71214215D03*
D45*
X147085786Y-66214215D03*
%TD*%
D43*
%TO.C,J4*%
X157085786Y-48214215D03*
X157085786Y-59214215D03*
D44*
X147085786Y-56214215D03*
D45*
X147085786Y-51214215D03*
%TD*%
D11*
%TO.C,TP12*%
X134785786Y-82914215D03*
%TD*%
D18*
%TO.C,J16*%
X142585786Y-80664215D03*
X141585786Y-80664215D03*
X140585786Y-80664215D03*
X139585786Y-80664215D03*
D19*
X143885786Y-83189215D03*
X138285786Y-83189215D03*
%TD*%
D14*
%TO.C,J24*%
X119435786Y-48614215D03*
D15*
X119435786Y-46614215D03*
%TD*%
D46*
%TO.C,R9*%
X116685786Y-54419215D03*
X114685786Y-54419215D03*
%TD*%
D26*
%TO.C,R26*%
X132085786Y-75814215D03*
X132085786Y-77814215D03*
%TD*%
D47*
%TO.C,L1*%
X130160786Y-68814215D03*
X136210786Y-68814215D03*
%TD*%
D11*
%TO.C,TP8*%
X137085786Y-46214215D03*
%TD*%
D39*
%TO.C,D1*%
X156685786Y-83014215D03*
X158735786Y-83014215D03*
%TD*%
D46*
%TO.C,R1*%
X122285786Y-67814215D03*
X120285786Y-67814215D03*
%TD*%
D28*
%TO.C,J9*%
X112835786Y-34214215D03*
D29*
X112835786Y-39214215D03*
%TD*%
D23*
%TO.C,R12*%
X120285786Y-69714215D03*
X122285786Y-69714215D03*
%TD*%
D30*
%TO.C,R3*%
X89485786Y-47214215D03*
X89485786Y-45214215D03*
%TD*%
D28*
%TO.C,J11*%
X98335786Y-34214215D03*
D29*
X98335786Y-39214215D03*
%TD*%
D48*
%TO.C,D4*%
X93785786Y-47114215D03*
X93785786Y-49014215D03*
X97205786Y-48064215D03*
%TD*%
M02*
