M48
; DRILL file {KiCad 9.0.6} date 2025-12-09T22:18:28-0500
; FORMAT={-:-/ absolute / metric / decimal}
; #@! TF.CreationDate,2025-12-09T22:18:28-05:00
; #@! TF.GenerationSoftware,Kicad,Pcbnew,9.0.6
; #@! TF.FileFunction,Plated,1,4,PTH
FMAT,2
METRIC
; #@! TA.AperFunction,Plated,PTH,ViaDrill
T1C0.300
; #@! TA.AperFunction,Plated,PTH,ViaDrill
T2C0.500
; #@! TA.AperFunction,Plated,PTH,ComponentDrill
T3C0.600
; #@! TA.AperFunction,Plated,PTH,ComponentDrill
T4C0.750
; #@! TA.AperFunction,Plated,PTH,ComponentDrill
T5C0.800
; #@! TA.AperFunction,Plated,PTH,ComponentDrill
T6C1.000
; #@! TA.AperFunction,Plated,PTH,ComponentDrill
T7C1.900
; #@! TA.AperFunction,Plated,PTH,ComponentDrill
T8C2.700
%
G90
G05
T1
X52.586Y-58.214
X53.086Y-82.714
X53.586Y-40.214
X53.586Y-68.714
X54.086Y-27.714
X54.086Y-33.714
X54.086Y-74.214
X54.486Y-50.514
X56.186Y-62.814
X56.586Y-56.214
X56.586Y-59.214
X57.086Y-69.214
X57.586Y-27.714
X58.086Y-39.714
X58.086Y-43.214
X58.586Y-32.714
X58.686Y-47.014
X59.186Y-83.414
X59.986Y-27.414
X60.086Y-56.714
X60.586Y-35.214
X60.699Y-64.401
X62.586Y-39.214
X63.386Y-50.714
X63.586Y-32.714
X64.086Y-74.714
X64.086Y-83.214
X64.46Y-69.587
X66.086Y-44.214
X66.586Y-46.214
X67.386Y-82.314
X68.386Y-65.514
X68.586Y-56.214
X69.086Y-70.414
X71.586Y-46.214
X71.586Y-75.214
X72.486Y-63.764
X72.586Y-55.214
X73.586Y-57.714
X74.086Y-51.714
X74.586Y-34.714
X75.186Y-71.414
X75.686Y-46.514
X75.686Y-48.614
X76.586Y-55.214
X77.586Y-67.214
X78.086Y-35.714
X78.086Y-64.714
X78.186Y-28.514
X81.586Y-66.714
X81.686Y-54.764
X81.786Y-59.914
X82.386Y-28.714
X83.086Y-65.214
X83.586Y-43.214
X83.586Y-75.214
X84.086Y-28.214
X84.986Y-71.214
X85.086Y-55.714
X86.586Y-44.214
X87.086Y-45.214
X87.086Y-50.914
X87.086Y-59.714
X87.486Y-52.314
X88.086Y-66.714
X90.586Y-65.214
X91.086Y-75.214
X91.586Y-55.214
X92.086Y-57.214
X93.086Y-34.214
X93.086Y-44.714
X93.985Y-30.99
X94.211Y-71.018
X95.086Y-28.214
X95.286Y-48.014
X95.686Y-73.914
X97.086Y-67.214
X97.586Y-57.714
X97.586Y-63.714
X98.086Y-55.214
X100.586Y-28.214
X100.586Y-43.214
X100.586Y-51.214
X101.947Y-31.793
X102.586Y-58.214
X103.086Y-67.214
X103.586Y-55.214
X104.686Y-70.614
X105.703Y-63.895
X106.586Y-58.714
X106.586Y-74.714
X107.086Y-67.214
X108.886Y-31.114
X109.086Y-43.214
X109.186Y-28.314
X109.586Y-55.714
X109.586Y-59.214
X110.686Y-64.114
X112.586Y-69.714
X113.086Y-61.214
X113.286Y-54.414
X115.286Y-77.014
X115.486Y-74.814
X115.586Y-65.714
X115.586Y-66.714
X116.486Y-30.714
X116.586Y-28.214
X116.586Y-72.714
X117.386Y-82.514
X117.586Y-43.714
X118.186Y-70.514
X120.386Y-78.614
X120.486Y-53.414
X122.486Y-75.714
X123.086Y-52.714
X123.586Y-38.714
X123.586Y-61.214
X123.586Y-63.214
X123.986Y-31.014
X124.686Y-81.314
X125.086Y-43.214
X125.186Y-77.714
X125.586Y-28.214
X129.186Y-82.714
X131.086Y-38.714
X131.086Y-63.214
X131.586Y-61.714
X131.786Y-30.714
X132.086Y-52.714
X132.386Y-79.914
X132.586Y-43.214
X133.636Y-56.664
X134.586Y-63.214
X135.586Y-28.214
X137.086Y-61.714
X137.086Y-80.414
X137.286Y-77.814
X137.486Y-74.714
X137.986Y-79.414
X138.086Y-44.714
X138.586Y-48.214
X138.586Y-51.714
X139.086Y-38.714
X139.586Y-77.114
X139.786Y-32.614
X140.086Y-53.714
X141.286Y-46.014
X142.586Y-61.214
X143.586Y-54.214
X143.886Y-74.514
X144.086Y-78.214
X145.086Y-28.214
X145.986Y-75.114
X146.086Y-46.214
X146.586Y-61.214
X146.786Y-83.214
X148.927Y-39.989
X149.086Y-36.714
X149.286Y-33.514
X149.986Y-83.114
X150.086Y-60.714
X150.086Y-64.214
X150.586Y-55.714
X151.086Y-62.714
X152.586Y-47.714
X153.586Y-34.214
X154.086Y-29.214
X154.086Y-43.714
X155.086Y-51.214
X155.086Y-62.714
X155.086Y-75.514
X155.286Y-39.914
X156.586Y-55.714
X156.986Y-71.164
X157.086Y-67.714
X158.086Y-38.214
X158.586Y-30.214
X158.586Y-46.714
X159.086Y-61.214
X159.586Y-79.214
X160.086Y-52.714
T2
X89.586Y-37.714
X89.586Y-39.714
X93.086Y-37.714
X93.086Y-39.714
X116.086Y-62.214
X116.086Y-63.714
X119.586Y-62.214
T4
X102.086Y-46.614
X102.086Y-48.614
X108.086Y-46.614
X108.086Y-48.614
X113.836Y-46.614
X113.836Y-48.614
X119.436Y-46.614
X119.436Y-48.614
X125.086Y-46.614
X125.086Y-48.614
X130.836Y-46.614
X130.836Y-48.614
X147.186Y-78.164
X149.186Y-78.164
T5
X80.486Y-31.597
X80.486Y-34.097
X84.686Y-40.114
X84.686Y-42.614
T6
X63.506Y-77.474
X63.506Y-80.014
X66.046Y-77.474
X66.046Y-80.014
X68.586Y-77.474
X68.586Y-80.014
X71.126Y-77.474
X71.126Y-80.014
X73.666Y-77.474
X73.666Y-80.014
X73.746Y-43.114
X76.206Y-77.474
X76.206Y-80.014
X76.286Y-43.114
X78.746Y-77.474
X78.746Y-80.014
X78.826Y-43.114
X81.286Y-77.474
X81.286Y-80.014
X83.826Y-77.474
X83.826Y-80.014
X86.366Y-77.474
X86.366Y-80.014
X88.906Y-77.474
X88.906Y-80.014
X91.446Y-77.474
X91.446Y-80.014
X93.986Y-77.474
X93.986Y-80.014
X96.526Y-77.474
X96.526Y-80.014
X99.066Y-77.474
X99.066Y-80.014
X101.606Y-77.474
X101.606Y-80.014
X104.146Y-77.474
X104.146Y-80.014
X106.686Y-77.474
X106.686Y-80.014
X109.226Y-77.474
X109.226Y-80.014
X111.766Y-77.474
X111.766Y-80.014
X153.586Y-78.164
X156.126Y-78.164
X157.086Y-48.214
X157.086Y-59.214
X157.086Y-63.214
X157.086Y-74.214
T7
X147.086Y-51.214
X147.086Y-56.214
X147.086Y-66.214
X147.086Y-71.214
T8
X68.486Y-33.214
X68.486Y-40.414
X98.336Y-34.214
X98.336Y-39.214
X105.586Y-34.214
X105.586Y-39.214
X112.836Y-34.214
X112.836Y-39.214
X120.086Y-34.214
X120.086Y-39.214
X127.336Y-34.214
X127.336Y-39.214
X134.586Y-34.214
X134.586Y-39.214
X143.936Y-33.614
X143.936Y-40.814
T3
G00X61.936Y-30.064
M15
G01X63.036Y-30.064
M16
G05
G00X61.936Y-43.564
M15
G01X63.036Y-43.564
M16
G05
G00X150.486Y-30.464
M15
G01X149.386Y-30.464
M16
G05
G00X150.486Y-43.964
M15
G01X149.386Y-43.964
M16
G05
M30
