%TF.GenerationSoftware,KiCad,Pcbnew,9.0.6*%
%TF.CreationDate,2025-12-09T22:18:26-05:00*%
%TF.ProjectId,mainBoard,6d61696e-426f-4617-9264-2e6b69636164,rev?*%
%TF.SameCoordinates,Original*%
%TF.FileFunction,Legend,Top*%
%TF.FilePolarity,Positive*%
%FSLAX46Y46*%
G04 Gerber Fmt 4.6, Leading zero omitted, Abs format (unit mm)*
G04 Created by KiCad (PCBNEW 9.0.6) date 2025-12-09 22:18:26*
%MOMM*%
%LPD*%
G01*
G04 APERTURE LIST*
G04 Aperture macros list*
%AMRoundRect*
0 Rectangle with rounded corners*
0 $1 Rounding radius*
0 $2 $3 $4 $5 $6 $7 $8 $9 X,Y pos of 4 corners*
0 Add a 4 corners polygon primitive as box body*
4,1,4,$2,$3,$4,$5,$6,$7,$8,$9,$2,$3,0*
0 Add four circle primitives for the rounded corners*
1,1,$1+$1,$2,$3*
1,1,$1+$1,$4,$5*
1,1,$1+$1,$6,$7*
1,1,$1+$1,$8,$9*
0 Add four rect primitives between the rounded corners*
20,1,$1+$1,$2,$3,$4,$5,0*
20,1,$1+$1,$4,$5,$6,$7,0*
20,1,$1+$1,$6,$7,$8,$9,0*
20,1,$1+$1,$8,$9,$2,$3,0*%
G04 Aperture macros list end*
%ADD10C,0.150000*%
%ADD11C,0.120000*%
%ADD12C,0.000000*%
%ADD13RoundRect,0.250000X-0.337500X-0.475000X0.337500X-0.475000X0.337500X0.475000X-0.337500X0.475000X0*%
%ADD14C,2.000000*%
%ADD15RoundRect,0.250000X-0.475000X0.337500X-0.475000X-0.337500X0.475000X-0.337500X0.475000X0.337500X0*%
%ADD16RoundRect,0.250000X0.475000X-0.337500X0.475000X0.337500X-0.475000X0.337500X-0.475000X-0.337500X0*%
%ADD17RoundRect,0.250000X0.625000X-0.350000X0.625000X0.350000X-0.625000X0.350000X-0.625000X-0.350000X0*%
%ADD18O,1.750000X1.200000*%
%ADD19RoundRect,0.250000X-0.850000X-0.350000X0.850000X-0.350000X0.850000X0.350000X-0.850000X0.350000X0*%
%ADD20RoundRect,0.249997X-2.950003X-2.650003X2.950003X-2.650003X2.950003X2.650003X-2.950003X2.650003X0*%
%ADD21RoundRect,0.150000X0.150000X0.625000X-0.150000X0.625000X-0.150000X-0.625000X0.150000X-0.625000X0*%
%ADD22RoundRect,0.250000X0.350000X0.650000X-0.350000X0.650000X-0.350000X-0.650000X0.350000X-0.650000X0*%
%ADD23R,2.000000X0.900000*%
%ADD24RoundRect,1.025000X1.025000X-1.025000X1.025000X1.025000X-1.025000X1.025000X-1.025000X-1.025000X0*%
%ADD25C,4.100000*%
%ADD26RoundRect,0.250000X-0.350000X-0.450000X0.350000X-0.450000X0.350000X0.450000X-0.350000X0.450000X0*%
%ADD27R,1.700000X1.700000*%
%ADD28C,1.700000*%
%ADD29RoundRect,0.250000X-0.450000X0.350000X-0.450000X-0.350000X0.450000X-0.350000X0.450000X0.350000X0*%
%ADD30RoundRect,0.150000X0.512500X0.150000X-0.512500X0.150000X-0.512500X-0.150000X0.512500X-0.150000X0*%
%ADD31RoundRect,0.760000X-1.140000X1.140000X-1.140000X-1.140000X1.140000X-1.140000X1.140000X1.140000X0*%
%ADD32C,3.800000*%
%ADD33RoundRect,0.250000X0.450000X-0.350000X0.450000X0.350000X-0.450000X0.350000X-0.450000X-0.350000X0*%
%ADD34C,4.300000*%
%ADD35RoundRect,0.150000X-0.825000X-0.150000X0.825000X-0.150000X0.825000X0.150000X-0.825000X0.150000X0*%
%ADD36RoundRect,0.250000X-0.350000X-0.625000X0.350000X-0.625000X0.350000X0.625000X-0.350000X0.625000X0*%
%ADD37O,1.200000X1.750000*%
%ADD38RoundRect,0.250000X-0.550000X0.550000X-0.550000X-0.550000X0.550000X-0.550000X0.550000X0.550000X0*%
%ADD39C,1.600000*%
%ADD40RoundRect,0.250000X0.337500X0.475000X-0.337500X0.475000X-0.337500X-0.475000X0.337500X-0.475000X0*%
%ADD41RoundRect,0.250000X0.550000X-0.550000X0.550000X0.550000X-0.550000X0.550000X-0.550000X-0.550000X0*%
%ADD42RoundRect,0.250000X-0.325000X-0.450000X0.325000X-0.450000X0.325000X0.450000X-0.325000X0.450000X0*%
%ADD43RoundRect,1.025000X-1.025000X1.025000X-1.025000X-1.025000X1.025000X-1.025000X1.025000X1.025000X0*%
%ADD44RoundRect,0.250000X0.450000X-0.325000X0.450000X0.325000X-0.450000X0.325000X-0.450000X-0.325000X0*%
%ADD45RoundRect,0.250000X-1.075000X0.400000X-1.075000X-0.400000X1.075000X-0.400000X1.075000X0.400000X0*%
%ADD46C,1.400000*%
%ADD47RoundRect,0.770000X-0.980000X0.980000X-0.980000X-0.980000X0.980000X-0.980000X0.980000X0.980000X0*%
%ADD48C,3.500000*%
%ADD49RoundRect,0.250000X0.350000X0.450000X-0.350000X0.450000X-0.350000X-0.450000X0.350000X-0.450000X0*%
%ADD50RoundRect,0.235000X-0.940000X-1.465000X0.940000X-1.465000X0.940000X1.465000X-0.940000X1.465000X0*%
%ADD51RoundRect,0.162500X-0.837500X-0.162500X0.837500X-0.162500X0.837500X0.162500X-0.837500X0.162500X0*%
G04 APERTURE END LIST*
D10*
X81945366Y-52380881D02*
X81992986Y-52428500D01*
X81992986Y-52428500D02*
X82040605Y-52571357D01*
X82040605Y-52571357D02*
X82040605Y-52666595D01*
X82040605Y-52666595D02*
X81992986Y-52809452D01*
X81992986Y-52809452D02*
X81897747Y-52904690D01*
X81897747Y-52904690D02*
X81802509Y-52952309D01*
X81802509Y-52952309D02*
X81612033Y-52999928D01*
X81612033Y-52999928D02*
X81469176Y-52999928D01*
X81469176Y-52999928D02*
X81278700Y-52952309D01*
X81278700Y-52952309D02*
X81183462Y-52904690D01*
X81183462Y-52904690D02*
X81088224Y-52809452D01*
X81088224Y-52809452D02*
X81040605Y-52666595D01*
X81040605Y-52666595D02*
X81040605Y-52571357D01*
X81040605Y-52571357D02*
X81088224Y-52428500D01*
X81088224Y-52428500D02*
X81135843Y-52380881D01*
X81040605Y-52047547D02*
X81040605Y-51380881D01*
X81040605Y-51380881D02*
X82040605Y-51809452D01*
X71773881Y-27671034D02*
X72345309Y-27671034D01*
X72059595Y-28671034D02*
X72059595Y-27671034D01*
X72678643Y-28671034D02*
X72678643Y-27671034D01*
X72678643Y-27671034D02*
X73059595Y-27671034D01*
X73059595Y-27671034D02*
X73154833Y-27718653D01*
X73154833Y-27718653D02*
X73202452Y-27766272D01*
X73202452Y-27766272D02*
X73250071Y-27861510D01*
X73250071Y-27861510D02*
X73250071Y-28004367D01*
X73250071Y-28004367D02*
X73202452Y-28099605D01*
X73202452Y-28099605D02*
X73154833Y-28147224D01*
X73154833Y-28147224D02*
X73059595Y-28194843D01*
X73059595Y-28194843D02*
X72678643Y-28194843D01*
X74202452Y-28671034D02*
X73631024Y-28671034D01*
X73916738Y-28671034D02*
X73916738Y-27671034D01*
X73916738Y-27671034D02*
X73821500Y-27813891D01*
X73821500Y-27813891D02*
X73726262Y-27909129D01*
X73726262Y-27909129D02*
X73631024Y-27956748D01*
X138942928Y-67573795D02*
X138895309Y-67621415D01*
X138895309Y-67621415D02*
X138752452Y-67669034D01*
X138752452Y-67669034D02*
X138657214Y-67669034D01*
X138657214Y-67669034D02*
X138514357Y-67621415D01*
X138514357Y-67621415D02*
X138419119Y-67526176D01*
X138419119Y-67526176D02*
X138371500Y-67430938D01*
X138371500Y-67430938D02*
X138323881Y-67240462D01*
X138323881Y-67240462D02*
X138323881Y-67097605D01*
X138323881Y-67097605D02*
X138371500Y-66907129D01*
X138371500Y-66907129D02*
X138419119Y-66811891D01*
X138419119Y-66811891D02*
X138514357Y-66716653D01*
X138514357Y-66716653D02*
X138657214Y-66669034D01*
X138657214Y-66669034D02*
X138752452Y-66669034D01*
X138752452Y-66669034D02*
X138895309Y-66716653D01*
X138895309Y-66716653D02*
X138942928Y-66764272D01*
X139323881Y-66764272D02*
X139371500Y-66716653D01*
X139371500Y-66716653D02*
X139466738Y-66669034D01*
X139466738Y-66669034D02*
X139704833Y-66669034D01*
X139704833Y-66669034D02*
X139800071Y-66716653D01*
X139800071Y-66716653D02*
X139847690Y-66764272D01*
X139847690Y-66764272D02*
X139895309Y-66859510D01*
X139895309Y-66859510D02*
X139895309Y-66954748D01*
X139895309Y-66954748D02*
X139847690Y-67097605D01*
X139847690Y-67097605D02*
X139276262Y-67669034D01*
X139276262Y-67669034D02*
X139895309Y-67669034D01*
X140752452Y-67002367D02*
X140752452Y-67669034D01*
X140514357Y-66621415D02*
X140276262Y-67335700D01*
X140276262Y-67335700D02*
X140895309Y-67335700D01*
X77445366Y-51857072D02*
X77492986Y-51904691D01*
X77492986Y-51904691D02*
X77540605Y-52047548D01*
X77540605Y-52047548D02*
X77540605Y-52142786D01*
X77540605Y-52142786D02*
X77492986Y-52285643D01*
X77492986Y-52285643D02*
X77397747Y-52380881D01*
X77397747Y-52380881D02*
X77302509Y-52428500D01*
X77302509Y-52428500D02*
X77112033Y-52476119D01*
X77112033Y-52476119D02*
X76969176Y-52476119D01*
X76969176Y-52476119D02*
X76778700Y-52428500D01*
X76778700Y-52428500D02*
X76683462Y-52380881D01*
X76683462Y-52380881D02*
X76588224Y-52285643D01*
X76588224Y-52285643D02*
X76540605Y-52142786D01*
X76540605Y-52142786D02*
X76540605Y-52047548D01*
X76540605Y-52047548D02*
X76588224Y-51904691D01*
X76588224Y-51904691D02*
X76635843Y-51857072D01*
X77540605Y-50904691D02*
X77540605Y-51476119D01*
X77540605Y-51190405D02*
X76540605Y-51190405D01*
X76540605Y-51190405D02*
X76683462Y-51285643D01*
X76683462Y-51285643D02*
X76778700Y-51380881D01*
X76778700Y-51380881D02*
X76826319Y-51476119D01*
X76873938Y-50047548D02*
X77540605Y-50047548D01*
X76492986Y-50285643D02*
X77207271Y-50523738D01*
X77207271Y-50523738D02*
X77207271Y-49904691D01*
X106076262Y-51269034D02*
X106076262Y-51983319D01*
X106076262Y-51983319D02*
X106028643Y-52126176D01*
X106028643Y-52126176D02*
X105933405Y-52221415D01*
X105933405Y-52221415D02*
X105790548Y-52269034D01*
X105790548Y-52269034D02*
X105695310Y-52269034D01*
X107076262Y-52269034D02*
X106504834Y-52269034D01*
X106790548Y-52269034D02*
X106790548Y-51269034D01*
X106790548Y-51269034D02*
X106695310Y-51411891D01*
X106695310Y-51411891D02*
X106600072Y-51507129D01*
X106600072Y-51507129D02*
X106504834Y-51554748D01*
X107933405Y-51602367D02*
X107933405Y-52269034D01*
X107695310Y-51221415D02*
X107457215Y-51935700D01*
X107457215Y-51935700D02*
X108076262Y-51935700D01*
X130060843Y-59914453D02*
X130013224Y-60009691D01*
X130013224Y-60009691D02*
X129917986Y-60104929D01*
X129917986Y-60104929D02*
X129775128Y-60247786D01*
X129775128Y-60247786D02*
X129727509Y-60343024D01*
X129727509Y-60343024D02*
X129727509Y-60438262D01*
X129965605Y-60390643D02*
X129917986Y-60485881D01*
X129917986Y-60485881D02*
X129822747Y-60581119D01*
X129822747Y-60581119D02*
X129632271Y-60628738D01*
X129632271Y-60628738D02*
X129298938Y-60628738D01*
X129298938Y-60628738D02*
X129108462Y-60581119D01*
X129108462Y-60581119D02*
X129013224Y-60485881D01*
X129013224Y-60485881D02*
X128965605Y-60390643D01*
X128965605Y-60390643D02*
X128965605Y-60200167D01*
X128965605Y-60200167D02*
X129013224Y-60104929D01*
X129013224Y-60104929D02*
X129108462Y-60009691D01*
X129108462Y-60009691D02*
X129298938Y-59962072D01*
X129298938Y-59962072D02*
X129632271Y-59962072D01*
X129632271Y-59962072D02*
X129822747Y-60009691D01*
X129822747Y-60009691D02*
X129917986Y-60104929D01*
X129917986Y-60104929D02*
X129965605Y-60200167D01*
X129965605Y-60200167D02*
X129965605Y-60390643D01*
X129060843Y-59581119D02*
X129013224Y-59533500D01*
X129013224Y-59533500D02*
X128965605Y-59438262D01*
X128965605Y-59438262D02*
X128965605Y-59200167D01*
X128965605Y-59200167D02*
X129013224Y-59104929D01*
X129013224Y-59104929D02*
X129060843Y-59057310D01*
X129060843Y-59057310D02*
X129156081Y-59009691D01*
X129156081Y-59009691D02*
X129251319Y-59009691D01*
X129251319Y-59009691D02*
X129394176Y-59057310D01*
X129394176Y-59057310D02*
X129965605Y-59628738D01*
X129965605Y-59628738D02*
X129965605Y-59009691D01*
X127876262Y-78269034D02*
X127876262Y-78983319D01*
X127876262Y-78983319D02*
X127828643Y-79126176D01*
X127828643Y-79126176D02*
X127733405Y-79221415D01*
X127733405Y-79221415D02*
X127590548Y-79269034D01*
X127590548Y-79269034D02*
X127495310Y-79269034D01*
X128304834Y-78364272D02*
X128352453Y-78316653D01*
X128352453Y-78316653D02*
X128447691Y-78269034D01*
X128447691Y-78269034D02*
X128685786Y-78269034D01*
X128685786Y-78269034D02*
X128781024Y-78316653D01*
X128781024Y-78316653D02*
X128828643Y-78364272D01*
X128828643Y-78364272D02*
X128876262Y-78459510D01*
X128876262Y-78459510D02*
X128876262Y-78554748D01*
X128876262Y-78554748D02*
X128828643Y-78697605D01*
X128828643Y-78697605D02*
X128257215Y-79269034D01*
X128257215Y-79269034D02*
X128876262Y-79269034D01*
X129495310Y-78269034D02*
X129590548Y-78269034D01*
X129590548Y-78269034D02*
X129685786Y-78316653D01*
X129685786Y-78316653D02*
X129733405Y-78364272D01*
X129733405Y-78364272D02*
X129781024Y-78459510D01*
X129781024Y-78459510D02*
X129828643Y-78649986D01*
X129828643Y-78649986D02*
X129828643Y-78888081D01*
X129828643Y-78888081D02*
X129781024Y-79078557D01*
X129781024Y-79078557D02*
X129733405Y-79173795D01*
X129733405Y-79173795D02*
X129685786Y-79221415D01*
X129685786Y-79221415D02*
X129590548Y-79269034D01*
X129590548Y-79269034D02*
X129495310Y-79269034D01*
X129495310Y-79269034D02*
X129400072Y-79221415D01*
X129400072Y-79221415D02*
X129352453Y-79173795D01*
X129352453Y-79173795D02*
X129304834Y-79078557D01*
X129304834Y-79078557D02*
X129257215Y-78888081D01*
X129257215Y-78888081D02*
X129257215Y-78649986D01*
X129257215Y-78649986D02*
X129304834Y-78459510D01*
X129304834Y-78459510D02*
X129352453Y-78364272D01*
X129352453Y-78364272D02*
X129400072Y-78316653D01*
X129400072Y-78316653D02*
X129495310Y-78269034D01*
X138123881Y-62321034D02*
X138695309Y-62321034D01*
X138409595Y-63321034D02*
X138409595Y-62321034D01*
X139028643Y-63321034D02*
X139028643Y-62321034D01*
X139028643Y-62321034D02*
X139409595Y-62321034D01*
X139409595Y-62321034D02*
X139504833Y-62368653D01*
X139504833Y-62368653D02*
X139552452Y-62416272D01*
X139552452Y-62416272D02*
X139600071Y-62511510D01*
X139600071Y-62511510D02*
X139600071Y-62654367D01*
X139600071Y-62654367D02*
X139552452Y-62749605D01*
X139552452Y-62749605D02*
X139504833Y-62797224D01*
X139504833Y-62797224D02*
X139409595Y-62844843D01*
X139409595Y-62844843D02*
X139028643Y-62844843D01*
X140076262Y-63321034D02*
X140266738Y-63321034D01*
X140266738Y-63321034D02*
X140361976Y-63273415D01*
X140361976Y-63273415D02*
X140409595Y-63225795D01*
X140409595Y-63225795D02*
X140504833Y-63082938D01*
X140504833Y-63082938D02*
X140552452Y-62892462D01*
X140552452Y-62892462D02*
X140552452Y-62511510D01*
X140552452Y-62511510D02*
X140504833Y-62416272D01*
X140504833Y-62416272D02*
X140457214Y-62368653D01*
X140457214Y-62368653D02*
X140361976Y-62321034D01*
X140361976Y-62321034D02*
X140171500Y-62321034D01*
X140171500Y-62321034D02*
X140076262Y-62368653D01*
X140076262Y-62368653D02*
X140028643Y-62416272D01*
X140028643Y-62416272D02*
X139981024Y-62511510D01*
X139981024Y-62511510D02*
X139981024Y-62749605D01*
X139981024Y-62749605D02*
X140028643Y-62844843D01*
X140028643Y-62844843D02*
X140076262Y-62892462D01*
X140076262Y-62892462D02*
X140171500Y-62940081D01*
X140171500Y-62940081D02*
X140361976Y-62940081D01*
X140361976Y-62940081D02*
X140457214Y-62892462D01*
X140457214Y-62892462D02*
X140504833Y-62844843D01*
X140504833Y-62844843D02*
X140552452Y-62749605D01*
X138740605Y-50376119D02*
X138740605Y-49804691D01*
X139740605Y-50090405D02*
X138740605Y-50090405D01*
X139740605Y-49471357D02*
X138740605Y-49471357D01*
X138740605Y-49471357D02*
X138740605Y-49090405D01*
X138740605Y-49090405D02*
X138788224Y-48995167D01*
X138788224Y-48995167D02*
X138835843Y-48947548D01*
X138835843Y-48947548D02*
X138931081Y-48899929D01*
X138931081Y-48899929D02*
X139073938Y-48899929D01*
X139073938Y-48899929D02*
X139169176Y-48947548D01*
X139169176Y-48947548D02*
X139216795Y-48995167D01*
X139216795Y-48995167D02*
X139264414Y-49090405D01*
X139264414Y-49090405D02*
X139264414Y-49471357D01*
X138740605Y-48566595D02*
X138740605Y-47899929D01*
X138740605Y-47899929D02*
X139740605Y-48328500D01*
X74623881Y-36971034D02*
X75195309Y-36971034D01*
X74909595Y-37971034D02*
X74909595Y-36971034D01*
X75528643Y-37971034D02*
X75528643Y-36971034D01*
X75528643Y-36971034D02*
X75909595Y-36971034D01*
X75909595Y-36971034D02*
X76004833Y-37018653D01*
X76004833Y-37018653D02*
X76052452Y-37066272D01*
X76052452Y-37066272D02*
X76100071Y-37161510D01*
X76100071Y-37161510D02*
X76100071Y-37304367D01*
X76100071Y-37304367D02*
X76052452Y-37399605D01*
X76052452Y-37399605D02*
X76004833Y-37447224D01*
X76004833Y-37447224D02*
X75909595Y-37494843D01*
X75909595Y-37494843D02*
X75528643Y-37494843D01*
X76957214Y-36971034D02*
X76766738Y-36971034D01*
X76766738Y-36971034D02*
X76671500Y-37018653D01*
X76671500Y-37018653D02*
X76623881Y-37066272D01*
X76623881Y-37066272D02*
X76528643Y-37209129D01*
X76528643Y-37209129D02*
X76481024Y-37399605D01*
X76481024Y-37399605D02*
X76481024Y-37780557D01*
X76481024Y-37780557D02*
X76528643Y-37875795D01*
X76528643Y-37875795D02*
X76576262Y-37923415D01*
X76576262Y-37923415D02*
X76671500Y-37971034D01*
X76671500Y-37971034D02*
X76861976Y-37971034D01*
X76861976Y-37971034D02*
X76957214Y-37923415D01*
X76957214Y-37923415D02*
X77004833Y-37875795D01*
X77004833Y-37875795D02*
X77052452Y-37780557D01*
X77052452Y-37780557D02*
X77052452Y-37542462D01*
X77052452Y-37542462D02*
X77004833Y-37447224D01*
X77004833Y-37447224D02*
X76957214Y-37399605D01*
X76957214Y-37399605D02*
X76861976Y-37351986D01*
X76861976Y-37351986D02*
X76671500Y-37351986D01*
X76671500Y-37351986D02*
X76576262Y-37399605D01*
X76576262Y-37399605D02*
X76528643Y-37447224D01*
X76528643Y-37447224D02*
X76481024Y-37542462D01*
X52352452Y-45069034D02*
X52352452Y-45783319D01*
X52352452Y-45783319D02*
X52304833Y-45926176D01*
X52304833Y-45926176D02*
X52209595Y-46021415D01*
X52209595Y-46021415D02*
X52066738Y-46069034D01*
X52066738Y-46069034D02*
X51971500Y-46069034D01*
X53352452Y-46069034D02*
X52781024Y-46069034D01*
X53066738Y-46069034D02*
X53066738Y-45069034D01*
X53066738Y-45069034D02*
X52971500Y-45211891D01*
X52971500Y-45211891D02*
X52876262Y-45307129D01*
X52876262Y-45307129D02*
X52781024Y-45354748D01*
X71100486Y-31485643D02*
X71100486Y-30342786D01*
X71671914Y-30914214D02*
X70529057Y-30914214D01*
X71100486Y-43785643D02*
X71100486Y-42642786D01*
X128381619Y-73773795D02*
X128334000Y-73821415D01*
X128334000Y-73821415D02*
X128191143Y-73869034D01*
X128191143Y-73869034D02*
X128095905Y-73869034D01*
X128095905Y-73869034D02*
X127953048Y-73821415D01*
X127953048Y-73821415D02*
X127857810Y-73726176D01*
X127857810Y-73726176D02*
X127810191Y-73630938D01*
X127810191Y-73630938D02*
X127762572Y-73440462D01*
X127762572Y-73440462D02*
X127762572Y-73297605D01*
X127762572Y-73297605D02*
X127810191Y-73107129D01*
X127810191Y-73107129D02*
X127857810Y-73011891D01*
X127857810Y-73011891D02*
X127953048Y-72916653D01*
X127953048Y-72916653D02*
X128095905Y-72869034D01*
X128095905Y-72869034D02*
X128191143Y-72869034D01*
X128191143Y-72869034D02*
X128334000Y-72916653D01*
X128334000Y-72916653D02*
X128381619Y-72964272D01*
X129238762Y-73202367D02*
X129238762Y-73869034D01*
X129000667Y-72821415D02*
X128762572Y-73535700D01*
X128762572Y-73535700D02*
X129381619Y-73535700D01*
X155765605Y-81180881D02*
X155289414Y-81514214D01*
X155765605Y-81752309D02*
X154765605Y-81752309D01*
X154765605Y-81752309D02*
X154765605Y-81371357D01*
X154765605Y-81371357D02*
X154813224Y-81276119D01*
X154813224Y-81276119D02*
X154860843Y-81228500D01*
X154860843Y-81228500D02*
X154956081Y-81180881D01*
X154956081Y-81180881D02*
X155098938Y-81180881D01*
X155098938Y-81180881D02*
X155194176Y-81228500D01*
X155194176Y-81228500D02*
X155241795Y-81276119D01*
X155241795Y-81276119D02*
X155289414Y-81371357D01*
X155289414Y-81371357D02*
X155289414Y-81752309D01*
X155098938Y-80323738D02*
X155765605Y-80323738D01*
X154717986Y-80561833D02*
X155432271Y-80799928D01*
X155432271Y-80799928D02*
X155432271Y-80180881D01*
X60580605Y-79553738D02*
X61294890Y-79553738D01*
X61294890Y-79553738D02*
X61437747Y-79601357D01*
X61437747Y-79601357D02*
X61532986Y-79696595D01*
X61532986Y-79696595D02*
X61580605Y-79839452D01*
X61580605Y-79839452D02*
X61580605Y-79934690D01*
X60675843Y-79125166D02*
X60628224Y-79077547D01*
X60628224Y-79077547D02*
X60580605Y-78982309D01*
X60580605Y-78982309D02*
X60580605Y-78744214D01*
X60580605Y-78744214D02*
X60628224Y-78648976D01*
X60628224Y-78648976D02*
X60675843Y-78601357D01*
X60675843Y-78601357D02*
X60771081Y-78553738D01*
X60771081Y-78553738D02*
X60866319Y-78553738D01*
X60866319Y-78553738D02*
X61009176Y-78601357D01*
X61009176Y-78601357D02*
X61580605Y-79172785D01*
X61580605Y-79172785D02*
X61580605Y-78553738D01*
X60580605Y-78220404D02*
X60580605Y-77601357D01*
X60580605Y-77601357D02*
X60961557Y-77934690D01*
X60961557Y-77934690D02*
X60961557Y-77791833D01*
X60961557Y-77791833D02*
X61009176Y-77696595D01*
X61009176Y-77696595D02*
X61056795Y-77648976D01*
X61056795Y-77648976D02*
X61152033Y-77601357D01*
X61152033Y-77601357D02*
X61390128Y-77601357D01*
X61390128Y-77601357D02*
X61485366Y-77648976D01*
X61485366Y-77648976D02*
X61532986Y-77696595D01*
X61532986Y-77696595D02*
X61580605Y-77791833D01*
X61580605Y-77791833D02*
X61580605Y-78077547D01*
X61580605Y-78077547D02*
X61532986Y-78172785D01*
X61532986Y-78172785D02*
X61485366Y-78220404D01*
X139140605Y-75657072D02*
X138664414Y-75990405D01*
X139140605Y-76228500D02*
X138140605Y-76228500D01*
X138140605Y-76228500D02*
X138140605Y-75847548D01*
X138140605Y-75847548D02*
X138188224Y-75752310D01*
X138188224Y-75752310D02*
X138235843Y-75704691D01*
X138235843Y-75704691D02*
X138331081Y-75657072D01*
X138331081Y-75657072D02*
X138473938Y-75657072D01*
X138473938Y-75657072D02*
X138569176Y-75704691D01*
X138569176Y-75704691D02*
X138616795Y-75752310D01*
X138616795Y-75752310D02*
X138664414Y-75847548D01*
X138664414Y-75847548D02*
X138664414Y-76228500D01*
X139140605Y-74704691D02*
X139140605Y-75276119D01*
X139140605Y-74990405D02*
X138140605Y-74990405D01*
X138140605Y-74990405D02*
X138283462Y-75085643D01*
X138283462Y-75085643D02*
X138378700Y-75180881D01*
X138378700Y-75180881D02*
X138426319Y-75276119D01*
X138140605Y-73847548D02*
X138140605Y-74038024D01*
X138140605Y-74038024D02*
X138188224Y-74133262D01*
X138188224Y-74133262D02*
X138235843Y-74180881D01*
X138235843Y-74180881D02*
X138378700Y-74276119D01*
X138378700Y-74276119D02*
X138569176Y-74323738D01*
X138569176Y-74323738D02*
X138950128Y-74323738D01*
X138950128Y-74323738D02*
X139045366Y-74276119D01*
X139045366Y-74276119D02*
X139092986Y-74228500D01*
X139092986Y-74228500D02*
X139140605Y-74133262D01*
X139140605Y-74133262D02*
X139140605Y-73942786D01*
X139140605Y-73942786D02*
X139092986Y-73847548D01*
X139092986Y-73847548D02*
X139045366Y-73799929D01*
X139045366Y-73799929D02*
X138950128Y-73752310D01*
X138950128Y-73752310D02*
X138712033Y-73752310D01*
X138712033Y-73752310D02*
X138616795Y-73799929D01*
X138616795Y-73799929D02*
X138569176Y-73847548D01*
X138569176Y-73847548D02*
X138521557Y-73942786D01*
X138521557Y-73942786D02*
X138521557Y-74133262D01*
X138521557Y-74133262D02*
X138569176Y-74228500D01*
X138569176Y-74228500D02*
X138616795Y-74276119D01*
X138616795Y-74276119D02*
X138712033Y-74323738D01*
X123723881Y-70569034D02*
X123723881Y-71378557D01*
X123723881Y-71378557D02*
X123771500Y-71473795D01*
X123771500Y-71473795D02*
X123819119Y-71521415D01*
X123819119Y-71521415D02*
X123914357Y-71569034D01*
X123914357Y-71569034D02*
X124104833Y-71569034D01*
X124104833Y-71569034D02*
X124200071Y-71521415D01*
X124200071Y-71521415D02*
X124247690Y-71473795D01*
X124247690Y-71473795D02*
X124295309Y-71378557D01*
X124295309Y-71378557D02*
X124295309Y-70569034D01*
X125295309Y-71569034D02*
X124723881Y-71569034D01*
X125009595Y-71569034D02*
X125009595Y-70569034D01*
X125009595Y-70569034D02*
X124914357Y-70711891D01*
X124914357Y-70711891D02*
X124819119Y-70807129D01*
X124819119Y-70807129D02*
X124723881Y-70854748D01*
X77923881Y-37071034D02*
X78495309Y-37071034D01*
X78209595Y-38071034D02*
X78209595Y-37071034D01*
X78828643Y-38071034D02*
X78828643Y-37071034D01*
X78828643Y-37071034D02*
X79209595Y-37071034D01*
X79209595Y-37071034D02*
X79304833Y-37118653D01*
X79304833Y-37118653D02*
X79352452Y-37166272D01*
X79352452Y-37166272D02*
X79400071Y-37261510D01*
X79400071Y-37261510D02*
X79400071Y-37404367D01*
X79400071Y-37404367D02*
X79352452Y-37499605D01*
X79352452Y-37499605D02*
X79304833Y-37547224D01*
X79304833Y-37547224D02*
X79209595Y-37594843D01*
X79209595Y-37594843D02*
X78828643Y-37594843D01*
X80304833Y-37071034D02*
X79828643Y-37071034D01*
X79828643Y-37071034D02*
X79781024Y-37547224D01*
X79781024Y-37547224D02*
X79828643Y-37499605D01*
X79828643Y-37499605D02*
X79923881Y-37451986D01*
X79923881Y-37451986D02*
X80161976Y-37451986D01*
X80161976Y-37451986D02*
X80257214Y-37499605D01*
X80257214Y-37499605D02*
X80304833Y-37547224D01*
X80304833Y-37547224D02*
X80352452Y-37642462D01*
X80352452Y-37642462D02*
X80352452Y-37880557D01*
X80352452Y-37880557D02*
X80304833Y-37975795D01*
X80304833Y-37975795D02*
X80257214Y-38023415D01*
X80257214Y-38023415D02*
X80161976Y-38071034D01*
X80161976Y-38071034D02*
X79923881Y-38071034D01*
X79923881Y-38071034D02*
X79828643Y-38023415D01*
X79828643Y-38023415D02*
X79781024Y-37975795D01*
X123440605Y-41547548D02*
X124154890Y-41547548D01*
X124154890Y-41547548D02*
X124297747Y-41595167D01*
X124297747Y-41595167D02*
X124392986Y-41690405D01*
X124392986Y-41690405D02*
X124440605Y-41833262D01*
X124440605Y-41833262D02*
X124440605Y-41928500D01*
X123440605Y-41166595D02*
X123440605Y-40499929D01*
X123440605Y-40499929D02*
X124440605Y-40928500D01*
X127450486Y-30785643D02*
X127450486Y-29642786D01*
X127450486Y-43785643D02*
X127450486Y-42642786D01*
X128021914Y-43214214D02*
X126879057Y-43214214D01*
X143219119Y-48244034D02*
X142885786Y-47767843D01*
X142647691Y-48244034D02*
X142647691Y-47244034D01*
X142647691Y-47244034D02*
X143028643Y-47244034D01*
X143028643Y-47244034D02*
X143123881Y-47291653D01*
X143123881Y-47291653D02*
X143171500Y-47339272D01*
X143171500Y-47339272D02*
X143219119Y-47434510D01*
X143219119Y-47434510D02*
X143219119Y-47577367D01*
X143219119Y-47577367D02*
X143171500Y-47672605D01*
X143171500Y-47672605D02*
X143123881Y-47720224D01*
X143123881Y-47720224D02*
X143028643Y-47767843D01*
X143028643Y-47767843D02*
X142647691Y-47767843D01*
X143790548Y-47672605D02*
X143695310Y-47624986D01*
X143695310Y-47624986D02*
X143647691Y-47577367D01*
X143647691Y-47577367D02*
X143600072Y-47482129D01*
X143600072Y-47482129D02*
X143600072Y-47434510D01*
X143600072Y-47434510D02*
X143647691Y-47339272D01*
X143647691Y-47339272D02*
X143695310Y-47291653D01*
X143695310Y-47291653D02*
X143790548Y-47244034D01*
X143790548Y-47244034D02*
X143981024Y-47244034D01*
X143981024Y-47244034D02*
X144076262Y-47291653D01*
X144076262Y-47291653D02*
X144123881Y-47339272D01*
X144123881Y-47339272D02*
X144171500Y-47434510D01*
X144171500Y-47434510D02*
X144171500Y-47482129D01*
X144171500Y-47482129D02*
X144123881Y-47577367D01*
X144123881Y-47577367D02*
X144076262Y-47624986D01*
X144076262Y-47624986D02*
X143981024Y-47672605D01*
X143981024Y-47672605D02*
X143790548Y-47672605D01*
X143790548Y-47672605D02*
X143695310Y-47720224D01*
X143695310Y-47720224D02*
X143647691Y-47767843D01*
X143647691Y-47767843D02*
X143600072Y-47863081D01*
X143600072Y-47863081D02*
X143600072Y-48053557D01*
X143600072Y-48053557D02*
X143647691Y-48148795D01*
X143647691Y-48148795D02*
X143695310Y-48196415D01*
X143695310Y-48196415D02*
X143790548Y-48244034D01*
X143790548Y-48244034D02*
X143981024Y-48244034D01*
X143981024Y-48244034D02*
X144076262Y-48196415D01*
X144076262Y-48196415D02*
X144123881Y-48148795D01*
X144123881Y-48148795D02*
X144171500Y-48053557D01*
X144171500Y-48053557D02*
X144171500Y-47863081D01*
X144171500Y-47863081D02*
X144123881Y-47767843D01*
X144123881Y-47767843D02*
X144076262Y-47720224D01*
X144076262Y-47720224D02*
X143981024Y-47672605D01*
X101640605Y-41523738D02*
X102354890Y-41523738D01*
X102354890Y-41523738D02*
X102497747Y-41571357D01*
X102497747Y-41571357D02*
X102592986Y-41666595D01*
X102592986Y-41666595D02*
X102640605Y-41809452D01*
X102640605Y-41809452D02*
X102640605Y-41904690D01*
X102640605Y-40523738D02*
X102640605Y-41095166D01*
X102640605Y-40809452D02*
X101640605Y-40809452D01*
X101640605Y-40809452D02*
X101783462Y-40904690D01*
X101783462Y-40904690D02*
X101878700Y-40999928D01*
X101878700Y-40999928D02*
X101926319Y-41095166D01*
X101640605Y-39904690D02*
X101640605Y-39809452D01*
X101640605Y-39809452D02*
X101688224Y-39714214D01*
X101688224Y-39714214D02*
X101735843Y-39666595D01*
X101735843Y-39666595D02*
X101831081Y-39618976D01*
X101831081Y-39618976D02*
X102021557Y-39571357D01*
X102021557Y-39571357D02*
X102259652Y-39571357D01*
X102259652Y-39571357D02*
X102450128Y-39618976D01*
X102450128Y-39618976D02*
X102545366Y-39666595D01*
X102545366Y-39666595D02*
X102592986Y-39714214D01*
X102592986Y-39714214D02*
X102640605Y-39809452D01*
X102640605Y-39809452D02*
X102640605Y-39904690D01*
X102640605Y-39904690D02*
X102592986Y-39999928D01*
X102592986Y-39999928D02*
X102545366Y-40047547D01*
X102545366Y-40047547D02*
X102450128Y-40095166D01*
X102450128Y-40095166D02*
X102259652Y-40142785D01*
X102259652Y-40142785D02*
X102021557Y-40142785D01*
X102021557Y-40142785D02*
X101831081Y-40095166D01*
X101831081Y-40095166D02*
X101735843Y-40047547D01*
X101735843Y-40047547D02*
X101688224Y-39999928D01*
X101688224Y-39999928D02*
X101640605Y-39904690D01*
X105700486Y-30785643D02*
X105700486Y-29642786D01*
X105700486Y-43785643D02*
X105700486Y-42642786D01*
X106271914Y-43214214D02*
X105129057Y-43214214D01*
X81334596Y-45134034D02*
X81334596Y-44134034D01*
X82382214Y-45038795D02*
X82334595Y-45086415D01*
X82334595Y-45086415D02*
X82191738Y-45134034D01*
X82191738Y-45134034D02*
X82096500Y-45134034D01*
X82096500Y-45134034D02*
X81953643Y-45086415D01*
X81953643Y-45086415D02*
X81858405Y-44991176D01*
X81858405Y-44991176D02*
X81810786Y-44895938D01*
X81810786Y-44895938D02*
X81763167Y-44705462D01*
X81763167Y-44705462D02*
X81763167Y-44562605D01*
X81763167Y-44562605D02*
X81810786Y-44372129D01*
X81810786Y-44372129D02*
X81858405Y-44276891D01*
X81858405Y-44276891D02*
X81953643Y-44181653D01*
X81953643Y-44181653D02*
X82096500Y-44134034D01*
X82096500Y-44134034D02*
X82191738Y-44134034D01*
X82191738Y-44134034D02*
X82334595Y-44181653D01*
X82334595Y-44181653D02*
X82382214Y-44229272D01*
X83334595Y-45134034D02*
X82763167Y-45134034D01*
X83048881Y-45134034D02*
X83048881Y-44134034D01*
X83048881Y-44134034D02*
X82953643Y-44276891D01*
X82953643Y-44276891D02*
X82858405Y-44372129D01*
X82858405Y-44372129D02*
X82763167Y-44419748D01*
X143840605Y-80673738D02*
X144554890Y-80673738D01*
X144554890Y-80673738D02*
X144697747Y-80721357D01*
X144697747Y-80721357D02*
X144792986Y-80816595D01*
X144792986Y-80816595D02*
X144840605Y-80959452D01*
X144840605Y-80959452D02*
X144840605Y-81054690D01*
X143935843Y-80245166D02*
X143888224Y-80197547D01*
X143888224Y-80197547D02*
X143840605Y-80102309D01*
X143840605Y-80102309D02*
X143840605Y-79864214D01*
X143840605Y-79864214D02*
X143888224Y-79768976D01*
X143888224Y-79768976D02*
X143935843Y-79721357D01*
X143935843Y-79721357D02*
X144031081Y-79673738D01*
X144031081Y-79673738D02*
X144126319Y-79673738D01*
X144126319Y-79673738D02*
X144269176Y-79721357D01*
X144269176Y-79721357D02*
X144840605Y-80292785D01*
X144840605Y-80292785D02*
X144840605Y-79673738D01*
X144840605Y-78721357D02*
X144840605Y-79292785D01*
X144840605Y-79007071D02*
X143840605Y-79007071D01*
X143840605Y-79007071D02*
X143983462Y-79102309D01*
X143983462Y-79102309D02*
X144078700Y-79197547D01*
X144078700Y-79197547D02*
X144126319Y-79292785D01*
X89940605Y-53857072D02*
X89464414Y-54190405D01*
X89940605Y-54428500D02*
X88940605Y-54428500D01*
X88940605Y-54428500D02*
X88940605Y-54047548D01*
X88940605Y-54047548D02*
X88988224Y-53952310D01*
X88988224Y-53952310D02*
X89035843Y-53904691D01*
X89035843Y-53904691D02*
X89131081Y-53857072D01*
X89131081Y-53857072D02*
X89273938Y-53857072D01*
X89273938Y-53857072D02*
X89369176Y-53904691D01*
X89369176Y-53904691D02*
X89416795Y-53952310D01*
X89416795Y-53952310D02*
X89464414Y-54047548D01*
X89464414Y-54047548D02*
X89464414Y-54428500D01*
X89035843Y-53476119D02*
X88988224Y-53428500D01*
X88988224Y-53428500D02*
X88940605Y-53333262D01*
X88940605Y-53333262D02*
X88940605Y-53095167D01*
X88940605Y-53095167D02*
X88988224Y-52999929D01*
X88988224Y-52999929D02*
X89035843Y-52952310D01*
X89035843Y-52952310D02*
X89131081Y-52904691D01*
X89131081Y-52904691D02*
X89226319Y-52904691D01*
X89226319Y-52904691D02*
X89369176Y-52952310D01*
X89369176Y-52952310D02*
X89940605Y-53523738D01*
X89940605Y-53523738D02*
X89940605Y-52904691D01*
X89273938Y-52047548D02*
X89940605Y-52047548D01*
X88892986Y-52285643D02*
X89607271Y-52523738D01*
X89607271Y-52523738D02*
X89607271Y-51904691D01*
X133990605Y-50523738D02*
X134704890Y-50523738D01*
X134704890Y-50523738D02*
X134847747Y-50571357D01*
X134847747Y-50571357D02*
X134942986Y-50666595D01*
X134942986Y-50666595D02*
X134990605Y-50809452D01*
X134990605Y-50809452D02*
X134990605Y-50904690D01*
X134085843Y-50095166D02*
X134038224Y-50047547D01*
X134038224Y-50047547D02*
X133990605Y-49952309D01*
X133990605Y-49952309D02*
X133990605Y-49714214D01*
X133990605Y-49714214D02*
X134038224Y-49618976D01*
X134038224Y-49618976D02*
X134085843Y-49571357D01*
X134085843Y-49571357D02*
X134181081Y-49523738D01*
X134181081Y-49523738D02*
X134276319Y-49523738D01*
X134276319Y-49523738D02*
X134419176Y-49571357D01*
X134419176Y-49571357D02*
X134990605Y-50142785D01*
X134990605Y-50142785D02*
X134990605Y-49523738D01*
X133990605Y-48666595D02*
X133990605Y-48857071D01*
X133990605Y-48857071D02*
X134038224Y-48952309D01*
X134038224Y-48952309D02*
X134085843Y-48999928D01*
X134085843Y-48999928D02*
X134228700Y-49095166D01*
X134228700Y-49095166D02*
X134419176Y-49142785D01*
X134419176Y-49142785D02*
X134800128Y-49142785D01*
X134800128Y-49142785D02*
X134895366Y-49095166D01*
X134895366Y-49095166D02*
X134942986Y-49047547D01*
X134942986Y-49047547D02*
X134990605Y-48952309D01*
X134990605Y-48952309D02*
X134990605Y-48761833D01*
X134990605Y-48761833D02*
X134942986Y-48666595D01*
X134942986Y-48666595D02*
X134895366Y-48618976D01*
X134895366Y-48618976D02*
X134800128Y-48571357D01*
X134800128Y-48571357D02*
X134562033Y-48571357D01*
X134562033Y-48571357D02*
X134466795Y-48618976D01*
X134466795Y-48618976D02*
X134419176Y-48666595D01*
X134419176Y-48666595D02*
X134371557Y-48761833D01*
X134371557Y-48761833D02*
X134371557Y-48952309D01*
X134371557Y-48952309D02*
X134419176Y-49047547D01*
X134419176Y-49047547D02*
X134466795Y-49095166D01*
X134466795Y-49095166D02*
X134562033Y-49142785D01*
X89145366Y-42157072D02*
X89192986Y-42204691D01*
X89192986Y-42204691D02*
X89240605Y-42347548D01*
X89240605Y-42347548D02*
X89240605Y-42442786D01*
X89240605Y-42442786D02*
X89192986Y-42585643D01*
X89192986Y-42585643D02*
X89097747Y-42680881D01*
X89097747Y-42680881D02*
X89002509Y-42728500D01*
X89002509Y-42728500D02*
X88812033Y-42776119D01*
X88812033Y-42776119D02*
X88669176Y-42776119D01*
X88669176Y-42776119D02*
X88478700Y-42728500D01*
X88478700Y-42728500D02*
X88383462Y-42680881D01*
X88383462Y-42680881D02*
X88288224Y-42585643D01*
X88288224Y-42585643D02*
X88240605Y-42442786D01*
X88240605Y-42442786D02*
X88240605Y-42347548D01*
X88240605Y-42347548D02*
X88288224Y-42204691D01*
X88288224Y-42204691D02*
X88335843Y-42157072D01*
X88335843Y-41776119D02*
X88288224Y-41728500D01*
X88288224Y-41728500D02*
X88240605Y-41633262D01*
X88240605Y-41633262D02*
X88240605Y-41395167D01*
X88240605Y-41395167D02*
X88288224Y-41299929D01*
X88288224Y-41299929D02*
X88335843Y-41252310D01*
X88335843Y-41252310D02*
X88431081Y-41204691D01*
X88431081Y-41204691D02*
X88526319Y-41204691D01*
X88526319Y-41204691D02*
X88669176Y-41252310D01*
X88669176Y-41252310D02*
X89240605Y-41823738D01*
X89240605Y-41823738D02*
X89240605Y-41204691D01*
X88240605Y-40871357D02*
X88240605Y-40204691D01*
X88240605Y-40204691D02*
X89240605Y-40633262D01*
X144440605Y-75657072D02*
X143964414Y-75990405D01*
X144440605Y-76228500D02*
X143440605Y-76228500D01*
X143440605Y-76228500D02*
X143440605Y-75847548D01*
X143440605Y-75847548D02*
X143488224Y-75752310D01*
X143488224Y-75752310D02*
X143535843Y-75704691D01*
X143535843Y-75704691D02*
X143631081Y-75657072D01*
X143631081Y-75657072D02*
X143773938Y-75657072D01*
X143773938Y-75657072D02*
X143869176Y-75704691D01*
X143869176Y-75704691D02*
X143916795Y-75752310D01*
X143916795Y-75752310D02*
X143964414Y-75847548D01*
X143964414Y-75847548D02*
X143964414Y-76228500D01*
X144440605Y-74704691D02*
X144440605Y-75276119D01*
X144440605Y-74990405D02*
X143440605Y-74990405D01*
X143440605Y-74990405D02*
X143583462Y-75085643D01*
X143583462Y-75085643D02*
X143678700Y-75180881D01*
X143678700Y-75180881D02*
X143726319Y-75276119D01*
X143440605Y-73799929D02*
X143440605Y-74276119D01*
X143440605Y-74276119D02*
X143916795Y-74323738D01*
X143916795Y-74323738D02*
X143869176Y-74276119D01*
X143869176Y-74276119D02*
X143821557Y-74180881D01*
X143821557Y-74180881D02*
X143821557Y-73942786D01*
X143821557Y-73942786D02*
X143869176Y-73847548D01*
X143869176Y-73847548D02*
X143916795Y-73799929D01*
X143916795Y-73799929D02*
X144012033Y-73752310D01*
X144012033Y-73752310D02*
X144250128Y-73752310D01*
X144250128Y-73752310D02*
X144345366Y-73799929D01*
X144345366Y-73799929D02*
X144392986Y-73847548D01*
X144392986Y-73847548D02*
X144440605Y-73942786D01*
X144440605Y-73942786D02*
X144440605Y-74180881D01*
X144440605Y-74180881D02*
X144392986Y-74276119D01*
X144392986Y-74276119D02*
X144345366Y-74323738D01*
X128870366Y-64320881D02*
X128917986Y-64368500D01*
X128917986Y-64368500D02*
X128965605Y-64511357D01*
X128965605Y-64511357D02*
X128965605Y-64606595D01*
X128965605Y-64606595D02*
X128917986Y-64749452D01*
X128917986Y-64749452D02*
X128822747Y-64844690D01*
X128822747Y-64844690D02*
X128727509Y-64892309D01*
X128727509Y-64892309D02*
X128537033Y-64939928D01*
X128537033Y-64939928D02*
X128394176Y-64939928D01*
X128394176Y-64939928D02*
X128203700Y-64892309D01*
X128203700Y-64892309D02*
X128108462Y-64844690D01*
X128108462Y-64844690D02*
X128013224Y-64749452D01*
X128013224Y-64749452D02*
X127965605Y-64606595D01*
X127965605Y-64606595D02*
X127965605Y-64511357D01*
X127965605Y-64511357D02*
X128013224Y-64368500D01*
X128013224Y-64368500D02*
X128060843Y-64320881D01*
X128060843Y-63939928D02*
X128013224Y-63892309D01*
X128013224Y-63892309D02*
X127965605Y-63797071D01*
X127965605Y-63797071D02*
X127965605Y-63558976D01*
X127965605Y-63558976D02*
X128013224Y-63463738D01*
X128013224Y-63463738D02*
X128060843Y-63416119D01*
X128060843Y-63416119D02*
X128156081Y-63368500D01*
X128156081Y-63368500D02*
X128251319Y-63368500D01*
X128251319Y-63368500D02*
X128394176Y-63416119D01*
X128394176Y-63416119D02*
X128965605Y-63987547D01*
X128965605Y-63987547D02*
X128965605Y-63368500D01*
X130640605Y-41547548D02*
X131354890Y-41547548D01*
X131354890Y-41547548D02*
X131497747Y-41595167D01*
X131497747Y-41595167D02*
X131592986Y-41690405D01*
X131592986Y-41690405D02*
X131640605Y-41833262D01*
X131640605Y-41833262D02*
X131640605Y-41928500D01*
X130640605Y-40642786D02*
X130640605Y-40833262D01*
X130640605Y-40833262D02*
X130688224Y-40928500D01*
X130688224Y-40928500D02*
X130735843Y-40976119D01*
X130735843Y-40976119D02*
X130878700Y-41071357D01*
X130878700Y-41071357D02*
X131069176Y-41118976D01*
X131069176Y-41118976D02*
X131450128Y-41118976D01*
X131450128Y-41118976D02*
X131545366Y-41071357D01*
X131545366Y-41071357D02*
X131592986Y-41023738D01*
X131592986Y-41023738D02*
X131640605Y-40928500D01*
X131640605Y-40928500D02*
X131640605Y-40738024D01*
X131640605Y-40738024D02*
X131592986Y-40642786D01*
X131592986Y-40642786D02*
X131545366Y-40595167D01*
X131545366Y-40595167D02*
X131450128Y-40547548D01*
X131450128Y-40547548D02*
X131212033Y-40547548D01*
X131212033Y-40547548D02*
X131116795Y-40595167D01*
X131116795Y-40595167D02*
X131069176Y-40642786D01*
X131069176Y-40642786D02*
X131021557Y-40738024D01*
X131021557Y-40738024D02*
X131021557Y-40928500D01*
X131021557Y-40928500D02*
X131069176Y-41023738D01*
X131069176Y-41023738D02*
X131116795Y-41071357D01*
X131116795Y-41071357D02*
X131212033Y-41118976D01*
X134700486Y-43785643D02*
X134700486Y-42642786D01*
X135271914Y-43214214D02*
X134129057Y-43214214D01*
X134700486Y-30785643D02*
X134700486Y-29642786D01*
X152345366Y-83357072D02*
X152392986Y-83404691D01*
X152392986Y-83404691D02*
X152440605Y-83547548D01*
X152440605Y-83547548D02*
X152440605Y-83642786D01*
X152440605Y-83642786D02*
X152392986Y-83785643D01*
X152392986Y-83785643D02*
X152297747Y-83880881D01*
X152297747Y-83880881D02*
X152202509Y-83928500D01*
X152202509Y-83928500D02*
X152012033Y-83976119D01*
X152012033Y-83976119D02*
X151869176Y-83976119D01*
X151869176Y-83976119D02*
X151678700Y-83928500D01*
X151678700Y-83928500D02*
X151583462Y-83880881D01*
X151583462Y-83880881D02*
X151488224Y-83785643D01*
X151488224Y-83785643D02*
X151440605Y-83642786D01*
X151440605Y-83642786D02*
X151440605Y-83547548D01*
X151440605Y-83547548D02*
X151488224Y-83404691D01*
X151488224Y-83404691D02*
X151535843Y-83357072D01*
X152440605Y-82404691D02*
X152440605Y-82976119D01*
X152440605Y-82690405D02*
X151440605Y-82690405D01*
X151440605Y-82690405D02*
X151583462Y-82785643D01*
X151583462Y-82785643D02*
X151678700Y-82880881D01*
X151678700Y-82880881D02*
X151726319Y-82976119D01*
X151440605Y-81499929D02*
X151440605Y-81976119D01*
X151440605Y-81976119D02*
X151916795Y-82023738D01*
X151916795Y-82023738D02*
X151869176Y-81976119D01*
X151869176Y-81976119D02*
X151821557Y-81880881D01*
X151821557Y-81880881D02*
X151821557Y-81642786D01*
X151821557Y-81642786D02*
X151869176Y-81547548D01*
X151869176Y-81547548D02*
X151916795Y-81499929D01*
X151916795Y-81499929D02*
X152012033Y-81452310D01*
X152012033Y-81452310D02*
X152250128Y-81452310D01*
X152250128Y-81452310D02*
X152345366Y-81499929D01*
X152345366Y-81499929D02*
X152392986Y-81547548D01*
X152392986Y-81547548D02*
X152440605Y-81642786D01*
X152440605Y-81642786D02*
X152440605Y-81880881D01*
X152440605Y-81880881D02*
X152392986Y-81976119D01*
X152392986Y-81976119D02*
X152345366Y-82023738D01*
X143019119Y-72573795D02*
X142971500Y-72621415D01*
X142971500Y-72621415D02*
X142828643Y-72669034D01*
X142828643Y-72669034D02*
X142733405Y-72669034D01*
X142733405Y-72669034D02*
X142590548Y-72621415D01*
X142590548Y-72621415D02*
X142495310Y-72526176D01*
X142495310Y-72526176D02*
X142447691Y-72430938D01*
X142447691Y-72430938D02*
X142400072Y-72240462D01*
X142400072Y-72240462D02*
X142400072Y-72097605D01*
X142400072Y-72097605D02*
X142447691Y-71907129D01*
X142447691Y-71907129D02*
X142495310Y-71811891D01*
X142495310Y-71811891D02*
X142590548Y-71716653D01*
X142590548Y-71716653D02*
X142733405Y-71669034D01*
X142733405Y-71669034D02*
X142828643Y-71669034D01*
X142828643Y-71669034D02*
X142971500Y-71716653D01*
X142971500Y-71716653D02*
X143019119Y-71764272D01*
X143923881Y-71669034D02*
X143447691Y-71669034D01*
X143447691Y-71669034D02*
X143400072Y-72145224D01*
X143400072Y-72145224D02*
X143447691Y-72097605D01*
X143447691Y-72097605D02*
X143542929Y-72049986D01*
X143542929Y-72049986D02*
X143781024Y-72049986D01*
X143781024Y-72049986D02*
X143876262Y-72097605D01*
X143876262Y-72097605D02*
X143923881Y-72145224D01*
X143923881Y-72145224D02*
X143971500Y-72240462D01*
X143971500Y-72240462D02*
X143971500Y-72478557D01*
X143971500Y-72478557D02*
X143923881Y-72573795D01*
X143923881Y-72573795D02*
X143876262Y-72621415D01*
X143876262Y-72621415D02*
X143781024Y-72669034D01*
X143781024Y-72669034D02*
X143542929Y-72669034D01*
X143542929Y-72669034D02*
X143447691Y-72621415D01*
X143447691Y-72621415D02*
X143400072Y-72573795D01*
X123076262Y-51269034D02*
X123076262Y-51983319D01*
X123076262Y-51983319D02*
X123028643Y-52126176D01*
X123028643Y-52126176D02*
X122933405Y-52221415D01*
X122933405Y-52221415D02*
X122790548Y-52269034D01*
X122790548Y-52269034D02*
X122695310Y-52269034D01*
X123504834Y-51364272D02*
X123552453Y-51316653D01*
X123552453Y-51316653D02*
X123647691Y-51269034D01*
X123647691Y-51269034D02*
X123885786Y-51269034D01*
X123885786Y-51269034D02*
X123981024Y-51316653D01*
X123981024Y-51316653D02*
X124028643Y-51364272D01*
X124028643Y-51364272D02*
X124076262Y-51459510D01*
X124076262Y-51459510D02*
X124076262Y-51554748D01*
X124076262Y-51554748D02*
X124028643Y-51697605D01*
X124028643Y-51697605D02*
X123457215Y-52269034D01*
X123457215Y-52269034D02*
X124076262Y-52269034D01*
X124981024Y-51269034D02*
X124504834Y-51269034D01*
X124504834Y-51269034D02*
X124457215Y-51745224D01*
X124457215Y-51745224D02*
X124504834Y-51697605D01*
X124504834Y-51697605D02*
X124600072Y-51649986D01*
X124600072Y-51649986D02*
X124838167Y-51649986D01*
X124838167Y-51649986D02*
X124933405Y-51697605D01*
X124933405Y-51697605D02*
X124981024Y-51745224D01*
X124981024Y-51745224D02*
X125028643Y-51840462D01*
X125028643Y-51840462D02*
X125028643Y-52078557D01*
X125028643Y-52078557D02*
X124981024Y-52173795D01*
X124981024Y-52173795D02*
X124933405Y-52221415D01*
X124933405Y-52221415D02*
X124838167Y-52269034D01*
X124838167Y-52269034D02*
X124600072Y-52269034D01*
X124600072Y-52269034D02*
X124504834Y-52221415D01*
X124504834Y-52221415D02*
X124457215Y-52173795D01*
X79642928Y-29073795D02*
X79595309Y-29121415D01*
X79595309Y-29121415D02*
X79452452Y-29169034D01*
X79452452Y-29169034D02*
X79357214Y-29169034D01*
X79357214Y-29169034D02*
X79214357Y-29121415D01*
X79214357Y-29121415D02*
X79119119Y-29026176D01*
X79119119Y-29026176D02*
X79071500Y-28930938D01*
X79071500Y-28930938D02*
X79023881Y-28740462D01*
X79023881Y-28740462D02*
X79023881Y-28597605D01*
X79023881Y-28597605D02*
X79071500Y-28407129D01*
X79071500Y-28407129D02*
X79119119Y-28311891D01*
X79119119Y-28311891D02*
X79214357Y-28216653D01*
X79214357Y-28216653D02*
X79357214Y-28169034D01*
X79357214Y-28169034D02*
X79452452Y-28169034D01*
X79452452Y-28169034D02*
X79595309Y-28216653D01*
X79595309Y-28216653D02*
X79642928Y-28264272D01*
X80023881Y-28264272D02*
X80071500Y-28216653D01*
X80071500Y-28216653D02*
X80166738Y-28169034D01*
X80166738Y-28169034D02*
X80404833Y-28169034D01*
X80404833Y-28169034D02*
X80500071Y-28216653D01*
X80500071Y-28216653D02*
X80547690Y-28264272D01*
X80547690Y-28264272D02*
X80595309Y-28359510D01*
X80595309Y-28359510D02*
X80595309Y-28454748D01*
X80595309Y-28454748D02*
X80547690Y-28597605D01*
X80547690Y-28597605D02*
X79976262Y-29169034D01*
X79976262Y-29169034D02*
X80595309Y-29169034D01*
X81166738Y-28597605D02*
X81071500Y-28549986D01*
X81071500Y-28549986D02*
X81023881Y-28502367D01*
X81023881Y-28502367D02*
X80976262Y-28407129D01*
X80976262Y-28407129D02*
X80976262Y-28359510D01*
X80976262Y-28359510D02*
X81023881Y-28264272D01*
X81023881Y-28264272D02*
X81071500Y-28216653D01*
X81071500Y-28216653D02*
X81166738Y-28169034D01*
X81166738Y-28169034D02*
X81357214Y-28169034D01*
X81357214Y-28169034D02*
X81452452Y-28216653D01*
X81452452Y-28216653D02*
X81500071Y-28264272D01*
X81500071Y-28264272D02*
X81547690Y-28359510D01*
X81547690Y-28359510D02*
X81547690Y-28407129D01*
X81547690Y-28407129D02*
X81500071Y-28502367D01*
X81500071Y-28502367D02*
X81452452Y-28549986D01*
X81452452Y-28549986D02*
X81357214Y-28597605D01*
X81357214Y-28597605D02*
X81166738Y-28597605D01*
X81166738Y-28597605D02*
X81071500Y-28645224D01*
X81071500Y-28645224D02*
X81023881Y-28692843D01*
X81023881Y-28692843D02*
X80976262Y-28788081D01*
X80976262Y-28788081D02*
X80976262Y-28978557D01*
X80976262Y-28978557D02*
X81023881Y-29073795D01*
X81023881Y-29073795D02*
X81071500Y-29121415D01*
X81071500Y-29121415D02*
X81166738Y-29169034D01*
X81166738Y-29169034D02*
X81357214Y-29169034D01*
X81357214Y-29169034D02*
X81452452Y-29121415D01*
X81452452Y-29121415D02*
X81500071Y-29073795D01*
X81500071Y-29073795D02*
X81547690Y-28978557D01*
X81547690Y-28978557D02*
X81547690Y-28788081D01*
X81547690Y-28788081D02*
X81500071Y-28692843D01*
X81500071Y-28692843D02*
X81452452Y-28645224D01*
X81452452Y-28645224D02*
X81357214Y-28597605D01*
X111826262Y-51269034D02*
X111826262Y-51983319D01*
X111826262Y-51983319D02*
X111778643Y-52126176D01*
X111778643Y-52126176D02*
X111683405Y-52221415D01*
X111683405Y-52221415D02*
X111540548Y-52269034D01*
X111540548Y-52269034D02*
X111445310Y-52269034D01*
X112826262Y-52269034D02*
X112254834Y-52269034D01*
X112540548Y-52269034D02*
X112540548Y-51269034D01*
X112540548Y-51269034D02*
X112445310Y-51411891D01*
X112445310Y-51411891D02*
X112350072Y-51507129D01*
X112350072Y-51507129D02*
X112254834Y-51554748D01*
X113731024Y-51269034D02*
X113254834Y-51269034D01*
X113254834Y-51269034D02*
X113207215Y-51745224D01*
X113207215Y-51745224D02*
X113254834Y-51697605D01*
X113254834Y-51697605D02*
X113350072Y-51649986D01*
X113350072Y-51649986D02*
X113588167Y-51649986D01*
X113588167Y-51649986D02*
X113683405Y-51697605D01*
X113683405Y-51697605D02*
X113731024Y-51745224D01*
X113731024Y-51745224D02*
X113778643Y-51840462D01*
X113778643Y-51840462D02*
X113778643Y-52078557D01*
X113778643Y-52078557D02*
X113731024Y-52173795D01*
X113731024Y-52173795D02*
X113683405Y-52221415D01*
X113683405Y-52221415D02*
X113588167Y-52269034D01*
X113588167Y-52269034D02*
X113350072Y-52269034D01*
X113350072Y-52269034D02*
X113254834Y-52221415D01*
X113254834Y-52221415D02*
X113207215Y-52173795D01*
X61590605Y-28352309D02*
X60590605Y-28352309D01*
X60590605Y-28352309D02*
X60590605Y-28114214D01*
X60590605Y-28114214D02*
X60638224Y-27971357D01*
X60638224Y-27971357D02*
X60733462Y-27876119D01*
X60733462Y-27876119D02*
X60828700Y-27828500D01*
X60828700Y-27828500D02*
X61019176Y-27780881D01*
X61019176Y-27780881D02*
X61162033Y-27780881D01*
X61162033Y-27780881D02*
X61352509Y-27828500D01*
X61352509Y-27828500D02*
X61447747Y-27876119D01*
X61447747Y-27876119D02*
X61542986Y-27971357D01*
X61542986Y-27971357D02*
X61590605Y-28114214D01*
X61590605Y-28114214D02*
X61590605Y-28352309D01*
X60685843Y-27399928D02*
X60638224Y-27352309D01*
X60638224Y-27352309D02*
X60590605Y-27257071D01*
X60590605Y-27257071D02*
X60590605Y-27018976D01*
X60590605Y-27018976D02*
X60638224Y-26923738D01*
X60638224Y-26923738D02*
X60685843Y-26876119D01*
X60685843Y-26876119D02*
X60781081Y-26828500D01*
X60781081Y-26828500D02*
X60876319Y-26828500D01*
X60876319Y-26828500D02*
X61019176Y-26876119D01*
X61019176Y-26876119D02*
X61590605Y-27447547D01*
X61590605Y-27447547D02*
X61590605Y-26828500D01*
X70590605Y-27680881D02*
X70114414Y-28014214D01*
X70590605Y-28252309D02*
X69590605Y-28252309D01*
X69590605Y-28252309D02*
X69590605Y-27871357D01*
X69590605Y-27871357D02*
X69638224Y-27776119D01*
X69638224Y-27776119D02*
X69685843Y-27728500D01*
X69685843Y-27728500D02*
X69781081Y-27680881D01*
X69781081Y-27680881D02*
X69923938Y-27680881D01*
X69923938Y-27680881D02*
X70019176Y-27728500D01*
X70019176Y-27728500D02*
X70066795Y-27776119D01*
X70066795Y-27776119D02*
X70114414Y-27871357D01*
X70114414Y-27871357D02*
X70114414Y-28252309D01*
X69590605Y-26776119D02*
X69590605Y-27252309D01*
X69590605Y-27252309D02*
X70066795Y-27299928D01*
X70066795Y-27299928D02*
X70019176Y-27252309D01*
X70019176Y-27252309D02*
X69971557Y-27157071D01*
X69971557Y-27157071D02*
X69971557Y-26918976D01*
X69971557Y-26918976D02*
X70019176Y-26823738D01*
X70019176Y-26823738D02*
X70066795Y-26776119D01*
X70066795Y-26776119D02*
X70162033Y-26728500D01*
X70162033Y-26728500D02*
X70400128Y-26728500D01*
X70400128Y-26728500D02*
X70495366Y-26776119D01*
X70495366Y-26776119D02*
X70542986Y-26823738D01*
X70542986Y-26823738D02*
X70590605Y-26918976D01*
X70590605Y-26918976D02*
X70590605Y-27157071D01*
X70590605Y-27157071D02*
X70542986Y-27252309D01*
X70542986Y-27252309D02*
X70495366Y-27299928D01*
X117847691Y-80271034D02*
X118419119Y-80271034D01*
X118133405Y-81271034D02*
X118133405Y-80271034D01*
X118752453Y-81271034D02*
X118752453Y-80271034D01*
X118752453Y-80271034D02*
X119133405Y-80271034D01*
X119133405Y-80271034D02*
X119228643Y-80318653D01*
X119228643Y-80318653D02*
X119276262Y-80366272D01*
X119276262Y-80366272D02*
X119323881Y-80461510D01*
X119323881Y-80461510D02*
X119323881Y-80604367D01*
X119323881Y-80604367D02*
X119276262Y-80699605D01*
X119276262Y-80699605D02*
X119228643Y-80747224D01*
X119228643Y-80747224D02*
X119133405Y-80794843D01*
X119133405Y-80794843D02*
X118752453Y-80794843D01*
X120276262Y-81271034D02*
X119704834Y-81271034D01*
X119990548Y-81271034D02*
X119990548Y-80271034D01*
X119990548Y-80271034D02*
X119895310Y-80413891D01*
X119895310Y-80413891D02*
X119800072Y-80509129D01*
X119800072Y-80509129D02*
X119704834Y-80556748D01*
X120895310Y-80271034D02*
X120990548Y-80271034D01*
X120990548Y-80271034D02*
X121085786Y-80318653D01*
X121085786Y-80318653D02*
X121133405Y-80366272D01*
X121133405Y-80366272D02*
X121181024Y-80461510D01*
X121181024Y-80461510D02*
X121228643Y-80651986D01*
X121228643Y-80651986D02*
X121228643Y-80890081D01*
X121228643Y-80890081D02*
X121181024Y-81080557D01*
X121181024Y-81080557D02*
X121133405Y-81175795D01*
X121133405Y-81175795D02*
X121085786Y-81223415D01*
X121085786Y-81223415D02*
X120990548Y-81271034D01*
X120990548Y-81271034D02*
X120895310Y-81271034D01*
X120895310Y-81271034D02*
X120800072Y-81223415D01*
X120800072Y-81223415D02*
X120752453Y-81175795D01*
X120752453Y-81175795D02*
X120704834Y-81080557D01*
X120704834Y-81080557D02*
X120657215Y-80890081D01*
X120657215Y-80890081D02*
X120657215Y-80651986D01*
X120657215Y-80651986D02*
X120704834Y-80461510D01*
X120704834Y-80461510D02*
X120752453Y-80366272D01*
X120752453Y-80366272D02*
X120800072Y-80318653D01*
X120800072Y-80318653D02*
X120895310Y-80271034D01*
X119140605Y-65880881D02*
X118664414Y-66214214D01*
X119140605Y-66452309D02*
X118140605Y-66452309D01*
X118140605Y-66452309D02*
X118140605Y-66071357D01*
X118140605Y-66071357D02*
X118188224Y-65976119D01*
X118188224Y-65976119D02*
X118235843Y-65928500D01*
X118235843Y-65928500D02*
X118331081Y-65880881D01*
X118331081Y-65880881D02*
X118473938Y-65880881D01*
X118473938Y-65880881D02*
X118569176Y-65928500D01*
X118569176Y-65928500D02*
X118616795Y-65976119D01*
X118616795Y-65976119D02*
X118664414Y-66071357D01*
X118664414Y-66071357D02*
X118664414Y-66452309D01*
X118235843Y-65499928D02*
X118188224Y-65452309D01*
X118188224Y-65452309D02*
X118140605Y-65357071D01*
X118140605Y-65357071D02*
X118140605Y-65118976D01*
X118140605Y-65118976D02*
X118188224Y-65023738D01*
X118188224Y-65023738D02*
X118235843Y-64976119D01*
X118235843Y-64976119D02*
X118331081Y-64928500D01*
X118331081Y-64928500D02*
X118426319Y-64928500D01*
X118426319Y-64928500D02*
X118569176Y-64976119D01*
X118569176Y-64976119D02*
X119140605Y-65547547D01*
X119140605Y-65547547D02*
X119140605Y-64928500D01*
X121623881Y-80371034D02*
X122195309Y-80371034D01*
X121909595Y-81371034D02*
X121909595Y-80371034D01*
X122528643Y-81371034D02*
X122528643Y-80371034D01*
X122528643Y-80371034D02*
X122909595Y-80371034D01*
X122909595Y-80371034D02*
X123004833Y-80418653D01*
X123004833Y-80418653D02*
X123052452Y-80466272D01*
X123052452Y-80466272D02*
X123100071Y-80561510D01*
X123100071Y-80561510D02*
X123100071Y-80704367D01*
X123100071Y-80704367D02*
X123052452Y-80799605D01*
X123052452Y-80799605D02*
X123004833Y-80847224D01*
X123004833Y-80847224D02*
X122909595Y-80894843D01*
X122909595Y-80894843D02*
X122528643Y-80894843D01*
X123957214Y-80704367D02*
X123957214Y-81371034D01*
X123719119Y-80323415D02*
X123481024Y-81037700D01*
X123481024Y-81037700D02*
X124100071Y-81037700D01*
X140040605Y-30047548D02*
X140754890Y-30047548D01*
X140754890Y-30047548D02*
X140897747Y-30095167D01*
X140897747Y-30095167D02*
X140992986Y-30190405D01*
X140992986Y-30190405D02*
X141040605Y-30333262D01*
X141040605Y-30333262D02*
X141040605Y-30428500D01*
X140135843Y-29618976D02*
X140088224Y-29571357D01*
X140088224Y-29571357D02*
X140040605Y-29476119D01*
X140040605Y-29476119D02*
X140040605Y-29238024D01*
X140040605Y-29238024D02*
X140088224Y-29142786D01*
X140088224Y-29142786D02*
X140135843Y-29095167D01*
X140135843Y-29095167D02*
X140231081Y-29047548D01*
X140231081Y-29047548D02*
X140326319Y-29047548D01*
X140326319Y-29047548D02*
X140469176Y-29095167D01*
X140469176Y-29095167D02*
X141040605Y-29666595D01*
X141040605Y-29666595D02*
X141040605Y-29047548D01*
X141550486Y-43685643D02*
X141550486Y-42542786D01*
X142121914Y-43114214D02*
X140979057Y-43114214D01*
X141550486Y-31385643D02*
X141550486Y-30242786D01*
X128870366Y-66380881D02*
X128917986Y-66428500D01*
X128917986Y-66428500D02*
X128965605Y-66571357D01*
X128965605Y-66571357D02*
X128965605Y-66666595D01*
X128965605Y-66666595D02*
X128917986Y-66809452D01*
X128917986Y-66809452D02*
X128822747Y-66904690D01*
X128822747Y-66904690D02*
X128727509Y-66952309D01*
X128727509Y-66952309D02*
X128537033Y-66999928D01*
X128537033Y-66999928D02*
X128394176Y-66999928D01*
X128394176Y-66999928D02*
X128203700Y-66952309D01*
X128203700Y-66952309D02*
X128108462Y-66904690D01*
X128108462Y-66904690D02*
X128013224Y-66809452D01*
X128013224Y-66809452D02*
X127965605Y-66666595D01*
X127965605Y-66666595D02*
X127965605Y-66571357D01*
X127965605Y-66571357D02*
X128013224Y-66428500D01*
X128013224Y-66428500D02*
X128060843Y-66380881D01*
X127965605Y-66047547D02*
X127965605Y-65428500D01*
X127965605Y-65428500D02*
X128346557Y-65761833D01*
X128346557Y-65761833D02*
X128346557Y-65618976D01*
X128346557Y-65618976D02*
X128394176Y-65523738D01*
X128394176Y-65523738D02*
X128441795Y-65476119D01*
X128441795Y-65476119D02*
X128537033Y-65428500D01*
X128537033Y-65428500D02*
X128775128Y-65428500D01*
X128775128Y-65428500D02*
X128870366Y-65476119D01*
X128870366Y-65476119D02*
X128917986Y-65523738D01*
X128917986Y-65523738D02*
X128965605Y-65618976D01*
X128965605Y-65618976D02*
X128965605Y-65904690D01*
X128965605Y-65904690D02*
X128917986Y-65999928D01*
X128917986Y-65999928D02*
X128870366Y-66047547D01*
X100276262Y-51269034D02*
X100276262Y-51983319D01*
X100276262Y-51983319D02*
X100228643Y-52126176D01*
X100228643Y-52126176D02*
X100133405Y-52221415D01*
X100133405Y-52221415D02*
X99990548Y-52269034D01*
X99990548Y-52269034D02*
X99895310Y-52269034D01*
X101276262Y-52269034D02*
X100704834Y-52269034D01*
X100990548Y-52269034D02*
X100990548Y-51269034D01*
X100990548Y-51269034D02*
X100895310Y-51411891D01*
X100895310Y-51411891D02*
X100800072Y-51507129D01*
X100800072Y-51507129D02*
X100704834Y-51554748D01*
X101609596Y-51269034D02*
X102228643Y-51269034D01*
X102228643Y-51269034D02*
X101895310Y-51649986D01*
X101895310Y-51649986D02*
X102038167Y-51649986D01*
X102038167Y-51649986D02*
X102133405Y-51697605D01*
X102133405Y-51697605D02*
X102181024Y-51745224D01*
X102181024Y-51745224D02*
X102228643Y-51840462D01*
X102228643Y-51840462D02*
X102228643Y-52078557D01*
X102228643Y-52078557D02*
X102181024Y-52173795D01*
X102181024Y-52173795D02*
X102133405Y-52221415D01*
X102133405Y-52221415D02*
X102038167Y-52269034D01*
X102038167Y-52269034D02*
X101752453Y-52269034D01*
X101752453Y-52269034D02*
X101657215Y-52221415D01*
X101657215Y-52221415D02*
X101609596Y-52173795D01*
X91042928Y-52973795D02*
X90995309Y-53021415D01*
X90995309Y-53021415D02*
X90852452Y-53069034D01*
X90852452Y-53069034D02*
X90757214Y-53069034D01*
X90757214Y-53069034D02*
X90614357Y-53021415D01*
X90614357Y-53021415D02*
X90519119Y-52926176D01*
X90519119Y-52926176D02*
X90471500Y-52830938D01*
X90471500Y-52830938D02*
X90423881Y-52640462D01*
X90423881Y-52640462D02*
X90423881Y-52497605D01*
X90423881Y-52497605D02*
X90471500Y-52307129D01*
X90471500Y-52307129D02*
X90519119Y-52211891D01*
X90519119Y-52211891D02*
X90614357Y-52116653D01*
X90614357Y-52116653D02*
X90757214Y-52069034D01*
X90757214Y-52069034D02*
X90852452Y-52069034D01*
X90852452Y-52069034D02*
X90995309Y-52116653D01*
X90995309Y-52116653D02*
X91042928Y-52164272D01*
X91995309Y-53069034D02*
X91423881Y-53069034D01*
X91709595Y-53069034D02*
X91709595Y-52069034D01*
X91709595Y-52069034D02*
X91614357Y-52211891D01*
X91614357Y-52211891D02*
X91519119Y-52307129D01*
X91519119Y-52307129D02*
X91423881Y-52354748D01*
X92852452Y-52069034D02*
X92661976Y-52069034D01*
X92661976Y-52069034D02*
X92566738Y-52116653D01*
X92566738Y-52116653D02*
X92519119Y-52164272D01*
X92519119Y-52164272D02*
X92423881Y-52307129D01*
X92423881Y-52307129D02*
X92376262Y-52497605D01*
X92376262Y-52497605D02*
X92376262Y-52878557D01*
X92376262Y-52878557D02*
X92423881Y-52973795D01*
X92423881Y-52973795D02*
X92471500Y-53021415D01*
X92471500Y-53021415D02*
X92566738Y-53069034D01*
X92566738Y-53069034D02*
X92757214Y-53069034D01*
X92757214Y-53069034D02*
X92852452Y-53021415D01*
X92852452Y-53021415D02*
X92900071Y-52973795D01*
X92900071Y-52973795D02*
X92947690Y-52878557D01*
X92947690Y-52878557D02*
X92947690Y-52640462D01*
X92947690Y-52640462D02*
X92900071Y-52545224D01*
X92900071Y-52545224D02*
X92852452Y-52497605D01*
X92852452Y-52497605D02*
X92757214Y-52449986D01*
X92757214Y-52449986D02*
X92566738Y-52449986D01*
X92566738Y-52449986D02*
X92471500Y-52497605D01*
X92471500Y-52497605D02*
X92423881Y-52545224D01*
X92423881Y-52545224D02*
X92376262Y-52640462D01*
X157740605Y-78673738D02*
X158454890Y-78673738D01*
X158454890Y-78673738D02*
X158597747Y-78721357D01*
X158597747Y-78721357D02*
X158692986Y-78816595D01*
X158692986Y-78816595D02*
X158740605Y-78959452D01*
X158740605Y-78959452D02*
X158740605Y-79054690D01*
X157835843Y-78245166D02*
X157788224Y-78197547D01*
X157788224Y-78197547D02*
X157740605Y-78102309D01*
X157740605Y-78102309D02*
X157740605Y-77864214D01*
X157740605Y-77864214D02*
X157788224Y-77768976D01*
X157788224Y-77768976D02*
X157835843Y-77721357D01*
X157835843Y-77721357D02*
X157931081Y-77673738D01*
X157931081Y-77673738D02*
X158026319Y-77673738D01*
X158026319Y-77673738D02*
X158169176Y-77721357D01*
X158169176Y-77721357D02*
X158740605Y-78292785D01*
X158740605Y-78292785D02*
X158740605Y-77673738D01*
X157835843Y-77292785D02*
X157788224Y-77245166D01*
X157788224Y-77245166D02*
X157740605Y-77149928D01*
X157740605Y-77149928D02*
X157740605Y-76911833D01*
X157740605Y-76911833D02*
X157788224Y-76816595D01*
X157788224Y-76816595D02*
X157835843Y-76768976D01*
X157835843Y-76768976D02*
X157931081Y-76721357D01*
X157931081Y-76721357D02*
X158026319Y-76721357D01*
X158026319Y-76721357D02*
X158169176Y-76768976D01*
X158169176Y-76768976D02*
X158740605Y-77340404D01*
X158740605Y-77340404D02*
X158740605Y-76721357D01*
X116140605Y-41547548D02*
X116854890Y-41547548D01*
X116854890Y-41547548D02*
X116997747Y-41595167D01*
X116997747Y-41595167D02*
X117092986Y-41690405D01*
X117092986Y-41690405D02*
X117140605Y-41833262D01*
X117140605Y-41833262D02*
X117140605Y-41928500D01*
X116569176Y-40928500D02*
X116521557Y-41023738D01*
X116521557Y-41023738D02*
X116473938Y-41071357D01*
X116473938Y-41071357D02*
X116378700Y-41118976D01*
X116378700Y-41118976D02*
X116331081Y-41118976D01*
X116331081Y-41118976D02*
X116235843Y-41071357D01*
X116235843Y-41071357D02*
X116188224Y-41023738D01*
X116188224Y-41023738D02*
X116140605Y-40928500D01*
X116140605Y-40928500D02*
X116140605Y-40738024D01*
X116140605Y-40738024D02*
X116188224Y-40642786D01*
X116188224Y-40642786D02*
X116235843Y-40595167D01*
X116235843Y-40595167D02*
X116331081Y-40547548D01*
X116331081Y-40547548D02*
X116378700Y-40547548D01*
X116378700Y-40547548D02*
X116473938Y-40595167D01*
X116473938Y-40595167D02*
X116521557Y-40642786D01*
X116521557Y-40642786D02*
X116569176Y-40738024D01*
X116569176Y-40738024D02*
X116569176Y-40928500D01*
X116569176Y-40928500D02*
X116616795Y-41023738D01*
X116616795Y-41023738D02*
X116664414Y-41071357D01*
X116664414Y-41071357D02*
X116759652Y-41118976D01*
X116759652Y-41118976D02*
X116950128Y-41118976D01*
X116950128Y-41118976D02*
X117045366Y-41071357D01*
X117045366Y-41071357D02*
X117092986Y-41023738D01*
X117092986Y-41023738D02*
X117140605Y-40928500D01*
X117140605Y-40928500D02*
X117140605Y-40738024D01*
X117140605Y-40738024D02*
X117092986Y-40642786D01*
X117092986Y-40642786D02*
X117045366Y-40595167D01*
X117045366Y-40595167D02*
X116950128Y-40547548D01*
X116950128Y-40547548D02*
X116759652Y-40547548D01*
X116759652Y-40547548D02*
X116664414Y-40595167D01*
X116664414Y-40595167D02*
X116616795Y-40642786D01*
X116616795Y-40642786D02*
X116569176Y-40738024D01*
X120200486Y-30785643D02*
X120200486Y-29642786D01*
X120200486Y-43785643D02*
X120200486Y-42642786D01*
X120771914Y-43214214D02*
X119629057Y-43214214D01*
X140547691Y-48244034D02*
X140547691Y-47244034D01*
X140547691Y-47244034D02*
X140785786Y-47244034D01*
X140785786Y-47244034D02*
X140928643Y-47291653D01*
X140928643Y-47291653D02*
X141023881Y-47386891D01*
X141023881Y-47386891D02*
X141071500Y-47482129D01*
X141071500Y-47482129D02*
X141119119Y-47672605D01*
X141119119Y-47672605D02*
X141119119Y-47815462D01*
X141119119Y-47815462D02*
X141071500Y-48005938D01*
X141071500Y-48005938D02*
X141023881Y-48101176D01*
X141023881Y-48101176D02*
X140928643Y-48196415D01*
X140928643Y-48196415D02*
X140785786Y-48244034D01*
X140785786Y-48244034D02*
X140547691Y-48244034D01*
X141452453Y-47244034D02*
X142071500Y-47244034D01*
X142071500Y-47244034D02*
X141738167Y-47624986D01*
X141738167Y-47624986D02*
X141881024Y-47624986D01*
X141881024Y-47624986D02*
X141976262Y-47672605D01*
X141976262Y-47672605D02*
X142023881Y-47720224D01*
X142023881Y-47720224D02*
X142071500Y-47815462D01*
X142071500Y-47815462D02*
X142071500Y-48053557D01*
X142071500Y-48053557D02*
X142023881Y-48148795D01*
X142023881Y-48148795D02*
X141976262Y-48196415D01*
X141976262Y-48196415D02*
X141881024Y-48244034D01*
X141881024Y-48244034D02*
X141595310Y-48244034D01*
X141595310Y-48244034D02*
X141500072Y-48196415D01*
X141500072Y-48196415D02*
X141452453Y-48148795D01*
X140045366Y-38957072D02*
X140092986Y-39004691D01*
X140092986Y-39004691D02*
X140140605Y-39147548D01*
X140140605Y-39147548D02*
X140140605Y-39242786D01*
X140140605Y-39242786D02*
X140092986Y-39385643D01*
X140092986Y-39385643D02*
X139997747Y-39480881D01*
X139997747Y-39480881D02*
X139902509Y-39528500D01*
X139902509Y-39528500D02*
X139712033Y-39576119D01*
X139712033Y-39576119D02*
X139569176Y-39576119D01*
X139569176Y-39576119D02*
X139378700Y-39528500D01*
X139378700Y-39528500D02*
X139283462Y-39480881D01*
X139283462Y-39480881D02*
X139188224Y-39385643D01*
X139188224Y-39385643D02*
X139140605Y-39242786D01*
X139140605Y-39242786D02*
X139140605Y-39147548D01*
X139140605Y-39147548D02*
X139188224Y-39004691D01*
X139188224Y-39004691D02*
X139235843Y-38957072D01*
X140140605Y-38004691D02*
X140140605Y-38576119D01*
X140140605Y-38290405D02*
X139140605Y-38290405D01*
X139140605Y-38290405D02*
X139283462Y-38385643D01*
X139283462Y-38385643D02*
X139378700Y-38480881D01*
X139378700Y-38480881D02*
X139426319Y-38576119D01*
X139140605Y-37671357D02*
X139140605Y-37004691D01*
X139140605Y-37004691D02*
X140140605Y-37433262D01*
X72776262Y-40469034D02*
X72776262Y-41183319D01*
X72776262Y-41183319D02*
X72728643Y-41326176D01*
X72728643Y-41326176D02*
X72633405Y-41421415D01*
X72633405Y-41421415D02*
X72490548Y-41469034D01*
X72490548Y-41469034D02*
X72395310Y-41469034D01*
X73776262Y-41469034D02*
X73204834Y-41469034D01*
X73490548Y-41469034D02*
X73490548Y-40469034D01*
X73490548Y-40469034D02*
X73395310Y-40611891D01*
X73395310Y-40611891D02*
X73300072Y-40707129D01*
X73300072Y-40707129D02*
X73204834Y-40754748D01*
X74157215Y-40564272D02*
X74204834Y-40516653D01*
X74204834Y-40516653D02*
X74300072Y-40469034D01*
X74300072Y-40469034D02*
X74538167Y-40469034D01*
X74538167Y-40469034D02*
X74633405Y-40516653D01*
X74633405Y-40516653D02*
X74681024Y-40564272D01*
X74681024Y-40564272D02*
X74728643Y-40659510D01*
X74728643Y-40659510D02*
X74728643Y-40754748D01*
X74728643Y-40754748D02*
X74681024Y-40897605D01*
X74681024Y-40897605D02*
X74109596Y-41469034D01*
X74109596Y-41469034D02*
X74728643Y-41469034D01*
X74447691Y-27671034D02*
X75019119Y-27671034D01*
X74733405Y-28671034D02*
X74733405Y-27671034D01*
X75352453Y-28671034D02*
X75352453Y-27671034D01*
X75352453Y-27671034D02*
X75733405Y-27671034D01*
X75733405Y-27671034D02*
X75828643Y-27718653D01*
X75828643Y-27718653D02*
X75876262Y-27766272D01*
X75876262Y-27766272D02*
X75923881Y-27861510D01*
X75923881Y-27861510D02*
X75923881Y-28004367D01*
X75923881Y-28004367D02*
X75876262Y-28099605D01*
X75876262Y-28099605D02*
X75828643Y-28147224D01*
X75828643Y-28147224D02*
X75733405Y-28194843D01*
X75733405Y-28194843D02*
X75352453Y-28194843D01*
X76876262Y-28671034D02*
X76304834Y-28671034D01*
X76590548Y-28671034D02*
X76590548Y-27671034D01*
X76590548Y-27671034D02*
X76495310Y-27813891D01*
X76495310Y-27813891D02*
X76400072Y-27909129D01*
X76400072Y-27909129D02*
X76304834Y-27956748D01*
X77828643Y-28671034D02*
X77257215Y-28671034D01*
X77542929Y-28671034D02*
X77542929Y-27671034D01*
X77542929Y-27671034D02*
X77447691Y-27813891D01*
X77447691Y-27813891D02*
X77352453Y-27909129D01*
X77352453Y-27909129D02*
X77257215Y-27956748D01*
X128870366Y-62260881D02*
X128917986Y-62308500D01*
X128917986Y-62308500D02*
X128965605Y-62451357D01*
X128965605Y-62451357D02*
X128965605Y-62546595D01*
X128965605Y-62546595D02*
X128917986Y-62689452D01*
X128917986Y-62689452D02*
X128822747Y-62784690D01*
X128822747Y-62784690D02*
X128727509Y-62832309D01*
X128727509Y-62832309D02*
X128537033Y-62879928D01*
X128537033Y-62879928D02*
X128394176Y-62879928D01*
X128394176Y-62879928D02*
X128203700Y-62832309D01*
X128203700Y-62832309D02*
X128108462Y-62784690D01*
X128108462Y-62784690D02*
X128013224Y-62689452D01*
X128013224Y-62689452D02*
X127965605Y-62546595D01*
X127965605Y-62546595D02*
X127965605Y-62451357D01*
X127965605Y-62451357D02*
X128013224Y-62308500D01*
X128013224Y-62308500D02*
X128060843Y-62260881D01*
X128965605Y-61308500D02*
X128965605Y-61879928D01*
X128965605Y-61594214D02*
X127965605Y-61594214D01*
X127965605Y-61594214D02*
X128108462Y-61689452D01*
X128108462Y-61689452D02*
X128203700Y-61784690D01*
X128203700Y-61784690D02*
X128251319Y-61879928D01*
X72445366Y-35357072D02*
X72492986Y-35404691D01*
X72492986Y-35404691D02*
X72540605Y-35547548D01*
X72540605Y-35547548D02*
X72540605Y-35642786D01*
X72540605Y-35642786D02*
X72492986Y-35785643D01*
X72492986Y-35785643D02*
X72397747Y-35880881D01*
X72397747Y-35880881D02*
X72302509Y-35928500D01*
X72302509Y-35928500D02*
X72112033Y-35976119D01*
X72112033Y-35976119D02*
X71969176Y-35976119D01*
X71969176Y-35976119D02*
X71778700Y-35928500D01*
X71778700Y-35928500D02*
X71683462Y-35880881D01*
X71683462Y-35880881D02*
X71588224Y-35785643D01*
X71588224Y-35785643D02*
X71540605Y-35642786D01*
X71540605Y-35642786D02*
X71540605Y-35547548D01*
X71540605Y-35547548D02*
X71588224Y-35404691D01*
X71588224Y-35404691D02*
X71635843Y-35357072D01*
X72540605Y-34404691D02*
X72540605Y-34976119D01*
X72540605Y-34690405D02*
X71540605Y-34690405D01*
X71540605Y-34690405D02*
X71683462Y-34785643D01*
X71683462Y-34785643D02*
X71778700Y-34880881D01*
X71778700Y-34880881D02*
X71826319Y-34976119D01*
X71969176Y-33833262D02*
X71921557Y-33928500D01*
X71921557Y-33928500D02*
X71873938Y-33976119D01*
X71873938Y-33976119D02*
X71778700Y-34023738D01*
X71778700Y-34023738D02*
X71731081Y-34023738D01*
X71731081Y-34023738D02*
X71635843Y-33976119D01*
X71635843Y-33976119D02*
X71588224Y-33928500D01*
X71588224Y-33928500D02*
X71540605Y-33833262D01*
X71540605Y-33833262D02*
X71540605Y-33642786D01*
X71540605Y-33642786D02*
X71588224Y-33547548D01*
X71588224Y-33547548D02*
X71635843Y-33499929D01*
X71635843Y-33499929D02*
X71731081Y-33452310D01*
X71731081Y-33452310D02*
X71778700Y-33452310D01*
X71778700Y-33452310D02*
X71873938Y-33499929D01*
X71873938Y-33499929D02*
X71921557Y-33547548D01*
X71921557Y-33547548D02*
X71969176Y-33642786D01*
X71969176Y-33642786D02*
X71969176Y-33833262D01*
X71969176Y-33833262D02*
X72016795Y-33928500D01*
X72016795Y-33928500D02*
X72064414Y-33976119D01*
X72064414Y-33976119D02*
X72159652Y-34023738D01*
X72159652Y-34023738D02*
X72350128Y-34023738D01*
X72350128Y-34023738D02*
X72445366Y-33976119D01*
X72445366Y-33976119D02*
X72492986Y-33928500D01*
X72492986Y-33928500D02*
X72540605Y-33833262D01*
X72540605Y-33833262D02*
X72540605Y-33642786D01*
X72540605Y-33642786D02*
X72492986Y-33547548D01*
X72492986Y-33547548D02*
X72445366Y-33499929D01*
X72445366Y-33499929D02*
X72350128Y-33452310D01*
X72350128Y-33452310D02*
X72159652Y-33452310D01*
X72159652Y-33452310D02*
X72064414Y-33499929D01*
X72064414Y-33499929D02*
X72016795Y-33547548D01*
X72016795Y-33547548D02*
X71969176Y-33642786D01*
X115542928Y-61669034D02*
X115209595Y-61192843D01*
X114971500Y-61669034D02*
X114971500Y-60669034D01*
X114971500Y-60669034D02*
X115352452Y-60669034D01*
X115352452Y-60669034D02*
X115447690Y-60716653D01*
X115447690Y-60716653D02*
X115495309Y-60764272D01*
X115495309Y-60764272D02*
X115542928Y-60859510D01*
X115542928Y-60859510D02*
X115542928Y-61002367D01*
X115542928Y-61002367D02*
X115495309Y-61097605D01*
X115495309Y-61097605D02*
X115447690Y-61145224D01*
X115447690Y-61145224D02*
X115352452Y-61192843D01*
X115352452Y-61192843D02*
X114971500Y-61192843D01*
X116495309Y-61669034D02*
X115923881Y-61669034D01*
X116209595Y-61669034D02*
X116209595Y-60669034D01*
X116209595Y-60669034D02*
X116114357Y-60811891D01*
X116114357Y-60811891D02*
X116019119Y-60907129D01*
X116019119Y-60907129D02*
X115923881Y-60954748D01*
X116828643Y-60669034D02*
X117447690Y-60669034D01*
X117447690Y-60669034D02*
X117114357Y-61049986D01*
X117114357Y-61049986D02*
X117257214Y-61049986D01*
X117257214Y-61049986D02*
X117352452Y-61097605D01*
X117352452Y-61097605D02*
X117400071Y-61145224D01*
X117400071Y-61145224D02*
X117447690Y-61240462D01*
X117447690Y-61240462D02*
X117447690Y-61478557D01*
X117447690Y-61478557D02*
X117400071Y-61573795D01*
X117400071Y-61573795D02*
X117352452Y-61621415D01*
X117352452Y-61621415D02*
X117257214Y-61669034D01*
X117257214Y-61669034D02*
X116971500Y-61669034D01*
X116971500Y-61669034D02*
X116876262Y-61621415D01*
X116876262Y-61621415D02*
X116828643Y-61573795D01*
X136240605Y-78057072D02*
X135764414Y-78390405D01*
X136240605Y-78628500D02*
X135240605Y-78628500D01*
X135240605Y-78628500D02*
X135240605Y-78247548D01*
X135240605Y-78247548D02*
X135288224Y-78152310D01*
X135288224Y-78152310D02*
X135335843Y-78104691D01*
X135335843Y-78104691D02*
X135431081Y-78057072D01*
X135431081Y-78057072D02*
X135573938Y-78057072D01*
X135573938Y-78057072D02*
X135669176Y-78104691D01*
X135669176Y-78104691D02*
X135716795Y-78152310D01*
X135716795Y-78152310D02*
X135764414Y-78247548D01*
X135764414Y-78247548D02*
X135764414Y-78628500D01*
X135335843Y-77676119D02*
X135288224Y-77628500D01*
X135288224Y-77628500D02*
X135240605Y-77533262D01*
X135240605Y-77533262D02*
X135240605Y-77295167D01*
X135240605Y-77295167D02*
X135288224Y-77199929D01*
X135288224Y-77199929D02*
X135335843Y-77152310D01*
X135335843Y-77152310D02*
X135431081Y-77104691D01*
X135431081Y-77104691D02*
X135526319Y-77104691D01*
X135526319Y-77104691D02*
X135669176Y-77152310D01*
X135669176Y-77152310D02*
X136240605Y-77723738D01*
X136240605Y-77723738D02*
X136240605Y-77104691D01*
X135240605Y-76199929D02*
X135240605Y-76676119D01*
X135240605Y-76676119D02*
X135716795Y-76723738D01*
X135716795Y-76723738D02*
X135669176Y-76676119D01*
X135669176Y-76676119D02*
X135621557Y-76580881D01*
X135621557Y-76580881D02*
X135621557Y-76342786D01*
X135621557Y-76342786D02*
X135669176Y-76247548D01*
X135669176Y-76247548D02*
X135716795Y-76199929D01*
X135716795Y-76199929D02*
X135812033Y-76152310D01*
X135812033Y-76152310D02*
X136050128Y-76152310D01*
X136050128Y-76152310D02*
X136145366Y-76199929D01*
X136145366Y-76199929D02*
X136192986Y-76247548D01*
X136192986Y-76247548D02*
X136240605Y-76342786D01*
X136240605Y-76342786D02*
X136240605Y-76580881D01*
X136240605Y-76580881D02*
X136192986Y-76676119D01*
X136192986Y-76676119D02*
X136145366Y-76723738D01*
X141323881Y-62571034D02*
X141895309Y-62571034D01*
X141609595Y-63571034D02*
X141609595Y-62571034D01*
X142228643Y-63571034D02*
X142228643Y-62571034D01*
X142228643Y-62571034D02*
X142609595Y-62571034D01*
X142609595Y-62571034D02*
X142704833Y-62618653D01*
X142704833Y-62618653D02*
X142752452Y-62666272D01*
X142752452Y-62666272D02*
X142800071Y-62761510D01*
X142800071Y-62761510D02*
X142800071Y-62904367D01*
X142800071Y-62904367D02*
X142752452Y-62999605D01*
X142752452Y-62999605D02*
X142704833Y-63047224D01*
X142704833Y-63047224D02*
X142609595Y-63094843D01*
X142609595Y-63094843D02*
X142228643Y-63094843D01*
X143181024Y-62666272D02*
X143228643Y-62618653D01*
X143228643Y-62618653D02*
X143323881Y-62571034D01*
X143323881Y-62571034D02*
X143561976Y-62571034D01*
X143561976Y-62571034D02*
X143657214Y-62618653D01*
X143657214Y-62618653D02*
X143704833Y-62666272D01*
X143704833Y-62666272D02*
X143752452Y-62761510D01*
X143752452Y-62761510D02*
X143752452Y-62856748D01*
X143752452Y-62856748D02*
X143704833Y-62999605D01*
X143704833Y-62999605D02*
X143133405Y-63571034D01*
X143133405Y-63571034D02*
X143752452Y-63571034D01*
X140919119Y-72536295D02*
X140871500Y-72583915D01*
X140871500Y-72583915D02*
X140728643Y-72631534D01*
X140728643Y-72631534D02*
X140633405Y-72631534D01*
X140633405Y-72631534D02*
X140490548Y-72583915D01*
X140490548Y-72583915D02*
X140395310Y-72488676D01*
X140395310Y-72488676D02*
X140347691Y-72393438D01*
X140347691Y-72393438D02*
X140300072Y-72202962D01*
X140300072Y-72202962D02*
X140300072Y-72060105D01*
X140300072Y-72060105D02*
X140347691Y-71869629D01*
X140347691Y-71869629D02*
X140395310Y-71774391D01*
X140395310Y-71774391D02*
X140490548Y-71679153D01*
X140490548Y-71679153D02*
X140633405Y-71631534D01*
X140633405Y-71631534D02*
X140728643Y-71631534D01*
X140728643Y-71631534D02*
X140871500Y-71679153D01*
X140871500Y-71679153D02*
X140919119Y-71726772D01*
X141776262Y-71631534D02*
X141585786Y-71631534D01*
X141585786Y-71631534D02*
X141490548Y-71679153D01*
X141490548Y-71679153D02*
X141442929Y-71726772D01*
X141442929Y-71726772D02*
X141347691Y-71869629D01*
X141347691Y-71869629D02*
X141300072Y-72060105D01*
X141300072Y-72060105D02*
X141300072Y-72441057D01*
X141300072Y-72441057D02*
X141347691Y-72536295D01*
X141347691Y-72536295D02*
X141395310Y-72583915D01*
X141395310Y-72583915D02*
X141490548Y-72631534D01*
X141490548Y-72631534D02*
X141681024Y-72631534D01*
X141681024Y-72631534D02*
X141776262Y-72583915D01*
X141776262Y-72583915D02*
X141823881Y-72536295D01*
X141823881Y-72536295D02*
X141871500Y-72441057D01*
X141871500Y-72441057D02*
X141871500Y-72202962D01*
X141871500Y-72202962D02*
X141823881Y-72107724D01*
X141823881Y-72107724D02*
X141776262Y-72060105D01*
X141776262Y-72060105D02*
X141681024Y-72012486D01*
X141681024Y-72012486D02*
X141490548Y-72012486D01*
X141490548Y-72012486D02*
X141395310Y-72060105D01*
X141395310Y-72060105D02*
X141347691Y-72107724D01*
X141347691Y-72107724D02*
X141300072Y-72202962D01*
X159652452Y-76069034D02*
X159652452Y-76783319D01*
X159652452Y-76783319D02*
X159604833Y-76926176D01*
X159604833Y-76926176D02*
X159509595Y-77021415D01*
X159509595Y-77021415D02*
X159366738Y-77069034D01*
X159366738Y-77069034D02*
X159271500Y-77069034D01*
X160033405Y-76069034D02*
X160652452Y-76069034D01*
X160652452Y-76069034D02*
X160319119Y-76449986D01*
X160319119Y-76449986D02*
X160461976Y-76449986D01*
X160461976Y-76449986D02*
X160557214Y-76497605D01*
X160557214Y-76497605D02*
X160604833Y-76545224D01*
X160604833Y-76545224D02*
X160652452Y-76640462D01*
X160652452Y-76640462D02*
X160652452Y-76878557D01*
X160652452Y-76878557D02*
X160604833Y-76973795D01*
X160604833Y-76973795D02*
X160557214Y-77021415D01*
X160557214Y-77021415D02*
X160461976Y-77069034D01*
X160461976Y-77069034D02*
X160176262Y-77069034D01*
X160176262Y-77069034D02*
X160081024Y-77021415D01*
X160081024Y-77021415D02*
X160033405Y-76973795D01*
X147200486Y-74785643D02*
X147200486Y-73642786D01*
X147200486Y-63785643D02*
X147200486Y-62642786D01*
X147771914Y-63214214D02*
X146629057Y-63214214D01*
X143640605Y-54547548D02*
X144354890Y-54547548D01*
X144354890Y-54547548D02*
X144497747Y-54595167D01*
X144497747Y-54595167D02*
X144592986Y-54690405D01*
X144592986Y-54690405D02*
X144640605Y-54833262D01*
X144640605Y-54833262D02*
X144640605Y-54928500D01*
X143973938Y-53642786D02*
X144640605Y-53642786D01*
X143592986Y-53880881D02*
X144307271Y-54118976D01*
X144307271Y-54118976D02*
X144307271Y-53499929D01*
X147200486Y-59785643D02*
X147200486Y-58642786D01*
X147200486Y-48785643D02*
X147200486Y-47642786D01*
X147771914Y-48214214D02*
X146629057Y-48214214D01*
X133047691Y-80371034D02*
X133619119Y-80371034D01*
X133333405Y-81371034D02*
X133333405Y-80371034D01*
X133952453Y-81371034D02*
X133952453Y-80371034D01*
X133952453Y-80371034D02*
X134333405Y-80371034D01*
X134333405Y-80371034D02*
X134428643Y-80418653D01*
X134428643Y-80418653D02*
X134476262Y-80466272D01*
X134476262Y-80466272D02*
X134523881Y-80561510D01*
X134523881Y-80561510D02*
X134523881Y-80704367D01*
X134523881Y-80704367D02*
X134476262Y-80799605D01*
X134476262Y-80799605D02*
X134428643Y-80847224D01*
X134428643Y-80847224D02*
X134333405Y-80894843D01*
X134333405Y-80894843D02*
X133952453Y-80894843D01*
X135476262Y-81371034D02*
X134904834Y-81371034D01*
X135190548Y-81371034D02*
X135190548Y-80371034D01*
X135190548Y-80371034D02*
X135095310Y-80513891D01*
X135095310Y-80513891D02*
X135000072Y-80609129D01*
X135000072Y-80609129D02*
X134904834Y-80656748D01*
X135857215Y-80466272D02*
X135904834Y-80418653D01*
X135904834Y-80418653D02*
X136000072Y-80371034D01*
X136000072Y-80371034D02*
X136238167Y-80371034D01*
X136238167Y-80371034D02*
X136333405Y-80418653D01*
X136333405Y-80418653D02*
X136381024Y-80466272D01*
X136381024Y-80466272D02*
X136428643Y-80561510D01*
X136428643Y-80561510D02*
X136428643Y-80656748D01*
X136428643Y-80656748D02*
X136381024Y-80799605D01*
X136381024Y-80799605D02*
X135809596Y-81371034D01*
X135809596Y-81371034D02*
X136428643Y-81371034D01*
X140176262Y-78144034D02*
X140176262Y-78858319D01*
X140176262Y-78858319D02*
X140128643Y-79001176D01*
X140128643Y-79001176D02*
X140033405Y-79096415D01*
X140033405Y-79096415D02*
X139890548Y-79144034D01*
X139890548Y-79144034D02*
X139795310Y-79144034D01*
X141176262Y-79144034D02*
X140604834Y-79144034D01*
X140890548Y-79144034D02*
X140890548Y-78144034D01*
X140890548Y-78144034D02*
X140795310Y-78286891D01*
X140795310Y-78286891D02*
X140700072Y-78382129D01*
X140700072Y-78382129D02*
X140604834Y-78429748D01*
X142033405Y-78144034D02*
X141842929Y-78144034D01*
X141842929Y-78144034D02*
X141747691Y-78191653D01*
X141747691Y-78191653D02*
X141700072Y-78239272D01*
X141700072Y-78239272D02*
X141604834Y-78382129D01*
X141604834Y-78382129D02*
X141557215Y-78572605D01*
X141557215Y-78572605D02*
X141557215Y-78953557D01*
X141557215Y-78953557D02*
X141604834Y-79048795D01*
X141604834Y-79048795D02*
X141652453Y-79096415D01*
X141652453Y-79096415D02*
X141747691Y-79144034D01*
X141747691Y-79144034D02*
X141938167Y-79144034D01*
X141938167Y-79144034D02*
X142033405Y-79096415D01*
X142033405Y-79096415D02*
X142081024Y-79048795D01*
X142081024Y-79048795D02*
X142128643Y-78953557D01*
X142128643Y-78953557D02*
X142128643Y-78715462D01*
X142128643Y-78715462D02*
X142081024Y-78620224D01*
X142081024Y-78620224D02*
X142033405Y-78572605D01*
X142033405Y-78572605D02*
X141938167Y-78524986D01*
X141938167Y-78524986D02*
X141747691Y-78524986D01*
X141747691Y-78524986D02*
X141652453Y-78572605D01*
X141652453Y-78572605D02*
X141604834Y-78620224D01*
X141604834Y-78620224D02*
X141557215Y-78715462D01*
X117426262Y-51269034D02*
X117426262Y-51983319D01*
X117426262Y-51983319D02*
X117378643Y-52126176D01*
X117378643Y-52126176D02*
X117283405Y-52221415D01*
X117283405Y-52221415D02*
X117140548Y-52269034D01*
X117140548Y-52269034D02*
X117045310Y-52269034D01*
X117854834Y-51364272D02*
X117902453Y-51316653D01*
X117902453Y-51316653D02*
X117997691Y-51269034D01*
X117997691Y-51269034D02*
X118235786Y-51269034D01*
X118235786Y-51269034D02*
X118331024Y-51316653D01*
X118331024Y-51316653D02*
X118378643Y-51364272D01*
X118378643Y-51364272D02*
X118426262Y-51459510D01*
X118426262Y-51459510D02*
X118426262Y-51554748D01*
X118426262Y-51554748D02*
X118378643Y-51697605D01*
X118378643Y-51697605D02*
X117807215Y-52269034D01*
X117807215Y-52269034D02*
X118426262Y-52269034D01*
X119283405Y-51602367D02*
X119283405Y-52269034D01*
X119045310Y-51221415D02*
X118807215Y-51935700D01*
X118807215Y-51935700D02*
X119426262Y-51935700D01*
X112719119Y-54874034D02*
X112385786Y-54397843D01*
X112147691Y-54874034D02*
X112147691Y-53874034D01*
X112147691Y-53874034D02*
X112528643Y-53874034D01*
X112528643Y-53874034D02*
X112623881Y-53921653D01*
X112623881Y-53921653D02*
X112671500Y-53969272D01*
X112671500Y-53969272D02*
X112719119Y-54064510D01*
X112719119Y-54064510D02*
X112719119Y-54207367D01*
X112719119Y-54207367D02*
X112671500Y-54302605D01*
X112671500Y-54302605D02*
X112623881Y-54350224D01*
X112623881Y-54350224D02*
X112528643Y-54397843D01*
X112528643Y-54397843D02*
X112147691Y-54397843D01*
X113195310Y-54874034D02*
X113385786Y-54874034D01*
X113385786Y-54874034D02*
X113481024Y-54826415D01*
X113481024Y-54826415D02*
X113528643Y-54778795D01*
X113528643Y-54778795D02*
X113623881Y-54635938D01*
X113623881Y-54635938D02*
X113671500Y-54445462D01*
X113671500Y-54445462D02*
X113671500Y-54064510D01*
X113671500Y-54064510D02*
X113623881Y-53969272D01*
X113623881Y-53969272D02*
X113576262Y-53921653D01*
X113576262Y-53921653D02*
X113481024Y-53874034D01*
X113481024Y-53874034D02*
X113290548Y-53874034D01*
X113290548Y-53874034D02*
X113195310Y-53921653D01*
X113195310Y-53921653D02*
X113147691Y-53969272D01*
X113147691Y-53969272D02*
X113100072Y-54064510D01*
X113100072Y-54064510D02*
X113100072Y-54302605D01*
X113100072Y-54302605D02*
X113147691Y-54397843D01*
X113147691Y-54397843D02*
X113195310Y-54445462D01*
X113195310Y-54445462D02*
X113290548Y-54493081D01*
X113290548Y-54493081D02*
X113481024Y-54493081D01*
X113481024Y-54493081D02*
X113576262Y-54445462D01*
X113576262Y-54445462D02*
X113623881Y-54397843D01*
X113623881Y-54397843D02*
X113671500Y-54302605D01*
X130840605Y-78057072D02*
X130364414Y-78390405D01*
X130840605Y-78628500D02*
X129840605Y-78628500D01*
X129840605Y-78628500D02*
X129840605Y-78247548D01*
X129840605Y-78247548D02*
X129888224Y-78152310D01*
X129888224Y-78152310D02*
X129935843Y-78104691D01*
X129935843Y-78104691D02*
X130031081Y-78057072D01*
X130031081Y-78057072D02*
X130173938Y-78057072D01*
X130173938Y-78057072D02*
X130269176Y-78104691D01*
X130269176Y-78104691D02*
X130316795Y-78152310D01*
X130316795Y-78152310D02*
X130364414Y-78247548D01*
X130364414Y-78247548D02*
X130364414Y-78628500D01*
X129935843Y-77676119D02*
X129888224Y-77628500D01*
X129888224Y-77628500D02*
X129840605Y-77533262D01*
X129840605Y-77533262D02*
X129840605Y-77295167D01*
X129840605Y-77295167D02*
X129888224Y-77199929D01*
X129888224Y-77199929D02*
X129935843Y-77152310D01*
X129935843Y-77152310D02*
X130031081Y-77104691D01*
X130031081Y-77104691D02*
X130126319Y-77104691D01*
X130126319Y-77104691D02*
X130269176Y-77152310D01*
X130269176Y-77152310D02*
X130840605Y-77723738D01*
X130840605Y-77723738D02*
X130840605Y-77104691D01*
X129840605Y-76247548D02*
X129840605Y-76438024D01*
X129840605Y-76438024D02*
X129888224Y-76533262D01*
X129888224Y-76533262D02*
X129935843Y-76580881D01*
X129935843Y-76580881D02*
X130078700Y-76676119D01*
X130078700Y-76676119D02*
X130269176Y-76723738D01*
X130269176Y-76723738D02*
X130650128Y-76723738D01*
X130650128Y-76723738D02*
X130745366Y-76676119D01*
X130745366Y-76676119D02*
X130792986Y-76628500D01*
X130792986Y-76628500D02*
X130840605Y-76533262D01*
X130840605Y-76533262D02*
X130840605Y-76342786D01*
X130840605Y-76342786D02*
X130792986Y-76247548D01*
X130792986Y-76247548D02*
X130745366Y-76199929D01*
X130745366Y-76199929D02*
X130650128Y-76152310D01*
X130650128Y-76152310D02*
X130412033Y-76152310D01*
X130412033Y-76152310D02*
X130316795Y-76199929D01*
X130316795Y-76199929D02*
X130269176Y-76247548D01*
X130269176Y-76247548D02*
X130221557Y-76342786D01*
X130221557Y-76342786D02*
X130221557Y-76533262D01*
X130221557Y-76533262D02*
X130269176Y-76628500D01*
X130269176Y-76628500D02*
X130316795Y-76676119D01*
X130316795Y-76676119D02*
X130412033Y-76723738D01*
X133019119Y-65019034D02*
X132542929Y-65019034D01*
X132542929Y-65019034D02*
X132542929Y-64019034D01*
X133876262Y-65019034D02*
X133304834Y-65019034D01*
X133590548Y-65019034D02*
X133590548Y-64019034D01*
X133590548Y-64019034D02*
X133495310Y-64161891D01*
X133495310Y-64161891D02*
X133400072Y-64257129D01*
X133400072Y-64257129D02*
X133304834Y-64304748D01*
X138840605Y-47276119D02*
X138840605Y-46704691D01*
X139840605Y-46990405D02*
X138840605Y-46990405D01*
X139840605Y-46371357D02*
X138840605Y-46371357D01*
X138840605Y-46371357D02*
X138840605Y-45990405D01*
X138840605Y-45990405D02*
X138888224Y-45895167D01*
X138888224Y-45895167D02*
X138935843Y-45847548D01*
X138935843Y-45847548D02*
X139031081Y-45799929D01*
X139031081Y-45799929D02*
X139173938Y-45799929D01*
X139173938Y-45799929D02*
X139269176Y-45847548D01*
X139269176Y-45847548D02*
X139316795Y-45895167D01*
X139316795Y-45895167D02*
X139364414Y-45990405D01*
X139364414Y-45990405D02*
X139364414Y-46371357D01*
X139269176Y-45228500D02*
X139221557Y-45323738D01*
X139221557Y-45323738D02*
X139173938Y-45371357D01*
X139173938Y-45371357D02*
X139078700Y-45418976D01*
X139078700Y-45418976D02*
X139031081Y-45418976D01*
X139031081Y-45418976D02*
X138935843Y-45371357D01*
X138935843Y-45371357D02*
X138888224Y-45323738D01*
X138888224Y-45323738D02*
X138840605Y-45228500D01*
X138840605Y-45228500D02*
X138840605Y-45038024D01*
X138840605Y-45038024D02*
X138888224Y-44942786D01*
X138888224Y-44942786D02*
X138935843Y-44895167D01*
X138935843Y-44895167D02*
X139031081Y-44847548D01*
X139031081Y-44847548D02*
X139078700Y-44847548D01*
X139078700Y-44847548D02*
X139173938Y-44895167D01*
X139173938Y-44895167D02*
X139221557Y-44942786D01*
X139221557Y-44942786D02*
X139269176Y-45038024D01*
X139269176Y-45038024D02*
X139269176Y-45228500D01*
X139269176Y-45228500D02*
X139316795Y-45323738D01*
X139316795Y-45323738D02*
X139364414Y-45371357D01*
X139364414Y-45371357D02*
X139459652Y-45418976D01*
X139459652Y-45418976D02*
X139650128Y-45418976D01*
X139650128Y-45418976D02*
X139745366Y-45371357D01*
X139745366Y-45371357D02*
X139792986Y-45323738D01*
X139792986Y-45323738D02*
X139840605Y-45228500D01*
X139840605Y-45228500D02*
X139840605Y-45038024D01*
X139840605Y-45038024D02*
X139792986Y-44942786D01*
X139792986Y-44942786D02*
X139745366Y-44895167D01*
X139745366Y-44895167D02*
X139650128Y-44847548D01*
X139650128Y-44847548D02*
X139459652Y-44847548D01*
X139459652Y-44847548D02*
X139364414Y-44895167D01*
X139364414Y-44895167D02*
X139316795Y-44942786D01*
X139316795Y-44942786D02*
X139269176Y-45038024D01*
X155665605Y-83952309D02*
X154665605Y-83952309D01*
X154665605Y-83952309D02*
X154665605Y-83714214D01*
X154665605Y-83714214D02*
X154713224Y-83571357D01*
X154713224Y-83571357D02*
X154808462Y-83476119D01*
X154808462Y-83476119D02*
X154903700Y-83428500D01*
X154903700Y-83428500D02*
X155094176Y-83380881D01*
X155094176Y-83380881D02*
X155237033Y-83380881D01*
X155237033Y-83380881D02*
X155427509Y-83428500D01*
X155427509Y-83428500D02*
X155522747Y-83476119D01*
X155522747Y-83476119D02*
X155617986Y-83571357D01*
X155617986Y-83571357D02*
X155665605Y-83714214D01*
X155665605Y-83714214D02*
X155665605Y-83952309D01*
X155665605Y-82428500D02*
X155665605Y-82999928D01*
X155665605Y-82714214D02*
X154665605Y-82714214D01*
X154665605Y-82714214D02*
X154808462Y-82809452D01*
X154808462Y-82809452D02*
X154903700Y-82904690D01*
X154903700Y-82904690D02*
X154951319Y-82999928D01*
X119140605Y-67880881D02*
X118664414Y-68214214D01*
X119140605Y-68452309D02*
X118140605Y-68452309D01*
X118140605Y-68452309D02*
X118140605Y-68071357D01*
X118140605Y-68071357D02*
X118188224Y-67976119D01*
X118188224Y-67976119D02*
X118235843Y-67928500D01*
X118235843Y-67928500D02*
X118331081Y-67880881D01*
X118331081Y-67880881D02*
X118473938Y-67880881D01*
X118473938Y-67880881D02*
X118569176Y-67928500D01*
X118569176Y-67928500D02*
X118616795Y-67976119D01*
X118616795Y-67976119D02*
X118664414Y-68071357D01*
X118664414Y-68071357D02*
X118664414Y-68452309D01*
X119140605Y-66928500D02*
X119140605Y-67499928D01*
X119140605Y-67214214D02*
X118140605Y-67214214D01*
X118140605Y-67214214D02*
X118283462Y-67309452D01*
X118283462Y-67309452D02*
X118378700Y-67404690D01*
X118378700Y-67404690D02*
X118426319Y-67499928D01*
X108940605Y-41547548D02*
X109654890Y-41547548D01*
X109654890Y-41547548D02*
X109797747Y-41595167D01*
X109797747Y-41595167D02*
X109892986Y-41690405D01*
X109892986Y-41690405D02*
X109940605Y-41833262D01*
X109940605Y-41833262D02*
X109940605Y-41928500D01*
X109940605Y-41023738D02*
X109940605Y-40833262D01*
X109940605Y-40833262D02*
X109892986Y-40738024D01*
X109892986Y-40738024D02*
X109845366Y-40690405D01*
X109845366Y-40690405D02*
X109702509Y-40595167D01*
X109702509Y-40595167D02*
X109512033Y-40547548D01*
X109512033Y-40547548D02*
X109131081Y-40547548D01*
X109131081Y-40547548D02*
X109035843Y-40595167D01*
X109035843Y-40595167D02*
X108988224Y-40642786D01*
X108988224Y-40642786D02*
X108940605Y-40738024D01*
X108940605Y-40738024D02*
X108940605Y-40928500D01*
X108940605Y-40928500D02*
X108988224Y-41023738D01*
X108988224Y-41023738D02*
X109035843Y-41071357D01*
X109035843Y-41071357D02*
X109131081Y-41118976D01*
X109131081Y-41118976D02*
X109369176Y-41118976D01*
X109369176Y-41118976D02*
X109464414Y-41071357D01*
X109464414Y-41071357D02*
X109512033Y-41023738D01*
X109512033Y-41023738D02*
X109559652Y-40928500D01*
X109559652Y-40928500D02*
X109559652Y-40738024D01*
X109559652Y-40738024D02*
X109512033Y-40642786D01*
X109512033Y-40642786D02*
X109464414Y-40595167D01*
X109464414Y-40595167D02*
X109369176Y-40547548D01*
X112950486Y-43785643D02*
X112950486Y-42642786D01*
X113521914Y-43214214D02*
X112379057Y-43214214D01*
X112950486Y-30785643D02*
X112950486Y-29642786D01*
X119140605Y-70657072D02*
X118664414Y-70990405D01*
X119140605Y-71228500D02*
X118140605Y-71228500D01*
X118140605Y-71228500D02*
X118140605Y-70847548D01*
X118140605Y-70847548D02*
X118188224Y-70752310D01*
X118188224Y-70752310D02*
X118235843Y-70704691D01*
X118235843Y-70704691D02*
X118331081Y-70657072D01*
X118331081Y-70657072D02*
X118473938Y-70657072D01*
X118473938Y-70657072D02*
X118569176Y-70704691D01*
X118569176Y-70704691D02*
X118616795Y-70752310D01*
X118616795Y-70752310D02*
X118664414Y-70847548D01*
X118664414Y-70847548D02*
X118664414Y-71228500D01*
X119140605Y-69704691D02*
X119140605Y-70276119D01*
X119140605Y-69990405D02*
X118140605Y-69990405D01*
X118140605Y-69990405D02*
X118283462Y-70085643D01*
X118283462Y-70085643D02*
X118378700Y-70180881D01*
X118378700Y-70180881D02*
X118426319Y-70276119D01*
X118235843Y-69323738D02*
X118188224Y-69276119D01*
X118188224Y-69276119D02*
X118140605Y-69180881D01*
X118140605Y-69180881D02*
X118140605Y-68942786D01*
X118140605Y-68942786D02*
X118188224Y-68847548D01*
X118188224Y-68847548D02*
X118235843Y-68799929D01*
X118235843Y-68799929D02*
X118331081Y-68752310D01*
X118331081Y-68752310D02*
X118426319Y-68752310D01*
X118426319Y-68752310D02*
X118569176Y-68799929D01*
X118569176Y-68799929D02*
X119140605Y-69371357D01*
X119140605Y-69371357D02*
X119140605Y-68752310D01*
X89119119Y-44169034D02*
X88785786Y-43692843D01*
X88547691Y-44169034D02*
X88547691Y-43169034D01*
X88547691Y-43169034D02*
X88928643Y-43169034D01*
X88928643Y-43169034D02*
X89023881Y-43216653D01*
X89023881Y-43216653D02*
X89071500Y-43264272D01*
X89071500Y-43264272D02*
X89119119Y-43359510D01*
X89119119Y-43359510D02*
X89119119Y-43502367D01*
X89119119Y-43502367D02*
X89071500Y-43597605D01*
X89071500Y-43597605D02*
X89023881Y-43645224D01*
X89023881Y-43645224D02*
X88928643Y-43692843D01*
X88928643Y-43692843D02*
X88547691Y-43692843D01*
X89452453Y-43169034D02*
X90071500Y-43169034D01*
X90071500Y-43169034D02*
X89738167Y-43549986D01*
X89738167Y-43549986D02*
X89881024Y-43549986D01*
X89881024Y-43549986D02*
X89976262Y-43597605D01*
X89976262Y-43597605D02*
X90023881Y-43645224D01*
X90023881Y-43645224D02*
X90071500Y-43740462D01*
X90071500Y-43740462D02*
X90071500Y-43978557D01*
X90071500Y-43978557D02*
X90023881Y-44073795D01*
X90023881Y-44073795D02*
X89976262Y-44121415D01*
X89976262Y-44121415D02*
X89881024Y-44169034D01*
X89881024Y-44169034D02*
X89595310Y-44169034D01*
X89595310Y-44169034D02*
X89500072Y-44121415D01*
X89500072Y-44121415D02*
X89452453Y-44073795D01*
X94440605Y-41523738D02*
X95154890Y-41523738D01*
X95154890Y-41523738D02*
X95297747Y-41571357D01*
X95297747Y-41571357D02*
X95392986Y-41666595D01*
X95392986Y-41666595D02*
X95440605Y-41809452D01*
X95440605Y-41809452D02*
X95440605Y-41904690D01*
X95440605Y-40523738D02*
X95440605Y-41095166D01*
X95440605Y-40809452D02*
X94440605Y-40809452D01*
X94440605Y-40809452D02*
X94583462Y-40904690D01*
X94583462Y-40904690D02*
X94678700Y-40999928D01*
X94678700Y-40999928D02*
X94726319Y-41095166D01*
X95440605Y-39571357D02*
X95440605Y-40142785D01*
X95440605Y-39857071D02*
X94440605Y-39857071D01*
X94440605Y-39857071D02*
X94583462Y-39952309D01*
X94583462Y-39952309D02*
X94678700Y-40047547D01*
X94678700Y-40047547D02*
X94726319Y-40142785D01*
X98450486Y-43785643D02*
X98450486Y-42642786D01*
X99021914Y-43214214D02*
X97879057Y-43214214D01*
X98450486Y-30785643D02*
X98450486Y-29642786D01*
X94757691Y-45869034D02*
X94757691Y-44869034D01*
X94757691Y-44869034D02*
X94995786Y-44869034D01*
X94995786Y-44869034D02*
X95138643Y-44916653D01*
X95138643Y-44916653D02*
X95233881Y-45011891D01*
X95233881Y-45011891D02*
X95281500Y-45107129D01*
X95281500Y-45107129D02*
X95329119Y-45297605D01*
X95329119Y-45297605D02*
X95329119Y-45440462D01*
X95329119Y-45440462D02*
X95281500Y-45630938D01*
X95281500Y-45630938D02*
X95233881Y-45726176D01*
X95233881Y-45726176D02*
X95138643Y-45821415D01*
X95138643Y-45821415D02*
X94995786Y-45869034D01*
X94995786Y-45869034D02*
X94757691Y-45869034D01*
X96186262Y-45202367D02*
X96186262Y-45869034D01*
X95948167Y-44821415D02*
X95710072Y-45535700D01*
X95710072Y-45535700D02*
X96329119Y-45535700D01*
D11*
%TO.C,C7*%
X83824534Y-51479215D02*
X84347038Y-51479215D01*
X83824534Y-52949215D02*
X84347038Y-52949215D01*
%TO.C,TP1*%
X74235786Y-30214215D02*
G75*
G02*
X71835786Y-30214215I-1200000J0D01*
G01*
X71835786Y-30214215D02*
G75*
G02*
X74235786Y-30214215I1200000J0D01*
G01*
%TO.C,C24*%
X138350786Y-69352963D02*
X138350786Y-69875467D01*
X139820786Y-69352963D02*
X139820786Y-69875467D01*
%TO.C,C14*%
X76350786Y-47875467D02*
X76350786Y-47352963D01*
X77820786Y-47875467D02*
X77820786Y-47352963D01*
%TO.C,J14*%
X105975786Y-49724215D02*
X105975786Y-50974215D01*
X105975786Y-50974215D02*
X107225786Y-50974215D01*
X106075786Y-48914215D02*
X106075786Y-49214215D01*
X106075786Y-49214215D02*
X106275786Y-49214215D01*
X106175786Y-48914215D02*
X106175786Y-49214215D01*
X106275786Y-44554215D02*
X106275786Y-50674215D01*
X106275786Y-48114215D02*
X106885786Y-48114215D01*
X106275786Y-48914215D02*
X106075786Y-48914215D01*
X106275786Y-50674215D02*
X110995786Y-50674215D01*
X106885786Y-45164215D02*
X106885786Y-47114215D01*
X106885786Y-47114215D02*
X106275786Y-47114215D01*
X106885786Y-48114215D02*
X106885786Y-50064215D01*
X106885786Y-50064215D02*
X110385786Y-50064215D01*
X107585786Y-44554215D02*
X107585786Y-45164215D01*
X107585786Y-50674215D02*
X107585786Y-50064215D01*
X108885786Y-44554215D02*
X108885786Y-45164215D01*
X108885786Y-50674215D02*
X108885786Y-50064215D01*
X109885786Y-47514215D02*
X110385786Y-47514215D01*
X109885786Y-47714215D02*
X109885786Y-47514215D01*
X110385786Y-45164215D02*
X106885786Y-45164215D01*
X110385786Y-47614215D02*
X109885786Y-47614215D01*
X110385786Y-47714215D02*
X109885786Y-47714215D01*
X110385786Y-50064215D02*
X110385786Y-45164215D01*
X110995786Y-44554215D02*
X106275786Y-44554215D01*
X110995786Y-50674215D02*
X110995786Y-44554215D01*
%TO.C,Q2*%
X120815786Y-53844215D02*
X120815786Y-54114215D01*
X120815786Y-60744215D02*
X120815786Y-60474215D01*
X127235786Y-53844215D02*
X120815786Y-53844215D01*
X127235786Y-60744215D02*
X120815786Y-60744215D01*
X119085786Y-54154215D02*
X118745786Y-53684215D01*
X119425786Y-53684215D01*
X119085786Y-54154215D01*
G36*
X119085786Y-54154215D02*
G01*
X118745786Y-53684215D01*
X119425786Y-53684215D01*
X119085786Y-54154215D01*
G37*
%TO.C,J20*%
X125575786Y-80904215D02*
X126625786Y-80904215D01*
X125575786Y-82054215D02*
X125575786Y-80904215D01*
X130625786Y-84024215D02*
X126745786Y-84024215D01*
X130745786Y-80904215D02*
X130745786Y-79914215D01*
X131795786Y-80904215D02*
X130745786Y-80904215D01*
X131795786Y-82054215D02*
X131795786Y-80904215D01*
%TO.C,TP9*%
X140585786Y-64864215D02*
G75*
G02*
X138185786Y-64864215I-1200000J0D01*
G01*
X138185786Y-64864215D02*
G75*
G02*
X140585786Y-64864215I1200000J0D01*
G01*
%TO.C,TP7*%
X138285786Y-49314215D02*
G75*
G02*
X135885786Y-49314215I-1200000J0D01*
G01*
X135885786Y-49314215D02*
G75*
G02*
X138285786Y-49314215I1200000J0D01*
G01*
%TO.C,TP6*%
X77085786Y-39514215D02*
G75*
G02*
X74685786Y-39514215I-1200000J0D01*
G01*
X74685786Y-39514215D02*
G75*
G02*
X77085786Y-39514215I1200000J0D01*
G01*
%TO.C,J1*%
X52025786Y-28954215D02*
X66335786Y-28954215D01*
X52025786Y-44674215D02*
X52025786Y-28954215D01*
X52025786Y-44674215D02*
X66335786Y-44674215D01*
X70445786Y-38104215D02*
X70445786Y-34364215D01*
X66335786Y-28954215D02*
G75*
G02*
X70266199Y-31862567I0J-4110000D01*
G01*
X69858744Y-42681021D02*
G75*
G02*
X66335786Y-44674215I-3522957J2116805D01*
G01*
D12*
%TO.C,G\u002A\u002A\u002A*%
G36*
X60423911Y-54868886D02*
G01*
X60484407Y-54899137D01*
X60520173Y-54977068D01*
X60525916Y-55086149D01*
X60503661Y-55193672D01*
X60461946Y-55261561D01*
X60366883Y-55308510D01*
X60248187Y-55318501D01*
X60138121Y-55292067D01*
X60086259Y-55255354D01*
X60035106Y-55155524D01*
X60031364Y-55041952D01*
X60073330Y-54943482D01*
X60106533Y-54911880D01*
X60200989Y-54872473D01*
X60317026Y-54857797D01*
X60423911Y-54868886D01*
G37*
G36*
X68986283Y-54172731D02*
G01*
X69059143Y-54251659D01*
X69098886Y-54357682D01*
X69098486Y-54469918D01*
X69050911Y-54567486D01*
X69035786Y-54582799D01*
X68951634Y-54624627D01*
X68840993Y-54640480D01*
X68736517Y-54628868D01*
X68679569Y-54599053D01*
X68634942Y-54509556D01*
X68639017Y-54398953D01*
X68682454Y-54287803D01*
X68755910Y-54196664D01*
X68850044Y-54146096D01*
X68887337Y-54141781D01*
X68986283Y-54172731D01*
G37*
G36*
X66211551Y-56291056D02*
G01*
X66279187Y-56321366D01*
X66307641Y-56399030D01*
X66308543Y-56406354D01*
X66305876Y-56468170D01*
X66276670Y-56532902D01*
X66211511Y-56615584D01*
X66112060Y-56720081D01*
X65980537Y-56841461D01*
X65832887Y-56960369D01*
X65700255Y-57051789D01*
X65695813Y-57054453D01*
X65487838Y-57178350D01*
X64909878Y-57174426D01*
X64568396Y-57166314D01*
X64284978Y-57146432D01*
X64047063Y-57113825D01*
X64003440Y-57105615D01*
X63739963Y-57045418D01*
X63500118Y-56974990D01*
X63298611Y-56899342D01*
X63150149Y-56823484D01*
X63124612Y-56806216D01*
X63049892Y-56725087D01*
X63030043Y-56642191D01*
X63063631Y-56575089D01*
X63146244Y-56541661D01*
X63235288Y-56545159D01*
X63290387Y-56566450D01*
X63367750Y-56610016D01*
X63499330Y-56662724D01*
X63669307Y-56719580D01*
X63861863Y-56775593D01*
X64061177Y-56825768D01*
X64215895Y-56858548D01*
X64482489Y-56898277D01*
X64768245Y-56922773D01*
X64953072Y-56928279D01*
X65123323Y-56926983D01*
X65241972Y-56920452D01*
X65328857Y-56904724D01*
X65403815Y-56875838D01*
X65486680Y-56829832D01*
X65506870Y-56817669D01*
X65622892Y-56737078D01*
X65760456Y-56626554D01*
X65892195Y-56508249D01*
X65907895Y-56493033D01*
X66029408Y-56380326D01*
X66117496Y-56315476D01*
X66183693Y-56290809D01*
X66211551Y-56291056D01*
G37*
G36*
X64553271Y-48380619D02*
G01*
X64724886Y-48406045D01*
X64915655Y-48440786D01*
X65123946Y-48477794D01*
X65308959Y-48509833D01*
X65332199Y-48513766D01*
X65625816Y-48563711D01*
X65860504Y-48604920D01*
X66047915Y-48639765D01*
X66199700Y-48670618D01*
X66327510Y-48699852D01*
X66442996Y-48729838D01*
X66557810Y-48762949D01*
X66561388Y-48764022D01*
X67014047Y-48918741D01*
X67464548Y-49108210D01*
X67896556Y-49324103D01*
X68293737Y-49558092D01*
X68639756Y-49801851D01*
X68713901Y-49861316D01*
X68863119Y-49981795D01*
X69022324Y-50106175D01*
X69164003Y-50213076D01*
X69203690Y-50241927D01*
X69384887Y-50386650D01*
X69552742Y-50554866D01*
X69718212Y-50759366D01*
X69892252Y-51012941D01*
X69970674Y-51137370D01*
X70045832Y-51251041D01*
X70121809Y-51353679D01*
X70153137Y-51391008D01*
X70205860Y-51465020D01*
X70277956Y-51588054D01*
X70363274Y-51747218D01*
X70455664Y-51929619D01*
X70548974Y-52122365D01*
X70637055Y-52312563D01*
X70713756Y-52487321D01*
X70772927Y-52633746D01*
X70808416Y-52738945D01*
X70815884Y-52780224D01*
X70829854Y-52831559D01*
X70865936Y-52924341D01*
X70901997Y-53006743D01*
X70973483Y-53172147D01*
X71053377Y-53371377D01*
X71133422Y-53582381D01*
X71205367Y-53783108D01*
X71260957Y-53951508D01*
X71280054Y-54016746D01*
X71311056Y-54113396D01*
X71356960Y-54238330D01*
X71382467Y-54302541D01*
X71422938Y-54423935D01*
X71471254Y-54607025D01*
X71525384Y-54842743D01*
X71583300Y-55122021D01*
X71642972Y-55435790D01*
X71670347Y-55588617D01*
X71682701Y-55685353D01*
X71696912Y-55840416D01*
X71712039Y-56040737D01*
X71727140Y-56273251D01*
X71741274Y-56524889D01*
X71748834Y-56678209D01*
X71760995Y-56921351D01*
X71773533Y-57140526D01*
X71785745Y-57325720D01*
X71796931Y-57466920D01*
X71806389Y-57554112D01*
X71811836Y-57577946D01*
X71863208Y-57587545D01*
X71963131Y-57571442D01*
X72095385Y-57534099D01*
X72243752Y-57479981D01*
X72369893Y-57424377D01*
X72487814Y-57371246D01*
X72585235Y-57333816D01*
X72637825Y-57320686D01*
X72719852Y-57305194D01*
X72747188Y-57255506D01*
X72722695Y-57163509D01*
X72706037Y-57127207D01*
X72649970Y-56983292D01*
X72642689Y-56884238D01*
X72672506Y-56839614D01*
X72676449Y-56797877D01*
X72655576Y-56701620D01*
X72612717Y-56562204D01*
X72580827Y-56471331D01*
X72502359Y-56252149D01*
X72422451Y-56022269D01*
X72345495Y-55794998D01*
X72275884Y-55583641D01*
X72218009Y-55401506D01*
X72176264Y-55261898D01*
X72156689Y-55186359D01*
X72123424Y-55069409D01*
X72085133Y-54972013D01*
X72020569Y-54829416D01*
X71937575Y-54635273D01*
X71842338Y-54405110D01*
X71741048Y-54154454D01*
X71639893Y-53898833D01*
X71545061Y-53653772D01*
X71462740Y-53434799D01*
X71399120Y-53257440D01*
X71384034Y-53212949D01*
X71327803Y-53055980D01*
X71297918Y-52980641D01*
X71601819Y-52980641D01*
X71624425Y-53040607D01*
X71637544Y-53052189D01*
X71667740Y-53102666D01*
X71673268Y-53142351D01*
X71686964Y-53203763D01*
X71725829Y-53322059D01*
X71786530Y-53488608D01*
X71865734Y-53694778D01*
X71960108Y-53931936D01*
X72066318Y-54191450D01*
X72181032Y-54464688D01*
X72210913Y-54534749D01*
X72281428Y-54704894D01*
X72342797Y-54862871D01*
X72388351Y-54990859D01*
X72411231Y-55070054D01*
X72439064Y-55178661D01*
X72481634Y-55311948D01*
X72504033Y-55373711D01*
X72554771Y-55515446D01*
X72602588Y-55662547D01*
X72617702Y-55713652D01*
X72649824Y-55816767D01*
X72699329Y-55963465D01*
X72758264Y-56130523D01*
X72795132Y-56231655D01*
X72850983Y-56383143D01*
X72898155Y-56511785D01*
X72930758Y-56601478D01*
X72942051Y-56633337D01*
X72967977Y-56659344D01*
X73028539Y-56646725D01*
X73056381Y-56635482D01*
X73139140Y-56595751D01*
X73189706Y-56564311D01*
X73206125Y-56518465D01*
X73223456Y-56417769D01*
X73239262Y-56278747D01*
X73247999Y-56169198D01*
X73257183Y-55982672D01*
X73254849Y-55828242D01*
X73238654Y-55676306D01*
X73206256Y-55497261D01*
X73187929Y-55409995D01*
X73100770Y-55026067D01*
X73016019Y-54695185D01*
X72935234Y-54422934D01*
X72859975Y-54214902D01*
X72843959Y-54177506D01*
X72763662Y-54026271D01*
X72648720Y-53847399D01*
X72512705Y-53658764D01*
X72369194Y-53478242D01*
X72231760Y-53323707D01*
X72113979Y-53213033D01*
X72107796Y-53208149D01*
X71984591Y-53121068D01*
X71859352Y-53047284D01*
X71745717Y-52992926D01*
X71657318Y-52964127D01*
X71607793Y-52967017D01*
X71601819Y-52980641D01*
X71297918Y-52980641D01*
X71263125Y-52892929D01*
X71219518Y-52793150D01*
X71173536Y-52679866D01*
X71146857Y-52585115D01*
X71144019Y-52543080D01*
X71186114Y-52489791D01*
X71274828Y-52469546D01*
X71393529Y-52482161D01*
X71525586Y-52527448D01*
X71566095Y-52547798D01*
X71688876Y-52613793D01*
X71836528Y-52692053D01*
X71936720Y-52744570D01*
X72061452Y-52815617D01*
X72194595Y-52901189D01*
X72322116Y-52990966D01*
X72429982Y-53074623D01*
X72504160Y-53141837D01*
X72530652Y-53181466D01*
X72552295Y-53224589D01*
X72607430Y-53299544D01*
X72646756Y-53346812D01*
X72722825Y-53438268D01*
X72782250Y-53516045D01*
X72798585Y-53540470D01*
X72836894Y-53600759D01*
X72900428Y-53697347D01*
X72962801Y-53790541D01*
X73029585Y-53893990D01*
X73082664Y-53990470D01*
X73128533Y-54096297D01*
X73173687Y-54227788D01*
X73224621Y-54401259D01*
X73266166Y-54552611D01*
X73375898Y-54976373D01*
X73459623Y-55343264D01*
X73518641Y-55662436D01*
X73554251Y-55943045D01*
X73567754Y-56194243D01*
X73560448Y-56425184D01*
X73548637Y-56542071D01*
X73539715Y-56687226D01*
X73559439Y-56805271D01*
X73594200Y-56895933D01*
X73639778Y-57011118D01*
X73692336Y-57162875D01*
X73740623Y-57318695D01*
X73741359Y-57321247D01*
X73788478Y-57484887D01*
X73837045Y-57653211D01*
X73875355Y-57785663D01*
X73925560Y-57930447D01*
X73988569Y-58075641D01*
X74019510Y-58134983D01*
X74081806Y-58280689D01*
X74099540Y-58411308D01*
X74073466Y-58513104D01*
X74004336Y-58572337D01*
X73995350Y-58575313D01*
X73785488Y-58636955D01*
X73633292Y-58680353D01*
X73527856Y-58707333D01*
X73458272Y-58719722D01*
X73413634Y-58719346D01*
X73383037Y-58708032D01*
X73355573Y-58687605D01*
X73350377Y-58683312D01*
X73305395Y-58615958D01*
X73250231Y-58481113D01*
X73186046Y-58281827D01*
X73151430Y-58160769D01*
X73102473Y-57984032D01*
X73059262Y-57828421D01*
X73025942Y-57708843D01*
X73006662Y-57640205D01*
X73004836Y-57633835D01*
X72956726Y-57583874D01*
X72859433Y-57573516D01*
X72722671Y-57601918D01*
X72556155Y-57668236D01*
X72544601Y-57673805D01*
X72342093Y-57759233D01*
X72139326Y-57821722D01*
X71961194Y-57854151D01*
X71903842Y-57857112D01*
X71829326Y-57872958D01*
X71796705Y-57901982D01*
X71793989Y-57946991D01*
X71794038Y-58053562D01*
X71796535Y-58211875D01*
X71801161Y-58412109D01*
X71807600Y-58644443D01*
X71815535Y-58899058D01*
X71824648Y-59166132D01*
X71834621Y-59435846D01*
X71845138Y-59698380D01*
X71855881Y-59943912D01*
X71866532Y-60162622D01*
X71874333Y-60304229D01*
X71876826Y-60558251D01*
X71856008Y-60798045D01*
X71814442Y-61004498D01*
X71761387Y-61146055D01*
X71725300Y-61197292D01*
X71665912Y-61248353D01*
X71574509Y-61303892D01*
X71442374Y-61368558D01*
X71260793Y-61447003D01*
X71021050Y-61543879D01*
X71001382Y-61551661D01*
X70826329Y-61624323D01*
X70660047Y-61699457D01*
X70522891Y-61767519D01*
X70443722Y-61813140D01*
X70379018Y-61854490D01*
X70316476Y-61888963D01*
X70244410Y-61920658D01*
X70151132Y-61953675D01*
X70024956Y-61992111D01*
X69854194Y-62040065D01*
X69627160Y-62101637D01*
X69601257Y-62108609D01*
X69349504Y-62176516D01*
X69158557Y-62229205D01*
X69020236Y-62270047D01*
X68926360Y-62302417D01*
X68868748Y-62329685D01*
X68839219Y-62355227D01*
X68829593Y-62382414D01*
X68831689Y-62414619D01*
X68833298Y-62425232D01*
X68843820Y-62509437D01*
X68856922Y-62635892D01*
X68868427Y-62761940D01*
X68888819Y-62930529D01*
X68919642Y-63109722D01*
X68943811Y-63218296D01*
X68971724Y-63350062D01*
X68986910Y-63468272D01*
X68987301Y-63529221D01*
X68967071Y-63599443D01*
X68912975Y-63624587D01*
X68869446Y-63626592D01*
X68811429Y-63621959D01*
X68772912Y-63597784D01*
X68742634Y-63538653D01*
X68709338Y-63429151D01*
X68699842Y-63394383D01*
X68667606Y-63250437D01*
X68636042Y-63067183D01*
X68610428Y-62876614D01*
X68603485Y-62810331D01*
X68588009Y-62659922D01*
X68573258Y-62538582D01*
X68561299Y-62462281D01*
X68556086Y-62444478D01*
X68516773Y-62444989D01*
X68429958Y-62460965D01*
X68348249Y-62480427D01*
X68202991Y-62514130D01*
X68045596Y-62542513D01*
X67868320Y-62566117D01*
X67663422Y-62585478D01*
X67423158Y-62601136D01*
X67139785Y-62613629D01*
X66805562Y-62623495D01*
X66412744Y-62631273D01*
X66118134Y-62635518D01*
X65478220Y-62640282D01*
X64890512Y-62636964D01*
X64336154Y-62624935D01*
X63796293Y-62603563D01*
X63252075Y-62572217D01*
X62684646Y-62530268D01*
X62492115Y-62514248D01*
X62273158Y-62495879D01*
X62070679Y-62479439D01*
X61898702Y-62466025D01*
X61771251Y-62456733D01*
X61706179Y-62452800D01*
X61581144Y-62447689D01*
X61573950Y-63015782D01*
X61570374Y-63212783D01*
X61565193Y-63386388D01*
X61558964Y-63523210D01*
X61552244Y-63609862D01*
X61548278Y-63632027D01*
X61501532Y-63669297D01*
X61423897Y-63678453D01*
X61350403Y-63658950D01*
X61324251Y-63635523D01*
X61314693Y-63586421D01*
X61306469Y-63478637D01*
X61300145Y-63324936D01*
X61296286Y-63138081D01*
X61295350Y-62983554D01*
X61295350Y-62376240D01*
X61170315Y-62351134D01*
X60858399Y-62288375D01*
X60609126Y-62237882D01*
X60415041Y-62198083D01*
X60268690Y-62167405D01*
X60162621Y-62144276D01*
X60089379Y-62127124D01*
X60041510Y-62114375D01*
X60027136Y-62109941D01*
X59726296Y-62026862D01*
X59419822Y-61963319D01*
X59076515Y-61889834D01*
X58776478Y-61799752D01*
X58562438Y-61716172D01*
X58417823Y-61654395D01*
X58274855Y-61593813D01*
X58179461Y-61553793D01*
X58033329Y-61476972D01*
X57945361Y-61385099D01*
X57902282Y-61261955D01*
X57895174Y-61206489D01*
X57879569Y-61079425D01*
X57855289Y-60928921D01*
X57841829Y-60857956D01*
X57823559Y-60718450D01*
X57811435Y-60516929D01*
X57806249Y-60297567D01*
X58067793Y-60297567D01*
X58074433Y-60514197D01*
X58088363Y-60682973D01*
X58096764Y-60743587D01*
X58129903Y-60939494D01*
X58160087Y-61077506D01*
X58193367Y-61170605D01*
X58235794Y-61231775D01*
X58293421Y-61273998D01*
X58358175Y-61304394D01*
X58479337Y-61356331D01*
X58624120Y-61419823D01*
X58705336Y-61456045D01*
X59038347Y-61582495D01*
X59409680Y-61682636D01*
X59562720Y-61713370D01*
X59911786Y-61787074D01*
X60170033Y-61859931D01*
X60251211Y-61881410D01*
X60388527Y-61912408D01*
X60567748Y-61950096D01*
X60774638Y-61991641D01*
X60994963Y-62034214D01*
X61214488Y-62074984D01*
X61418980Y-62111121D01*
X61509696Y-62126330D01*
X61686958Y-62155512D01*
X61861284Y-62184431D01*
X62005368Y-62208549D01*
X62055318Y-62217011D01*
X62154923Y-62230081D01*
X62309181Y-62245558D01*
X62501400Y-62261980D01*
X62714889Y-62277887D01*
X62859115Y-62287379D01*
X63105917Y-62302913D01*
X63369705Y-62319855D01*
X63624666Y-62336525D01*
X63844983Y-62351244D01*
X63921088Y-62356449D01*
X64078121Y-62364249D01*
X64289900Y-62370235D01*
X64546899Y-62374483D01*
X64839591Y-62377071D01*
X65158448Y-62378077D01*
X65493944Y-62377577D01*
X65836551Y-62375649D01*
X66176742Y-62372371D01*
X66504990Y-62367819D01*
X66811768Y-62362071D01*
X67087549Y-62355205D01*
X67322806Y-62347297D01*
X67508011Y-62338425D01*
X67633639Y-62328666D01*
X67654281Y-62326144D01*
X67884964Y-62289322D01*
X68121441Y-62242765D01*
X68342680Y-62191232D01*
X68527650Y-62139484D01*
X68618838Y-62107841D01*
X68709972Y-62073752D01*
X68813292Y-62039062D01*
X68942325Y-61999676D01*
X69110598Y-61951500D01*
X69331640Y-61890438D01*
X69386911Y-61875355D01*
X69696204Y-61787791D01*
X69940858Y-61710939D01*
X70126537Y-61642770D01*
X70258907Y-61581254D01*
X70325619Y-61539011D01*
X70359689Y-61515874D01*
X70408212Y-61488741D01*
X70479286Y-61453987D01*
X70581010Y-61407988D01*
X70721482Y-61347120D01*
X70908799Y-61267757D01*
X71151060Y-61166276D01*
X71258667Y-61121386D01*
X71382195Y-61064526D01*
X71479145Y-61009962D01*
X71530480Y-60968551D01*
X71532596Y-60965129D01*
X71562796Y-60874774D01*
X71590560Y-60738179D01*
X71612640Y-60580548D01*
X71625788Y-60427085D01*
X71626759Y-60302995D01*
X71622727Y-60265538D01*
X71615957Y-60196641D01*
X71607871Y-60065914D01*
X71598880Y-59882953D01*
X71589398Y-59657356D01*
X71579840Y-59398720D01*
X71570619Y-59116643D01*
X71565103Y-58928842D01*
X71547518Y-58332917D01*
X71529782Y-57791587D01*
X71512000Y-57307074D01*
X71494274Y-56881601D01*
X71476709Y-56517390D01*
X71459409Y-56216663D01*
X71442476Y-55981643D01*
X71426016Y-55814551D01*
X71416680Y-55749376D01*
X71347605Y-55384698D01*
X71267108Y-55014692D01*
X71179670Y-54657425D01*
X71089771Y-54330963D01*
X71001891Y-54053374D01*
X70982631Y-53998884D01*
X70874824Y-53702085D01*
X70787704Y-53464615D01*
X70718234Y-53278407D01*
X70663377Y-53135397D01*
X70620097Y-53027517D01*
X70592557Y-52962879D01*
X70556383Y-52878206D01*
X70501639Y-52747005D01*
X70436511Y-52588998D01*
X70384950Y-52462738D01*
X70268386Y-52183900D01*
X70167998Y-51962347D01*
X70078292Y-51787282D01*
X69993771Y-51647909D01*
X69916856Y-51543150D01*
X69822617Y-51419499D01*
X69728044Y-51285079D01*
X69699381Y-51241439D01*
X69564312Y-51033741D01*
X69453881Y-50875268D01*
X69357220Y-50753244D01*
X69263463Y-50654894D01*
X69161744Y-50567439D01*
X69063871Y-50494251D01*
X68932949Y-50397102D01*
X68775345Y-50275334D01*
X68618866Y-50150546D01*
X68571004Y-50111387D01*
X68375773Y-49958793D01*
X68173100Y-49819247D01*
X67946068Y-49682232D01*
X67677756Y-49537231D01*
X67511383Y-49452723D01*
X67240833Y-49322560D01*
X66986073Y-49211988D01*
X66734271Y-49117236D01*
X66472595Y-49034536D01*
X66188211Y-48960117D01*
X65868287Y-48890208D01*
X65499990Y-48821040D01*
X65171440Y-48765270D01*
X64983170Y-48733639D01*
X64767685Y-48696329D01*
X64567997Y-48660800D01*
X64546264Y-48656851D01*
X64246612Y-48625363D01*
X63907604Y-48628721D01*
X63550856Y-48664521D01*
X63197983Y-48730362D01*
X62870600Y-48823841D01*
X62794459Y-48851558D01*
X62663643Y-48900862D01*
X62537231Y-48947347D01*
X62492115Y-48963501D01*
X62292805Y-49038238D01*
X62141285Y-49107169D01*
X62015887Y-49181243D01*
X61916047Y-49254531D01*
X61801360Y-49337386D01*
X61687326Y-49407596D01*
X61629198Y-49436578D01*
X61549328Y-49484233D01*
X61434632Y-49570527D01*
X61299810Y-49682603D01*
X61159563Y-49807602D01*
X61028592Y-49932666D01*
X60921596Y-50044938D01*
X60886590Y-50086118D01*
X60824168Y-50158767D01*
X60727756Y-50265582D01*
X60613021Y-50389357D01*
X60544216Y-50462175D01*
X60414307Y-50609258D01*
X60285357Y-50773142D01*
X60178428Y-50926452D01*
X60145680Y-50980178D01*
X60006536Y-51231758D01*
X59859799Y-51512727D01*
X59712838Y-51807650D01*
X59573024Y-52101093D01*
X59447726Y-52377623D01*
X59344313Y-52621805D01*
X59275709Y-52802119D01*
X59125538Y-53234623D01*
X59000357Y-53600395D01*
X58900180Y-53899390D01*
X58825022Y-54131564D01*
X58774899Y-54296871D01*
X58773287Y-54302541D01*
X58735171Y-54435727D01*
X58683524Y-54614226D01*
X58625086Y-54814838D01*
X58566592Y-55014363D01*
X58565808Y-55017028D01*
X58442725Y-55453468D01*
X58331504Y-55889175D01*
X58223117Y-56359564D01*
X58219822Y-56374552D01*
X58199887Y-56497751D01*
X58181828Y-56678739D01*
X58165448Y-56920620D01*
X58150552Y-57226497D01*
X58136942Y-57599474D01*
X58131825Y-57767801D01*
X58122325Y-58095551D01*
X58112205Y-58443757D01*
X58101995Y-58794248D01*
X58092223Y-59128853D01*
X58083421Y-59429399D01*
X58076119Y-59677717D01*
X58075765Y-59689719D01*
X58068289Y-60025326D01*
X58067793Y-60297567D01*
X57806249Y-60297567D01*
X57805421Y-60262560D01*
X57805481Y-59964507D01*
X57811578Y-59631938D01*
X57823676Y-59274017D01*
X57841741Y-58899911D01*
X57850100Y-58756419D01*
X57862849Y-58531415D01*
X57872314Y-58331134D01*
X57878141Y-58166321D01*
X57879978Y-58047719D01*
X57877472Y-57986071D01*
X57875607Y-57980032D01*
X57838735Y-57988784D01*
X57764138Y-58032526D01*
X57687966Y-58086877D01*
X57588865Y-58156043D01*
X57506275Y-58202339D01*
X57468262Y-58214355D01*
X57409111Y-58231757D01*
X57302504Y-58279313D01*
X57162033Y-58350051D01*
X57001287Y-58436998D01*
X56833857Y-58533182D01*
X56758360Y-58578593D01*
X56564270Y-58684618D01*
X56408835Y-58743069D01*
X56295379Y-58753778D01*
X56227224Y-58716575D01*
X56207690Y-58631290D01*
X56210171Y-58606594D01*
X56233016Y-58553020D01*
X56293219Y-58496332D01*
X56401915Y-58427554D01*
X56495724Y-58376387D01*
X56626102Y-58306267D01*
X56735388Y-58245071D01*
X56805495Y-58203009D01*
X56817243Y-58194843D01*
X56909232Y-58136054D01*
X57037479Y-58068508D01*
X57174154Y-58005485D01*
X57291429Y-57960262D01*
X57333179Y-57948667D01*
X57420873Y-57909633D01*
X57524617Y-57835146D01*
X57583249Y-57780714D01*
X57676068Y-57693642D01*
X57762826Y-57627035D01*
X57803296Y-57604563D01*
X57840282Y-57585507D01*
X57863786Y-57553770D01*
X57876861Y-57494935D01*
X57882565Y-57394580D01*
X57883954Y-57238286D01*
X57883969Y-57223889D01*
X57888792Y-57011259D01*
X57901732Y-56782740D01*
X57920998Y-56557384D01*
X57944797Y-56354242D01*
X57971337Y-56192366D01*
X57987397Y-56124482D01*
X58008374Y-56043891D01*
X58039793Y-55914584D01*
X58076604Y-55757592D01*
X58098905Y-55660066D01*
X58147275Y-55459401D01*
X58205148Y-55238376D01*
X58262216Y-55035919D01*
X58278657Y-54981303D01*
X58367772Y-54688788D01*
X58435725Y-54459234D01*
X58483864Y-54287792D01*
X58513535Y-54169614D01*
X58526084Y-54099849D01*
X58526714Y-54088161D01*
X58543525Y-54013891D01*
X58579525Y-53932947D01*
X58609863Y-53864089D01*
X58655418Y-53742932D01*
X58710448Y-53585487D01*
X58769212Y-53407761D01*
X58780107Y-53373708D01*
X58836328Y-53200718D01*
X58887031Y-53051500D01*
X58927405Y-52939741D01*
X58952637Y-52879123D01*
X58956012Y-52873568D01*
X58981620Y-52819375D01*
X59013493Y-52724202D01*
X59026753Y-52677084D01*
X59059991Y-52577419D01*
X59118008Y-52429137D01*
X59194062Y-52247742D01*
X59281414Y-52048737D01*
X59373323Y-51847627D01*
X59463050Y-51659916D01*
X59508198Y-51569630D01*
X59679125Y-51241097D01*
X59827516Y-50971011D01*
X59958141Y-50751797D01*
X60075774Y-50575877D01*
X60185186Y-50435675D01*
X60291149Y-50323614D01*
X60295736Y-50319278D01*
X60387007Y-50227157D01*
X60498863Y-50105533D01*
X60607185Y-49980637D01*
X60607804Y-49979897D01*
X60735116Y-49837237D01*
X60885145Y-49684172D01*
X61045005Y-49532341D01*
X61201813Y-49393384D01*
X61342684Y-49278942D01*
X61454733Y-49200655D01*
X61493377Y-49179841D01*
X61601095Y-49121043D01*
X61721057Y-49041570D01*
X61761309Y-49011304D01*
X62011340Y-48846302D01*
X62287649Y-48730647D01*
X62290361Y-48729771D01*
X62411647Y-48688845D01*
X62557149Y-48637249D01*
X62635012Y-48608647D01*
X62988806Y-48499981D01*
X63378875Y-48420775D01*
X63783873Y-48373100D01*
X64182454Y-48359025D01*
X64553271Y-48380619D01*
G37*
D11*
%TO.C,C4*%
X127124534Y-71079215D02*
X127647038Y-71079215D01*
X127124534Y-72549215D02*
X127647038Y-72549215D01*
%TO.C,R4*%
X157483722Y-80279215D02*
X157937850Y-80279215D01*
X157483722Y-81749215D02*
X157937850Y-81749215D01*
%TO.C,J23*%
X62125786Y-76094215D02*
X113145786Y-76094215D01*
X62125786Y-78744215D02*
X62125786Y-76094215D01*
X62125786Y-81394215D02*
X62125786Y-80014215D01*
X63505786Y-81394215D02*
X62125786Y-81394215D01*
X64775786Y-78744215D02*
X62125786Y-78744215D01*
X64775786Y-81394215D02*
X64775786Y-78744215D01*
X64775786Y-81394215D02*
X113145786Y-81394215D01*
X113145786Y-81394215D02*
X113145786Y-76094215D01*
%TO.C,R16*%
X139550786Y-74287151D02*
X139550786Y-74741279D01*
X141020786Y-74287151D02*
X141020786Y-74741279D01*
%TO.C,U1*%
X125038286Y-67204215D02*
X126858286Y-67204215D01*
X125038286Y-67254215D02*
X125038286Y-67204215D01*
X125038286Y-70324215D02*
X125038286Y-70274215D01*
X126858286Y-67204215D02*
X126858286Y-67254215D01*
X126858286Y-70274215D02*
X126858286Y-70324215D01*
X126858286Y-70324215D02*
X125038286Y-70324215D01*
X127638286Y-70604215D02*
X127158286Y-70604215D01*
X127398286Y-70274215D01*
X127638286Y-70604215D01*
G36*
X127638286Y-70604215D02*
G01*
X127158286Y-70604215D01*
X127398286Y-70274215D01*
X127638286Y-70604215D01*
G37*
%TO.C,TP5*%
X80385786Y-39614215D02*
G75*
G02*
X77985786Y-39614215I-1200000J0D01*
G01*
X77985786Y-39614215D02*
G75*
G02*
X80385786Y-39614215I1200000J0D01*
G01*
%TO.C,J7*%
X124625786Y-33204215D02*
X124625786Y-41924215D01*
X125925786Y-31504215D02*
X124625786Y-33204215D01*
X128745786Y-31504215D02*
X125925786Y-31504215D01*
X128745786Y-31504215D02*
X130045786Y-33204215D01*
X130045786Y-33204215D02*
X130045786Y-41924215D01*
X130045786Y-41924215D02*
X124625786Y-41924215D01*
%TO.C,R8*%
X142760786Y-50521279D02*
X142760786Y-50067151D01*
X144230786Y-50521279D02*
X144230786Y-50067151D01*
%TO.C,J10*%
X102875786Y-33204215D02*
X102875786Y-41924215D01*
X104175786Y-31504215D02*
X102875786Y-33204215D01*
X106995786Y-31504215D02*
X104175786Y-31504215D01*
X106995786Y-31504215D02*
X108295786Y-33204215D01*
X108295786Y-33204215D02*
X108295786Y-41924215D01*
X108295786Y-41924215D02*
X102875786Y-41924215D01*
%TO.C,IC1*%
X80250786Y-45519215D02*
X84370786Y-45519215D01*
X80250786Y-45614215D02*
X80250786Y-45519215D01*
X80250786Y-50639215D02*
X80250786Y-50544215D01*
X84370786Y-45519215D02*
X84370786Y-45614215D01*
X84370786Y-50544215D02*
X84370786Y-50639215D01*
X84370786Y-50639215D02*
X80250786Y-50639215D01*
X79710786Y-45609215D02*
X79470786Y-45279215D01*
X79950786Y-45279215D01*
X79710786Y-45609215D01*
G36*
X79710786Y-45609215D02*
G01*
X79470786Y-45279215D01*
X79950786Y-45279215D01*
X79710786Y-45609215D01*
G37*
%TO.C,J21*%
X144825786Y-76054215D02*
X144825786Y-77304215D01*
X145125786Y-76354215D02*
X145125786Y-81074215D01*
X145125786Y-77664215D02*
X145735786Y-77664215D01*
X145125786Y-78964215D02*
X145735786Y-78964215D01*
X145125786Y-81074215D02*
X151245786Y-81074215D01*
X145735786Y-76964215D02*
X145735786Y-80464215D01*
X145735786Y-80464215D02*
X150635786Y-80464215D01*
X146075786Y-76054215D02*
X144825786Y-76054215D01*
X146585786Y-76154215D02*
X146585786Y-76354215D01*
X146885786Y-76154215D02*
X146585786Y-76154215D01*
X146885786Y-76254215D02*
X146585786Y-76254215D01*
X146885786Y-76354215D02*
X146885786Y-76154215D01*
X147685786Y-76354215D02*
X147685786Y-76964215D01*
X147685786Y-76964215D02*
X145735786Y-76964215D01*
X148085786Y-79964215D02*
X148285786Y-79964215D01*
X148085786Y-80464215D02*
X148085786Y-79964215D01*
X148185786Y-80464215D02*
X148185786Y-79964215D01*
X148285786Y-79964215D02*
X148285786Y-80464215D01*
X148685786Y-76964215D02*
X148685786Y-76354215D01*
X150635786Y-76964215D02*
X148685786Y-76964215D01*
X150635786Y-80464215D02*
X150635786Y-76964215D01*
X151245786Y-76354215D02*
X145125786Y-76354215D01*
X151245786Y-77664215D02*
X150635786Y-77664215D01*
X151245786Y-78964215D02*
X150635786Y-78964215D01*
X151245786Y-81074215D02*
X151245786Y-76354215D01*
%TO.C,R24*%
X88750786Y-50141279D02*
X88750786Y-49687151D01*
X90220786Y-50141279D02*
X90220786Y-49687151D01*
%TO.C,J26*%
X128725786Y-49724215D02*
X128725786Y-50974215D01*
X128725786Y-50974215D02*
X129975786Y-50974215D01*
X128825786Y-48914215D02*
X128825786Y-49214215D01*
X128825786Y-49214215D02*
X129025786Y-49214215D01*
X128925786Y-48914215D02*
X128925786Y-49214215D01*
X129025786Y-44554215D02*
X129025786Y-50674215D01*
X129025786Y-48114215D02*
X129635786Y-48114215D01*
X129025786Y-48914215D02*
X128825786Y-48914215D01*
X129025786Y-50674215D02*
X133745786Y-50674215D01*
X129635786Y-45164215D02*
X129635786Y-47114215D01*
X129635786Y-47114215D02*
X129025786Y-47114215D01*
X129635786Y-48114215D02*
X129635786Y-50064215D01*
X129635786Y-50064215D02*
X133135786Y-50064215D01*
X130335786Y-44554215D02*
X130335786Y-45164215D01*
X130335786Y-50674215D02*
X130335786Y-50064215D01*
X131635786Y-44554215D02*
X131635786Y-45164215D01*
X131635786Y-50674215D02*
X131635786Y-50064215D01*
X132635786Y-47514215D02*
X133135786Y-47514215D01*
X132635786Y-47714215D02*
X132635786Y-47514215D01*
X133135786Y-45164215D02*
X129635786Y-45164215D01*
X133135786Y-47614215D02*
X132635786Y-47614215D01*
X133135786Y-47714215D02*
X132635786Y-47714215D01*
X133135786Y-50064215D02*
X133135786Y-45164215D01*
X133745786Y-44554215D02*
X129025786Y-44554215D01*
X133745786Y-50674215D02*
X133745786Y-44554215D01*
%TO.C,C27*%
X83645786Y-41604215D02*
X81464786Y-41604215D01*
X83645786Y-41644215D02*
X81467786Y-41644215D01*
X83645786Y-41684215D02*
X81471786Y-41684215D01*
X83645786Y-41724215D02*
X81475786Y-41724215D01*
X83645786Y-41764215D02*
X81480786Y-41764215D01*
X83645786Y-41804215D02*
X81485786Y-41804215D01*
X83645786Y-41844215D02*
X81490786Y-41844215D01*
X83645786Y-41884215D02*
X81497786Y-41884215D01*
X83645786Y-41924215D02*
X81503786Y-41924215D01*
X83645786Y-41964215D02*
X81511786Y-41964215D01*
X83645786Y-42004215D02*
X81518786Y-42004215D01*
X83645786Y-42044215D02*
X81526786Y-42044215D01*
X83645786Y-42084215D02*
X81535786Y-42084215D01*
X83645786Y-42124215D02*
X81545786Y-42124215D01*
X83645786Y-42164215D02*
X81554786Y-42164215D01*
X83645786Y-42204215D02*
X81565786Y-42204215D01*
X83645786Y-42244215D02*
X81576786Y-42244215D01*
X83645786Y-42284215D02*
X81587786Y-42284215D01*
X83645786Y-42324215D02*
X81599786Y-42324215D01*
X83645786Y-42364215D02*
X81612786Y-42364215D01*
X83645786Y-42404215D02*
X81625786Y-42404215D01*
X83645786Y-42444215D02*
X81638786Y-42444215D01*
X83645786Y-42484215D02*
X81653786Y-42484215D01*
X83645786Y-42524215D02*
X81668786Y-42524215D01*
X83645786Y-42564215D02*
X81683786Y-42564215D01*
X83645786Y-42604215D02*
X81699786Y-42604215D01*
X83645786Y-42644215D02*
X81716786Y-42644215D01*
X83645786Y-42684215D02*
X81733786Y-42684215D01*
X83645786Y-42724215D02*
X81751786Y-42724215D01*
X83645786Y-42764215D02*
X81770786Y-42764215D01*
X83645786Y-42804215D02*
X81789786Y-42804215D01*
X83645786Y-42844215D02*
X81809786Y-42844215D01*
X83645786Y-42884215D02*
X81830786Y-42884215D01*
X83645786Y-42924215D02*
X81851786Y-42924215D01*
X83645786Y-42964215D02*
X81873786Y-42964215D01*
X83645786Y-43004215D02*
X81896786Y-43004215D01*
X83645786Y-43044215D02*
X81920786Y-43044215D01*
X83645786Y-43084215D02*
X81944786Y-43084215D01*
X83645786Y-43124215D02*
X81969786Y-43124215D01*
X83645786Y-43164215D02*
X81995786Y-43164215D01*
X83645786Y-43204215D02*
X82022786Y-43204215D01*
X83645786Y-43244215D02*
X82049786Y-43244215D01*
X83645786Y-43284215D02*
X82078786Y-43284215D01*
X83645786Y-43324215D02*
X82108786Y-43324215D01*
X83645786Y-43364215D02*
X82138786Y-43364215D01*
X83645786Y-43404215D02*
X82169786Y-43404215D01*
X83645786Y-43444215D02*
X82202786Y-43444215D01*
X83645786Y-43484215D02*
X82235786Y-43484215D01*
X83645786Y-43524215D02*
X82270786Y-43524215D01*
X83645786Y-43564215D02*
X82306786Y-43564215D01*
X83645786Y-43604215D02*
X82343786Y-43604215D01*
X83645786Y-43644215D02*
X82381786Y-43644215D01*
X85087786Y-44604215D02*
X84283786Y-44604215D01*
X85318786Y-44564215D02*
X84052786Y-44564215D01*
X85486786Y-44524215D02*
X83884786Y-44524215D01*
X85624786Y-44484215D02*
X83746786Y-44484215D01*
X85743786Y-44444215D02*
X83627786Y-44444215D01*
X85850786Y-44404215D02*
X83520786Y-44404215D01*
X85946786Y-44364215D02*
X83424786Y-44364215D01*
X86035786Y-44324215D02*
X83335786Y-44324215D01*
X86117786Y-44284215D02*
X83253786Y-44284215D01*
X86194786Y-44244215D02*
X83176786Y-44244215D01*
X86266786Y-44204215D02*
X83104786Y-44204215D01*
X86334786Y-44164215D02*
X83036786Y-44164215D01*
X86399786Y-44124215D02*
X82971786Y-44124215D01*
X86460786Y-44084215D02*
X82910786Y-44084215D01*
X86519786Y-44044215D02*
X82851786Y-44044215D01*
X86524786Y-37863974D02*
X86524786Y-38493974D01*
X86575786Y-44004215D02*
X82795786Y-44004215D01*
X86628786Y-43964215D02*
X82742786Y-43964215D01*
X86680786Y-43924215D02*
X82690786Y-43924215D01*
X86729786Y-43884215D02*
X82641786Y-43884215D01*
X86776786Y-43844215D02*
X82594786Y-43844215D01*
X86822786Y-43804215D02*
X82548786Y-43804215D01*
X86839786Y-38178974D02*
X86209786Y-38178974D01*
X86866786Y-43764215D02*
X82504786Y-43764215D01*
X86908786Y-43724215D02*
X82462786Y-43724215D01*
X86949786Y-43684215D02*
X82421786Y-43684215D01*
X86989786Y-43644215D02*
X85725786Y-43644215D01*
X87027786Y-43604215D02*
X85725786Y-43604215D01*
X87064786Y-43564215D02*
X85725786Y-43564215D01*
X87100786Y-43524215D02*
X85725786Y-43524215D01*
X87135786Y-43484215D02*
X85725786Y-43484215D01*
X87168786Y-43444215D02*
X85725786Y-43444215D01*
X87201786Y-43404215D02*
X85725786Y-43404215D01*
X87232786Y-43364215D02*
X85725786Y-43364215D01*
X87262786Y-43324215D02*
X85725786Y-43324215D01*
X87292786Y-43284215D02*
X85725786Y-43284215D01*
X87321786Y-43244215D02*
X85725786Y-43244215D01*
X87348786Y-43204215D02*
X85725786Y-43204215D01*
X87375786Y-43164215D02*
X85725786Y-43164215D01*
X87401786Y-43124215D02*
X85725786Y-43124215D01*
X87426786Y-43084215D02*
X85725786Y-43084215D01*
X87450786Y-43044215D02*
X85725786Y-43044215D01*
X87474786Y-43004215D02*
X85725786Y-43004215D01*
X87497786Y-42964215D02*
X85725786Y-42964215D01*
X87519786Y-42924215D02*
X85725786Y-42924215D01*
X87540786Y-42884215D02*
X85725786Y-42884215D01*
X87561786Y-42844215D02*
X85725786Y-42844215D01*
X87581786Y-42804215D02*
X85725786Y-42804215D01*
X87600786Y-42764215D02*
X85725786Y-42764215D01*
X87619786Y-42724215D02*
X85725786Y-42724215D01*
X87637786Y-42684215D02*
X85725786Y-42684215D01*
X87654786Y-42644215D02*
X85725786Y-42644215D01*
X87671786Y-42604215D02*
X85725786Y-42604215D01*
X87687786Y-42564215D02*
X85725786Y-42564215D01*
X87702786Y-42524215D02*
X85725786Y-42524215D01*
X87717786Y-42484215D02*
X85725786Y-42484215D01*
X87732786Y-42444215D02*
X85725786Y-42444215D01*
X87745786Y-42404215D02*
X85725786Y-42404215D01*
X87758786Y-42364215D02*
X85725786Y-42364215D01*
X87771786Y-42324215D02*
X85725786Y-42324215D01*
X87783786Y-42284215D02*
X85725786Y-42284215D01*
X87794786Y-42244215D02*
X85725786Y-42244215D01*
X87805786Y-42204215D02*
X85725786Y-42204215D01*
X87816786Y-42164215D02*
X85725786Y-42164215D01*
X87825786Y-42124215D02*
X85725786Y-42124215D01*
X87835786Y-42084215D02*
X85725786Y-42084215D01*
X87844786Y-42044215D02*
X85725786Y-42044215D01*
X87852786Y-42004215D02*
X85725786Y-42004215D01*
X87859786Y-41964215D02*
X85725786Y-41964215D01*
X87867786Y-41924215D02*
X85725786Y-41924215D01*
X87873786Y-41884215D02*
X85725786Y-41884215D01*
X87880786Y-41844215D02*
X85725786Y-41844215D01*
X87885786Y-41804215D02*
X85725786Y-41804215D01*
X87890786Y-41764215D02*
X85725786Y-41764215D01*
X87895786Y-41724215D02*
X85725786Y-41724215D01*
X87899786Y-41684215D02*
X85725786Y-41684215D01*
X87903786Y-41644215D02*
X85725786Y-41644215D01*
X87906786Y-41604215D02*
X85725786Y-41604215D01*
X87909786Y-41564215D02*
X81461786Y-41564215D01*
X87911786Y-41524215D02*
X81459786Y-41524215D01*
X87913786Y-41484215D02*
X81457786Y-41484215D01*
X87914786Y-41444215D02*
X81456786Y-41444215D01*
X87915786Y-41364215D02*
X81455786Y-41364215D01*
X87915786Y-41404215D02*
X81455786Y-41404215D01*
X87955786Y-41364215D02*
G75*
G02*
X81415786Y-41364215I-3270000J0D01*
G01*
X81415786Y-41364215D02*
G75*
G02*
X87955786Y-41364215I3270000J0D01*
G01*
%TO.C,R15*%
X141550786Y-74287151D02*
X141550786Y-74741279D01*
X143020786Y-74287151D02*
X143020786Y-74741279D01*
%TO.C,C2*%
X126272038Y-63229215D02*
X125749534Y-63229215D01*
X126272038Y-64699215D02*
X125749534Y-64699215D01*
%TO.C,J6*%
X131875786Y-33204215D02*
X131875786Y-41924215D01*
X133175786Y-31504215D02*
X131875786Y-33204215D01*
X135995786Y-31504215D02*
X133175786Y-31504215D01*
X135995786Y-31504215D02*
X137295786Y-33204215D01*
X137295786Y-33204215D02*
X137295786Y-41924215D01*
X137295786Y-41924215D02*
X131875786Y-41924215D01*
%TO.C,C15*%
X152850786Y-82275467D02*
X152850786Y-81752963D01*
X154320786Y-82275467D02*
X154320786Y-81752963D01*
%TO.C,C5*%
X142560786Y-69390463D02*
X142560786Y-69912967D01*
X144030786Y-69390463D02*
X144030786Y-69912967D01*
%TO.C,J25*%
X122975786Y-49724215D02*
X122975786Y-50974215D01*
X122975786Y-50974215D02*
X124225786Y-50974215D01*
X123075786Y-48914215D02*
X123075786Y-49214215D01*
X123075786Y-49214215D02*
X123275786Y-49214215D01*
X123175786Y-48914215D02*
X123175786Y-49214215D01*
X123275786Y-44554215D02*
X123275786Y-50674215D01*
X123275786Y-48114215D02*
X123885786Y-48114215D01*
X123275786Y-48914215D02*
X123075786Y-48914215D01*
X123275786Y-50674215D02*
X127995786Y-50674215D01*
X123885786Y-45164215D02*
X123885786Y-47114215D01*
X123885786Y-47114215D02*
X123275786Y-47114215D01*
X123885786Y-48114215D02*
X123885786Y-50064215D01*
X123885786Y-50064215D02*
X127385786Y-50064215D01*
X124585786Y-44554215D02*
X124585786Y-45164215D01*
X124585786Y-50674215D02*
X124585786Y-50064215D01*
X125885786Y-44554215D02*
X125885786Y-45164215D01*
X125885786Y-50674215D02*
X125885786Y-50064215D01*
X126885786Y-47514215D02*
X127385786Y-47514215D01*
X126885786Y-47714215D02*
X126885786Y-47514215D01*
X127385786Y-45164215D02*
X123885786Y-45164215D01*
X127385786Y-47614215D02*
X126885786Y-47614215D01*
X127385786Y-47714215D02*
X126885786Y-47714215D01*
X127385786Y-50064215D02*
X127385786Y-45164215D01*
X127995786Y-44554215D02*
X123275786Y-44554215D01*
X127995786Y-50674215D02*
X127995786Y-44554215D01*
%TO.C,C28*%
X77255786Y-32806595D02*
X83715786Y-32806595D01*
X77255786Y-32846595D02*
X83715786Y-32846595D01*
X77256786Y-32766595D02*
X83714786Y-32766595D01*
X77257786Y-32726595D02*
X83713786Y-32726595D01*
X77259786Y-32686595D02*
X83711786Y-32686595D01*
X77261786Y-32646595D02*
X83709786Y-32646595D01*
X77264786Y-32606595D02*
X79445786Y-32606595D01*
X77267786Y-32566595D02*
X79445786Y-32566595D01*
X77271786Y-32526595D02*
X79445786Y-32526595D01*
X77275786Y-32486595D02*
X79445786Y-32486595D01*
X77280786Y-32446595D02*
X79445786Y-32446595D01*
X77285786Y-32406595D02*
X79445786Y-32406595D01*
X77290786Y-32366595D02*
X79445786Y-32366595D01*
X77297786Y-32326595D02*
X79445786Y-32326595D01*
X77303786Y-32286595D02*
X79445786Y-32286595D01*
X77311786Y-32246595D02*
X79445786Y-32246595D01*
X77318786Y-32206595D02*
X79445786Y-32206595D01*
X77326786Y-32166595D02*
X79445786Y-32166595D01*
X77335786Y-32126595D02*
X79445786Y-32126595D01*
X77345786Y-32086595D02*
X79445786Y-32086595D01*
X77354786Y-32046595D02*
X79445786Y-32046595D01*
X77365786Y-32006595D02*
X79445786Y-32006595D01*
X77376786Y-31966595D02*
X79445786Y-31966595D01*
X77387786Y-31926595D02*
X79445786Y-31926595D01*
X77399786Y-31886595D02*
X79445786Y-31886595D01*
X77412786Y-31846595D02*
X79445786Y-31846595D01*
X77425786Y-31806595D02*
X79445786Y-31806595D01*
X77438786Y-31766595D02*
X79445786Y-31766595D01*
X77453786Y-31726595D02*
X79445786Y-31726595D01*
X77468786Y-31686595D02*
X79445786Y-31686595D01*
X77483786Y-31646595D02*
X79445786Y-31646595D01*
X77499786Y-31606595D02*
X79445786Y-31606595D01*
X77516786Y-31566595D02*
X79445786Y-31566595D01*
X77533786Y-31526595D02*
X79445786Y-31526595D01*
X77551786Y-31486595D02*
X79445786Y-31486595D01*
X77570786Y-31446595D02*
X79445786Y-31446595D01*
X77589786Y-31406595D02*
X79445786Y-31406595D01*
X77609786Y-31366595D02*
X79445786Y-31366595D01*
X77630786Y-31326595D02*
X79445786Y-31326595D01*
X77651786Y-31286595D02*
X79445786Y-31286595D01*
X77673786Y-31246595D02*
X79445786Y-31246595D01*
X77696786Y-31206595D02*
X79445786Y-31206595D01*
X77720786Y-31166595D02*
X79445786Y-31166595D01*
X77744786Y-31126595D02*
X79445786Y-31126595D01*
X77769786Y-31086595D02*
X79445786Y-31086595D01*
X77795786Y-31046595D02*
X79445786Y-31046595D01*
X77822786Y-31006595D02*
X79445786Y-31006595D01*
X77849786Y-30966595D02*
X79445786Y-30966595D01*
X77878786Y-30926595D02*
X79445786Y-30926595D01*
X77908786Y-30886595D02*
X79445786Y-30886595D01*
X77938786Y-30846595D02*
X79445786Y-30846595D01*
X77969786Y-30806595D02*
X79445786Y-30806595D01*
X78002786Y-30766595D02*
X79445786Y-30766595D01*
X78035786Y-30726595D02*
X79445786Y-30726595D01*
X78070786Y-30686595D02*
X79445786Y-30686595D01*
X78106786Y-30646595D02*
X79445786Y-30646595D01*
X78143786Y-30606595D02*
X79445786Y-30606595D01*
X78181786Y-30566595D02*
X79445786Y-30566595D01*
X78221786Y-30526595D02*
X82749786Y-30526595D01*
X78262786Y-30486595D02*
X82708786Y-30486595D01*
X78304786Y-30446595D02*
X82666786Y-30446595D01*
X78331786Y-36031836D02*
X78961786Y-36031836D01*
X78348786Y-30406595D02*
X82622786Y-30406595D01*
X78394786Y-30366595D02*
X82576786Y-30366595D01*
X78441786Y-30326595D02*
X82529786Y-30326595D01*
X78490786Y-30286595D02*
X82480786Y-30286595D01*
X78542786Y-30246595D02*
X82428786Y-30246595D01*
X78595786Y-30206595D02*
X82375786Y-30206595D01*
X78646786Y-36346836D02*
X78646786Y-35716836D01*
X78651786Y-30166595D02*
X82319786Y-30166595D01*
X78710786Y-30126595D02*
X82260786Y-30126595D01*
X78771786Y-30086595D02*
X82199786Y-30086595D01*
X78836786Y-30046595D02*
X82134786Y-30046595D01*
X78904786Y-30006595D02*
X82066786Y-30006595D01*
X78976786Y-29966595D02*
X81994786Y-29966595D01*
X79053786Y-29926595D02*
X81917786Y-29926595D01*
X79135786Y-29886595D02*
X81835786Y-29886595D01*
X79224786Y-29846595D02*
X81746786Y-29846595D01*
X79320786Y-29806595D02*
X81650786Y-29806595D01*
X79427786Y-29766595D02*
X81543786Y-29766595D01*
X79546786Y-29726595D02*
X81424786Y-29726595D01*
X79684786Y-29686595D02*
X81286786Y-29686595D01*
X79852786Y-29646595D02*
X81118786Y-29646595D01*
X80083786Y-29606595D02*
X80887786Y-29606595D01*
X81525786Y-30566595D02*
X82789786Y-30566595D01*
X81525786Y-30606595D02*
X82827786Y-30606595D01*
X81525786Y-30646595D02*
X82864786Y-30646595D01*
X81525786Y-30686595D02*
X82900786Y-30686595D01*
X81525786Y-30726595D02*
X82935786Y-30726595D01*
X81525786Y-30766595D02*
X82968786Y-30766595D01*
X81525786Y-30806595D02*
X83001786Y-30806595D01*
X81525786Y-30846595D02*
X83032786Y-30846595D01*
X81525786Y-30886595D02*
X83062786Y-30886595D01*
X81525786Y-30926595D02*
X83092786Y-30926595D01*
X81525786Y-30966595D02*
X83121786Y-30966595D01*
X81525786Y-31006595D02*
X83148786Y-31006595D01*
X81525786Y-31046595D02*
X83175786Y-31046595D01*
X81525786Y-31086595D02*
X83201786Y-31086595D01*
X81525786Y-31126595D02*
X83226786Y-31126595D01*
X81525786Y-31166595D02*
X83250786Y-31166595D01*
X81525786Y-31206595D02*
X83274786Y-31206595D01*
X81525786Y-31246595D02*
X83297786Y-31246595D01*
X81525786Y-31286595D02*
X83319786Y-31286595D01*
X81525786Y-31326595D02*
X83340786Y-31326595D01*
X81525786Y-31366595D02*
X83361786Y-31366595D01*
X81525786Y-31406595D02*
X83381786Y-31406595D01*
X81525786Y-31446595D02*
X83400786Y-31446595D01*
X81525786Y-31486595D02*
X83419786Y-31486595D01*
X81525786Y-31526595D02*
X83437786Y-31526595D01*
X81525786Y-31566595D02*
X83454786Y-31566595D01*
X81525786Y-31606595D02*
X83471786Y-31606595D01*
X81525786Y-31646595D02*
X83487786Y-31646595D01*
X81525786Y-31686595D02*
X83502786Y-31686595D01*
X81525786Y-31726595D02*
X83517786Y-31726595D01*
X81525786Y-31766595D02*
X83532786Y-31766595D01*
X81525786Y-31806595D02*
X83545786Y-31806595D01*
X81525786Y-31846595D02*
X83558786Y-31846595D01*
X81525786Y-31886595D02*
X83571786Y-31886595D01*
X81525786Y-31926595D02*
X83583786Y-31926595D01*
X81525786Y-31966595D02*
X83594786Y-31966595D01*
X81525786Y-32006595D02*
X83605786Y-32006595D01*
X81525786Y-32046595D02*
X83616786Y-32046595D01*
X81525786Y-32086595D02*
X83625786Y-32086595D01*
X81525786Y-32126595D02*
X83635786Y-32126595D01*
X81525786Y-32166595D02*
X83644786Y-32166595D01*
X81525786Y-32206595D02*
X83652786Y-32206595D01*
X81525786Y-32246595D02*
X83659786Y-32246595D01*
X81525786Y-32286595D02*
X83667786Y-32286595D01*
X81525786Y-32326595D02*
X83673786Y-32326595D01*
X81525786Y-32366595D02*
X83680786Y-32366595D01*
X81525786Y-32406595D02*
X83685786Y-32406595D01*
X81525786Y-32446595D02*
X83690786Y-32446595D01*
X81525786Y-32486595D02*
X83695786Y-32486595D01*
X81525786Y-32526595D02*
X83699786Y-32526595D01*
X81525786Y-32566595D02*
X83703786Y-32566595D01*
X81525786Y-32606595D02*
X83706786Y-32606595D01*
X83755786Y-32846595D02*
G75*
G02*
X77215786Y-32846595I-3270000J0D01*
G01*
X77215786Y-32846595D02*
G75*
G02*
X83755786Y-32846595I3270000J0D01*
G01*
%TO.C,J15*%
X111725786Y-49724215D02*
X111725786Y-50974215D01*
X111725786Y-50974215D02*
X112975786Y-50974215D01*
X111825786Y-48914215D02*
X111825786Y-49214215D01*
X111825786Y-49214215D02*
X112025786Y-49214215D01*
X111925786Y-48914215D02*
X111925786Y-49214215D01*
X112025786Y-44554215D02*
X112025786Y-50674215D01*
X112025786Y-48114215D02*
X112635786Y-48114215D01*
X112025786Y-48914215D02*
X111825786Y-48914215D01*
X112025786Y-50674215D02*
X116745786Y-50674215D01*
X112635786Y-45164215D02*
X112635786Y-47114215D01*
X112635786Y-47114215D02*
X112025786Y-47114215D01*
X112635786Y-48114215D02*
X112635786Y-50064215D01*
X112635786Y-50064215D02*
X116135786Y-50064215D01*
X113335786Y-44554215D02*
X113335786Y-45164215D01*
X113335786Y-50674215D02*
X113335786Y-50064215D01*
X114635786Y-44554215D02*
X114635786Y-45164215D01*
X114635786Y-50674215D02*
X114635786Y-50064215D01*
X115635786Y-47514215D02*
X116135786Y-47514215D01*
X115635786Y-47714215D02*
X115635786Y-47514215D01*
X116135786Y-45164215D02*
X112635786Y-45164215D01*
X116135786Y-47614215D02*
X115635786Y-47614215D01*
X116135786Y-47714215D02*
X115635786Y-47714215D01*
X116135786Y-50064215D02*
X116135786Y-45164215D01*
X116745786Y-44554215D02*
X112025786Y-44554215D01*
X116745786Y-50674215D02*
X116745786Y-44554215D01*
%TO.C,D2*%
X61850786Y-26454215D02*
X61850786Y-28374215D01*
X61850786Y-28374215D02*
X64710786Y-28374215D01*
X64710786Y-26454215D02*
X61850786Y-26454215D01*
%TO.C,R5*%
X67283722Y-26679215D02*
X67737850Y-26679215D01*
X67283722Y-28149215D02*
X67737850Y-28149215D01*
%TO.C,TP10*%
X120785786Y-82814215D02*
G75*
G02*
X118385786Y-82814215I-1200000J0D01*
G01*
X118385786Y-82814215D02*
G75*
G02*
X120785786Y-82814215I1200000J0D01*
G01*
%TO.C,R2*%
X121058722Y-65179215D02*
X121512850Y-65179215D01*
X121058722Y-66649215D02*
X121512850Y-66649215D01*
%TO.C,TP4*%
X124085786Y-82914215D02*
G75*
G02*
X121685786Y-82914215I-1200000J0D01*
G01*
X121685786Y-82914215D02*
G75*
G02*
X124085786Y-82914215I1200000J0D01*
G01*
%TO.C,J2*%
X141975786Y-35924215D02*
X141975786Y-39664215D01*
X160395786Y-29354215D02*
X146085786Y-29354215D01*
X160395786Y-29354215D02*
X160395786Y-45074215D01*
X160395786Y-45074215D02*
X146085786Y-45074215D01*
X142562828Y-31347409D02*
G75*
G02*
X146085786Y-29354215I3522957J-2116805D01*
G01*
X146085786Y-45074215D02*
G75*
G02*
X142155373Y-42165863I0J4110000D01*
G01*
%TO.C,C3*%
X126272038Y-65279215D02*
X125749534Y-65279215D01*
X126272038Y-66749215D02*
X125749534Y-66749215D01*
%TO.C,J13*%
X99975786Y-49724215D02*
X99975786Y-50974215D01*
X99975786Y-50974215D02*
X101225786Y-50974215D01*
X100075786Y-48914215D02*
X100075786Y-49214215D01*
X100075786Y-49214215D02*
X100275786Y-49214215D01*
X100175786Y-48914215D02*
X100175786Y-49214215D01*
X100275786Y-44554215D02*
X100275786Y-50674215D01*
X100275786Y-48114215D02*
X100885786Y-48114215D01*
X100275786Y-48914215D02*
X100075786Y-48914215D01*
X100275786Y-50674215D02*
X104995786Y-50674215D01*
X100885786Y-45164215D02*
X100885786Y-47114215D01*
X100885786Y-47114215D02*
X100275786Y-47114215D01*
X100885786Y-48114215D02*
X100885786Y-50064215D01*
X100885786Y-50064215D02*
X104385786Y-50064215D01*
X101585786Y-44554215D02*
X101585786Y-45164215D01*
X101585786Y-50674215D02*
X101585786Y-50064215D01*
X102885786Y-44554215D02*
X102885786Y-45164215D01*
X102885786Y-50674215D02*
X102885786Y-50064215D01*
X103885786Y-47514215D02*
X104385786Y-47514215D01*
X103885786Y-47714215D02*
X103885786Y-47514215D01*
X104385786Y-45164215D02*
X100885786Y-45164215D01*
X104385786Y-47614215D02*
X103885786Y-47614215D01*
X104385786Y-47714215D02*
X103885786Y-47714215D01*
X104385786Y-50064215D02*
X104385786Y-45164215D01*
X104995786Y-44554215D02*
X100275786Y-44554215D01*
X104995786Y-50674215D02*
X104995786Y-44554215D01*
%TO.C,C16*%
X92124534Y-50179215D02*
X92647038Y-50179215D01*
X92124534Y-51649215D02*
X92647038Y-51649215D01*
%TO.C,J22*%
X152205786Y-79544215D02*
X152205786Y-78164215D01*
X153585786Y-79544215D02*
X152205786Y-79544215D01*
X154855786Y-76784215D02*
X157505786Y-76784215D01*
X154855786Y-79544215D02*
X154855786Y-76784215D01*
X154855786Y-79544215D02*
X157505786Y-79544215D01*
X157505786Y-79544215D02*
X157505786Y-76784215D01*
%TO.C,J8*%
X117375786Y-33204215D02*
X117375786Y-41924215D01*
X118675786Y-31504215D02*
X117375786Y-33204215D01*
X121495786Y-31504215D02*
X118675786Y-31504215D01*
X121495786Y-31504215D02*
X122795786Y-33204215D01*
X122795786Y-33204215D02*
X122795786Y-41924215D01*
X122795786Y-41924215D02*
X117375786Y-41924215D01*
%TO.C,D3*%
X140525786Y-49289215D02*
X140525786Y-52149215D01*
X140525786Y-52149215D02*
X142445786Y-52149215D01*
X142445786Y-52149215D02*
X142445786Y-49289215D01*
%TO.C,C17*%
X138850786Y-41452963D02*
X138850786Y-41975467D01*
X140320786Y-41452963D02*
X140320786Y-41975467D01*
%TO.C,J12*%
X72365786Y-41734215D02*
X72365786Y-44494215D01*
X77555786Y-41734215D02*
X72365786Y-41734215D01*
X77555786Y-41734215D02*
X77555786Y-44494215D01*
X77555786Y-44494215D02*
X72365786Y-44494215D01*
X78825786Y-41734215D02*
X80205786Y-41734215D01*
X80205786Y-41734215D02*
X80205786Y-43114215D01*
%TO.C,TP11*%
X77385786Y-30214215D02*
G75*
G02*
X74985786Y-30214215I-1200000J0D01*
G01*
X74985786Y-30214215D02*
G75*
G02*
X77385786Y-30214215I1200000J0D01*
G01*
%TO.C,C1*%
X126272038Y-61179215D02*
X125749534Y-61179215D01*
X126272038Y-62649215D02*
X125749534Y-62649215D01*
%TO.C,C18*%
X71350786Y-37952963D02*
X71350786Y-38475467D01*
X72820786Y-37952963D02*
X72820786Y-38475467D01*
%TO.C,R13*%
X114630786Y-57390478D02*
X114630786Y-58837952D01*
X117340786Y-57390478D02*
X117340786Y-58837952D01*
%TO.C,R25*%
X133350786Y-76587151D02*
X133350786Y-77041279D01*
X134820786Y-76587151D02*
X134820786Y-77041279D01*
%TO.C,TP2*%
X143785786Y-65114215D02*
G75*
G02*
X141385786Y-65114215I-1200000J0D01*
G01*
X141385786Y-65114215D02*
G75*
G02*
X143785786Y-65114215I1200000J0D01*
G01*
%TO.C,C6*%
X140450786Y-69352963D02*
X140450786Y-69875467D01*
X141920786Y-69352963D02*
X141920786Y-69875467D01*
%TO.C,J3*%
X151075786Y-63654215D02*
X151075786Y-73774215D01*
X155975786Y-63064215D02*
X155975786Y-63654215D01*
X155975786Y-63654215D02*
X151075786Y-63654215D01*
X155975786Y-73774215D02*
X151075786Y-73774215D01*
X155975786Y-73774215D02*
X155975786Y-74364215D01*
X158195786Y-63064215D02*
X158195786Y-63654215D01*
X158195786Y-73774215D02*
X158195786Y-74364215D01*
X160295786Y-63654215D02*
X158195786Y-63654215D01*
X160295786Y-63654215D02*
X160295786Y-73774215D01*
X160295786Y-73774215D02*
X158195786Y-73774215D01*
X155975786Y-63064215D02*
G75*
G02*
X158195786Y-63064215I1110000J0D01*
G01*
X158195786Y-74364215D02*
G75*
G02*
X155975786Y-74364215I-1110000J0D01*
G01*
%TO.C,J4*%
X151075786Y-48654215D02*
X151075786Y-58774215D01*
X155975786Y-48064215D02*
X155975786Y-48654215D01*
X155975786Y-48654215D02*
X151075786Y-48654215D01*
X155975786Y-58774215D02*
X151075786Y-58774215D01*
X155975786Y-58774215D02*
X155975786Y-59364215D01*
X158195786Y-48064215D02*
X158195786Y-48654215D01*
X158195786Y-58774215D02*
X158195786Y-59364215D01*
X160295786Y-48654215D02*
X158195786Y-48654215D01*
X160295786Y-48654215D02*
X160295786Y-58774215D01*
X160295786Y-58774215D02*
X158195786Y-58774215D01*
X155975786Y-48064215D02*
G75*
G02*
X158195786Y-48064215I1110000J0D01*
G01*
X158195786Y-59364215D02*
G75*
G02*
X155975786Y-59364215I-1110000J0D01*
G01*
%TO.C,TP12*%
X135985786Y-82914215D02*
G75*
G02*
X133585786Y-82914215I-1200000J0D01*
G01*
X133585786Y-82914215D02*
G75*
G02*
X135985786Y-82914215I1200000J0D01*
G01*
%TO.C,J16*%
X137975786Y-80879215D02*
X139025786Y-80879215D01*
X137975786Y-82029215D02*
X137975786Y-80879215D01*
X143025786Y-83999215D02*
X139145786Y-83999215D01*
X143145786Y-80879215D02*
X143145786Y-79889215D01*
X144195786Y-80879215D02*
X143145786Y-80879215D01*
X144195786Y-82029215D02*
X144195786Y-80879215D01*
%TO.C,J24*%
X117325786Y-49724215D02*
X117325786Y-50974215D01*
X117325786Y-50974215D02*
X118575786Y-50974215D01*
X117425786Y-48914215D02*
X117425786Y-49214215D01*
X117425786Y-49214215D02*
X117625786Y-49214215D01*
X117525786Y-48914215D02*
X117525786Y-49214215D01*
X117625786Y-44554215D02*
X117625786Y-50674215D01*
X117625786Y-48114215D02*
X118235786Y-48114215D01*
X117625786Y-48914215D02*
X117425786Y-48914215D01*
X117625786Y-50674215D02*
X122345786Y-50674215D01*
X118235786Y-45164215D02*
X118235786Y-47114215D01*
X118235786Y-47114215D02*
X117625786Y-47114215D01*
X118235786Y-48114215D02*
X118235786Y-50064215D01*
X118235786Y-50064215D02*
X121735786Y-50064215D01*
X118935786Y-44554215D02*
X118935786Y-45164215D01*
X118935786Y-50674215D02*
X118935786Y-50064215D01*
X120235786Y-44554215D02*
X120235786Y-45164215D01*
X120235786Y-50674215D02*
X120235786Y-50064215D01*
X121235786Y-47514215D02*
X121735786Y-47514215D01*
X121235786Y-47714215D02*
X121235786Y-47514215D01*
X121735786Y-45164215D02*
X118235786Y-45164215D01*
X121735786Y-47614215D02*
X121235786Y-47614215D01*
X121735786Y-47714215D02*
X121235786Y-47714215D01*
X121735786Y-50064215D02*
X121735786Y-45164215D01*
X122345786Y-44554215D02*
X117625786Y-44554215D01*
X122345786Y-50674215D02*
X122345786Y-44554215D01*
%TO.C,R9*%
X115912850Y-53684215D02*
X115458722Y-53684215D01*
X115912850Y-55154215D02*
X115458722Y-55154215D01*
%TO.C,R26*%
X131350786Y-76587151D02*
X131350786Y-77041279D01*
X132820786Y-76587151D02*
X132820786Y-77041279D01*
%TO.C,L1*%
X129485786Y-65414215D02*
X129485786Y-66914215D01*
X129485786Y-72214215D02*
X129485786Y-70714215D01*
X129485786Y-72214215D02*
X136885786Y-72214215D01*
X136885786Y-65414215D02*
X129485786Y-65414215D01*
X136885786Y-65414215D02*
X136885786Y-66914215D01*
X136885786Y-72214215D02*
X136885786Y-70714215D01*
%TO.C,TP8*%
X138285786Y-46214215D02*
G75*
G02*
X135885786Y-46214215I-1200000J0D01*
G01*
X135885786Y-46214215D02*
G75*
G02*
X138285786Y-46214215I1200000J0D01*
G01*
%TO.C,D1*%
X155850786Y-82054215D02*
X155850786Y-83974215D01*
X155850786Y-83974215D02*
X158710786Y-83974215D01*
X158710786Y-82054215D02*
X155850786Y-82054215D01*
%TO.C,R1*%
X121512850Y-67079215D02*
X121058722Y-67079215D01*
X121512850Y-68549215D02*
X121058722Y-68549215D01*
%TO.C,J9*%
X110125786Y-33204215D02*
X110125786Y-41924215D01*
X111425786Y-31504215D02*
X110125786Y-33204215D01*
X114245786Y-31504215D02*
X111425786Y-31504215D01*
X114245786Y-31504215D02*
X115545786Y-33204215D01*
X115545786Y-33204215D02*
X115545786Y-41924215D01*
X115545786Y-41924215D02*
X110125786Y-41924215D01*
%TO.C,R12*%
X121058722Y-68979215D02*
X121512850Y-68979215D01*
X121058722Y-70449215D02*
X121512850Y-70449215D01*
%TO.C,R3*%
X88750786Y-46441279D02*
X88750786Y-45987151D01*
X90220786Y-46441279D02*
X90220786Y-45987151D01*
%TO.C,J11*%
X95625786Y-33204215D02*
X95625786Y-41924215D01*
X96925786Y-31504215D02*
X95625786Y-33204215D01*
X99745786Y-31504215D02*
X96925786Y-31504215D01*
X99745786Y-31504215D02*
X101045786Y-33204215D01*
X101045786Y-33204215D02*
X101045786Y-41924215D01*
X101045786Y-41924215D02*
X95625786Y-41924215D01*
%TO.C,D4*%
X96440786Y-48734215D02*
X96440786Y-49624215D01*
X96440786Y-49624215D02*
X94590786Y-49624215D01*
X96455786Y-46504215D02*
X94605786Y-46504215D01*
X96455786Y-46504215D02*
X96455786Y-47394215D01*
X94215786Y-46514215D02*
X93975786Y-46184215D01*
X94455786Y-46184215D01*
X94215786Y-46514215D01*
G36*
X94215786Y-46514215D02*
G01*
X93975786Y-46184215D01*
X94455786Y-46184215D01*
X94215786Y-46514215D01*
G37*
%TD*%
%LPC*%
D13*
%TO.C,C7*%
X83048286Y-52214215D03*
X85123286Y-52214215D03*
%TD*%
D14*
%TO.C,TP1*%
X73035786Y-30214215D03*
%TD*%
D15*
%TO.C,C24*%
X139085786Y-68576715D03*
X139085786Y-70651715D03*
%TD*%
D16*
%TO.C,C14*%
X77085786Y-48651715D03*
X77085786Y-46576715D03*
%TD*%
D17*
%TO.C,J14*%
X108085786Y-48614215D03*
D18*
X108085786Y-46614215D03*
%TD*%
D19*
%TO.C,Q2*%
X119085786Y-55014215D03*
D20*
X125385786Y-57294215D03*
D19*
X119085786Y-59574215D03*
%TD*%
D21*
%TO.C,J20*%
X130185786Y-80689215D03*
X129185786Y-80689215D03*
X128185786Y-80689215D03*
X127185786Y-80689215D03*
D22*
X131485786Y-83214215D03*
X125885786Y-83214215D03*
%TD*%
D14*
%TO.C,TP9*%
X139385786Y-64864215D03*
%TD*%
%TO.C,TP7*%
X137085786Y-49314215D03*
%TD*%
%TO.C,TP6*%
X75885786Y-39514215D03*
%TD*%
D23*
%TO.C,J1*%
X62485786Y-43564215D03*
X62485786Y-30064215D03*
D24*
X68485786Y-40414215D03*
D25*
X68485786Y-33214215D03*
%TD*%
D13*
%TO.C,C4*%
X126348286Y-71814215D03*
X128423286Y-71814215D03*
%TD*%
D26*
%TO.C,R4*%
X156710786Y-81014215D03*
X158710786Y-81014215D03*
%TD*%
D27*
%TO.C,J23*%
X63505786Y-80014215D03*
D28*
X63505786Y-77474215D03*
X66045786Y-80014215D03*
X66045786Y-77474215D03*
X68585786Y-80014215D03*
X68585786Y-77474215D03*
X71125786Y-80014215D03*
X71125786Y-77474215D03*
X73665786Y-80014215D03*
X73665786Y-77474215D03*
X76205786Y-80014215D03*
X76205786Y-77474215D03*
X78745786Y-80014215D03*
X78745786Y-77474215D03*
X81285786Y-80014215D03*
X81285786Y-77474215D03*
X83825786Y-80014215D03*
X83825786Y-77474215D03*
X86365786Y-80014215D03*
X86365786Y-77474215D03*
X88905786Y-80014215D03*
X88905786Y-77474215D03*
X91445786Y-80014215D03*
X91445786Y-77474215D03*
X93985786Y-80014215D03*
X93985786Y-77474215D03*
X96525786Y-80014215D03*
X96525786Y-77474215D03*
X99065786Y-80014215D03*
X99065786Y-77474215D03*
X101605786Y-80014215D03*
X101605786Y-77474215D03*
X104145786Y-80014215D03*
X104145786Y-77474215D03*
X106685786Y-80014215D03*
X106685786Y-77474215D03*
X109225786Y-80014215D03*
X109225786Y-77474215D03*
X111765786Y-80014215D03*
X111765786Y-77474215D03*
%TD*%
D29*
%TO.C,R16*%
X140285786Y-73514215D03*
X140285786Y-75514215D03*
%TD*%
D30*
%TO.C,U1*%
X127085786Y-69714215D03*
X127085786Y-68764215D03*
X127085786Y-67814215D03*
X124810786Y-67814215D03*
X124810786Y-68764215D03*
X124810786Y-69714215D03*
%TD*%
D14*
%TO.C,TP5*%
X79185786Y-39614215D03*
%TD*%
D31*
%TO.C,J7*%
X127335786Y-34214215D03*
D32*
X127335786Y-39214215D03*
%TD*%
D33*
%TO.C,R8*%
X143495786Y-51294215D03*
X143495786Y-49294215D03*
%TD*%
D34*
%TO.C,H2*%
X88485786Y-31414215D03*
%TD*%
D31*
%TO.C,J10*%
X105585786Y-34214215D03*
D32*
X105585786Y-39214215D03*
%TD*%
D35*
%TO.C,IC1*%
X79835786Y-46174215D03*
X79835786Y-47444215D03*
X79835786Y-48714215D03*
X79835786Y-49984215D03*
X84785786Y-49984215D03*
X84785786Y-48714215D03*
X84785786Y-47444215D03*
X84785786Y-46174215D03*
%TD*%
D36*
%TO.C,J21*%
X147185786Y-78164215D03*
D37*
X149185786Y-78164215D03*
%TD*%
D33*
%TO.C,R24*%
X89485786Y-50914215D03*
X89485786Y-48914215D03*
%TD*%
D17*
%TO.C,J26*%
X130835786Y-48614215D03*
D18*
X130835786Y-46614215D03*
%TD*%
D38*
%TO.C,C27*%
X84685786Y-40114215D03*
D39*
X84685786Y-42614215D03*
%TD*%
D29*
%TO.C,R15*%
X142285786Y-73514215D03*
X142285786Y-75514215D03*
%TD*%
D40*
%TO.C,C2*%
X127048286Y-63964215D03*
X124973286Y-63964215D03*
%TD*%
D31*
%TO.C,J6*%
X134585786Y-34214215D03*
D32*
X134585786Y-39214215D03*
%TD*%
D16*
%TO.C,C15*%
X153585786Y-83051715D03*
X153585786Y-80976715D03*
%TD*%
D15*
%TO.C,C5*%
X143295786Y-68614215D03*
X143295786Y-70689215D03*
%TD*%
D17*
%TO.C,J25*%
X125085786Y-48614215D03*
D18*
X125085786Y-46614215D03*
%TD*%
D41*
%TO.C,C28*%
X80485786Y-34096595D03*
D39*
X80485786Y-31596595D03*
%TD*%
D17*
%TO.C,J15*%
X113835786Y-48614215D03*
D18*
X113835786Y-46614215D03*
%TD*%
D42*
%TO.C,D2*%
X62685786Y-27414215D03*
X64735786Y-27414215D03*
%TD*%
D26*
%TO.C,R5*%
X66510786Y-27414215D03*
X68510786Y-27414215D03*
%TD*%
D14*
%TO.C,TP10*%
X119585786Y-82814215D03*
%TD*%
D26*
%TO.C,R2*%
X120285786Y-65914215D03*
X122285786Y-65914215D03*
%TD*%
D34*
%TO.C,H1*%
X57085786Y-78814215D03*
%TD*%
D14*
%TO.C,TP4*%
X122885786Y-82914215D03*
%TD*%
D23*
%TO.C,J2*%
X149935786Y-30464215D03*
X149935786Y-43964215D03*
D43*
X143935786Y-33614215D03*
D25*
X143935786Y-40814215D03*
%TD*%
D40*
%TO.C,C3*%
X127048286Y-66014215D03*
X124973286Y-66014215D03*
%TD*%
D17*
%TO.C,J13*%
X102085786Y-48614215D03*
D18*
X102085786Y-46614215D03*
%TD*%
D13*
%TO.C,C16*%
X91348286Y-50914215D03*
X93423286Y-50914215D03*
%TD*%
D27*
%TO.C,J22*%
X153585786Y-78164215D03*
D28*
X156125786Y-78164215D03*
%TD*%
D31*
%TO.C,J8*%
X120085786Y-34214215D03*
D32*
X120085786Y-39214215D03*
%TD*%
D44*
%TO.C,D3*%
X141485786Y-51314215D03*
X141485786Y-49264215D03*
%TD*%
D15*
%TO.C,C17*%
X139585786Y-40676715D03*
X139585786Y-42751715D03*
%TD*%
D27*
%TO.C,J12*%
X78825786Y-43114215D03*
D28*
X76285786Y-43114215D03*
X73745786Y-43114215D03*
%TD*%
D14*
%TO.C,TP11*%
X76185786Y-30214215D03*
%TD*%
D40*
%TO.C,C1*%
X127048286Y-61914215D03*
X124973286Y-61914215D03*
%TD*%
D15*
%TO.C,C18*%
X72085786Y-37176715D03*
X72085786Y-39251715D03*
%TD*%
D45*
%TO.C,R13*%
X115985786Y-56564215D03*
X115985786Y-59664215D03*
%TD*%
D29*
%TO.C,R25*%
X134085786Y-75814215D03*
X134085786Y-77814215D03*
%TD*%
D14*
%TO.C,TP2*%
X142585786Y-65114215D03*
%TD*%
D15*
%TO.C,C6*%
X141185786Y-68576715D03*
X141185786Y-70651715D03*
%TD*%
D46*
%TO.C,J3*%
X157085786Y-63214215D03*
X157085786Y-74214215D03*
D47*
X147085786Y-71214215D03*
D48*
X147085786Y-66214215D03*
%TD*%
D46*
%TO.C,J4*%
X157085786Y-48214215D03*
X157085786Y-59214215D03*
D47*
X147085786Y-56214215D03*
D48*
X147085786Y-51214215D03*
%TD*%
D14*
%TO.C,TP12*%
X134785786Y-82914215D03*
%TD*%
D21*
%TO.C,J16*%
X142585786Y-80664215D03*
X141585786Y-80664215D03*
X140585786Y-80664215D03*
X139585786Y-80664215D03*
D22*
X143885786Y-83189215D03*
X138285786Y-83189215D03*
%TD*%
D17*
%TO.C,J24*%
X119435786Y-48614215D03*
D18*
X119435786Y-46614215D03*
%TD*%
D49*
%TO.C,R9*%
X116685786Y-54419215D03*
X114685786Y-54419215D03*
%TD*%
D29*
%TO.C,R26*%
X132085786Y-75814215D03*
X132085786Y-77814215D03*
%TD*%
D50*
%TO.C,L1*%
X130160786Y-68814215D03*
X136210786Y-68814215D03*
%TD*%
D14*
%TO.C,TP8*%
X137085786Y-46214215D03*
%TD*%
D42*
%TO.C,D1*%
X156685786Y-83014215D03*
X158735786Y-83014215D03*
%TD*%
D49*
%TO.C,R1*%
X122285786Y-67814215D03*
X120285786Y-67814215D03*
%TD*%
D31*
%TO.C,J9*%
X112835786Y-34214215D03*
D32*
X112835786Y-39214215D03*
%TD*%
D26*
%TO.C,R12*%
X120285786Y-69714215D03*
X122285786Y-69714215D03*
%TD*%
D33*
%TO.C,R3*%
X89485786Y-47214215D03*
X89485786Y-45214215D03*
%TD*%
D31*
%TO.C,J11*%
X98335786Y-34214215D03*
D32*
X98335786Y-39214215D03*
%TD*%
D51*
%TO.C,D4*%
X93785786Y-47114215D03*
X93785786Y-49014215D03*
X97205786Y-48064215D03*
%TD*%
%LPD*%
M02*
