%TF.GenerationSoftware,KiCad,Pcbnew,9.0.5*%
%TF.CreationDate,2025-10-22T13:12:40-04:00*%
%TF.ProjectId,mainBoard,6d61696e-426f-4617-9264-2e6b69636164,rev?*%
%TF.SameCoordinates,Original*%
%TF.FileFunction,Legend,Top*%
%TF.FilePolarity,Positive*%
%FSLAX46Y46*%
G04 Gerber Fmt 4.6, Leading zero omitted, Abs format (unit mm)*
G04 Created by KiCad (PCBNEW 9.0.5) date 2025-10-22 13:12:40*
%MOMM*%
%LPD*%
G01*
G04 APERTURE LIST*
G04 Aperture macros list*
%AMRoundRect*
0 Rectangle with rounded corners*
0 $1 Rounding radius*
0 $2 $3 $4 $5 $6 $7 $8 $9 X,Y pos of 4 corners*
0 Add a 4 corners polygon primitive as box body*
4,1,4,$2,$3,$4,$5,$6,$7,$8,$9,$2,$3,0*
0 Add four circle primitives for the rounded corners*
1,1,$1+$1,$2,$3*
1,1,$1+$1,$4,$5*
1,1,$1+$1,$6,$7*
1,1,$1+$1,$8,$9*
0 Add four rect primitives between the rounded corners*
20,1,$1+$1,$2,$3,$4,$5,0*
20,1,$1+$1,$4,$5,$6,$7,0*
20,1,$1+$1,$6,$7,$8,$9,0*
20,1,$1+$1,$8,$9,$2,$3,0*%
G04 Aperture macros list end*
%ADD10C,0.150000*%
%ADD11C,0.120000*%
%ADD12C,0.000000*%
%ADD13RoundRect,0.250000X0.550000X-0.550000X0.550000X0.550000X-0.550000X0.550000X-0.550000X-0.550000X0*%
%ADD14C,1.600000*%
%ADD15RoundRect,0.250000X-0.550000X0.550000X-0.550000X-0.550000X0.550000X-0.550000X0.550000X0.550000X0*%
%ADD16C,2.000000*%
%ADD17RoundRect,0.250000X-0.475000X0.337500X-0.475000X-0.337500X0.475000X-0.337500X0.475000X0.337500X0*%
%ADD18RoundRect,0.250000X0.475000X-0.337500X0.475000X0.337500X-0.475000X0.337500X-0.475000X-0.337500X0*%
%ADD19RoundRect,0.250000X0.625000X-0.350000X0.625000X0.350000X-0.625000X0.350000X-0.625000X-0.350000X0*%
%ADD20O,1.750000X1.200000*%
%ADD21RoundRect,0.250000X-0.850000X-0.350000X0.850000X-0.350000X0.850000X0.350000X-0.850000X0.350000X0*%
%ADD22RoundRect,0.249997X-2.950003X-2.650003X2.950003X-2.650003X2.950003X2.650003X-2.950003X2.650003X0*%
%ADD23RoundRect,0.250000X-0.350000X-0.450000X0.350000X-0.450000X0.350000X0.450000X-0.350000X0.450000X0*%
%ADD24RoundRect,0.150000X0.150000X0.625000X-0.150000X0.625000X-0.150000X-0.625000X0.150000X-0.625000X0*%
%ADD25RoundRect,0.250000X0.350000X0.650000X-0.350000X0.650000X-0.350000X-0.650000X0.350000X-0.650000X0*%
%ADD26RoundRect,0.250000X0.337500X0.475000X-0.337500X0.475000X-0.337500X-0.475000X0.337500X-0.475000X0*%
%ADD27R,2.000000X0.900000*%
%ADD28RoundRect,1.025000X1.025000X-1.025000X1.025000X1.025000X-1.025000X1.025000X-1.025000X-1.025000X0*%
%ADD29C,4.100000*%
%ADD30RoundRect,0.250000X-0.337500X-0.475000X0.337500X-0.475000X0.337500X0.475000X-0.337500X0.475000X0*%
%ADD31R,1.700000X1.700000*%
%ADD32C,1.700000*%
%ADD33RoundRect,0.250000X0.350000X0.450000X-0.350000X0.450000X-0.350000X-0.450000X0.350000X-0.450000X0*%
%ADD34RoundRect,0.150000X0.512500X0.150000X-0.512500X0.150000X-0.512500X-0.150000X0.512500X-0.150000X0*%
%ADD35RoundRect,0.250000X-1.050000X-1.050000X1.050000X-1.050000X1.050000X1.050000X-1.050000X1.050000X0*%
%ADD36C,2.600000*%
%ADD37RoundRect,0.760000X-1.140000X1.140000X-1.140000X-1.140000X1.140000X-1.140000X1.140000X1.140000X0*%
%ADD38C,3.800000*%
%ADD39RoundRect,0.250000X0.450000X-0.350000X0.450000X0.350000X-0.450000X0.350000X-0.450000X-0.350000X0*%
%ADD40C,4.300000*%
%ADD41RoundRect,0.150000X-0.825000X-0.150000X0.825000X-0.150000X0.825000X0.150000X-0.825000X0.150000X0*%
%ADD42RoundRect,0.250000X-0.350000X-0.625000X0.350000X-0.625000X0.350000X0.625000X-0.350000X0.625000X0*%
%ADD43O,1.200000X1.750000*%
%ADD44RoundRect,0.235000X-0.940000X-1.465000X0.940000X-1.465000X0.940000X1.465000X-0.940000X1.465000X0*%
%ADD45RoundRect,0.250000X0.325000X0.450000X-0.325000X0.450000X-0.325000X-0.450000X0.325000X-0.450000X0*%
%ADD46RoundRect,0.250000X-0.325000X-0.450000X0.325000X-0.450000X0.325000X0.450000X-0.325000X0.450000X0*%
%ADD47RoundRect,1.025000X-1.025000X1.025000X-1.025000X-1.025000X1.025000X-1.025000X1.025000X1.025000X0*%
%ADD48RoundRect,0.250000X0.450000X-0.325000X0.450000X0.325000X-0.450000X0.325000X-0.450000X-0.325000X0*%
%ADD49RoundRect,0.250000X-1.075000X0.400000X-1.075000X-0.400000X1.075000X-0.400000X1.075000X0.400000X0*%
%ADD50C,1.400000*%
%ADD51RoundRect,0.770000X-0.980000X0.980000X-0.980000X-0.980000X0.980000X-0.980000X0.980000X0.980000X0*%
%ADD52C,3.500000*%
G04 APERTURE END LIST*
D10*
X79642928Y-29073795D02*
X79595309Y-29121415D01*
X79595309Y-29121415D02*
X79452452Y-29169034D01*
X79452452Y-29169034D02*
X79357214Y-29169034D01*
X79357214Y-29169034D02*
X79214357Y-29121415D01*
X79214357Y-29121415D02*
X79119119Y-29026176D01*
X79119119Y-29026176D02*
X79071500Y-28930938D01*
X79071500Y-28930938D02*
X79023881Y-28740462D01*
X79023881Y-28740462D02*
X79023881Y-28597605D01*
X79023881Y-28597605D02*
X79071500Y-28407129D01*
X79071500Y-28407129D02*
X79119119Y-28311891D01*
X79119119Y-28311891D02*
X79214357Y-28216653D01*
X79214357Y-28216653D02*
X79357214Y-28169034D01*
X79357214Y-28169034D02*
X79452452Y-28169034D01*
X79452452Y-28169034D02*
X79595309Y-28216653D01*
X79595309Y-28216653D02*
X79642928Y-28264272D01*
X80023881Y-28264272D02*
X80071500Y-28216653D01*
X80071500Y-28216653D02*
X80166738Y-28169034D01*
X80166738Y-28169034D02*
X80404833Y-28169034D01*
X80404833Y-28169034D02*
X80500071Y-28216653D01*
X80500071Y-28216653D02*
X80547690Y-28264272D01*
X80547690Y-28264272D02*
X80595309Y-28359510D01*
X80595309Y-28359510D02*
X80595309Y-28454748D01*
X80595309Y-28454748D02*
X80547690Y-28597605D01*
X80547690Y-28597605D02*
X79976262Y-29169034D01*
X79976262Y-29169034D02*
X80595309Y-29169034D01*
X81166738Y-28597605D02*
X81071500Y-28549986D01*
X81071500Y-28549986D02*
X81023881Y-28502367D01*
X81023881Y-28502367D02*
X80976262Y-28407129D01*
X80976262Y-28407129D02*
X80976262Y-28359510D01*
X80976262Y-28359510D02*
X81023881Y-28264272D01*
X81023881Y-28264272D02*
X81071500Y-28216653D01*
X81071500Y-28216653D02*
X81166738Y-28169034D01*
X81166738Y-28169034D02*
X81357214Y-28169034D01*
X81357214Y-28169034D02*
X81452452Y-28216653D01*
X81452452Y-28216653D02*
X81500071Y-28264272D01*
X81500071Y-28264272D02*
X81547690Y-28359510D01*
X81547690Y-28359510D02*
X81547690Y-28407129D01*
X81547690Y-28407129D02*
X81500071Y-28502367D01*
X81500071Y-28502367D02*
X81452452Y-28549986D01*
X81452452Y-28549986D02*
X81357214Y-28597605D01*
X81357214Y-28597605D02*
X81166738Y-28597605D01*
X81166738Y-28597605D02*
X81071500Y-28645224D01*
X81071500Y-28645224D02*
X81023881Y-28692843D01*
X81023881Y-28692843D02*
X80976262Y-28788081D01*
X80976262Y-28788081D02*
X80976262Y-28978557D01*
X80976262Y-28978557D02*
X81023881Y-29073795D01*
X81023881Y-29073795D02*
X81071500Y-29121415D01*
X81071500Y-29121415D02*
X81166738Y-29169034D01*
X81166738Y-29169034D02*
X81357214Y-29169034D01*
X81357214Y-29169034D02*
X81452452Y-29121415D01*
X81452452Y-29121415D02*
X81500071Y-29073795D01*
X81500071Y-29073795D02*
X81547690Y-28978557D01*
X81547690Y-28978557D02*
X81547690Y-28788081D01*
X81547690Y-28788081D02*
X81500071Y-28692843D01*
X81500071Y-28692843D02*
X81452452Y-28645224D01*
X81452452Y-28645224D02*
X81357214Y-28597605D01*
X89145366Y-42157072D02*
X89192986Y-42204691D01*
X89192986Y-42204691D02*
X89240605Y-42347548D01*
X89240605Y-42347548D02*
X89240605Y-42442786D01*
X89240605Y-42442786D02*
X89192986Y-42585643D01*
X89192986Y-42585643D02*
X89097747Y-42680881D01*
X89097747Y-42680881D02*
X89002509Y-42728500D01*
X89002509Y-42728500D02*
X88812033Y-42776119D01*
X88812033Y-42776119D02*
X88669176Y-42776119D01*
X88669176Y-42776119D02*
X88478700Y-42728500D01*
X88478700Y-42728500D02*
X88383462Y-42680881D01*
X88383462Y-42680881D02*
X88288224Y-42585643D01*
X88288224Y-42585643D02*
X88240605Y-42442786D01*
X88240605Y-42442786D02*
X88240605Y-42347548D01*
X88240605Y-42347548D02*
X88288224Y-42204691D01*
X88288224Y-42204691D02*
X88335843Y-42157072D01*
X88335843Y-41776119D02*
X88288224Y-41728500D01*
X88288224Y-41728500D02*
X88240605Y-41633262D01*
X88240605Y-41633262D02*
X88240605Y-41395167D01*
X88240605Y-41395167D02*
X88288224Y-41299929D01*
X88288224Y-41299929D02*
X88335843Y-41252310D01*
X88335843Y-41252310D02*
X88431081Y-41204691D01*
X88431081Y-41204691D02*
X88526319Y-41204691D01*
X88526319Y-41204691D02*
X88669176Y-41252310D01*
X88669176Y-41252310D02*
X89240605Y-41823738D01*
X89240605Y-41823738D02*
X89240605Y-41204691D01*
X88240605Y-40871357D02*
X88240605Y-40204691D01*
X88240605Y-40204691D02*
X89240605Y-40633262D01*
X71773881Y-27671034D02*
X72345309Y-27671034D01*
X72059595Y-28671034D02*
X72059595Y-27671034D01*
X72678643Y-28671034D02*
X72678643Y-27671034D01*
X72678643Y-27671034D02*
X73059595Y-27671034D01*
X73059595Y-27671034D02*
X73154833Y-27718653D01*
X73154833Y-27718653D02*
X73202452Y-27766272D01*
X73202452Y-27766272D02*
X73250071Y-27861510D01*
X73250071Y-27861510D02*
X73250071Y-28004367D01*
X73250071Y-28004367D02*
X73202452Y-28099605D01*
X73202452Y-28099605D02*
X73154833Y-28147224D01*
X73154833Y-28147224D02*
X73059595Y-28194843D01*
X73059595Y-28194843D02*
X72678643Y-28194843D01*
X74202452Y-28671034D02*
X73631024Y-28671034D01*
X73916738Y-28671034D02*
X73916738Y-27671034D01*
X73916738Y-27671034D02*
X73821500Y-27813891D01*
X73821500Y-27813891D02*
X73726262Y-27909129D01*
X73726262Y-27909129D02*
X73631024Y-27956748D01*
X138942928Y-67573795D02*
X138895309Y-67621415D01*
X138895309Y-67621415D02*
X138752452Y-67669034D01*
X138752452Y-67669034D02*
X138657214Y-67669034D01*
X138657214Y-67669034D02*
X138514357Y-67621415D01*
X138514357Y-67621415D02*
X138419119Y-67526176D01*
X138419119Y-67526176D02*
X138371500Y-67430938D01*
X138371500Y-67430938D02*
X138323881Y-67240462D01*
X138323881Y-67240462D02*
X138323881Y-67097605D01*
X138323881Y-67097605D02*
X138371500Y-66907129D01*
X138371500Y-66907129D02*
X138419119Y-66811891D01*
X138419119Y-66811891D02*
X138514357Y-66716653D01*
X138514357Y-66716653D02*
X138657214Y-66669034D01*
X138657214Y-66669034D02*
X138752452Y-66669034D01*
X138752452Y-66669034D02*
X138895309Y-66716653D01*
X138895309Y-66716653D02*
X138942928Y-66764272D01*
X139323881Y-66764272D02*
X139371500Y-66716653D01*
X139371500Y-66716653D02*
X139466738Y-66669034D01*
X139466738Y-66669034D02*
X139704833Y-66669034D01*
X139704833Y-66669034D02*
X139800071Y-66716653D01*
X139800071Y-66716653D02*
X139847690Y-66764272D01*
X139847690Y-66764272D02*
X139895309Y-66859510D01*
X139895309Y-66859510D02*
X139895309Y-66954748D01*
X139895309Y-66954748D02*
X139847690Y-67097605D01*
X139847690Y-67097605D02*
X139276262Y-67669034D01*
X139276262Y-67669034D02*
X139895309Y-67669034D01*
X140752452Y-67002367D02*
X140752452Y-67669034D01*
X140514357Y-66621415D02*
X140276262Y-67335700D01*
X140276262Y-67335700D02*
X140895309Y-67335700D01*
X77445366Y-51857072D02*
X77492986Y-51904691D01*
X77492986Y-51904691D02*
X77540605Y-52047548D01*
X77540605Y-52047548D02*
X77540605Y-52142786D01*
X77540605Y-52142786D02*
X77492986Y-52285643D01*
X77492986Y-52285643D02*
X77397747Y-52380881D01*
X77397747Y-52380881D02*
X77302509Y-52428500D01*
X77302509Y-52428500D02*
X77112033Y-52476119D01*
X77112033Y-52476119D02*
X76969176Y-52476119D01*
X76969176Y-52476119D02*
X76778700Y-52428500D01*
X76778700Y-52428500D02*
X76683462Y-52380881D01*
X76683462Y-52380881D02*
X76588224Y-52285643D01*
X76588224Y-52285643D02*
X76540605Y-52142786D01*
X76540605Y-52142786D02*
X76540605Y-52047548D01*
X76540605Y-52047548D02*
X76588224Y-51904691D01*
X76588224Y-51904691D02*
X76635843Y-51857072D01*
X77540605Y-50904691D02*
X77540605Y-51476119D01*
X77540605Y-51190405D02*
X76540605Y-51190405D01*
X76540605Y-51190405D02*
X76683462Y-51285643D01*
X76683462Y-51285643D02*
X76778700Y-51380881D01*
X76778700Y-51380881D02*
X76826319Y-51476119D01*
X76873938Y-50047548D02*
X77540605Y-50047548D01*
X76492986Y-50285643D02*
X77207271Y-50523738D01*
X77207271Y-50523738D02*
X77207271Y-49904691D01*
X102076262Y-51669034D02*
X102076262Y-52383319D01*
X102076262Y-52383319D02*
X102028643Y-52526176D01*
X102028643Y-52526176D02*
X101933405Y-52621415D01*
X101933405Y-52621415D02*
X101790548Y-52669034D01*
X101790548Y-52669034D02*
X101695310Y-52669034D01*
X103076262Y-52669034D02*
X102504834Y-52669034D01*
X102790548Y-52669034D02*
X102790548Y-51669034D01*
X102790548Y-51669034D02*
X102695310Y-51811891D01*
X102695310Y-51811891D02*
X102600072Y-51907129D01*
X102600072Y-51907129D02*
X102504834Y-51954748D01*
X103933405Y-52002367D02*
X103933405Y-52669034D01*
X103695310Y-51621415D02*
X103457215Y-52335700D01*
X103457215Y-52335700D02*
X104076262Y-52335700D01*
X130060843Y-59914453D02*
X130013224Y-60009691D01*
X130013224Y-60009691D02*
X129917986Y-60104929D01*
X129917986Y-60104929D02*
X129775128Y-60247786D01*
X129775128Y-60247786D02*
X129727509Y-60343024D01*
X129727509Y-60343024D02*
X129727509Y-60438262D01*
X129965605Y-60390643D02*
X129917986Y-60485881D01*
X129917986Y-60485881D02*
X129822747Y-60581119D01*
X129822747Y-60581119D02*
X129632271Y-60628738D01*
X129632271Y-60628738D02*
X129298938Y-60628738D01*
X129298938Y-60628738D02*
X129108462Y-60581119D01*
X129108462Y-60581119D02*
X129013224Y-60485881D01*
X129013224Y-60485881D02*
X128965605Y-60390643D01*
X128965605Y-60390643D02*
X128965605Y-60200167D01*
X128965605Y-60200167D02*
X129013224Y-60104929D01*
X129013224Y-60104929D02*
X129108462Y-60009691D01*
X129108462Y-60009691D02*
X129298938Y-59962072D01*
X129298938Y-59962072D02*
X129632271Y-59962072D01*
X129632271Y-59962072D02*
X129822747Y-60009691D01*
X129822747Y-60009691D02*
X129917986Y-60104929D01*
X129917986Y-60104929D02*
X129965605Y-60200167D01*
X129965605Y-60200167D02*
X129965605Y-60390643D01*
X129060843Y-59581119D02*
X129013224Y-59533500D01*
X129013224Y-59533500D02*
X128965605Y-59438262D01*
X128965605Y-59438262D02*
X128965605Y-59200167D01*
X128965605Y-59200167D02*
X129013224Y-59104929D01*
X129013224Y-59104929D02*
X129060843Y-59057310D01*
X129060843Y-59057310D02*
X129156081Y-59009691D01*
X129156081Y-59009691D02*
X129251319Y-59009691D01*
X129251319Y-59009691D02*
X129394176Y-59057310D01*
X129394176Y-59057310D02*
X129965605Y-59628738D01*
X129965605Y-59628738D02*
X129965605Y-59009691D01*
X56192928Y-61594034D02*
X55859595Y-61117843D01*
X55621500Y-61594034D02*
X55621500Y-60594034D01*
X55621500Y-60594034D02*
X56002452Y-60594034D01*
X56002452Y-60594034D02*
X56097690Y-60641653D01*
X56097690Y-60641653D02*
X56145309Y-60689272D01*
X56145309Y-60689272D02*
X56192928Y-60784510D01*
X56192928Y-60784510D02*
X56192928Y-60927367D01*
X56192928Y-60927367D02*
X56145309Y-61022605D01*
X56145309Y-61022605D02*
X56097690Y-61070224D01*
X56097690Y-61070224D02*
X56002452Y-61117843D01*
X56002452Y-61117843D02*
X55621500Y-61117843D01*
X56573881Y-60689272D02*
X56621500Y-60641653D01*
X56621500Y-60641653D02*
X56716738Y-60594034D01*
X56716738Y-60594034D02*
X56954833Y-60594034D01*
X56954833Y-60594034D02*
X57050071Y-60641653D01*
X57050071Y-60641653D02*
X57097690Y-60689272D01*
X57097690Y-60689272D02*
X57145309Y-60784510D01*
X57145309Y-60784510D02*
X57145309Y-60879748D01*
X57145309Y-60879748D02*
X57097690Y-61022605D01*
X57097690Y-61022605D02*
X56526262Y-61594034D01*
X56526262Y-61594034D02*
X57145309Y-61594034D01*
X57621500Y-61594034D02*
X57811976Y-61594034D01*
X57811976Y-61594034D02*
X57907214Y-61546415D01*
X57907214Y-61546415D02*
X57954833Y-61498795D01*
X57954833Y-61498795D02*
X58050071Y-61355938D01*
X58050071Y-61355938D02*
X58097690Y-61165462D01*
X58097690Y-61165462D02*
X58097690Y-60784510D01*
X58097690Y-60784510D02*
X58050071Y-60689272D01*
X58050071Y-60689272D02*
X58002452Y-60641653D01*
X58002452Y-60641653D02*
X57907214Y-60594034D01*
X57907214Y-60594034D02*
X57716738Y-60594034D01*
X57716738Y-60594034D02*
X57621500Y-60641653D01*
X57621500Y-60641653D02*
X57573881Y-60689272D01*
X57573881Y-60689272D02*
X57526262Y-60784510D01*
X57526262Y-60784510D02*
X57526262Y-61022605D01*
X57526262Y-61022605D02*
X57573881Y-61117843D01*
X57573881Y-61117843D02*
X57621500Y-61165462D01*
X57621500Y-61165462D02*
X57716738Y-61213081D01*
X57716738Y-61213081D02*
X57907214Y-61213081D01*
X57907214Y-61213081D02*
X58002452Y-61165462D01*
X58002452Y-61165462D02*
X58050071Y-61117843D01*
X58050071Y-61117843D02*
X58097690Y-61022605D01*
X98676262Y-78269034D02*
X98676262Y-78983319D01*
X98676262Y-78983319D02*
X98628643Y-79126176D01*
X98628643Y-79126176D02*
X98533405Y-79221415D01*
X98533405Y-79221415D02*
X98390548Y-79269034D01*
X98390548Y-79269034D02*
X98295310Y-79269034D01*
X99104834Y-78364272D02*
X99152453Y-78316653D01*
X99152453Y-78316653D02*
X99247691Y-78269034D01*
X99247691Y-78269034D02*
X99485786Y-78269034D01*
X99485786Y-78269034D02*
X99581024Y-78316653D01*
X99581024Y-78316653D02*
X99628643Y-78364272D01*
X99628643Y-78364272D02*
X99676262Y-78459510D01*
X99676262Y-78459510D02*
X99676262Y-78554748D01*
X99676262Y-78554748D02*
X99628643Y-78697605D01*
X99628643Y-78697605D02*
X99057215Y-79269034D01*
X99057215Y-79269034D02*
X99676262Y-79269034D01*
X100295310Y-78269034D02*
X100390548Y-78269034D01*
X100390548Y-78269034D02*
X100485786Y-78316653D01*
X100485786Y-78316653D02*
X100533405Y-78364272D01*
X100533405Y-78364272D02*
X100581024Y-78459510D01*
X100581024Y-78459510D02*
X100628643Y-78649986D01*
X100628643Y-78649986D02*
X100628643Y-78888081D01*
X100628643Y-78888081D02*
X100581024Y-79078557D01*
X100581024Y-79078557D02*
X100533405Y-79173795D01*
X100533405Y-79173795D02*
X100485786Y-79221415D01*
X100485786Y-79221415D02*
X100390548Y-79269034D01*
X100390548Y-79269034D02*
X100295310Y-79269034D01*
X100295310Y-79269034D02*
X100200072Y-79221415D01*
X100200072Y-79221415D02*
X100152453Y-79173795D01*
X100152453Y-79173795D02*
X100104834Y-79078557D01*
X100104834Y-79078557D02*
X100057215Y-78888081D01*
X100057215Y-78888081D02*
X100057215Y-78649986D01*
X100057215Y-78649986D02*
X100104834Y-78459510D01*
X100104834Y-78459510D02*
X100152453Y-78364272D01*
X100152453Y-78364272D02*
X100200072Y-78316653D01*
X100200072Y-78316653D02*
X100295310Y-78269034D01*
X138123881Y-62321034D02*
X138695309Y-62321034D01*
X138409595Y-63321034D02*
X138409595Y-62321034D01*
X139028643Y-63321034D02*
X139028643Y-62321034D01*
X139028643Y-62321034D02*
X139409595Y-62321034D01*
X139409595Y-62321034D02*
X139504833Y-62368653D01*
X139504833Y-62368653D02*
X139552452Y-62416272D01*
X139552452Y-62416272D02*
X139600071Y-62511510D01*
X139600071Y-62511510D02*
X139600071Y-62654367D01*
X139600071Y-62654367D02*
X139552452Y-62749605D01*
X139552452Y-62749605D02*
X139504833Y-62797224D01*
X139504833Y-62797224D02*
X139409595Y-62844843D01*
X139409595Y-62844843D02*
X139028643Y-62844843D01*
X140076262Y-63321034D02*
X140266738Y-63321034D01*
X140266738Y-63321034D02*
X140361976Y-63273415D01*
X140361976Y-63273415D02*
X140409595Y-63225795D01*
X140409595Y-63225795D02*
X140504833Y-63082938D01*
X140504833Y-63082938D02*
X140552452Y-62892462D01*
X140552452Y-62892462D02*
X140552452Y-62511510D01*
X140552452Y-62511510D02*
X140504833Y-62416272D01*
X140504833Y-62416272D02*
X140457214Y-62368653D01*
X140457214Y-62368653D02*
X140361976Y-62321034D01*
X140361976Y-62321034D02*
X140171500Y-62321034D01*
X140171500Y-62321034D02*
X140076262Y-62368653D01*
X140076262Y-62368653D02*
X140028643Y-62416272D01*
X140028643Y-62416272D02*
X139981024Y-62511510D01*
X139981024Y-62511510D02*
X139981024Y-62749605D01*
X139981024Y-62749605D02*
X140028643Y-62844843D01*
X140028643Y-62844843D02*
X140076262Y-62892462D01*
X140076262Y-62892462D02*
X140171500Y-62940081D01*
X140171500Y-62940081D02*
X140361976Y-62940081D01*
X140361976Y-62940081D02*
X140457214Y-62892462D01*
X140457214Y-62892462D02*
X140504833Y-62844843D01*
X140504833Y-62844843D02*
X140552452Y-62749605D01*
X134740605Y-50776119D02*
X134740605Y-50204691D01*
X135740605Y-50490405D02*
X134740605Y-50490405D01*
X135740605Y-49871357D02*
X134740605Y-49871357D01*
X134740605Y-49871357D02*
X134740605Y-49490405D01*
X134740605Y-49490405D02*
X134788224Y-49395167D01*
X134788224Y-49395167D02*
X134835843Y-49347548D01*
X134835843Y-49347548D02*
X134931081Y-49299929D01*
X134931081Y-49299929D02*
X135073938Y-49299929D01*
X135073938Y-49299929D02*
X135169176Y-49347548D01*
X135169176Y-49347548D02*
X135216795Y-49395167D01*
X135216795Y-49395167D02*
X135264414Y-49490405D01*
X135264414Y-49490405D02*
X135264414Y-49871357D01*
X134740605Y-48966595D02*
X134740605Y-48299929D01*
X134740605Y-48299929D02*
X135740605Y-48728500D01*
X61092928Y-59598795D02*
X61045309Y-59646415D01*
X61045309Y-59646415D02*
X60902452Y-59694034D01*
X60902452Y-59694034D02*
X60807214Y-59694034D01*
X60807214Y-59694034D02*
X60664357Y-59646415D01*
X60664357Y-59646415D02*
X60569119Y-59551176D01*
X60569119Y-59551176D02*
X60521500Y-59455938D01*
X60521500Y-59455938D02*
X60473881Y-59265462D01*
X60473881Y-59265462D02*
X60473881Y-59122605D01*
X60473881Y-59122605D02*
X60521500Y-58932129D01*
X60521500Y-58932129D02*
X60569119Y-58836891D01*
X60569119Y-58836891D02*
X60664357Y-58741653D01*
X60664357Y-58741653D02*
X60807214Y-58694034D01*
X60807214Y-58694034D02*
X60902452Y-58694034D01*
X60902452Y-58694034D02*
X61045309Y-58741653D01*
X61045309Y-58741653D02*
X61092928Y-58789272D01*
X61473881Y-58789272D02*
X61521500Y-58741653D01*
X61521500Y-58741653D02*
X61616738Y-58694034D01*
X61616738Y-58694034D02*
X61854833Y-58694034D01*
X61854833Y-58694034D02*
X61950071Y-58741653D01*
X61950071Y-58741653D02*
X61997690Y-58789272D01*
X61997690Y-58789272D02*
X62045309Y-58884510D01*
X62045309Y-58884510D02*
X62045309Y-58979748D01*
X62045309Y-58979748D02*
X61997690Y-59122605D01*
X61997690Y-59122605D02*
X61426262Y-59694034D01*
X61426262Y-59694034D02*
X62045309Y-59694034D01*
X62664357Y-58694034D02*
X62759595Y-58694034D01*
X62759595Y-58694034D02*
X62854833Y-58741653D01*
X62854833Y-58741653D02*
X62902452Y-58789272D01*
X62902452Y-58789272D02*
X62950071Y-58884510D01*
X62950071Y-58884510D02*
X62997690Y-59074986D01*
X62997690Y-59074986D02*
X62997690Y-59313081D01*
X62997690Y-59313081D02*
X62950071Y-59503557D01*
X62950071Y-59503557D02*
X62902452Y-59598795D01*
X62902452Y-59598795D02*
X62854833Y-59646415D01*
X62854833Y-59646415D02*
X62759595Y-59694034D01*
X62759595Y-59694034D02*
X62664357Y-59694034D01*
X62664357Y-59694034D02*
X62569119Y-59646415D01*
X62569119Y-59646415D02*
X62521500Y-59598795D01*
X62521500Y-59598795D02*
X62473881Y-59503557D01*
X62473881Y-59503557D02*
X62426262Y-59313081D01*
X62426262Y-59313081D02*
X62426262Y-59074986D01*
X62426262Y-59074986D02*
X62473881Y-58884510D01*
X62473881Y-58884510D02*
X62521500Y-58789272D01*
X62521500Y-58789272D02*
X62569119Y-58741653D01*
X62569119Y-58741653D02*
X62664357Y-58694034D01*
X74623881Y-36971034D02*
X75195309Y-36971034D01*
X74909595Y-37971034D02*
X74909595Y-36971034D01*
X75528643Y-37971034D02*
X75528643Y-36971034D01*
X75528643Y-36971034D02*
X75909595Y-36971034D01*
X75909595Y-36971034D02*
X76004833Y-37018653D01*
X76004833Y-37018653D02*
X76052452Y-37066272D01*
X76052452Y-37066272D02*
X76100071Y-37161510D01*
X76100071Y-37161510D02*
X76100071Y-37304367D01*
X76100071Y-37304367D02*
X76052452Y-37399605D01*
X76052452Y-37399605D02*
X76004833Y-37447224D01*
X76004833Y-37447224D02*
X75909595Y-37494843D01*
X75909595Y-37494843D02*
X75528643Y-37494843D01*
X76957214Y-36971034D02*
X76766738Y-36971034D01*
X76766738Y-36971034D02*
X76671500Y-37018653D01*
X76671500Y-37018653D02*
X76623881Y-37066272D01*
X76623881Y-37066272D02*
X76528643Y-37209129D01*
X76528643Y-37209129D02*
X76481024Y-37399605D01*
X76481024Y-37399605D02*
X76481024Y-37780557D01*
X76481024Y-37780557D02*
X76528643Y-37875795D01*
X76528643Y-37875795D02*
X76576262Y-37923415D01*
X76576262Y-37923415D02*
X76671500Y-37971034D01*
X76671500Y-37971034D02*
X76861976Y-37971034D01*
X76861976Y-37971034D02*
X76957214Y-37923415D01*
X76957214Y-37923415D02*
X77004833Y-37875795D01*
X77004833Y-37875795D02*
X77052452Y-37780557D01*
X77052452Y-37780557D02*
X77052452Y-37542462D01*
X77052452Y-37542462D02*
X77004833Y-37447224D01*
X77004833Y-37447224D02*
X76957214Y-37399605D01*
X76957214Y-37399605D02*
X76861976Y-37351986D01*
X76861976Y-37351986D02*
X76671500Y-37351986D01*
X76671500Y-37351986D02*
X76576262Y-37399605D01*
X76576262Y-37399605D02*
X76528643Y-37447224D01*
X76528643Y-37447224D02*
X76481024Y-37542462D01*
X52352452Y-45069034D02*
X52352452Y-45783319D01*
X52352452Y-45783319D02*
X52304833Y-45926176D01*
X52304833Y-45926176D02*
X52209595Y-46021415D01*
X52209595Y-46021415D02*
X52066738Y-46069034D01*
X52066738Y-46069034D02*
X51971500Y-46069034D01*
X53352452Y-46069034D02*
X52781024Y-46069034D01*
X53066738Y-46069034D02*
X53066738Y-45069034D01*
X53066738Y-45069034D02*
X52971500Y-45211891D01*
X52971500Y-45211891D02*
X52876262Y-45307129D01*
X52876262Y-45307129D02*
X52781024Y-45354748D01*
X71100486Y-31485643D02*
X71100486Y-30342786D01*
X71671914Y-30914214D02*
X70529057Y-30914214D01*
X71100486Y-43785643D02*
X71100486Y-42642786D01*
X128381619Y-73773795D02*
X128334000Y-73821415D01*
X128334000Y-73821415D02*
X128191143Y-73869034D01*
X128191143Y-73869034D02*
X128095905Y-73869034D01*
X128095905Y-73869034D02*
X127953048Y-73821415D01*
X127953048Y-73821415D02*
X127857810Y-73726176D01*
X127857810Y-73726176D02*
X127810191Y-73630938D01*
X127810191Y-73630938D02*
X127762572Y-73440462D01*
X127762572Y-73440462D02*
X127762572Y-73297605D01*
X127762572Y-73297605D02*
X127810191Y-73107129D01*
X127810191Y-73107129D02*
X127857810Y-73011891D01*
X127857810Y-73011891D02*
X127953048Y-72916653D01*
X127953048Y-72916653D02*
X128095905Y-72869034D01*
X128095905Y-72869034D02*
X128191143Y-72869034D01*
X128191143Y-72869034D02*
X128334000Y-72916653D01*
X128334000Y-72916653D02*
X128381619Y-72964272D01*
X129238762Y-73202367D02*
X129238762Y-73869034D01*
X129000667Y-72821415D02*
X128762572Y-73535700D01*
X128762572Y-73535700D02*
X129381619Y-73535700D01*
X155765605Y-81180881D02*
X155289414Y-81514214D01*
X155765605Y-81752309D02*
X154765605Y-81752309D01*
X154765605Y-81752309D02*
X154765605Y-81371357D01*
X154765605Y-81371357D02*
X154813224Y-81276119D01*
X154813224Y-81276119D02*
X154860843Y-81228500D01*
X154860843Y-81228500D02*
X154956081Y-81180881D01*
X154956081Y-81180881D02*
X155098938Y-81180881D01*
X155098938Y-81180881D02*
X155194176Y-81228500D01*
X155194176Y-81228500D02*
X155241795Y-81276119D01*
X155241795Y-81276119D02*
X155289414Y-81371357D01*
X155289414Y-81371357D02*
X155289414Y-81752309D01*
X155098938Y-80323738D02*
X155765605Y-80323738D01*
X154717986Y-80561833D02*
X155432271Y-80799928D01*
X155432271Y-80799928D02*
X155432271Y-80180881D01*
X57460605Y-71753738D02*
X58174890Y-71753738D01*
X58174890Y-71753738D02*
X58317747Y-71801357D01*
X58317747Y-71801357D02*
X58412986Y-71896595D01*
X58412986Y-71896595D02*
X58460605Y-72039452D01*
X58460605Y-72039452D02*
X58460605Y-72134690D01*
X57555843Y-71325166D02*
X57508224Y-71277547D01*
X57508224Y-71277547D02*
X57460605Y-71182309D01*
X57460605Y-71182309D02*
X57460605Y-70944214D01*
X57460605Y-70944214D02*
X57508224Y-70848976D01*
X57508224Y-70848976D02*
X57555843Y-70801357D01*
X57555843Y-70801357D02*
X57651081Y-70753738D01*
X57651081Y-70753738D02*
X57746319Y-70753738D01*
X57746319Y-70753738D02*
X57889176Y-70801357D01*
X57889176Y-70801357D02*
X58460605Y-71372785D01*
X58460605Y-71372785D02*
X58460605Y-70753738D01*
X57460605Y-70420404D02*
X57460605Y-69801357D01*
X57460605Y-69801357D02*
X57841557Y-70134690D01*
X57841557Y-70134690D02*
X57841557Y-69991833D01*
X57841557Y-69991833D02*
X57889176Y-69896595D01*
X57889176Y-69896595D02*
X57936795Y-69848976D01*
X57936795Y-69848976D02*
X58032033Y-69801357D01*
X58032033Y-69801357D02*
X58270128Y-69801357D01*
X58270128Y-69801357D02*
X58365366Y-69848976D01*
X58365366Y-69848976D02*
X58412986Y-69896595D01*
X58412986Y-69896595D02*
X58460605Y-69991833D01*
X58460605Y-69991833D02*
X58460605Y-70277547D01*
X58460605Y-70277547D02*
X58412986Y-70372785D01*
X58412986Y-70372785D02*
X58365366Y-70420404D01*
X65642928Y-67273795D02*
X65595309Y-67321415D01*
X65595309Y-67321415D02*
X65452452Y-67369034D01*
X65452452Y-67369034D02*
X65357214Y-67369034D01*
X65357214Y-67369034D02*
X65214357Y-67321415D01*
X65214357Y-67321415D02*
X65119119Y-67226176D01*
X65119119Y-67226176D02*
X65071500Y-67130938D01*
X65071500Y-67130938D02*
X65023881Y-66940462D01*
X65023881Y-66940462D02*
X65023881Y-66797605D01*
X65023881Y-66797605D02*
X65071500Y-66607129D01*
X65071500Y-66607129D02*
X65119119Y-66511891D01*
X65119119Y-66511891D02*
X65214357Y-66416653D01*
X65214357Y-66416653D02*
X65357214Y-66369034D01*
X65357214Y-66369034D02*
X65452452Y-66369034D01*
X65452452Y-66369034D02*
X65595309Y-66416653D01*
X65595309Y-66416653D02*
X65642928Y-66464272D01*
X66023881Y-66464272D02*
X66071500Y-66416653D01*
X66071500Y-66416653D02*
X66166738Y-66369034D01*
X66166738Y-66369034D02*
X66404833Y-66369034D01*
X66404833Y-66369034D02*
X66500071Y-66416653D01*
X66500071Y-66416653D02*
X66547690Y-66464272D01*
X66547690Y-66464272D02*
X66595309Y-66559510D01*
X66595309Y-66559510D02*
X66595309Y-66654748D01*
X66595309Y-66654748D02*
X66547690Y-66797605D01*
X66547690Y-66797605D02*
X65976262Y-67369034D01*
X65976262Y-67369034D02*
X66595309Y-67369034D01*
X67547690Y-67369034D02*
X66976262Y-67369034D01*
X67261976Y-67369034D02*
X67261976Y-66369034D01*
X67261976Y-66369034D02*
X67166738Y-66511891D01*
X67166738Y-66511891D02*
X67071500Y-66607129D01*
X67071500Y-66607129D02*
X66976262Y-66654748D01*
X117823881Y-79971034D02*
X118395309Y-79971034D01*
X118109595Y-80971034D02*
X118109595Y-79971034D01*
X118728643Y-80971034D02*
X118728643Y-79971034D01*
X118728643Y-79971034D02*
X119109595Y-79971034D01*
X119109595Y-79971034D02*
X119204833Y-80018653D01*
X119204833Y-80018653D02*
X119252452Y-80066272D01*
X119252452Y-80066272D02*
X119300071Y-80161510D01*
X119300071Y-80161510D02*
X119300071Y-80304367D01*
X119300071Y-80304367D02*
X119252452Y-80399605D01*
X119252452Y-80399605D02*
X119204833Y-80447224D01*
X119204833Y-80447224D02*
X119109595Y-80494843D01*
X119109595Y-80494843D02*
X118728643Y-80494843D01*
X119633405Y-79971034D02*
X120252452Y-79971034D01*
X120252452Y-79971034D02*
X119919119Y-80351986D01*
X119919119Y-80351986D02*
X120061976Y-80351986D01*
X120061976Y-80351986D02*
X120157214Y-80399605D01*
X120157214Y-80399605D02*
X120204833Y-80447224D01*
X120204833Y-80447224D02*
X120252452Y-80542462D01*
X120252452Y-80542462D02*
X120252452Y-80780557D01*
X120252452Y-80780557D02*
X120204833Y-80875795D01*
X120204833Y-80875795D02*
X120157214Y-80923415D01*
X120157214Y-80923415D02*
X120061976Y-80971034D01*
X120061976Y-80971034D02*
X119776262Y-80971034D01*
X119776262Y-80971034D02*
X119681024Y-80923415D01*
X119681024Y-80923415D02*
X119633405Y-80875795D01*
X115342928Y-75869034D02*
X115009595Y-75392843D01*
X114771500Y-75869034D02*
X114771500Y-74869034D01*
X114771500Y-74869034D02*
X115152452Y-74869034D01*
X115152452Y-74869034D02*
X115247690Y-74916653D01*
X115247690Y-74916653D02*
X115295309Y-74964272D01*
X115295309Y-74964272D02*
X115342928Y-75059510D01*
X115342928Y-75059510D02*
X115342928Y-75202367D01*
X115342928Y-75202367D02*
X115295309Y-75297605D01*
X115295309Y-75297605D02*
X115247690Y-75345224D01*
X115247690Y-75345224D02*
X115152452Y-75392843D01*
X115152452Y-75392843D02*
X114771500Y-75392843D01*
X116295309Y-75869034D02*
X115723881Y-75869034D01*
X116009595Y-75869034D02*
X116009595Y-74869034D01*
X116009595Y-74869034D02*
X115914357Y-75011891D01*
X115914357Y-75011891D02*
X115819119Y-75107129D01*
X115819119Y-75107129D02*
X115723881Y-75154748D01*
X117152452Y-74869034D02*
X116961976Y-74869034D01*
X116961976Y-74869034D02*
X116866738Y-74916653D01*
X116866738Y-74916653D02*
X116819119Y-74964272D01*
X116819119Y-74964272D02*
X116723881Y-75107129D01*
X116723881Y-75107129D02*
X116676262Y-75297605D01*
X116676262Y-75297605D02*
X116676262Y-75678557D01*
X116676262Y-75678557D02*
X116723881Y-75773795D01*
X116723881Y-75773795D02*
X116771500Y-75821415D01*
X116771500Y-75821415D02*
X116866738Y-75869034D01*
X116866738Y-75869034D02*
X117057214Y-75869034D01*
X117057214Y-75869034D02*
X117152452Y-75821415D01*
X117152452Y-75821415D02*
X117200071Y-75773795D01*
X117200071Y-75773795D02*
X117247690Y-75678557D01*
X117247690Y-75678557D02*
X117247690Y-75440462D01*
X117247690Y-75440462D02*
X117200071Y-75345224D01*
X117200071Y-75345224D02*
X117152452Y-75297605D01*
X117152452Y-75297605D02*
X117057214Y-75249986D01*
X117057214Y-75249986D02*
X116866738Y-75249986D01*
X116866738Y-75249986D02*
X116771500Y-75297605D01*
X116771500Y-75297605D02*
X116723881Y-75345224D01*
X116723881Y-75345224D02*
X116676262Y-75440462D01*
X123723881Y-70569034D02*
X123723881Y-71378557D01*
X123723881Y-71378557D02*
X123771500Y-71473795D01*
X123771500Y-71473795D02*
X123819119Y-71521415D01*
X123819119Y-71521415D02*
X123914357Y-71569034D01*
X123914357Y-71569034D02*
X124104833Y-71569034D01*
X124104833Y-71569034D02*
X124200071Y-71521415D01*
X124200071Y-71521415D02*
X124247690Y-71473795D01*
X124247690Y-71473795D02*
X124295309Y-71378557D01*
X124295309Y-71378557D02*
X124295309Y-70569034D01*
X125295309Y-71569034D02*
X124723881Y-71569034D01*
X125009595Y-71569034D02*
X125009595Y-70569034D01*
X125009595Y-70569034D02*
X124914357Y-70711891D01*
X124914357Y-70711891D02*
X124819119Y-70807129D01*
X124819119Y-70807129D02*
X124723881Y-70854748D01*
X77923881Y-37071034D02*
X78495309Y-37071034D01*
X78209595Y-38071034D02*
X78209595Y-37071034D01*
X78828643Y-38071034D02*
X78828643Y-37071034D01*
X78828643Y-37071034D02*
X79209595Y-37071034D01*
X79209595Y-37071034D02*
X79304833Y-37118653D01*
X79304833Y-37118653D02*
X79352452Y-37166272D01*
X79352452Y-37166272D02*
X79400071Y-37261510D01*
X79400071Y-37261510D02*
X79400071Y-37404367D01*
X79400071Y-37404367D02*
X79352452Y-37499605D01*
X79352452Y-37499605D02*
X79304833Y-37547224D01*
X79304833Y-37547224D02*
X79209595Y-37594843D01*
X79209595Y-37594843D02*
X78828643Y-37594843D01*
X80304833Y-37071034D02*
X79828643Y-37071034D01*
X79828643Y-37071034D02*
X79781024Y-37547224D01*
X79781024Y-37547224D02*
X79828643Y-37499605D01*
X79828643Y-37499605D02*
X79923881Y-37451986D01*
X79923881Y-37451986D02*
X80161976Y-37451986D01*
X80161976Y-37451986D02*
X80257214Y-37499605D01*
X80257214Y-37499605D02*
X80304833Y-37547224D01*
X80304833Y-37547224D02*
X80352452Y-37642462D01*
X80352452Y-37642462D02*
X80352452Y-37880557D01*
X80352452Y-37880557D02*
X80304833Y-37975795D01*
X80304833Y-37975795D02*
X80257214Y-38023415D01*
X80257214Y-38023415D02*
X80161976Y-38071034D01*
X80161976Y-38071034D02*
X79923881Y-38071034D01*
X79923881Y-38071034D02*
X79828643Y-38023415D01*
X79828643Y-38023415D02*
X79781024Y-37975795D01*
X133076262Y-72569034D02*
X133076262Y-73283319D01*
X133076262Y-73283319D02*
X133028643Y-73426176D01*
X133028643Y-73426176D02*
X132933405Y-73521415D01*
X132933405Y-73521415D02*
X132790548Y-73569034D01*
X132790548Y-73569034D02*
X132695310Y-73569034D01*
X134076262Y-73569034D02*
X133504834Y-73569034D01*
X133790548Y-73569034D02*
X133790548Y-72569034D01*
X133790548Y-72569034D02*
X133695310Y-72711891D01*
X133695310Y-72711891D02*
X133600072Y-72807129D01*
X133600072Y-72807129D02*
X133504834Y-72854748D01*
X134409596Y-72569034D02*
X135076262Y-72569034D01*
X135076262Y-72569034D02*
X134647691Y-73569034D01*
X123440605Y-41547548D02*
X124154890Y-41547548D01*
X124154890Y-41547548D02*
X124297747Y-41595167D01*
X124297747Y-41595167D02*
X124392986Y-41690405D01*
X124392986Y-41690405D02*
X124440605Y-41833262D01*
X124440605Y-41833262D02*
X124440605Y-41928500D01*
X123440605Y-41166595D02*
X123440605Y-40499929D01*
X123440605Y-40499929D02*
X124440605Y-40928500D01*
X127450486Y-30785643D02*
X127450486Y-29642786D01*
X127450486Y-43785643D02*
X127450486Y-42642786D01*
X128021914Y-43214214D02*
X126879057Y-43214214D01*
X143219119Y-48244034D02*
X142885786Y-47767843D01*
X142647691Y-48244034D02*
X142647691Y-47244034D01*
X142647691Y-47244034D02*
X143028643Y-47244034D01*
X143028643Y-47244034D02*
X143123881Y-47291653D01*
X143123881Y-47291653D02*
X143171500Y-47339272D01*
X143171500Y-47339272D02*
X143219119Y-47434510D01*
X143219119Y-47434510D02*
X143219119Y-47577367D01*
X143219119Y-47577367D02*
X143171500Y-47672605D01*
X143171500Y-47672605D02*
X143123881Y-47720224D01*
X143123881Y-47720224D02*
X143028643Y-47767843D01*
X143028643Y-47767843D02*
X142647691Y-47767843D01*
X143790548Y-47672605D02*
X143695310Y-47624986D01*
X143695310Y-47624986D02*
X143647691Y-47577367D01*
X143647691Y-47577367D02*
X143600072Y-47482129D01*
X143600072Y-47482129D02*
X143600072Y-47434510D01*
X143600072Y-47434510D02*
X143647691Y-47339272D01*
X143647691Y-47339272D02*
X143695310Y-47291653D01*
X143695310Y-47291653D02*
X143790548Y-47244034D01*
X143790548Y-47244034D02*
X143981024Y-47244034D01*
X143981024Y-47244034D02*
X144076262Y-47291653D01*
X144076262Y-47291653D02*
X144123881Y-47339272D01*
X144123881Y-47339272D02*
X144171500Y-47434510D01*
X144171500Y-47434510D02*
X144171500Y-47482129D01*
X144171500Y-47482129D02*
X144123881Y-47577367D01*
X144123881Y-47577367D02*
X144076262Y-47624986D01*
X144076262Y-47624986D02*
X143981024Y-47672605D01*
X143981024Y-47672605D02*
X143790548Y-47672605D01*
X143790548Y-47672605D02*
X143695310Y-47720224D01*
X143695310Y-47720224D02*
X143647691Y-47767843D01*
X143647691Y-47767843D02*
X143600072Y-47863081D01*
X143600072Y-47863081D02*
X143600072Y-48053557D01*
X143600072Y-48053557D02*
X143647691Y-48148795D01*
X143647691Y-48148795D02*
X143695310Y-48196415D01*
X143695310Y-48196415D02*
X143790548Y-48244034D01*
X143790548Y-48244034D02*
X143981024Y-48244034D01*
X143981024Y-48244034D02*
X144076262Y-48196415D01*
X144076262Y-48196415D02*
X144123881Y-48148795D01*
X144123881Y-48148795D02*
X144171500Y-48053557D01*
X144171500Y-48053557D02*
X144171500Y-47863081D01*
X144171500Y-47863081D02*
X144123881Y-47767843D01*
X144123881Y-47767843D02*
X144076262Y-47720224D01*
X144076262Y-47720224D02*
X143981024Y-47672605D01*
X101640605Y-41523738D02*
X102354890Y-41523738D01*
X102354890Y-41523738D02*
X102497747Y-41571357D01*
X102497747Y-41571357D02*
X102592986Y-41666595D01*
X102592986Y-41666595D02*
X102640605Y-41809452D01*
X102640605Y-41809452D02*
X102640605Y-41904690D01*
X102640605Y-40523738D02*
X102640605Y-41095166D01*
X102640605Y-40809452D02*
X101640605Y-40809452D01*
X101640605Y-40809452D02*
X101783462Y-40904690D01*
X101783462Y-40904690D02*
X101878700Y-40999928D01*
X101878700Y-40999928D02*
X101926319Y-41095166D01*
X101640605Y-39904690D02*
X101640605Y-39809452D01*
X101640605Y-39809452D02*
X101688224Y-39714214D01*
X101688224Y-39714214D02*
X101735843Y-39666595D01*
X101735843Y-39666595D02*
X101831081Y-39618976D01*
X101831081Y-39618976D02*
X102021557Y-39571357D01*
X102021557Y-39571357D02*
X102259652Y-39571357D01*
X102259652Y-39571357D02*
X102450128Y-39618976D01*
X102450128Y-39618976D02*
X102545366Y-39666595D01*
X102545366Y-39666595D02*
X102592986Y-39714214D01*
X102592986Y-39714214D02*
X102640605Y-39809452D01*
X102640605Y-39809452D02*
X102640605Y-39904690D01*
X102640605Y-39904690D02*
X102592986Y-39999928D01*
X102592986Y-39999928D02*
X102545366Y-40047547D01*
X102545366Y-40047547D02*
X102450128Y-40095166D01*
X102450128Y-40095166D02*
X102259652Y-40142785D01*
X102259652Y-40142785D02*
X102021557Y-40142785D01*
X102021557Y-40142785D02*
X101831081Y-40095166D01*
X101831081Y-40095166D02*
X101735843Y-40047547D01*
X101735843Y-40047547D02*
X101688224Y-39999928D01*
X101688224Y-39999928D02*
X101640605Y-39904690D01*
X105700486Y-30785643D02*
X105700486Y-29642786D01*
X105700486Y-43785643D02*
X105700486Y-42642786D01*
X106271914Y-43214214D02*
X105129057Y-43214214D01*
X81334596Y-45134034D02*
X81334596Y-44134034D01*
X82382214Y-45038795D02*
X82334595Y-45086415D01*
X82334595Y-45086415D02*
X82191738Y-45134034D01*
X82191738Y-45134034D02*
X82096500Y-45134034D01*
X82096500Y-45134034D02*
X81953643Y-45086415D01*
X81953643Y-45086415D02*
X81858405Y-44991176D01*
X81858405Y-44991176D02*
X81810786Y-44895938D01*
X81810786Y-44895938D02*
X81763167Y-44705462D01*
X81763167Y-44705462D02*
X81763167Y-44562605D01*
X81763167Y-44562605D02*
X81810786Y-44372129D01*
X81810786Y-44372129D02*
X81858405Y-44276891D01*
X81858405Y-44276891D02*
X81953643Y-44181653D01*
X81953643Y-44181653D02*
X82096500Y-44134034D01*
X82096500Y-44134034D02*
X82191738Y-44134034D01*
X82191738Y-44134034D02*
X82334595Y-44181653D01*
X82334595Y-44181653D02*
X82382214Y-44229272D01*
X83334595Y-45134034D02*
X82763167Y-45134034D01*
X83048881Y-45134034D02*
X83048881Y-44134034D01*
X83048881Y-44134034D02*
X82953643Y-44276891D01*
X82953643Y-44276891D02*
X82858405Y-44372129D01*
X82858405Y-44372129D02*
X82763167Y-44419748D01*
X56192928Y-65694034D02*
X55859595Y-65217843D01*
X55621500Y-65694034D02*
X55621500Y-64694034D01*
X55621500Y-64694034D02*
X56002452Y-64694034D01*
X56002452Y-64694034D02*
X56097690Y-64741653D01*
X56097690Y-64741653D02*
X56145309Y-64789272D01*
X56145309Y-64789272D02*
X56192928Y-64884510D01*
X56192928Y-64884510D02*
X56192928Y-65027367D01*
X56192928Y-65027367D02*
X56145309Y-65122605D01*
X56145309Y-65122605D02*
X56097690Y-65170224D01*
X56097690Y-65170224D02*
X56002452Y-65217843D01*
X56002452Y-65217843D02*
X55621500Y-65217843D01*
X56573881Y-64789272D02*
X56621500Y-64741653D01*
X56621500Y-64741653D02*
X56716738Y-64694034D01*
X56716738Y-64694034D02*
X56954833Y-64694034D01*
X56954833Y-64694034D02*
X57050071Y-64741653D01*
X57050071Y-64741653D02*
X57097690Y-64789272D01*
X57097690Y-64789272D02*
X57145309Y-64884510D01*
X57145309Y-64884510D02*
X57145309Y-64979748D01*
X57145309Y-64979748D02*
X57097690Y-65122605D01*
X57097690Y-65122605D02*
X56526262Y-65694034D01*
X56526262Y-65694034D02*
X57145309Y-65694034D01*
X57716738Y-65122605D02*
X57621500Y-65074986D01*
X57621500Y-65074986D02*
X57573881Y-65027367D01*
X57573881Y-65027367D02*
X57526262Y-64932129D01*
X57526262Y-64932129D02*
X57526262Y-64884510D01*
X57526262Y-64884510D02*
X57573881Y-64789272D01*
X57573881Y-64789272D02*
X57621500Y-64741653D01*
X57621500Y-64741653D02*
X57716738Y-64694034D01*
X57716738Y-64694034D02*
X57907214Y-64694034D01*
X57907214Y-64694034D02*
X58002452Y-64741653D01*
X58002452Y-64741653D02*
X58050071Y-64789272D01*
X58050071Y-64789272D02*
X58097690Y-64884510D01*
X58097690Y-64884510D02*
X58097690Y-64932129D01*
X58097690Y-64932129D02*
X58050071Y-65027367D01*
X58050071Y-65027367D02*
X58002452Y-65074986D01*
X58002452Y-65074986D02*
X57907214Y-65122605D01*
X57907214Y-65122605D02*
X57716738Y-65122605D01*
X57716738Y-65122605D02*
X57621500Y-65170224D01*
X57621500Y-65170224D02*
X57573881Y-65217843D01*
X57573881Y-65217843D02*
X57526262Y-65313081D01*
X57526262Y-65313081D02*
X57526262Y-65503557D01*
X57526262Y-65503557D02*
X57573881Y-65598795D01*
X57573881Y-65598795D02*
X57621500Y-65646415D01*
X57621500Y-65646415D02*
X57716738Y-65694034D01*
X57716738Y-65694034D02*
X57907214Y-65694034D01*
X57907214Y-65694034D02*
X58002452Y-65646415D01*
X58002452Y-65646415D02*
X58050071Y-65598795D01*
X58050071Y-65598795D02*
X58097690Y-65503557D01*
X58097690Y-65503557D02*
X58097690Y-65313081D01*
X58097690Y-65313081D02*
X58050071Y-65217843D01*
X58050071Y-65217843D02*
X58002452Y-65170224D01*
X58002452Y-65170224D02*
X57907214Y-65122605D01*
X143840605Y-80673738D02*
X144554890Y-80673738D01*
X144554890Y-80673738D02*
X144697747Y-80721357D01*
X144697747Y-80721357D02*
X144792986Y-80816595D01*
X144792986Y-80816595D02*
X144840605Y-80959452D01*
X144840605Y-80959452D02*
X144840605Y-81054690D01*
X143935843Y-80245166D02*
X143888224Y-80197547D01*
X143888224Y-80197547D02*
X143840605Y-80102309D01*
X143840605Y-80102309D02*
X143840605Y-79864214D01*
X143840605Y-79864214D02*
X143888224Y-79768976D01*
X143888224Y-79768976D02*
X143935843Y-79721357D01*
X143935843Y-79721357D02*
X144031081Y-79673738D01*
X144031081Y-79673738D02*
X144126319Y-79673738D01*
X144126319Y-79673738D02*
X144269176Y-79721357D01*
X144269176Y-79721357D02*
X144840605Y-80292785D01*
X144840605Y-80292785D02*
X144840605Y-79673738D01*
X144840605Y-78721357D02*
X144840605Y-79292785D01*
X144840605Y-79007071D02*
X143840605Y-79007071D01*
X143840605Y-79007071D02*
X143983462Y-79102309D01*
X143983462Y-79102309D02*
X144078700Y-79197547D01*
X144078700Y-79197547D02*
X144126319Y-79292785D01*
X89940605Y-53857072D02*
X89464414Y-54190405D01*
X89940605Y-54428500D02*
X88940605Y-54428500D01*
X88940605Y-54428500D02*
X88940605Y-54047548D01*
X88940605Y-54047548D02*
X88988224Y-53952310D01*
X88988224Y-53952310D02*
X89035843Y-53904691D01*
X89035843Y-53904691D02*
X89131081Y-53857072D01*
X89131081Y-53857072D02*
X89273938Y-53857072D01*
X89273938Y-53857072D02*
X89369176Y-53904691D01*
X89369176Y-53904691D02*
X89416795Y-53952310D01*
X89416795Y-53952310D02*
X89464414Y-54047548D01*
X89464414Y-54047548D02*
X89464414Y-54428500D01*
X89035843Y-53476119D02*
X88988224Y-53428500D01*
X88988224Y-53428500D02*
X88940605Y-53333262D01*
X88940605Y-53333262D02*
X88940605Y-53095167D01*
X88940605Y-53095167D02*
X88988224Y-52999929D01*
X88988224Y-52999929D02*
X89035843Y-52952310D01*
X89035843Y-52952310D02*
X89131081Y-52904691D01*
X89131081Y-52904691D02*
X89226319Y-52904691D01*
X89226319Y-52904691D02*
X89369176Y-52952310D01*
X89369176Y-52952310D02*
X89940605Y-53523738D01*
X89940605Y-53523738D02*
X89940605Y-52904691D01*
X89273938Y-52047548D02*
X89940605Y-52047548D01*
X88892986Y-52285643D02*
X89607271Y-52523738D01*
X89607271Y-52523738D02*
X89607271Y-51904691D01*
X144942928Y-82419034D02*
X144609595Y-81942843D01*
X144371500Y-82419034D02*
X144371500Y-81419034D01*
X144371500Y-81419034D02*
X144752452Y-81419034D01*
X144752452Y-81419034D02*
X144847690Y-81466653D01*
X144847690Y-81466653D02*
X144895309Y-81514272D01*
X144895309Y-81514272D02*
X144942928Y-81609510D01*
X144942928Y-81609510D02*
X144942928Y-81752367D01*
X144942928Y-81752367D02*
X144895309Y-81847605D01*
X144895309Y-81847605D02*
X144847690Y-81895224D01*
X144847690Y-81895224D02*
X144752452Y-81942843D01*
X144752452Y-81942843D02*
X144371500Y-81942843D01*
X145276262Y-81419034D02*
X145895309Y-81419034D01*
X145895309Y-81419034D02*
X145561976Y-81799986D01*
X145561976Y-81799986D02*
X145704833Y-81799986D01*
X145704833Y-81799986D02*
X145800071Y-81847605D01*
X145800071Y-81847605D02*
X145847690Y-81895224D01*
X145847690Y-81895224D02*
X145895309Y-81990462D01*
X145895309Y-81990462D02*
X145895309Y-82228557D01*
X145895309Y-82228557D02*
X145847690Y-82323795D01*
X145847690Y-82323795D02*
X145800071Y-82371415D01*
X145800071Y-82371415D02*
X145704833Y-82419034D01*
X145704833Y-82419034D02*
X145419119Y-82419034D01*
X145419119Y-82419034D02*
X145323881Y-82371415D01*
X145323881Y-82371415D02*
X145276262Y-82323795D01*
X146847690Y-82419034D02*
X146276262Y-82419034D01*
X146561976Y-82419034D02*
X146561976Y-81419034D01*
X146561976Y-81419034D02*
X146466738Y-81561891D01*
X146466738Y-81561891D02*
X146371500Y-81657129D01*
X146371500Y-81657129D02*
X146276262Y-81704748D01*
X129990605Y-50923738D02*
X130704890Y-50923738D01*
X130704890Y-50923738D02*
X130847747Y-50971357D01*
X130847747Y-50971357D02*
X130942986Y-51066595D01*
X130942986Y-51066595D02*
X130990605Y-51209452D01*
X130990605Y-51209452D02*
X130990605Y-51304690D01*
X130085843Y-50495166D02*
X130038224Y-50447547D01*
X130038224Y-50447547D02*
X129990605Y-50352309D01*
X129990605Y-50352309D02*
X129990605Y-50114214D01*
X129990605Y-50114214D02*
X130038224Y-50018976D01*
X130038224Y-50018976D02*
X130085843Y-49971357D01*
X130085843Y-49971357D02*
X130181081Y-49923738D01*
X130181081Y-49923738D02*
X130276319Y-49923738D01*
X130276319Y-49923738D02*
X130419176Y-49971357D01*
X130419176Y-49971357D02*
X130990605Y-50542785D01*
X130990605Y-50542785D02*
X130990605Y-49923738D01*
X129990605Y-49066595D02*
X129990605Y-49257071D01*
X129990605Y-49257071D02*
X130038224Y-49352309D01*
X130038224Y-49352309D02*
X130085843Y-49399928D01*
X130085843Y-49399928D02*
X130228700Y-49495166D01*
X130228700Y-49495166D02*
X130419176Y-49542785D01*
X130419176Y-49542785D02*
X130800128Y-49542785D01*
X130800128Y-49542785D02*
X130895366Y-49495166D01*
X130895366Y-49495166D02*
X130942986Y-49447547D01*
X130942986Y-49447547D02*
X130990605Y-49352309D01*
X130990605Y-49352309D02*
X130990605Y-49161833D01*
X130990605Y-49161833D02*
X130942986Y-49066595D01*
X130942986Y-49066595D02*
X130895366Y-49018976D01*
X130895366Y-49018976D02*
X130800128Y-48971357D01*
X130800128Y-48971357D02*
X130562033Y-48971357D01*
X130562033Y-48971357D02*
X130466795Y-49018976D01*
X130466795Y-49018976D02*
X130419176Y-49066595D01*
X130419176Y-49066595D02*
X130371557Y-49161833D01*
X130371557Y-49161833D02*
X130371557Y-49352309D01*
X130371557Y-49352309D02*
X130419176Y-49447547D01*
X130419176Y-49447547D02*
X130466795Y-49495166D01*
X130466795Y-49495166D02*
X130562033Y-49542785D01*
X115342928Y-77969034D02*
X115009595Y-77492843D01*
X114771500Y-77969034D02*
X114771500Y-76969034D01*
X114771500Y-76969034D02*
X115152452Y-76969034D01*
X115152452Y-76969034D02*
X115247690Y-77016653D01*
X115247690Y-77016653D02*
X115295309Y-77064272D01*
X115295309Y-77064272D02*
X115342928Y-77159510D01*
X115342928Y-77159510D02*
X115342928Y-77302367D01*
X115342928Y-77302367D02*
X115295309Y-77397605D01*
X115295309Y-77397605D02*
X115247690Y-77445224D01*
X115247690Y-77445224D02*
X115152452Y-77492843D01*
X115152452Y-77492843D02*
X114771500Y-77492843D01*
X116295309Y-77969034D02*
X115723881Y-77969034D01*
X116009595Y-77969034D02*
X116009595Y-76969034D01*
X116009595Y-76969034D02*
X115914357Y-77111891D01*
X115914357Y-77111891D02*
X115819119Y-77207129D01*
X115819119Y-77207129D02*
X115723881Y-77254748D01*
X117200071Y-76969034D02*
X116723881Y-76969034D01*
X116723881Y-76969034D02*
X116676262Y-77445224D01*
X116676262Y-77445224D02*
X116723881Y-77397605D01*
X116723881Y-77397605D02*
X116819119Y-77349986D01*
X116819119Y-77349986D02*
X117057214Y-77349986D01*
X117057214Y-77349986D02*
X117152452Y-77397605D01*
X117152452Y-77397605D02*
X117200071Y-77445224D01*
X117200071Y-77445224D02*
X117247690Y-77540462D01*
X117247690Y-77540462D02*
X117247690Y-77778557D01*
X117247690Y-77778557D02*
X117200071Y-77873795D01*
X117200071Y-77873795D02*
X117152452Y-77921415D01*
X117152452Y-77921415D02*
X117057214Y-77969034D01*
X117057214Y-77969034D02*
X116819119Y-77969034D01*
X116819119Y-77969034D02*
X116723881Y-77921415D01*
X116723881Y-77921415D02*
X116676262Y-77873795D01*
X122352452Y-72969034D02*
X122352452Y-73683319D01*
X122352452Y-73683319D02*
X122304833Y-73826176D01*
X122304833Y-73826176D02*
X122209595Y-73921415D01*
X122209595Y-73921415D02*
X122066738Y-73969034D01*
X122066738Y-73969034D02*
X121971500Y-73969034D01*
X123304833Y-72969034D02*
X122828643Y-72969034D01*
X122828643Y-72969034D02*
X122781024Y-73445224D01*
X122781024Y-73445224D02*
X122828643Y-73397605D01*
X122828643Y-73397605D02*
X122923881Y-73349986D01*
X122923881Y-73349986D02*
X123161976Y-73349986D01*
X123161976Y-73349986D02*
X123257214Y-73397605D01*
X123257214Y-73397605D02*
X123304833Y-73445224D01*
X123304833Y-73445224D02*
X123352452Y-73540462D01*
X123352452Y-73540462D02*
X123352452Y-73778557D01*
X123352452Y-73778557D02*
X123304833Y-73873795D01*
X123304833Y-73873795D02*
X123257214Y-73921415D01*
X123257214Y-73921415D02*
X123161976Y-73969034D01*
X123161976Y-73969034D02*
X122923881Y-73969034D01*
X122923881Y-73969034D02*
X122828643Y-73921415D01*
X122828643Y-73921415D02*
X122781024Y-73873795D01*
X128870366Y-64320881D02*
X128917986Y-64368500D01*
X128917986Y-64368500D02*
X128965605Y-64511357D01*
X128965605Y-64511357D02*
X128965605Y-64606595D01*
X128965605Y-64606595D02*
X128917986Y-64749452D01*
X128917986Y-64749452D02*
X128822747Y-64844690D01*
X128822747Y-64844690D02*
X128727509Y-64892309D01*
X128727509Y-64892309D02*
X128537033Y-64939928D01*
X128537033Y-64939928D02*
X128394176Y-64939928D01*
X128394176Y-64939928D02*
X128203700Y-64892309D01*
X128203700Y-64892309D02*
X128108462Y-64844690D01*
X128108462Y-64844690D02*
X128013224Y-64749452D01*
X128013224Y-64749452D02*
X127965605Y-64606595D01*
X127965605Y-64606595D02*
X127965605Y-64511357D01*
X127965605Y-64511357D02*
X128013224Y-64368500D01*
X128013224Y-64368500D02*
X128060843Y-64320881D01*
X128060843Y-63939928D02*
X128013224Y-63892309D01*
X128013224Y-63892309D02*
X127965605Y-63797071D01*
X127965605Y-63797071D02*
X127965605Y-63558976D01*
X127965605Y-63558976D02*
X128013224Y-63463738D01*
X128013224Y-63463738D02*
X128060843Y-63416119D01*
X128060843Y-63416119D02*
X128156081Y-63368500D01*
X128156081Y-63368500D02*
X128251319Y-63368500D01*
X128251319Y-63368500D02*
X128394176Y-63416119D01*
X128394176Y-63416119D02*
X128965605Y-63987547D01*
X128965605Y-63987547D02*
X128965605Y-63368500D01*
X130640605Y-41547548D02*
X131354890Y-41547548D01*
X131354890Y-41547548D02*
X131497747Y-41595167D01*
X131497747Y-41595167D02*
X131592986Y-41690405D01*
X131592986Y-41690405D02*
X131640605Y-41833262D01*
X131640605Y-41833262D02*
X131640605Y-41928500D01*
X130640605Y-40642786D02*
X130640605Y-40833262D01*
X130640605Y-40833262D02*
X130688224Y-40928500D01*
X130688224Y-40928500D02*
X130735843Y-40976119D01*
X130735843Y-40976119D02*
X130878700Y-41071357D01*
X130878700Y-41071357D02*
X131069176Y-41118976D01*
X131069176Y-41118976D02*
X131450128Y-41118976D01*
X131450128Y-41118976D02*
X131545366Y-41071357D01*
X131545366Y-41071357D02*
X131592986Y-41023738D01*
X131592986Y-41023738D02*
X131640605Y-40928500D01*
X131640605Y-40928500D02*
X131640605Y-40738024D01*
X131640605Y-40738024D02*
X131592986Y-40642786D01*
X131592986Y-40642786D02*
X131545366Y-40595167D01*
X131545366Y-40595167D02*
X131450128Y-40547548D01*
X131450128Y-40547548D02*
X131212033Y-40547548D01*
X131212033Y-40547548D02*
X131116795Y-40595167D01*
X131116795Y-40595167D02*
X131069176Y-40642786D01*
X131069176Y-40642786D02*
X131021557Y-40738024D01*
X131021557Y-40738024D02*
X131021557Y-40928500D01*
X131021557Y-40928500D02*
X131069176Y-41023738D01*
X131069176Y-41023738D02*
X131116795Y-41071357D01*
X131116795Y-41071357D02*
X131212033Y-41118976D01*
X134700486Y-43785643D02*
X134700486Y-42642786D01*
X135271914Y-43214214D02*
X134129057Y-43214214D01*
X134700486Y-30785643D02*
X134700486Y-29642786D01*
X152345366Y-83357072D02*
X152392986Y-83404691D01*
X152392986Y-83404691D02*
X152440605Y-83547548D01*
X152440605Y-83547548D02*
X152440605Y-83642786D01*
X152440605Y-83642786D02*
X152392986Y-83785643D01*
X152392986Y-83785643D02*
X152297747Y-83880881D01*
X152297747Y-83880881D02*
X152202509Y-83928500D01*
X152202509Y-83928500D02*
X152012033Y-83976119D01*
X152012033Y-83976119D02*
X151869176Y-83976119D01*
X151869176Y-83976119D02*
X151678700Y-83928500D01*
X151678700Y-83928500D02*
X151583462Y-83880881D01*
X151583462Y-83880881D02*
X151488224Y-83785643D01*
X151488224Y-83785643D02*
X151440605Y-83642786D01*
X151440605Y-83642786D02*
X151440605Y-83547548D01*
X151440605Y-83547548D02*
X151488224Y-83404691D01*
X151488224Y-83404691D02*
X151535843Y-83357072D01*
X152440605Y-82404691D02*
X152440605Y-82976119D01*
X152440605Y-82690405D02*
X151440605Y-82690405D01*
X151440605Y-82690405D02*
X151583462Y-82785643D01*
X151583462Y-82785643D02*
X151678700Y-82880881D01*
X151678700Y-82880881D02*
X151726319Y-82976119D01*
X151440605Y-81499929D02*
X151440605Y-81976119D01*
X151440605Y-81976119D02*
X151916795Y-82023738D01*
X151916795Y-82023738D02*
X151869176Y-81976119D01*
X151869176Y-81976119D02*
X151821557Y-81880881D01*
X151821557Y-81880881D02*
X151821557Y-81642786D01*
X151821557Y-81642786D02*
X151869176Y-81547548D01*
X151869176Y-81547548D02*
X151916795Y-81499929D01*
X151916795Y-81499929D02*
X152012033Y-81452310D01*
X152012033Y-81452310D02*
X152250128Y-81452310D01*
X152250128Y-81452310D02*
X152345366Y-81499929D01*
X152345366Y-81499929D02*
X152392986Y-81547548D01*
X152392986Y-81547548D02*
X152440605Y-81642786D01*
X152440605Y-81642786D02*
X152440605Y-81880881D01*
X152440605Y-81880881D02*
X152392986Y-81976119D01*
X152392986Y-81976119D02*
X152345366Y-82023738D01*
X143019119Y-72573795D02*
X142971500Y-72621415D01*
X142971500Y-72621415D02*
X142828643Y-72669034D01*
X142828643Y-72669034D02*
X142733405Y-72669034D01*
X142733405Y-72669034D02*
X142590548Y-72621415D01*
X142590548Y-72621415D02*
X142495310Y-72526176D01*
X142495310Y-72526176D02*
X142447691Y-72430938D01*
X142447691Y-72430938D02*
X142400072Y-72240462D01*
X142400072Y-72240462D02*
X142400072Y-72097605D01*
X142400072Y-72097605D02*
X142447691Y-71907129D01*
X142447691Y-71907129D02*
X142495310Y-71811891D01*
X142495310Y-71811891D02*
X142590548Y-71716653D01*
X142590548Y-71716653D02*
X142733405Y-71669034D01*
X142733405Y-71669034D02*
X142828643Y-71669034D01*
X142828643Y-71669034D02*
X142971500Y-71716653D01*
X142971500Y-71716653D02*
X143019119Y-71764272D01*
X143923881Y-71669034D02*
X143447691Y-71669034D01*
X143447691Y-71669034D02*
X143400072Y-72145224D01*
X143400072Y-72145224D02*
X143447691Y-72097605D01*
X143447691Y-72097605D02*
X143542929Y-72049986D01*
X143542929Y-72049986D02*
X143781024Y-72049986D01*
X143781024Y-72049986D02*
X143876262Y-72097605D01*
X143876262Y-72097605D02*
X143923881Y-72145224D01*
X143923881Y-72145224D02*
X143971500Y-72240462D01*
X143971500Y-72240462D02*
X143971500Y-72478557D01*
X143971500Y-72478557D02*
X143923881Y-72573795D01*
X143923881Y-72573795D02*
X143876262Y-72621415D01*
X143876262Y-72621415D02*
X143781024Y-72669034D01*
X143781024Y-72669034D02*
X143542929Y-72669034D01*
X143542929Y-72669034D02*
X143447691Y-72621415D01*
X143447691Y-72621415D02*
X143400072Y-72573795D01*
X64755547Y-46839272D02*
X64660309Y-46791653D01*
X64660309Y-46791653D02*
X64565071Y-46696415D01*
X64565071Y-46696415D02*
X64422214Y-46553557D01*
X64422214Y-46553557D02*
X64326976Y-46505938D01*
X64326976Y-46505938D02*
X64231738Y-46505938D01*
X64279357Y-46744034D02*
X64184119Y-46696415D01*
X64184119Y-46696415D02*
X64088881Y-46601176D01*
X64088881Y-46601176D02*
X64041262Y-46410700D01*
X64041262Y-46410700D02*
X64041262Y-46077367D01*
X64041262Y-46077367D02*
X64088881Y-45886891D01*
X64088881Y-45886891D02*
X64184119Y-45791653D01*
X64184119Y-45791653D02*
X64279357Y-45744034D01*
X64279357Y-45744034D02*
X64469833Y-45744034D01*
X64469833Y-45744034D02*
X64565071Y-45791653D01*
X64565071Y-45791653D02*
X64660309Y-45886891D01*
X64660309Y-45886891D02*
X64707928Y-46077367D01*
X64707928Y-46077367D02*
X64707928Y-46410700D01*
X64707928Y-46410700D02*
X64660309Y-46601176D01*
X64660309Y-46601176D02*
X64565071Y-46696415D01*
X64565071Y-46696415D02*
X64469833Y-46744034D01*
X64469833Y-46744034D02*
X64279357Y-46744034D01*
X65041262Y-45744034D02*
X65660309Y-45744034D01*
X65660309Y-45744034D02*
X65326976Y-46124986D01*
X65326976Y-46124986D02*
X65469833Y-46124986D01*
X65469833Y-46124986D02*
X65565071Y-46172605D01*
X65565071Y-46172605D02*
X65612690Y-46220224D01*
X65612690Y-46220224D02*
X65660309Y-46315462D01*
X65660309Y-46315462D02*
X65660309Y-46553557D01*
X65660309Y-46553557D02*
X65612690Y-46648795D01*
X65612690Y-46648795D02*
X65565071Y-46696415D01*
X65565071Y-46696415D02*
X65469833Y-46744034D01*
X65469833Y-46744034D02*
X65184119Y-46744034D01*
X65184119Y-46744034D02*
X65088881Y-46696415D01*
X65088881Y-46696415D02*
X65041262Y-46648795D01*
X119076262Y-51669034D02*
X119076262Y-52383319D01*
X119076262Y-52383319D02*
X119028643Y-52526176D01*
X119028643Y-52526176D02*
X118933405Y-52621415D01*
X118933405Y-52621415D02*
X118790548Y-52669034D01*
X118790548Y-52669034D02*
X118695310Y-52669034D01*
X119504834Y-51764272D02*
X119552453Y-51716653D01*
X119552453Y-51716653D02*
X119647691Y-51669034D01*
X119647691Y-51669034D02*
X119885786Y-51669034D01*
X119885786Y-51669034D02*
X119981024Y-51716653D01*
X119981024Y-51716653D02*
X120028643Y-51764272D01*
X120028643Y-51764272D02*
X120076262Y-51859510D01*
X120076262Y-51859510D02*
X120076262Y-51954748D01*
X120076262Y-51954748D02*
X120028643Y-52097605D01*
X120028643Y-52097605D02*
X119457215Y-52669034D01*
X119457215Y-52669034D02*
X120076262Y-52669034D01*
X120981024Y-51669034D02*
X120504834Y-51669034D01*
X120504834Y-51669034D02*
X120457215Y-52145224D01*
X120457215Y-52145224D02*
X120504834Y-52097605D01*
X120504834Y-52097605D02*
X120600072Y-52049986D01*
X120600072Y-52049986D02*
X120838167Y-52049986D01*
X120838167Y-52049986D02*
X120933405Y-52097605D01*
X120933405Y-52097605D02*
X120981024Y-52145224D01*
X120981024Y-52145224D02*
X121028643Y-52240462D01*
X121028643Y-52240462D02*
X121028643Y-52478557D01*
X121028643Y-52478557D02*
X120981024Y-52573795D01*
X120981024Y-52573795D02*
X120933405Y-52621415D01*
X120933405Y-52621415D02*
X120838167Y-52669034D01*
X120838167Y-52669034D02*
X120600072Y-52669034D01*
X120600072Y-52669034D02*
X120504834Y-52621415D01*
X120504834Y-52621415D02*
X120457215Y-52573795D01*
X71969119Y-58419034D02*
X71492929Y-58419034D01*
X71492929Y-58419034D02*
X71492929Y-57419034D01*
X72778643Y-57419034D02*
X72302453Y-57419034D01*
X72302453Y-57419034D02*
X72254834Y-57895224D01*
X72254834Y-57895224D02*
X72302453Y-57847605D01*
X72302453Y-57847605D02*
X72397691Y-57799986D01*
X72397691Y-57799986D02*
X72635786Y-57799986D01*
X72635786Y-57799986D02*
X72731024Y-57847605D01*
X72731024Y-57847605D02*
X72778643Y-57895224D01*
X72778643Y-57895224D02*
X72826262Y-57990462D01*
X72826262Y-57990462D02*
X72826262Y-58228557D01*
X72826262Y-58228557D02*
X72778643Y-58323795D01*
X72778643Y-58323795D02*
X72731024Y-58371415D01*
X72731024Y-58371415D02*
X72635786Y-58419034D01*
X72635786Y-58419034D02*
X72397691Y-58419034D01*
X72397691Y-58419034D02*
X72302453Y-58371415D01*
X72302453Y-58371415D02*
X72254834Y-58323795D01*
X62523881Y-63969034D02*
X62523881Y-64778557D01*
X62523881Y-64778557D02*
X62571500Y-64873795D01*
X62571500Y-64873795D02*
X62619119Y-64921415D01*
X62619119Y-64921415D02*
X62714357Y-64969034D01*
X62714357Y-64969034D02*
X62904833Y-64969034D01*
X62904833Y-64969034D02*
X63000071Y-64921415D01*
X63000071Y-64921415D02*
X63047690Y-64873795D01*
X63047690Y-64873795D02*
X63095309Y-64778557D01*
X63095309Y-64778557D02*
X63095309Y-63969034D01*
X63476262Y-63969034D02*
X64095309Y-63969034D01*
X64095309Y-63969034D02*
X63761976Y-64349986D01*
X63761976Y-64349986D02*
X63904833Y-64349986D01*
X63904833Y-64349986D02*
X64000071Y-64397605D01*
X64000071Y-64397605D02*
X64047690Y-64445224D01*
X64047690Y-64445224D02*
X64095309Y-64540462D01*
X64095309Y-64540462D02*
X64095309Y-64778557D01*
X64095309Y-64778557D02*
X64047690Y-64873795D01*
X64047690Y-64873795D02*
X64000071Y-64921415D01*
X64000071Y-64921415D02*
X63904833Y-64969034D01*
X63904833Y-64969034D02*
X63619119Y-64969034D01*
X63619119Y-64969034D02*
X63523881Y-64921415D01*
X63523881Y-64921415D02*
X63476262Y-64873795D01*
X107826262Y-51669034D02*
X107826262Y-52383319D01*
X107826262Y-52383319D02*
X107778643Y-52526176D01*
X107778643Y-52526176D02*
X107683405Y-52621415D01*
X107683405Y-52621415D02*
X107540548Y-52669034D01*
X107540548Y-52669034D02*
X107445310Y-52669034D01*
X108826262Y-52669034D02*
X108254834Y-52669034D01*
X108540548Y-52669034D02*
X108540548Y-51669034D01*
X108540548Y-51669034D02*
X108445310Y-51811891D01*
X108445310Y-51811891D02*
X108350072Y-51907129D01*
X108350072Y-51907129D02*
X108254834Y-51954748D01*
X109731024Y-51669034D02*
X109254834Y-51669034D01*
X109254834Y-51669034D02*
X109207215Y-52145224D01*
X109207215Y-52145224D02*
X109254834Y-52097605D01*
X109254834Y-52097605D02*
X109350072Y-52049986D01*
X109350072Y-52049986D02*
X109588167Y-52049986D01*
X109588167Y-52049986D02*
X109683405Y-52097605D01*
X109683405Y-52097605D02*
X109731024Y-52145224D01*
X109731024Y-52145224D02*
X109778643Y-52240462D01*
X109778643Y-52240462D02*
X109778643Y-52478557D01*
X109778643Y-52478557D02*
X109731024Y-52573795D01*
X109731024Y-52573795D02*
X109683405Y-52621415D01*
X109683405Y-52621415D02*
X109588167Y-52669034D01*
X109588167Y-52669034D02*
X109350072Y-52669034D01*
X109350072Y-52669034D02*
X109254834Y-52621415D01*
X109254834Y-52621415D02*
X109207215Y-52573795D01*
X147547691Y-82469034D02*
X147547691Y-81469034D01*
X147547691Y-81469034D02*
X147785786Y-81469034D01*
X147785786Y-81469034D02*
X147928643Y-81516653D01*
X147928643Y-81516653D02*
X148023881Y-81611891D01*
X148023881Y-81611891D02*
X148071500Y-81707129D01*
X148071500Y-81707129D02*
X148119119Y-81897605D01*
X148119119Y-81897605D02*
X148119119Y-82040462D01*
X148119119Y-82040462D02*
X148071500Y-82230938D01*
X148071500Y-82230938D02*
X148023881Y-82326176D01*
X148023881Y-82326176D02*
X147928643Y-82421415D01*
X147928643Y-82421415D02*
X147785786Y-82469034D01*
X147785786Y-82469034D02*
X147547691Y-82469034D01*
X148976262Y-81802367D02*
X148976262Y-82469034D01*
X148738167Y-81421415D02*
X148500072Y-82135700D01*
X148500072Y-82135700D02*
X149119119Y-82135700D01*
X61590605Y-28352309D02*
X60590605Y-28352309D01*
X60590605Y-28352309D02*
X60590605Y-28114214D01*
X60590605Y-28114214D02*
X60638224Y-27971357D01*
X60638224Y-27971357D02*
X60733462Y-27876119D01*
X60733462Y-27876119D02*
X60828700Y-27828500D01*
X60828700Y-27828500D02*
X61019176Y-27780881D01*
X61019176Y-27780881D02*
X61162033Y-27780881D01*
X61162033Y-27780881D02*
X61352509Y-27828500D01*
X61352509Y-27828500D02*
X61447747Y-27876119D01*
X61447747Y-27876119D02*
X61542986Y-27971357D01*
X61542986Y-27971357D02*
X61590605Y-28114214D01*
X61590605Y-28114214D02*
X61590605Y-28352309D01*
X60685843Y-27399928D02*
X60638224Y-27352309D01*
X60638224Y-27352309D02*
X60590605Y-27257071D01*
X60590605Y-27257071D02*
X60590605Y-27018976D01*
X60590605Y-27018976D02*
X60638224Y-26923738D01*
X60638224Y-26923738D02*
X60685843Y-26876119D01*
X60685843Y-26876119D02*
X60781081Y-26828500D01*
X60781081Y-26828500D02*
X60876319Y-26828500D01*
X60876319Y-26828500D02*
X61019176Y-26876119D01*
X61019176Y-26876119D02*
X61590605Y-27447547D01*
X61590605Y-27447547D02*
X61590605Y-26828500D01*
X70590605Y-27680881D02*
X70114414Y-28014214D01*
X70590605Y-28252309D02*
X69590605Y-28252309D01*
X69590605Y-28252309D02*
X69590605Y-27871357D01*
X69590605Y-27871357D02*
X69638224Y-27776119D01*
X69638224Y-27776119D02*
X69685843Y-27728500D01*
X69685843Y-27728500D02*
X69781081Y-27680881D01*
X69781081Y-27680881D02*
X69923938Y-27680881D01*
X69923938Y-27680881D02*
X70019176Y-27728500D01*
X70019176Y-27728500D02*
X70066795Y-27776119D01*
X70066795Y-27776119D02*
X70114414Y-27871357D01*
X70114414Y-27871357D02*
X70114414Y-28252309D01*
X69590605Y-26776119D02*
X69590605Y-27252309D01*
X69590605Y-27252309D02*
X70066795Y-27299928D01*
X70066795Y-27299928D02*
X70019176Y-27252309D01*
X70019176Y-27252309D02*
X69971557Y-27157071D01*
X69971557Y-27157071D02*
X69971557Y-26918976D01*
X69971557Y-26918976D02*
X70019176Y-26823738D01*
X70019176Y-26823738D02*
X70066795Y-26776119D01*
X70066795Y-26776119D02*
X70162033Y-26728500D01*
X70162033Y-26728500D02*
X70400128Y-26728500D01*
X70400128Y-26728500D02*
X70495366Y-26776119D01*
X70495366Y-26776119D02*
X70542986Y-26823738D01*
X70542986Y-26823738D02*
X70590605Y-26918976D01*
X70590605Y-26918976D02*
X70590605Y-27157071D01*
X70590605Y-27157071D02*
X70542986Y-27252309D01*
X70542986Y-27252309D02*
X70495366Y-27299928D01*
X56192928Y-63494034D02*
X55859595Y-63017843D01*
X55621500Y-63494034D02*
X55621500Y-62494034D01*
X55621500Y-62494034D02*
X56002452Y-62494034D01*
X56002452Y-62494034D02*
X56097690Y-62541653D01*
X56097690Y-62541653D02*
X56145309Y-62589272D01*
X56145309Y-62589272D02*
X56192928Y-62684510D01*
X56192928Y-62684510D02*
X56192928Y-62827367D01*
X56192928Y-62827367D02*
X56145309Y-62922605D01*
X56145309Y-62922605D02*
X56097690Y-62970224D01*
X56097690Y-62970224D02*
X56002452Y-63017843D01*
X56002452Y-63017843D02*
X55621500Y-63017843D01*
X56526262Y-62494034D02*
X57145309Y-62494034D01*
X57145309Y-62494034D02*
X56811976Y-62874986D01*
X56811976Y-62874986D02*
X56954833Y-62874986D01*
X56954833Y-62874986D02*
X57050071Y-62922605D01*
X57050071Y-62922605D02*
X57097690Y-62970224D01*
X57097690Y-62970224D02*
X57145309Y-63065462D01*
X57145309Y-63065462D02*
X57145309Y-63303557D01*
X57145309Y-63303557D02*
X57097690Y-63398795D01*
X57097690Y-63398795D02*
X57050071Y-63446415D01*
X57050071Y-63446415D02*
X56954833Y-63494034D01*
X56954833Y-63494034D02*
X56669119Y-63494034D01*
X56669119Y-63494034D02*
X56573881Y-63446415D01*
X56573881Y-63446415D02*
X56526262Y-63398795D01*
X57764357Y-62494034D02*
X57859595Y-62494034D01*
X57859595Y-62494034D02*
X57954833Y-62541653D01*
X57954833Y-62541653D02*
X58002452Y-62589272D01*
X58002452Y-62589272D02*
X58050071Y-62684510D01*
X58050071Y-62684510D02*
X58097690Y-62874986D01*
X58097690Y-62874986D02*
X58097690Y-63113081D01*
X58097690Y-63113081D02*
X58050071Y-63303557D01*
X58050071Y-63303557D02*
X58002452Y-63398795D01*
X58002452Y-63398795D02*
X57954833Y-63446415D01*
X57954833Y-63446415D02*
X57859595Y-63494034D01*
X57859595Y-63494034D02*
X57764357Y-63494034D01*
X57764357Y-63494034D02*
X57669119Y-63446415D01*
X57669119Y-63446415D02*
X57621500Y-63398795D01*
X57621500Y-63398795D02*
X57573881Y-63303557D01*
X57573881Y-63303557D02*
X57526262Y-63113081D01*
X57526262Y-63113081D02*
X57526262Y-62874986D01*
X57526262Y-62874986D02*
X57573881Y-62684510D01*
X57573881Y-62684510D02*
X57621500Y-62589272D01*
X57621500Y-62589272D02*
X57669119Y-62541653D01*
X57669119Y-62541653D02*
X57764357Y-62494034D01*
X84947691Y-80271034D02*
X85519119Y-80271034D01*
X85233405Y-81271034D02*
X85233405Y-80271034D01*
X85852453Y-81271034D02*
X85852453Y-80271034D01*
X85852453Y-80271034D02*
X86233405Y-80271034D01*
X86233405Y-80271034D02*
X86328643Y-80318653D01*
X86328643Y-80318653D02*
X86376262Y-80366272D01*
X86376262Y-80366272D02*
X86423881Y-80461510D01*
X86423881Y-80461510D02*
X86423881Y-80604367D01*
X86423881Y-80604367D02*
X86376262Y-80699605D01*
X86376262Y-80699605D02*
X86328643Y-80747224D01*
X86328643Y-80747224D02*
X86233405Y-80794843D01*
X86233405Y-80794843D02*
X85852453Y-80794843D01*
X87376262Y-81271034D02*
X86804834Y-81271034D01*
X87090548Y-81271034D02*
X87090548Y-80271034D01*
X87090548Y-80271034D02*
X86995310Y-80413891D01*
X86995310Y-80413891D02*
X86900072Y-80509129D01*
X86900072Y-80509129D02*
X86804834Y-80556748D01*
X87995310Y-80271034D02*
X88090548Y-80271034D01*
X88090548Y-80271034D02*
X88185786Y-80318653D01*
X88185786Y-80318653D02*
X88233405Y-80366272D01*
X88233405Y-80366272D02*
X88281024Y-80461510D01*
X88281024Y-80461510D02*
X88328643Y-80651986D01*
X88328643Y-80651986D02*
X88328643Y-80890081D01*
X88328643Y-80890081D02*
X88281024Y-81080557D01*
X88281024Y-81080557D02*
X88233405Y-81175795D01*
X88233405Y-81175795D02*
X88185786Y-81223415D01*
X88185786Y-81223415D02*
X88090548Y-81271034D01*
X88090548Y-81271034D02*
X87995310Y-81271034D01*
X87995310Y-81271034D02*
X87900072Y-81223415D01*
X87900072Y-81223415D02*
X87852453Y-81175795D01*
X87852453Y-81175795D02*
X87804834Y-81080557D01*
X87804834Y-81080557D02*
X87757215Y-80890081D01*
X87757215Y-80890081D02*
X87757215Y-80651986D01*
X87757215Y-80651986D02*
X87804834Y-80461510D01*
X87804834Y-80461510D02*
X87852453Y-80366272D01*
X87852453Y-80366272D02*
X87900072Y-80318653D01*
X87900072Y-80318653D02*
X87995310Y-80271034D01*
X119140605Y-65880881D02*
X118664414Y-66214214D01*
X119140605Y-66452309D02*
X118140605Y-66452309D01*
X118140605Y-66452309D02*
X118140605Y-66071357D01*
X118140605Y-66071357D02*
X118188224Y-65976119D01*
X118188224Y-65976119D02*
X118235843Y-65928500D01*
X118235843Y-65928500D02*
X118331081Y-65880881D01*
X118331081Y-65880881D02*
X118473938Y-65880881D01*
X118473938Y-65880881D02*
X118569176Y-65928500D01*
X118569176Y-65928500D02*
X118616795Y-65976119D01*
X118616795Y-65976119D02*
X118664414Y-66071357D01*
X118664414Y-66071357D02*
X118664414Y-66452309D01*
X118235843Y-65499928D02*
X118188224Y-65452309D01*
X118188224Y-65452309D02*
X118140605Y-65357071D01*
X118140605Y-65357071D02*
X118140605Y-65118976D01*
X118140605Y-65118976D02*
X118188224Y-65023738D01*
X118188224Y-65023738D02*
X118235843Y-64976119D01*
X118235843Y-64976119D02*
X118331081Y-64928500D01*
X118331081Y-64928500D02*
X118426319Y-64928500D01*
X118426319Y-64928500D02*
X118569176Y-64976119D01*
X118569176Y-64976119D02*
X119140605Y-65547547D01*
X119140605Y-65547547D02*
X119140605Y-64928500D01*
X88523881Y-80271034D02*
X89095309Y-80271034D01*
X88809595Y-81271034D02*
X88809595Y-80271034D01*
X89428643Y-81271034D02*
X89428643Y-80271034D01*
X89428643Y-80271034D02*
X89809595Y-80271034D01*
X89809595Y-80271034D02*
X89904833Y-80318653D01*
X89904833Y-80318653D02*
X89952452Y-80366272D01*
X89952452Y-80366272D02*
X90000071Y-80461510D01*
X90000071Y-80461510D02*
X90000071Y-80604367D01*
X90000071Y-80604367D02*
X89952452Y-80699605D01*
X89952452Y-80699605D02*
X89904833Y-80747224D01*
X89904833Y-80747224D02*
X89809595Y-80794843D01*
X89809595Y-80794843D02*
X89428643Y-80794843D01*
X90857214Y-80604367D02*
X90857214Y-81271034D01*
X90619119Y-80223415D02*
X90381024Y-80937700D01*
X90381024Y-80937700D02*
X91000071Y-80937700D01*
X140040605Y-30047548D02*
X140754890Y-30047548D01*
X140754890Y-30047548D02*
X140897747Y-30095167D01*
X140897747Y-30095167D02*
X140992986Y-30190405D01*
X140992986Y-30190405D02*
X141040605Y-30333262D01*
X141040605Y-30333262D02*
X141040605Y-30428500D01*
X140135843Y-29618976D02*
X140088224Y-29571357D01*
X140088224Y-29571357D02*
X140040605Y-29476119D01*
X140040605Y-29476119D02*
X140040605Y-29238024D01*
X140040605Y-29238024D02*
X140088224Y-29142786D01*
X140088224Y-29142786D02*
X140135843Y-29095167D01*
X140135843Y-29095167D02*
X140231081Y-29047548D01*
X140231081Y-29047548D02*
X140326319Y-29047548D01*
X140326319Y-29047548D02*
X140469176Y-29095167D01*
X140469176Y-29095167D02*
X141040605Y-29666595D01*
X141040605Y-29666595D02*
X141040605Y-29047548D01*
X141550486Y-43685643D02*
X141550486Y-42542786D01*
X142121914Y-43114214D02*
X140979057Y-43114214D01*
X141550486Y-31385643D02*
X141550486Y-30242786D01*
X128870366Y-66380881D02*
X128917986Y-66428500D01*
X128917986Y-66428500D02*
X128965605Y-66571357D01*
X128965605Y-66571357D02*
X128965605Y-66666595D01*
X128965605Y-66666595D02*
X128917986Y-66809452D01*
X128917986Y-66809452D02*
X128822747Y-66904690D01*
X128822747Y-66904690D02*
X128727509Y-66952309D01*
X128727509Y-66952309D02*
X128537033Y-66999928D01*
X128537033Y-66999928D02*
X128394176Y-66999928D01*
X128394176Y-66999928D02*
X128203700Y-66952309D01*
X128203700Y-66952309D02*
X128108462Y-66904690D01*
X128108462Y-66904690D02*
X128013224Y-66809452D01*
X128013224Y-66809452D02*
X127965605Y-66666595D01*
X127965605Y-66666595D02*
X127965605Y-66571357D01*
X127965605Y-66571357D02*
X128013224Y-66428500D01*
X128013224Y-66428500D02*
X128060843Y-66380881D01*
X127965605Y-66047547D02*
X127965605Y-65428500D01*
X127965605Y-65428500D02*
X128346557Y-65761833D01*
X128346557Y-65761833D02*
X128346557Y-65618976D01*
X128346557Y-65618976D02*
X128394176Y-65523738D01*
X128394176Y-65523738D02*
X128441795Y-65476119D01*
X128441795Y-65476119D02*
X128537033Y-65428500D01*
X128537033Y-65428500D02*
X128775128Y-65428500D01*
X128775128Y-65428500D02*
X128870366Y-65476119D01*
X128870366Y-65476119D02*
X128917986Y-65523738D01*
X128917986Y-65523738D02*
X128965605Y-65618976D01*
X128965605Y-65618976D02*
X128965605Y-65904690D01*
X128965605Y-65904690D02*
X128917986Y-65999928D01*
X128917986Y-65999928D02*
X128870366Y-66047547D01*
X96276262Y-51669034D02*
X96276262Y-52383319D01*
X96276262Y-52383319D02*
X96228643Y-52526176D01*
X96228643Y-52526176D02*
X96133405Y-52621415D01*
X96133405Y-52621415D02*
X95990548Y-52669034D01*
X95990548Y-52669034D02*
X95895310Y-52669034D01*
X97276262Y-52669034D02*
X96704834Y-52669034D01*
X96990548Y-52669034D02*
X96990548Y-51669034D01*
X96990548Y-51669034D02*
X96895310Y-51811891D01*
X96895310Y-51811891D02*
X96800072Y-51907129D01*
X96800072Y-51907129D02*
X96704834Y-51954748D01*
X97609596Y-51669034D02*
X98228643Y-51669034D01*
X98228643Y-51669034D02*
X97895310Y-52049986D01*
X97895310Y-52049986D02*
X98038167Y-52049986D01*
X98038167Y-52049986D02*
X98133405Y-52097605D01*
X98133405Y-52097605D02*
X98181024Y-52145224D01*
X98181024Y-52145224D02*
X98228643Y-52240462D01*
X98228643Y-52240462D02*
X98228643Y-52478557D01*
X98228643Y-52478557D02*
X98181024Y-52573795D01*
X98181024Y-52573795D02*
X98133405Y-52621415D01*
X98133405Y-52621415D02*
X98038167Y-52669034D01*
X98038167Y-52669034D02*
X97752453Y-52669034D01*
X97752453Y-52669034D02*
X97657215Y-52621415D01*
X97657215Y-52621415D02*
X97609596Y-52573795D01*
X91042928Y-52973795D02*
X90995309Y-53021415D01*
X90995309Y-53021415D02*
X90852452Y-53069034D01*
X90852452Y-53069034D02*
X90757214Y-53069034D01*
X90757214Y-53069034D02*
X90614357Y-53021415D01*
X90614357Y-53021415D02*
X90519119Y-52926176D01*
X90519119Y-52926176D02*
X90471500Y-52830938D01*
X90471500Y-52830938D02*
X90423881Y-52640462D01*
X90423881Y-52640462D02*
X90423881Y-52497605D01*
X90423881Y-52497605D02*
X90471500Y-52307129D01*
X90471500Y-52307129D02*
X90519119Y-52211891D01*
X90519119Y-52211891D02*
X90614357Y-52116653D01*
X90614357Y-52116653D02*
X90757214Y-52069034D01*
X90757214Y-52069034D02*
X90852452Y-52069034D01*
X90852452Y-52069034D02*
X90995309Y-52116653D01*
X90995309Y-52116653D02*
X91042928Y-52164272D01*
X91995309Y-53069034D02*
X91423881Y-53069034D01*
X91709595Y-53069034D02*
X91709595Y-52069034D01*
X91709595Y-52069034D02*
X91614357Y-52211891D01*
X91614357Y-52211891D02*
X91519119Y-52307129D01*
X91519119Y-52307129D02*
X91423881Y-52354748D01*
X92852452Y-52069034D02*
X92661976Y-52069034D01*
X92661976Y-52069034D02*
X92566738Y-52116653D01*
X92566738Y-52116653D02*
X92519119Y-52164272D01*
X92519119Y-52164272D02*
X92423881Y-52307129D01*
X92423881Y-52307129D02*
X92376262Y-52497605D01*
X92376262Y-52497605D02*
X92376262Y-52878557D01*
X92376262Y-52878557D02*
X92423881Y-52973795D01*
X92423881Y-52973795D02*
X92471500Y-53021415D01*
X92471500Y-53021415D02*
X92566738Y-53069034D01*
X92566738Y-53069034D02*
X92757214Y-53069034D01*
X92757214Y-53069034D02*
X92852452Y-53021415D01*
X92852452Y-53021415D02*
X92900071Y-52973795D01*
X92900071Y-52973795D02*
X92947690Y-52878557D01*
X92947690Y-52878557D02*
X92947690Y-52640462D01*
X92947690Y-52640462D02*
X92900071Y-52545224D01*
X92900071Y-52545224D02*
X92852452Y-52497605D01*
X92852452Y-52497605D02*
X92757214Y-52449986D01*
X92757214Y-52449986D02*
X92566738Y-52449986D01*
X92566738Y-52449986D02*
X92471500Y-52497605D01*
X92471500Y-52497605D02*
X92423881Y-52545224D01*
X92423881Y-52545224D02*
X92376262Y-52640462D01*
X157740605Y-78673738D02*
X158454890Y-78673738D01*
X158454890Y-78673738D02*
X158597747Y-78721357D01*
X158597747Y-78721357D02*
X158692986Y-78816595D01*
X158692986Y-78816595D02*
X158740605Y-78959452D01*
X158740605Y-78959452D02*
X158740605Y-79054690D01*
X157835843Y-78245166D02*
X157788224Y-78197547D01*
X157788224Y-78197547D02*
X157740605Y-78102309D01*
X157740605Y-78102309D02*
X157740605Y-77864214D01*
X157740605Y-77864214D02*
X157788224Y-77768976D01*
X157788224Y-77768976D02*
X157835843Y-77721357D01*
X157835843Y-77721357D02*
X157931081Y-77673738D01*
X157931081Y-77673738D02*
X158026319Y-77673738D01*
X158026319Y-77673738D02*
X158169176Y-77721357D01*
X158169176Y-77721357D02*
X158740605Y-78292785D01*
X158740605Y-78292785D02*
X158740605Y-77673738D01*
X157835843Y-77292785D02*
X157788224Y-77245166D01*
X157788224Y-77245166D02*
X157740605Y-77149928D01*
X157740605Y-77149928D02*
X157740605Y-76911833D01*
X157740605Y-76911833D02*
X157788224Y-76816595D01*
X157788224Y-76816595D02*
X157835843Y-76768976D01*
X157835843Y-76768976D02*
X157931081Y-76721357D01*
X157931081Y-76721357D02*
X158026319Y-76721357D01*
X158026319Y-76721357D02*
X158169176Y-76768976D01*
X158169176Y-76768976D02*
X158740605Y-77340404D01*
X158740605Y-77340404D02*
X158740605Y-76721357D01*
X116140605Y-41547548D02*
X116854890Y-41547548D01*
X116854890Y-41547548D02*
X116997747Y-41595167D01*
X116997747Y-41595167D02*
X117092986Y-41690405D01*
X117092986Y-41690405D02*
X117140605Y-41833262D01*
X117140605Y-41833262D02*
X117140605Y-41928500D01*
X116569176Y-40928500D02*
X116521557Y-41023738D01*
X116521557Y-41023738D02*
X116473938Y-41071357D01*
X116473938Y-41071357D02*
X116378700Y-41118976D01*
X116378700Y-41118976D02*
X116331081Y-41118976D01*
X116331081Y-41118976D02*
X116235843Y-41071357D01*
X116235843Y-41071357D02*
X116188224Y-41023738D01*
X116188224Y-41023738D02*
X116140605Y-40928500D01*
X116140605Y-40928500D02*
X116140605Y-40738024D01*
X116140605Y-40738024D02*
X116188224Y-40642786D01*
X116188224Y-40642786D02*
X116235843Y-40595167D01*
X116235843Y-40595167D02*
X116331081Y-40547548D01*
X116331081Y-40547548D02*
X116378700Y-40547548D01*
X116378700Y-40547548D02*
X116473938Y-40595167D01*
X116473938Y-40595167D02*
X116521557Y-40642786D01*
X116521557Y-40642786D02*
X116569176Y-40738024D01*
X116569176Y-40738024D02*
X116569176Y-40928500D01*
X116569176Y-40928500D02*
X116616795Y-41023738D01*
X116616795Y-41023738D02*
X116664414Y-41071357D01*
X116664414Y-41071357D02*
X116759652Y-41118976D01*
X116759652Y-41118976D02*
X116950128Y-41118976D01*
X116950128Y-41118976D02*
X117045366Y-41071357D01*
X117045366Y-41071357D02*
X117092986Y-41023738D01*
X117092986Y-41023738D02*
X117140605Y-40928500D01*
X117140605Y-40928500D02*
X117140605Y-40738024D01*
X117140605Y-40738024D02*
X117092986Y-40642786D01*
X117092986Y-40642786D02*
X117045366Y-40595167D01*
X117045366Y-40595167D02*
X116950128Y-40547548D01*
X116950128Y-40547548D02*
X116759652Y-40547548D01*
X116759652Y-40547548D02*
X116664414Y-40595167D01*
X116664414Y-40595167D02*
X116616795Y-40642786D01*
X116616795Y-40642786D02*
X116569176Y-40738024D01*
X120200486Y-30785643D02*
X120200486Y-29642786D01*
X120200486Y-43785643D02*
X120200486Y-42642786D01*
X120771914Y-43214214D02*
X119629057Y-43214214D01*
X140547691Y-48244034D02*
X140547691Y-47244034D01*
X140547691Y-47244034D02*
X140785786Y-47244034D01*
X140785786Y-47244034D02*
X140928643Y-47291653D01*
X140928643Y-47291653D02*
X141023881Y-47386891D01*
X141023881Y-47386891D02*
X141071500Y-47482129D01*
X141071500Y-47482129D02*
X141119119Y-47672605D01*
X141119119Y-47672605D02*
X141119119Y-47815462D01*
X141119119Y-47815462D02*
X141071500Y-48005938D01*
X141071500Y-48005938D02*
X141023881Y-48101176D01*
X141023881Y-48101176D02*
X140928643Y-48196415D01*
X140928643Y-48196415D02*
X140785786Y-48244034D01*
X140785786Y-48244034D02*
X140547691Y-48244034D01*
X141452453Y-47244034D02*
X142071500Y-47244034D01*
X142071500Y-47244034D02*
X141738167Y-47624986D01*
X141738167Y-47624986D02*
X141881024Y-47624986D01*
X141881024Y-47624986D02*
X141976262Y-47672605D01*
X141976262Y-47672605D02*
X142023881Y-47720224D01*
X142023881Y-47720224D02*
X142071500Y-47815462D01*
X142071500Y-47815462D02*
X142071500Y-48053557D01*
X142071500Y-48053557D02*
X142023881Y-48148795D01*
X142023881Y-48148795D02*
X141976262Y-48196415D01*
X141976262Y-48196415D02*
X141881024Y-48244034D01*
X141881024Y-48244034D02*
X141595310Y-48244034D01*
X141595310Y-48244034D02*
X141500072Y-48196415D01*
X141500072Y-48196415D02*
X141452453Y-48148795D01*
X140045366Y-38957072D02*
X140092986Y-39004691D01*
X140092986Y-39004691D02*
X140140605Y-39147548D01*
X140140605Y-39147548D02*
X140140605Y-39242786D01*
X140140605Y-39242786D02*
X140092986Y-39385643D01*
X140092986Y-39385643D02*
X139997747Y-39480881D01*
X139997747Y-39480881D02*
X139902509Y-39528500D01*
X139902509Y-39528500D02*
X139712033Y-39576119D01*
X139712033Y-39576119D02*
X139569176Y-39576119D01*
X139569176Y-39576119D02*
X139378700Y-39528500D01*
X139378700Y-39528500D02*
X139283462Y-39480881D01*
X139283462Y-39480881D02*
X139188224Y-39385643D01*
X139188224Y-39385643D02*
X139140605Y-39242786D01*
X139140605Y-39242786D02*
X139140605Y-39147548D01*
X139140605Y-39147548D02*
X139188224Y-39004691D01*
X139188224Y-39004691D02*
X139235843Y-38957072D01*
X140140605Y-38004691D02*
X140140605Y-38576119D01*
X140140605Y-38290405D02*
X139140605Y-38290405D01*
X139140605Y-38290405D02*
X139283462Y-38385643D01*
X139283462Y-38385643D02*
X139378700Y-38480881D01*
X139378700Y-38480881D02*
X139426319Y-38576119D01*
X139140605Y-37671357D02*
X139140605Y-37004691D01*
X139140605Y-37004691D02*
X140140605Y-37433262D01*
X54840605Y-51057072D02*
X54364414Y-51390405D01*
X54840605Y-51628500D02*
X53840605Y-51628500D01*
X53840605Y-51628500D02*
X53840605Y-51247548D01*
X53840605Y-51247548D02*
X53888224Y-51152310D01*
X53888224Y-51152310D02*
X53935843Y-51104691D01*
X53935843Y-51104691D02*
X54031081Y-51057072D01*
X54031081Y-51057072D02*
X54173938Y-51057072D01*
X54173938Y-51057072D02*
X54269176Y-51104691D01*
X54269176Y-51104691D02*
X54316795Y-51152310D01*
X54316795Y-51152310D02*
X54364414Y-51247548D01*
X54364414Y-51247548D02*
X54364414Y-51628500D01*
X53935843Y-50676119D02*
X53888224Y-50628500D01*
X53888224Y-50628500D02*
X53840605Y-50533262D01*
X53840605Y-50533262D02*
X53840605Y-50295167D01*
X53840605Y-50295167D02*
X53888224Y-50199929D01*
X53888224Y-50199929D02*
X53935843Y-50152310D01*
X53935843Y-50152310D02*
X54031081Y-50104691D01*
X54031081Y-50104691D02*
X54126319Y-50104691D01*
X54126319Y-50104691D02*
X54269176Y-50152310D01*
X54269176Y-50152310D02*
X54840605Y-50723738D01*
X54840605Y-50723738D02*
X54840605Y-50104691D01*
X53840605Y-49771357D02*
X53840605Y-49152310D01*
X53840605Y-49152310D02*
X54221557Y-49485643D01*
X54221557Y-49485643D02*
X54221557Y-49342786D01*
X54221557Y-49342786D02*
X54269176Y-49247548D01*
X54269176Y-49247548D02*
X54316795Y-49199929D01*
X54316795Y-49199929D02*
X54412033Y-49152310D01*
X54412033Y-49152310D02*
X54650128Y-49152310D01*
X54650128Y-49152310D02*
X54745366Y-49199929D01*
X54745366Y-49199929D02*
X54792986Y-49247548D01*
X54792986Y-49247548D02*
X54840605Y-49342786D01*
X54840605Y-49342786D02*
X54840605Y-49628500D01*
X54840605Y-49628500D02*
X54792986Y-49723738D01*
X54792986Y-49723738D02*
X54745366Y-49771357D01*
X61092928Y-57698795D02*
X61045309Y-57746415D01*
X61045309Y-57746415D02*
X60902452Y-57794034D01*
X60902452Y-57794034D02*
X60807214Y-57794034D01*
X60807214Y-57794034D02*
X60664357Y-57746415D01*
X60664357Y-57746415D02*
X60569119Y-57651176D01*
X60569119Y-57651176D02*
X60521500Y-57555938D01*
X60521500Y-57555938D02*
X60473881Y-57365462D01*
X60473881Y-57365462D02*
X60473881Y-57222605D01*
X60473881Y-57222605D02*
X60521500Y-57032129D01*
X60521500Y-57032129D02*
X60569119Y-56936891D01*
X60569119Y-56936891D02*
X60664357Y-56841653D01*
X60664357Y-56841653D02*
X60807214Y-56794034D01*
X60807214Y-56794034D02*
X60902452Y-56794034D01*
X60902452Y-56794034D02*
X61045309Y-56841653D01*
X61045309Y-56841653D02*
X61092928Y-56889272D01*
X62045309Y-57794034D02*
X61473881Y-57794034D01*
X61759595Y-57794034D02*
X61759595Y-56794034D01*
X61759595Y-56794034D02*
X61664357Y-56936891D01*
X61664357Y-56936891D02*
X61569119Y-57032129D01*
X61569119Y-57032129D02*
X61473881Y-57079748D01*
X62521500Y-57794034D02*
X62711976Y-57794034D01*
X62711976Y-57794034D02*
X62807214Y-57746415D01*
X62807214Y-57746415D02*
X62854833Y-57698795D01*
X62854833Y-57698795D02*
X62950071Y-57555938D01*
X62950071Y-57555938D02*
X62997690Y-57365462D01*
X62997690Y-57365462D02*
X62997690Y-56984510D01*
X62997690Y-56984510D02*
X62950071Y-56889272D01*
X62950071Y-56889272D02*
X62902452Y-56841653D01*
X62902452Y-56841653D02*
X62807214Y-56794034D01*
X62807214Y-56794034D02*
X62616738Y-56794034D01*
X62616738Y-56794034D02*
X62521500Y-56841653D01*
X62521500Y-56841653D02*
X62473881Y-56889272D01*
X62473881Y-56889272D02*
X62426262Y-56984510D01*
X62426262Y-56984510D02*
X62426262Y-57222605D01*
X62426262Y-57222605D02*
X62473881Y-57317843D01*
X62473881Y-57317843D02*
X62521500Y-57365462D01*
X62521500Y-57365462D02*
X62616738Y-57413081D01*
X62616738Y-57413081D02*
X62807214Y-57413081D01*
X62807214Y-57413081D02*
X62902452Y-57365462D01*
X62902452Y-57365462D02*
X62950071Y-57317843D01*
X62950071Y-57317843D02*
X62997690Y-57222605D01*
X72776262Y-40469034D02*
X72776262Y-41183319D01*
X72776262Y-41183319D02*
X72728643Y-41326176D01*
X72728643Y-41326176D02*
X72633405Y-41421415D01*
X72633405Y-41421415D02*
X72490548Y-41469034D01*
X72490548Y-41469034D02*
X72395310Y-41469034D01*
X73776262Y-41469034D02*
X73204834Y-41469034D01*
X73490548Y-41469034D02*
X73490548Y-40469034D01*
X73490548Y-40469034D02*
X73395310Y-40611891D01*
X73395310Y-40611891D02*
X73300072Y-40707129D01*
X73300072Y-40707129D02*
X73204834Y-40754748D01*
X74157215Y-40564272D02*
X74204834Y-40516653D01*
X74204834Y-40516653D02*
X74300072Y-40469034D01*
X74300072Y-40469034D02*
X74538167Y-40469034D01*
X74538167Y-40469034D02*
X74633405Y-40516653D01*
X74633405Y-40516653D02*
X74681024Y-40564272D01*
X74681024Y-40564272D02*
X74728643Y-40659510D01*
X74728643Y-40659510D02*
X74728643Y-40754748D01*
X74728643Y-40754748D02*
X74681024Y-40897605D01*
X74681024Y-40897605D02*
X74109596Y-41469034D01*
X74109596Y-41469034D02*
X74728643Y-41469034D01*
X74447691Y-27671034D02*
X75019119Y-27671034D01*
X74733405Y-28671034D02*
X74733405Y-27671034D01*
X75352453Y-28671034D02*
X75352453Y-27671034D01*
X75352453Y-27671034D02*
X75733405Y-27671034D01*
X75733405Y-27671034D02*
X75828643Y-27718653D01*
X75828643Y-27718653D02*
X75876262Y-27766272D01*
X75876262Y-27766272D02*
X75923881Y-27861510D01*
X75923881Y-27861510D02*
X75923881Y-28004367D01*
X75923881Y-28004367D02*
X75876262Y-28099605D01*
X75876262Y-28099605D02*
X75828643Y-28147224D01*
X75828643Y-28147224D02*
X75733405Y-28194843D01*
X75733405Y-28194843D02*
X75352453Y-28194843D01*
X76876262Y-28671034D02*
X76304834Y-28671034D01*
X76590548Y-28671034D02*
X76590548Y-27671034D01*
X76590548Y-27671034D02*
X76495310Y-27813891D01*
X76495310Y-27813891D02*
X76400072Y-27909129D01*
X76400072Y-27909129D02*
X76304834Y-27956748D01*
X77828643Y-28671034D02*
X77257215Y-28671034D01*
X77542929Y-28671034D02*
X77542929Y-27671034D01*
X77542929Y-27671034D02*
X77447691Y-27813891D01*
X77447691Y-27813891D02*
X77352453Y-27909129D01*
X77352453Y-27909129D02*
X77257215Y-27956748D01*
X128870366Y-62260881D02*
X128917986Y-62308500D01*
X128917986Y-62308500D02*
X128965605Y-62451357D01*
X128965605Y-62451357D02*
X128965605Y-62546595D01*
X128965605Y-62546595D02*
X128917986Y-62689452D01*
X128917986Y-62689452D02*
X128822747Y-62784690D01*
X128822747Y-62784690D02*
X128727509Y-62832309D01*
X128727509Y-62832309D02*
X128537033Y-62879928D01*
X128537033Y-62879928D02*
X128394176Y-62879928D01*
X128394176Y-62879928D02*
X128203700Y-62832309D01*
X128203700Y-62832309D02*
X128108462Y-62784690D01*
X128108462Y-62784690D02*
X128013224Y-62689452D01*
X128013224Y-62689452D02*
X127965605Y-62546595D01*
X127965605Y-62546595D02*
X127965605Y-62451357D01*
X127965605Y-62451357D02*
X128013224Y-62308500D01*
X128013224Y-62308500D02*
X128060843Y-62260881D01*
X128965605Y-61308500D02*
X128965605Y-61879928D01*
X128965605Y-61594214D02*
X127965605Y-61594214D01*
X127965605Y-61594214D02*
X128108462Y-61689452D01*
X128108462Y-61689452D02*
X128203700Y-61784690D01*
X128203700Y-61784690D02*
X128251319Y-61879928D01*
X72445366Y-35357072D02*
X72492986Y-35404691D01*
X72492986Y-35404691D02*
X72540605Y-35547548D01*
X72540605Y-35547548D02*
X72540605Y-35642786D01*
X72540605Y-35642786D02*
X72492986Y-35785643D01*
X72492986Y-35785643D02*
X72397747Y-35880881D01*
X72397747Y-35880881D02*
X72302509Y-35928500D01*
X72302509Y-35928500D02*
X72112033Y-35976119D01*
X72112033Y-35976119D02*
X71969176Y-35976119D01*
X71969176Y-35976119D02*
X71778700Y-35928500D01*
X71778700Y-35928500D02*
X71683462Y-35880881D01*
X71683462Y-35880881D02*
X71588224Y-35785643D01*
X71588224Y-35785643D02*
X71540605Y-35642786D01*
X71540605Y-35642786D02*
X71540605Y-35547548D01*
X71540605Y-35547548D02*
X71588224Y-35404691D01*
X71588224Y-35404691D02*
X71635843Y-35357072D01*
X72540605Y-34404691D02*
X72540605Y-34976119D01*
X72540605Y-34690405D02*
X71540605Y-34690405D01*
X71540605Y-34690405D02*
X71683462Y-34785643D01*
X71683462Y-34785643D02*
X71778700Y-34880881D01*
X71778700Y-34880881D02*
X71826319Y-34976119D01*
X71969176Y-33833262D02*
X71921557Y-33928500D01*
X71921557Y-33928500D02*
X71873938Y-33976119D01*
X71873938Y-33976119D02*
X71778700Y-34023738D01*
X71778700Y-34023738D02*
X71731081Y-34023738D01*
X71731081Y-34023738D02*
X71635843Y-33976119D01*
X71635843Y-33976119D02*
X71588224Y-33928500D01*
X71588224Y-33928500D02*
X71540605Y-33833262D01*
X71540605Y-33833262D02*
X71540605Y-33642786D01*
X71540605Y-33642786D02*
X71588224Y-33547548D01*
X71588224Y-33547548D02*
X71635843Y-33499929D01*
X71635843Y-33499929D02*
X71731081Y-33452310D01*
X71731081Y-33452310D02*
X71778700Y-33452310D01*
X71778700Y-33452310D02*
X71873938Y-33499929D01*
X71873938Y-33499929D02*
X71921557Y-33547548D01*
X71921557Y-33547548D02*
X71969176Y-33642786D01*
X71969176Y-33642786D02*
X71969176Y-33833262D01*
X71969176Y-33833262D02*
X72016795Y-33928500D01*
X72016795Y-33928500D02*
X72064414Y-33976119D01*
X72064414Y-33976119D02*
X72159652Y-34023738D01*
X72159652Y-34023738D02*
X72350128Y-34023738D01*
X72350128Y-34023738D02*
X72445366Y-33976119D01*
X72445366Y-33976119D02*
X72492986Y-33928500D01*
X72492986Y-33928500D02*
X72540605Y-33833262D01*
X72540605Y-33833262D02*
X72540605Y-33642786D01*
X72540605Y-33642786D02*
X72492986Y-33547548D01*
X72492986Y-33547548D02*
X72445366Y-33499929D01*
X72445366Y-33499929D02*
X72350128Y-33452310D01*
X72350128Y-33452310D02*
X72159652Y-33452310D01*
X72159652Y-33452310D02*
X72064414Y-33499929D01*
X72064414Y-33499929D02*
X72016795Y-33547548D01*
X72016795Y-33547548D02*
X71969176Y-33642786D01*
X115542928Y-61669034D02*
X115209595Y-61192843D01*
X114971500Y-61669034D02*
X114971500Y-60669034D01*
X114971500Y-60669034D02*
X115352452Y-60669034D01*
X115352452Y-60669034D02*
X115447690Y-60716653D01*
X115447690Y-60716653D02*
X115495309Y-60764272D01*
X115495309Y-60764272D02*
X115542928Y-60859510D01*
X115542928Y-60859510D02*
X115542928Y-61002367D01*
X115542928Y-61002367D02*
X115495309Y-61097605D01*
X115495309Y-61097605D02*
X115447690Y-61145224D01*
X115447690Y-61145224D02*
X115352452Y-61192843D01*
X115352452Y-61192843D02*
X114971500Y-61192843D01*
X116495309Y-61669034D02*
X115923881Y-61669034D01*
X116209595Y-61669034D02*
X116209595Y-60669034D01*
X116209595Y-60669034D02*
X116114357Y-60811891D01*
X116114357Y-60811891D02*
X116019119Y-60907129D01*
X116019119Y-60907129D02*
X115923881Y-60954748D01*
X116828643Y-60669034D02*
X117447690Y-60669034D01*
X117447690Y-60669034D02*
X117114357Y-61049986D01*
X117114357Y-61049986D02*
X117257214Y-61049986D01*
X117257214Y-61049986D02*
X117352452Y-61097605D01*
X117352452Y-61097605D02*
X117400071Y-61145224D01*
X117400071Y-61145224D02*
X117447690Y-61240462D01*
X117447690Y-61240462D02*
X117447690Y-61478557D01*
X117447690Y-61478557D02*
X117400071Y-61573795D01*
X117400071Y-61573795D02*
X117352452Y-61621415D01*
X117352452Y-61621415D02*
X117257214Y-61669034D01*
X117257214Y-61669034D02*
X116971500Y-61669034D01*
X116971500Y-61669034D02*
X116876262Y-61621415D01*
X116876262Y-61621415D02*
X116828643Y-61573795D01*
X92990605Y-79157072D02*
X92514414Y-79490405D01*
X92990605Y-79728500D02*
X91990605Y-79728500D01*
X91990605Y-79728500D02*
X91990605Y-79347548D01*
X91990605Y-79347548D02*
X92038224Y-79252310D01*
X92038224Y-79252310D02*
X92085843Y-79204691D01*
X92085843Y-79204691D02*
X92181081Y-79157072D01*
X92181081Y-79157072D02*
X92323938Y-79157072D01*
X92323938Y-79157072D02*
X92419176Y-79204691D01*
X92419176Y-79204691D02*
X92466795Y-79252310D01*
X92466795Y-79252310D02*
X92514414Y-79347548D01*
X92514414Y-79347548D02*
X92514414Y-79728500D01*
X92085843Y-78776119D02*
X92038224Y-78728500D01*
X92038224Y-78728500D02*
X91990605Y-78633262D01*
X91990605Y-78633262D02*
X91990605Y-78395167D01*
X91990605Y-78395167D02*
X92038224Y-78299929D01*
X92038224Y-78299929D02*
X92085843Y-78252310D01*
X92085843Y-78252310D02*
X92181081Y-78204691D01*
X92181081Y-78204691D02*
X92276319Y-78204691D01*
X92276319Y-78204691D02*
X92419176Y-78252310D01*
X92419176Y-78252310D02*
X92990605Y-78823738D01*
X92990605Y-78823738D02*
X92990605Y-78204691D01*
X91990605Y-77299929D02*
X91990605Y-77776119D01*
X91990605Y-77776119D02*
X92466795Y-77823738D01*
X92466795Y-77823738D02*
X92419176Y-77776119D01*
X92419176Y-77776119D02*
X92371557Y-77680881D01*
X92371557Y-77680881D02*
X92371557Y-77442786D01*
X92371557Y-77442786D02*
X92419176Y-77347548D01*
X92419176Y-77347548D02*
X92466795Y-77299929D01*
X92466795Y-77299929D02*
X92562033Y-77252310D01*
X92562033Y-77252310D02*
X92800128Y-77252310D01*
X92800128Y-77252310D02*
X92895366Y-77299929D01*
X92895366Y-77299929D02*
X92942986Y-77347548D01*
X92942986Y-77347548D02*
X92990605Y-77442786D01*
X92990605Y-77442786D02*
X92990605Y-77680881D01*
X92990605Y-77680881D02*
X92942986Y-77776119D01*
X92942986Y-77776119D02*
X92895366Y-77823738D01*
X141323881Y-62571034D02*
X141895309Y-62571034D01*
X141609595Y-63571034D02*
X141609595Y-62571034D01*
X142228643Y-63571034D02*
X142228643Y-62571034D01*
X142228643Y-62571034D02*
X142609595Y-62571034D01*
X142609595Y-62571034D02*
X142704833Y-62618653D01*
X142704833Y-62618653D02*
X142752452Y-62666272D01*
X142752452Y-62666272D02*
X142800071Y-62761510D01*
X142800071Y-62761510D02*
X142800071Y-62904367D01*
X142800071Y-62904367D02*
X142752452Y-62999605D01*
X142752452Y-62999605D02*
X142704833Y-63047224D01*
X142704833Y-63047224D02*
X142609595Y-63094843D01*
X142609595Y-63094843D02*
X142228643Y-63094843D01*
X143181024Y-62666272D02*
X143228643Y-62618653D01*
X143228643Y-62618653D02*
X143323881Y-62571034D01*
X143323881Y-62571034D02*
X143561976Y-62571034D01*
X143561976Y-62571034D02*
X143657214Y-62618653D01*
X143657214Y-62618653D02*
X143704833Y-62666272D01*
X143704833Y-62666272D02*
X143752452Y-62761510D01*
X143752452Y-62761510D02*
X143752452Y-62856748D01*
X143752452Y-62856748D02*
X143704833Y-62999605D01*
X143704833Y-62999605D02*
X143133405Y-63571034D01*
X143133405Y-63571034D02*
X143752452Y-63571034D01*
X140919119Y-72536295D02*
X140871500Y-72583915D01*
X140871500Y-72583915D02*
X140728643Y-72631534D01*
X140728643Y-72631534D02*
X140633405Y-72631534D01*
X140633405Y-72631534D02*
X140490548Y-72583915D01*
X140490548Y-72583915D02*
X140395310Y-72488676D01*
X140395310Y-72488676D02*
X140347691Y-72393438D01*
X140347691Y-72393438D02*
X140300072Y-72202962D01*
X140300072Y-72202962D02*
X140300072Y-72060105D01*
X140300072Y-72060105D02*
X140347691Y-71869629D01*
X140347691Y-71869629D02*
X140395310Y-71774391D01*
X140395310Y-71774391D02*
X140490548Y-71679153D01*
X140490548Y-71679153D02*
X140633405Y-71631534D01*
X140633405Y-71631534D02*
X140728643Y-71631534D01*
X140728643Y-71631534D02*
X140871500Y-71679153D01*
X140871500Y-71679153D02*
X140919119Y-71726772D01*
X141776262Y-71631534D02*
X141585786Y-71631534D01*
X141585786Y-71631534D02*
X141490548Y-71679153D01*
X141490548Y-71679153D02*
X141442929Y-71726772D01*
X141442929Y-71726772D02*
X141347691Y-71869629D01*
X141347691Y-71869629D02*
X141300072Y-72060105D01*
X141300072Y-72060105D02*
X141300072Y-72441057D01*
X141300072Y-72441057D02*
X141347691Y-72536295D01*
X141347691Y-72536295D02*
X141395310Y-72583915D01*
X141395310Y-72583915D02*
X141490548Y-72631534D01*
X141490548Y-72631534D02*
X141681024Y-72631534D01*
X141681024Y-72631534D02*
X141776262Y-72583915D01*
X141776262Y-72583915D02*
X141823881Y-72536295D01*
X141823881Y-72536295D02*
X141871500Y-72441057D01*
X141871500Y-72441057D02*
X141871500Y-72202962D01*
X141871500Y-72202962D02*
X141823881Y-72107724D01*
X141823881Y-72107724D02*
X141776262Y-72060105D01*
X141776262Y-72060105D02*
X141681024Y-72012486D01*
X141681024Y-72012486D02*
X141490548Y-72012486D01*
X141490548Y-72012486D02*
X141395310Y-72060105D01*
X141395310Y-72060105D02*
X141347691Y-72107724D01*
X141347691Y-72107724D02*
X141300072Y-72202962D01*
X80095366Y-58519572D02*
X80142986Y-58567191D01*
X80142986Y-58567191D02*
X80190605Y-58710048D01*
X80190605Y-58710048D02*
X80190605Y-58805286D01*
X80190605Y-58805286D02*
X80142986Y-58948143D01*
X80142986Y-58948143D02*
X80047747Y-59043381D01*
X80047747Y-59043381D02*
X79952509Y-59091000D01*
X79952509Y-59091000D02*
X79762033Y-59138619D01*
X79762033Y-59138619D02*
X79619176Y-59138619D01*
X79619176Y-59138619D02*
X79428700Y-59091000D01*
X79428700Y-59091000D02*
X79333462Y-59043381D01*
X79333462Y-59043381D02*
X79238224Y-58948143D01*
X79238224Y-58948143D02*
X79190605Y-58805286D01*
X79190605Y-58805286D02*
X79190605Y-58710048D01*
X79190605Y-58710048D02*
X79238224Y-58567191D01*
X79238224Y-58567191D02*
X79285843Y-58519572D01*
X79285843Y-58138619D02*
X79238224Y-58091000D01*
X79238224Y-58091000D02*
X79190605Y-57995762D01*
X79190605Y-57995762D02*
X79190605Y-57757667D01*
X79190605Y-57757667D02*
X79238224Y-57662429D01*
X79238224Y-57662429D02*
X79285843Y-57614810D01*
X79285843Y-57614810D02*
X79381081Y-57567191D01*
X79381081Y-57567191D02*
X79476319Y-57567191D01*
X79476319Y-57567191D02*
X79619176Y-57614810D01*
X79619176Y-57614810D02*
X80190605Y-58186238D01*
X80190605Y-58186238D02*
X80190605Y-57567191D01*
X79190605Y-57233857D02*
X79190605Y-56614810D01*
X79190605Y-56614810D02*
X79571557Y-56948143D01*
X79571557Y-56948143D02*
X79571557Y-56805286D01*
X79571557Y-56805286D02*
X79619176Y-56710048D01*
X79619176Y-56710048D02*
X79666795Y-56662429D01*
X79666795Y-56662429D02*
X79762033Y-56614810D01*
X79762033Y-56614810D02*
X80000128Y-56614810D01*
X80000128Y-56614810D02*
X80095366Y-56662429D01*
X80095366Y-56662429D02*
X80142986Y-56710048D01*
X80142986Y-56710048D02*
X80190605Y-56805286D01*
X80190605Y-56805286D02*
X80190605Y-57091000D01*
X80190605Y-57091000D02*
X80142986Y-57186238D01*
X80142986Y-57186238D02*
X80095366Y-57233857D01*
X159652452Y-76069034D02*
X159652452Y-76783319D01*
X159652452Y-76783319D02*
X159604833Y-76926176D01*
X159604833Y-76926176D02*
X159509595Y-77021415D01*
X159509595Y-77021415D02*
X159366738Y-77069034D01*
X159366738Y-77069034D02*
X159271500Y-77069034D01*
X160033405Y-76069034D02*
X160652452Y-76069034D01*
X160652452Y-76069034D02*
X160319119Y-76449986D01*
X160319119Y-76449986D02*
X160461976Y-76449986D01*
X160461976Y-76449986D02*
X160557214Y-76497605D01*
X160557214Y-76497605D02*
X160604833Y-76545224D01*
X160604833Y-76545224D02*
X160652452Y-76640462D01*
X160652452Y-76640462D02*
X160652452Y-76878557D01*
X160652452Y-76878557D02*
X160604833Y-76973795D01*
X160604833Y-76973795D02*
X160557214Y-77021415D01*
X160557214Y-77021415D02*
X160461976Y-77069034D01*
X160461976Y-77069034D02*
X160176262Y-77069034D01*
X160176262Y-77069034D02*
X160081024Y-77021415D01*
X160081024Y-77021415D02*
X160033405Y-76973795D01*
X147200486Y-74785643D02*
X147200486Y-73642786D01*
X147200486Y-63785643D02*
X147200486Y-62642786D01*
X147771914Y-63214214D02*
X146629057Y-63214214D01*
X143640605Y-54547548D02*
X144354890Y-54547548D01*
X144354890Y-54547548D02*
X144497747Y-54595167D01*
X144497747Y-54595167D02*
X144592986Y-54690405D01*
X144592986Y-54690405D02*
X144640605Y-54833262D01*
X144640605Y-54833262D02*
X144640605Y-54928500D01*
X143973938Y-53642786D02*
X144640605Y-53642786D01*
X143592986Y-53880881D02*
X144307271Y-54118976D01*
X144307271Y-54118976D02*
X144307271Y-53499929D01*
X147200486Y-59785643D02*
X147200486Y-58642786D01*
X147200486Y-48785643D02*
X147200486Y-47642786D01*
X147771914Y-48214214D02*
X146629057Y-48214214D01*
X103847691Y-80371034D02*
X104419119Y-80371034D01*
X104133405Y-81371034D02*
X104133405Y-80371034D01*
X104752453Y-81371034D02*
X104752453Y-80371034D01*
X104752453Y-80371034D02*
X105133405Y-80371034D01*
X105133405Y-80371034D02*
X105228643Y-80418653D01*
X105228643Y-80418653D02*
X105276262Y-80466272D01*
X105276262Y-80466272D02*
X105323881Y-80561510D01*
X105323881Y-80561510D02*
X105323881Y-80704367D01*
X105323881Y-80704367D02*
X105276262Y-80799605D01*
X105276262Y-80799605D02*
X105228643Y-80847224D01*
X105228643Y-80847224D02*
X105133405Y-80894843D01*
X105133405Y-80894843D02*
X104752453Y-80894843D01*
X106276262Y-81371034D02*
X105704834Y-81371034D01*
X105990548Y-81371034D02*
X105990548Y-80371034D01*
X105990548Y-80371034D02*
X105895310Y-80513891D01*
X105895310Y-80513891D02*
X105800072Y-80609129D01*
X105800072Y-80609129D02*
X105704834Y-80656748D01*
X106657215Y-80466272D02*
X106704834Y-80418653D01*
X106704834Y-80418653D02*
X106800072Y-80371034D01*
X106800072Y-80371034D02*
X107038167Y-80371034D01*
X107038167Y-80371034D02*
X107133405Y-80418653D01*
X107133405Y-80418653D02*
X107181024Y-80466272D01*
X107181024Y-80466272D02*
X107228643Y-80561510D01*
X107228643Y-80561510D02*
X107228643Y-80656748D01*
X107228643Y-80656748D02*
X107181024Y-80799605D01*
X107181024Y-80799605D02*
X106609596Y-81371034D01*
X106609596Y-81371034D02*
X107228643Y-81371034D01*
X110976262Y-78144034D02*
X110976262Y-78858319D01*
X110976262Y-78858319D02*
X110928643Y-79001176D01*
X110928643Y-79001176D02*
X110833405Y-79096415D01*
X110833405Y-79096415D02*
X110690548Y-79144034D01*
X110690548Y-79144034D02*
X110595310Y-79144034D01*
X111976262Y-79144034D02*
X111404834Y-79144034D01*
X111690548Y-79144034D02*
X111690548Y-78144034D01*
X111690548Y-78144034D02*
X111595310Y-78286891D01*
X111595310Y-78286891D02*
X111500072Y-78382129D01*
X111500072Y-78382129D02*
X111404834Y-78429748D01*
X112833405Y-78144034D02*
X112642929Y-78144034D01*
X112642929Y-78144034D02*
X112547691Y-78191653D01*
X112547691Y-78191653D02*
X112500072Y-78239272D01*
X112500072Y-78239272D02*
X112404834Y-78382129D01*
X112404834Y-78382129D02*
X112357215Y-78572605D01*
X112357215Y-78572605D02*
X112357215Y-78953557D01*
X112357215Y-78953557D02*
X112404834Y-79048795D01*
X112404834Y-79048795D02*
X112452453Y-79096415D01*
X112452453Y-79096415D02*
X112547691Y-79144034D01*
X112547691Y-79144034D02*
X112738167Y-79144034D01*
X112738167Y-79144034D02*
X112833405Y-79096415D01*
X112833405Y-79096415D02*
X112881024Y-79048795D01*
X112881024Y-79048795D02*
X112928643Y-78953557D01*
X112928643Y-78953557D02*
X112928643Y-78715462D01*
X112928643Y-78715462D02*
X112881024Y-78620224D01*
X112881024Y-78620224D02*
X112833405Y-78572605D01*
X112833405Y-78572605D02*
X112738167Y-78524986D01*
X112738167Y-78524986D02*
X112547691Y-78524986D01*
X112547691Y-78524986D02*
X112452453Y-78572605D01*
X112452453Y-78572605D02*
X112404834Y-78620224D01*
X112404834Y-78620224D02*
X112357215Y-78715462D01*
X113426262Y-51669034D02*
X113426262Y-52383319D01*
X113426262Y-52383319D02*
X113378643Y-52526176D01*
X113378643Y-52526176D02*
X113283405Y-52621415D01*
X113283405Y-52621415D02*
X113140548Y-52669034D01*
X113140548Y-52669034D02*
X113045310Y-52669034D01*
X113854834Y-51764272D02*
X113902453Y-51716653D01*
X113902453Y-51716653D02*
X113997691Y-51669034D01*
X113997691Y-51669034D02*
X114235786Y-51669034D01*
X114235786Y-51669034D02*
X114331024Y-51716653D01*
X114331024Y-51716653D02*
X114378643Y-51764272D01*
X114378643Y-51764272D02*
X114426262Y-51859510D01*
X114426262Y-51859510D02*
X114426262Y-51954748D01*
X114426262Y-51954748D02*
X114378643Y-52097605D01*
X114378643Y-52097605D02*
X113807215Y-52669034D01*
X113807215Y-52669034D02*
X114426262Y-52669034D01*
X115283405Y-52002367D02*
X115283405Y-52669034D01*
X115045310Y-51621415D02*
X114807215Y-52335700D01*
X114807215Y-52335700D02*
X115426262Y-52335700D01*
X112719119Y-54874034D02*
X112385786Y-54397843D01*
X112147691Y-54874034D02*
X112147691Y-53874034D01*
X112147691Y-53874034D02*
X112528643Y-53874034D01*
X112528643Y-53874034D02*
X112623881Y-53921653D01*
X112623881Y-53921653D02*
X112671500Y-53969272D01*
X112671500Y-53969272D02*
X112719119Y-54064510D01*
X112719119Y-54064510D02*
X112719119Y-54207367D01*
X112719119Y-54207367D02*
X112671500Y-54302605D01*
X112671500Y-54302605D02*
X112623881Y-54350224D01*
X112623881Y-54350224D02*
X112528643Y-54397843D01*
X112528643Y-54397843D02*
X112147691Y-54397843D01*
X113195310Y-54874034D02*
X113385786Y-54874034D01*
X113385786Y-54874034D02*
X113481024Y-54826415D01*
X113481024Y-54826415D02*
X113528643Y-54778795D01*
X113528643Y-54778795D02*
X113623881Y-54635938D01*
X113623881Y-54635938D02*
X113671500Y-54445462D01*
X113671500Y-54445462D02*
X113671500Y-54064510D01*
X113671500Y-54064510D02*
X113623881Y-53969272D01*
X113623881Y-53969272D02*
X113576262Y-53921653D01*
X113576262Y-53921653D02*
X113481024Y-53874034D01*
X113481024Y-53874034D02*
X113290548Y-53874034D01*
X113290548Y-53874034D02*
X113195310Y-53921653D01*
X113195310Y-53921653D02*
X113147691Y-53969272D01*
X113147691Y-53969272D02*
X113100072Y-54064510D01*
X113100072Y-54064510D02*
X113100072Y-54302605D01*
X113100072Y-54302605D02*
X113147691Y-54397843D01*
X113147691Y-54397843D02*
X113195310Y-54445462D01*
X113195310Y-54445462D02*
X113290548Y-54493081D01*
X113290548Y-54493081D02*
X113481024Y-54493081D01*
X113481024Y-54493081D02*
X113576262Y-54445462D01*
X113576262Y-54445462D02*
X113623881Y-54397843D01*
X113623881Y-54397843D02*
X113671500Y-54302605D01*
X95040605Y-79157072D02*
X94564414Y-79490405D01*
X95040605Y-79728500D02*
X94040605Y-79728500D01*
X94040605Y-79728500D02*
X94040605Y-79347548D01*
X94040605Y-79347548D02*
X94088224Y-79252310D01*
X94088224Y-79252310D02*
X94135843Y-79204691D01*
X94135843Y-79204691D02*
X94231081Y-79157072D01*
X94231081Y-79157072D02*
X94373938Y-79157072D01*
X94373938Y-79157072D02*
X94469176Y-79204691D01*
X94469176Y-79204691D02*
X94516795Y-79252310D01*
X94516795Y-79252310D02*
X94564414Y-79347548D01*
X94564414Y-79347548D02*
X94564414Y-79728500D01*
X94135843Y-78776119D02*
X94088224Y-78728500D01*
X94088224Y-78728500D02*
X94040605Y-78633262D01*
X94040605Y-78633262D02*
X94040605Y-78395167D01*
X94040605Y-78395167D02*
X94088224Y-78299929D01*
X94088224Y-78299929D02*
X94135843Y-78252310D01*
X94135843Y-78252310D02*
X94231081Y-78204691D01*
X94231081Y-78204691D02*
X94326319Y-78204691D01*
X94326319Y-78204691D02*
X94469176Y-78252310D01*
X94469176Y-78252310D02*
X95040605Y-78823738D01*
X95040605Y-78823738D02*
X95040605Y-78204691D01*
X94040605Y-77347548D02*
X94040605Y-77538024D01*
X94040605Y-77538024D02*
X94088224Y-77633262D01*
X94088224Y-77633262D02*
X94135843Y-77680881D01*
X94135843Y-77680881D02*
X94278700Y-77776119D01*
X94278700Y-77776119D02*
X94469176Y-77823738D01*
X94469176Y-77823738D02*
X94850128Y-77823738D01*
X94850128Y-77823738D02*
X94945366Y-77776119D01*
X94945366Y-77776119D02*
X94992986Y-77728500D01*
X94992986Y-77728500D02*
X95040605Y-77633262D01*
X95040605Y-77633262D02*
X95040605Y-77442786D01*
X95040605Y-77442786D02*
X94992986Y-77347548D01*
X94992986Y-77347548D02*
X94945366Y-77299929D01*
X94945366Y-77299929D02*
X94850128Y-77252310D01*
X94850128Y-77252310D02*
X94612033Y-77252310D01*
X94612033Y-77252310D02*
X94516795Y-77299929D01*
X94516795Y-77299929D02*
X94469176Y-77347548D01*
X94469176Y-77347548D02*
X94421557Y-77442786D01*
X94421557Y-77442786D02*
X94421557Y-77633262D01*
X94421557Y-77633262D02*
X94469176Y-77728500D01*
X94469176Y-77728500D02*
X94516795Y-77776119D01*
X94516795Y-77776119D02*
X94612033Y-77823738D01*
X133019119Y-65019034D02*
X132542929Y-65019034D01*
X132542929Y-65019034D02*
X132542929Y-64019034D01*
X133876262Y-65019034D02*
X133304834Y-65019034D01*
X133590548Y-65019034D02*
X133590548Y-64019034D01*
X133590548Y-64019034D02*
X133495310Y-64161891D01*
X133495310Y-64161891D02*
X133400072Y-64257129D01*
X133400072Y-64257129D02*
X133304834Y-64304748D01*
X134840605Y-47676119D02*
X134840605Y-47104691D01*
X135840605Y-47390405D02*
X134840605Y-47390405D01*
X135840605Y-46771357D02*
X134840605Y-46771357D01*
X134840605Y-46771357D02*
X134840605Y-46390405D01*
X134840605Y-46390405D02*
X134888224Y-46295167D01*
X134888224Y-46295167D02*
X134935843Y-46247548D01*
X134935843Y-46247548D02*
X135031081Y-46199929D01*
X135031081Y-46199929D02*
X135173938Y-46199929D01*
X135173938Y-46199929D02*
X135269176Y-46247548D01*
X135269176Y-46247548D02*
X135316795Y-46295167D01*
X135316795Y-46295167D02*
X135364414Y-46390405D01*
X135364414Y-46390405D02*
X135364414Y-46771357D01*
X135269176Y-45628500D02*
X135221557Y-45723738D01*
X135221557Y-45723738D02*
X135173938Y-45771357D01*
X135173938Y-45771357D02*
X135078700Y-45818976D01*
X135078700Y-45818976D02*
X135031081Y-45818976D01*
X135031081Y-45818976D02*
X134935843Y-45771357D01*
X134935843Y-45771357D02*
X134888224Y-45723738D01*
X134888224Y-45723738D02*
X134840605Y-45628500D01*
X134840605Y-45628500D02*
X134840605Y-45438024D01*
X134840605Y-45438024D02*
X134888224Y-45342786D01*
X134888224Y-45342786D02*
X134935843Y-45295167D01*
X134935843Y-45295167D02*
X135031081Y-45247548D01*
X135031081Y-45247548D02*
X135078700Y-45247548D01*
X135078700Y-45247548D02*
X135173938Y-45295167D01*
X135173938Y-45295167D02*
X135221557Y-45342786D01*
X135221557Y-45342786D02*
X135269176Y-45438024D01*
X135269176Y-45438024D02*
X135269176Y-45628500D01*
X135269176Y-45628500D02*
X135316795Y-45723738D01*
X135316795Y-45723738D02*
X135364414Y-45771357D01*
X135364414Y-45771357D02*
X135459652Y-45818976D01*
X135459652Y-45818976D02*
X135650128Y-45818976D01*
X135650128Y-45818976D02*
X135745366Y-45771357D01*
X135745366Y-45771357D02*
X135792986Y-45723738D01*
X135792986Y-45723738D02*
X135840605Y-45628500D01*
X135840605Y-45628500D02*
X135840605Y-45438024D01*
X135840605Y-45438024D02*
X135792986Y-45342786D01*
X135792986Y-45342786D02*
X135745366Y-45295167D01*
X135745366Y-45295167D02*
X135650128Y-45247548D01*
X135650128Y-45247548D02*
X135459652Y-45247548D01*
X135459652Y-45247548D02*
X135364414Y-45295167D01*
X135364414Y-45295167D02*
X135316795Y-45342786D01*
X135316795Y-45342786D02*
X135269176Y-45438024D01*
X155665605Y-83952309D02*
X154665605Y-83952309D01*
X154665605Y-83952309D02*
X154665605Y-83714214D01*
X154665605Y-83714214D02*
X154713224Y-83571357D01*
X154713224Y-83571357D02*
X154808462Y-83476119D01*
X154808462Y-83476119D02*
X154903700Y-83428500D01*
X154903700Y-83428500D02*
X155094176Y-83380881D01*
X155094176Y-83380881D02*
X155237033Y-83380881D01*
X155237033Y-83380881D02*
X155427509Y-83428500D01*
X155427509Y-83428500D02*
X155522747Y-83476119D01*
X155522747Y-83476119D02*
X155617986Y-83571357D01*
X155617986Y-83571357D02*
X155665605Y-83714214D01*
X155665605Y-83714214D02*
X155665605Y-83952309D01*
X155665605Y-82428500D02*
X155665605Y-82999928D01*
X155665605Y-82714214D02*
X154665605Y-82714214D01*
X154665605Y-82714214D02*
X154808462Y-82809452D01*
X154808462Y-82809452D02*
X154903700Y-82904690D01*
X154903700Y-82904690D02*
X154951319Y-82999928D01*
X119140605Y-67880881D02*
X118664414Y-68214214D01*
X119140605Y-68452309D02*
X118140605Y-68452309D01*
X118140605Y-68452309D02*
X118140605Y-68071357D01*
X118140605Y-68071357D02*
X118188224Y-67976119D01*
X118188224Y-67976119D02*
X118235843Y-67928500D01*
X118235843Y-67928500D02*
X118331081Y-67880881D01*
X118331081Y-67880881D02*
X118473938Y-67880881D01*
X118473938Y-67880881D02*
X118569176Y-67928500D01*
X118569176Y-67928500D02*
X118616795Y-67976119D01*
X118616795Y-67976119D02*
X118664414Y-68071357D01*
X118664414Y-68071357D02*
X118664414Y-68452309D01*
X119140605Y-66928500D02*
X119140605Y-67499928D01*
X119140605Y-67214214D02*
X118140605Y-67214214D01*
X118140605Y-67214214D02*
X118283462Y-67309452D01*
X118283462Y-67309452D02*
X118378700Y-67404690D01*
X118378700Y-67404690D02*
X118426319Y-67499928D01*
X62069119Y-55698795D02*
X62021500Y-55746415D01*
X62021500Y-55746415D02*
X61878643Y-55794034D01*
X61878643Y-55794034D02*
X61783405Y-55794034D01*
X61783405Y-55794034D02*
X61640548Y-55746415D01*
X61640548Y-55746415D02*
X61545310Y-55651176D01*
X61545310Y-55651176D02*
X61497691Y-55555938D01*
X61497691Y-55555938D02*
X61450072Y-55365462D01*
X61450072Y-55365462D02*
X61450072Y-55222605D01*
X61450072Y-55222605D02*
X61497691Y-55032129D01*
X61497691Y-55032129D02*
X61545310Y-54936891D01*
X61545310Y-54936891D02*
X61640548Y-54841653D01*
X61640548Y-54841653D02*
X61783405Y-54794034D01*
X61783405Y-54794034D02*
X61878643Y-54794034D01*
X61878643Y-54794034D02*
X62021500Y-54841653D01*
X62021500Y-54841653D02*
X62069119Y-54889272D01*
X62402453Y-54794034D02*
X63069119Y-54794034D01*
X63069119Y-54794034D02*
X62640548Y-55794034D01*
X82095366Y-58519572D02*
X82142986Y-58567191D01*
X82142986Y-58567191D02*
X82190605Y-58710048D01*
X82190605Y-58710048D02*
X82190605Y-58805286D01*
X82190605Y-58805286D02*
X82142986Y-58948143D01*
X82142986Y-58948143D02*
X82047747Y-59043381D01*
X82047747Y-59043381D02*
X81952509Y-59091000D01*
X81952509Y-59091000D02*
X81762033Y-59138619D01*
X81762033Y-59138619D02*
X81619176Y-59138619D01*
X81619176Y-59138619D02*
X81428700Y-59091000D01*
X81428700Y-59091000D02*
X81333462Y-59043381D01*
X81333462Y-59043381D02*
X81238224Y-58948143D01*
X81238224Y-58948143D02*
X81190605Y-58805286D01*
X81190605Y-58805286D02*
X81190605Y-58710048D01*
X81190605Y-58710048D02*
X81238224Y-58567191D01*
X81238224Y-58567191D02*
X81285843Y-58519572D01*
X81285843Y-58138619D02*
X81238224Y-58091000D01*
X81238224Y-58091000D02*
X81190605Y-57995762D01*
X81190605Y-57995762D02*
X81190605Y-57757667D01*
X81190605Y-57757667D02*
X81238224Y-57662429D01*
X81238224Y-57662429D02*
X81285843Y-57614810D01*
X81285843Y-57614810D02*
X81381081Y-57567191D01*
X81381081Y-57567191D02*
X81476319Y-57567191D01*
X81476319Y-57567191D02*
X81619176Y-57614810D01*
X81619176Y-57614810D02*
X82190605Y-58186238D01*
X82190605Y-58186238D02*
X82190605Y-57567191D01*
X81190605Y-56662429D02*
X81190605Y-57138619D01*
X81190605Y-57138619D02*
X81666795Y-57186238D01*
X81666795Y-57186238D02*
X81619176Y-57138619D01*
X81619176Y-57138619D02*
X81571557Y-57043381D01*
X81571557Y-57043381D02*
X81571557Y-56805286D01*
X81571557Y-56805286D02*
X81619176Y-56710048D01*
X81619176Y-56710048D02*
X81666795Y-56662429D01*
X81666795Y-56662429D02*
X81762033Y-56614810D01*
X81762033Y-56614810D02*
X82000128Y-56614810D01*
X82000128Y-56614810D02*
X82095366Y-56662429D01*
X82095366Y-56662429D02*
X82142986Y-56710048D01*
X82142986Y-56710048D02*
X82190605Y-56805286D01*
X82190605Y-56805286D02*
X82190605Y-57043381D01*
X82190605Y-57043381D02*
X82142986Y-57138619D01*
X82142986Y-57138619D02*
X82095366Y-57186238D01*
X108940605Y-41547548D02*
X109654890Y-41547548D01*
X109654890Y-41547548D02*
X109797747Y-41595167D01*
X109797747Y-41595167D02*
X109892986Y-41690405D01*
X109892986Y-41690405D02*
X109940605Y-41833262D01*
X109940605Y-41833262D02*
X109940605Y-41928500D01*
X109940605Y-41023738D02*
X109940605Y-40833262D01*
X109940605Y-40833262D02*
X109892986Y-40738024D01*
X109892986Y-40738024D02*
X109845366Y-40690405D01*
X109845366Y-40690405D02*
X109702509Y-40595167D01*
X109702509Y-40595167D02*
X109512033Y-40547548D01*
X109512033Y-40547548D02*
X109131081Y-40547548D01*
X109131081Y-40547548D02*
X109035843Y-40595167D01*
X109035843Y-40595167D02*
X108988224Y-40642786D01*
X108988224Y-40642786D02*
X108940605Y-40738024D01*
X108940605Y-40738024D02*
X108940605Y-40928500D01*
X108940605Y-40928500D02*
X108988224Y-41023738D01*
X108988224Y-41023738D02*
X109035843Y-41071357D01*
X109035843Y-41071357D02*
X109131081Y-41118976D01*
X109131081Y-41118976D02*
X109369176Y-41118976D01*
X109369176Y-41118976D02*
X109464414Y-41071357D01*
X109464414Y-41071357D02*
X109512033Y-41023738D01*
X109512033Y-41023738D02*
X109559652Y-40928500D01*
X109559652Y-40928500D02*
X109559652Y-40738024D01*
X109559652Y-40738024D02*
X109512033Y-40642786D01*
X109512033Y-40642786D02*
X109464414Y-40595167D01*
X109464414Y-40595167D02*
X109369176Y-40547548D01*
X112950486Y-43785643D02*
X112950486Y-42642786D01*
X113521914Y-43214214D02*
X112379057Y-43214214D01*
X112950486Y-30785643D02*
X112950486Y-29642786D01*
X54992928Y-46569034D02*
X54659595Y-46092843D01*
X54421500Y-46569034D02*
X54421500Y-45569034D01*
X54421500Y-45569034D02*
X54802452Y-45569034D01*
X54802452Y-45569034D02*
X54897690Y-45616653D01*
X54897690Y-45616653D02*
X54945309Y-45664272D01*
X54945309Y-45664272D02*
X54992928Y-45759510D01*
X54992928Y-45759510D02*
X54992928Y-45902367D01*
X54992928Y-45902367D02*
X54945309Y-45997605D01*
X54945309Y-45997605D02*
X54897690Y-46045224D01*
X54897690Y-46045224D02*
X54802452Y-46092843D01*
X54802452Y-46092843D02*
X54421500Y-46092843D01*
X55373881Y-45664272D02*
X55421500Y-45616653D01*
X55421500Y-45616653D02*
X55516738Y-45569034D01*
X55516738Y-45569034D02*
X55754833Y-45569034D01*
X55754833Y-45569034D02*
X55850071Y-45616653D01*
X55850071Y-45616653D02*
X55897690Y-45664272D01*
X55897690Y-45664272D02*
X55945309Y-45759510D01*
X55945309Y-45759510D02*
X55945309Y-45854748D01*
X55945309Y-45854748D02*
X55897690Y-45997605D01*
X55897690Y-45997605D02*
X55326262Y-46569034D01*
X55326262Y-46569034D02*
X55945309Y-46569034D01*
X56278643Y-45569034D02*
X56945309Y-45569034D01*
X56945309Y-45569034D02*
X56516738Y-46569034D01*
X78205366Y-58519572D02*
X78252986Y-58567191D01*
X78252986Y-58567191D02*
X78300605Y-58710048D01*
X78300605Y-58710048D02*
X78300605Y-58805286D01*
X78300605Y-58805286D02*
X78252986Y-58948143D01*
X78252986Y-58948143D02*
X78157747Y-59043381D01*
X78157747Y-59043381D02*
X78062509Y-59091000D01*
X78062509Y-59091000D02*
X77872033Y-59138619D01*
X77872033Y-59138619D02*
X77729176Y-59138619D01*
X77729176Y-59138619D02*
X77538700Y-59091000D01*
X77538700Y-59091000D02*
X77443462Y-59043381D01*
X77443462Y-59043381D02*
X77348224Y-58948143D01*
X77348224Y-58948143D02*
X77300605Y-58805286D01*
X77300605Y-58805286D02*
X77300605Y-58710048D01*
X77300605Y-58710048D02*
X77348224Y-58567191D01*
X77348224Y-58567191D02*
X77395843Y-58519572D01*
X77395843Y-58138619D02*
X77348224Y-58091000D01*
X77348224Y-58091000D02*
X77300605Y-57995762D01*
X77300605Y-57995762D02*
X77300605Y-57757667D01*
X77300605Y-57757667D02*
X77348224Y-57662429D01*
X77348224Y-57662429D02*
X77395843Y-57614810D01*
X77395843Y-57614810D02*
X77491081Y-57567191D01*
X77491081Y-57567191D02*
X77586319Y-57567191D01*
X77586319Y-57567191D02*
X77729176Y-57614810D01*
X77729176Y-57614810D02*
X78300605Y-58186238D01*
X78300605Y-58186238D02*
X78300605Y-57567191D01*
X77395843Y-57186238D02*
X77348224Y-57138619D01*
X77348224Y-57138619D02*
X77300605Y-57043381D01*
X77300605Y-57043381D02*
X77300605Y-56805286D01*
X77300605Y-56805286D02*
X77348224Y-56710048D01*
X77348224Y-56710048D02*
X77395843Y-56662429D01*
X77395843Y-56662429D02*
X77491081Y-56614810D01*
X77491081Y-56614810D02*
X77586319Y-56614810D01*
X77586319Y-56614810D02*
X77729176Y-56662429D01*
X77729176Y-56662429D02*
X78300605Y-57233857D01*
X78300605Y-57233857D02*
X78300605Y-56614810D01*
X119140605Y-70657072D02*
X118664414Y-70990405D01*
X119140605Y-71228500D02*
X118140605Y-71228500D01*
X118140605Y-71228500D02*
X118140605Y-70847548D01*
X118140605Y-70847548D02*
X118188224Y-70752310D01*
X118188224Y-70752310D02*
X118235843Y-70704691D01*
X118235843Y-70704691D02*
X118331081Y-70657072D01*
X118331081Y-70657072D02*
X118473938Y-70657072D01*
X118473938Y-70657072D02*
X118569176Y-70704691D01*
X118569176Y-70704691D02*
X118616795Y-70752310D01*
X118616795Y-70752310D02*
X118664414Y-70847548D01*
X118664414Y-70847548D02*
X118664414Y-71228500D01*
X119140605Y-69704691D02*
X119140605Y-70276119D01*
X119140605Y-69990405D02*
X118140605Y-69990405D01*
X118140605Y-69990405D02*
X118283462Y-70085643D01*
X118283462Y-70085643D02*
X118378700Y-70180881D01*
X118378700Y-70180881D02*
X118426319Y-70276119D01*
X118235843Y-69323738D02*
X118188224Y-69276119D01*
X118188224Y-69276119D02*
X118140605Y-69180881D01*
X118140605Y-69180881D02*
X118140605Y-68942786D01*
X118140605Y-68942786D02*
X118188224Y-68847548D01*
X118188224Y-68847548D02*
X118235843Y-68799929D01*
X118235843Y-68799929D02*
X118331081Y-68752310D01*
X118331081Y-68752310D02*
X118426319Y-68752310D01*
X118426319Y-68752310D02*
X118569176Y-68799929D01*
X118569176Y-68799929D02*
X119140605Y-69371357D01*
X119140605Y-69371357D02*
X119140605Y-68752310D01*
X89119119Y-44169034D02*
X88785786Y-43692843D01*
X88547691Y-44169034D02*
X88547691Y-43169034D01*
X88547691Y-43169034D02*
X88928643Y-43169034D01*
X88928643Y-43169034D02*
X89023881Y-43216653D01*
X89023881Y-43216653D02*
X89071500Y-43264272D01*
X89071500Y-43264272D02*
X89119119Y-43359510D01*
X89119119Y-43359510D02*
X89119119Y-43502367D01*
X89119119Y-43502367D02*
X89071500Y-43597605D01*
X89071500Y-43597605D02*
X89023881Y-43645224D01*
X89023881Y-43645224D02*
X88928643Y-43692843D01*
X88928643Y-43692843D02*
X88547691Y-43692843D01*
X89452453Y-43169034D02*
X90071500Y-43169034D01*
X90071500Y-43169034D02*
X89738167Y-43549986D01*
X89738167Y-43549986D02*
X89881024Y-43549986D01*
X89881024Y-43549986D02*
X89976262Y-43597605D01*
X89976262Y-43597605D02*
X90023881Y-43645224D01*
X90023881Y-43645224D02*
X90071500Y-43740462D01*
X90071500Y-43740462D02*
X90071500Y-43978557D01*
X90071500Y-43978557D02*
X90023881Y-44073795D01*
X90023881Y-44073795D02*
X89976262Y-44121415D01*
X89976262Y-44121415D02*
X89881024Y-44169034D01*
X89881024Y-44169034D02*
X89595310Y-44169034D01*
X89595310Y-44169034D02*
X89500072Y-44121415D01*
X89500072Y-44121415D02*
X89452453Y-44073795D01*
X94440605Y-41523738D02*
X95154890Y-41523738D01*
X95154890Y-41523738D02*
X95297747Y-41571357D01*
X95297747Y-41571357D02*
X95392986Y-41666595D01*
X95392986Y-41666595D02*
X95440605Y-41809452D01*
X95440605Y-41809452D02*
X95440605Y-41904690D01*
X95440605Y-40523738D02*
X95440605Y-41095166D01*
X95440605Y-40809452D02*
X94440605Y-40809452D01*
X94440605Y-40809452D02*
X94583462Y-40904690D01*
X94583462Y-40904690D02*
X94678700Y-40999928D01*
X94678700Y-40999928D02*
X94726319Y-41095166D01*
X95440605Y-39571357D02*
X95440605Y-40142785D01*
X95440605Y-39857071D02*
X94440605Y-39857071D01*
X94440605Y-39857071D02*
X94583462Y-39952309D01*
X94583462Y-39952309D02*
X94678700Y-40047547D01*
X94678700Y-40047547D02*
X94726319Y-40142785D01*
X98450486Y-43785643D02*
X98450486Y-42642786D01*
X99021914Y-43214214D02*
X97879057Y-43214214D01*
X98450486Y-30785643D02*
X98450486Y-29642786D01*
D11*
%TO.C,C28*%
X78646786Y-36346836D02*
X78646786Y-35716836D01*
X78331786Y-36031836D02*
X78961786Y-36031836D01*
X77255786Y-32846595D02*
X83715786Y-32846595D01*
X77255786Y-32806595D02*
X83715786Y-32806595D01*
X77256786Y-32766595D02*
X83714786Y-32766595D01*
X77257786Y-32726595D02*
X83713786Y-32726595D01*
X77259786Y-32686595D02*
X83711786Y-32686595D01*
X77261786Y-32646595D02*
X83709786Y-32646595D01*
X77264786Y-32606595D02*
X79445786Y-32606595D01*
X81525786Y-32606595D02*
X83706786Y-32606595D01*
X77267786Y-32566595D02*
X79445786Y-32566595D01*
X81525786Y-32566595D02*
X83703786Y-32566595D01*
X77271786Y-32526595D02*
X79445786Y-32526595D01*
X81525786Y-32526595D02*
X83699786Y-32526595D01*
X77275786Y-32486595D02*
X79445786Y-32486595D01*
X81525786Y-32486595D02*
X83695786Y-32486595D01*
X77280786Y-32446595D02*
X79445786Y-32446595D01*
X81525786Y-32446595D02*
X83690786Y-32446595D01*
X77285786Y-32406595D02*
X79445786Y-32406595D01*
X81525786Y-32406595D02*
X83685786Y-32406595D01*
X77290786Y-32366595D02*
X79445786Y-32366595D01*
X81525786Y-32366595D02*
X83680786Y-32366595D01*
X77297786Y-32326595D02*
X79445786Y-32326595D01*
X81525786Y-32326595D02*
X83673786Y-32326595D01*
X77303786Y-32286595D02*
X79445786Y-32286595D01*
X81525786Y-32286595D02*
X83667786Y-32286595D01*
X77311786Y-32246595D02*
X79445786Y-32246595D01*
X81525786Y-32246595D02*
X83659786Y-32246595D01*
X77318786Y-32206595D02*
X79445786Y-32206595D01*
X81525786Y-32206595D02*
X83652786Y-32206595D01*
X77326786Y-32166595D02*
X79445786Y-32166595D01*
X81525786Y-32166595D02*
X83644786Y-32166595D01*
X77335786Y-32126595D02*
X79445786Y-32126595D01*
X81525786Y-32126595D02*
X83635786Y-32126595D01*
X77345786Y-32086595D02*
X79445786Y-32086595D01*
X81525786Y-32086595D02*
X83625786Y-32086595D01*
X77354786Y-32046595D02*
X79445786Y-32046595D01*
X81525786Y-32046595D02*
X83616786Y-32046595D01*
X77365786Y-32006595D02*
X79445786Y-32006595D01*
X81525786Y-32006595D02*
X83605786Y-32006595D01*
X77376786Y-31966595D02*
X79445786Y-31966595D01*
X81525786Y-31966595D02*
X83594786Y-31966595D01*
X77387786Y-31926595D02*
X79445786Y-31926595D01*
X81525786Y-31926595D02*
X83583786Y-31926595D01*
X77399786Y-31886595D02*
X79445786Y-31886595D01*
X81525786Y-31886595D02*
X83571786Y-31886595D01*
X77412786Y-31846595D02*
X79445786Y-31846595D01*
X81525786Y-31846595D02*
X83558786Y-31846595D01*
X77425786Y-31806595D02*
X79445786Y-31806595D01*
X81525786Y-31806595D02*
X83545786Y-31806595D01*
X77438786Y-31766595D02*
X79445786Y-31766595D01*
X81525786Y-31766595D02*
X83532786Y-31766595D01*
X77453786Y-31726595D02*
X79445786Y-31726595D01*
X81525786Y-31726595D02*
X83517786Y-31726595D01*
X77468786Y-31686595D02*
X79445786Y-31686595D01*
X81525786Y-31686595D02*
X83502786Y-31686595D01*
X77483786Y-31646595D02*
X79445786Y-31646595D01*
X81525786Y-31646595D02*
X83487786Y-31646595D01*
X77499786Y-31606595D02*
X79445786Y-31606595D01*
X81525786Y-31606595D02*
X83471786Y-31606595D01*
X77516786Y-31566595D02*
X79445786Y-31566595D01*
X81525786Y-31566595D02*
X83454786Y-31566595D01*
X77533786Y-31526595D02*
X79445786Y-31526595D01*
X81525786Y-31526595D02*
X83437786Y-31526595D01*
X77551786Y-31486595D02*
X79445786Y-31486595D01*
X81525786Y-31486595D02*
X83419786Y-31486595D01*
X77570786Y-31446595D02*
X79445786Y-31446595D01*
X81525786Y-31446595D02*
X83400786Y-31446595D01*
X77589786Y-31406595D02*
X79445786Y-31406595D01*
X81525786Y-31406595D02*
X83381786Y-31406595D01*
X77609786Y-31366595D02*
X79445786Y-31366595D01*
X81525786Y-31366595D02*
X83361786Y-31366595D01*
X77630786Y-31326595D02*
X79445786Y-31326595D01*
X81525786Y-31326595D02*
X83340786Y-31326595D01*
X77651786Y-31286595D02*
X79445786Y-31286595D01*
X81525786Y-31286595D02*
X83319786Y-31286595D01*
X77673786Y-31246595D02*
X79445786Y-31246595D01*
X81525786Y-31246595D02*
X83297786Y-31246595D01*
X77696786Y-31206595D02*
X79445786Y-31206595D01*
X81525786Y-31206595D02*
X83274786Y-31206595D01*
X77720786Y-31166595D02*
X79445786Y-31166595D01*
X81525786Y-31166595D02*
X83250786Y-31166595D01*
X77744786Y-31126595D02*
X79445786Y-31126595D01*
X81525786Y-31126595D02*
X83226786Y-31126595D01*
X77769786Y-31086595D02*
X79445786Y-31086595D01*
X81525786Y-31086595D02*
X83201786Y-31086595D01*
X77795786Y-31046595D02*
X79445786Y-31046595D01*
X81525786Y-31046595D02*
X83175786Y-31046595D01*
X77822786Y-31006595D02*
X79445786Y-31006595D01*
X81525786Y-31006595D02*
X83148786Y-31006595D01*
X77849786Y-30966595D02*
X79445786Y-30966595D01*
X81525786Y-30966595D02*
X83121786Y-30966595D01*
X77878786Y-30926595D02*
X79445786Y-30926595D01*
X81525786Y-30926595D02*
X83092786Y-30926595D01*
X77908786Y-30886595D02*
X79445786Y-30886595D01*
X81525786Y-30886595D02*
X83062786Y-30886595D01*
X77938786Y-30846595D02*
X79445786Y-30846595D01*
X81525786Y-30846595D02*
X83032786Y-30846595D01*
X77969786Y-30806595D02*
X79445786Y-30806595D01*
X81525786Y-30806595D02*
X83001786Y-30806595D01*
X78002786Y-30766595D02*
X79445786Y-30766595D01*
X81525786Y-30766595D02*
X82968786Y-30766595D01*
X78035786Y-30726595D02*
X79445786Y-30726595D01*
X81525786Y-30726595D02*
X82935786Y-30726595D01*
X78070786Y-30686595D02*
X79445786Y-30686595D01*
X81525786Y-30686595D02*
X82900786Y-30686595D01*
X78106786Y-30646595D02*
X79445786Y-30646595D01*
X81525786Y-30646595D02*
X82864786Y-30646595D01*
X78143786Y-30606595D02*
X79445786Y-30606595D01*
X81525786Y-30606595D02*
X82827786Y-30606595D01*
X78181786Y-30566595D02*
X79445786Y-30566595D01*
X81525786Y-30566595D02*
X82789786Y-30566595D01*
X78221786Y-30526595D02*
X82749786Y-30526595D01*
X78262786Y-30486595D02*
X82708786Y-30486595D01*
X78304786Y-30446595D02*
X82666786Y-30446595D01*
X78348786Y-30406595D02*
X82622786Y-30406595D01*
X78394786Y-30366595D02*
X82576786Y-30366595D01*
X78441786Y-30326595D02*
X82529786Y-30326595D01*
X78490786Y-30286595D02*
X82480786Y-30286595D01*
X78542786Y-30246595D02*
X82428786Y-30246595D01*
X78595786Y-30206595D02*
X82375786Y-30206595D01*
X78651786Y-30166595D02*
X82319786Y-30166595D01*
X78710786Y-30126595D02*
X82260786Y-30126595D01*
X78771786Y-30086595D02*
X82199786Y-30086595D01*
X78836786Y-30046595D02*
X82134786Y-30046595D01*
X78904786Y-30006595D02*
X82066786Y-30006595D01*
X78976786Y-29966595D02*
X81994786Y-29966595D01*
X79053786Y-29926595D02*
X81917786Y-29926595D01*
X79135786Y-29886595D02*
X81835786Y-29886595D01*
X79224786Y-29846595D02*
X81746786Y-29846595D01*
X79320786Y-29806595D02*
X81650786Y-29806595D01*
X79427786Y-29766595D02*
X81543786Y-29766595D01*
X79546786Y-29726595D02*
X81424786Y-29726595D01*
X79684786Y-29686595D02*
X81286786Y-29686595D01*
X79852786Y-29646595D02*
X81118786Y-29646595D01*
X80083786Y-29606595D02*
X80887786Y-29606595D01*
X83755786Y-32846595D02*
G75*
G02*
X77215786Y-32846595I-3270000J0D01*
G01*
X77215786Y-32846595D02*
G75*
G02*
X83755786Y-32846595I3270000J0D01*
G01*
%TO.C,C27*%
X86524786Y-37863974D02*
X86524786Y-38493974D01*
X86839786Y-38178974D02*
X86209786Y-38178974D01*
X87915786Y-41364215D02*
X81455786Y-41364215D01*
X87915786Y-41404215D02*
X81455786Y-41404215D01*
X87914786Y-41444215D02*
X81456786Y-41444215D01*
X87913786Y-41484215D02*
X81457786Y-41484215D01*
X87911786Y-41524215D02*
X81459786Y-41524215D01*
X87909786Y-41564215D02*
X81461786Y-41564215D01*
X87906786Y-41604215D02*
X85725786Y-41604215D01*
X83645786Y-41604215D02*
X81464786Y-41604215D01*
X87903786Y-41644215D02*
X85725786Y-41644215D01*
X83645786Y-41644215D02*
X81467786Y-41644215D01*
X87899786Y-41684215D02*
X85725786Y-41684215D01*
X83645786Y-41684215D02*
X81471786Y-41684215D01*
X87895786Y-41724215D02*
X85725786Y-41724215D01*
X83645786Y-41724215D02*
X81475786Y-41724215D01*
X87890786Y-41764215D02*
X85725786Y-41764215D01*
X83645786Y-41764215D02*
X81480786Y-41764215D01*
X87885786Y-41804215D02*
X85725786Y-41804215D01*
X83645786Y-41804215D02*
X81485786Y-41804215D01*
X87880786Y-41844215D02*
X85725786Y-41844215D01*
X83645786Y-41844215D02*
X81490786Y-41844215D01*
X87873786Y-41884215D02*
X85725786Y-41884215D01*
X83645786Y-41884215D02*
X81497786Y-41884215D01*
X87867786Y-41924215D02*
X85725786Y-41924215D01*
X83645786Y-41924215D02*
X81503786Y-41924215D01*
X87859786Y-41964215D02*
X85725786Y-41964215D01*
X83645786Y-41964215D02*
X81511786Y-41964215D01*
X87852786Y-42004215D02*
X85725786Y-42004215D01*
X83645786Y-42004215D02*
X81518786Y-42004215D01*
X87844786Y-42044215D02*
X85725786Y-42044215D01*
X83645786Y-42044215D02*
X81526786Y-42044215D01*
X87835786Y-42084215D02*
X85725786Y-42084215D01*
X83645786Y-42084215D02*
X81535786Y-42084215D01*
X87825786Y-42124215D02*
X85725786Y-42124215D01*
X83645786Y-42124215D02*
X81545786Y-42124215D01*
X87816786Y-42164215D02*
X85725786Y-42164215D01*
X83645786Y-42164215D02*
X81554786Y-42164215D01*
X87805786Y-42204215D02*
X85725786Y-42204215D01*
X83645786Y-42204215D02*
X81565786Y-42204215D01*
X87794786Y-42244215D02*
X85725786Y-42244215D01*
X83645786Y-42244215D02*
X81576786Y-42244215D01*
X87783786Y-42284215D02*
X85725786Y-42284215D01*
X83645786Y-42284215D02*
X81587786Y-42284215D01*
X87771786Y-42324215D02*
X85725786Y-42324215D01*
X83645786Y-42324215D02*
X81599786Y-42324215D01*
X87758786Y-42364215D02*
X85725786Y-42364215D01*
X83645786Y-42364215D02*
X81612786Y-42364215D01*
X87745786Y-42404215D02*
X85725786Y-42404215D01*
X83645786Y-42404215D02*
X81625786Y-42404215D01*
X87732786Y-42444215D02*
X85725786Y-42444215D01*
X83645786Y-42444215D02*
X81638786Y-42444215D01*
X87717786Y-42484215D02*
X85725786Y-42484215D01*
X83645786Y-42484215D02*
X81653786Y-42484215D01*
X87702786Y-42524215D02*
X85725786Y-42524215D01*
X83645786Y-42524215D02*
X81668786Y-42524215D01*
X87687786Y-42564215D02*
X85725786Y-42564215D01*
X83645786Y-42564215D02*
X81683786Y-42564215D01*
X87671786Y-42604215D02*
X85725786Y-42604215D01*
X83645786Y-42604215D02*
X81699786Y-42604215D01*
X87654786Y-42644215D02*
X85725786Y-42644215D01*
X83645786Y-42644215D02*
X81716786Y-42644215D01*
X87637786Y-42684215D02*
X85725786Y-42684215D01*
X83645786Y-42684215D02*
X81733786Y-42684215D01*
X87619786Y-42724215D02*
X85725786Y-42724215D01*
X83645786Y-42724215D02*
X81751786Y-42724215D01*
X87600786Y-42764215D02*
X85725786Y-42764215D01*
X83645786Y-42764215D02*
X81770786Y-42764215D01*
X87581786Y-42804215D02*
X85725786Y-42804215D01*
X83645786Y-42804215D02*
X81789786Y-42804215D01*
X87561786Y-42844215D02*
X85725786Y-42844215D01*
X83645786Y-42844215D02*
X81809786Y-42844215D01*
X87540786Y-42884215D02*
X85725786Y-42884215D01*
X83645786Y-42884215D02*
X81830786Y-42884215D01*
X87519786Y-42924215D02*
X85725786Y-42924215D01*
X83645786Y-42924215D02*
X81851786Y-42924215D01*
X87497786Y-42964215D02*
X85725786Y-42964215D01*
X83645786Y-42964215D02*
X81873786Y-42964215D01*
X87474786Y-43004215D02*
X85725786Y-43004215D01*
X83645786Y-43004215D02*
X81896786Y-43004215D01*
X87450786Y-43044215D02*
X85725786Y-43044215D01*
X83645786Y-43044215D02*
X81920786Y-43044215D01*
X87426786Y-43084215D02*
X85725786Y-43084215D01*
X83645786Y-43084215D02*
X81944786Y-43084215D01*
X87401786Y-43124215D02*
X85725786Y-43124215D01*
X83645786Y-43124215D02*
X81969786Y-43124215D01*
X87375786Y-43164215D02*
X85725786Y-43164215D01*
X83645786Y-43164215D02*
X81995786Y-43164215D01*
X87348786Y-43204215D02*
X85725786Y-43204215D01*
X83645786Y-43204215D02*
X82022786Y-43204215D01*
X87321786Y-43244215D02*
X85725786Y-43244215D01*
X83645786Y-43244215D02*
X82049786Y-43244215D01*
X87292786Y-43284215D02*
X85725786Y-43284215D01*
X83645786Y-43284215D02*
X82078786Y-43284215D01*
X87262786Y-43324215D02*
X85725786Y-43324215D01*
X83645786Y-43324215D02*
X82108786Y-43324215D01*
X87232786Y-43364215D02*
X85725786Y-43364215D01*
X83645786Y-43364215D02*
X82138786Y-43364215D01*
X87201786Y-43404215D02*
X85725786Y-43404215D01*
X83645786Y-43404215D02*
X82169786Y-43404215D01*
X87168786Y-43444215D02*
X85725786Y-43444215D01*
X83645786Y-43444215D02*
X82202786Y-43444215D01*
X87135786Y-43484215D02*
X85725786Y-43484215D01*
X83645786Y-43484215D02*
X82235786Y-43484215D01*
X87100786Y-43524215D02*
X85725786Y-43524215D01*
X83645786Y-43524215D02*
X82270786Y-43524215D01*
X87064786Y-43564215D02*
X85725786Y-43564215D01*
X83645786Y-43564215D02*
X82306786Y-43564215D01*
X87027786Y-43604215D02*
X85725786Y-43604215D01*
X83645786Y-43604215D02*
X82343786Y-43604215D01*
X86989786Y-43644215D02*
X85725786Y-43644215D01*
X83645786Y-43644215D02*
X82381786Y-43644215D01*
X86949786Y-43684215D02*
X82421786Y-43684215D01*
X86908786Y-43724215D02*
X82462786Y-43724215D01*
X86866786Y-43764215D02*
X82504786Y-43764215D01*
X86822786Y-43804215D02*
X82548786Y-43804215D01*
X86776786Y-43844215D02*
X82594786Y-43844215D01*
X86729786Y-43884215D02*
X82641786Y-43884215D01*
X86680786Y-43924215D02*
X82690786Y-43924215D01*
X86628786Y-43964215D02*
X82742786Y-43964215D01*
X86575786Y-44004215D02*
X82795786Y-44004215D01*
X86519786Y-44044215D02*
X82851786Y-44044215D01*
X86460786Y-44084215D02*
X82910786Y-44084215D01*
X86399786Y-44124215D02*
X82971786Y-44124215D01*
X86334786Y-44164215D02*
X83036786Y-44164215D01*
X86266786Y-44204215D02*
X83104786Y-44204215D01*
X86194786Y-44244215D02*
X83176786Y-44244215D01*
X86117786Y-44284215D02*
X83253786Y-44284215D01*
X86035786Y-44324215D02*
X83335786Y-44324215D01*
X85946786Y-44364215D02*
X83424786Y-44364215D01*
X85850786Y-44404215D02*
X83520786Y-44404215D01*
X85743786Y-44444215D02*
X83627786Y-44444215D01*
X85624786Y-44484215D02*
X83746786Y-44484215D01*
X85486786Y-44524215D02*
X83884786Y-44524215D01*
X85318786Y-44564215D02*
X84052786Y-44564215D01*
X85087786Y-44604215D02*
X84283786Y-44604215D01*
X87955786Y-41364215D02*
G75*
G02*
X81415786Y-41364215I-3270000J0D01*
G01*
X81415786Y-41364215D02*
G75*
G02*
X87955786Y-41364215I3270000J0D01*
G01*
%TO.C,TP1*%
X74235786Y-30214215D02*
G75*
G02*
X71835786Y-30214215I-1200000J0D01*
G01*
X71835786Y-30214215D02*
G75*
G02*
X74235786Y-30214215I1200000J0D01*
G01*
%TO.C,C24*%
X138350786Y-69352963D02*
X138350786Y-69875467D01*
X139820786Y-69352963D02*
X139820786Y-69875467D01*
%TO.C,C14*%
X76350786Y-47875467D02*
X76350786Y-47352963D01*
X77820786Y-47875467D02*
X77820786Y-47352963D01*
%TO.C,J14*%
X101975786Y-50124215D02*
X101975786Y-51374215D01*
X101975786Y-51374215D02*
X103225786Y-51374215D01*
X102075786Y-49314215D02*
X102075786Y-49614215D01*
X102075786Y-49614215D02*
X102275786Y-49614215D01*
X102175786Y-49314215D02*
X102175786Y-49614215D01*
X102275786Y-44954215D02*
X102275786Y-51074215D01*
X102275786Y-48514215D02*
X102885786Y-48514215D01*
X102275786Y-49314215D02*
X102075786Y-49314215D01*
X102275786Y-51074215D02*
X106995786Y-51074215D01*
X102885786Y-45564215D02*
X102885786Y-47514215D01*
X102885786Y-47514215D02*
X102275786Y-47514215D01*
X102885786Y-48514215D02*
X102885786Y-50464215D01*
X102885786Y-50464215D02*
X106385786Y-50464215D01*
X103585786Y-44954215D02*
X103585786Y-45564215D01*
X103585786Y-51074215D02*
X103585786Y-50464215D01*
X104885786Y-44954215D02*
X104885786Y-45564215D01*
X104885786Y-51074215D02*
X104885786Y-50464215D01*
X105885786Y-47914215D02*
X106385786Y-47914215D01*
X105885786Y-48114215D02*
X105885786Y-47914215D01*
X106385786Y-45564215D02*
X102885786Y-45564215D01*
X106385786Y-48014215D02*
X105885786Y-48014215D01*
X106385786Y-48114215D02*
X105885786Y-48114215D01*
X106385786Y-50464215D02*
X106385786Y-45564215D01*
X106995786Y-44954215D02*
X102275786Y-44954215D01*
X106995786Y-51074215D02*
X106995786Y-44954215D01*
%TO.C,Q2*%
X120815786Y-53844215D02*
X120815786Y-54114215D01*
X120815786Y-60744215D02*
X120815786Y-60474215D01*
X127235786Y-53844215D02*
X120815786Y-53844215D01*
X127235786Y-60744215D02*
X120815786Y-60744215D01*
X119085786Y-54154215D02*
X118745786Y-53684215D01*
X119425786Y-53684215D01*
X119085786Y-54154215D01*
G36*
X119085786Y-54154215D02*
G01*
X118745786Y-53684215D01*
X119425786Y-53684215D01*
X119085786Y-54154215D01*
G37*
%TO.C,R29*%
X59908722Y-60404215D02*
X60362850Y-60404215D01*
X59908722Y-61874215D02*
X60362850Y-61874215D01*
%TO.C,J20*%
X96375786Y-80904215D02*
X97425786Y-80904215D01*
X96375786Y-82054215D02*
X96375786Y-80904215D01*
X101425786Y-84024215D02*
X97545786Y-84024215D01*
X101545786Y-80904215D02*
X101545786Y-79914215D01*
X102595786Y-80904215D02*
X101545786Y-80904215D01*
X102595786Y-82054215D02*
X102595786Y-80904215D01*
%TO.C,TP9*%
X140585786Y-64864215D02*
G75*
G02*
X138185786Y-64864215I-1200000J0D01*
G01*
X138185786Y-64864215D02*
G75*
G02*
X140585786Y-64864215I1200000J0D01*
G01*
%TO.C,TP7*%
X134285786Y-49714215D02*
G75*
G02*
X131885786Y-49714215I-1200000J0D01*
G01*
X131885786Y-49714215D02*
G75*
G02*
X134285786Y-49714215I1200000J0D01*
G01*
%TO.C,C20*%
X65334538Y-58709215D02*
X64812034Y-58709215D01*
X65334538Y-60179215D02*
X64812034Y-60179215D01*
%TO.C,TP6*%
X77085786Y-39514215D02*
G75*
G02*
X74685786Y-39514215I-1200000J0D01*
G01*
X74685786Y-39514215D02*
G75*
G02*
X77085786Y-39514215I1200000J0D01*
G01*
%TO.C,J1*%
X52025786Y-28954215D02*
X66335786Y-28954215D01*
X52025786Y-44674215D02*
X52025786Y-28954215D01*
X52025786Y-44674215D02*
X66335786Y-44674215D01*
X70445786Y-38104215D02*
X70445786Y-34364215D01*
X66335786Y-28954215D02*
G75*
G02*
X70266199Y-31862567I0J-4110000D01*
G01*
X69858744Y-42681021D02*
G75*
G02*
X66335786Y-44674215I-3522957J2116805D01*
G01*
D12*
%TO.C,G\u002A\u002A\u002A*%
G36*
X88523911Y-59668886D02*
G01*
X88584407Y-59699137D01*
X88620173Y-59777068D01*
X88625916Y-59886149D01*
X88603661Y-59993672D01*
X88561946Y-60061561D01*
X88466883Y-60108510D01*
X88348187Y-60118501D01*
X88238121Y-60092067D01*
X88186259Y-60055354D01*
X88135106Y-59955524D01*
X88131364Y-59841952D01*
X88173330Y-59743482D01*
X88206533Y-59711880D01*
X88300989Y-59672473D01*
X88417026Y-59657797D01*
X88523911Y-59668886D01*
G37*
G36*
X97086283Y-58972731D02*
G01*
X97159143Y-59051659D01*
X97198886Y-59157682D01*
X97198486Y-59269918D01*
X97150911Y-59367486D01*
X97135786Y-59382799D01*
X97051634Y-59424627D01*
X96940993Y-59440480D01*
X96836517Y-59428868D01*
X96779569Y-59399053D01*
X96734942Y-59309556D01*
X96739017Y-59198953D01*
X96782454Y-59087803D01*
X96855910Y-58996664D01*
X96950044Y-58946096D01*
X96987337Y-58941781D01*
X97086283Y-58972731D01*
G37*
G36*
X94311551Y-61091056D02*
G01*
X94379187Y-61121366D01*
X94407641Y-61199030D01*
X94408543Y-61206354D01*
X94405876Y-61268170D01*
X94376670Y-61332902D01*
X94311511Y-61415584D01*
X94212060Y-61520081D01*
X94080537Y-61641461D01*
X93932887Y-61760369D01*
X93800255Y-61851789D01*
X93795813Y-61854453D01*
X93587838Y-61978350D01*
X93009878Y-61974426D01*
X92668396Y-61966314D01*
X92384978Y-61946432D01*
X92147063Y-61913825D01*
X92103440Y-61905615D01*
X91839963Y-61845418D01*
X91600118Y-61774990D01*
X91398611Y-61699342D01*
X91250149Y-61623484D01*
X91224612Y-61606216D01*
X91149892Y-61525087D01*
X91130043Y-61442191D01*
X91163631Y-61375089D01*
X91246244Y-61341661D01*
X91335288Y-61345159D01*
X91390387Y-61366450D01*
X91467750Y-61410016D01*
X91599330Y-61462724D01*
X91769307Y-61519580D01*
X91961863Y-61575593D01*
X92161177Y-61625768D01*
X92315895Y-61658548D01*
X92582489Y-61698277D01*
X92868245Y-61722773D01*
X93053072Y-61728279D01*
X93223323Y-61726983D01*
X93341972Y-61720452D01*
X93428857Y-61704724D01*
X93503815Y-61675838D01*
X93586680Y-61629832D01*
X93606870Y-61617669D01*
X93722892Y-61537078D01*
X93860456Y-61426554D01*
X93992195Y-61308249D01*
X94007895Y-61293033D01*
X94129408Y-61180326D01*
X94217496Y-61115476D01*
X94283693Y-61090809D01*
X94311551Y-61091056D01*
G37*
G36*
X92653271Y-53180619D02*
G01*
X92824886Y-53206045D01*
X93015655Y-53240786D01*
X93223946Y-53277794D01*
X93408959Y-53309833D01*
X93432199Y-53313766D01*
X93725816Y-53363711D01*
X93960504Y-53404920D01*
X94147915Y-53439765D01*
X94299700Y-53470618D01*
X94427510Y-53499852D01*
X94542996Y-53529838D01*
X94657810Y-53562949D01*
X94661388Y-53564022D01*
X95114047Y-53718741D01*
X95564548Y-53908210D01*
X95996556Y-54124103D01*
X96393737Y-54358092D01*
X96739756Y-54601851D01*
X96813901Y-54661316D01*
X96963119Y-54781795D01*
X97122324Y-54906175D01*
X97264003Y-55013076D01*
X97303690Y-55041927D01*
X97484887Y-55186650D01*
X97652742Y-55354866D01*
X97818212Y-55559366D01*
X97992252Y-55812941D01*
X98070674Y-55937370D01*
X98145832Y-56051041D01*
X98221809Y-56153679D01*
X98253137Y-56191008D01*
X98305860Y-56265020D01*
X98377956Y-56388054D01*
X98463274Y-56547218D01*
X98555664Y-56729619D01*
X98648974Y-56922365D01*
X98737055Y-57112563D01*
X98813756Y-57287321D01*
X98872927Y-57433746D01*
X98908416Y-57538945D01*
X98915884Y-57580224D01*
X98929854Y-57631559D01*
X98965936Y-57724341D01*
X99001997Y-57806743D01*
X99073483Y-57972147D01*
X99153377Y-58171377D01*
X99233422Y-58382381D01*
X99305367Y-58583108D01*
X99360957Y-58751508D01*
X99380054Y-58816746D01*
X99411056Y-58913396D01*
X99456960Y-59038330D01*
X99482467Y-59102541D01*
X99522938Y-59223935D01*
X99571254Y-59407025D01*
X99625384Y-59642743D01*
X99683300Y-59922021D01*
X99742972Y-60235790D01*
X99770347Y-60388617D01*
X99782701Y-60485353D01*
X99796912Y-60640416D01*
X99812039Y-60840737D01*
X99827140Y-61073251D01*
X99841274Y-61324889D01*
X99848834Y-61478209D01*
X99860995Y-61721351D01*
X99873533Y-61940526D01*
X99885745Y-62125720D01*
X99896931Y-62266920D01*
X99906389Y-62354112D01*
X99911836Y-62377946D01*
X99963208Y-62387545D01*
X100063131Y-62371442D01*
X100195385Y-62334099D01*
X100343752Y-62279981D01*
X100469893Y-62224377D01*
X100587814Y-62171246D01*
X100685235Y-62133816D01*
X100737825Y-62120686D01*
X100819852Y-62105194D01*
X100847188Y-62055506D01*
X100822695Y-61963509D01*
X100806037Y-61927207D01*
X100749970Y-61783292D01*
X100742689Y-61684238D01*
X100772506Y-61639614D01*
X100776449Y-61597877D01*
X100755576Y-61501620D01*
X100712717Y-61362204D01*
X100680827Y-61271331D01*
X100602359Y-61052149D01*
X100522451Y-60822269D01*
X100445495Y-60594998D01*
X100375884Y-60383641D01*
X100318009Y-60201506D01*
X100276264Y-60061898D01*
X100256689Y-59986359D01*
X100223424Y-59869409D01*
X100185133Y-59772013D01*
X100120569Y-59629416D01*
X100037575Y-59435273D01*
X99942338Y-59205110D01*
X99841048Y-58954454D01*
X99739893Y-58698833D01*
X99645061Y-58453772D01*
X99562740Y-58234799D01*
X99499120Y-58057440D01*
X99484034Y-58012949D01*
X99427803Y-57855980D01*
X99397918Y-57780641D01*
X99701819Y-57780641D01*
X99724425Y-57840607D01*
X99737544Y-57852189D01*
X99767740Y-57902666D01*
X99773268Y-57942351D01*
X99786964Y-58003763D01*
X99825829Y-58122059D01*
X99886530Y-58288608D01*
X99965734Y-58494778D01*
X100060108Y-58731936D01*
X100166318Y-58991450D01*
X100281032Y-59264688D01*
X100310913Y-59334749D01*
X100381428Y-59504894D01*
X100442797Y-59662871D01*
X100488351Y-59790859D01*
X100511231Y-59870054D01*
X100539064Y-59978661D01*
X100581634Y-60111948D01*
X100604033Y-60173711D01*
X100654771Y-60315446D01*
X100702588Y-60462547D01*
X100717702Y-60513652D01*
X100749824Y-60616767D01*
X100799329Y-60763465D01*
X100858264Y-60930523D01*
X100895132Y-61031655D01*
X100950983Y-61183143D01*
X100998155Y-61311785D01*
X101030758Y-61401478D01*
X101042051Y-61433337D01*
X101067977Y-61459344D01*
X101128539Y-61446725D01*
X101156381Y-61435482D01*
X101239140Y-61395751D01*
X101289706Y-61364311D01*
X101306125Y-61318465D01*
X101323456Y-61217769D01*
X101339262Y-61078747D01*
X101347999Y-60969198D01*
X101357183Y-60782672D01*
X101354849Y-60628242D01*
X101338654Y-60476306D01*
X101306256Y-60297261D01*
X101287929Y-60209995D01*
X101200770Y-59826067D01*
X101116019Y-59495185D01*
X101035234Y-59222934D01*
X100959975Y-59014902D01*
X100943959Y-58977506D01*
X100863662Y-58826271D01*
X100748720Y-58647399D01*
X100612705Y-58458764D01*
X100469194Y-58278242D01*
X100331760Y-58123707D01*
X100213979Y-58013033D01*
X100207796Y-58008149D01*
X100084591Y-57921068D01*
X99959352Y-57847284D01*
X99845717Y-57792926D01*
X99757318Y-57764127D01*
X99707793Y-57767017D01*
X99701819Y-57780641D01*
X99397918Y-57780641D01*
X99363125Y-57692929D01*
X99319518Y-57593150D01*
X99273536Y-57479866D01*
X99246857Y-57385115D01*
X99244019Y-57343080D01*
X99286114Y-57289791D01*
X99374828Y-57269546D01*
X99493529Y-57282161D01*
X99625586Y-57327448D01*
X99666095Y-57347798D01*
X99788876Y-57413793D01*
X99936528Y-57492053D01*
X100036720Y-57544570D01*
X100161452Y-57615617D01*
X100294595Y-57701189D01*
X100422116Y-57790966D01*
X100529982Y-57874623D01*
X100604160Y-57941837D01*
X100630652Y-57981466D01*
X100652295Y-58024589D01*
X100707430Y-58099544D01*
X100746756Y-58146812D01*
X100822825Y-58238268D01*
X100882250Y-58316045D01*
X100898585Y-58340470D01*
X100936894Y-58400759D01*
X101000428Y-58497347D01*
X101062801Y-58590541D01*
X101129585Y-58693990D01*
X101182664Y-58790470D01*
X101228533Y-58896297D01*
X101273687Y-59027788D01*
X101324621Y-59201259D01*
X101366166Y-59352611D01*
X101475898Y-59776373D01*
X101559623Y-60143264D01*
X101618641Y-60462436D01*
X101654251Y-60743045D01*
X101667754Y-60994243D01*
X101660448Y-61225184D01*
X101648637Y-61342071D01*
X101639715Y-61487226D01*
X101659439Y-61605271D01*
X101694200Y-61695933D01*
X101739778Y-61811118D01*
X101792336Y-61962875D01*
X101840623Y-62118695D01*
X101841359Y-62121247D01*
X101888478Y-62284887D01*
X101937045Y-62453211D01*
X101975355Y-62585663D01*
X102025560Y-62730447D01*
X102088569Y-62875641D01*
X102119510Y-62934983D01*
X102181806Y-63080689D01*
X102199540Y-63211308D01*
X102173466Y-63313104D01*
X102104336Y-63372337D01*
X102095350Y-63375313D01*
X101885488Y-63436955D01*
X101733292Y-63480353D01*
X101627856Y-63507333D01*
X101558272Y-63519722D01*
X101513634Y-63519346D01*
X101483037Y-63508032D01*
X101455573Y-63487605D01*
X101450377Y-63483312D01*
X101405395Y-63415958D01*
X101350231Y-63281113D01*
X101286046Y-63081827D01*
X101251430Y-62960769D01*
X101202473Y-62784032D01*
X101159262Y-62628421D01*
X101125942Y-62508843D01*
X101106662Y-62440205D01*
X101104836Y-62433835D01*
X101056726Y-62383874D01*
X100959433Y-62373516D01*
X100822671Y-62401918D01*
X100656155Y-62468236D01*
X100644601Y-62473805D01*
X100442093Y-62559233D01*
X100239326Y-62621722D01*
X100061194Y-62654151D01*
X100003842Y-62657112D01*
X99929326Y-62672958D01*
X99896705Y-62701982D01*
X99893989Y-62746991D01*
X99894038Y-62853562D01*
X99896535Y-63011875D01*
X99901161Y-63212109D01*
X99907600Y-63444443D01*
X99915535Y-63699058D01*
X99924648Y-63966132D01*
X99934621Y-64235846D01*
X99945138Y-64498380D01*
X99955881Y-64743912D01*
X99966532Y-64962622D01*
X99974333Y-65104229D01*
X99976826Y-65358251D01*
X99956008Y-65598045D01*
X99914442Y-65804498D01*
X99861387Y-65946055D01*
X99825300Y-65997292D01*
X99765912Y-66048353D01*
X99674509Y-66103892D01*
X99542374Y-66168558D01*
X99360793Y-66247003D01*
X99121050Y-66343879D01*
X99101382Y-66351661D01*
X98926329Y-66424323D01*
X98760047Y-66499457D01*
X98622891Y-66567519D01*
X98543722Y-66613140D01*
X98479018Y-66654490D01*
X98416476Y-66688963D01*
X98344410Y-66720658D01*
X98251132Y-66753675D01*
X98124956Y-66792111D01*
X97954194Y-66840065D01*
X97727160Y-66901637D01*
X97701257Y-66908609D01*
X97449504Y-66976516D01*
X97258557Y-67029205D01*
X97120236Y-67070047D01*
X97026360Y-67102417D01*
X96968748Y-67129685D01*
X96939219Y-67155227D01*
X96929593Y-67182414D01*
X96931689Y-67214619D01*
X96933298Y-67225232D01*
X96943820Y-67309437D01*
X96956922Y-67435892D01*
X96968427Y-67561940D01*
X96988819Y-67730529D01*
X97019642Y-67909722D01*
X97043811Y-68018296D01*
X97071724Y-68150062D01*
X97086910Y-68268272D01*
X97087301Y-68329221D01*
X97067071Y-68399443D01*
X97012975Y-68424587D01*
X96969446Y-68426592D01*
X96911429Y-68421959D01*
X96872912Y-68397784D01*
X96842634Y-68338653D01*
X96809338Y-68229151D01*
X96799842Y-68194383D01*
X96767606Y-68050437D01*
X96736042Y-67867183D01*
X96710428Y-67676614D01*
X96703485Y-67610331D01*
X96688009Y-67459922D01*
X96673258Y-67338582D01*
X96661299Y-67262281D01*
X96656086Y-67244478D01*
X96616773Y-67244989D01*
X96529958Y-67260965D01*
X96448249Y-67280427D01*
X96302991Y-67314130D01*
X96145596Y-67342513D01*
X95968320Y-67366117D01*
X95763422Y-67385478D01*
X95523158Y-67401136D01*
X95239785Y-67413629D01*
X94905562Y-67423495D01*
X94512744Y-67431273D01*
X94218134Y-67435518D01*
X93578220Y-67440282D01*
X92990512Y-67436964D01*
X92436154Y-67424935D01*
X91896293Y-67403563D01*
X91352075Y-67372217D01*
X90784646Y-67330268D01*
X90592115Y-67314248D01*
X90373158Y-67295879D01*
X90170679Y-67279439D01*
X89998702Y-67266025D01*
X89871251Y-67256733D01*
X89806179Y-67252800D01*
X89681144Y-67247689D01*
X89673950Y-67815782D01*
X89670374Y-68012783D01*
X89665193Y-68186388D01*
X89658964Y-68323210D01*
X89652244Y-68409862D01*
X89648278Y-68432027D01*
X89601532Y-68469297D01*
X89523897Y-68478453D01*
X89450403Y-68458950D01*
X89424251Y-68435523D01*
X89414693Y-68386421D01*
X89406469Y-68278637D01*
X89400145Y-68124936D01*
X89396286Y-67938081D01*
X89395350Y-67783554D01*
X89395350Y-67176240D01*
X89270315Y-67151134D01*
X88958399Y-67088375D01*
X88709126Y-67037882D01*
X88515041Y-66998083D01*
X88368690Y-66967405D01*
X88262621Y-66944276D01*
X88189379Y-66927124D01*
X88141510Y-66914375D01*
X88127136Y-66909941D01*
X87826296Y-66826862D01*
X87519822Y-66763319D01*
X87176515Y-66689834D01*
X86876478Y-66599752D01*
X86662438Y-66516172D01*
X86517823Y-66454395D01*
X86374855Y-66393813D01*
X86279461Y-66353793D01*
X86133329Y-66276972D01*
X86045361Y-66185099D01*
X86002282Y-66061955D01*
X85995174Y-66006489D01*
X85979569Y-65879425D01*
X85955289Y-65728921D01*
X85941829Y-65657956D01*
X85923559Y-65518450D01*
X85911435Y-65316929D01*
X85906249Y-65097567D01*
X86167793Y-65097567D01*
X86174433Y-65314197D01*
X86188363Y-65482973D01*
X86196764Y-65543587D01*
X86229903Y-65739494D01*
X86260087Y-65877506D01*
X86293367Y-65970605D01*
X86335794Y-66031775D01*
X86393421Y-66073998D01*
X86458175Y-66104394D01*
X86579337Y-66156331D01*
X86724120Y-66219823D01*
X86805336Y-66256045D01*
X87138347Y-66382495D01*
X87509680Y-66482636D01*
X87662720Y-66513370D01*
X88011786Y-66587074D01*
X88270033Y-66659931D01*
X88351211Y-66681410D01*
X88488527Y-66712408D01*
X88667748Y-66750096D01*
X88874638Y-66791641D01*
X89094963Y-66834214D01*
X89314488Y-66874984D01*
X89518980Y-66911121D01*
X89609696Y-66926330D01*
X89786958Y-66955512D01*
X89961284Y-66984431D01*
X90105368Y-67008549D01*
X90155318Y-67017011D01*
X90254923Y-67030081D01*
X90409181Y-67045558D01*
X90601400Y-67061980D01*
X90814889Y-67077887D01*
X90959115Y-67087379D01*
X91205917Y-67102913D01*
X91469705Y-67119855D01*
X91724666Y-67136525D01*
X91944983Y-67151244D01*
X92021088Y-67156449D01*
X92178121Y-67164249D01*
X92389900Y-67170235D01*
X92646899Y-67174483D01*
X92939591Y-67177071D01*
X93258448Y-67178077D01*
X93593944Y-67177577D01*
X93936551Y-67175649D01*
X94276742Y-67172371D01*
X94604990Y-67167819D01*
X94911768Y-67162071D01*
X95187549Y-67155205D01*
X95422806Y-67147297D01*
X95608011Y-67138425D01*
X95733639Y-67128666D01*
X95754281Y-67126144D01*
X95984964Y-67089322D01*
X96221441Y-67042765D01*
X96442680Y-66991232D01*
X96627650Y-66939484D01*
X96718838Y-66907841D01*
X96809972Y-66873752D01*
X96913292Y-66839062D01*
X97042325Y-66799676D01*
X97210598Y-66751500D01*
X97431640Y-66690438D01*
X97486911Y-66675355D01*
X97796204Y-66587791D01*
X98040858Y-66510939D01*
X98226537Y-66442770D01*
X98358907Y-66381254D01*
X98425619Y-66339011D01*
X98459689Y-66315874D01*
X98508212Y-66288741D01*
X98579286Y-66253987D01*
X98681010Y-66207988D01*
X98821482Y-66147120D01*
X99008799Y-66067757D01*
X99251060Y-65966276D01*
X99358667Y-65921386D01*
X99482195Y-65864526D01*
X99579145Y-65809962D01*
X99630480Y-65768551D01*
X99632596Y-65765129D01*
X99662796Y-65674774D01*
X99690560Y-65538179D01*
X99712640Y-65380548D01*
X99725788Y-65227085D01*
X99726759Y-65102995D01*
X99722727Y-65065538D01*
X99715957Y-64996641D01*
X99707871Y-64865914D01*
X99698880Y-64682953D01*
X99689398Y-64457356D01*
X99679840Y-64198720D01*
X99670619Y-63916643D01*
X99665103Y-63728842D01*
X99647518Y-63132917D01*
X99629782Y-62591587D01*
X99612000Y-62107074D01*
X99594274Y-61681601D01*
X99576709Y-61317390D01*
X99559409Y-61016663D01*
X99542476Y-60781643D01*
X99526016Y-60614551D01*
X99516680Y-60549376D01*
X99447605Y-60184698D01*
X99367108Y-59814692D01*
X99279670Y-59457425D01*
X99189771Y-59130963D01*
X99101891Y-58853374D01*
X99082631Y-58798884D01*
X98974824Y-58502085D01*
X98887704Y-58264615D01*
X98818234Y-58078407D01*
X98763377Y-57935397D01*
X98720097Y-57827517D01*
X98692557Y-57762879D01*
X98656383Y-57678206D01*
X98601639Y-57547005D01*
X98536511Y-57388998D01*
X98484950Y-57262738D01*
X98368386Y-56983900D01*
X98267998Y-56762347D01*
X98178292Y-56587282D01*
X98093771Y-56447909D01*
X98016856Y-56343150D01*
X97922617Y-56219499D01*
X97828044Y-56085079D01*
X97799381Y-56041439D01*
X97664312Y-55833741D01*
X97553881Y-55675268D01*
X97457220Y-55553244D01*
X97363463Y-55454894D01*
X97261744Y-55367439D01*
X97163871Y-55294251D01*
X97032949Y-55197102D01*
X96875345Y-55075334D01*
X96718866Y-54950546D01*
X96671004Y-54911387D01*
X96475773Y-54758793D01*
X96273100Y-54619247D01*
X96046068Y-54482232D01*
X95777756Y-54337231D01*
X95611383Y-54252723D01*
X95340833Y-54122560D01*
X95086073Y-54011988D01*
X94834271Y-53917236D01*
X94572595Y-53834536D01*
X94288211Y-53760117D01*
X93968287Y-53690208D01*
X93599990Y-53621040D01*
X93271440Y-53565270D01*
X93083170Y-53533639D01*
X92867685Y-53496329D01*
X92667997Y-53460800D01*
X92646264Y-53456851D01*
X92346612Y-53425363D01*
X92007604Y-53428721D01*
X91650856Y-53464521D01*
X91297983Y-53530362D01*
X90970600Y-53623841D01*
X90894459Y-53651558D01*
X90763643Y-53700862D01*
X90637231Y-53747347D01*
X90592115Y-53763501D01*
X90392805Y-53838238D01*
X90241285Y-53907169D01*
X90115887Y-53981243D01*
X90016047Y-54054531D01*
X89901360Y-54137386D01*
X89787326Y-54207596D01*
X89729198Y-54236578D01*
X89649328Y-54284233D01*
X89534632Y-54370527D01*
X89399810Y-54482603D01*
X89259563Y-54607602D01*
X89128592Y-54732666D01*
X89021596Y-54844938D01*
X88986590Y-54886118D01*
X88924168Y-54958767D01*
X88827756Y-55065582D01*
X88713021Y-55189357D01*
X88644216Y-55262175D01*
X88514307Y-55409258D01*
X88385357Y-55573142D01*
X88278428Y-55726452D01*
X88245680Y-55780178D01*
X88106536Y-56031758D01*
X87959799Y-56312727D01*
X87812838Y-56607650D01*
X87673024Y-56901093D01*
X87547726Y-57177623D01*
X87444313Y-57421805D01*
X87375709Y-57602119D01*
X87225538Y-58034623D01*
X87100357Y-58400395D01*
X87000180Y-58699390D01*
X86925022Y-58931564D01*
X86874899Y-59096871D01*
X86873287Y-59102541D01*
X86835171Y-59235727D01*
X86783524Y-59414226D01*
X86725086Y-59614838D01*
X86666592Y-59814363D01*
X86665808Y-59817028D01*
X86542725Y-60253468D01*
X86431504Y-60689175D01*
X86323117Y-61159564D01*
X86319822Y-61174552D01*
X86299887Y-61297751D01*
X86281828Y-61478739D01*
X86265448Y-61720620D01*
X86250552Y-62026497D01*
X86236942Y-62399474D01*
X86231825Y-62567801D01*
X86222325Y-62895551D01*
X86212205Y-63243757D01*
X86201995Y-63594248D01*
X86192223Y-63928853D01*
X86183421Y-64229399D01*
X86176119Y-64477717D01*
X86175765Y-64489719D01*
X86168289Y-64825326D01*
X86167793Y-65097567D01*
X85906249Y-65097567D01*
X85905421Y-65062560D01*
X85905481Y-64764507D01*
X85911578Y-64431938D01*
X85923676Y-64074017D01*
X85941741Y-63699911D01*
X85950100Y-63556419D01*
X85962849Y-63331415D01*
X85972314Y-63131134D01*
X85978141Y-62966321D01*
X85979978Y-62847719D01*
X85977472Y-62786071D01*
X85975607Y-62780032D01*
X85938735Y-62788784D01*
X85864138Y-62832526D01*
X85787966Y-62886877D01*
X85688865Y-62956043D01*
X85606275Y-63002339D01*
X85568262Y-63014355D01*
X85509111Y-63031757D01*
X85402504Y-63079313D01*
X85262033Y-63150051D01*
X85101287Y-63236998D01*
X84933857Y-63333182D01*
X84858360Y-63378593D01*
X84664270Y-63484618D01*
X84508835Y-63543069D01*
X84395379Y-63553778D01*
X84327224Y-63516575D01*
X84307690Y-63431290D01*
X84310171Y-63406594D01*
X84333016Y-63353020D01*
X84393219Y-63296332D01*
X84501915Y-63227554D01*
X84595724Y-63176387D01*
X84726102Y-63106267D01*
X84835388Y-63045071D01*
X84905495Y-63003009D01*
X84917243Y-62994843D01*
X85009232Y-62936054D01*
X85137479Y-62868508D01*
X85274154Y-62805485D01*
X85391429Y-62760262D01*
X85433179Y-62748667D01*
X85520873Y-62709633D01*
X85624617Y-62635146D01*
X85683249Y-62580714D01*
X85776068Y-62493642D01*
X85862826Y-62427035D01*
X85903296Y-62404563D01*
X85940282Y-62385507D01*
X85963786Y-62353770D01*
X85976861Y-62294935D01*
X85982565Y-62194580D01*
X85983954Y-62038286D01*
X85983969Y-62023889D01*
X85988792Y-61811259D01*
X86001732Y-61582740D01*
X86020998Y-61357384D01*
X86044797Y-61154242D01*
X86071337Y-60992366D01*
X86087397Y-60924482D01*
X86108374Y-60843891D01*
X86139793Y-60714584D01*
X86176604Y-60557592D01*
X86198905Y-60460066D01*
X86247275Y-60259401D01*
X86305148Y-60038376D01*
X86362216Y-59835919D01*
X86378657Y-59781303D01*
X86467772Y-59488788D01*
X86535725Y-59259234D01*
X86583864Y-59087792D01*
X86613535Y-58969614D01*
X86626084Y-58899849D01*
X86626714Y-58888161D01*
X86643525Y-58813891D01*
X86679525Y-58732947D01*
X86709863Y-58664089D01*
X86755418Y-58542932D01*
X86810448Y-58385487D01*
X86869212Y-58207761D01*
X86880107Y-58173708D01*
X86936328Y-58000718D01*
X86987031Y-57851500D01*
X87027405Y-57739741D01*
X87052637Y-57679123D01*
X87056012Y-57673568D01*
X87081620Y-57619375D01*
X87113493Y-57524202D01*
X87126753Y-57477084D01*
X87159991Y-57377419D01*
X87218008Y-57229137D01*
X87294062Y-57047742D01*
X87381414Y-56848737D01*
X87473323Y-56647627D01*
X87563050Y-56459916D01*
X87608198Y-56369630D01*
X87779125Y-56041097D01*
X87927516Y-55771011D01*
X88058141Y-55551797D01*
X88175774Y-55375877D01*
X88285186Y-55235675D01*
X88391149Y-55123614D01*
X88395736Y-55119278D01*
X88487007Y-55027157D01*
X88598863Y-54905533D01*
X88707185Y-54780637D01*
X88707804Y-54779897D01*
X88835116Y-54637237D01*
X88985145Y-54484172D01*
X89145005Y-54332341D01*
X89301813Y-54193384D01*
X89442684Y-54078942D01*
X89554733Y-54000655D01*
X89593377Y-53979841D01*
X89701095Y-53921043D01*
X89821057Y-53841570D01*
X89861309Y-53811304D01*
X90111340Y-53646302D01*
X90387649Y-53530647D01*
X90390361Y-53529771D01*
X90511647Y-53488845D01*
X90657149Y-53437249D01*
X90735012Y-53408647D01*
X91088806Y-53299981D01*
X91478875Y-53220775D01*
X91883873Y-53173100D01*
X92282454Y-53159025D01*
X92653271Y-53180619D01*
G37*
D11*
%TO.C,C4*%
X127124534Y-71079215D02*
X127647038Y-71079215D01*
X127124534Y-72549215D02*
X127647038Y-72549215D01*
%TO.C,R4*%
X157483722Y-80279215D02*
X157937850Y-80279215D01*
X157483722Y-81749215D02*
X157937850Y-81749215D01*
%TO.C,J23*%
X59005786Y-68294215D02*
X110025786Y-68294215D01*
X59005786Y-70944215D02*
X59005786Y-68294215D01*
X59005786Y-73594215D02*
X59005786Y-72214215D01*
X60385786Y-73594215D02*
X59005786Y-73594215D01*
X61655786Y-70944215D02*
X59005786Y-70944215D01*
X61655786Y-73594215D02*
X61655786Y-70944215D01*
X61655786Y-73594215D02*
X110025786Y-73594215D01*
X110025786Y-73594215D02*
X110025786Y-68294215D01*
%TO.C,C21*%
X66024534Y-64579215D02*
X66547038Y-64579215D01*
X66024534Y-66049215D02*
X66547038Y-66049215D01*
%TO.C,TP3*%
X120285786Y-82514215D02*
G75*
G02*
X117885786Y-82514215I-1200000J0D01*
G01*
X117885786Y-82514215D02*
G75*
G02*
X120285786Y-82514215I1200000J0D01*
G01*
%TO.C,R16*%
X119512850Y-74779215D02*
X119058722Y-74779215D01*
X119512850Y-76249215D02*
X119058722Y-76249215D01*
%TO.C,U1*%
X125038286Y-67204215D02*
X126858286Y-67204215D01*
X125038286Y-67254215D02*
X125038286Y-67204215D01*
X125038286Y-70324215D02*
X125038286Y-70274215D01*
X126858286Y-67204215D02*
X126858286Y-67254215D01*
X126858286Y-70274215D02*
X126858286Y-70324215D01*
X126858286Y-70324215D02*
X125038286Y-70324215D01*
X127638286Y-70604215D02*
X127158286Y-70604215D01*
X127398286Y-70274215D01*
X127638286Y-70604215D01*
G36*
X127638286Y-70604215D02*
G01*
X127158286Y-70604215D01*
X127398286Y-70274215D01*
X127638286Y-70604215D01*
G37*
%TO.C,TP5*%
X80385786Y-39614215D02*
G75*
G02*
X77985786Y-39614215I-1200000J0D01*
G01*
X77985786Y-39614215D02*
G75*
G02*
X80385786Y-39614215I1200000J0D01*
G01*
%TO.C,J17*%
X133015786Y-74166715D02*
X143255786Y-74166715D01*
X133015786Y-77186715D02*
X143255786Y-77186715D01*
X133015786Y-82086715D02*
X143255786Y-82086715D01*
X133015786Y-83586715D02*
X143255786Y-83586715D01*
X133015786Y-84206715D02*
X133015786Y-74166715D01*
X135335786Y-84206715D02*
X133015786Y-84206715D01*
X143255786Y-74166715D02*
X143255786Y-84206715D01*
X143255786Y-84206715D02*
X135935786Y-84206715D01*
X136075786Y-84816715D02*
X135195786Y-84816715D01*
X135635786Y-84206715D01*
X136075786Y-84816715D01*
G36*
X136075786Y-84816715D02*
G01*
X135195786Y-84816715D01*
X135635786Y-84206715D01*
X136075786Y-84816715D01*
G37*
%TO.C,J7*%
X124625786Y-33204215D02*
X124625786Y-41924215D01*
X125925786Y-31504215D02*
X124625786Y-33204215D01*
X128745786Y-31504215D02*
X125925786Y-31504215D01*
X128745786Y-31504215D02*
X130045786Y-33204215D01*
X130045786Y-33204215D02*
X130045786Y-41924215D01*
X130045786Y-41924215D02*
X124625786Y-41924215D01*
%TO.C,R8*%
X142760786Y-50521279D02*
X142760786Y-50067151D01*
X144230786Y-50521279D02*
X144230786Y-50067151D01*
%TO.C,J10*%
X102875786Y-33204215D02*
X102875786Y-41924215D01*
X104175786Y-31504215D02*
X102875786Y-33204215D01*
X106995786Y-31504215D02*
X104175786Y-31504215D01*
X106995786Y-31504215D02*
X108295786Y-33204215D01*
X108295786Y-33204215D02*
X108295786Y-41924215D01*
X108295786Y-41924215D02*
X102875786Y-41924215D01*
%TO.C,IC1*%
X80250786Y-45519215D02*
X84370786Y-45519215D01*
X80250786Y-45614215D02*
X80250786Y-45519215D01*
X80250786Y-50639215D02*
X80250786Y-50544215D01*
X84370786Y-45519215D02*
X84370786Y-45614215D01*
X84370786Y-50544215D02*
X84370786Y-50639215D01*
X84370786Y-50639215D02*
X80250786Y-50639215D01*
X79710786Y-45609215D02*
X79470786Y-45279215D01*
X79950786Y-45279215D01*
X79710786Y-45609215D01*
G36*
X79710786Y-45609215D02*
G01*
X79470786Y-45279215D01*
X79950786Y-45279215D01*
X79710786Y-45609215D01*
G37*
%TO.C,R28*%
X59908722Y-64404215D02*
X60362850Y-64404215D01*
X59908722Y-65874215D02*
X60362850Y-65874215D01*
%TO.C,J21*%
X144825786Y-76054215D02*
X144825786Y-77304215D01*
X145125786Y-76354215D02*
X145125786Y-81074215D01*
X145125786Y-77664215D02*
X145735786Y-77664215D01*
X145125786Y-78964215D02*
X145735786Y-78964215D01*
X145125786Y-81074215D02*
X151245786Y-81074215D01*
X145735786Y-76964215D02*
X145735786Y-80464215D01*
X145735786Y-80464215D02*
X150635786Y-80464215D01*
X146075786Y-76054215D02*
X144825786Y-76054215D01*
X146585786Y-76154215D02*
X146585786Y-76354215D01*
X146885786Y-76154215D02*
X146585786Y-76154215D01*
X146885786Y-76254215D02*
X146585786Y-76254215D01*
X146885786Y-76354215D02*
X146885786Y-76154215D01*
X147685786Y-76354215D02*
X147685786Y-76964215D01*
X147685786Y-76964215D02*
X145735786Y-76964215D01*
X148085786Y-79964215D02*
X148285786Y-79964215D01*
X148085786Y-80464215D02*
X148085786Y-79964215D01*
X148185786Y-80464215D02*
X148185786Y-79964215D01*
X148285786Y-79964215D02*
X148285786Y-80464215D01*
X148685786Y-76964215D02*
X148685786Y-76354215D01*
X150635786Y-76964215D02*
X148685786Y-76964215D01*
X150635786Y-80464215D02*
X150635786Y-76964215D01*
X151245786Y-76354215D02*
X145125786Y-76354215D01*
X151245786Y-77664215D02*
X150635786Y-77664215D01*
X151245786Y-78964215D02*
X150635786Y-78964215D01*
X151245786Y-81074215D02*
X151245786Y-76354215D01*
%TO.C,R24*%
X88750786Y-50141279D02*
X88750786Y-49687151D01*
X90220786Y-50141279D02*
X90220786Y-49687151D01*
%TO.C,R31*%
X145358722Y-82879215D02*
X145812850Y-82879215D01*
X145358722Y-84349215D02*
X145812850Y-84349215D01*
%TO.C,J26*%
X124725786Y-50124215D02*
X124725786Y-51374215D01*
X124725786Y-51374215D02*
X125975786Y-51374215D01*
X124825786Y-49314215D02*
X124825786Y-49614215D01*
X124825786Y-49614215D02*
X125025786Y-49614215D01*
X124925786Y-49314215D02*
X124925786Y-49614215D01*
X125025786Y-44954215D02*
X125025786Y-51074215D01*
X125025786Y-48514215D02*
X125635786Y-48514215D01*
X125025786Y-49314215D02*
X124825786Y-49314215D01*
X125025786Y-51074215D02*
X129745786Y-51074215D01*
X125635786Y-45564215D02*
X125635786Y-47514215D01*
X125635786Y-47514215D02*
X125025786Y-47514215D01*
X125635786Y-48514215D02*
X125635786Y-50464215D01*
X125635786Y-50464215D02*
X129135786Y-50464215D01*
X126335786Y-44954215D02*
X126335786Y-45564215D01*
X126335786Y-51074215D02*
X126335786Y-50464215D01*
X127635786Y-44954215D02*
X127635786Y-45564215D01*
X127635786Y-51074215D02*
X127635786Y-50464215D01*
X128635786Y-47914215D02*
X129135786Y-47914215D01*
X128635786Y-48114215D02*
X128635786Y-47914215D01*
X129135786Y-45564215D02*
X125635786Y-45564215D01*
X129135786Y-48014215D02*
X128635786Y-48014215D01*
X129135786Y-48114215D02*
X128635786Y-48114215D01*
X129135786Y-50464215D02*
X129135786Y-45564215D01*
X129745786Y-44954215D02*
X125025786Y-44954215D01*
X129745786Y-51074215D02*
X129745786Y-44954215D01*
%TO.C,R15*%
X119512850Y-76779215D02*
X119058722Y-76779215D01*
X119512850Y-78249215D02*
X119058722Y-78249215D01*
%TO.C,J5*%
X121865786Y-74194215D02*
X132105786Y-74194215D01*
X121865786Y-77214215D02*
X132105786Y-77214215D01*
X121865786Y-82114215D02*
X132105786Y-82114215D01*
X121865786Y-83614215D02*
X132105786Y-83614215D01*
X121865786Y-84234215D02*
X121865786Y-74194215D01*
X124185786Y-84234215D02*
X121865786Y-84234215D01*
X132105786Y-74194215D02*
X132105786Y-84234215D01*
X132105786Y-84234215D02*
X124785786Y-84234215D01*
X124925786Y-84844215D02*
X124045786Y-84844215D01*
X124485786Y-84234215D01*
X124925786Y-84844215D01*
G36*
X124925786Y-84844215D02*
G01*
X124045786Y-84844215D01*
X124485786Y-84234215D01*
X124925786Y-84844215D01*
G37*
%TO.C,C2*%
X126272038Y-63229215D02*
X125749534Y-63229215D01*
X126272038Y-64699215D02*
X125749534Y-64699215D01*
%TO.C,J6*%
X131875786Y-33204215D02*
X131875786Y-41924215D01*
X133175786Y-31504215D02*
X131875786Y-33204215D01*
X135995786Y-31504215D02*
X133175786Y-31504215D01*
X135995786Y-31504215D02*
X137295786Y-33204215D01*
X137295786Y-33204215D02*
X137295786Y-41924215D01*
X137295786Y-41924215D02*
X131875786Y-41924215D01*
%TO.C,C15*%
X152850786Y-82275467D02*
X152850786Y-81752963D01*
X154320786Y-82275467D02*
X154320786Y-81752963D01*
%TO.C,C5*%
X142560786Y-69390463D02*
X142560786Y-69912967D01*
X144030786Y-69390463D02*
X144030786Y-69912967D01*
%TO.C,Q3*%
X61540786Y-47339215D02*
X61540786Y-47609215D01*
X61540786Y-54239215D02*
X61540786Y-53969215D01*
X67960786Y-47339215D02*
X61540786Y-47339215D01*
X67960786Y-54239215D02*
X61540786Y-54239215D01*
X59810786Y-47649215D02*
X59470786Y-47179215D01*
X60150786Y-47179215D01*
X59810786Y-47649215D01*
G36*
X59810786Y-47649215D02*
G01*
X59470786Y-47179215D01*
X60150786Y-47179215D01*
X59810786Y-47649215D01*
G37*
%TO.C,J25*%
X118975786Y-50124215D02*
X118975786Y-51374215D01*
X118975786Y-51374215D02*
X120225786Y-51374215D01*
X119075786Y-49314215D02*
X119075786Y-49614215D01*
X119075786Y-49614215D02*
X119275786Y-49614215D01*
X119175786Y-49314215D02*
X119175786Y-49614215D01*
X119275786Y-44954215D02*
X119275786Y-51074215D01*
X119275786Y-48514215D02*
X119885786Y-48514215D01*
X119275786Y-49314215D02*
X119075786Y-49314215D01*
X119275786Y-51074215D02*
X123995786Y-51074215D01*
X119885786Y-45564215D02*
X119885786Y-47514215D01*
X119885786Y-47514215D02*
X119275786Y-47514215D01*
X119885786Y-48514215D02*
X119885786Y-50464215D01*
X119885786Y-50464215D02*
X123385786Y-50464215D01*
X120585786Y-44954215D02*
X120585786Y-45564215D01*
X120585786Y-51074215D02*
X120585786Y-50464215D01*
X121885786Y-44954215D02*
X121885786Y-45564215D01*
X121885786Y-51074215D02*
X121885786Y-50464215D01*
X122885786Y-47914215D02*
X123385786Y-47914215D01*
X122885786Y-48114215D02*
X122885786Y-47914215D01*
X123385786Y-45564215D02*
X119885786Y-45564215D01*
X123385786Y-48014215D02*
X122885786Y-48014215D01*
X123385786Y-48114215D02*
X122885786Y-48114215D01*
X123385786Y-50464215D02*
X123385786Y-45564215D01*
X123995786Y-44954215D02*
X119275786Y-44954215D01*
X123995786Y-51074215D02*
X123995786Y-44954215D01*
%TO.C,L5*%
X68435786Y-58814215D02*
X68435786Y-60314215D01*
X68435786Y-65614215D02*
X68435786Y-64114215D01*
X68435786Y-65614215D02*
X75835786Y-65614215D01*
X75835786Y-58814215D02*
X68435786Y-58814215D01*
X75835786Y-58814215D02*
X75835786Y-60314215D01*
X75835786Y-65614215D02*
X75835786Y-64114215D01*
%TO.C,U3*%
X64088286Y-60604215D02*
X65908286Y-60604215D01*
X64088286Y-60654215D02*
X64088286Y-60604215D01*
X64088286Y-63724215D02*
X64088286Y-63674215D01*
X65908286Y-60604215D02*
X65908286Y-60654215D01*
X65908286Y-63674215D02*
X65908286Y-63724215D01*
X65908286Y-63724215D02*
X64088286Y-63724215D01*
X66688286Y-64004215D02*
X66208286Y-64004215D01*
X66448286Y-63674215D01*
X66688286Y-64004215D01*
G36*
X66688286Y-64004215D02*
G01*
X66208286Y-64004215D01*
X66448286Y-63674215D01*
X66688286Y-64004215D01*
G37*
%TO.C,J15*%
X107725786Y-50124215D02*
X107725786Y-51374215D01*
X107725786Y-51374215D02*
X108975786Y-51374215D01*
X107825786Y-49314215D02*
X107825786Y-49614215D01*
X107825786Y-49614215D02*
X108025786Y-49614215D01*
X107925786Y-49314215D02*
X107925786Y-49614215D01*
X108025786Y-44954215D02*
X108025786Y-51074215D01*
X108025786Y-48514215D02*
X108635786Y-48514215D01*
X108025786Y-49314215D02*
X107825786Y-49314215D01*
X108025786Y-51074215D02*
X112745786Y-51074215D01*
X108635786Y-45564215D02*
X108635786Y-47514215D01*
X108635786Y-47514215D02*
X108025786Y-47514215D01*
X108635786Y-48514215D02*
X108635786Y-50464215D01*
X108635786Y-50464215D02*
X112135786Y-50464215D01*
X109335786Y-44954215D02*
X109335786Y-45564215D01*
X109335786Y-51074215D02*
X109335786Y-50464215D01*
X110635786Y-44954215D02*
X110635786Y-45564215D01*
X110635786Y-51074215D02*
X110635786Y-50464215D01*
X111635786Y-47914215D02*
X112135786Y-47914215D01*
X111635786Y-48114215D02*
X111635786Y-47914215D01*
X112135786Y-45564215D02*
X108635786Y-45564215D01*
X112135786Y-48014215D02*
X111635786Y-48014215D01*
X112135786Y-48114215D02*
X111635786Y-48114215D01*
X112135786Y-50464215D02*
X112135786Y-45564215D01*
X112745786Y-44954215D02*
X108025786Y-44954215D01*
X112745786Y-51074215D02*
X112745786Y-44954215D01*
%TO.C,D4*%
X148385786Y-84574215D02*
X151245786Y-84574215D01*
X151245786Y-82654215D02*
X148385786Y-82654215D01*
X151245786Y-84574215D02*
X151245786Y-82654215D01*
%TO.C,D2*%
X61850786Y-26454215D02*
X61850786Y-28374215D01*
X61850786Y-28374215D02*
X64710786Y-28374215D01*
X64710786Y-26454215D02*
X61850786Y-26454215D01*
%TO.C,R5*%
X67283722Y-26679215D02*
X67737850Y-26679215D01*
X67283722Y-28149215D02*
X67737850Y-28149215D01*
%TO.C,R30*%
X60362850Y-62404215D02*
X59908722Y-62404215D01*
X60362850Y-63874215D02*
X59908722Y-63874215D01*
%TO.C,TP10*%
X87885786Y-82814215D02*
G75*
G02*
X85485786Y-82814215I-1200000J0D01*
G01*
X85485786Y-82814215D02*
G75*
G02*
X87885786Y-82814215I1200000J0D01*
G01*
%TO.C,R2*%
X121058722Y-65179215D02*
X121512850Y-65179215D01*
X121058722Y-66649215D02*
X121512850Y-66649215D01*
%TO.C,TP4*%
X90985786Y-82814215D02*
G75*
G02*
X88585786Y-82814215I-1200000J0D01*
G01*
X88585786Y-82814215D02*
G75*
G02*
X90985786Y-82814215I1200000J0D01*
G01*
%TO.C,J2*%
X141975786Y-35924215D02*
X141975786Y-39664215D01*
X160395786Y-29354215D02*
X146085786Y-29354215D01*
X160395786Y-29354215D02*
X160395786Y-45074215D01*
X160395786Y-45074215D02*
X146085786Y-45074215D01*
X142562828Y-31347409D02*
G75*
G02*
X146085786Y-29354215I3522957J-2116805D01*
G01*
X146085786Y-45074215D02*
G75*
G02*
X142155373Y-42165863I0J4110000D01*
G01*
%TO.C,C3*%
X126272038Y-65279215D02*
X125749534Y-65279215D01*
X126272038Y-66749215D02*
X125749534Y-66749215D01*
%TO.C,J13*%
X95975786Y-50124215D02*
X95975786Y-51374215D01*
X95975786Y-51374215D02*
X97225786Y-51374215D01*
X96075786Y-49314215D02*
X96075786Y-49614215D01*
X96075786Y-49614215D02*
X96275786Y-49614215D01*
X96175786Y-49314215D02*
X96175786Y-49614215D01*
X96275786Y-44954215D02*
X96275786Y-51074215D01*
X96275786Y-48514215D02*
X96885786Y-48514215D01*
X96275786Y-49314215D02*
X96075786Y-49314215D01*
X96275786Y-51074215D02*
X100995786Y-51074215D01*
X96885786Y-45564215D02*
X96885786Y-47514215D01*
X96885786Y-47514215D02*
X96275786Y-47514215D01*
X96885786Y-48514215D02*
X96885786Y-50464215D01*
X96885786Y-50464215D02*
X100385786Y-50464215D01*
X97585786Y-44954215D02*
X97585786Y-45564215D01*
X97585786Y-51074215D02*
X97585786Y-50464215D01*
X98885786Y-44954215D02*
X98885786Y-45564215D01*
X98885786Y-51074215D02*
X98885786Y-50464215D01*
X99885786Y-47914215D02*
X100385786Y-47914215D01*
X99885786Y-48114215D02*
X99885786Y-47914215D01*
X100385786Y-45564215D02*
X96885786Y-45564215D01*
X100385786Y-48014215D02*
X99885786Y-48014215D01*
X100385786Y-48114215D02*
X99885786Y-48114215D01*
X100385786Y-50464215D02*
X100385786Y-45564215D01*
X100995786Y-44954215D02*
X96275786Y-44954215D01*
X100995786Y-51074215D02*
X100995786Y-44954215D01*
%TO.C,C16*%
X92124534Y-50179215D02*
X92647038Y-50179215D01*
X92124534Y-51649215D02*
X92647038Y-51649215D01*
%TO.C,J22*%
X152205786Y-79544215D02*
X152205786Y-78164215D01*
X153585786Y-79544215D02*
X152205786Y-79544215D01*
X154855786Y-76784215D02*
X157505786Y-76784215D01*
X154855786Y-79544215D02*
X154855786Y-76784215D01*
X154855786Y-79544215D02*
X157505786Y-79544215D01*
X157505786Y-79544215D02*
X157505786Y-76784215D01*
%TO.C,J8*%
X117375786Y-33204215D02*
X117375786Y-41924215D01*
X118675786Y-31504215D02*
X117375786Y-33204215D01*
X121495786Y-31504215D02*
X118675786Y-31504215D01*
X121495786Y-31504215D02*
X122795786Y-33204215D01*
X122795786Y-33204215D02*
X122795786Y-41924215D01*
X122795786Y-41924215D02*
X117375786Y-41924215D01*
%TO.C,D3*%
X140525786Y-49289215D02*
X140525786Y-52149215D01*
X140525786Y-52149215D02*
X142445786Y-52149215D01*
X142445786Y-52149215D02*
X142445786Y-49289215D01*
%TO.C,C17*%
X138850786Y-41452963D02*
X138850786Y-41975467D01*
X140320786Y-41452963D02*
X140320786Y-41975467D01*
%TO.C,R23*%
X55380786Y-50790478D02*
X55380786Y-52237952D01*
X58090786Y-50790478D02*
X58090786Y-52237952D01*
%TO.C,C19*%
X65334538Y-56679215D02*
X64812034Y-56679215D01*
X65334538Y-58149215D02*
X64812034Y-58149215D01*
%TO.C,J12*%
X72365786Y-41734215D02*
X72365786Y-44494215D01*
X77555786Y-41734215D02*
X72365786Y-41734215D01*
X77555786Y-41734215D02*
X77555786Y-44494215D01*
X77555786Y-44494215D02*
X72365786Y-44494215D01*
X78825786Y-41734215D02*
X80205786Y-41734215D01*
X80205786Y-41734215D02*
X80205786Y-43114215D01*
%TO.C,TP11*%
X77385786Y-30214215D02*
G75*
G02*
X74985786Y-30214215I-1200000J0D01*
G01*
X74985786Y-30214215D02*
G75*
G02*
X77385786Y-30214215I1200000J0D01*
G01*
%TO.C,C1*%
X126272038Y-61179215D02*
X125749534Y-61179215D01*
X126272038Y-62649215D02*
X125749534Y-62649215D01*
%TO.C,C18*%
X71350786Y-37952963D02*
X71350786Y-38475467D01*
X72820786Y-37952963D02*
X72820786Y-38475467D01*
%TO.C,R13*%
X114630786Y-57390478D02*
X114630786Y-58837952D01*
X117340786Y-57390478D02*
X117340786Y-58837952D01*
%TO.C,R25*%
X91750786Y-82041279D02*
X91750786Y-81587151D01*
X93220786Y-82041279D02*
X93220786Y-81587151D01*
%TO.C,TP2*%
X143785786Y-65114215D02*
G75*
G02*
X141385786Y-65114215I-1200000J0D01*
G01*
X141385786Y-65114215D02*
G75*
G02*
X143785786Y-65114215I1200000J0D01*
G01*
%TO.C,C6*%
X140450786Y-69352963D02*
X140450786Y-69875467D01*
X141920786Y-69352963D02*
X141920786Y-69875467D01*
%TO.C,C23*%
X79000786Y-61437967D02*
X79000786Y-60915463D01*
X80470786Y-61437967D02*
X80470786Y-60915463D01*
%TO.C,J3*%
X151075786Y-63654215D02*
X151075786Y-73774215D01*
X155975786Y-63064215D02*
X155975786Y-63654215D01*
X155975786Y-63654215D02*
X151075786Y-63654215D01*
X155975786Y-73774215D02*
X151075786Y-73774215D01*
X155975786Y-73774215D02*
X155975786Y-74364215D01*
X158195786Y-63064215D02*
X158195786Y-63654215D01*
X158195786Y-73774215D02*
X158195786Y-74364215D01*
X160295786Y-63654215D02*
X158195786Y-63654215D01*
X160295786Y-63654215D02*
X160295786Y-73774215D01*
X160295786Y-73774215D02*
X158195786Y-73774215D01*
X155975786Y-63064215D02*
G75*
G02*
X158195786Y-63064215I1110000J0D01*
G01*
X158195786Y-74364215D02*
G75*
G02*
X155975786Y-74364215I-1110000J0D01*
G01*
%TO.C,J4*%
X151075786Y-48654215D02*
X151075786Y-58774215D01*
X155975786Y-48064215D02*
X155975786Y-48654215D01*
X155975786Y-48654215D02*
X151075786Y-48654215D01*
X155975786Y-58774215D02*
X151075786Y-58774215D01*
X155975786Y-58774215D02*
X155975786Y-59364215D01*
X158195786Y-48064215D02*
X158195786Y-48654215D01*
X158195786Y-58774215D02*
X158195786Y-59364215D01*
X160295786Y-48654215D02*
X158195786Y-48654215D01*
X160295786Y-48654215D02*
X160295786Y-58774215D01*
X160295786Y-58774215D02*
X158195786Y-58774215D01*
X155975786Y-48064215D02*
G75*
G02*
X158195786Y-48064215I1110000J0D01*
G01*
X158195786Y-59364215D02*
G75*
G02*
X155975786Y-59364215I-1110000J0D01*
G01*
%TO.C,TP12*%
X106785786Y-82914215D02*
G75*
G02*
X104385786Y-82914215I-1200000J0D01*
G01*
X104385786Y-82914215D02*
G75*
G02*
X106785786Y-82914215I1200000J0D01*
G01*
%TO.C,J16*%
X108775786Y-80879215D02*
X109825786Y-80879215D01*
X108775786Y-82029215D02*
X108775786Y-80879215D01*
X113825786Y-83999215D02*
X109945786Y-83999215D01*
X113945786Y-80879215D02*
X113945786Y-79889215D01*
X114995786Y-80879215D02*
X113945786Y-80879215D01*
X114995786Y-82029215D02*
X114995786Y-80879215D01*
%TO.C,J24*%
X113325786Y-50124215D02*
X113325786Y-51374215D01*
X113325786Y-51374215D02*
X114575786Y-51374215D01*
X113425786Y-49314215D02*
X113425786Y-49614215D01*
X113425786Y-49614215D02*
X113625786Y-49614215D01*
X113525786Y-49314215D02*
X113525786Y-49614215D01*
X113625786Y-44954215D02*
X113625786Y-51074215D01*
X113625786Y-48514215D02*
X114235786Y-48514215D01*
X113625786Y-49314215D02*
X113425786Y-49314215D01*
X113625786Y-51074215D02*
X118345786Y-51074215D01*
X114235786Y-45564215D02*
X114235786Y-47514215D01*
X114235786Y-47514215D02*
X113625786Y-47514215D01*
X114235786Y-48514215D02*
X114235786Y-50464215D01*
X114235786Y-50464215D02*
X117735786Y-50464215D01*
X114935786Y-44954215D02*
X114935786Y-45564215D01*
X114935786Y-51074215D02*
X114935786Y-50464215D01*
X116235786Y-44954215D02*
X116235786Y-45564215D01*
X116235786Y-51074215D02*
X116235786Y-50464215D01*
X117235786Y-47914215D02*
X117735786Y-47914215D01*
X117235786Y-48114215D02*
X117235786Y-47914215D01*
X117735786Y-45564215D02*
X114235786Y-45564215D01*
X117735786Y-48014215D02*
X117235786Y-48014215D01*
X117735786Y-48114215D02*
X117235786Y-48114215D01*
X117735786Y-50464215D02*
X117735786Y-45564215D01*
X118345786Y-44954215D02*
X113625786Y-44954215D01*
X118345786Y-51074215D02*
X118345786Y-44954215D01*
%TO.C,R9*%
X115912850Y-53684215D02*
X115458722Y-53684215D01*
X115912850Y-55154215D02*
X115458722Y-55154215D01*
%TO.C,R26*%
X93750786Y-82041279D02*
X93750786Y-81587151D01*
X95220786Y-82041279D02*
X95220786Y-81587151D01*
%TO.C,L1*%
X129485786Y-65414215D02*
X129485786Y-66914215D01*
X129485786Y-72214215D02*
X129485786Y-70714215D01*
X129485786Y-72214215D02*
X136885786Y-72214215D01*
X136885786Y-65414215D02*
X129485786Y-65414215D01*
X136885786Y-65414215D02*
X136885786Y-66914215D01*
X136885786Y-72214215D02*
X136885786Y-70714215D01*
%TO.C,TP8*%
X134285786Y-46614215D02*
G75*
G02*
X131885786Y-46614215I-1200000J0D01*
G01*
X131885786Y-46614215D02*
G75*
G02*
X134285786Y-46614215I1200000J0D01*
G01*
%TO.C,D1*%
X155850786Y-82054215D02*
X155850786Y-83974215D01*
X155850786Y-83974215D02*
X158710786Y-83974215D01*
X158710786Y-82054215D02*
X155850786Y-82054215D01*
%TO.C,R1*%
X121512850Y-67079215D02*
X121058722Y-67079215D01*
X121512850Y-68549215D02*
X121058722Y-68549215D01*
%TO.C,C7*%
X65354538Y-54579215D02*
X64832034Y-54579215D01*
X65354538Y-56049215D02*
X64832034Y-56049215D01*
%TO.C,C25*%
X81000786Y-61437967D02*
X81000786Y-60915463D01*
X82470786Y-61437967D02*
X82470786Y-60915463D01*
%TO.C,J9*%
X110125786Y-33204215D02*
X110125786Y-41924215D01*
X111425786Y-31504215D02*
X110125786Y-33204215D01*
X114245786Y-31504215D02*
X111425786Y-31504215D01*
X114245786Y-31504215D02*
X115545786Y-33204215D01*
X115545786Y-33204215D02*
X115545786Y-41924215D01*
X115545786Y-41924215D02*
X110125786Y-41924215D01*
%TO.C,R27*%
X59062850Y-45379215D02*
X58608722Y-45379215D01*
X59062850Y-46849215D02*
X58608722Y-46849215D01*
%TO.C,C22*%
X77000786Y-61437967D02*
X77000786Y-60915463D01*
X78470786Y-61437967D02*
X78470786Y-60915463D01*
%TO.C,R12*%
X121058722Y-68979215D02*
X121512850Y-68979215D01*
X121058722Y-70449215D02*
X121512850Y-70449215D01*
%TO.C,R3*%
X88750786Y-46441279D02*
X88750786Y-45987151D01*
X90220786Y-46441279D02*
X90220786Y-45987151D01*
%TO.C,J11*%
X95625786Y-33204215D02*
X95625786Y-41924215D01*
X96925786Y-31504215D02*
X95625786Y-33204215D01*
X99745786Y-31504215D02*
X96925786Y-31504215D01*
X99745786Y-31504215D02*
X101045786Y-33204215D01*
X101045786Y-33204215D02*
X101045786Y-41924215D01*
X101045786Y-41924215D02*
X95625786Y-41924215D01*
%TD*%
%LPC*%
D13*
%TO.C,C28*%
X80485786Y-34096595D03*
D14*
X80485786Y-31596595D03*
%TD*%
D15*
%TO.C,C27*%
X84685786Y-40114215D03*
D14*
X84685786Y-42614215D03*
%TD*%
D16*
%TO.C,TP1*%
X73035786Y-30214215D03*
%TD*%
D17*
%TO.C,C24*%
X139085786Y-68576715D03*
X139085786Y-70651715D03*
%TD*%
D18*
%TO.C,C14*%
X77085786Y-48651715D03*
X77085786Y-46576715D03*
%TD*%
D19*
%TO.C,J14*%
X104085786Y-49014215D03*
D20*
X104085786Y-47014215D03*
%TD*%
D21*
%TO.C,Q2*%
X119085786Y-55014215D03*
D22*
X125385786Y-57294215D03*
D21*
X119085786Y-59574215D03*
%TD*%
D23*
%TO.C,R29*%
X59135786Y-61139215D03*
X61135786Y-61139215D03*
%TD*%
D24*
%TO.C,J20*%
X100985786Y-80689215D03*
X99985786Y-80689215D03*
X98985786Y-80689215D03*
X97985786Y-80689215D03*
D25*
X102285786Y-83214215D03*
X96685786Y-83214215D03*
%TD*%
D16*
%TO.C,TP9*%
X139385786Y-64864215D03*
%TD*%
%TO.C,TP7*%
X133085786Y-49714215D03*
%TD*%
D26*
%TO.C,C20*%
X66110786Y-59444215D03*
X64035786Y-59444215D03*
%TD*%
D16*
%TO.C,TP6*%
X75885786Y-39514215D03*
%TD*%
D27*
%TO.C,J1*%
X62485786Y-43564215D03*
X62485786Y-30064215D03*
D28*
X68485786Y-40414215D03*
D29*
X68485786Y-33214215D03*
%TD*%
D30*
%TO.C,C4*%
X126348286Y-71814215D03*
X128423286Y-71814215D03*
%TD*%
D23*
%TO.C,R4*%
X156710786Y-81014215D03*
X158710786Y-81014215D03*
%TD*%
D31*
%TO.C,J23*%
X60385786Y-72214215D03*
D32*
X60385786Y-69674215D03*
X62925786Y-72214215D03*
X62925786Y-69674215D03*
X65465786Y-72214215D03*
X65465786Y-69674215D03*
X68005786Y-72214215D03*
X68005786Y-69674215D03*
X70545786Y-72214215D03*
X70545786Y-69674215D03*
X73085786Y-72214215D03*
X73085786Y-69674215D03*
X75625786Y-72214215D03*
X75625786Y-69674215D03*
X78165786Y-72214215D03*
X78165786Y-69674215D03*
X80705786Y-72214215D03*
X80705786Y-69674215D03*
X83245786Y-72214215D03*
X83245786Y-69674215D03*
X85785786Y-72214215D03*
X85785786Y-69674215D03*
X88325786Y-72214215D03*
X88325786Y-69674215D03*
X90865786Y-72214215D03*
X90865786Y-69674215D03*
X93405786Y-72214215D03*
X93405786Y-69674215D03*
X95945786Y-72214215D03*
X95945786Y-69674215D03*
X98485786Y-72214215D03*
X98485786Y-69674215D03*
X101025786Y-72214215D03*
X101025786Y-69674215D03*
X103565786Y-72214215D03*
X103565786Y-69674215D03*
X106105786Y-72214215D03*
X106105786Y-69674215D03*
X108645786Y-72214215D03*
X108645786Y-69674215D03*
%TD*%
D30*
%TO.C,C21*%
X65248286Y-65314215D03*
X67323286Y-65314215D03*
%TD*%
D16*
%TO.C,TP3*%
X119085786Y-82514215D03*
%TD*%
D33*
%TO.C,R16*%
X120285786Y-75514215D03*
X118285786Y-75514215D03*
%TD*%
D34*
%TO.C,U1*%
X127085786Y-69714215D03*
X127085786Y-68764215D03*
X127085786Y-67814215D03*
X124810786Y-67814215D03*
X124810786Y-68764215D03*
X124810786Y-69714215D03*
%TD*%
D16*
%TO.C,TP5*%
X79185786Y-39614215D03*
%TD*%
D35*
%TO.C,J17*%
X135635786Y-79486715D03*
D36*
X140635786Y-79486715D03*
%TD*%
D37*
%TO.C,J7*%
X127335786Y-34214215D03*
D38*
X127335786Y-39214215D03*
%TD*%
D39*
%TO.C,R8*%
X143495786Y-51294215D03*
X143495786Y-49294215D03*
%TD*%
D40*
%TO.C,H2*%
X88485786Y-31414215D03*
%TD*%
D37*
%TO.C,J10*%
X105585786Y-34214215D03*
D38*
X105585786Y-39214215D03*
%TD*%
D41*
%TO.C,IC1*%
X79835786Y-46174215D03*
X79835786Y-47444215D03*
X79835786Y-48714215D03*
X79835786Y-49984215D03*
X84785786Y-49984215D03*
X84785786Y-48714215D03*
X84785786Y-47444215D03*
X84785786Y-46174215D03*
%TD*%
D23*
%TO.C,R28*%
X59135786Y-65139215D03*
X61135786Y-65139215D03*
%TD*%
D42*
%TO.C,J21*%
X147185786Y-78164215D03*
D43*
X149185786Y-78164215D03*
%TD*%
D39*
%TO.C,R24*%
X89485786Y-50914215D03*
X89485786Y-48914215D03*
%TD*%
D23*
%TO.C,R31*%
X144585786Y-83614215D03*
X146585786Y-83614215D03*
%TD*%
D19*
%TO.C,J26*%
X126835786Y-49014215D03*
D20*
X126835786Y-47014215D03*
%TD*%
D33*
%TO.C,R15*%
X120285786Y-77514215D03*
X118285786Y-77514215D03*
%TD*%
D35*
%TO.C,J5*%
X124485786Y-79514215D03*
D36*
X129485786Y-79514215D03*
%TD*%
D26*
%TO.C,C2*%
X127048286Y-63964215D03*
X124973286Y-63964215D03*
%TD*%
D37*
%TO.C,J6*%
X134585786Y-34214215D03*
D38*
X134585786Y-39214215D03*
%TD*%
D18*
%TO.C,C15*%
X153585786Y-83051715D03*
X153585786Y-80976715D03*
%TD*%
D17*
%TO.C,C5*%
X143295786Y-68614215D03*
X143295786Y-70689215D03*
%TD*%
D21*
%TO.C,Q3*%
X59810786Y-48509215D03*
D22*
X66110786Y-50789215D03*
D21*
X59810786Y-53069215D03*
%TD*%
D19*
%TO.C,J25*%
X121085786Y-49014215D03*
D20*
X121085786Y-47014215D03*
%TD*%
D44*
%TO.C,L5*%
X69110786Y-62214215D03*
X75160786Y-62214215D03*
%TD*%
D34*
%TO.C,U3*%
X66135786Y-63114215D03*
X66135786Y-62164215D03*
X66135786Y-61214215D03*
X63860786Y-61214215D03*
X63860786Y-62164215D03*
X63860786Y-63114215D03*
%TD*%
D19*
%TO.C,J15*%
X109835786Y-49014215D03*
D20*
X109835786Y-47014215D03*
%TD*%
D45*
%TO.C,D4*%
X150410786Y-83614215D03*
X148360786Y-83614215D03*
%TD*%
D46*
%TO.C,D2*%
X62685786Y-27414215D03*
X64735786Y-27414215D03*
%TD*%
D23*
%TO.C,R5*%
X66510786Y-27414215D03*
X68510786Y-27414215D03*
%TD*%
D33*
%TO.C,R30*%
X61135786Y-63139215D03*
X59135786Y-63139215D03*
%TD*%
D16*
%TO.C,TP10*%
X86685786Y-82814215D03*
%TD*%
D23*
%TO.C,R2*%
X120285786Y-65914215D03*
X122285786Y-65914215D03*
%TD*%
D40*
%TO.C,H1*%
X58385786Y-79014215D03*
%TD*%
D16*
%TO.C,TP4*%
X89785786Y-82814215D03*
%TD*%
D27*
%TO.C,J2*%
X149935786Y-30464215D03*
X149935786Y-43964215D03*
D47*
X143935786Y-33614215D03*
D29*
X143935786Y-40814215D03*
%TD*%
D26*
%TO.C,C3*%
X127048286Y-66014215D03*
X124973286Y-66014215D03*
%TD*%
D19*
%TO.C,J13*%
X98085786Y-49014215D03*
D20*
X98085786Y-47014215D03*
%TD*%
D30*
%TO.C,C16*%
X91348286Y-50914215D03*
X93423286Y-50914215D03*
%TD*%
D31*
%TO.C,J22*%
X153585786Y-78164215D03*
D32*
X156125786Y-78164215D03*
%TD*%
D37*
%TO.C,J8*%
X120085786Y-34214215D03*
D38*
X120085786Y-39214215D03*
%TD*%
D48*
%TO.C,D3*%
X141485786Y-51314215D03*
X141485786Y-49264215D03*
%TD*%
D17*
%TO.C,C17*%
X139585786Y-40676715D03*
X139585786Y-42751715D03*
%TD*%
D49*
%TO.C,R23*%
X56735786Y-49964215D03*
X56735786Y-53064215D03*
%TD*%
D26*
%TO.C,C19*%
X66110786Y-57414215D03*
X64035786Y-57414215D03*
%TD*%
D31*
%TO.C,J12*%
X78825786Y-43114215D03*
D32*
X76285786Y-43114215D03*
X73745786Y-43114215D03*
%TD*%
D16*
%TO.C,TP11*%
X76185786Y-30214215D03*
%TD*%
D26*
%TO.C,C1*%
X127048286Y-61914215D03*
X124973286Y-61914215D03*
%TD*%
D17*
%TO.C,C18*%
X72085786Y-37176715D03*
X72085786Y-39251715D03*
%TD*%
D49*
%TO.C,R13*%
X115985786Y-56564215D03*
X115985786Y-59664215D03*
%TD*%
D39*
%TO.C,R25*%
X92485786Y-82814215D03*
X92485786Y-80814215D03*
%TD*%
D16*
%TO.C,TP2*%
X142585786Y-65114215D03*
%TD*%
D17*
%TO.C,C6*%
X141185786Y-68576715D03*
X141185786Y-70651715D03*
%TD*%
D18*
%TO.C,C23*%
X79735786Y-62214215D03*
X79735786Y-60139215D03*
%TD*%
D50*
%TO.C,J3*%
X157085786Y-63214215D03*
X157085786Y-74214215D03*
D51*
X147085786Y-71214215D03*
D52*
X147085786Y-66214215D03*
%TD*%
D50*
%TO.C,J4*%
X157085786Y-48214215D03*
X157085786Y-59214215D03*
D51*
X147085786Y-56214215D03*
D52*
X147085786Y-51214215D03*
%TD*%
D16*
%TO.C,TP12*%
X105585786Y-82914215D03*
%TD*%
D24*
%TO.C,J16*%
X113385786Y-80664215D03*
X112385786Y-80664215D03*
X111385786Y-80664215D03*
X110385786Y-80664215D03*
D25*
X114685786Y-83189215D03*
X109085786Y-83189215D03*
%TD*%
D19*
%TO.C,J24*%
X115435786Y-49014215D03*
D20*
X115435786Y-47014215D03*
%TD*%
D33*
%TO.C,R9*%
X116685786Y-54419215D03*
X114685786Y-54419215D03*
%TD*%
D39*
%TO.C,R26*%
X94485786Y-82814215D03*
X94485786Y-80814215D03*
%TD*%
D44*
%TO.C,L1*%
X130160786Y-68814215D03*
X136210786Y-68814215D03*
%TD*%
D16*
%TO.C,TP8*%
X133085786Y-46614215D03*
%TD*%
D46*
%TO.C,D1*%
X156685786Y-83014215D03*
X158735786Y-83014215D03*
%TD*%
D33*
%TO.C,R1*%
X122285786Y-67814215D03*
X120285786Y-67814215D03*
%TD*%
D26*
%TO.C,C7*%
X66130786Y-55314215D03*
X64055786Y-55314215D03*
%TD*%
D18*
%TO.C,C25*%
X81735786Y-62214215D03*
X81735786Y-60139215D03*
%TD*%
D37*
%TO.C,J9*%
X112835786Y-34214215D03*
D38*
X112835786Y-39214215D03*
%TD*%
D33*
%TO.C,R27*%
X59835786Y-46114215D03*
X57835786Y-46114215D03*
%TD*%
D18*
%TO.C,C22*%
X77735786Y-62214215D03*
X77735786Y-60139215D03*
%TD*%
D23*
%TO.C,R12*%
X120285786Y-69714215D03*
X122285786Y-69714215D03*
%TD*%
D39*
%TO.C,R3*%
X89485786Y-47214215D03*
X89485786Y-45214215D03*
%TD*%
D37*
%TO.C,J11*%
X98335786Y-34214215D03*
D38*
X98335786Y-39214215D03*
%TD*%
%LPD*%
M02*
