%TF.GenerationSoftware,KiCad,Pcbnew,9.0.7*%
%TF.CreationDate,2026-01-25T21:28:50-05:00*%
%TF.ProjectId,brushlessDriveTrain,62727573-686c-4657-9373-447269766554,rev?*%
%TF.SameCoordinates,Original*%
%TF.FileFunction,Legend,Bot*%
%TF.FilePolarity,Positive*%
%FSLAX46Y46*%
G04 Gerber Fmt 4.6, Leading zero omitted, Abs format (unit mm)*
G04 Created by KiCad (PCBNEW 9.0.7) date 2026-01-25 21:28:50*
%MOMM*%
%LPD*%
G01*
G04 APERTURE LIST*
G04 Aperture macros list*
%AMRoundRect*
0 Rectangle with rounded corners*
0 $1 Rounding radius*
0 $2 $3 $4 $5 $6 $7 $8 $9 X,Y pos of 4 corners*
0 Add a 4 corners polygon primitive as box body*
4,1,4,$2,$3,$4,$5,$6,$7,$8,$9,$2,$3,0*
0 Add four circle primitives for the rounded corners*
1,1,$1+$1,$2,$3*
1,1,$1+$1,$4,$5*
1,1,$1+$1,$6,$7*
1,1,$1+$1,$8,$9*
0 Add four rect primitives between the rounded corners*
20,1,$1+$1,$2,$3,$4,$5,0*
20,1,$1+$1,$4,$5,$6,$7,0*
20,1,$1+$1,$6,$7,$8,$9,0*
20,1,$1+$1,$8,$9,$2,$3,0*%
G04 Aperture macros list end*
%ADD10R,1.700000X1.700000*%
%ADD11C,1.700000*%
%ADD12C,4.300000*%
%ADD13C,2.000000*%
%ADD14RoundRect,0.250000X0.350000X0.625000X-0.350000X0.625000X-0.350000X-0.625000X0.350000X-0.625000X0*%
%ADD15O,1.200000X1.750000*%
%ADD16C,1.512000*%
%ADD17C,1.462000*%
%ADD18C,1.412000*%
%ADD19RoundRect,0.760000X1.140000X1.140000X-1.140000X1.140000X-1.140000X-1.140000X1.140000X-1.140000X0*%
%ADD20C,4.000000*%
G04 APERTURE END LIST*
%LPC*%
D10*
%TO.C,U4*%
X113180000Y-80800000D03*
D11*
X113180000Y-78260000D03*
X113180000Y-75720000D03*
X113180000Y-73180000D03*
X113180000Y-70640000D03*
X113180000Y-68100000D03*
X113180000Y-65560000D03*
X113180000Y-63020000D03*
X113180000Y-60480000D03*
X113180000Y-57940000D03*
X113180000Y-55400000D03*
X113180000Y-52860000D03*
D10*
X100500000Y-80800000D03*
D11*
X100500000Y-78260000D03*
X100500000Y-75720000D03*
X100500000Y-73180000D03*
X100500000Y-70640000D03*
X100500000Y-68100000D03*
X100500000Y-65560000D03*
X100500000Y-63020000D03*
X100500000Y-60480000D03*
X100500000Y-57940000D03*
X100500000Y-55400000D03*
X100500000Y-52860000D03*
%TD*%
D12*
%TO.C,H4*%
X67900000Y-144800000D03*
%TD*%
D10*
%TO.C,U7*%
X187120000Y-102380000D03*
D11*
X187120000Y-104920000D03*
X187120000Y-107460000D03*
X187120000Y-110000000D03*
X187120000Y-112540000D03*
X187120000Y-115080000D03*
X187120000Y-117620000D03*
X187120000Y-120160000D03*
X187120000Y-122700000D03*
X187120000Y-125240000D03*
X187120000Y-127780000D03*
X187120000Y-130320000D03*
D10*
X199800000Y-102380000D03*
D11*
X199800000Y-104920000D03*
X199800000Y-107460000D03*
X199800000Y-110000000D03*
X199800000Y-112540000D03*
X199800000Y-115080000D03*
X199800000Y-117620000D03*
X199800000Y-120160000D03*
X199800000Y-122700000D03*
X199800000Y-125240000D03*
X199800000Y-127780000D03*
X199800000Y-130320000D03*
%TD*%
D13*
%TO.C,TP2*%
X113780000Y-36180000D03*
%TD*%
D10*
%TO.C,U6*%
X98320000Y-102380000D03*
D11*
X98320000Y-104920000D03*
X98320000Y-107460000D03*
X98320000Y-110000000D03*
X98320000Y-112540000D03*
X98320000Y-115080000D03*
X98320000Y-117620000D03*
X98320000Y-120160000D03*
X98320000Y-122700000D03*
X98320000Y-125240000D03*
X98320000Y-127780000D03*
X98320000Y-130320000D03*
D10*
X111000000Y-102380000D03*
D11*
X111000000Y-104920000D03*
X111000000Y-107460000D03*
X111000000Y-110000000D03*
X111000000Y-112540000D03*
X111000000Y-115080000D03*
X111000000Y-117620000D03*
X111000000Y-120160000D03*
X111000000Y-122700000D03*
X111000000Y-125240000D03*
X111000000Y-127780000D03*
X111000000Y-130320000D03*
%TD*%
D14*
%TO.C,J1*%
X144800000Y-41400000D03*
D15*
X142800000Y-41400000D03*
%TD*%
D13*
%TO.C,TP4*%
X159580000Y-64680000D03*
%TD*%
%TO.C,TP14*%
X109380000Y-36200000D03*
%TD*%
D16*
%TO.C,U8*%
X157800000Y-125320000D03*
X157800000Y-122780000D03*
X157800000Y-120240000D03*
X157800000Y-117700000D03*
X157800000Y-92300000D03*
X152720000Y-82140000D03*
X142560000Y-122780000D03*
X157800000Y-115160000D03*
X157800000Y-112620000D03*
D17*
X154750000Y-121510000D03*
D16*
X157800000Y-110080000D03*
X157800000Y-107540000D03*
X157800000Y-105000000D03*
X157800000Y-102460000D03*
X157800000Y-99920000D03*
X157800000Y-97380000D03*
X157800000Y-94840000D03*
X142560000Y-94840000D03*
X142560000Y-97380000D03*
X142560000Y-99920000D03*
X142560000Y-102460000D03*
X142560000Y-105000000D03*
X142560000Y-107540000D03*
X142560000Y-110080000D03*
X142560000Y-112620000D03*
X142560000Y-115160000D03*
X142560000Y-117700000D03*
X142560000Y-120240000D03*
X157800000Y-89760000D03*
X157800000Y-87220000D03*
X157800000Y-84680000D03*
X157800000Y-82140000D03*
X157800000Y-79600000D03*
X157800000Y-77060000D03*
X157800000Y-74520000D03*
X157800000Y-71980000D03*
X157800000Y-69440000D03*
X142560000Y-69440000D03*
X142560000Y-71980000D03*
X142560000Y-74520000D03*
X142560000Y-77060000D03*
X142560000Y-79600000D03*
X142560000Y-82140000D03*
X142560000Y-84680000D03*
X142560000Y-87220000D03*
X142560000Y-89760000D03*
D17*
X154750000Y-116430000D03*
X154750000Y-118970000D03*
D16*
X157800000Y-127860000D03*
X142560000Y-125320000D03*
D18*
X147010000Y-112890000D03*
D16*
X142560000Y-92300000D03*
X150180000Y-82140000D03*
D18*
X147010000Y-114890000D03*
D16*
X145100000Y-82140000D03*
X147640000Y-82140000D03*
D18*
X145010000Y-114890000D03*
X145010000Y-112890000D03*
X149010000Y-112890000D03*
X149010000Y-114890000D03*
D17*
X154750000Y-113890000D03*
X154750000Y-111350000D03*
D16*
X155260000Y-82140000D03*
X142560000Y-127860000D03*
X145100000Y-125320000D03*
%TD*%
D13*
%TO.C,TP13*%
X158600000Y-35900000D03*
%TD*%
D19*
%TO.C,J2*%
X157680000Y-40880000D03*
D20*
X152680000Y-40880000D03*
%TD*%
D12*
%TO.C,He1*%
X232600000Y-38400000D03*
%TD*%
D10*
%TO.C,U5*%
X201880000Y-80740000D03*
D11*
X201880000Y-78200000D03*
X201880000Y-75660000D03*
X201880000Y-73120000D03*
X201880000Y-70580000D03*
X201880000Y-68040000D03*
X201880000Y-65500000D03*
X201880000Y-62960000D03*
X201880000Y-60420000D03*
X201880000Y-57880000D03*
X201880000Y-55340000D03*
X201880000Y-52800000D03*
D10*
X189200000Y-80740000D03*
D11*
X189200000Y-78200000D03*
X189200000Y-75660000D03*
X189200000Y-73120000D03*
X189200000Y-70580000D03*
X189200000Y-68040000D03*
X189200000Y-65500000D03*
X189200000Y-62960000D03*
X189200000Y-60420000D03*
X189200000Y-57880000D03*
X189200000Y-55340000D03*
X189200000Y-52800000D03*
%TD*%
D12*
%TO.C,He2*%
X231900000Y-144800000D03*
%TD*%
D13*
%TO.C,TP3*%
X159580000Y-57180000D03*
%TD*%
%TO.C,TP15*%
X159480000Y-60980000D03*
%TD*%
%TO.C,TP1*%
X152480000Y-35900000D03*
%TD*%
D12*
%TO.C,H1*%
X68600000Y-38400000D03*
%TD*%
%LPD*%
M02*
