%TF.GenerationSoftware,KiCad,Pcbnew,9.0.7*%
%TF.CreationDate,2026-01-25T21:28:50-05:00*%
%TF.ProjectId,brushlessDriveTrain,62727573-686c-4657-9373-447269766554,rev?*%
%TF.SameCoordinates,Original*%
%TF.FileFunction,Legend,Top*%
%TF.FilePolarity,Positive*%
%FSLAX46Y46*%
G04 Gerber Fmt 4.6, Leading zero omitted, Abs format (unit mm)*
G04 Created by KiCad (PCBNEW 9.0.7) date 2026-01-25 21:28:50*
%MOMM*%
%LPD*%
G01*
G04 APERTURE LIST*
G04 Aperture macros list*
%AMRoundRect*
0 Rectangle with rounded corners*
0 $1 Rounding radius*
0 $2 $3 $4 $5 $6 $7 $8 $9 X,Y pos of 4 corners*
0 Add a 4 corners polygon primitive as box body*
4,1,4,$2,$3,$4,$5,$6,$7,$8,$9,$2,$3,0*
0 Add four circle primitives for the rounded corners*
1,1,$1+$1,$2,$3*
1,1,$1+$1,$4,$5*
1,1,$1+$1,$6,$7*
1,1,$1+$1,$8,$9*
0 Add four rect primitives between the rounded corners*
20,1,$1+$1,$2,$3,$4,$5,0*
20,1,$1+$1,$4,$5,$6,$7,0*
20,1,$1+$1,$6,$7,$8,$9,0*
20,1,$1+$1,$8,$9,$2,$3,0*%
G04 Aperture macros list end*
%ADD10C,0.300000*%
%ADD11C,0.100000*%
%ADD12C,0.150000*%
%ADD13C,0.050000*%
%ADD14C,0.120000*%
%ADD15C,0.127000*%
%ADD16C,0.200000*%
%ADD17R,1.700000X1.700000*%
%ADD18C,1.700000*%
%ADD19C,4.300000*%
%ADD20RoundRect,0.150000X0.150000X-0.825000X0.150000X0.825000X-0.150000X0.825000X-0.150000X-0.825000X0*%
%ADD21RoundRect,0.250000X-0.475000X0.337500X-0.475000X-0.337500X0.475000X-0.337500X0.475000X0.337500X0*%
%ADD22C,2.000000*%
%ADD23RoundRect,0.250000X-0.337500X-0.475000X0.337500X-0.475000X0.337500X0.475000X-0.337500X0.475000X0*%
%ADD24RoundRect,0.162500X-0.162500X0.837500X-0.162500X-0.837500X0.162500X-0.837500X0.162500X0.837500X0*%
%ADD25RoundRect,0.250000X0.350000X0.450000X-0.350000X0.450000X-0.350000X-0.450000X0.350000X-0.450000X0*%
%ADD26RoundRect,0.250000X0.350000X0.625000X-0.350000X0.625000X-0.350000X-0.625000X0.350000X-0.625000X0*%
%ADD27O,1.200000X1.750000*%
%ADD28C,1.512000*%
%ADD29C,1.462000*%
%ADD30C,1.412000*%
%ADD31RoundRect,0.375000X-0.375000X0.625000X-0.375000X-0.625000X0.375000X-0.625000X0.375000X0.625000X0*%
%ADD32RoundRect,0.500000X-1.400000X0.500000X-1.400000X-0.500000X1.400000X-0.500000X1.400000X0.500000X0*%
%ADD33RoundRect,0.250000X0.250000X0.250000X-0.250000X0.250000X-0.250000X-0.250000X0.250000X-0.250000X0*%
%ADD34RoundRect,0.760000X1.140000X1.140000X-1.140000X1.140000X-1.140000X-1.140000X1.140000X-1.140000X0*%
%ADD35C,4.000000*%
%ADD36RoundRect,0.250000X0.337500X0.475000X-0.337500X0.475000X-0.337500X-0.475000X0.337500X-0.475000X0*%
G04 APERTURE END LIST*
D10*
X140011653Y-36057971D02*
X139940225Y-36129400D01*
X139940225Y-36129400D02*
X139725939Y-36200828D01*
X139725939Y-36200828D02*
X139583082Y-36200828D01*
X139583082Y-36200828D02*
X139368796Y-36129400D01*
X139368796Y-36129400D02*
X139225939Y-35986542D01*
X139225939Y-35986542D02*
X139154510Y-35843685D01*
X139154510Y-35843685D02*
X139083082Y-35557971D01*
X139083082Y-35557971D02*
X139083082Y-35343685D01*
X139083082Y-35343685D02*
X139154510Y-35057971D01*
X139154510Y-35057971D02*
X139225939Y-34915114D01*
X139225939Y-34915114D02*
X139368796Y-34772257D01*
X139368796Y-34772257D02*
X139583082Y-34700828D01*
X139583082Y-34700828D02*
X139725939Y-34700828D01*
X139725939Y-34700828D02*
X139940225Y-34772257D01*
X139940225Y-34772257D02*
X140011653Y-34843685D01*
X140583082Y-35772257D02*
X141297368Y-35772257D01*
X140440225Y-36200828D02*
X140940225Y-34700828D01*
X140940225Y-34700828D02*
X141440225Y-36200828D01*
X141940224Y-36200828D02*
X141940224Y-34700828D01*
X141940224Y-34700828D02*
X142797367Y-36200828D01*
X142797367Y-36200828D02*
X142797367Y-34700828D01*
X144654510Y-36200828D02*
X144654510Y-34700828D01*
X145368796Y-36200828D02*
X145368796Y-34700828D01*
X145368796Y-34700828D02*
X146225939Y-36200828D01*
X146225939Y-36200828D02*
X146225939Y-34700828D01*
X144683796Y-60207078D02*
X144683796Y-60564221D01*
X144326653Y-60421364D02*
X144683796Y-60564221D01*
X144683796Y-60564221D02*
X145040939Y-60421364D01*
X144469510Y-60849935D02*
X144683796Y-60564221D01*
X144683796Y-60564221D02*
X144898082Y-60849935D01*
X162868796Y-56200828D02*
X162154510Y-56200828D01*
X162154510Y-56200828D02*
X162083082Y-56915114D01*
X162083082Y-56915114D02*
X162154510Y-56843685D01*
X162154510Y-56843685D02*
X162297368Y-56772257D01*
X162297368Y-56772257D02*
X162654510Y-56772257D01*
X162654510Y-56772257D02*
X162797368Y-56843685D01*
X162797368Y-56843685D02*
X162868796Y-56915114D01*
X162868796Y-56915114D02*
X162940225Y-57057971D01*
X162940225Y-57057971D02*
X162940225Y-57415114D01*
X162940225Y-57415114D02*
X162868796Y-57557971D01*
X162868796Y-57557971D02*
X162797368Y-57629400D01*
X162797368Y-57629400D02*
X162654510Y-57700828D01*
X162654510Y-57700828D02*
X162297368Y-57700828D01*
X162297368Y-57700828D02*
X162154510Y-57629400D01*
X162154510Y-57629400D02*
X162083082Y-57557971D01*
X163368796Y-56200828D02*
X163868796Y-57700828D01*
X163868796Y-57700828D02*
X164368796Y-56200828D01*
X145154510Y-38200828D02*
X145154510Y-36700828D01*
X145154510Y-36700828D02*
X146011653Y-38200828D01*
X146011653Y-38200828D02*
X146011653Y-36700828D01*
D11*
X195556265Y-69267657D02*
X195603884Y-69220038D01*
X195603884Y-69220038D02*
X195699122Y-69172419D01*
X195699122Y-69172419D02*
X195937217Y-69172419D01*
X195937217Y-69172419D02*
X196032455Y-69220038D01*
X196032455Y-69220038D02*
X196080074Y-69267657D01*
X196080074Y-69267657D02*
X196127693Y-69362895D01*
X196127693Y-69362895D02*
X196127693Y-69458133D01*
X196127693Y-69458133D02*
X196080074Y-69600990D01*
X196080074Y-69600990D02*
X195508646Y-70172419D01*
X195508646Y-70172419D02*
X196127693Y-70172419D01*
X104308646Y-113172419D02*
X104927693Y-113172419D01*
X104927693Y-113172419D02*
X104594360Y-113553371D01*
X104594360Y-113553371D02*
X104737217Y-113553371D01*
X104737217Y-113553371D02*
X104832455Y-113600990D01*
X104832455Y-113600990D02*
X104880074Y-113648609D01*
X104880074Y-113648609D02*
X104927693Y-113743847D01*
X104927693Y-113743847D02*
X104927693Y-113981942D01*
X104927693Y-113981942D02*
X104880074Y-114077180D01*
X104880074Y-114077180D02*
X104832455Y-114124800D01*
X104832455Y-114124800D02*
X104737217Y-114172419D01*
X104737217Y-114172419D02*
X104451503Y-114172419D01*
X104451503Y-114172419D02*
X104356265Y-114124800D01*
X104356265Y-114124800D02*
X104308646Y-114077180D01*
D10*
X142154510Y-38200828D02*
X142154510Y-36700828D01*
X142154510Y-36700828D02*
X142725939Y-36700828D01*
X142725939Y-36700828D02*
X142868796Y-36772257D01*
X142868796Y-36772257D02*
X142940225Y-36843685D01*
X142940225Y-36843685D02*
X143011653Y-36986542D01*
X143011653Y-36986542D02*
X143011653Y-37200828D01*
X143011653Y-37200828D02*
X142940225Y-37343685D01*
X142940225Y-37343685D02*
X142868796Y-37415114D01*
X142868796Y-37415114D02*
X142725939Y-37486542D01*
X142725939Y-37486542D02*
X142154510Y-37486542D01*
X161440225Y-35272257D02*
X161297368Y-35200828D01*
X161297368Y-35200828D02*
X161083082Y-35200828D01*
X161083082Y-35200828D02*
X160868796Y-35272257D01*
X160868796Y-35272257D02*
X160725939Y-35415114D01*
X160725939Y-35415114D02*
X160654510Y-35557971D01*
X160654510Y-35557971D02*
X160583082Y-35843685D01*
X160583082Y-35843685D02*
X160583082Y-36057971D01*
X160583082Y-36057971D02*
X160654510Y-36343685D01*
X160654510Y-36343685D02*
X160725939Y-36486542D01*
X160725939Y-36486542D02*
X160868796Y-36629400D01*
X160868796Y-36629400D02*
X161083082Y-36700828D01*
X161083082Y-36700828D02*
X161225939Y-36700828D01*
X161225939Y-36700828D02*
X161440225Y-36629400D01*
X161440225Y-36629400D02*
X161511653Y-36557971D01*
X161511653Y-36557971D02*
X161511653Y-36057971D01*
X161511653Y-36057971D02*
X161225939Y-36057971D01*
X162154510Y-36700828D02*
X162154510Y-35200828D01*
X162154510Y-35200828D02*
X163011653Y-36700828D01*
X163011653Y-36700828D02*
X163011653Y-35200828D01*
X163725939Y-36700828D02*
X163725939Y-35200828D01*
X163725939Y-35200828D02*
X164083082Y-35200828D01*
X164083082Y-35200828D02*
X164297368Y-35272257D01*
X164297368Y-35272257D02*
X164440225Y-35415114D01*
X164440225Y-35415114D02*
X164511654Y-35557971D01*
X164511654Y-35557971D02*
X164583082Y-35843685D01*
X164583082Y-35843685D02*
X164583082Y-36057971D01*
X164583082Y-36057971D02*
X164511654Y-36343685D01*
X164511654Y-36343685D02*
X164440225Y-36486542D01*
X164440225Y-36486542D02*
X164297368Y-36629400D01*
X164297368Y-36629400D02*
X164083082Y-36700828D01*
X164083082Y-36700828D02*
X163725939Y-36700828D01*
X162940225Y-60272257D02*
X162797368Y-60200828D01*
X162797368Y-60200828D02*
X162583082Y-60200828D01*
X162583082Y-60200828D02*
X162368796Y-60272257D01*
X162368796Y-60272257D02*
X162225939Y-60415114D01*
X162225939Y-60415114D02*
X162154510Y-60557971D01*
X162154510Y-60557971D02*
X162083082Y-60843685D01*
X162083082Y-60843685D02*
X162083082Y-61057971D01*
X162083082Y-61057971D02*
X162154510Y-61343685D01*
X162154510Y-61343685D02*
X162225939Y-61486542D01*
X162225939Y-61486542D02*
X162368796Y-61629400D01*
X162368796Y-61629400D02*
X162583082Y-61700828D01*
X162583082Y-61700828D02*
X162725939Y-61700828D01*
X162725939Y-61700828D02*
X162940225Y-61629400D01*
X162940225Y-61629400D02*
X163011653Y-61557971D01*
X163011653Y-61557971D02*
X163011653Y-61057971D01*
X163011653Y-61057971D02*
X162725939Y-61057971D01*
X163654510Y-61700828D02*
X163654510Y-60200828D01*
X163654510Y-60200828D02*
X164511653Y-61700828D01*
X164511653Y-61700828D02*
X164511653Y-60200828D01*
X165225939Y-61700828D02*
X165225939Y-60200828D01*
X165225939Y-60200828D02*
X165583082Y-60200828D01*
X165583082Y-60200828D02*
X165797368Y-60272257D01*
X165797368Y-60272257D02*
X165940225Y-60415114D01*
X165940225Y-60415114D02*
X166011654Y-60557971D01*
X166011654Y-60557971D02*
X166083082Y-60843685D01*
X166083082Y-60843685D02*
X166083082Y-61057971D01*
X166083082Y-61057971D02*
X166011654Y-61343685D01*
X166011654Y-61343685D02*
X165940225Y-61486542D01*
X165940225Y-61486542D02*
X165797368Y-61629400D01*
X165797368Y-61629400D02*
X165583082Y-61700828D01*
X165583082Y-61700828D02*
X165225939Y-61700828D01*
X147940225Y-36700828D02*
X147083082Y-36700828D01*
X147511653Y-36700828D02*
X147511653Y-35200828D01*
X147511653Y-35200828D02*
X147368796Y-35415114D01*
X147368796Y-35415114D02*
X147225939Y-35557971D01*
X147225939Y-35557971D02*
X147083082Y-35629400D01*
X148511653Y-35343685D02*
X148583081Y-35272257D01*
X148583081Y-35272257D02*
X148725939Y-35200828D01*
X148725939Y-35200828D02*
X149083081Y-35200828D01*
X149083081Y-35200828D02*
X149225939Y-35272257D01*
X149225939Y-35272257D02*
X149297367Y-35343685D01*
X149297367Y-35343685D02*
X149368796Y-35486542D01*
X149368796Y-35486542D02*
X149368796Y-35629400D01*
X149368796Y-35629400D02*
X149297367Y-35843685D01*
X149297367Y-35843685D02*
X148440224Y-36700828D01*
X148440224Y-36700828D02*
X149368796Y-36700828D01*
X149797367Y-35200828D02*
X150297367Y-36700828D01*
X150297367Y-36700828D02*
X150797367Y-35200828D01*
D11*
X107527693Y-70172419D02*
X106956265Y-70172419D01*
X107241979Y-70172419D02*
X107241979Y-69172419D01*
X107241979Y-69172419D02*
X107146741Y-69315276D01*
X107146741Y-69315276D02*
X107051503Y-69410514D01*
X107051503Y-69410514D02*
X106956265Y-69458133D01*
X193832455Y-113505752D02*
X193832455Y-114172419D01*
X193594360Y-113124800D02*
X193356265Y-113839085D01*
X193356265Y-113839085D02*
X193975312Y-113839085D01*
D10*
X104440225Y-35772257D02*
X104297368Y-35700828D01*
X104297368Y-35700828D02*
X104083082Y-35700828D01*
X104083082Y-35700828D02*
X103868796Y-35772257D01*
X103868796Y-35772257D02*
X103725939Y-35915114D01*
X103725939Y-35915114D02*
X103654510Y-36057971D01*
X103654510Y-36057971D02*
X103583082Y-36343685D01*
X103583082Y-36343685D02*
X103583082Y-36557971D01*
X103583082Y-36557971D02*
X103654510Y-36843685D01*
X103654510Y-36843685D02*
X103725939Y-36986542D01*
X103725939Y-36986542D02*
X103868796Y-37129400D01*
X103868796Y-37129400D02*
X104083082Y-37200828D01*
X104083082Y-37200828D02*
X104225939Y-37200828D01*
X104225939Y-37200828D02*
X104440225Y-37129400D01*
X104440225Y-37129400D02*
X104511653Y-37057971D01*
X104511653Y-37057971D02*
X104511653Y-36557971D01*
X104511653Y-36557971D02*
X104225939Y-36557971D01*
X105154510Y-37200828D02*
X105154510Y-35700828D01*
X105154510Y-35700828D02*
X106011653Y-37200828D01*
X106011653Y-37200828D02*
X106011653Y-35700828D01*
X106725939Y-37200828D02*
X106725939Y-35700828D01*
X106725939Y-35700828D02*
X107083082Y-35700828D01*
X107083082Y-35700828D02*
X107297368Y-35772257D01*
X107297368Y-35772257D02*
X107440225Y-35915114D01*
X107440225Y-35915114D02*
X107511654Y-36057971D01*
X107511654Y-36057971D02*
X107583082Y-36343685D01*
X107583082Y-36343685D02*
X107583082Y-36557971D01*
X107583082Y-36557971D02*
X107511654Y-36843685D01*
X107511654Y-36843685D02*
X107440225Y-36986542D01*
X107440225Y-36986542D02*
X107297368Y-37129400D01*
X107297368Y-37129400D02*
X107083082Y-37200828D01*
X107083082Y-37200828D02*
X106725939Y-37200828D01*
X162011653Y-63700828D02*
X162940225Y-63700828D01*
X162940225Y-63700828D02*
X162440225Y-64272257D01*
X162440225Y-64272257D02*
X162654510Y-64272257D01*
X162654510Y-64272257D02*
X162797368Y-64343685D01*
X162797368Y-64343685D02*
X162868796Y-64415114D01*
X162868796Y-64415114D02*
X162940225Y-64557971D01*
X162940225Y-64557971D02*
X162940225Y-64915114D01*
X162940225Y-64915114D02*
X162868796Y-65057971D01*
X162868796Y-65057971D02*
X162797368Y-65129400D01*
X162797368Y-65129400D02*
X162654510Y-65200828D01*
X162654510Y-65200828D02*
X162225939Y-65200828D01*
X162225939Y-65200828D02*
X162083082Y-65129400D01*
X162083082Y-65129400D02*
X162011653Y-65057971D01*
X163583081Y-65057971D02*
X163654510Y-65129400D01*
X163654510Y-65129400D02*
X163583081Y-65200828D01*
X163583081Y-65200828D02*
X163511653Y-65129400D01*
X163511653Y-65129400D02*
X163583081Y-65057971D01*
X163583081Y-65057971D02*
X163583081Y-65200828D01*
X164154510Y-63700828D02*
X165083082Y-63700828D01*
X165083082Y-63700828D02*
X164583082Y-64272257D01*
X164583082Y-64272257D02*
X164797367Y-64272257D01*
X164797367Y-64272257D02*
X164940225Y-64343685D01*
X164940225Y-64343685D02*
X165011653Y-64415114D01*
X165011653Y-64415114D02*
X165083082Y-64557971D01*
X165083082Y-64557971D02*
X165083082Y-64915114D01*
X165083082Y-64915114D02*
X165011653Y-65057971D01*
X165011653Y-65057971D02*
X164940225Y-65129400D01*
X164940225Y-65129400D02*
X164797367Y-65200828D01*
X164797367Y-65200828D02*
X164368796Y-65200828D01*
X164368796Y-65200828D02*
X164225939Y-65129400D01*
X164225939Y-65129400D02*
X164154510Y-65057971D01*
X165511653Y-63700828D02*
X166011653Y-65200828D01*
X166011653Y-65200828D02*
X166511653Y-63700828D01*
X115940225Y-35700828D02*
X116440225Y-37200828D01*
X116440225Y-37200828D02*
X116940225Y-35700828D01*
X118297367Y-37057971D02*
X118225939Y-37129400D01*
X118225939Y-37129400D02*
X118011653Y-37200828D01*
X118011653Y-37200828D02*
X117868796Y-37200828D01*
X117868796Y-37200828D02*
X117654510Y-37129400D01*
X117654510Y-37129400D02*
X117511653Y-36986542D01*
X117511653Y-36986542D02*
X117440224Y-36843685D01*
X117440224Y-36843685D02*
X117368796Y-36557971D01*
X117368796Y-36557971D02*
X117368796Y-36343685D01*
X117368796Y-36343685D02*
X117440224Y-36057971D01*
X117440224Y-36057971D02*
X117511653Y-35915114D01*
X117511653Y-35915114D02*
X117654510Y-35772257D01*
X117654510Y-35772257D02*
X117868796Y-35700828D01*
X117868796Y-35700828D02*
X118011653Y-35700828D01*
X118011653Y-35700828D02*
X118225939Y-35772257D01*
X118225939Y-35772257D02*
X118297367Y-35843685D01*
X119797367Y-37057971D02*
X119725939Y-37129400D01*
X119725939Y-37129400D02*
X119511653Y-37200828D01*
X119511653Y-37200828D02*
X119368796Y-37200828D01*
X119368796Y-37200828D02*
X119154510Y-37129400D01*
X119154510Y-37129400D02*
X119011653Y-36986542D01*
X119011653Y-36986542D02*
X118940224Y-36843685D01*
X118940224Y-36843685D02*
X118868796Y-36557971D01*
X118868796Y-36557971D02*
X118868796Y-36343685D01*
X118868796Y-36343685D02*
X118940224Y-36057971D01*
X118940224Y-36057971D02*
X119011653Y-35915114D01*
X119011653Y-35915114D02*
X119154510Y-35772257D01*
X119154510Y-35772257D02*
X119368796Y-35700828D01*
X119368796Y-35700828D02*
X119511653Y-35700828D01*
X119511653Y-35700828D02*
X119725939Y-35772257D01*
X119725939Y-35772257D02*
X119797367Y-35843685D01*
D11*
X107591904Y-68262580D02*
X107591904Y-67453057D01*
X107591904Y-67453057D02*
X107544285Y-67357819D01*
X107544285Y-67357819D02*
X107496666Y-67310200D01*
X107496666Y-67310200D02*
X107401428Y-67262580D01*
X107401428Y-67262580D02*
X107210952Y-67262580D01*
X107210952Y-67262580D02*
X107115714Y-67310200D01*
X107115714Y-67310200D02*
X107068095Y-67357819D01*
X107068095Y-67357819D02*
X107020476Y-67453057D01*
X107020476Y-67453057D02*
X107020476Y-68262580D01*
X106115714Y-67929247D02*
X106115714Y-67262580D01*
X106353809Y-68310200D02*
X106591904Y-67595914D01*
X106591904Y-67595914D02*
X105972857Y-67595914D01*
X107155163Y-72807580D02*
X107155163Y-73569485D01*
X107345639Y-73379009D02*
X107155163Y-73569485D01*
X107155163Y-73569485D02*
X106964687Y-73379009D01*
D12*
X108037857Y-72370273D02*
X108037857Y-71342178D01*
X108037857Y-71342178D02*
X107977380Y-71221226D01*
X107977380Y-71221226D02*
X107916904Y-71160750D01*
X107916904Y-71160750D02*
X107795952Y-71100273D01*
X107795952Y-71100273D02*
X107554047Y-71100273D01*
X107554047Y-71100273D02*
X107433095Y-71160750D01*
X107433095Y-71160750D02*
X107372618Y-71221226D01*
X107372618Y-71221226D02*
X107312142Y-71342178D01*
X107312142Y-71342178D02*
X107312142Y-72370273D01*
X106707381Y-71100273D02*
X106707381Y-72370273D01*
X106707381Y-72370273D02*
X106223571Y-72370273D01*
X106223571Y-72370273D02*
X106102619Y-72309797D01*
X106102619Y-72309797D02*
X106042142Y-72249321D01*
X106042142Y-72249321D02*
X105981666Y-72128369D01*
X105981666Y-72128369D02*
X105981666Y-71946940D01*
X105981666Y-71946940D02*
X106042142Y-71825988D01*
X106042142Y-71825988D02*
X106102619Y-71765511D01*
X106102619Y-71765511D02*
X106223571Y-71705035D01*
X106223571Y-71705035D02*
X106707381Y-71705035D01*
X119058571Y-50100273D02*
X119058571Y-51370273D01*
X119058571Y-51370273D02*
X118574761Y-51370273D01*
X118574761Y-51370273D02*
X118453809Y-51309797D01*
X118453809Y-51309797D02*
X118393332Y-51249321D01*
X118393332Y-51249321D02*
X118332856Y-51128369D01*
X118332856Y-51128369D02*
X118332856Y-50946940D01*
X118332856Y-50946940D02*
X118393332Y-50825988D01*
X118393332Y-50825988D02*
X118453809Y-50765511D01*
X118453809Y-50765511D02*
X118574761Y-50705035D01*
X118574761Y-50705035D02*
X119058571Y-50705035D01*
X117607142Y-50100273D02*
X117728094Y-50160750D01*
X117728094Y-50160750D02*
X117788571Y-50221226D01*
X117788571Y-50221226D02*
X117849047Y-50342178D01*
X117849047Y-50342178D02*
X117849047Y-50705035D01*
X117849047Y-50705035D02*
X117788571Y-50825988D01*
X117788571Y-50825988D02*
X117728094Y-50886464D01*
X117728094Y-50886464D02*
X117607142Y-50946940D01*
X117607142Y-50946940D02*
X117425713Y-50946940D01*
X117425713Y-50946940D02*
X117304761Y-50886464D01*
X117304761Y-50886464D02*
X117244285Y-50825988D01*
X117244285Y-50825988D02*
X117183809Y-50705035D01*
X117183809Y-50705035D02*
X117183809Y-50342178D01*
X117183809Y-50342178D02*
X117244285Y-50221226D01*
X117244285Y-50221226D02*
X117304761Y-50160750D01*
X117304761Y-50160750D02*
X117425713Y-50100273D01*
X117425713Y-50100273D02*
X117607142Y-50100273D01*
X116458094Y-50100273D02*
X116579046Y-50160750D01*
X116579046Y-50160750D02*
X116639523Y-50281702D01*
X116639523Y-50281702D02*
X116639523Y-51370273D01*
X115792856Y-50100273D02*
X115913808Y-50160750D01*
X115913808Y-50160750D02*
X115974285Y-50221226D01*
X115974285Y-50221226D02*
X116034761Y-50342178D01*
X116034761Y-50342178D02*
X116034761Y-50705035D01*
X116034761Y-50705035D02*
X115974285Y-50825988D01*
X115974285Y-50825988D02*
X115913808Y-50886464D01*
X115913808Y-50886464D02*
X115792856Y-50946940D01*
X115792856Y-50946940D02*
X115611427Y-50946940D01*
X115611427Y-50946940D02*
X115490475Y-50886464D01*
X115490475Y-50886464D02*
X115429999Y-50825988D01*
X115429999Y-50825988D02*
X115369523Y-50705035D01*
X115369523Y-50705035D02*
X115369523Y-50342178D01*
X115369523Y-50342178D02*
X115429999Y-50221226D01*
X115429999Y-50221226D02*
X115490475Y-50160750D01*
X115490475Y-50160750D02*
X115611427Y-50100273D01*
X115611427Y-50100273D02*
X115792856Y-50100273D01*
X114643808Y-50100273D02*
X114764760Y-50160750D01*
X114764760Y-50160750D02*
X114825237Y-50281702D01*
X114825237Y-50281702D02*
X114825237Y-51370273D01*
X113615713Y-50946940D02*
X113615713Y-50100273D01*
X114159999Y-50946940D02*
X114159999Y-50281702D01*
X114159999Y-50281702D02*
X114099522Y-50160750D01*
X114099522Y-50160750D02*
X113978570Y-50100273D01*
X113978570Y-50100273D02*
X113797141Y-50100273D01*
X113797141Y-50100273D02*
X113676189Y-50160750D01*
X113676189Y-50160750D02*
X113615713Y-50221226D01*
X111619998Y-50765511D02*
X111438570Y-50705035D01*
X111438570Y-50705035D02*
X111378093Y-50644559D01*
X111378093Y-50644559D02*
X111317617Y-50523607D01*
X111317617Y-50523607D02*
X111317617Y-50342178D01*
X111317617Y-50342178D02*
X111378093Y-50221226D01*
X111378093Y-50221226D02*
X111438570Y-50160750D01*
X111438570Y-50160750D02*
X111559522Y-50100273D01*
X111559522Y-50100273D02*
X112043332Y-50100273D01*
X112043332Y-50100273D02*
X112043332Y-51370273D01*
X112043332Y-51370273D02*
X111619998Y-51370273D01*
X111619998Y-51370273D02*
X111499046Y-51309797D01*
X111499046Y-51309797D02*
X111438570Y-51249321D01*
X111438570Y-51249321D02*
X111378093Y-51128369D01*
X111378093Y-51128369D02*
X111378093Y-51007416D01*
X111378093Y-51007416D02*
X111438570Y-50886464D01*
X111438570Y-50886464D02*
X111499046Y-50825988D01*
X111499046Y-50825988D02*
X111619998Y-50765511D01*
X111619998Y-50765511D02*
X112043332Y-50765511D01*
X110773332Y-50100273D02*
X110773332Y-50946940D01*
X110773332Y-50705035D02*
X110712855Y-50825988D01*
X110712855Y-50825988D02*
X110652379Y-50886464D01*
X110652379Y-50886464D02*
X110531427Y-50946940D01*
X110531427Y-50946940D02*
X110410474Y-50946940D01*
X109442856Y-50946940D02*
X109442856Y-50100273D01*
X109987142Y-50946940D02*
X109987142Y-50281702D01*
X109987142Y-50281702D02*
X109926665Y-50160750D01*
X109926665Y-50160750D02*
X109805713Y-50100273D01*
X109805713Y-50100273D02*
X109624284Y-50100273D01*
X109624284Y-50100273D02*
X109503332Y-50160750D01*
X109503332Y-50160750D02*
X109442856Y-50221226D01*
X108898570Y-50160750D02*
X108777617Y-50100273D01*
X108777617Y-50100273D02*
X108535713Y-50100273D01*
X108535713Y-50100273D02*
X108414760Y-50160750D01*
X108414760Y-50160750D02*
X108354284Y-50281702D01*
X108354284Y-50281702D02*
X108354284Y-50342178D01*
X108354284Y-50342178D02*
X108414760Y-50463130D01*
X108414760Y-50463130D02*
X108535713Y-50523607D01*
X108535713Y-50523607D02*
X108717141Y-50523607D01*
X108717141Y-50523607D02*
X108838094Y-50584083D01*
X108838094Y-50584083D02*
X108898570Y-50705035D01*
X108898570Y-50705035D02*
X108898570Y-50765511D01*
X108898570Y-50765511D02*
X108838094Y-50886464D01*
X108838094Y-50886464D02*
X108717141Y-50946940D01*
X108717141Y-50946940D02*
X108535713Y-50946940D01*
X108535713Y-50946940D02*
X108414760Y-50886464D01*
X107809999Y-50100273D02*
X107809999Y-51370273D01*
X107265713Y-50100273D02*
X107265713Y-50765511D01*
X107265713Y-50765511D02*
X107326189Y-50886464D01*
X107326189Y-50886464D02*
X107447141Y-50946940D01*
X107447141Y-50946940D02*
X107628570Y-50946940D01*
X107628570Y-50946940D02*
X107749522Y-50886464D01*
X107749522Y-50886464D02*
X107809999Y-50825988D01*
X106479522Y-50100273D02*
X106600474Y-50160750D01*
X106600474Y-50160750D02*
X106660951Y-50281702D01*
X106660951Y-50281702D02*
X106660951Y-51370273D01*
X105511903Y-50160750D02*
X105632855Y-50100273D01*
X105632855Y-50100273D02*
X105874760Y-50100273D01*
X105874760Y-50100273D02*
X105995713Y-50160750D01*
X105995713Y-50160750D02*
X106056189Y-50281702D01*
X106056189Y-50281702D02*
X106056189Y-50765511D01*
X106056189Y-50765511D02*
X105995713Y-50886464D01*
X105995713Y-50886464D02*
X105874760Y-50946940D01*
X105874760Y-50946940D02*
X105632855Y-50946940D01*
X105632855Y-50946940D02*
X105511903Y-50886464D01*
X105511903Y-50886464D02*
X105451427Y-50765511D01*
X105451427Y-50765511D02*
X105451427Y-50644559D01*
X105451427Y-50644559D02*
X106056189Y-50523607D01*
X104967618Y-50160750D02*
X104846665Y-50100273D01*
X104846665Y-50100273D02*
X104604761Y-50100273D01*
X104604761Y-50100273D02*
X104483808Y-50160750D01*
X104483808Y-50160750D02*
X104423332Y-50281702D01*
X104423332Y-50281702D02*
X104423332Y-50342178D01*
X104423332Y-50342178D02*
X104483808Y-50463130D01*
X104483808Y-50463130D02*
X104604761Y-50523607D01*
X104604761Y-50523607D02*
X104786189Y-50523607D01*
X104786189Y-50523607D02*
X104907142Y-50584083D01*
X104907142Y-50584083D02*
X104967618Y-50705035D01*
X104967618Y-50705035D02*
X104967618Y-50765511D01*
X104967618Y-50765511D02*
X104907142Y-50886464D01*
X104907142Y-50886464D02*
X104786189Y-50946940D01*
X104786189Y-50946940D02*
X104604761Y-50946940D01*
X104604761Y-50946940D02*
X104483808Y-50886464D01*
X103939523Y-50160750D02*
X103818570Y-50100273D01*
X103818570Y-50100273D02*
X103576666Y-50100273D01*
X103576666Y-50100273D02*
X103455713Y-50160750D01*
X103455713Y-50160750D02*
X103395237Y-50281702D01*
X103395237Y-50281702D02*
X103395237Y-50342178D01*
X103395237Y-50342178D02*
X103455713Y-50463130D01*
X103455713Y-50463130D02*
X103576666Y-50523607D01*
X103576666Y-50523607D02*
X103758094Y-50523607D01*
X103758094Y-50523607D02*
X103879047Y-50584083D01*
X103879047Y-50584083D02*
X103939523Y-50705035D01*
X103939523Y-50705035D02*
X103939523Y-50765511D01*
X103939523Y-50765511D02*
X103879047Y-50886464D01*
X103879047Y-50886464D02*
X103758094Y-50946940D01*
X103758094Y-50946940D02*
X103576666Y-50946940D01*
X103576666Y-50946940D02*
X103455713Y-50886464D01*
X101883333Y-50100273D02*
X101883333Y-51370273D01*
X101883333Y-51370273D02*
X101580952Y-51370273D01*
X101580952Y-51370273D02*
X101399523Y-51309797D01*
X101399523Y-51309797D02*
X101278571Y-51188845D01*
X101278571Y-51188845D02*
X101218094Y-51067892D01*
X101218094Y-51067892D02*
X101157618Y-50825988D01*
X101157618Y-50825988D02*
X101157618Y-50644559D01*
X101157618Y-50644559D02*
X101218094Y-50402654D01*
X101218094Y-50402654D02*
X101278571Y-50281702D01*
X101278571Y-50281702D02*
X101399523Y-50160750D01*
X101399523Y-50160750D02*
X101580952Y-50100273D01*
X101580952Y-50100273D02*
X101883333Y-50100273D01*
X100069047Y-50100273D02*
X100069047Y-50765511D01*
X100069047Y-50765511D02*
X100129523Y-50886464D01*
X100129523Y-50886464D02*
X100250475Y-50946940D01*
X100250475Y-50946940D02*
X100492380Y-50946940D01*
X100492380Y-50946940D02*
X100613333Y-50886464D01*
X100069047Y-50160750D02*
X100189999Y-50100273D01*
X100189999Y-50100273D02*
X100492380Y-50100273D01*
X100492380Y-50100273D02*
X100613333Y-50160750D01*
X100613333Y-50160750D02*
X100673809Y-50281702D01*
X100673809Y-50281702D02*
X100673809Y-50402654D01*
X100673809Y-50402654D02*
X100613333Y-50523607D01*
X100613333Y-50523607D02*
X100492380Y-50584083D01*
X100492380Y-50584083D02*
X100189999Y-50584083D01*
X100189999Y-50584083D02*
X100069047Y-50644559D01*
X98919999Y-50946940D02*
X98919999Y-50100273D01*
X99464285Y-50946940D02*
X99464285Y-50281702D01*
X99464285Y-50281702D02*
X99403808Y-50160750D01*
X99403808Y-50160750D02*
X99282856Y-50100273D01*
X99282856Y-50100273D02*
X99101427Y-50100273D01*
X99101427Y-50100273D02*
X98980475Y-50160750D01*
X98980475Y-50160750D02*
X98919999Y-50221226D01*
X97770951Y-50946940D02*
X97770951Y-49918845D01*
X97770951Y-49918845D02*
X97831427Y-49797892D01*
X97831427Y-49797892D02*
X97891903Y-49737416D01*
X97891903Y-49737416D02*
X98012856Y-49676940D01*
X98012856Y-49676940D02*
X98194284Y-49676940D01*
X98194284Y-49676940D02*
X98315237Y-49737416D01*
X97770951Y-50160750D02*
X97891903Y-50100273D01*
X97891903Y-50100273D02*
X98133808Y-50100273D01*
X98133808Y-50100273D02*
X98254760Y-50160750D01*
X98254760Y-50160750D02*
X98315237Y-50221226D01*
X98315237Y-50221226D02*
X98375713Y-50342178D01*
X98375713Y-50342178D02*
X98375713Y-50705035D01*
X98375713Y-50705035D02*
X98315237Y-50825988D01*
X98315237Y-50825988D02*
X98254760Y-50886464D01*
X98254760Y-50886464D02*
X98133808Y-50946940D01*
X98133808Y-50946940D02*
X97891903Y-50946940D01*
X97891903Y-50946940D02*
X97770951Y-50886464D01*
X97166189Y-50100273D02*
X97166189Y-51370273D01*
X96621903Y-50100273D02*
X96621903Y-50765511D01*
X96621903Y-50765511D02*
X96682379Y-50886464D01*
X96682379Y-50886464D02*
X96803331Y-50946940D01*
X96803331Y-50946940D02*
X96984760Y-50946940D01*
X96984760Y-50946940D02*
X97105712Y-50886464D01*
X97105712Y-50886464D02*
X97166189Y-50825988D01*
X96198569Y-50946940D02*
X95714760Y-50946940D01*
X96017141Y-51370273D02*
X96017141Y-50281702D01*
X96017141Y-50281702D02*
X95956664Y-50160750D01*
X95956664Y-50160750D02*
X95835712Y-50100273D01*
X95835712Y-50100273D02*
X95714760Y-50100273D01*
X94807617Y-50160750D02*
X94928569Y-50100273D01*
X94928569Y-50100273D02*
X95170474Y-50100273D01*
X95170474Y-50100273D02*
X95291427Y-50160750D01*
X95291427Y-50160750D02*
X95351903Y-50281702D01*
X95351903Y-50281702D02*
X95351903Y-50765511D01*
X95351903Y-50765511D02*
X95291427Y-50886464D01*
X95291427Y-50886464D02*
X95170474Y-50946940D01*
X95170474Y-50946940D02*
X94928569Y-50946940D01*
X94928569Y-50946940D02*
X94807617Y-50886464D01*
X94807617Y-50886464D02*
X94747141Y-50765511D01*
X94747141Y-50765511D02*
X94747141Y-50644559D01*
X94747141Y-50644559D02*
X95351903Y-50523607D01*
X94202856Y-50100273D02*
X94202856Y-50946940D01*
X94202856Y-50705035D02*
X94142379Y-50825988D01*
X94142379Y-50825988D02*
X94081903Y-50886464D01*
X94081903Y-50886464D02*
X93960951Y-50946940D01*
X93960951Y-50946940D02*
X93839998Y-50946940D01*
D11*
X192708095Y-114917419D02*
X192708095Y-115726942D01*
X192708095Y-115726942D02*
X192755714Y-115822180D01*
X192755714Y-115822180D02*
X192803333Y-115869800D01*
X192803333Y-115869800D02*
X192898571Y-115917419D01*
X192898571Y-115917419D02*
X193089047Y-115917419D01*
X193089047Y-115917419D02*
X193184285Y-115869800D01*
X193184285Y-115869800D02*
X193231904Y-115822180D01*
X193231904Y-115822180D02*
X193279523Y-115726942D01*
X193279523Y-115726942D02*
X193279523Y-114917419D01*
X193660476Y-114917419D02*
X194327142Y-114917419D01*
X194327142Y-114917419D02*
X193898571Y-115917419D01*
D12*
X181241428Y-133079726D02*
X181241428Y-131809726D01*
X181241428Y-131809726D02*
X181725238Y-131809726D01*
X181725238Y-131809726D02*
X181846190Y-131870202D01*
X181846190Y-131870202D02*
X181906667Y-131930678D01*
X181906667Y-131930678D02*
X181967143Y-132051630D01*
X181967143Y-132051630D02*
X181967143Y-132233059D01*
X181967143Y-132233059D02*
X181906667Y-132354011D01*
X181906667Y-132354011D02*
X181846190Y-132414488D01*
X181846190Y-132414488D02*
X181725238Y-132474964D01*
X181725238Y-132474964D02*
X181241428Y-132474964D01*
X182692857Y-133079726D02*
X182571905Y-133019250D01*
X182571905Y-133019250D02*
X182511428Y-132958773D01*
X182511428Y-132958773D02*
X182450952Y-132837821D01*
X182450952Y-132837821D02*
X182450952Y-132474964D01*
X182450952Y-132474964D02*
X182511428Y-132354011D01*
X182511428Y-132354011D02*
X182571905Y-132293535D01*
X182571905Y-132293535D02*
X182692857Y-132233059D01*
X182692857Y-132233059D02*
X182874286Y-132233059D01*
X182874286Y-132233059D02*
X182995238Y-132293535D01*
X182995238Y-132293535D02*
X183055714Y-132354011D01*
X183055714Y-132354011D02*
X183116190Y-132474964D01*
X183116190Y-132474964D02*
X183116190Y-132837821D01*
X183116190Y-132837821D02*
X183055714Y-132958773D01*
X183055714Y-132958773D02*
X182995238Y-133019250D01*
X182995238Y-133019250D02*
X182874286Y-133079726D01*
X182874286Y-133079726D02*
X182692857Y-133079726D01*
X183841905Y-133079726D02*
X183720953Y-133019250D01*
X183720953Y-133019250D02*
X183660476Y-132898297D01*
X183660476Y-132898297D02*
X183660476Y-131809726D01*
X184507143Y-133079726D02*
X184386191Y-133019250D01*
X184386191Y-133019250D02*
X184325714Y-132958773D01*
X184325714Y-132958773D02*
X184265238Y-132837821D01*
X184265238Y-132837821D02*
X184265238Y-132474964D01*
X184265238Y-132474964D02*
X184325714Y-132354011D01*
X184325714Y-132354011D02*
X184386191Y-132293535D01*
X184386191Y-132293535D02*
X184507143Y-132233059D01*
X184507143Y-132233059D02*
X184688572Y-132233059D01*
X184688572Y-132233059D02*
X184809524Y-132293535D01*
X184809524Y-132293535D02*
X184870000Y-132354011D01*
X184870000Y-132354011D02*
X184930476Y-132474964D01*
X184930476Y-132474964D02*
X184930476Y-132837821D01*
X184930476Y-132837821D02*
X184870000Y-132958773D01*
X184870000Y-132958773D02*
X184809524Y-133019250D01*
X184809524Y-133019250D02*
X184688572Y-133079726D01*
X184688572Y-133079726D02*
X184507143Y-133079726D01*
X185656191Y-133079726D02*
X185535239Y-133019250D01*
X185535239Y-133019250D02*
X185474762Y-132898297D01*
X185474762Y-132898297D02*
X185474762Y-131809726D01*
X186684286Y-132233059D02*
X186684286Y-133079726D01*
X186140000Y-132233059D02*
X186140000Y-132898297D01*
X186140000Y-132898297D02*
X186200477Y-133019250D01*
X186200477Y-133019250D02*
X186321429Y-133079726D01*
X186321429Y-133079726D02*
X186502858Y-133079726D01*
X186502858Y-133079726D02*
X186623810Y-133019250D01*
X186623810Y-133019250D02*
X186684286Y-132958773D01*
X188680001Y-132414488D02*
X188861429Y-132474964D01*
X188861429Y-132474964D02*
X188921906Y-132535440D01*
X188921906Y-132535440D02*
X188982382Y-132656392D01*
X188982382Y-132656392D02*
X188982382Y-132837821D01*
X188982382Y-132837821D02*
X188921906Y-132958773D01*
X188921906Y-132958773D02*
X188861429Y-133019250D01*
X188861429Y-133019250D02*
X188740477Y-133079726D01*
X188740477Y-133079726D02*
X188256667Y-133079726D01*
X188256667Y-133079726D02*
X188256667Y-131809726D01*
X188256667Y-131809726D02*
X188680001Y-131809726D01*
X188680001Y-131809726D02*
X188800953Y-131870202D01*
X188800953Y-131870202D02*
X188861429Y-131930678D01*
X188861429Y-131930678D02*
X188921906Y-132051630D01*
X188921906Y-132051630D02*
X188921906Y-132172583D01*
X188921906Y-132172583D02*
X188861429Y-132293535D01*
X188861429Y-132293535D02*
X188800953Y-132354011D01*
X188800953Y-132354011D02*
X188680001Y-132414488D01*
X188680001Y-132414488D02*
X188256667Y-132414488D01*
X189526667Y-133079726D02*
X189526667Y-132233059D01*
X189526667Y-132474964D02*
X189587144Y-132354011D01*
X189587144Y-132354011D02*
X189647620Y-132293535D01*
X189647620Y-132293535D02*
X189768572Y-132233059D01*
X189768572Y-132233059D02*
X189889525Y-132233059D01*
X190857143Y-132233059D02*
X190857143Y-133079726D01*
X190312857Y-132233059D02*
X190312857Y-132898297D01*
X190312857Y-132898297D02*
X190373334Y-133019250D01*
X190373334Y-133019250D02*
X190494286Y-133079726D01*
X190494286Y-133079726D02*
X190675715Y-133079726D01*
X190675715Y-133079726D02*
X190796667Y-133019250D01*
X190796667Y-133019250D02*
X190857143Y-132958773D01*
X191401429Y-133019250D02*
X191522382Y-133079726D01*
X191522382Y-133079726D02*
X191764286Y-133079726D01*
X191764286Y-133079726D02*
X191885239Y-133019250D01*
X191885239Y-133019250D02*
X191945715Y-132898297D01*
X191945715Y-132898297D02*
X191945715Y-132837821D01*
X191945715Y-132837821D02*
X191885239Y-132716869D01*
X191885239Y-132716869D02*
X191764286Y-132656392D01*
X191764286Y-132656392D02*
X191582858Y-132656392D01*
X191582858Y-132656392D02*
X191461905Y-132595916D01*
X191461905Y-132595916D02*
X191401429Y-132474964D01*
X191401429Y-132474964D02*
X191401429Y-132414488D01*
X191401429Y-132414488D02*
X191461905Y-132293535D01*
X191461905Y-132293535D02*
X191582858Y-132233059D01*
X191582858Y-132233059D02*
X191764286Y-132233059D01*
X191764286Y-132233059D02*
X191885239Y-132293535D01*
X192490000Y-133079726D02*
X192490000Y-131809726D01*
X193034286Y-133079726D02*
X193034286Y-132414488D01*
X193034286Y-132414488D02*
X192973810Y-132293535D01*
X192973810Y-132293535D02*
X192852858Y-132233059D01*
X192852858Y-132233059D02*
X192671429Y-132233059D01*
X192671429Y-132233059D02*
X192550477Y-132293535D01*
X192550477Y-132293535D02*
X192490000Y-132354011D01*
X193820477Y-133079726D02*
X193699525Y-133019250D01*
X193699525Y-133019250D02*
X193639048Y-132898297D01*
X193639048Y-132898297D02*
X193639048Y-131809726D01*
X194788096Y-133019250D02*
X194667144Y-133079726D01*
X194667144Y-133079726D02*
X194425239Y-133079726D01*
X194425239Y-133079726D02*
X194304286Y-133019250D01*
X194304286Y-133019250D02*
X194243810Y-132898297D01*
X194243810Y-132898297D02*
X194243810Y-132414488D01*
X194243810Y-132414488D02*
X194304286Y-132293535D01*
X194304286Y-132293535D02*
X194425239Y-132233059D01*
X194425239Y-132233059D02*
X194667144Y-132233059D01*
X194667144Y-132233059D02*
X194788096Y-132293535D01*
X194788096Y-132293535D02*
X194848572Y-132414488D01*
X194848572Y-132414488D02*
X194848572Y-132535440D01*
X194848572Y-132535440D02*
X194243810Y-132656392D01*
X195332381Y-133019250D02*
X195453334Y-133079726D01*
X195453334Y-133079726D02*
X195695238Y-133079726D01*
X195695238Y-133079726D02*
X195816191Y-133019250D01*
X195816191Y-133019250D02*
X195876667Y-132898297D01*
X195876667Y-132898297D02*
X195876667Y-132837821D01*
X195876667Y-132837821D02*
X195816191Y-132716869D01*
X195816191Y-132716869D02*
X195695238Y-132656392D01*
X195695238Y-132656392D02*
X195513810Y-132656392D01*
X195513810Y-132656392D02*
X195392857Y-132595916D01*
X195392857Y-132595916D02*
X195332381Y-132474964D01*
X195332381Y-132474964D02*
X195332381Y-132414488D01*
X195332381Y-132414488D02*
X195392857Y-132293535D01*
X195392857Y-132293535D02*
X195513810Y-132233059D01*
X195513810Y-132233059D02*
X195695238Y-132233059D01*
X195695238Y-132233059D02*
X195816191Y-132293535D01*
X196360476Y-133019250D02*
X196481429Y-133079726D01*
X196481429Y-133079726D02*
X196723333Y-133079726D01*
X196723333Y-133079726D02*
X196844286Y-133019250D01*
X196844286Y-133019250D02*
X196904762Y-132898297D01*
X196904762Y-132898297D02*
X196904762Y-132837821D01*
X196904762Y-132837821D02*
X196844286Y-132716869D01*
X196844286Y-132716869D02*
X196723333Y-132656392D01*
X196723333Y-132656392D02*
X196541905Y-132656392D01*
X196541905Y-132656392D02*
X196420952Y-132595916D01*
X196420952Y-132595916D02*
X196360476Y-132474964D01*
X196360476Y-132474964D02*
X196360476Y-132414488D01*
X196360476Y-132414488D02*
X196420952Y-132293535D01*
X196420952Y-132293535D02*
X196541905Y-132233059D01*
X196541905Y-132233059D02*
X196723333Y-132233059D01*
X196723333Y-132233059D02*
X196844286Y-132293535D01*
X198416666Y-133079726D02*
X198416666Y-131809726D01*
X198416666Y-131809726D02*
X198719047Y-131809726D01*
X198719047Y-131809726D02*
X198900476Y-131870202D01*
X198900476Y-131870202D02*
X199021428Y-131991154D01*
X199021428Y-131991154D02*
X199081905Y-132112107D01*
X199081905Y-132112107D02*
X199142381Y-132354011D01*
X199142381Y-132354011D02*
X199142381Y-132535440D01*
X199142381Y-132535440D02*
X199081905Y-132777345D01*
X199081905Y-132777345D02*
X199021428Y-132898297D01*
X199021428Y-132898297D02*
X198900476Y-133019250D01*
X198900476Y-133019250D02*
X198719047Y-133079726D01*
X198719047Y-133079726D02*
X198416666Y-133079726D01*
X200230952Y-133079726D02*
X200230952Y-132414488D01*
X200230952Y-132414488D02*
X200170476Y-132293535D01*
X200170476Y-132293535D02*
X200049524Y-132233059D01*
X200049524Y-132233059D02*
X199807619Y-132233059D01*
X199807619Y-132233059D02*
X199686666Y-132293535D01*
X200230952Y-133019250D02*
X200110000Y-133079726D01*
X200110000Y-133079726D02*
X199807619Y-133079726D01*
X199807619Y-133079726D02*
X199686666Y-133019250D01*
X199686666Y-133019250D02*
X199626190Y-132898297D01*
X199626190Y-132898297D02*
X199626190Y-132777345D01*
X199626190Y-132777345D02*
X199686666Y-132656392D01*
X199686666Y-132656392D02*
X199807619Y-132595916D01*
X199807619Y-132595916D02*
X200110000Y-132595916D01*
X200110000Y-132595916D02*
X200230952Y-132535440D01*
X201380000Y-132233059D02*
X201380000Y-133079726D01*
X200835714Y-132233059D02*
X200835714Y-132898297D01*
X200835714Y-132898297D02*
X200896191Y-133019250D01*
X200896191Y-133019250D02*
X201017143Y-133079726D01*
X201017143Y-133079726D02*
X201198572Y-133079726D01*
X201198572Y-133079726D02*
X201319524Y-133019250D01*
X201319524Y-133019250D02*
X201380000Y-132958773D01*
X202529048Y-132233059D02*
X202529048Y-133261154D01*
X202529048Y-133261154D02*
X202468572Y-133382107D01*
X202468572Y-133382107D02*
X202408096Y-133442583D01*
X202408096Y-133442583D02*
X202287143Y-133503059D01*
X202287143Y-133503059D02*
X202105715Y-133503059D01*
X202105715Y-133503059D02*
X201984762Y-133442583D01*
X202529048Y-133019250D02*
X202408096Y-133079726D01*
X202408096Y-133079726D02*
X202166191Y-133079726D01*
X202166191Y-133079726D02*
X202045239Y-133019250D01*
X202045239Y-133019250D02*
X201984762Y-132958773D01*
X201984762Y-132958773D02*
X201924286Y-132837821D01*
X201924286Y-132837821D02*
X201924286Y-132474964D01*
X201924286Y-132474964D02*
X201984762Y-132354011D01*
X201984762Y-132354011D02*
X202045239Y-132293535D01*
X202045239Y-132293535D02*
X202166191Y-132233059D01*
X202166191Y-132233059D02*
X202408096Y-132233059D01*
X202408096Y-132233059D02*
X202529048Y-132293535D01*
X203133810Y-133079726D02*
X203133810Y-131809726D01*
X203678096Y-133079726D02*
X203678096Y-132414488D01*
X203678096Y-132414488D02*
X203617620Y-132293535D01*
X203617620Y-132293535D02*
X203496668Y-132233059D01*
X203496668Y-132233059D02*
X203315239Y-132233059D01*
X203315239Y-132233059D02*
X203194287Y-132293535D01*
X203194287Y-132293535D02*
X203133810Y-132354011D01*
X204101430Y-132233059D02*
X204585239Y-132233059D01*
X204282858Y-131809726D02*
X204282858Y-132898297D01*
X204282858Y-132898297D02*
X204343335Y-133019250D01*
X204343335Y-133019250D02*
X204464287Y-133079726D01*
X204464287Y-133079726D02*
X204585239Y-133079726D01*
X205492382Y-133019250D02*
X205371430Y-133079726D01*
X205371430Y-133079726D02*
X205129525Y-133079726D01*
X205129525Y-133079726D02*
X205008572Y-133019250D01*
X205008572Y-133019250D02*
X204948096Y-132898297D01*
X204948096Y-132898297D02*
X204948096Y-132414488D01*
X204948096Y-132414488D02*
X205008572Y-132293535D01*
X205008572Y-132293535D02*
X205129525Y-132233059D01*
X205129525Y-132233059D02*
X205371430Y-132233059D01*
X205371430Y-132233059D02*
X205492382Y-132293535D01*
X205492382Y-132293535D02*
X205552858Y-132414488D01*
X205552858Y-132414488D02*
X205552858Y-132535440D01*
X205552858Y-132535440D02*
X204948096Y-132656392D01*
X206097143Y-133079726D02*
X206097143Y-132233059D01*
X206097143Y-132474964D02*
X206157620Y-132354011D01*
X206157620Y-132354011D02*
X206218096Y-132293535D01*
X206218096Y-132293535D02*
X206339048Y-132233059D01*
X206339048Y-132233059D02*
X206460001Y-132233059D01*
X192262142Y-110809726D02*
X192262142Y-111837821D01*
X192262142Y-111837821D02*
X192322619Y-111958773D01*
X192322619Y-111958773D02*
X192383095Y-112019250D01*
X192383095Y-112019250D02*
X192504047Y-112079726D01*
X192504047Y-112079726D02*
X192745952Y-112079726D01*
X192745952Y-112079726D02*
X192866904Y-112019250D01*
X192866904Y-112019250D02*
X192927381Y-111958773D01*
X192927381Y-111958773D02*
X192987857Y-111837821D01*
X192987857Y-111837821D02*
X192987857Y-110809726D01*
X193592618Y-112079726D02*
X193592618Y-110809726D01*
X193592618Y-110809726D02*
X194076428Y-110809726D01*
X194076428Y-110809726D02*
X194197380Y-110870202D01*
X194197380Y-110870202D02*
X194257857Y-110930678D01*
X194257857Y-110930678D02*
X194318333Y-111051630D01*
X194318333Y-111051630D02*
X194318333Y-111233059D01*
X194318333Y-111233059D02*
X194257857Y-111354011D01*
X194257857Y-111354011D02*
X194197380Y-111414488D01*
X194197380Y-111414488D02*
X194076428Y-111474964D01*
X194076428Y-111474964D02*
X193592618Y-111474964D01*
D11*
X193144836Y-110372419D02*
X193144836Y-109610514D01*
X192954360Y-109800990D02*
X193144836Y-109610514D01*
X193144836Y-109610514D02*
X193335312Y-109800990D01*
D12*
X140089819Y-62168154D02*
X140899342Y-62168154D01*
X140899342Y-62168154D02*
X140994580Y-62120535D01*
X140994580Y-62120535D02*
X141042200Y-62072916D01*
X141042200Y-62072916D02*
X141089819Y-61977678D01*
X141089819Y-61977678D02*
X141089819Y-61787202D01*
X141089819Y-61787202D02*
X141042200Y-61691964D01*
X141042200Y-61691964D02*
X140994580Y-61644345D01*
X140994580Y-61644345D02*
X140899342Y-61596726D01*
X140899342Y-61596726D02*
X140089819Y-61596726D01*
X140185057Y-61168154D02*
X140137438Y-61120535D01*
X140137438Y-61120535D02*
X140089819Y-61025297D01*
X140089819Y-61025297D02*
X140089819Y-60787202D01*
X140089819Y-60787202D02*
X140137438Y-60691964D01*
X140137438Y-60691964D02*
X140185057Y-60644345D01*
X140185057Y-60644345D02*
X140280295Y-60596726D01*
X140280295Y-60596726D02*
X140375533Y-60596726D01*
X140375533Y-60596726D02*
X140518390Y-60644345D01*
X140518390Y-60644345D02*
X141089819Y-61215773D01*
X141089819Y-61215773D02*
X141089819Y-60596726D01*
X138559580Y-130166666D02*
X138607200Y-130214285D01*
X138607200Y-130214285D02*
X138654819Y-130357142D01*
X138654819Y-130357142D02*
X138654819Y-130452380D01*
X138654819Y-130452380D02*
X138607200Y-130595237D01*
X138607200Y-130595237D02*
X138511961Y-130690475D01*
X138511961Y-130690475D02*
X138416723Y-130738094D01*
X138416723Y-130738094D02*
X138226247Y-130785713D01*
X138226247Y-130785713D02*
X138083390Y-130785713D01*
X138083390Y-130785713D02*
X137892914Y-130738094D01*
X137892914Y-130738094D02*
X137797676Y-130690475D01*
X137797676Y-130690475D02*
X137702438Y-130595237D01*
X137702438Y-130595237D02*
X137654819Y-130452380D01*
X137654819Y-130452380D02*
X137654819Y-130357142D01*
X137654819Y-130357142D02*
X137702438Y-130214285D01*
X137702438Y-130214285D02*
X137750057Y-130166666D01*
X137654819Y-129309523D02*
X137654819Y-129499999D01*
X137654819Y-129499999D02*
X137702438Y-129595237D01*
X137702438Y-129595237D02*
X137750057Y-129642856D01*
X137750057Y-129642856D02*
X137892914Y-129738094D01*
X137892914Y-129738094D02*
X138083390Y-129785713D01*
X138083390Y-129785713D02*
X138464342Y-129785713D01*
X138464342Y-129785713D02*
X138559580Y-129738094D01*
X138559580Y-129738094D02*
X138607200Y-129690475D01*
X138607200Y-129690475D02*
X138654819Y-129595237D01*
X138654819Y-129595237D02*
X138654819Y-129404761D01*
X138654819Y-129404761D02*
X138607200Y-129309523D01*
X138607200Y-129309523D02*
X138559580Y-129261904D01*
X138559580Y-129261904D02*
X138464342Y-129214285D01*
X138464342Y-129214285D02*
X138226247Y-129214285D01*
X138226247Y-129214285D02*
X138131009Y-129261904D01*
X138131009Y-129261904D02*
X138083390Y-129309523D01*
X138083390Y-129309523D02*
X138035771Y-129404761D01*
X138035771Y-129404761D02*
X138035771Y-129595237D01*
X138035771Y-129595237D02*
X138083390Y-129690475D01*
X138083390Y-129690475D02*
X138131009Y-129738094D01*
X138131009Y-129738094D02*
X138226247Y-129785713D01*
X137553333Y-55679580D02*
X137505714Y-55727200D01*
X137505714Y-55727200D02*
X137362857Y-55774819D01*
X137362857Y-55774819D02*
X137267619Y-55774819D01*
X137267619Y-55774819D02*
X137124762Y-55727200D01*
X137124762Y-55727200D02*
X137029524Y-55631961D01*
X137029524Y-55631961D02*
X136981905Y-55536723D01*
X136981905Y-55536723D02*
X136934286Y-55346247D01*
X136934286Y-55346247D02*
X136934286Y-55203390D01*
X136934286Y-55203390D02*
X136981905Y-55012914D01*
X136981905Y-55012914D02*
X137029524Y-54917676D01*
X137029524Y-54917676D02*
X137124762Y-54822438D01*
X137124762Y-54822438D02*
X137267619Y-54774819D01*
X137267619Y-54774819D02*
X137362857Y-54774819D01*
X137362857Y-54774819D02*
X137505714Y-54822438D01*
X137505714Y-54822438D02*
X137553333Y-54870057D01*
X137934286Y-54870057D02*
X137981905Y-54822438D01*
X137981905Y-54822438D02*
X138077143Y-54774819D01*
X138077143Y-54774819D02*
X138315238Y-54774819D01*
X138315238Y-54774819D02*
X138410476Y-54822438D01*
X138410476Y-54822438D02*
X138458095Y-54870057D01*
X138458095Y-54870057D02*
X138505714Y-54965295D01*
X138505714Y-54965295D02*
X138505714Y-55060533D01*
X138505714Y-55060533D02*
X138458095Y-55203390D01*
X138458095Y-55203390D02*
X137886667Y-55774819D01*
X137886667Y-55774819D02*
X138505714Y-55774819D01*
D11*
X103908095Y-114917419D02*
X103908095Y-115726942D01*
X103908095Y-115726942D02*
X103955714Y-115822180D01*
X103955714Y-115822180D02*
X104003333Y-115869800D01*
X104003333Y-115869800D02*
X104098571Y-115917419D01*
X104098571Y-115917419D02*
X104289047Y-115917419D01*
X104289047Y-115917419D02*
X104384285Y-115869800D01*
X104384285Y-115869800D02*
X104431904Y-115822180D01*
X104431904Y-115822180D02*
X104479523Y-115726942D01*
X104479523Y-115726942D02*
X104479523Y-114917419D01*
X105384285Y-114917419D02*
X105193809Y-114917419D01*
X105193809Y-114917419D02*
X105098571Y-114965038D01*
X105098571Y-114965038D02*
X105050952Y-115012657D01*
X105050952Y-115012657D02*
X104955714Y-115155514D01*
X104955714Y-115155514D02*
X104908095Y-115345990D01*
X104908095Y-115345990D02*
X104908095Y-115726942D01*
X104908095Y-115726942D02*
X104955714Y-115822180D01*
X104955714Y-115822180D02*
X105003333Y-115869800D01*
X105003333Y-115869800D02*
X105098571Y-115917419D01*
X105098571Y-115917419D02*
X105289047Y-115917419D01*
X105289047Y-115917419D02*
X105384285Y-115869800D01*
X105384285Y-115869800D02*
X105431904Y-115822180D01*
X105431904Y-115822180D02*
X105479523Y-115726942D01*
X105479523Y-115726942D02*
X105479523Y-115488847D01*
X105479523Y-115488847D02*
X105431904Y-115393609D01*
X105431904Y-115393609D02*
X105384285Y-115345990D01*
X105384285Y-115345990D02*
X105289047Y-115298371D01*
X105289047Y-115298371D02*
X105098571Y-115298371D01*
X105098571Y-115298371D02*
X105003333Y-115345990D01*
X105003333Y-115345990D02*
X104955714Y-115393609D01*
X104955714Y-115393609D02*
X104908095Y-115488847D01*
D12*
X92441428Y-133079726D02*
X92441428Y-131809726D01*
X92441428Y-131809726D02*
X92925238Y-131809726D01*
X92925238Y-131809726D02*
X93046190Y-131870202D01*
X93046190Y-131870202D02*
X93106667Y-131930678D01*
X93106667Y-131930678D02*
X93167143Y-132051630D01*
X93167143Y-132051630D02*
X93167143Y-132233059D01*
X93167143Y-132233059D02*
X93106667Y-132354011D01*
X93106667Y-132354011D02*
X93046190Y-132414488D01*
X93046190Y-132414488D02*
X92925238Y-132474964D01*
X92925238Y-132474964D02*
X92441428Y-132474964D01*
X93892857Y-133079726D02*
X93771905Y-133019250D01*
X93771905Y-133019250D02*
X93711428Y-132958773D01*
X93711428Y-132958773D02*
X93650952Y-132837821D01*
X93650952Y-132837821D02*
X93650952Y-132474964D01*
X93650952Y-132474964D02*
X93711428Y-132354011D01*
X93711428Y-132354011D02*
X93771905Y-132293535D01*
X93771905Y-132293535D02*
X93892857Y-132233059D01*
X93892857Y-132233059D02*
X94074286Y-132233059D01*
X94074286Y-132233059D02*
X94195238Y-132293535D01*
X94195238Y-132293535D02*
X94255714Y-132354011D01*
X94255714Y-132354011D02*
X94316190Y-132474964D01*
X94316190Y-132474964D02*
X94316190Y-132837821D01*
X94316190Y-132837821D02*
X94255714Y-132958773D01*
X94255714Y-132958773D02*
X94195238Y-133019250D01*
X94195238Y-133019250D02*
X94074286Y-133079726D01*
X94074286Y-133079726D02*
X93892857Y-133079726D01*
X95041905Y-133079726D02*
X94920953Y-133019250D01*
X94920953Y-133019250D02*
X94860476Y-132898297D01*
X94860476Y-132898297D02*
X94860476Y-131809726D01*
X95707143Y-133079726D02*
X95586191Y-133019250D01*
X95586191Y-133019250D02*
X95525714Y-132958773D01*
X95525714Y-132958773D02*
X95465238Y-132837821D01*
X95465238Y-132837821D02*
X95465238Y-132474964D01*
X95465238Y-132474964D02*
X95525714Y-132354011D01*
X95525714Y-132354011D02*
X95586191Y-132293535D01*
X95586191Y-132293535D02*
X95707143Y-132233059D01*
X95707143Y-132233059D02*
X95888572Y-132233059D01*
X95888572Y-132233059D02*
X96009524Y-132293535D01*
X96009524Y-132293535D02*
X96070000Y-132354011D01*
X96070000Y-132354011D02*
X96130476Y-132474964D01*
X96130476Y-132474964D02*
X96130476Y-132837821D01*
X96130476Y-132837821D02*
X96070000Y-132958773D01*
X96070000Y-132958773D02*
X96009524Y-133019250D01*
X96009524Y-133019250D02*
X95888572Y-133079726D01*
X95888572Y-133079726D02*
X95707143Y-133079726D01*
X96856191Y-133079726D02*
X96735239Y-133019250D01*
X96735239Y-133019250D02*
X96674762Y-132898297D01*
X96674762Y-132898297D02*
X96674762Y-131809726D01*
X97884286Y-132233059D02*
X97884286Y-133079726D01*
X97340000Y-132233059D02*
X97340000Y-132898297D01*
X97340000Y-132898297D02*
X97400477Y-133019250D01*
X97400477Y-133019250D02*
X97521429Y-133079726D01*
X97521429Y-133079726D02*
X97702858Y-133079726D01*
X97702858Y-133079726D02*
X97823810Y-133019250D01*
X97823810Y-133019250D02*
X97884286Y-132958773D01*
X99880001Y-132414488D02*
X100061429Y-132474964D01*
X100061429Y-132474964D02*
X100121906Y-132535440D01*
X100121906Y-132535440D02*
X100182382Y-132656392D01*
X100182382Y-132656392D02*
X100182382Y-132837821D01*
X100182382Y-132837821D02*
X100121906Y-132958773D01*
X100121906Y-132958773D02*
X100061429Y-133019250D01*
X100061429Y-133019250D02*
X99940477Y-133079726D01*
X99940477Y-133079726D02*
X99456667Y-133079726D01*
X99456667Y-133079726D02*
X99456667Y-131809726D01*
X99456667Y-131809726D02*
X99880001Y-131809726D01*
X99880001Y-131809726D02*
X100000953Y-131870202D01*
X100000953Y-131870202D02*
X100061429Y-131930678D01*
X100061429Y-131930678D02*
X100121906Y-132051630D01*
X100121906Y-132051630D02*
X100121906Y-132172583D01*
X100121906Y-132172583D02*
X100061429Y-132293535D01*
X100061429Y-132293535D02*
X100000953Y-132354011D01*
X100000953Y-132354011D02*
X99880001Y-132414488D01*
X99880001Y-132414488D02*
X99456667Y-132414488D01*
X100726667Y-133079726D02*
X100726667Y-132233059D01*
X100726667Y-132474964D02*
X100787144Y-132354011D01*
X100787144Y-132354011D02*
X100847620Y-132293535D01*
X100847620Y-132293535D02*
X100968572Y-132233059D01*
X100968572Y-132233059D02*
X101089525Y-132233059D01*
X102057143Y-132233059D02*
X102057143Y-133079726D01*
X101512857Y-132233059D02*
X101512857Y-132898297D01*
X101512857Y-132898297D02*
X101573334Y-133019250D01*
X101573334Y-133019250D02*
X101694286Y-133079726D01*
X101694286Y-133079726D02*
X101875715Y-133079726D01*
X101875715Y-133079726D02*
X101996667Y-133019250D01*
X101996667Y-133019250D02*
X102057143Y-132958773D01*
X102601429Y-133019250D02*
X102722382Y-133079726D01*
X102722382Y-133079726D02*
X102964286Y-133079726D01*
X102964286Y-133079726D02*
X103085239Y-133019250D01*
X103085239Y-133019250D02*
X103145715Y-132898297D01*
X103145715Y-132898297D02*
X103145715Y-132837821D01*
X103145715Y-132837821D02*
X103085239Y-132716869D01*
X103085239Y-132716869D02*
X102964286Y-132656392D01*
X102964286Y-132656392D02*
X102782858Y-132656392D01*
X102782858Y-132656392D02*
X102661905Y-132595916D01*
X102661905Y-132595916D02*
X102601429Y-132474964D01*
X102601429Y-132474964D02*
X102601429Y-132414488D01*
X102601429Y-132414488D02*
X102661905Y-132293535D01*
X102661905Y-132293535D02*
X102782858Y-132233059D01*
X102782858Y-132233059D02*
X102964286Y-132233059D01*
X102964286Y-132233059D02*
X103085239Y-132293535D01*
X103690000Y-133079726D02*
X103690000Y-131809726D01*
X104234286Y-133079726D02*
X104234286Y-132414488D01*
X104234286Y-132414488D02*
X104173810Y-132293535D01*
X104173810Y-132293535D02*
X104052858Y-132233059D01*
X104052858Y-132233059D02*
X103871429Y-132233059D01*
X103871429Y-132233059D02*
X103750477Y-132293535D01*
X103750477Y-132293535D02*
X103690000Y-132354011D01*
X105020477Y-133079726D02*
X104899525Y-133019250D01*
X104899525Y-133019250D02*
X104839048Y-132898297D01*
X104839048Y-132898297D02*
X104839048Y-131809726D01*
X105988096Y-133019250D02*
X105867144Y-133079726D01*
X105867144Y-133079726D02*
X105625239Y-133079726D01*
X105625239Y-133079726D02*
X105504286Y-133019250D01*
X105504286Y-133019250D02*
X105443810Y-132898297D01*
X105443810Y-132898297D02*
X105443810Y-132414488D01*
X105443810Y-132414488D02*
X105504286Y-132293535D01*
X105504286Y-132293535D02*
X105625239Y-132233059D01*
X105625239Y-132233059D02*
X105867144Y-132233059D01*
X105867144Y-132233059D02*
X105988096Y-132293535D01*
X105988096Y-132293535D02*
X106048572Y-132414488D01*
X106048572Y-132414488D02*
X106048572Y-132535440D01*
X106048572Y-132535440D02*
X105443810Y-132656392D01*
X106532381Y-133019250D02*
X106653334Y-133079726D01*
X106653334Y-133079726D02*
X106895238Y-133079726D01*
X106895238Y-133079726D02*
X107016191Y-133019250D01*
X107016191Y-133019250D02*
X107076667Y-132898297D01*
X107076667Y-132898297D02*
X107076667Y-132837821D01*
X107076667Y-132837821D02*
X107016191Y-132716869D01*
X107016191Y-132716869D02*
X106895238Y-132656392D01*
X106895238Y-132656392D02*
X106713810Y-132656392D01*
X106713810Y-132656392D02*
X106592857Y-132595916D01*
X106592857Y-132595916D02*
X106532381Y-132474964D01*
X106532381Y-132474964D02*
X106532381Y-132414488D01*
X106532381Y-132414488D02*
X106592857Y-132293535D01*
X106592857Y-132293535D02*
X106713810Y-132233059D01*
X106713810Y-132233059D02*
X106895238Y-132233059D01*
X106895238Y-132233059D02*
X107016191Y-132293535D01*
X107560476Y-133019250D02*
X107681429Y-133079726D01*
X107681429Y-133079726D02*
X107923333Y-133079726D01*
X107923333Y-133079726D02*
X108044286Y-133019250D01*
X108044286Y-133019250D02*
X108104762Y-132898297D01*
X108104762Y-132898297D02*
X108104762Y-132837821D01*
X108104762Y-132837821D02*
X108044286Y-132716869D01*
X108044286Y-132716869D02*
X107923333Y-132656392D01*
X107923333Y-132656392D02*
X107741905Y-132656392D01*
X107741905Y-132656392D02*
X107620952Y-132595916D01*
X107620952Y-132595916D02*
X107560476Y-132474964D01*
X107560476Y-132474964D02*
X107560476Y-132414488D01*
X107560476Y-132414488D02*
X107620952Y-132293535D01*
X107620952Y-132293535D02*
X107741905Y-132233059D01*
X107741905Y-132233059D02*
X107923333Y-132233059D01*
X107923333Y-132233059D02*
X108044286Y-132293535D01*
X109616666Y-133079726D02*
X109616666Y-131809726D01*
X109616666Y-131809726D02*
X109919047Y-131809726D01*
X109919047Y-131809726D02*
X110100476Y-131870202D01*
X110100476Y-131870202D02*
X110221428Y-131991154D01*
X110221428Y-131991154D02*
X110281905Y-132112107D01*
X110281905Y-132112107D02*
X110342381Y-132354011D01*
X110342381Y-132354011D02*
X110342381Y-132535440D01*
X110342381Y-132535440D02*
X110281905Y-132777345D01*
X110281905Y-132777345D02*
X110221428Y-132898297D01*
X110221428Y-132898297D02*
X110100476Y-133019250D01*
X110100476Y-133019250D02*
X109919047Y-133079726D01*
X109919047Y-133079726D02*
X109616666Y-133079726D01*
X111430952Y-133079726D02*
X111430952Y-132414488D01*
X111430952Y-132414488D02*
X111370476Y-132293535D01*
X111370476Y-132293535D02*
X111249524Y-132233059D01*
X111249524Y-132233059D02*
X111007619Y-132233059D01*
X111007619Y-132233059D02*
X110886666Y-132293535D01*
X111430952Y-133019250D02*
X111310000Y-133079726D01*
X111310000Y-133079726D02*
X111007619Y-133079726D01*
X111007619Y-133079726D02*
X110886666Y-133019250D01*
X110886666Y-133019250D02*
X110826190Y-132898297D01*
X110826190Y-132898297D02*
X110826190Y-132777345D01*
X110826190Y-132777345D02*
X110886666Y-132656392D01*
X110886666Y-132656392D02*
X111007619Y-132595916D01*
X111007619Y-132595916D02*
X111310000Y-132595916D01*
X111310000Y-132595916D02*
X111430952Y-132535440D01*
X112580000Y-132233059D02*
X112580000Y-133079726D01*
X112035714Y-132233059D02*
X112035714Y-132898297D01*
X112035714Y-132898297D02*
X112096191Y-133019250D01*
X112096191Y-133019250D02*
X112217143Y-133079726D01*
X112217143Y-133079726D02*
X112398572Y-133079726D01*
X112398572Y-133079726D02*
X112519524Y-133019250D01*
X112519524Y-133019250D02*
X112580000Y-132958773D01*
X113729048Y-132233059D02*
X113729048Y-133261154D01*
X113729048Y-133261154D02*
X113668572Y-133382107D01*
X113668572Y-133382107D02*
X113608096Y-133442583D01*
X113608096Y-133442583D02*
X113487143Y-133503059D01*
X113487143Y-133503059D02*
X113305715Y-133503059D01*
X113305715Y-133503059D02*
X113184762Y-133442583D01*
X113729048Y-133019250D02*
X113608096Y-133079726D01*
X113608096Y-133079726D02*
X113366191Y-133079726D01*
X113366191Y-133079726D02*
X113245239Y-133019250D01*
X113245239Y-133019250D02*
X113184762Y-132958773D01*
X113184762Y-132958773D02*
X113124286Y-132837821D01*
X113124286Y-132837821D02*
X113124286Y-132474964D01*
X113124286Y-132474964D02*
X113184762Y-132354011D01*
X113184762Y-132354011D02*
X113245239Y-132293535D01*
X113245239Y-132293535D02*
X113366191Y-132233059D01*
X113366191Y-132233059D02*
X113608096Y-132233059D01*
X113608096Y-132233059D02*
X113729048Y-132293535D01*
X114333810Y-133079726D02*
X114333810Y-131809726D01*
X114878096Y-133079726D02*
X114878096Y-132414488D01*
X114878096Y-132414488D02*
X114817620Y-132293535D01*
X114817620Y-132293535D02*
X114696668Y-132233059D01*
X114696668Y-132233059D02*
X114515239Y-132233059D01*
X114515239Y-132233059D02*
X114394287Y-132293535D01*
X114394287Y-132293535D02*
X114333810Y-132354011D01*
X115301430Y-132233059D02*
X115785239Y-132233059D01*
X115482858Y-131809726D02*
X115482858Y-132898297D01*
X115482858Y-132898297D02*
X115543335Y-133019250D01*
X115543335Y-133019250D02*
X115664287Y-133079726D01*
X115664287Y-133079726D02*
X115785239Y-133079726D01*
X116692382Y-133019250D02*
X116571430Y-133079726D01*
X116571430Y-133079726D02*
X116329525Y-133079726D01*
X116329525Y-133079726D02*
X116208572Y-133019250D01*
X116208572Y-133019250D02*
X116148096Y-132898297D01*
X116148096Y-132898297D02*
X116148096Y-132414488D01*
X116148096Y-132414488D02*
X116208572Y-132293535D01*
X116208572Y-132293535D02*
X116329525Y-132233059D01*
X116329525Y-132233059D02*
X116571430Y-132233059D01*
X116571430Y-132233059D02*
X116692382Y-132293535D01*
X116692382Y-132293535D02*
X116752858Y-132414488D01*
X116752858Y-132414488D02*
X116752858Y-132535440D01*
X116752858Y-132535440D02*
X116148096Y-132656392D01*
X117297143Y-133079726D02*
X117297143Y-132233059D01*
X117297143Y-132474964D02*
X117357620Y-132354011D01*
X117357620Y-132354011D02*
X117418096Y-132293535D01*
X117418096Y-132293535D02*
X117539048Y-132233059D01*
X117539048Y-132233059D02*
X117660001Y-132233059D01*
X103462142Y-110809726D02*
X103462142Y-111837821D01*
X103462142Y-111837821D02*
X103522619Y-111958773D01*
X103522619Y-111958773D02*
X103583095Y-112019250D01*
X103583095Y-112019250D02*
X103704047Y-112079726D01*
X103704047Y-112079726D02*
X103945952Y-112079726D01*
X103945952Y-112079726D02*
X104066904Y-112019250D01*
X104066904Y-112019250D02*
X104127381Y-111958773D01*
X104127381Y-111958773D02*
X104187857Y-111837821D01*
X104187857Y-111837821D02*
X104187857Y-110809726D01*
X104792618Y-112079726D02*
X104792618Y-110809726D01*
X104792618Y-110809726D02*
X105276428Y-110809726D01*
X105276428Y-110809726D02*
X105397380Y-110870202D01*
X105397380Y-110870202D02*
X105457857Y-110930678D01*
X105457857Y-110930678D02*
X105518333Y-111051630D01*
X105518333Y-111051630D02*
X105518333Y-111233059D01*
X105518333Y-111233059D02*
X105457857Y-111354011D01*
X105457857Y-111354011D02*
X105397380Y-111414488D01*
X105397380Y-111414488D02*
X105276428Y-111474964D01*
X105276428Y-111474964D02*
X104792618Y-111474964D01*
D11*
X104344836Y-110372419D02*
X104344836Y-109610514D01*
X104154360Y-109800990D02*
X104344836Y-109610514D01*
X104344836Y-109610514D02*
X104535312Y-109800990D01*
D12*
X146892319Y-49248094D02*
X145892319Y-49248094D01*
X145892319Y-49248094D02*
X145892319Y-49009999D01*
X145892319Y-49009999D02*
X145939938Y-48867142D01*
X145939938Y-48867142D02*
X146035176Y-48771904D01*
X146035176Y-48771904D02*
X146130414Y-48724285D01*
X146130414Y-48724285D02*
X146320890Y-48676666D01*
X146320890Y-48676666D02*
X146463747Y-48676666D01*
X146463747Y-48676666D02*
X146654223Y-48724285D01*
X146654223Y-48724285D02*
X146749461Y-48771904D01*
X146749461Y-48771904D02*
X146844700Y-48867142D01*
X146844700Y-48867142D02*
X146892319Y-49009999D01*
X146892319Y-49009999D02*
X146892319Y-49248094D01*
X146225652Y-47819523D02*
X146892319Y-47819523D01*
X145844700Y-48057618D02*
X146558985Y-48295713D01*
X146558985Y-48295713D02*
X146558985Y-47676666D01*
X139253333Y-54274819D02*
X138920000Y-53798628D01*
X138681905Y-54274819D02*
X138681905Y-53274819D01*
X138681905Y-53274819D02*
X139062857Y-53274819D01*
X139062857Y-53274819D02*
X139158095Y-53322438D01*
X139158095Y-53322438D02*
X139205714Y-53370057D01*
X139205714Y-53370057D02*
X139253333Y-53465295D01*
X139253333Y-53465295D02*
X139253333Y-53608152D01*
X139253333Y-53608152D02*
X139205714Y-53703390D01*
X139205714Y-53703390D02*
X139158095Y-53751009D01*
X139158095Y-53751009D02*
X139062857Y-53798628D01*
X139062857Y-53798628D02*
X138681905Y-53798628D01*
X140205714Y-54274819D02*
X139634286Y-54274819D01*
X139920000Y-54274819D02*
X139920000Y-53274819D01*
X139920000Y-53274819D02*
X139824762Y-53417676D01*
X139824762Y-53417676D02*
X139729524Y-53512914D01*
X139729524Y-53512914D02*
X139634286Y-53560533D01*
X139266666Y-38554819D02*
X139266666Y-39269104D01*
X139266666Y-39269104D02*
X139219047Y-39411961D01*
X139219047Y-39411961D02*
X139123809Y-39507200D01*
X139123809Y-39507200D02*
X138980952Y-39554819D01*
X138980952Y-39554819D02*
X138885714Y-39554819D01*
X140266666Y-39554819D02*
X139695238Y-39554819D01*
X139980952Y-39554819D02*
X139980952Y-38554819D01*
X139980952Y-38554819D02*
X139885714Y-38697676D01*
X139885714Y-38697676D02*
X139790476Y-38792914D01*
X139790476Y-38792914D02*
X139695238Y-38840533D01*
X149559580Y-52466666D02*
X149607200Y-52514285D01*
X149607200Y-52514285D02*
X149654819Y-52657142D01*
X149654819Y-52657142D02*
X149654819Y-52752380D01*
X149654819Y-52752380D02*
X149607200Y-52895237D01*
X149607200Y-52895237D02*
X149511961Y-52990475D01*
X149511961Y-52990475D02*
X149416723Y-53038094D01*
X149416723Y-53038094D02*
X149226247Y-53085713D01*
X149226247Y-53085713D02*
X149083390Y-53085713D01*
X149083390Y-53085713D02*
X148892914Y-53038094D01*
X148892914Y-53038094D02*
X148797676Y-52990475D01*
X148797676Y-52990475D02*
X148702438Y-52895237D01*
X148702438Y-52895237D02*
X148654819Y-52752380D01*
X148654819Y-52752380D02*
X148654819Y-52657142D01*
X148654819Y-52657142D02*
X148702438Y-52514285D01*
X148702438Y-52514285D02*
X148750057Y-52466666D01*
X148988152Y-51609523D02*
X149654819Y-51609523D01*
X148607200Y-51847618D02*
X149321485Y-52085713D01*
X149321485Y-52085713D02*
X149321485Y-51466666D01*
X144038095Y-129754819D02*
X144038095Y-130564342D01*
X144038095Y-130564342D02*
X144085714Y-130659580D01*
X144085714Y-130659580D02*
X144133333Y-130707200D01*
X144133333Y-130707200D02*
X144228571Y-130754819D01*
X144228571Y-130754819D02*
X144419047Y-130754819D01*
X144419047Y-130754819D02*
X144514285Y-130707200D01*
X144514285Y-130707200D02*
X144561904Y-130659580D01*
X144561904Y-130659580D02*
X144609523Y-130564342D01*
X144609523Y-130564342D02*
X144609523Y-129754819D01*
X145228571Y-130183390D02*
X145133333Y-130135771D01*
X145133333Y-130135771D02*
X145085714Y-130088152D01*
X145085714Y-130088152D02*
X145038095Y-129992914D01*
X145038095Y-129992914D02*
X145038095Y-129945295D01*
X145038095Y-129945295D02*
X145085714Y-129850057D01*
X145085714Y-129850057D02*
X145133333Y-129802438D01*
X145133333Y-129802438D02*
X145228571Y-129754819D01*
X145228571Y-129754819D02*
X145419047Y-129754819D01*
X145419047Y-129754819D02*
X145514285Y-129802438D01*
X145514285Y-129802438D02*
X145561904Y-129850057D01*
X145561904Y-129850057D02*
X145609523Y-129945295D01*
X145609523Y-129945295D02*
X145609523Y-129992914D01*
X145609523Y-129992914D02*
X145561904Y-130088152D01*
X145561904Y-130088152D02*
X145514285Y-130135771D01*
X145514285Y-130135771D02*
X145419047Y-130183390D01*
X145419047Y-130183390D02*
X145228571Y-130183390D01*
X145228571Y-130183390D02*
X145133333Y-130231009D01*
X145133333Y-130231009D02*
X145085714Y-130278628D01*
X145085714Y-130278628D02*
X145038095Y-130373866D01*
X145038095Y-130373866D02*
X145038095Y-130564342D01*
X145038095Y-130564342D02*
X145085714Y-130659580D01*
X145085714Y-130659580D02*
X145133333Y-130707200D01*
X145133333Y-130707200D02*
X145228571Y-130754819D01*
X145228571Y-130754819D02*
X145419047Y-130754819D01*
X145419047Y-130754819D02*
X145514285Y-130707200D01*
X145514285Y-130707200D02*
X145561904Y-130659580D01*
X145561904Y-130659580D02*
X145609523Y-130564342D01*
X145609523Y-130564342D02*
X145609523Y-130373866D01*
X145609523Y-130373866D02*
X145561904Y-130278628D01*
X145561904Y-130278628D02*
X145514285Y-130231009D01*
X145514285Y-130231009D02*
X145419047Y-130183390D01*
X146038333Y-52334819D02*
X145705000Y-51858628D01*
X145466905Y-52334819D02*
X145466905Y-51334819D01*
X145466905Y-51334819D02*
X145847857Y-51334819D01*
X145847857Y-51334819D02*
X145943095Y-51382438D01*
X145943095Y-51382438D02*
X145990714Y-51430057D01*
X145990714Y-51430057D02*
X146038333Y-51525295D01*
X146038333Y-51525295D02*
X146038333Y-51668152D01*
X146038333Y-51668152D02*
X145990714Y-51763390D01*
X145990714Y-51763390D02*
X145943095Y-51811009D01*
X145943095Y-51811009D02*
X145847857Y-51858628D01*
X145847857Y-51858628D02*
X145466905Y-51858628D01*
X146419286Y-51430057D02*
X146466905Y-51382438D01*
X146466905Y-51382438D02*
X146562143Y-51334819D01*
X146562143Y-51334819D02*
X146800238Y-51334819D01*
X146800238Y-51334819D02*
X146895476Y-51382438D01*
X146895476Y-51382438D02*
X146943095Y-51430057D01*
X146943095Y-51430057D02*
X146990714Y-51525295D01*
X146990714Y-51525295D02*
X146990714Y-51620533D01*
X146990714Y-51620533D02*
X146943095Y-51763390D01*
X146943095Y-51763390D02*
X146371667Y-52334819D01*
X146371667Y-52334819D02*
X146990714Y-52334819D01*
X159138095Y-54254819D02*
X159138095Y-55064342D01*
X159138095Y-55064342D02*
X159185714Y-55159580D01*
X159185714Y-55159580D02*
X159233333Y-55207200D01*
X159233333Y-55207200D02*
X159328571Y-55254819D01*
X159328571Y-55254819D02*
X159519047Y-55254819D01*
X159519047Y-55254819D02*
X159614285Y-55207200D01*
X159614285Y-55207200D02*
X159661904Y-55159580D01*
X159661904Y-55159580D02*
X159709523Y-55064342D01*
X159709523Y-55064342D02*
X159709523Y-54254819D01*
X160090476Y-54254819D02*
X160709523Y-54254819D01*
X160709523Y-54254819D02*
X160376190Y-54635771D01*
X160376190Y-54635771D02*
X160519047Y-54635771D01*
X160519047Y-54635771D02*
X160614285Y-54683390D01*
X160614285Y-54683390D02*
X160661904Y-54731009D01*
X160661904Y-54731009D02*
X160709523Y-54826247D01*
X160709523Y-54826247D02*
X160709523Y-55064342D01*
X160709523Y-55064342D02*
X160661904Y-55159580D01*
X160661904Y-55159580D02*
X160614285Y-55207200D01*
X160614285Y-55207200D02*
X160519047Y-55254819D01*
X160519047Y-55254819D02*
X160233333Y-55254819D01*
X160233333Y-55254819D02*
X160138095Y-55207200D01*
X160138095Y-55207200D02*
X160090476Y-55159580D01*
X147661905Y-47154819D02*
X147661905Y-46154819D01*
X147661905Y-46154819D02*
X147900000Y-46154819D01*
X147900000Y-46154819D02*
X148042857Y-46202438D01*
X148042857Y-46202438D02*
X148138095Y-46297676D01*
X148138095Y-46297676D02*
X148185714Y-46392914D01*
X148185714Y-46392914D02*
X148233333Y-46583390D01*
X148233333Y-46583390D02*
X148233333Y-46726247D01*
X148233333Y-46726247D02*
X148185714Y-46916723D01*
X148185714Y-46916723D02*
X148138095Y-47011961D01*
X148138095Y-47011961D02*
X148042857Y-47107200D01*
X148042857Y-47107200D02*
X147900000Y-47154819D01*
X147900000Y-47154819D02*
X147661905Y-47154819D01*
X149185714Y-47154819D02*
X148614286Y-47154819D01*
X148900000Y-47154819D02*
X148900000Y-46154819D01*
X148900000Y-46154819D02*
X148804762Y-46297676D01*
X148804762Y-46297676D02*
X148709524Y-46392914D01*
X148709524Y-46392914D02*
X148614286Y-46440533D01*
X150266666Y-43854819D02*
X150266666Y-44569104D01*
X150266666Y-44569104D02*
X150219047Y-44711961D01*
X150219047Y-44711961D02*
X150123809Y-44807200D01*
X150123809Y-44807200D02*
X149980952Y-44854819D01*
X149980952Y-44854819D02*
X149885714Y-44854819D01*
X150695238Y-43950057D02*
X150742857Y-43902438D01*
X150742857Y-43902438D02*
X150838095Y-43854819D01*
X150838095Y-43854819D02*
X151076190Y-43854819D01*
X151076190Y-43854819D02*
X151171428Y-43902438D01*
X151171428Y-43902438D02*
X151219047Y-43950057D01*
X151219047Y-43950057D02*
X151266666Y-44045295D01*
X151266666Y-44045295D02*
X151266666Y-44140533D01*
X151266666Y-44140533D02*
X151219047Y-44283390D01*
X151219047Y-44283390D02*
X150647619Y-44854819D01*
X150647619Y-44854819D02*
X151266666Y-44854819D01*
X148108571Y-40994700D02*
X149251429Y-40994700D01*
X148680000Y-41566128D02*
X148680000Y-40423271D01*
X161214700Y-41451428D02*
X161214700Y-40308571D01*
D11*
X196291904Y-68202580D02*
X196291904Y-67393057D01*
X196291904Y-67393057D02*
X196244285Y-67297819D01*
X196244285Y-67297819D02*
X196196666Y-67250200D01*
X196196666Y-67250200D02*
X196101428Y-67202580D01*
X196101428Y-67202580D02*
X195910952Y-67202580D01*
X195910952Y-67202580D02*
X195815714Y-67250200D01*
X195815714Y-67250200D02*
X195768095Y-67297819D01*
X195768095Y-67297819D02*
X195720476Y-67393057D01*
X195720476Y-67393057D02*
X195720476Y-68202580D01*
X194768095Y-68202580D02*
X195244285Y-68202580D01*
X195244285Y-68202580D02*
X195291904Y-67726390D01*
X195291904Y-67726390D02*
X195244285Y-67774009D01*
X195244285Y-67774009D02*
X195149047Y-67821628D01*
X195149047Y-67821628D02*
X194910952Y-67821628D01*
X194910952Y-67821628D02*
X194815714Y-67774009D01*
X194815714Y-67774009D02*
X194768095Y-67726390D01*
X194768095Y-67726390D02*
X194720476Y-67631152D01*
X194720476Y-67631152D02*
X194720476Y-67393057D01*
X194720476Y-67393057D02*
X194768095Y-67297819D01*
X194768095Y-67297819D02*
X194815714Y-67250200D01*
X194815714Y-67250200D02*
X194910952Y-67202580D01*
X194910952Y-67202580D02*
X195149047Y-67202580D01*
X195149047Y-67202580D02*
X195244285Y-67250200D01*
X195244285Y-67250200D02*
X195291904Y-67297819D01*
X195855163Y-72747580D02*
X195855163Y-73509485D01*
X196045639Y-73319009D02*
X195855163Y-73509485D01*
X195855163Y-73509485D02*
X195664687Y-73319009D01*
D12*
X207758571Y-50040273D02*
X207758571Y-51310273D01*
X207758571Y-51310273D02*
X207274761Y-51310273D01*
X207274761Y-51310273D02*
X207153809Y-51249797D01*
X207153809Y-51249797D02*
X207093332Y-51189321D01*
X207093332Y-51189321D02*
X207032856Y-51068369D01*
X207032856Y-51068369D02*
X207032856Y-50886940D01*
X207032856Y-50886940D02*
X207093332Y-50765988D01*
X207093332Y-50765988D02*
X207153809Y-50705511D01*
X207153809Y-50705511D02*
X207274761Y-50645035D01*
X207274761Y-50645035D02*
X207758571Y-50645035D01*
X206307142Y-50040273D02*
X206428094Y-50100750D01*
X206428094Y-50100750D02*
X206488571Y-50161226D01*
X206488571Y-50161226D02*
X206549047Y-50282178D01*
X206549047Y-50282178D02*
X206549047Y-50645035D01*
X206549047Y-50645035D02*
X206488571Y-50765988D01*
X206488571Y-50765988D02*
X206428094Y-50826464D01*
X206428094Y-50826464D02*
X206307142Y-50886940D01*
X206307142Y-50886940D02*
X206125713Y-50886940D01*
X206125713Y-50886940D02*
X206004761Y-50826464D01*
X206004761Y-50826464D02*
X205944285Y-50765988D01*
X205944285Y-50765988D02*
X205883809Y-50645035D01*
X205883809Y-50645035D02*
X205883809Y-50282178D01*
X205883809Y-50282178D02*
X205944285Y-50161226D01*
X205944285Y-50161226D02*
X206004761Y-50100750D01*
X206004761Y-50100750D02*
X206125713Y-50040273D01*
X206125713Y-50040273D02*
X206307142Y-50040273D01*
X205158094Y-50040273D02*
X205279046Y-50100750D01*
X205279046Y-50100750D02*
X205339523Y-50221702D01*
X205339523Y-50221702D02*
X205339523Y-51310273D01*
X204492856Y-50040273D02*
X204613808Y-50100750D01*
X204613808Y-50100750D02*
X204674285Y-50161226D01*
X204674285Y-50161226D02*
X204734761Y-50282178D01*
X204734761Y-50282178D02*
X204734761Y-50645035D01*
X204734761Y-50645035D02*
X204674285Y-50765988D01*
X204674285Y-50765988D02*
X204613808Y-50826464D01*
X204613808Y-50826464D02*
X204492856Y-50886940D01*
X204492856Y-50886940D02*
X204311427Y-50886940D01*
X204311427Y-50886940D02*
X204190475Y-50826464D01*
X204190475Y-50826464D02*
X204129999Y-50765988D01*
X204129999Y-50765988D02*
X204069523Y-50645035D01*
X204069523Y-50645035D02*
X204069523Y-50282178D01*
X204069523Y-50282178D02*
X204129999Y-50161226D01*
X204129999Y-50161226D02*
X204190475Y-50100750D01*
X204190475Y-50100750D02*
X204311427Y-50040273D01*
X204311427Y-50040273D02*
X204492856Y-50040273D01*
X203343808Y-50040273D02*
X203464760Y-50100750D01*
X203464760Y-50100750D02*
X203525237Y-50221702D01*
X203525237Y-50221702D02*
X203525237Y-51310273D01*
X202315713Y-50886940D02*
X202315713Y-50040273D01*
X202859999Y-50886940D02*
X202859999Y-50221702D01*
X202859999Y-50221702D02*
X202799522Y-50100750D01*
X202799522Y-50100750D02*
X202678570Y-50040273D01*
X202678570Y-50040273D02*
X202497141Y-50040273D01*
X202497141Y-50040273D02*
X202376189Y-50100750D01*
X202376189Y-50100750D02*
X202315713Y-50161226D01*
X200319998Y-50705511D02*
X200138570Y-50645035D01*
X200138570Y-50645035D02*
X200078093Y-50584559D01*
X200078093Y-50584559D02*
X200017617Y-50463607D01*
X200017617Y-50463607D02*
X200017617Y-50282178D01*
X200017617Y-50282178D02*
X200078093Y-50161226D01*
X200078093Y-50161226D02*
X200138570Y-50100750D01*
X200138570Y-50100750D02*
X200259522Y-50040273D01*
X200259522Y-50040273D02*
X200743332Y-50040273D01*
X200743332Y-50040273D02*
X200743332Y-51310273D01*
X200743332Y-51310273D02*
X200319998Y-51310273D01*
X200319998Y-51310273D02*
X200199046Y-51249797D01*
X200199046Y-51249797D02*
X200138570Y-51189321D01*
X200138570Y-51189321D02*
X200078093Y-51068369D01*
X200078093Y-51068369D02*
X200078093Y-50947416D01*
X200078093Y-50947416D02*
X200138570Y-50826464D01*
X200138570Y-50826464D02*
X200199046Y-50765988D01*
X200199046Y-50765988D02*
X200319998Y-50705511D01*
X200319998Y-50705511D02*
X200743332Y-50705511D01*
X199473332Y-50040273D02*
X199473332Y-50886940D01*
X199473332Y-50645035D02*
X199412855Y-50765988D01*
X199412855Y-50765988D02*
X199352379Y-50826464D01*
X199352379Y-50826464D02*
X199231427Y-50886940D01*
X199231427Y-50886940D02*
X199110474Y-50886940D01*
X198142856Y-50886940D02*
X198142856Y-50040273D01*
X198687142Y-50886940D02*
X198687142Y-50221702D01*
X198687142Y-50221702D02*
X198626665Y-50100750D01*
X198626665Y-50100750D02*
X198505713Y-50040273D01*
X198505713Y-50040273D02*
X198324284Y-50040273D01*
X198324284Y-50040273D02*
X198203332Y-50100750D01*
X198203332Y-50100750D02*
X198142856Y-50161226D01*
X197598570Y-50100750D02*
X197477617Y-50040273D01*
X197477617Y-50040273D02*
X197235713Y-50040273D01*
X197235713Y-50040273D02*
X197114760Y-50100750D01*
X197114760Y-50100750D02*
X197054284Y-50221702D01*
X197054284Y-50221702D02*
X197054284Y-50282178D01*
X197054284Y-50282178D02*
X197114760Y-50403130D01*
X197114760Y-50403130D02*
X197235713Y-50463607D01*
X197235713Y-50463607D02*
X197417141Y-50463607D01*
X197417141Y-50463607D02*
X197538094Y-50524083D01*
X197538094Y-50524083D02*
X197598570Y-50645035D01*
X197598570Y-50645035D02*
X197598570Y-50705511D01*
X197598570Y-50705511D02*
X197538094Y-50826464D01*
X197538094Y-50826464D02*
X197417141Y-50886940D01*
X197417141Y-50886940D02*
X197235713Y-50886940D01*
X197235713Y-50886940D02*
X197114760Y-50826464D01*
X196509999Y-50040273D02*
X196509999Y-51310273D01*
X195965713Y-50040273D02*
X195965713Y-50705511D01*
X195965713Y-50705511D02*
X196026189Y-50826464D01*
X196026189Y-50826464D02*
X196147141Y-50886940D01*
X196147141Y-50886940D02*
X196328570Y-50886940D01*
X196328570Y-50886940D02*
X196449522Y-50826464D01*
X196449522Y-50826464D02*
X196509999Y-50765988D01*
X195179522Y-50040273D02*
X195300474Y-50100750D01*
X195300474Y-50100750D02*
X195360951Y-50221702D01*
X195360951Y-50221702D02*
X195360951Y-51310273D01*
X194211903Y-50100750D02*
X194332855Y-50040273D01*
X194332855Y-50040273D02*
X194574760Y-50040273D01*
X194574760Y-50040273D02*
X194695713Y-50100750D01*
X194695713Y-50100750D02*
X194756189Y-50221702D01*
X194756189Y-50221702D02*
X194756189Y-50705511D01*
X194756189Y-50705511D02*
X194695713Y-50826464D01*
X194695713Y-50826464D02*
X194574760Y-50886940D01*
X194574760Y-50886940D02*
X194332855Y-50886940D01*
X194332855Y-50886940D02*
X194211903Y-50826464D01*
X194211903Y-50826464D02*
X194151427Y-50705511D01*
X194151427Y-50705511D02*
X194151427Y-50584559D01*
X194151427Y-50584559D02*
X194756189Y-50463607D01*
X193667618Y-50100750D02*
X193546665Y-50040273D01*
X193546665Y-50040273D02*
X193304761Y-50040273D01*
X193304761Y-50040273D02*
X193183808Y-50100750D01*
X193183808Y-50100750D02*
X193123332Y-50221702D01*
X193123332Y-50221702D02*
X193123332Y-50282178D01*
X193123332Y-50282178D02*
X193183808Y-50403130D01*
X193183808Y-50403130D02*
X193304761Y-50463607D01*
X193304761Y-50463607D02*
X193486189Y-50463607D01*
X193486189Y-50463607D02*
X193607142Y-50524083D01*
X193607142Y-50524083D02*
X193667618Y-50645035D01*
X193667618Y-50645035D02*
X193667618Y-50705511D01*
X193667618Y-50705511D02*
X193607142Y-50826464D01*
X193607142Y-50826464D02*
X193486189Y-50886940D01*
X193486189Y-50886940D02*
X193304761Y-50886940D01*
X193304761Y-50886940D02*
X193183808Y-50826464D01*
X192639523Y-50100750D02*
X192518570Y-50040273D01*
X192518570Y-50040273D02*
X192276666Y-50040273D01*
X192276666Y-50040273D02*
X192155713Y-50100750D01*
X192155713Y-50100750D02*
X192095237Y-50221702D01*
X192095237Y-50221702D02*
X192095237Y-50282178D01*
X192095237Y-50282178D02*
X192155713Y-50403130D01*
X192155713Y-50403130D02*
X192276666Y-50463607D01*
X192276666Y-50463607D02*
X192458094Y-50463607D01*
X192458094Y-50463607D02*
X192579047Y-50524083D01*
X192579047Y-50524083D02*
X192639523Y-50645035D01*
X192639523Y-50645035D02*
X192639523Y-50705511D01*
X192639523Y-50705511D02*
X192579047Y-50826464D01*
X192579047Y-50826464D02*
X192458094Y-50886940D01*
X192458094Y-50886940D02*
X192276666Y-50886940D01*
X192276666Y-50886940D02*
X192155713Y-50826464D01*
X190583333Y-50040273D02*
X190583333Y-51310273D01*
X190583333Y-51310273D02*
X190280952Y-51310273D01*
X190280952Y-51310273D02*
X190099523Y-51249797D01*
X190099523Y-51249797D02*
X189978571Y-51128845D01*
X189978571Y-51128845D02*
X189918094Y-51007892D01*
X189918094Y-51007892D02*
X189857618Y-50765988D01*
X189857618Y-50765988D02*
X189857618Y-50584559D01*
X189857618Y-50584559D02*
X189918094Y-50342654D01*
X189918094Y-50342654D02*
X189978571Y-50221702D01*
X189978571Y-50221702D02*
X190099523Y-50100750D01*
X190099523Y-50100750D02*
X190280952Y-50040273D01*
X190280952Y-50040273D02*
X190583333Y-50040273D01*
X188769047Y-50040273D02*
X188769047Y-50705511D01*
X188769047Y-50705511D02*
X188829523Y-50826464D01*
X188829523Y-50826464D02*
X188950475Y-50886940D01*
X188950475Y-50886940D02*
X189192380Y-50886940D01*
X189192380Y-50886940D02*
X189313333Y-50826464D01*
X188769047Y-50100750D02*
X188889999Y-50040273D01*
X188889999Y-50040273D02*
X189192380Y-50040273D01*
X189192380Y-50040273D02*
X189313333Y-50100750D01*
X189313333Y-50100750D02*
X189373809Y-50221702D01*
X189373809Y-50221702D02*
X189373809Y-50342654D01*
X189373809Y-50342654D02*
X189313333Y-50463607D01*
X189313333Y-50463607D02*
X189192380Y-50524083D01*
X189192380Y-50524083D02*
X188889999Y-50524083D01*
X188889999Y-50524083D02*
X188769047Y-50584559D01*
X187619999Y-50886940D02*
X187619999Y-50040273D01*
X188164285Y-50886940D02*
X188164285Y-50221702D01*
X188164285Y-50221702D02*
X188103808Y-50100750D01*
X188103808Y-50100750D02*
X187982856Y-50040273D01*
X187982856Y-50040273D02*
X187801427Y-50040273D01*
X187801427Y-50040273D02*
X187680475Y-50100750D01*
X187680475Y-50100750D02*
X187619999Y-50161226D01*
X186470951Y-50886940D02*
X186470951Y-49858845D01*
X186470951Y-49858845D02*
X186531427Y-49737892D01*
X186531427Y-49737892D02*
X186591903Y-49677416D01*
X186591903Y-49677416D02*
X186712856Y-49616940D01*
X186712856Y-49616940D02*
X186894284Y-49616940D01*
X186894284Y-49616940D02*
X187015237Y-49677416D01*
X186470951Y-50100750D02*
X186591903Y-50040273D01*
X186591903Y-50040273D02*
X186833808Y-50040273D01*
X186833808Y-50040273D02*
X186954760Y-50100750D01*
X186954760Y-50100750D02*
X187015237Y-50161226D01*
X187015237Y-50161226D02*
X187075713Y-50282178D01*
X187075713Y-50282178D02*
X187075713Y-50645035D01*
X187075713Y-50645035D02*
X187015237Y-50765988D01*
X187015237Y-50765988D02*
X186954760Y-50826464D01*
X186954760Y-50826464D02*
X186833808Y-50886940D01*
X186833808Y-50886940D02*
X186591903Y-50886940D01*
X186591903Y-50886940D02*
X186470951Y-50826464D01*
X185866189Y-50040273D02*
X185866189Y-51310273D01*
X185321903Y-50040273D02*
X185321903Y-50705511D01*
X185321903Y-50705511D02*
X185382379Y-50826464D01*
X185382379Y-50826464D02*
X185503331Y-50886940D01*
X185503331Y-50886940D02*
X185684760Y-50886940D01*
X185684760Y-50886940D02*
X185805712Y-50826464D01*
X185805712Y-50826464D02*
X185866189Y-50765988D01*
X184898569Y-50886940D02*
X184414760Y-50886940D01*
X184717141Y-51310273D02*
X184717141Y-50221702D01*
X184717141Y-50221702D02*
X184656664Y-50100750D01*
X184656664Y-50100750D02*
X184535712Y-50040273D01*
X184535712Y-50040273D02*
X184414760Y-50040273D01*
X183507617Y-50100750D02*
X183628569Y-50040273D01*
X183628569Y-50040273D02*
X183870474Y-50040273D01*
X183870474Y-50040273D02*
X183991427Y-50100750D01*
X183991427Y-50100750D02*
X184051903Y-50221702D01*
X184051903Y-50221702D02*
X184051903Y-50705511D01*
X184051903Y-50705511D02*
X183991427Y-50826464D01*
X183991427Y-50826464D02*
X183870474Y-50886940D01*
X183870474Y-50886940D02*
X183628569Y-50886940D01*
X183628569Y-50886940D02*
X183507617Y-50826464D01*
X183507617Y-50826464D02*
X183447141Y-50705511D01*
X183447141Y-50705511D02*
X183447141Y-50584559D01*
X183447141Y-50584559D02*
X184051903Y-50463607D01*
X182902856Y-50040273D02*
X182902856Y-50886940D01*
X182902856Y-50645035D02*
X182842379Y-50765988D01*
X182842379Y-50765988D02*
X182781903Y-50826464D01*
X182781903Y-50826464D02*
X182660951Y-50886940D01*
X182660951Y-50886940D02*
X182539998Y-50886940D01*
X196737857Y-72310273D02*
X196737857Y-71282178D01*
X196737857Y-71282178D02*
X196677380Y-71161226D01*
X196677380Y-71161226D02*
X196616904Y-71100750D01*
X196616904Y-71100750D02*
X196495952Y-71040273D01*
X196495952Y-71040273D02*
X196254047Y-71040273D01*
X196254047Y-71040273D02*
X196133095Y-71100750D01*
X196133095Y-71100750D02*
X196072618Y-71161226D01*
X196072618Y-71161226D02*
X196012142Y-71282178D01*
X196012142Y-71282178D02*
X196012142Y-72310273D01*
X195407381Y-71040273D02*
X195407381Y-72310273D01*
X195407381Y-72310273D02*
X194923571Y-72310273D01*
X194923571Y-72310273D02*
X194802619Y-72249797D01*
X194802619Y-72249797D02*
X194742142Y-72189321D01*
X194742142Y-72189321D02*
X194681666Y-72068369D01*
X194681666Y-72068369D02*
X194681666Y-71886940D01*
X194681666Y-71886940D02*
X194742142Y-71765988D01*
X194742142Y-71765988D02*
X194802619Y-71705511D01*
X194802619Y-71705511D02*
X194923571Y-71645035D01*
X194923571Y-71645035D02*
X195407381Y-71645035D01*
X152259580Y-56766666D02*
X152307200Y-56814285D01*
X152307200Y-56814285D02*
X152354819Y-56957142D01*
X152354819Y-56957142D02*
X152354819Y-57052380D01*
X152354819Y-57052380D02*
X152307200Y-57195237D01*
X152307200Y-57195237D02*
X152211961Y-57290475D01*
X152211961Y-57290475D02*
X152116723Y-57338094D01*
X152116723Y-57338094D02*
X151926247Y-57385713D01*
X151926247Y-57385713D02*
X151783390Y-57385713D01*
X151783390Y-57385713D02*
X151592914Y-57338094D01*
X151592914Y-57338094D02*
X151497676Y-57290475D01*
X151497676Y-57290475D02*
X151402438Y-57195237D01*
X151402438Y-57195237D02*
X151354819Y-57052380D01*
X151354819Y-57052380D02*
X151354819Y-56957142D01*
X151354819Y-56957142D02*
X151402438Y-56814285D01*
X151402438Y-56814285D02*
X151450057Y-56766666D01*
X151354819Y-56433332D02*
X151354819Y-55814285D01*
X151354819Y-55814285D02*
X151735771Y-56147618D01*
X151735771Y-56147618D02*
X151735771Y-56004761D01*
X151735771Y-56004761D02*
X151783390Y-55909523D01*
X151783390Y-55909523D02*
X151831009Y-55861904D01*
X151831009Y-55861904D02*
X151926247Y-55814285D01*
X151926247Y-55814285D02*
X152164342Y-55814285D01*
X152164342Y-55814285D02*
X152259580Y-55861904D01*
X152259580Y-55861904D02*
X152307200Y-55909523D01*
X152307200Y-55909523D02*
X152354819Y-56004761D01*
X152354819Y-56004761D02*
X152354819Y-56290475D01*
X152354819Y-56290475D02*
X152307200Y-56385713D01*
X152307200Y-56385713D02*
X152259580Y-56433332D01*
X148759580Y-66366666D02*
X148807200Y-66414285D01*
X148807200Y-66414285D02*
X148854819Y-66557142D01*
X148854819Y-66557142D02*
X148854819Y-66652380D01*
X148854819Y-66652380D02*
X148807200Y-66795237D01*
X148807200Y-66795237D02*
X148711961Y-66890475D01*
X148711961Y-66890475D02*
X148616723Y-66938094D01*
X148616723Y-66938094D02*
X148426247Y-66985713D01*
X148426247Y-66985713D02*
X148283390Y-66985713D01*
X148283390Y-66985713D02*
X148092914Y-66938094D01*
X148092914Y-66938094D02*
X147997676Y-66890475D01*
X147997676Y-66890475D02*
X147902438Y-66795237D01*
X147902438Y-66795237D02*
X147854819Y-66652380D01*
X147854819Y-66652380D02*
X147854819Y-66557142D01*
X147854819Y-66557142D02*
X147902438Y-66414285D01*
X147902438Y-66414285D02*
X147950057Y-66366666D01*
X148854819Y-65414285D02*
X148854819Y-65985713D01*
X148854819Y-65699999D02*
X147854819Y-65699999D01*
X147854819Y-65699999D02*
X147997676Y-65795237D01*
X147997676Y-65795237D02*
X148092914Y-65890475D01*
X148092914Y-65890475D02*
X148140533Y-65985713D01*
%TO.C,U4*%
D13*
X138840000Y-90980000D02*
X72810000Y-90980000D01*
X72810000Y-34480000D01*
X138840000Y-34480000D01*
X138840000Y-90980000D01*
%TO.C,U7*%
X161460000Y-92200000D02*
X227490000Y-92200000D01*
X227490000Y-148700000D01*
X161460000Y-148700000D01*
X161460000Y-92200000D01*
D14*
%TO.C,U2*%
X141475000Y-59346250D02*
X141570000Y-59346250D01*
X141475000Y-63466250D02*
X141475000Y-59346250D01*
X141570000Y-63466250D02*
X141475000Y-63466250D01*
X146500000Y-59346250D02*
X146595000Y-59346250D01*
X146595000Y-59346250D02*
X146595000Y-63466250D01*
X146595000Y-63466250D02*
X146500000Y-63466250D01*
X141565000Y-64006250D02*
X141235000Y-64246250D01*
X141235000Y-63766250D01*
X141565000Y-64006250D01*
G36*
X141565000Y-64006250D02*
G01*
X141235000Y-64246250D01*
X141235000Y-63766250D01*
X141565000Y-64006250D01*
G37*
%TO.C,C6*%
X139065000Y-128638748D02*
X139065000Y-129161252D01*
X140535000Y-128638748D02*
X140535000Y-129161252D01*
%TO.C,TP2*%
X115280000Y-36180000D02*
G75*
G02*
X112280000Y-36180000I-1500000J0D01*
G01*
X112280000Y-36180000D02*
G75*
G02*
X115280000Y-36180000I1500000J0D01*
G01*
%TO.C,C2*%
X138001248Y-52865000D02*
X138523752Y-52865000D01*
X138001248Y-54335000D02*
X138523752Y-54335000D01*
%TO.C,U6*%
D13*
X72660000Y-92200000D02*
X138690000Y-92200000D01*
X138690000Y-148700000D01*
X72660000Y-148700000D01*
X72660000Y-92200000D01*
D14*
%TO.C,D4*%
X142227500Y-49455000D02*
X142227500Y-47605000D01*
X143117500Y-49455000D02*
X142227500Y-49455000D01*
X145347500Y-49470000D02*
X144457500Y-49470000D01*
X145347500Y-49470000D02*
X145347500Y-47620000D01*
X145667500Y-47470000D02*
X145337500Y-47230000D01*
X145667500Y-46990000D01*
X145667500Y-47470000D01*
G36*
X145667500Y-47470000D02*
G01*
X145337500Y-47230000D01*
X145667500Y-46990000D01*
X145667500Y-47470000D01*
G37*
%TO.C,R1*%
X142389564Y-52865000D02*
X141935436Y-52865000D01*
X142389564Y-54335000D02*
X141935436Y-54335000D01*
%TO.C,J1*%
X140740000Y-38490000D02*
X140740000Y-43210000D01*
X140740000Y-40600000D02*
X141350000Y-40600000D01*
X140740000Y-41900000D02*
X141350000Y-41900000D01*
X140740000Y-43210000D02*
X146860000Y-43210000D01*
X141350000Y-39100000D02*
X141350000Y-42600000D01*
X141350000Y-42600000D02*
X143300000Y-42600000D01*
X143300000Y-42600000D02*
X143300000Y-43210000D01*
X143700000Y-39600000D02*
X143700000Y-39100000D01*
X143800000Y-39100000D02*
X143800000Y-39600000D01*
X143900000Y-39100000D02*
X143900000Y-39600000D01*
X143900000Y-39600000D02*
X143700000Y-39600000D01*
X144300000Y-42600000D02*
X146250000Y-42600000D01*
X144300000Y-43210000D02*
X144300000Y-42600000D01*
X145100000Y-43210000D02*
X145100000Y-43410000D01*
X145100000Y-43310000D02*
X145400000Y-43310000D01*
X145100000Y-43410000D02*
X145400000Y-43410000D01*
X145400000Y-43410000D02*
X145400000Y-43210000D01*
X145910000Y-43510000D02*
X147160000Y-43510000D01*
X146250000Y-39100000D02*
X141350000Y-39100000D01*
X146250000Y-42600000D02*
X146250000Y-39100000D01*
X146860000Y-38490000D02*
X140740000Y-38490000D01*
X146860000Y-40600000D02*
X146250000Y-40600000D01*
X146860000Y-41900000D02*
X146250000Y-41900000D01*
X146860000Y-43210000D02*
X146860000Y-38490000D01*
X147160000Y-43510000D02*
X147160000Y-42260000D01*
%TO.C,TP4*%
X161080000Y-64680000D02*
G75*
G02*
X158080000Y-64680000I-1500000J0D01*
G01*
X158080000Y-64680000D02*
G75*
G02*
X161080000Y-64680000I1500000J0D01*
G01*
%TO.C,TP14*%
X110880000Y-36200000D02*
G75*
G02*
X107880000Y-36200000I-1500000J0D01*
G01*
X107880000Y-36200000D02*
G75*
G02*
X110880000Y-36200000I1500000J0D01*
G01*
%TO.C,C4*%
X149965000Y-51038748D02*
X149965000Y-51561252D01*
X151435000Y-51038748D02*
X151435000Y-51561252D01*
D15*
%TO.C,U8*%
X141290000Y-68170000D02*
X159070000Y-68170000D01*
X141290000Y-129130000D02*
X141290000Y-68170000D01*
X141290000Y-129130000D02*
X146150000Y-129130000D01*
X146150000Y-129130000D02*
X146150000Y-129830000D01*
X154210000Y-129130000D02*
X154210000Y-129830000D01*
X154210000Y-129830000D02*
X146150000Y-129830000D01*
X159070000Y-68170000D02*
X159070000Y-129130000D01*
X159070000Y-129130000D02*
X154210000Y-129130000D01*
D16*
X159780000Y-122780000D02*
G75*
G02*
X159580000Y-122780000I-100000J0D01*
G01*
X159580000Y-122780000D02*
G75*
G02*
X159780000Y-122780000I100000J0D01*
G01*
D14*
%TO.C,TP13*%
X160100000Y-35900000D02*
G75*
G02*
X157100000Y-35900000I-1500000J0D01*
G01*
X157100000Y-35900000D02*
G75*
G02*
X160100000Y-35900000I1500000J0D01*
G01*
%TO.C,R2*%
X146089564Y-52865000D02*
X145635436Y-52865000D01*
X146089564Y-54335000D02*
X145635436Y-54335000D01*
%TO.C,U3*%
X152070000Y-49130000D02*
X152070000Y-52890000D01*
X152070000Y-52890000D02*
X153330000Y-52890000D01*
X158890000Y-49130000D02*
X158890000Y-52890000D01*
X158890000Y-52890000D02*
X157630000Y-52890000D01*
X159120000Y-48090000D02*
X158790000Y-47850000D01*
X159120000Y-47610000D01*
X159120000Y-48090000D01*
G36*
X159120000Y-48090000D02*
G01*
X158790000Y-47850000D01*
X159120000Y-47610000D01*
X159120000Y-48090000D01*
G37*
%TO.C,D1*%
X151510000Y-47450000D02*
X148250000Y-47450000D01*
X151510000Y-49150000D02*
X148250000Y-49150000D01*
X151510000Y-49150000D02*
X151510000Y-47450000D01*
%TO.C,J2*%
X149970000Y-43590000D02*
X149970000Y-38170000D01*
X158690000Y-38170000D02*
X149970000Y-38170000D01*
X158690000Y-43590000D02*
X149970000Y-43590000D01*
X160390000Y-39470000D02*
X158690000Y-38170000D01*
X160390000Y-42290000D02*
X158690000Y-43590000D01*
X160390000Y-42290000D02*
X160390000Y-39470000D01*
%TO.C,U5*%
D13*
X227540000Y-90920000D02*
X161510000Y-90920000D01*
X161510000Y-34420000D01*
X227540000Y-34420000D01*
X227540000Y-90920000D01*
D14*
%TO.C,TP3*%
X161080000Y-57180000D02*
G75*
G02*
X158080000Y-57180000I-1500000J0D01*
G01*
X158080000Y-57180000D02*
G75*
G02*
X161080000Y-57180000I1500000J0D01*
G01*
%TO.C,C3*%
X154661252Y-55765000D02*
X154138748Y-55765000D01*
X154661252Y-57235000D02*
X154138748Y-57235000D01*
%TO.C,C1*%
X146061252Y-65465000D02*
X145538748Y-65465000D01*
X146061252Y-66935000D02*
X145538748Y-66935000D01*
%TO.C,TP15*%
X160980000Y-60980000D02*
G75*
G02*
X157980000Y-60980000I-1500000J0D01*
G01*
X157980000Y-60980000D02*
G75*
G02*
X160980000Y-60980000I1500000J0D01*
G01*
%TO.C,TP1*%
X153980000Y-35900000D02*
G75*
G02*
X150980000Y-35900000I-1500000J0D01*
G01*
X150980000Y-35900000D02*
G75*
G02*
X153980000Y-35900000I1500000J0D01*
G01*
%TD*%
%LPC*%
D17*
%TO.C,U4*%
X113180000Y-80800000D03*
D18*
X113180000Y-78260000D03*
X113180000Y-75720000D03*
X113180000Y-73180000D03*
X113180000Y-70640000D03*
X113180000Y-68100000D03*
X113180000Y-65560000D03*
X113180000Y-63020000D03*
X113180000Y-60480000D03*
X113180000Y-57940000D03*
X113180000Y-55400000D03*
X113180000Y-52860000D03*
D17*
X100500000Y-80800000D03*
D18*
X100500000Y-78260000D03*
X100500000Y-75720000D03*
X100500000Y-73180000D03*
X100500000Y-70640000D03*
X100500000Y-68100000D03*
X100500000Y-65560000D03*
X100500000Y-63020000D03*
X100500000Y-60480000D03*
X100500000Y-57940000D03*
X100500000Y-55400000D03*
X100500000Y-52860000D03*
%TD*%
D19*
%TO.C,H4*%
X67900000Y-144800000D03*
%TD*%
D17*
%TO.C,U7*%
X187120000Y-102380000D03*
D18*
X187120000Y-104920000D03*
X187120000Y-107460000D03*
X187120000Y-110000000D03*
X187120000Y-112540000D03*
X187120000Y-115080000D03*
X187120000Y-117620000D03*
X187120000Y-120160000D03*
X187120000Y-122700000D03*
X187120000Y-125240000D03*
X187120000Y-127780000D03*
X187120000Y-130320000D03*
D17*
X199800000Y-102380000D03*
D18*
X199800000Y-104920000D03*
X199800000Y-107460000D03*
X199800000Y-110000000D03*
X199800000Y-112540000D03*
X199800000Y-115080000D03*
X199800000Y-117620000D03*
X199800000Y-120160000D03*
X199800000Y-122700000D03*
X199800000Y-125240000D03*
X199800000Y-127780000D03*
X199800000Y-130320000D03*
%TD*%
D20*
%TO.C,U2*%
X142130000Y-63881250D03*
X143400000Y-63881250D03*
X144670000Y-63881250D03*
X145940000Y-63881250D03*
X145940000Y-58931250D03*
X144670000Y-58931250D03*
X143400000Y-58931250D03*
X142130000Y-58931250D03*
%TD*%
D21*
%TO.C,C6*%
X139800000Y-127862500D03*
X139800000Y-129937500D03*
%TD*%
D22*
%TO.C,TP2*%
X113780000Y-36180000D03*
%TD*%
D23*
%TO.C,C2*%
X137225000Y-53600000D03*
X139300000Y-53600000D03*
%TD*%
D17*
%TO.C,U6*%
X98320000Y-102380000D03*
D18*
X98320000Y-104920000D03*
X98320000Y-107460000D03*
X98320000Y-110000000D03*
X98320000Y-112540000D03*
X98320000Y-115080000D03*
X98320000Y-117620000D03*
X98320000Y-120160000D03*
X98320000Y-122700000D03*
X98320000Y-125240000D03*
X98320000Y-127780000D03*
X98320000Y-130320000D03*
D17*
X111000000Y-102380000D03*
D18*
X111000000Y-104920000D03*
X111000000Y-107460000D03*
X111000000Y-110000000D03*
X111000000Y-112540000D03*
X111000000Y-115080000D03*
X111000000Y-117620000D03*
X111000000Y-120160000D03*
X111000000Y-122700000D03*
X111000000Y-125240000D03*
X111000000Y-127780000D03*
X111000000Y-130320000D03*
%TD*%
D24*
%TO.C,D4*%
X144737500Y-46800000D03*
X142837500Y-46800000D03*
X143787500Y-50220000D03*
%TD*%
D25*
%TO.C,R1*%
X143162500Y-53600000D03*
X141162500Y-53600000D03*
%TD*%
D26*
%TO.C,J1*%
X144800000Y-41400000D03*
D27*
X142800000Y-41400000D03*
%TD*%
D22*
%TO.C,TP4*%
X159580000Y-64680000D03*
%TD*%
%TO.C,TP14*%
X109380000Y-36200000D03*
%TD*%
D21*
%TO.C,C4*%
X150700000Y-50262500D03*
X150700000Y-52337500D03*
%TD*%
D28*
%TO.C,U8*%
X157800000Y-125320000D03*
X157800000Y-122780000D03*
X157800000Y-120240000D03*
X157800000Y-117700000D03*
X157800000Y-92300000D03*
X152720000Y-82140000D03*
X142560000Y-122780000D03*
X157800000Y-115160000D03*
X157800000Y-112620000D03*
D29*
X154750000Y-121510000D03*
D28*
X157800000Y-110080000D03*
X157800000Y-107540000D03*
X157800000Y-105000000D03*
X157800000Y-102460000D03*
X157800000Y-99920000D03*
X157800000Y-97380000D03*
X157800000Y-94840000D03*
X142560000Y-94840000D03*
X142560000Y-97380000D03*
X142560000Y-99920000D03*
X142560000Y-102460000D03*
X142560000Y-105000000D03*
X142560000Y-107540000D03*
X142560000Y-110080000D03*
X142560000Y-112620000D03*
X142560000Y-115160000D03*
X142560000Y-117700000D03*
X142560000Y-120240000D03*
X157800000Y-89760000D03*
X157800000Y-87220000D03*
X157800000Y-84680000D03*
X157800000Y-82140000D03*
X157800000Y-79600000D03*
X157800000Y-77060000D03*
X157800000Y-74520000D03*
X157800000Y-71980000D03*
X157800000Y-69440000D03*
X142560000Y-69440000D03*
X142560000Y-71980000D03*
X142560000Y-74520000D03*
X142560000Y-77060000D03*
X142560000Y-79600000D03*
X142560000Y-82140000D03*
X142560000Y-84680000D03*
X142560000Y-87220000D03*
X142560000Y-89760000D03*
D29*
X154750000Y-116430000D03*
X154750000Y-118970000D03*
D28*
X157800000Y-127860000D03*
X142560000Y-125320000D03*
D30*
X147010000Y-112890000D03*
D28*
X142560000Y-92300000D03*
X150180000Y-82140000D03*
D30*
X147010000Y-114890000D03*
D28*
X145100000Y-82140000D03*
X147640000Y-82140000D03*
D30*
X145010000Y-114890000D03*
X145010000Y-112890000D03*
X149010000Y-112890000D03*
X149010000Y-114890000D03*
D29*
X154750000Y-113890000D03*
X154750000Y-111350000D03*
D28*
X155260000Y-82140000D03*
X142560000Y-127860000D03*
X145100000Y-125320000D03*
%TD*%
D22*
%TO.C,TP13*%
X158600000Y-35900000D03*
%TD*%
D25*
%TO.C,R2*%
X146862500Y-53600000D03*
X144862500Y-53600000D03*
%TD*%
D31*
%TO.C,U3*%
X157780000Y-47830000D03*
X155480000Y-47830000D03*
D32*
X155480000Y-54130000D03*
D31*
X153180000Y-47830000D03*
%TD*%
D33*
%TO.C,D1*%
X150750000Y-48300000D03*
X148250000Y-48300000D03*
%TD*%
D34*
%TO.C,J2*%
X157680000Y-40880000D03*
D35*
X152680000Y-40880000D03*
%TD*%
D19*
%TO.C,He1*%
X232600000Y-38400000D03*
%TD*%
D17*
%TO.C,U5*%
X201880000Y-80740000D03*
D18*
X201880000Y-78200000D03*
X201880000Y-75660000D03*
X201880000Y-73120000D03*
X201880000Y-70580000D03*
X201880000Y-68040000D03*
X201880000Y-65500000D03*
X201880000Y-62960000D03*
X201880000Y-60420000D03*
X201880000Y-57880000D03*
X201880000Y-55340000D03*
X201880000Y-52800000D03*
D17*
X189200000Y-80740000D03*
D18*
X189200000Y-78200000D03*
X189200000Y-75660000D03*
X189200000Y-73120000D03*
X189200000Y-70580000D03*
X189200000Y-68040000D03*
X189200000Y-65500000D03*
X189200000Y-62960000D03*
X189200000Y-60420000D03*
X189200000Y-57880000D03*
X189200000Y-55340000D03*
X189200000Y-52800000D03*
%TD*%
D19*
%TO.C,He2*%
X231900000Y-144800000D03*
%TD*%
D22*
%TO.C,TP3*%
X159580000Y-57180000D03*
%TD*%
D36*
%TO.C,C3*%
X155437500Y-56500000D03*
X153362500Y-56500000D03*
%TD*%
%TO.C,C1*%
X146837500Y-66200000D03*
X144762500Y-66200000D03*
%TD*%
D22*
%TO.C,TP15*%
X159480000Y-60980000D03*
%TD*%
%TO.C,TP1*%
X152480000Y-35900000D03*
%TD*%
D19*
%TO.C,H1*%
X68600000Y-38400000D03*
%TD*%
%LPD*%
M02*
