M48
; DRILL file {KiCad 9.0.7} date 2026-01-25T21:28:53-0500
; FORMAT={-:-/ absolute / metric / decimal}
; #@! TF.CreationDate,2026-01-25T21:28:53-05:00
; #@! TF.GenerationSoftware,Kicad,Pcbnew,9.0.7
; #@! TF.FileFunction,Plated,1,2,PTH
FMAT,2
METRIC
; #@! TA.AperFunction,Plated,PTH,ViaDrill
T1C0.300
; #@! TA.AperFunction,Plated,PTH,ComponentDrill
T2C0.700
; #@! TA.AperFunction,Plated,PTH,ComponentDrill
T3C0.750
; #@! TA.AperFunction,Plated,PTH,ComponentDrill
T4C0.800
; #@! TA.AperFunction,Plated,PTH,ComponentDrill
T5C1.000
; #@! TA.AperFunction,Plated,PTH,ComponentDrill
T6C2.700
%
G90
G05
T1
X65.1Y-54.2
X65.1Y-59.501
X65.2Y-71.9
X65.531Y-78.917
X65.593Y-65.911
X65.901Y-48.098
X66.086Y-42.674
X66.086Y-83.909
X67.113Y-87.067
X67.4Y-100.4
X67.4Y-105.701
X67.831Y-125.117
X67.893Y-112.111
X68.201Y-94.298
X68.386Y-88.874
X68.386Y-130.109
X69.413Y-133.267
X71.5Y-71.7
X73.7Y-100.8
X73.7Y-106.101
X73.8Y-53.2
X73.8Y-58.501
X73.974Y-145.114
X74.131Y-125.517
X74.193Y-112.511
X74.231Y-77.917
X74.293Y-64.911
X74.501Y-94.698
X74.601Y-47.098
X74.686Y-89.274
X74.686Y-130.509
X74.786Y-41.674
X74.786Y-82.909
X75.713Y-133.667
X75.813Y-86.067
X77.145Y-71.86
X79.0Y-41.4
X79.398Y-145.299
X80.1Y-102.4
X80.1Y-107.701
X80.433Y-47.213
X80.531Y-127.117
X80.593Y-114.111
X80.8Y-55.1
X80.8Y-60.401
X80.901Y-96.298
X81.086Y-90.874
X81.086Y-132.109
X81.231Y-79.817
X81.293Y-66.811
X81.601Y-48.998
X81.786Y-43.574
X81.786Y-84.809
X82.113Y-135.267
X82.157Y-40.373
X82.754Y-71.366
X82.813Y-87.967
X83.591Y-46.186
X85.5Y-146.1
X87.101Y-89.733
X87.15Y-39.818
X87.2Y-100.9
X87.2Y-116.1
X87.2Y-122.2
X87.4Y-105.7
X87.5Y-110.6
X87.562Y-66.251
X87.6Y-79.9
X87.6Y-85.096
X87.7Y-96.0
X88.583Y-45.631
X88.672Y-58.299
X88.942Y-127.183
X89.165Y-52.69
X90.3Y-74.8
X90.801Y-146.1
X92.495Y-68.594
X92.5Y-65.7
X92.7Y-51.6
X93.067Y-39.264
X93.315Y-91.533
X93.4Y-55.3
X93.674Y-86.808
X93.829Y-102.885
X93.972Y-60.025
X94.293Y-71.304
X94.5Y-67.0
X94.599Y-79.874
X95.8Y-71.9
X96.084Y-73.487
X96.652Y-69.496
X97.211Y-145.607
X98.7Y-98.0
X100.156Y-39.88
X100.8Y-118.9
X100.9Y-107.0
X101.144Y-121.326
X101.3Y-102.0
X101.589Y-45.693
X101.7Y-129.2
X101.8Y-114.4
X102.0Y-111.3
X102.3Y-92.5
X102.3Y-125.5
X102.4Y-133.9
X102.9Y-68.2
X103.197Y-76.758
X103.3Y-70.5
X103.366Y-64.084
X103.5Y-55.4
X103.5Y-117.8
X103.5Y-121.4
X103.618Y-80.647
X103.9Y-106.5
X103.9Y-110.2
X104.1Y-108.7
X104.6Y-130.5
X106.0Y-113.5
X106.0Y-135.8
X106.2Y-58.0
X106.4Y-69.5
X106.5Y-79.3
X106.566Y-39.387
X106.579Y-85.956
X106.6Y-122.7
X107.054Y-91.282
X107.6Y-140.3
X107.7Y-120.9
X107.8Y-100.7
X107.999Y-45.2
X108.2Y-122.6
X108.2Y-125.0
X108.3Y-129.7
X108.9Y-116.4
X108.915Y-112.862
X109.1Y-118.9
X109.221Y-95.338
X109.3Y-69.2
X109.806Y-53.969
X109.811Y-75.494
X110.217Y-145.669
X110.3Y-64.2
X110.678Y-79.507
X110.8Y-68.9
X110.968Y-99.083
X111.867Y-39.387
X112.4Y-95.7
X112.9Y-93.1
X113.3Y-45.2
X113.5Y-91.4
X114.0Y-89.6
X114.0Y-135.8
X114.09Y-129.272
X115.071Y-124.486
X115.2Y-93.1
X115.209Y-145.114
X115.9Y-113.0
X115.9Y-120.2
X116.078Y-58.022
X116.3Y-129.4
X117.1Y-131.5
X117.3Y-97.3
X117.39Y-116.312
X117.7Y-62.3
X117.9Y-140.5
X117.969Y-40.188
X118.131Y-86.273
X118.162Y-125.438
X118.2Y-103.2
X118.278Y-54.871
X118.345Y-65.499
X118.367Y-144.087
X118.489Y-108.183
X119.0Y-61.8
X119.387Y-88.974
X119.402Y-46.001
X119.784Y-135.39
X119.833Y-146.913
X120.2Y-66.1
X120.3Y-71.7
X120.5Y-98.5
X120.6Y-63.0
X120.808Y-129.391
X121.5Y-95.6
X121.7Y-93.4
X121.786Y-59.983
X121.8Y-120.9
X122.1Y-70.0
X122.1Y-90.4
X122.3Y-84.8
X122.488Y-74.587
X122.6Y-77.1
X122.688Y-81.797
X122.8Y-65.7
X122.991Y-145.886
X123.1Y-116.3
X123.3Y-83.3
X123.3Y-89.9
X123.3Y-93.6
X123.393Y-40.373
X123.9Y-55.9
X124.1Y-79.9
X124.6Y-88.9
X124.6Y-130.8
X124.642Y-113.548
X124.672Y-125.735
X124.695Y-72.193
X124.826Y-46.186
X124.9Y-68.5
X125.259Y-135.402
X125.3Y-79.5
X125.3Y-88.0
X125.4Y-93.5
X125.4Y-140.5
X125.821Y-102.857
X126.15Y-77.95
X126.9Y-107.9
X127.0Y-123.2
X127.1Y-69.4
X127.1Y-87.9
X127.13Y-92.58
X127.5Y-61.0
X127.754Y-90.104
X127.763Y-116.401
X127.8Y-96.6
X127.9Y-66.3
X127.9Y-78.1
X127.983Y-145.331
X128.3Y-85.6
X128.8Y-71.3
X129.0Y-77.4
X129.1Y-67.7
X129.2Y-131.2
X129.268Y-65.413
X129.7Y-125.1
X129.9Y-43.0
X129.9Y-83.5
X129.999Y-75.691
X130.1Y-120.6
X130.171Y-113.429
X130.458Y-78.773
X130.5Y-89.4
X130.8Y-65.3
X130.8Y-73.8
X131.0Y-99.8
X131.394Y-94.113
X131.4Y-86.7
X131.494Y-104.393
X131.5Y-81.3
X131.791Y-96.218
X131.9Y-108.4
X132.1Y-139.7
X132.7Y-65.5
X132.8Y-117.5
X133.1Y-70.0
X133.2Y-126.3
X133.316Y-48.448
X133.4Y-36.3
X133.8Y-85.3
X133.946Y-75.931
X134.364Y-56.584
X134.686Y-68.455
X134.8Y-120.7
X134.9Y-133.9
X135.1Y-97.3
X135.3Y-82.5
X135.5Y-115.1
X135.718Y-73.34
X136.1Y-60.7
X136.398Y-88.069
X136.5Y-90.6
X136.5Y-101.0
X136.6Y-92.7
X136.993Y-108.876
X137.1Y-126.2
X137.2Y-139.6
X137.3Y-36.7
X137.364Y-76.179
X137.5Y-40.8
X137.9Y-105.7
X137.9Y-117.1
X138.34Y-70.595
X138.7Y-88.9
X138.801Y-91.636
X139.0Y-85.2
X139.098Y-94.286
X139.3Y-124.6
X139.4Y-114.0
X139.494Y-78.483
X139.5Y-56.3
X139.5Y-73.3
X139.8Y-57.3
X140.2Y-121.0
X140.4Y-47.3
X140.4Y-80.7
X140.5Y-45.1
X140.6Y-65.4
X140.6Y-131.9
X140.989Y-145.393
X141.1Y-135.7
X141.2Y-56.2
X141.236Y-139.279
X143.1Y-135.1
X143.5Y-66.2
X143.516Y-67.358
X143.85Y-48.35
X144.55Y-91.1
X144.679Y-134.399
X145.1Y-101.388
X145.141Y-97.693
X145.15Y-73.0
X145.35Y-87.95
X145.4Y-104.45
X145.699Y-106.734
X146.501Y-77.569
X146.9Y-56.2
X147.082Y-99.344
X147.399Y-144.9
X147.558Y-135.118
X147.7Y-69.2
X147.9Y-57.3
X147.95Y-79.75
X148.0Y-129.3
X148.25Y-101.35
X148.5Y-56.0
X148.795Y-104.01
X148.8Y-73.6
X149.152Y-94.24
X149.2Y-127.0
X149.3Y-132.401
X149.55Y-60.85
X149.6Y-77.65
X149.6Y-108.324
X149.7Y-70.4
X150.35Y-91.2
X150.4Y-88.0
X150.9Y-129.3
X151.274Y-135.743
X151.9Y-122.2
X152.05Y-79.229
X152.05Y-64.7
X152.117Y-61.115
X152.5Y-123.8
X152.7Y-144.9
X152.9Y-140.75
X152.965Y-96.929
X153.1Y-45.1
X153.3Y-71.9
X153.536Y-73.358
X153.6Y-66.1
X153.7Y-98.85
X153.8Y-132.3
X154.378Y-91.292
X154.6Y-45.1
X154.637Y-103.886
X154.75Y-87.849
X154.846Y-67.406
X155.1Y-77.55
X155.235Y-108.138
X155.468Y-69.197
X155.65Y-100.1
X155.834Y-97.549
X155.9Y-64.25
X155.95Y-95.1
X156.05Y-61.1
X156.15Y-83.6
X156.2Y-136.2
X156.35Y-121.55
X158.802Y-145.701
X159.9Y-101.2
X160.092Y-104.335
X160.229Y-112.631
X160.27Y-91.109
X160.35Y-118.05
X160.362Y-130.213
X160.4Y-95.0
X160.848Y-109.349
X160.922Y-97.337
X161.0Y-124.6
X161.2Y-86.65
X161.341Y-88.601
X162.35Y-78.45
X162.53Y-72.976
X162.75Y-108.8
X162.85Y-111.764
X162.879Y-101.77
X162.902Y-68.121
X163.045Y-134.346
X163.05Y-116.65
X163.139Y-121.094
X163.2Y-127.2
X163.338Y-91.697
X163.421Y-104.186
X163.5Y-131.3
X163.646Y-43.03
X163.7Y-94.85
X164.226Y-145.886
X164.295Y-82.923
X164.4Y-97.3
X164.835Y-50.521
X165.363Y-99.906
X165.45Y-104.2
X165.6Y-90.45
X165.8Y-116.35
X166.3Y-124.2
X166.753Y-88.589
X167.25Y-93.05
X167.3Y-104.6
X167.35Y-96.1
X167.35Y-101.8
X167.4Y-107.95
X167.4Y-112.7
X167.65Y-78.25
X167.7Y-70.0
X167.819Y-118.507
X168.3Y-135.35
X168.45Y-126.6
X168.85Y-91.0
X168.88Y-116.17
X169.076Y-81.635
X169.1Y-104.6
X169.15Y-85.3
X169.417Y-70.338
X169.8Y-120.7
X169.933Y-43.713
X170.3Y-140.9
X170.572Y-49.808
X170.643Y-114.937
X170.748Y-92.672
X171.0Y-101.8
X171.051Y-98.857
X171.097Y-104.446
X171.15Y-88.85
X171.2Y-107.25
X171.238Y-95.274
X171.397Y-124.239
X171.433Y-39.013
X171.45Y-128.2
X171.55Y-57.65
X171.6Y-118.8
X172.1Y-110.05
X172.1Y-122.7
X172.267Y-61.494
X172.3Y-106.6
X172.4Y-73.0
X172.491Y-112.153
X172.935Y-82.953
X173.05Y-90.4
X173.091Y-42.686
X173.15Y-117.3
X173.374Y-145.214
X173.5Y-128.1
X173.746Y-98.313
X173.75Y-121.05
X174.1Y-66.0
X174.3Y-105.6
X174.591Y-37.986
X174.6Y-84.8
X174.6Y-135.55
X174.793Y-102.699
X175.3Y-94.7
X175.3Y-119.45
X175.581Y-110.311
X175.6Y-78.45
X175.7Y-67.1
X175.8Y-114.35
X175.95Y-106.25
X176.089Y-86.121
X176.3Y-68.45
X176.304Y-88.329
X176.55Y-81.75
X176.65Y-73.85
X176.8Y-57.75
X176.9Y-104.3
X177.1Y-89.7
X177.2Y-62.0
X177.3Y-87.2
X177.387Y-90.987
X177.4Y-53.05
X177.4Y-97.9
X177.7Y-108.1
X177.717Y-101.409
X177.95Y-94.2
X177.95Y-106.05
X178.083Y-42.131
X178.1Y-117.8
X178.4Y-74.5
X178.4Y-82.0
X178.798Y-145.399
X179.126Y-135.653
X179.552Y-114.239
X179.583Y-37.431
X179.8Y-119.0
X179.85Y-49.15
X180.05Y-83.7
X180.3Y-70.6
X180.5Y-57.65
X180.55Y-73.15
X180.643Y-106.537
X180.7Y-66.45
X180.732Y-101.186
X180.75Y-93.45
X180.8Y-62.25
X181.1Y-103.9
X181.35Y-97.45
X181.55Y-88.25
X181.832Y-107.785
X181.946Y-115.142
X181.95Y-90.9
X182.095Y-54.11
X182.6Y-66.4
X182.6Y-86.7
X183.1Y-110.55
X183.3Y-54.0
X184.04Y-75.663
X184.25Y-88.0
X184.5Y-67.7
X184.507Y-106.091
X184.6Y-135.6
X184.669Y-113.737
X184.753Y-71.056
X184.9Y-146.2
X185.0Y-62.65
X185.45Y-53.95
X185.95Y-58.9
X186.588Y-99.64
X187.123Y-93.071
X187.25Y-47.7
X187.334Y-84.449
X187.4Y-97.1
X187.551Y-90.93
X188.5Y-141.7
X189.917Y-126.28
X190.0Y-110.9
X190.0Y-115.9
X190.2Y-121.7
X190.201Y-146.2
X190.45Y-86.6
X190.6Y-101.05
X190.748Y-105.572
X190.95Y-94.05
X191.089Y-42.193
X191.848Y-130.244
X192.138Y-75.524
X192.181Y-69.489
X192.234Y-135.416
X192.5Y-63.85
X192.589Y-37.493
X192.8Y-59.45
X192.85Y-54.6
X193.377Y-47.7
X193.95Y-83.3
X194.65Y-91.0
X194.8Y-69.45
X194.97Y-77.061
X195.3Y-99.1
X195.304Y-86.499
X195.362Y-94.845
X195.773Y-102.55
X196.0Y-107.4
X196.0Y-127.3
X196.03Y-117.24
X196.2Y-60.7
X196.235Y-114.312
X196.3Y-121.25
X196.35Y-75.7
X196.55Y-111.15
X196.611Y-145.707
X196.724Y-81.876
X197.08Y-66.092
X197.499Y-41.7
X197.526Y-69.719
X198.999Y-37.0
X199.15Y-64.65
X199.25Y-66.7
X199.45Y-58.05
X199.5Y-69.55
X199.652Y-53.064
X199.9Y-87.75
X200.901Y-96.237
X201.7Y-49.9
X202.574Y-90.744
X202.8Y-41.7
X203.118Y-102.55
X203.221Y-116.983
X203.25Y-114.25
X203.323Y-122.068
X203.4Y-126.15
X203.426Y-110.511
X203.477Y-99.674
X203.5Y-108.1
X203.55Y-105.95
X204.09Y-87.425
X204.3Y-37.0
X204.4Y-66.75
X204.459Y-69.92
X204.6Y-73.55
X204.7Y-78.85
X204.706Y-84.467
X204.95Y-140.9
X205.15Y-63.1
X205.75Y-93.1
X206.483Y-51.528
X206.7Y-92.1
X207.0Y-54.95
X208.511Y-93.304
X208.6Y-91.4
X208.65Y-87.0
X208.836Y-59.257
X208.902Y-42.501
X209.617Y-145.769
X209.8Y-50.3
X210.402Y-37.801
X210.7Y-71.75
X210.7Y-107.2
X210.7Y-112.501
X211.0Y-66.4
X211.131Y-131.917
X211.193Y-118.911
X211.501Y-101.098
X211.609Y-79.474
X211.686Y-95.674
X211.686Y-136.909
X212.713Y-140.067
X213.097Y-125.291
X213.828Y-55.99
X214.326Y-42.686
X214.609Y-145.214
X214.687Y-51.439
X215.044Y-91.33
X215.7Y-85.45
X215.826Y-37.986
X217.15Y-61.25
X217.767Y-144.187
X217.958Y-78.796
X218.2Y-69.75
X219.15Y-51.4
X220.1Y-106.8
X220.1Y-112.101
X220.531Y-131.517
X220.593Y-118.511
X220.901Y-100.698
X221.086Y-95.274
X221.086Y-136.509
X221.107Y-88.892
X222.113Y-139.667
X222.296Y-56.938
X222.4Y-43.0
X222.742Y-64.696
X223.1Y-79.4
X225.0Y-77.4
X225.05Y-87.35
X225.3Y-56.8
X225.355Y-68.256
X228.1Y-104.0
X228.1Y-109.301
X228.531Y-128.717
X228.593Y-115.711
X228.63Y-123.427
X228.901Y-97.898
X229.086Y-92.474
X229.086Y-133.709
X230.113Y-136.867
X231.3Y-59.7
X231.3Y-65.001
X231.731Y-84.417
X231.793Y-71.411
X232.101Y-53.598
X232.286Y-48.174
X232.286Y-89.409
X233.313Y-92.567
T2
X145.01Y-112.89
X145.01Y-114.89
X147.01Y-112.89
X147.01Y-114.89
X149.01Y-112.89
X149.01Y-114.89
T3
X142.8Y-41.4
X144.8Y-41.4
X154.75Y-111.35
X154.75Y-113.89
X154.75Y-116.43
X154.75Y-118.97
X154.75Y-121.51
T4
X142.56Y-69.44
X142.56Y-71.98
X142.56Y-74.52
X142.56Y-77.06
X142.56Y-79.6
X142.56Y-82.14
X142.56Y-84.68
X142.56Y-87.22
X142.56Y-89.76
X142.56Y-92.3
X142.56Y-94.84
X142.56Y-97.38
X142.56Y-99.92
X142.56Y-102.46
X142.56Y-105.0
X142.56Y-107.54
X142.56Y-110.08
X142.56Y-112.62
X142.56Y-115.16
X142.56Y-117.7
X142.56Y-120.24
X142.56Y-122.78
X142.56Y-125.32
X142.56Y-127.86
X145.1Y-82.14
X145.1Y-125.32
X147.64Y-82.14
X150.18Y-82.14
X152.72Y-82.14
X155.26Y-82.14
X157.8Y-69.44
X157.8Y-71.98
X157.8Y-74.52
X157.8Y-77.06
X157.8Y-79.6
X157.8Y-82.14
X157.8Y-84.68
X157.8Y-87.22
X157.8Y-89.76
X157.8Y-92.3
X157.8Y-94.84
X157.8Y-97.38
X157.8Y-99.92
X157.8Y-102.46
X157.8Y-105.0
X157.8Y-107.54
X157.8Y-110.08
X157.8Y-112.62
X157.8Y-115.16
X157.8Y-117.7
X157.8Y-120.24
X157.8Y-122.78
X157.8Y-125.32
X157.8Y-127.86
T5
X98.32Y-102.38
X98.32Y-104.92
X98.32Y-107.46
X98.32Y-110.0
X98.32Y-112.54
X98.32Y-115.08
X98.32Y-117.62
X98.32Y-120.16
X98.32Y-122.7
X98.32Y-125.24
X98.32Y-127.78
X98.32Y-130.32
X100.5Y-52.86
X100.5Y-55.4
X100.5Y-57.94
X100.5Y-60.48
X100.5Y-63.02
X100.5Y-65.56
X100.5Y-68.1
X100.5Y-70.64
X100.5Y-73.18
X100.5Y-75.72
X100.5Y-78.26
X100.5Y-80.8
X109.38Y-36.2
X111.0Y-102.38
X111.0Y-104.92
X111.0Y-107.46
X111.0Y-110.0
X111.0Y-112.54
X111.0Y-115.08
X111.0Y-117.62
X111.0Y-120.16
X111.0Y-122.7
X111.0Y-125.24
X111.0Y-127.78
X111.0Y-130.32
X113.18Y-52.86
X113.18Y-55.4
X113.18Y-57.94
X113.18Y-60.48
X113.18Y-63.02
X113.18Y-65.56
X113.18Y-68.1
X113.18Y-70.64
X113.18Y-73.18
X113.18Y-75.72
X113.18Y-78.26
X113.18Y-80.8
X113.78Y-36.18
X152.48Y-35.9
X158.6Y-35.9
X159.48Y-60.98
X159.58Y-57.18
X159.58Y-64.68
X187.12Y-102.38
X187.12Y-104.92
X187.12Y-107.46
X187.12Y-110.0
X187.12Y-112.54
X187.12Y-115.08
X187.12Y-117.62
X187.12Y-120.16
X187.12Y-122.7
X187.12Y-125.24
X187.12Y-127.78
X187.12Y-130.32
X189.2Y-52.8
X189.2Y-55.34
X189.2Y-57.88
X189.2Y-60.42
X189.2Y-62.96
X189.2Y-65.5
X189.2Y-68.04
X189.2Y-70.58
X189.2Y-73.12
X189.2Y-75.66
X189.2Y-78.2
X189.2Y-80.74
X199.8Y-102.38
X199.8Y-104.92
X199.8Y-107.46
X199.8Y-110.0
X199.8Y-112.54
X199.8Y-115.08
X199.8Y-117.62
X199.8Y-120.16
X199.8Y-122.7
X199.8Y-125.24
X199.8Y-127.78
X199.8Y-130.32
X201.88Y-52.8
X201.88Y-55.34
X201.88Y-57.88
X201.88Y-60.42
X201.88Y-62.96
X201.88Y-65.5
X201.88Y-68.04
X201.88Y-70.58
X201.88Y-73.12
X201.88Y-75.66
X201.88Y-78.2
X201.88Y-80.74
T6
X152.68Y-40.88
X157.68Y-40.88
M30
