%TF.GenerationSoftware,KiCad,Pcbnew,9.0.7*%
%TF.CreationDate,2026-01-25T21:28:50-05:00*%
%TF.ProjectId,brushlessDriveTrain,62727573-686c-4657-9373-447269766554,rev?*%
%TF.SameCoordinates,Original*%
%TF.FileFunction,Soldermask,Top*%
%TF.FilePolarity,Negative*%
%FSLAX46Y46*%
G04 Gerber Fmt 4.6, Leading zero omitted, Abs format (unit mm)*
G04 Created by KiCad (PCBNEW 9.0.7) date 2026-01-25 21:28:50*
%MOMM*%
%LPD*%
G01*
G04 APERTURE LIST*
G04 Aperture macros list*
%AMRoundRect*
0 Rectangle with rounded corners*
0 $1 Rounding radius*
0 $2 $3 $4 $5 $6 $7 $8 $9 X,Y pos of 4 corners*
0 Add a 4 corners polygon primitive as box body*
4,1,4,$2,$3,$4,$5,$6,$7,$8,$9,$2,$3,0*
0 Add four circle primitives for the rounded corners*
1,1,$1+$1,$2,$3*
1,1,$1+$1,$4,$5*
1,1,$1+$1,$6,$7*
1,1,$1+$1,$8,$9*
0 Add four rect primitives between the rounded corners*
20,1,$1+$1,$2,$3,$4,$5,0*
20,1,$1+$1,$4,$5,$6,$7,0*
20,1,$1+$1,$6,$7,$8,$9,0*
20,1,$1+$1,$8,$9,$2,$3,0*%
G04 Aperture macros list end*
%ADD10R,1.700000X1.700000*%
%ADD11C,1.700000*%
%ADD12C,4.300000*%
%ADD13RoundRect,0.150000X0.150000X-0.825000X0.150000X0.825000X-0.150000X0.825000X-0.150000X-0.825000X0*%
%ADD14RoundRect,0.250000X-0.475000X0.337500X-0.475000X-0.337500X0.475000X-0.337500X0.475000X0.337500X0*%
%ADD15C,2.000000*%
%ADD16RoundRect,0.250000X-0.337500X-0.475000X0.337500X-0.475000X0.337500X0.475000X-0.337500X0.475000X0*%
%ADD17RoundRect,0.162500X-0.162500X0.837500X-0.162500X-0.837500X0.162500X-0.837500X0.162500X0.837500X0*%
%ADD18RoundRect,0.250000X0.350000X0.450000X-0.350000X0.450000X-0.350000X-0.450000X0.350000X-0.450000X0*%
%ADD19RoundRect,0.250000X0.350000X0.625000X-0.350000X0.625000X-0.350000X-0.625000X0.350000X-0.625000X0*%
%ADD20O,1.200000X1.750000*%
%ADD21C,1.512000*%
%ADD22C,1.462000*%
%ADD23C,1.412000*%
%ADD24RoundRect,0.375000X-0.375000X0.625000X-0.375000X-0.625000X0.375000X-0.625000X0.375000X0.625000X0*%
%ADD25RoundRect,0.500000X-1.400000X0.500000X-1.400000X-0.500000X1.400000X-0.500000X1.400000X0.500000X0*%
%ADD26RoundRect,0.250000X0.250000X0.250000X-0.250000X0.250000X-0.250000X-0.250000X0.250000X-0.250000X0*%
%ADD27RoundRect,0.760000X1.140000X1.140000X-1.140000X1.140000X-1.140000X-1.140000X1.140000X-1.140000X0*%
%ADD28C,4.000000*%
%ADD29RoundRect,0.250000X0.337500X0.475000X-0.337500X0.475000X-0.337500X-0.475000X0.337500X-0.475000X0*%
G04 APERTURE END LIST*
D10*
%TO.C,U4*%
X113180000Y-80800000D03*
D11*
X113180000Y-78260000D03*
X113180000Y-75720000D03*
X113180000Y-73180000D03*
X113180000Y-70640000D03*
X113180000Y-68100000D03*
X113180000Y-65560000D03*
X113180000Y-63020000D03*
X113180000Y-60480000D03*
X113180000Y-57940000D03*
X113180000Y-55400000D03*
X113180000Y-52860000D03*
D10*
X100500000Y-80800000D03*
D11*
X100500000Y-78260000D03*
X100500000Y-75720000D03*
X100500000Y-73180000D03*
X100500000Y-70640000D03*
X100500000Y-68100000D03*
X100500000Y-65560000D03*
X100500000Y-63020000D03*
X100500000Y-60480000D03*
X100500000Y-57940000D03*
X100500000Y-55400000D03*
X100500000Y-52860000D03*
%TD*%
D12*
%TO.C,H4*%
X67900000Y-144800000D03*
%TD*%
D10*
%TO.C,U7*%
X187120000Y-102380000D03*
D11*
X187120000Y-104920000D03*
X187120000Y-107460000D03*
X187120000Y-110000000D03*
X187120000Y-112540000D03*
X187120000Y-115080000D03*
X187120000Y-117620000D03*
X187120000Y-120160000D03*
X187120000Y-122700000D03*
X187120000Y-125240000D03*
X187120000Y-127780000D03*
X187120000Y-130320000D03*
D10*
X199800000Y-102380000D03*
D11*
X199800000Y-104920000D03*
X199800000Y-107460000D03*
X199800000Y-110000000D03*
X199800000Y-112540000D03*
X199800000Y-115080000D03*
X199800000Y-117620000D03*
X199800000Y-120160000D03*
X199800000Y-122700000D03*
X199800000Y-125240000D03*
X199800000Y-127780000D03*
X199800000Y-130320000D03*
%TD*%
D13*
%TO.C,U2*%
X142130000Y-63881250D03*
X143400000Y-63881250D03*
X144670000Y-63881250D03*
X145940000Y-63881250D03*
X145940000Y-58931250D03*
X144670000Y-58931250D03*
X143400000Y-58931250D03*
X142130000Y-58931250D03*
%TD*%
D14*
%TO.C,C6*%
X139800000Y-127862500D03*
X139800000Y-129937500D03*
%TD*%
D15*
%TO.C,TP2*%
X113780000Y-36180000D03*
%TD*%
D16*
%TO.C,C2*%
X137225000Y-53600000D03*
X139300000Y-53600000D03*
%TD*%
D10*
%TO.C,U6*%
X98320000Y-102380000D03*
D11*
X98320000Y-104920000D03*
X98320000Y-107460000D03*
X98320000Y-110000000D03*
X98320000Y-112540000D03*
X98320000Y-115080000D03*
X98320000Y-117620000D03*
X98320000Y-120160000D03*
X98320000Y-122700000D03*
X98320000Y-125240000D03*
X98320000Y-127780000D03*
X98320000Y-130320000D03*
D10*
X111000000Y-102380000D03*
D11*
X111000000Y-104920000D03*
X111000000Y-107460000D03*
X111000000Y-110000000D03*
X111000000Y-112540000D03*
X111000000Y-115080000D03*
X111000000Y-117620000D03*
X111000000Y-120160000D03*
X111000000Y-122700000D03*
X111000000Y-125240000D03*
X111000000Y-127780000D03*
X111000000Y-130320000D03*
%TD*%
D17*
%TO.C,D4*%
X144737500Y-46800000D03*
X142837500Y-46800000D03*
X143787500Y-50220000D03*
%TD*%
D18*
%TO.C,R1*%
X143162500Y-53600000D03*
X141162500Y-53600000D03*
%TD*%
D19*
%TO.C,J1*%
X144800000Y-41400000D03*
D20*
X142800000Y-41400000D03*
%TD*%
D15*
%TO.C,TP4*%
X159580000Y-64680000D03*
%TD*%
%TO.C,TP14*%
X109380000Y-36200000D03*
%TD*%
D14*
%TO.C,C4*%
X150700000Y-50262500D03*
X150700000Y-52337500D03*
%TD*%
D21*
%TO.C,U8*%
X157800000Y-125320000D03*
X157800000Y-122780000D03*
X157800000Y-120240000D03*
X157800000Y-117700000D03*
X157800000Y-92300000D03*
X152720000Y-82140000D03*
X142560000Y-122780000D03*
X157800000Y-115160000D03*
X157800000Y-112620000D03*
D22*
X154750000Y-121510000D03*
D21*
X157800000Y-110080000D03*
X157800000Y-107540000D03*
X157800000Y-105000000D03*
X157800000Y-102460000D03*
X157800000Y-99920000D03*
X157800000Y-97380000D03*
X157800000Y-94840000D03*
X142560000Y-94840000D03*
X142560000Y-97380000D03*
X142560000Y-99920000D03*
X142560000Y-102460000D03*
X142560000Y-105000000D03*
X142560000Y-107540000D03*
X142560000Y-110080000D03*
X142560000Y-112620000D03*
X142560000Y-115160000D03*
X142560000Y-117700000D03*
X142560000Y-120240000D03*
X157800000Y-89760000D03*
X157800000Y-87220000D03*
X157800000Y-84680000D03*
X157800000Y-82140000D03*
X157800000Y-79600000D03*
X157800000Y-77060000D03*
X157800000Y-74520000D03*
X157800000Y-71980000D03*
X157800000Y-69440000D03*
X142560000Y-69440000D03*
X142560000Y-71980000D03*
X142560000Y-74520000D03*
X142560000Y-77060000D03*
X142560000Y-79600000D03*
X142560000Y-82140000D03*
X142560000Y-84680000D03*
X142560000Y-87220000D03*
X142560000Y-89760000D03*
D22*
X154750000Y-116430000D03*
X154750000Y-118970000D03*
D21*
X157800000Y-127860000D03*
X142560000Y-125320000D03*
D23*
X147010000Y-112890000D03*
D21*
X142560000Y-92300000D03*
X150180000Y-82140000D03*
D23*
X147010000Y-114890000D03*
D21*
X145100000Y-82140000D03*
X147640000Y-82140000D03*
D23*
X145010000Y-114890000D03*
X145010000Y-112890000D03*
X149010000Y-112890000D03*
X149010000Y-114890000D03*
D22*
X154750000Y-113890000D03*
X154750000Y-111350000D03*
D21*
X155260000Y-82140000D03*
X142560000Y-127860000D03*
X145100000Y-125320000D03*
%TD*%
D15*
%TO.C,TP13*%
X158600000Y-35900000D03*
%TD*%
D18*
%TO.C,R2*%
X146862500Y-53600000D03*
X144862500Y-53600000D03*
%TD*%
D24*
%TO.C,U3*%
X157780000Y-47830000D03*
X155480000Y-47830000D03*
D25*
X155480000Y-54130000D03*
D24*
X153180000Y-47830000D03*
%TD*%
D26*
%TO.C,D1*%
X150750000Y-48300000D03*
X148250000Y-48300000D03*
%TD*%
D27*
%TO.C,J2*%
X157680000Y-40880000D03*
D28*
X152680000Y-40880000D03*
%TD*%
D12*
%TO.C,He1*%
X232600000Y-38400000D03*
%TD*%
D10*
%TO.C,U5*%
X201880000Y-80740000D03*
D11*
X201880000Y-78200000D03*
X201880000Y-75660000D03*
X201880000Y-73120000D03*
X201880000Y-70580000D03*
X201880000Y-68040000D03*
X201880000Y-65500000D03*
X201880000Y-62960000D03*
X201880000Y-60420000D03*
X201880000Y-57880000D03*
X201880000Y-55340000D03*
X201880000Y-52800000D03*
D10*
X189200000Y-80740000D03*
D11*
X189200000Y-78200000D03*
X189200000Y-75660000D03*
X189200000Y-73120000D03*
X189200000Y-70580000D03*
X189200000Y-68040000D03*
X189200000Y-65500000D03*
X189200000Y-62960000D03*
X189200000Y-60420000D03*
X189200000Y-57880000D03*
X189200000Y-55340000D03*
X189200000Y-52800000D03*
%TD*%
D12*
%TO.C,He2*%
X231900000Y-144800000D03*
%TD*%
D15*
%TO.C,TP3*%
X159580000Y-57180000D03*
%TD*%
D29*
%TO.C,C3*%
X155437500Y-56500000D03*
X153362500Y-56500000D03*
%TD*%
%TO.C,C1*%
X146837500Y-66200000D03*
X144762500Y-66200000D03*
%TD*%
D15*
%TO.C,TP15*%
X159480000Y-60980000D03*
%TD*%
%TO.C,TP1*%
X152480000Y-35900000D03*
%TD*%
D12*
%TO.C,H1*%
X68600000Y-38400000D03*
%TD*%
M02*
