M48
; DRILL file {KiCad 9.0.6} date 2025-11-20T19:10:16-0500
; FORMAT={-:-/ absolute / metric / decimal}
; #@! TF.CreationDate,2025-11-20T19:10:16-05:00
; #@! TF.GenerationSoftware,Kicad,Pcbnew,9.0.6
; #@! TF.FileFunction,Plated,1,2,PTH
FMAT,2
METRIC
; #@! TA.AperFunction,Plated,PTH,ViaDrill
T1C0.300
; #@! TA.AperFunction,Plated,PTH,ComponentDrill
T2C0.750
; #@! TA.AperFunction,Plated,PTH,ComponentDrill
T3C1.000
; #@! TA.AperFunction,Plated,PTH,ComponentDrill
T4C1.100
; #@! TA.AperFunction,Plated,PTH,ComponentDrill
T5C2.700
%
G90
G05
T1
X64.0Y-97.0
X64.0Y-106.0
X64.0Y-113.5
X64.0Y-120.5
X65.5Y-91.0
X65.5Y-93.5
X66.0Y-69.5
X66.0Y-126.0
X66.0Y-132.5
X71.0Y-123.5
X71.5Y-91.0
X71.5Y-95.5
X72.5Y-69.5
X72.7Y-130.8
X74.2Y-132.3
X74.5Y-99.7
X74.82Y-102.892
X75.5Y-105.7
X76.0Y-124.5
X76.0Y-127.0
X77.0Y-135.5
X77.0Y-141.5
X78.1Y-107.8
X78.948Y-102.576
X79.0Y-91.0
X79.5Y-59.5
X79.5Y-64.0
X79.5Y-69.5
X79.5Y-96.5
X81.3Y-129.6
X81.6Y-105.8
X84.1Y-132.2
X85.1Y-99.6
X85.5Y-103.0
X86.1Y-108.2
X87.5Y-91.0
X87.5Y-96.5
X87.5Y-135.5
X87.5Y-141.5
X88.5Y-59.5
X88.5Y-64.0
X88.5Y-69.5
X88.5Y-124.5
X88.5Y-127.0
X88.9Y-105.6
X90.8Y-103.0
X91.6Y-129.7
X92.4Y-104.8
X94.8Y-108.0
X95.5Y-91.5
X95.5Y-96.5
X96.5Y-64.0
X96.5Y-69.5
X96.6Y-59.5
X96.841Y-132.185
X97.5Y-124.5
X97.5Y-127.0
X99.0Y-104.8
X100.0Y-135.5
X100.0Y-141.5
X101.5Y-90.0
X101.5Y-96.0
X102.5Y-84.0
X104.5Y-124.5
X104.5Y-127.0
X105.5Y-61.5
X106.9Y-129.7
X107.0Y-115.5
X107.0Y-120.0
X107.5Y-69.5
X107.5Y-110.0
X108.0Y-77.5
X108.0Y-85.5
X108.0Y-93.5
X108.0Y-105.0
X110.0Y-115.5
X110.0Y-120.0
X110.0Y-124.5
X110.0Y-127.0
X110.0Y-135.5
X110.0Y-141.5
X111.5Y-62.5
X112.8Y-132.2
X114.0Y-89.0
X114.0Y-97.5
X116.0Y-62.5
X118.0Y-67.5
X118.0Y-124.5
X118.0Y-127.0
X118.5Y-92.5
X119.5Y-99.7
X119.7Y-129.6
X120.0Y-135.5
X120.0Y-141.5
X121.5Y-97.5
X121.5Y-119.5
X123.0Y-61.5
X123.0Y-78.0
X123.1Y-132.1
X123.5Y-123.0
X124.5Y-127.0
X125.7Y-105.0
X126.0Y-115.5
X126.3Y-107.5
X126.35Y-110.069
X127.0Y-112.5
X127.5Y-119.5
X129.0Y-67.5
X129.0Y-97.5
X129.5Y-124.5
X129.8Y-89.8
X130.0Y-61.5
X130.0Y-87.4
X130.3Y-92.3
X130.4Y-94.7
X130.5Y-83.0
X132.0Y-115.5
X132.9Y-99.9
X133.0Y-135.5
X133.0Y-141.5
X133.7Y-105.1
X134.4Y-83.4
X134.4Y-87.1
X134.6Y-92.3
X134.9Y-89.8
X134.9Y-107.8
X135.0Y-94.6
X135.0Y-120.0
X135.3Y-97.3
X135.8Y-109.9
X136.5Y-78.5
X137.5Y-129.1
X137.8Y-83.8
X138.1Y-79.8
X138.9Y-78.9
X139.0Y-67.5
X139.2Y-80.0
X140.3Y-69.0
X142.0Y-60.0
X144.9Y-81.8
X144.9Y-82.9
X145.2Y-72.5
X145.2Y-88.3
X145.5Y-98.0
X145.5Y-105.5
X145.5Y-111.5
X145.5Y-118.0
X145.5Y-126.0
X145.5Y-135.5
X145.5Y-140.5
X146.0Y-69.0
X146.0Y-84.5
X146.0Y-92.0
X146.2Y-81.4
X146.6Y-73.9
X148.5Y-61.5
X150.5Y-80.5
X151.0Y-92.0
X151.0Y-98.0
X151.0Y-105.0
X152.5Y-85.0
X152.5Y-118.0
X152.5Y-126.5
X152.5Y-135.5
X152.5Y-140.5
X153.0Y-111.5
X154.5Y-86.5
X155.0Y-69.0
X158.5Y-110.0
X158.5Y-115.0
X158.5Y-131.0
X158.5Y-140.5
X159.2Y-92.0
X159.5Y-95.0
X159.7Y-102.5
X159.7Y-107.7
X160.4Y-105.0
X160.6Y-98.8
X161.0Y-72.5
X161.0Y-78.0
X163.0Y-85.0
X163.8Y-105.0
X163.8Y-107.6
X163.9Y-102.3
X164.0Y-68.5
X164.5Y-72.5
X165.0Y-77.0
X165.3Y-97.9
X166.4Y-125.0
X166.5Y-110.0
X166.5Y-115.0
X166.7Y-128.0
X167.0Y-81.0
X167.0Y-92.0
X168.0Y-131.0
X168.0Y-140.5
X168.5Y-95.0
X168.7Y-88.7
X169.39Y-89.969
X169.5Y-112.5
X170.0Y-62.5
X171.0Y-72.5
X171.0Y-77.0
X171.0Y-85.0
X172.5Y-89.5
X175.5Y-105.5
X175.5Y-110.0
X176.0Y-80.0
X176.0Y-115.0
X177.0Y-72.5
X177.4Y-127.9
X177.5Y-84.5
X178.9Y-125.2
X179.5Y-68.0
X179.6Y-112.4
X181.5Y-74.5
X181.5Y-99.0
X182.5Y-79.0
X183.0Y-131.0
X183.0Y-140.0
X183.5Y-118.0
X185.2Y-120.7
X186.5Y-99.0
X186.5Y-105.5
X186.5Y-110.0
X186.5Y-115.5
X190.5Y-62.5
X190.5Y-141.0
X192.5Y-86.0
X192.5Y-119.0
X192.5Y-128.0
X192.5Y-135.5
X193.0Y-101.0
X193.0Y-108.0
X193.5Y-69.0
X193.5Y-77.5
X193.5Y-94.0
X197.5Y-78.0
X197.5Y-80.5
X197.5Y-119.5
X198.0Y-115.5
X198.5Y-141.0
X199.064Y-59.679
X199.7Y-101.7
X199.9Y-65.2
X200.076Y-106.937
X201.2Y-68.9
X202.3Y-112.7
X202.5Y-75.5
X202.5Y-79.5
X203.5Y-115.5
X203.5Y-120.0
X205.0Y-134.5
X205.0Y-140.5
X207.0Y-60.0
X207.6Y-64.8
X207.6Y-68.8
X207.8Y-101.7
X209.0Y-75.5
X209.0Y-79.5
X209.0Y-115.5
X209.0Y-120.0
X209.151Y-106.121
X211.6Y-112.5
X213.0Y-134.5
X213.0Y-140.5
X213.7Y-65.0
X213.9Y-60.0
X214.9Y-68.7
X217.0Y-115.5
X217.0Y-120.0
X217.5Y-75.5
X217.5Y-79.5
X217.8Y-101.4
X218.6Y-107.2
X220.6Y-112.7
X222.5Y-115.5
X222.5Y-120.0
X222.5Y-134.5
X222.5Y-140.5
X223.0Y-75.5
X223.7Y-64.6
X224.1Y-68.8
X224.4Y-59.7
X226.0Y-80.0
X227.0Y-114.0
X227.2Y-73.8
X229.0Y-112.5
X229.5Y-82.5
X229.5Y-134.5
X229.8Y-103.4
X231.9Y-68.3
X232.5Y-82.5
X233.0Y-112.5
X234.2Y-106.2
X234.5Y-84.0
X234.9Y-77.3
X236.0Y-114.0
T2
X142.7Y-65.5
X144.7Y-65.5
T3
X68.68Y-117.62
X68.68Y-120.16
X68.68Y-122.7
X68.68Y-125.24
X68.68Y-127.78
X68.68Y-130.32
X68.78Y-85.72
X68.78Y-88.26
X68.78Y-90.8
X68.78Y-93.34
X68.78Y-95.88
X68.78Y-98.42
X68.78Y-107.18
X68.78Y-112.18
X68.84Y-80.74
X68.9Y-76.3
X101.18Y-109.1
X101.18Y-111.64
X101.18Y-114.18
X101.18Y-116.72
X101.18Y-119.26
X101.18Y-121.8
X101.18Y-124.34
X101.18Y-126.88
X101.28Y-67.7
X101.28Y-70.24
X101.28Y-72.78
X101.28Y-75.32
X101.28Y-77.86
X101.28Y-80.4
X101.28Y-82.94
X101.28Y-85.48
X109.28Y-60.3
X113.68Y-60.28
X113.86Y-109.1
X113.86Y-111.64
X113.86Y-114.18
X113.86Y-116.72
X113.86Y-119.26
X113.86Y-121.8
X113.86Y-124.34
X113.86Y-126.88
X113.96Y-67.7
X113.96Y-70.24
X113.96Y-72.78
X113.96Y-75.32
X113.96Y-77.86
X113.96Y-80.4
X113.96Y-82.94
X113.96Y-85.48
X152.38Y-60.0
X158.5Y-60.0
X159.38Y-85.08
X159.48Y-81.28
X159.48Y-88.78
X186.1Y-76.68
X186.1Y-79.22
X186.1Y-81.76
X186.1Y-84.3
X186.1Y-86.84
X186.1Y-89.38
X186.1Y-91.92
X186.1Y-94.46
X186.1Y-118.14
X186.1Y-120.68
X186.1Y-123.22
X186.1Y-125.76
X186.1Y-128.3
X186.1Y-130.84
X186.1Y-133.38
X186.1Y-135.92
X198.78Y-76.68
X198.78Y-79.22
X198.78Y-81.76
X198.78Y-84.3
X198.78Y-86.84
X198.78Y-89.38
X198.78Y-91.92
X198.78Y-94.46
X198.78Y-118.14
X198.78Y-120.68
X198.78Y-123.22
X198.78Y-125.76
X198.78Y-128.3
X198.78Y-130.84
X198.78Y-133.38
X198.78Y-135.92
X230.68Y-94.18
X230.78Y-76.08
X230.78Y-78.62
X230.78Y-81.16
X230.78Y-83.7
X230.78Y-86.24
X230.78Y-88.78
X230.78Y-98.78
X230.78Y-124.58
X230.8Y-129.18
X230.88Y-106.16
X230.88Y-108.7
X230.88Y-111.24
X230.88Y-113.78
X230.88Y-116.32
X230.88Y-118.86
T4
X140.96Y-83.36
X140.96Y-85.9
X140.96Y-88.44
X140.96Y-90.98
X140.96Y-93.52
X140.96Y-96.06
X140.96Y-98.6
X140.96Y-101.14
X140.96Y-103.68
X140.96Y-106.22
X140.96Y-108.76
X140.96Y-111.3
X140.96Y-113.84
X140.96Y-116.38
X140.96Y-118.92
X140.96Y-121.46
X140.96Y-124.0
X140.96Y-126.54
X140.96Y-129.08
X140.96Y-131.62
X140.96Y-134.16
X140.96Y-136.7
X140.96Y-139.24
X140.96Y-141.78
X156.2Y-83.36
X156.2Y-85.9
X156.2Y-88.44
X156.2Y-90.98
X156.2Y-93.52
X156.2Y-96.06
X156.2Y-98.6
X156.2Y-101.14
X156.2Y-103.68
X156.2Y-106.22
X156.2Y-108.76
X156.2Y-111.3
X156.2Y-113.84
X156.2Y-116.38
X156.2Y-118.92
X156.2Y-121.46
X156.2Y-124.0
X156.2Y-126.54
X156.2Y-129.08
X156.2Y-131.62
X156.2Y-134.16
X156.2Y-136.7
X156.2Y-139.24
X156.2Y-141.78
T5
X152.58Y-64.98
X157.58Y-64.98
M30
