%TF.GenerationSoftware,KiCad,Pcbnew,9.0.6*%
%TF.CreationDate,2025-11-20T19:10:14-05:00*%
%TF.ProjectId,NEW_mecanumDriveTrain_25-26,4e45575f-6d65-4636-916e-756d44726976,rev?*%
%TF.SameCoordinates,Original*%
%TF.FileFunction,Soldermask,Top*%
%TF.FilePolarity,Negative*%
%FSLAX46Y46*%
G04 Gerber Fmt 4.6, Leading zero omitted, Abs format (unit mm)*
G04 Created by KiCad (PCBNEW 9.0.6) date 2025-11-20 19:10:14*
%MOMM*%
%LPD*%
G01*
G04 APERTURE LIST*
G04 Aperture macros list*
%AMRoundRect*
0 Rectangle with rounded corners*
0 $1 Rounding radius*
0 $2 $3 $4 $5 $6 $7 $8 $9 X,Y pos of 4 corners*
0 Add a 4 corners polygon primitive as box body*
4,1,4,$2,$3,$4,$5,$6,$7,$8,$9,$2,$3,0*
0 Add four circle primitives for the rounded corners*
1,1,$1+$1,$2,$3*
1,1,$1+$1,$4,$5*
1,1,$1+$1,$6,$7*
1,1,$1+$1,$8,$9*
0 Add four rect primitives between the rounded corners*
20,1,$1+$1,$2,$3,$4,$5,0*
20,1,$1+$1,$4,$5,$6,$7,0*
20,1,$1+$1,$6,$7,$8,$9,0*
20,1,$1+$1,$8,$9,$2,$3,0*%
G04 Aperture macros list end*
%ADD10RoundRect,0.250000X0.250000X0.250000X-0.250000X0.250000X-0.250000X-0.250000X0.250000X-0.250000X0*%
%ADD11C,2.000000*%
%ADD12C,4.300000*%
%ADD13RoundRect,0.150000X0.150000X-0.825000X0.150000X0.825000X-0.150000X0.825000X-0.150000X-0.825000X0*%
%ADD14RoundRect,0.250000X-0.337500X-0.475000X0.337500X-0.475000X0.337500X0.475000X-0.337500X0.475000X0*%
%ADD15R,1.600000X1.600000*%
%ADD16C,1.600000*%
%ADD17R,1.700000X1.700000*%
%ADD18C,1.700000*%
%ADD19RoundRect,0.250000X0.350000X0.450000X-0.350000X0.450000X-0.350000X-0.450000X0.350000X-0.450000X0*%
%ADD20RoundRect,0.250000X0.350000X0.625000X-0.350000X0.625000X-0.350000X-0.625000X0.350000X-0.625000X0*%
%ADD21O,1.200000X1.750000*%
%ADD22RoundRect,0.250000X0.475000X-0.337500X0.475000X0.337500X-0.475000X0.337500X-0.475000X-0.337500X0*%
%ADD23RoundRect,0.375000X-0.375000X0.625000X-0.375000X-0.625000X0.375000X-0.625000X0.375000X0.625000X0*%
%ADD24RoundRect,0.500000X-1.400000X0.500000X-1.400000X-0.500000X1.400000X-0.500000X1.400000X0.500000X0*%
%ADD25RoundRect,0.760000X1.140000X1.140000X-1.140000X1.140000X-1.140000X-1.140000X1.140000X-1.140000X0*%
%ADD26C,4.000000*%
G04 APERTURE END LIST*
D10*
%TO.C,D1*%
X150650000Y-72400000D03*
X148150000Y-72400000D03*
%TD*%
D11*
%TO.C,TP8*%
X68780000Y-107180000D03*
%TD*%
D12*
%TO.C,H4*%
X68500000Y-138500000D03*
%TD*%
D13*
%TO.C,U2*%
X141130000Y-79950000D03*
X142400000Y-79950000D03*
X143670000Y-79950000D03*
X144940000Y-79950000D03*
X144940000Y-75000000D03*
X143670000Y-75000000D03*
X142400000Y-75000000D03*
X141130000Y-75000000D03*
%TD*%
D11*
%TO.C,TP2*%
X113680000Y-60280000D03*
%TD*%
D14*
%TO.C,C2*%
X136325000Y-70500000D03*
X138400000Y-70500000D03*
%TD*%
D11*
%TO.C,TP11*%
X230800000Y-129180000D03*
%TD*%
%TO.C,TP12*%
X230780000Y-124580000D03*
%TD*%
D15*
%TO.C,U1*%
X140960000Y-83360000D03*
D16*
X140960000Y-85900000D03*
X140960000Y-88440000D03*
X140960000Y-90980000D03*
X140960000Y-93520000D03*
X140960000Y-96060000D03*
X140960000Y-98600000D03*
X140960000Y-101140000D03*
X140960000Y-103680000D03*
X140960000Y-106220000D03*
X140960000Y-108760000D03*
X140960000Y-111300000D03*
X140960000Y-113840000D03*
X140960000Y-116380000D03*
X140960000Y-118920000D03*
X140960000Y-121460000D03*
X140960000Y-124000000D03*
X140960000Y-126540000D03*
X140960000Y-129080000D03*
X140960000Y-131620000D03*
X140960000Y-134160000D03*
X140960000Y-136700000D03*
X140960000Y-139240000D03*
X140960000Y-141780000D03*
X156200000Y-141780000D03*
X156200000Y-139240000D03*
X156200000Y-136700000D03*
X156200000Y-134160000D03*
X156200000Y-131620000D03*
X156200000Y-129080000D03*
X156200000Y-126540000D03*
X156200000Y-124000000D03*
X156200000Y-121460000D03*
X156200000Y-118920000D03*
X156200000Y-116380000D03*
X156200000Y-113840000D03*
X156200000Y-111300000D03*
X156200000Y-108760000D03*
X156200000Y-106220000D03*
X156200000Y-103680000D03*
X156200000Y-101140000D03*
X156200000Y-98600000D03*
X156200000Y-96060000D03*
X156200000Y-93520000D03*
X156200000Y-90980000D03*
X156200000Y-88440000D03*
X156200000Y-85900000D03*
X156200000Y-83360000D03*
%TD*%
D17*
%TO.C,U7*%
X186100000Y-118140000D03*
D18*
X186100000Y-120680000D03*
X186100000Y-123220000D03*
X186100000Y-125760000D03*
X186100000Y-128300000D03*
X186100000Y-130840000D03*
X186100000Y-133380000D03*
X186100000Y-135920000D03*
X198780000Y-135920000D03*
X198780000Y-133380000D03*
X198780000Y-130840000D03*
X198780000Y-128300000D03*
X198780000Y-125760000D03*
X198780000Y-123220000D03*
X198780000Y-120680000D03*
D17*
X198780000Y-118140000D03*
%TD*%
D19*
%TO.C,R1*%
X142262500Y-70500000D03*
X140262500Y-70500000D03*
%TD*%
D11*
%TO.C,TP6*%
X68900000Y-76300000D03*
%TD*%
D20*
%TO.C,J1*%
X144700000Y-65500000D03*
D21*
X142700000Y-65500000D03*
%TD*%
D17*
%TO.C,J4*%
X68680000Y-117620000D03*
D18*
X68680000Y-120160000D03*
X68680000Y-122700000D03*
X68680000Y-125240000D03*
X68680000Y-127780000D03*
X68680000Y-130320000D03*
%TD*%
D11*
%TO.C,TP4*%
X159480000Y-88780000D03*
%TD*%
%TO.C,TP14*%
X109280000Y-60300000D03*
%TD*%
D22*
%TO.C,C4*%
X150600000Y-76437500D03*
X150600000Y-74362500D03*
%TD*%
D11*
%TO.C,TP10*%
X230780000Y-98780000D03*
%TD*%
%TO.C,TP5*%
X68840000Y-80740000D03*
%TD*%
%TO.C,TP13*%
X158500000Y-60000000D03*
%TD*%
D19*
%TO.C,R2*%
X145962500Y-70500000D03*
X143962500Y-70500000D03*
%TD*%
D23*
%TO.C,U3*%
X157680000Y-71930000D03*
X155380000Y-71930000D03*
D24*
X155380000Y-78230000D03*
D23*
X153080000Y-71930000D03*
%TD*%
D25*
%TO.C,J2*%
X157580000Y-64980000D03*
D26*
X152580000Y-64980000D03*
%TD*%
D12*
%TO.C,He1*%
X232500000Y-62500000D03*
%TD*%
D17*
%TO.C,J6*%
X230880000Y-118860000D03*
D18*
X230880000Y-116320000D03*
X230880000Y-113780000D03*
X230880000Y-111240000D03*
X230880000Y-108700000D03*
X230880000Y-106160000D03*
%TD*%
D12*
%TO.C,He2*%
X232500000Y-138500000D03*
%TD*%
D17*
%TO.C,U6*%
X186100000Y-76680000D03*
D18*
X186100000Y-79220000D03*
X186100000Y-81760000D03*
X186100000Y-84300000D03*
X186100000Y-86840000D03*
X186100000Y-89380000D03*
X186100000Y-91920000D03*
X186100000Y-94460000D03*
X198780000Y-94460000D03*
X198780000Y-91920000D03*
X198780000Y-89380000D03*
X198780000Y-86840000D03*
X198780000Y-84300000D03*
X198780000Y-81760000D03*
X198780000Y-79220000D03*
D17*
X198780000Y-76680000D03*
%TD*%
%TO.C,J5*%
X230780000Y-88780000D03*
D18*
X230780000Y-86240000D03*
X230780000Y-83700000D03*
X230780000Y-81160000D03*
X230780000Y-78620000D03*
X230780000Y-76080000D03*
%TD*%
D11*
%TO.C,TP3*%
X159480000Y-81280000D03*
%TD*%
D17*
%TO.C,U5*%
X113860000Y-126880000D03*
D18*
X113860000Y-124340000D03*
X113860000Y-121800000D03*
X113860000Y-119260000D03*
X113860000Y-116720000D03*
X113860000Y-114180000D03*
X113860000Y-111640000D03*
X113860000Y-109100000D03*
X101180000Y-109100000D03*
X101180000Y-111640000D03*
X101180000Y-114180000D03*
X101180000Y-116720000D03*
X101180000Y-119260000D03*
X101180000Y-121800000D03*
X101180000Y-124340000D03*
D17*
X101180000Y-126880000D03*
%TD*%
D14*
%TO.C,C3*%
X151742500Y-83480000D03*
X153817500Y-83480000D03*
%TD*%
%TO.C,C1*%
X151742500Y-88480000D03*
X153817500Y-88480000D03*
%TD*%
D17*
%TO.C,U4*%
X113960000Y-85480000D03*
D18*
X113960000Y-82940000D03*
X113960000Y-80400000D03*
X113960000Y-77860000D03*
X113960000Y-75320000D03*
X113960000Y-72780000D03*
X113960000Y-70240000D03*
X113960000Y-67700000D03*
X101280000Y-67700000D03*
X101280000Y-70240000D03*
X101280000Y-72780000D03*
X101280000Y-75320000D03*
X101280000Y-77860000D03*
X101280000Y-80400000D03*
X101280000Y-82940000D03*
D17*
X101280000Y-85480000D03*
%TD*%
%TO.C,J3*%
X68780000Y-85720000D03*
D18*
X68780000Y-88260000D03*
X68780000Y-90800000D03*
X68780000Y-93340000D03*
X68780000Y-95880000D03*
X68780000Y-98420000D03*
%TD*%
D11*
%TO.C,TP15*%
X159380000Y-85080000D03*
%TD*%
%TO.C,TP7*%
X68780000Y-112180000D03*
%TD*%
%TO.C,TP9*%
X230680000Y-94180000D03*
%TD*%
%TO.C,TP1*%
X152380000Y-60000000D03*
%TD*%
D12*
%TO.C,H1*%
X68500000Y-62500000D03*
%TD*%
M02*
