%TF.GenerationSoftware,KiCad,Pcbnew,9.0.6*%
%TF.CreationDate,2025-12-09T17:39:39-05:00*%
%TF.ProjectId,knob_board,6b6e6f62-5f62-46f6-9172-642e6b696361,rev?*%
%TF.SameCoordinates,Original*%
%TF.FileFunction,Legend,Bot*%
%TF.FilePolarity,Positive*%
%FSLAX46Y46*%
G04 Gerber Fmt 4.6, Leading zero omitted, Abs format (unit mm)*
G04 Created by KiCad (PCBNEW 9.0.6) date 2025-12-09 17:39:39*
%MOMM*%
%LPD*%
G01*
G04 APERTURE LIST*
%ADD10C,0.300000*%
G04 APERTURE END LIST*
D10*
G36*
X64224937Y-70507383D02*
G01*
X64224937Y-70005281D01*
X63405471Y-69656869D01*
X64224937Y-69306441D01*
X64224937Y-68805347D01*
X62695000Y-68805347D01*
X62695000Y-69178397D01*
X63813693Y-69178397D01*
X62988091Y-69530840D01*
X62988091Y-69780883D01*
X63813693Y-70133326D01*
X62695000Y-70133326D01*
X62695000Y-70507383D01*
X64224937Y-70507383D01*
G37*
G36*
X63488689Y-67369415D02*
G01*
X63598523Y-67397454D01*
X63683969Y-67440302D01*
X63749762Y-67496968D01*
X63799334Y-67568188D01*
X63837925Y-67662552D01*
X63863678Y-67785878D01*
X63873227Y-67945215D01*
X63869502Y-68063990D01*
X63858298Y-68182985D01*
X63839945Y-68301362D01*
X63814609Y-68419657D01*
X63533241Y-68419657D01*
X63574058Y-68329558D01*
X63603583Y-68231162D01*
X63620986Y-68127292D01*
X63627030Y-68011893D01*
X63621430Y-67914766D01*
X63606898Y-67845612D01*
X63586089Y-67797753D01*
X63553887Y-67759803D01*
X63512033Y-67737123D01*
X63457312Y-67729060D01*
X63427728Y-67729060D01*
X63427728Y-67945215D01*
X63420358Y-68099218D01*
X63400504Y-68219208D01*
X63370988Y-68311404D01*
X63333756Y-68381188D01*
X63281343Y-68440828D01*
X63216605Y-68483589D01*
X63137001Y-68510433D01*
X63038558Y-68520040D01*
X62957634Y-68512714D01*
X62887015Y-68491645D01*
X62824723Y-68457300D01*
X62769371Y-68408941D01*
X62724861Y-68350541D01*
X62692689Y-68283938D01*
X62672694Y-68207580D01*
X62665690Y-68119421D01*
X62671439Y-68032330D01*
X62684201Y-67973975D01*
X62911887Y-67973975D01*
X62916746Y-68028013D01*
X62930094Y-68070376D01*
X62950905Y-68103576D01*
X62979757Y-68129171D01*
X63015058Y-68144710D01*
X63058799Y-68150196D01*
X63105710Y-68143464D01*
X63142722Y-68124357D01*
X63172281Y-68092310D01*
X63192213Y-68051715D01*
X63205731Y-67995677D01*
X63210840Y-67919661D01*
X63210840Y-67729060D01*
X63169258Y-67729060D01*
X63098478Y-67737221D01*
X63037955Y-67760745D01*
X62985343Y-67799768D01*
X62944421Y-67850739D01*
X62920190Y-67908087D01*
X62911887Y-67973975D01*
X62684201Y-67973975D01*
X62687646Y-67958221D01*
X62713226Y-67895023D01*
X62749775Y-67837469D01*
X62799705Y-67782247D01*
X62864993Y-67729060D01*
X62695000Y-67729060D01*
X62695000Y-67359124D01*
X63348319Y-67359124D01*
X63488689Y-67369415D01*
G37*
G36*
X64289417Y-66236126D02*
G01*
X63679787Y-66236126D01*
X63742032Y-66290292D01*
X63790264Y-66346036D01*
X63826149Y-66403646D01*
X63851850Y-66466342D01*
X63867723Y-66536096D01*
X63873227Y-66614214D01*
X63862498Y-66716327D01*
X63831258Y-66806853D01*
X63779308Y-66888409D01*
X63704333Y-66962626D01*
X63616864Y-67020628D01*
X63516822Y-67063041D01*
X63401956Y-67089590D01*
X63269459Y-67098913D01*
X63136961Y-67089590D01*
X63022095Y-67063041D01*
X62922053Y-67020628D01*
X62834584Y-66962626D01*
X62759610Y-66888409D01*
X62707659Y-66806853D01*
X62676420Y-66716327D01*
X62665690Y-66614214D01*
X62671158Y-66535393D01*
X62684082Y-66477926D01*
X62929473Y-66477926D01*
X62939621Y-66551300D01*
X62968422Y-66609671D01*
X63016484Y-66656712D01*
X63077805Y-66689100D01*
X63160145Y-66710668D01*
X63269459Y-66718719D01*
X63378773Y-66710665D01*
X63461078Y-66689097D01*
X63522342Y-66656712D01*
X63570460Y-66609664D01*
X63599288Y-66551292D01*
X63609445Y-66477926D01*
X63599258Y-66403888D01*
X63570400Y-66345209D01*
X63522342Y-66298133D01*
X63461078Y-66265748D01*
X63378773Y-66244179D01*
X63269459Y-66236126D01*
X63160145Y-66244177D01*
X63077805Y-66265744D01*
X63016484Y-66298133D01*
X62968481Y-66345202D01*
X62939651Y-66403880D01*
X62929473Y-66477926D01*
X62684082Y-66477926D01*
X62686874Y-66465512D01*
X62712219Y-66403188D01*
X62747871Y-66345948D01*
X62796242Y-66290359D01*
X62859131Y-66236126D01*
X62695000Y-66236126D01*
X62695000Y-65867197D01*
X64289417Y-65867197D01*
X64289417Y-66236126D01*
G37*
G36*
X63384588Y-64376350D02*
G01*
X63481009Y-64396763D01*
X63566473Y-64429510D01*
X63642542Y-64474320D01*
X63710378Y-64531616D01*
X63767912Y-64599363D01*
X63812857Y-64675199D01*
X63845667Y-64760264D01*
X63866100Y-64856098D01*
X63873227Y-64964567D01*
X63865966Y-65084941D01*
X63845316Y-65189762D01*
X63812508Y-65281250D01*
X63768117Y-65361282D01*
X63712027Y-65431315D01*
X63644576Y-65490997D01*
X63568108Y-65537719D01*
X63481334Y-65571944D01*
X63382498Y-65593351D01*
X63269459Y-65600850D01*
X63154179Y-65593154D01*
X63054139Y-65571254D01*
X62967003Y-65536351D01*
X62890862Y-65488822D01*
X62824326Y-65428201D01*
X62769640Y-65357378D01*
X62726015Y-65275430D01*
X62693534Y-65180687D01*
X62672959Y-65071046D01*
X62665690Y-64944050D01*
X62672322Y-64814231D01*
X62692343Y-64683840D01*
X62725127Y-64554543D01*
X62771203Y-64423538D01*
X63052571Y-64423538D01*
X62989695Y-64552261D01*
X62946783Y-64673032D01*
X62920426Y-64794331D01*
X62911887Y-64910253D01*
X62919975Y-65003889D01*
X62942100Y-65076875D01*
X62976367Y-65133644D01*
X63024547Y-65178203D01*
X63087688Y-65209506D01*
X63169808Y-65226884D01*
X63169808Y-65222762D01*
X63398419Y-65222762D01*
X63469286Y-65205265D01*
X63524879Y-65177423D01*
X63568137Y-65139781D01*
X63600166Y-65092335D01*
X63620006Y-65035445D01*
X63627030Y-64966582D01*
X63619669Y-64903673D01*
X63598671Y-64851387D01*
X63564107Y-64807305D01*
X63518839Y-64774012D01*
X63464465Y-64753538D01*
X63398419Y-64746305D01*
X63398419Y-65222762D01*
X63169808Y-65222762D01*
X63169808Y-64369225D01*
X63275321Y-64369225D01*
X63384588Y-64376350D01*
G37*
G36*
X63401956Y-62139697D02*
G01*
X63516822Y-62166245D01*
X63616864Y-62208658D01*
X63704333Y-62266660D01*
X63779308Y-62340877D01*
X63831258Y-62422433D01*
X63862498Y-62512960D01*
X63873227Y-62615073D01*
X63867717Y-62693870D01*
X63851836Y-62764138D01*
X63826149Y-62827198D01*
X63790227Y-62885155D01*
X63741987Y-62941080D01*
X63679787Y-62995267D01*
X64289417Y-62995267D01*
X64289417Y-63362090D01*
X62695000Y-63362090D01*
X62695000Y-62995267D01*
X62859131Y-62995267D01*
X62796930Y-62941080D01*
X62748690Y-62885155D01*
X62712768Y-62827198D01*
X62687081Y-62764138D01*
X62684193Y-62751360D01*
X62929473Y-62751360D01*
X62939682Y-62825464D01*
X62968669Y-62884536D01*
X63017034Y-62932253D01*
X63078764Y-62965256D01*
X63160994Y-62987130D01*
X63269459Y-62995267D01*
X63377924Y-62987128D01*
X63460119Y-62965252D01*
X63521792Y-62932253D01*
X63570213Y-62884529D01*
X63599227Y-62825456D01*
X63609445Y-62751360D01*
X63599258Y-62677322D01*
X63570400Y-62618643D01*
X63522342Y-62571567D01*
X63461078Y-62539182D01*
X63378773Y-62517613D01*
X63269459Y-62509560D01*
X63160145Y-62517611D01*
X63077805Y-62539179D01*
X63016484Y-62571567D01*
X62968481Y-62618636D01*
X62939651Y-62677315D01*
X62929473Y-62751360D01*
X62684193Y-62751360D01*
X62671201Y-62693870D01*
X62665690Y-62615073D01*
X62676420Y-62512960D01*
X62707659Y-62422433D01*
X62759610Y-62340877D01*
X62834584Y-62266660D01*
X62922053Y-62208658D01*
X63022095Y-62166245D01*
X63136961Y-62139697D01*
X63269459Y-62130373D01*
X63401956Y-62139697D01*
G37*
G36*
X63843918Y-62010572D02*
G01*
X63843918Y-61643750D01*
X63064295Y-61335362D01*
X63843918Y-61073046D01*
X63843918Y-60706223D01*
X62587472Y-61188817D01*
X62463366Y-61245000D01*
X62376997Y-61301687D01*
X62319934Y-61358443D01*
X62278891Y-61426812D01*
X62252944Y-61510704D01*
X62243639Y-61614074D01*
X62243639Y-61826199D01*
X62483974Y-61826199D01*
X62483974Y-61711435D01*
X62492580Y-61625618D01*
X62513558Y-61575697D01*
X62551786Y-61539789D01*
X62619528Y-61509569D01*
X62651311Y-61499310D01*
X63843918Y-62010572D01*
G37*
G36*
X63843918Y-60432824D02*
G01*
X63843918Y-60062888D01*
X63445314Y-60062888D01*
X63445314Y-60432824D01*
X63843918Y-60432824D01*
G37*
G36*
X63093604Y-60432824D02*
G01*
X63093604Y-60062888D01*
X62695000Y-60062888D01*
X62695000Y-60432824D01*
X63093604Y-60432824D01*
G37*
G36*
X64224937Y-59087718D02*
G01*
X64224937Y-58691220D01*
X63095710Y-58285380D01*
X64224937Y-57880639D01*
X64224937Y-57484141D01*
X62695000Y-58050724D01*
X62695000Y-58521044D01*
X64224937Y-59087718D01*
G37*
G36*
X63843918Y-57334665D02*
G01*
X63843918Y-56967842D01*
X62695000Y-56967842D01*
X62695000Y-57334665D01*
X63843918Y-57334665D01*
G37*
G36*
X64289417Y-57334665D02*
G01*
X64289417Y-56967842D01*
X63990464Y-56967842D01*
X63990464Y-57334665D01*
X64289417Y-57334665D01*
G37*
G36*
X63397045Y-55461352D02*
G01*
X62695000Y-55461352D01*
X62695000Y-55830190D01*
X62809214Y-55830190D01*
X63232273Y-55830190D01*
X63438169Y-55836876D01*
X63490568Y-55846848D01*
X63521517Y-55859865D01*
X63553598Y-55885237D01*
X63577663Y-55918300D01*
X63592561Y-55957173D01*
X63597721Y-56002381D01*
X63587531Y-56074405D01*
X63558224Y-56133443D01*
X63508695Y-56182724D01*
X63446001Y-56217454D01*
X63365391Y-56240031D01*
X63262131Y-56248303D01*
X62695000Y-56248303D01*
X62695000Y-56615125D01*
X63843918Y-56615125D01*
X63843918Y-56248303D01*
X63679787Y-56248303D01*
X63742229Y-56189665D01*
X63790442Y-56131031D01*
X63826149Y-56072082D01*
X63852083Y-56008454D01*
X63867843Y-55940117D01*
X63873227Y-55866093D01*
X63864738Y-55767871D01*
X63840948Y-55686916D01*
X63803223Y-55619884D01*
X63751319Y-55564392D01*
X63688382Y-55521882D01*
X63610555Y-55489729D01*
X63514713Y-55468892D01*
X63397045Y-55461352D01*
G37*
G36*
X63808747Y-54192999D02*
G01*
X63509794Y-54192999D01*
X63554634Y-54269195D01*
X63584990Y-54343117D01*
X63603298Y-54419613D01*
X63609445Y-54499371D01*
X63603235Y-54575582D01*
X63585741Y-54639466D01*
X63557937Y-54693280D01*
X63519777Y-54738699D01*
X63455140Y-54784699D01*
X63373336Y-54813749D01*
X63269459Y-54824245D01*
X63165580Y-54813751D01*
X63083742Y-54784703D01*
X63019049Y-54738699D01*
X62980931Y-54693286D01*
X62953155Y-54639474D01*
X62935677Y-54575588D01*
X62929473Y-54499371D01*
X62935834Y-54414904D01*
X62954569Y-54335973D01*
X62985763Y-54261605D01*
X63029124Y-54192999D01*
X62730170Y-54192999D01*
X62701903Y-54279945D01*
X62681810Y-54367755D01*
X62669711Y-54456568D01*
X62665690Y-54545442D01*
X62672961Y-54671808D01*
X62693585Y-54781383D01*
X62726219Y-54876524D01*
X62770151Y-54959246D01*
X62825334Y-55031149D01*
X62892469Y-55092896D01*
X62968876Y-55141160D01*
X63055877Y-55176496D01*
X63155316Y-55198608D01*
X63269459Y-55206363D01*
X63383604Y-55198607D01*
X63483033Y-55176494D01*
X63570014Y-55141157D01*
X63646392Y-55092893D01*
X63713492Y-55031149D01*
X63768710Y-54959241D01*
X63812667Y-54876516D01*
X63845318Y-54781375D01*
X63865952Y-54671803D01*
X63873227Y-54545442D01*
X63869185Y-54455828D01*
X63857107Y-54367755D01*
X63837077Y-54280674D01*
X63808747Y-54192999D01*
G37*
G36*
X63384588Y-52737690D02*
G01*
X63481009Y-52758102D01*
X63566473Y-52790849D01*
X63642542Y-52835659D01*
X63710378Y-52892956D01*
X63767912Y-52960703D01*
X63812857Y-53036539D01*
X63845667Y-53121604D01*
X63866100Y-53217438D01*
X63873227Y-53325907D01*
X63865966Y-53446281D01*
X63845316Y-53551101D01*
X63812508Y-53642590D01*
X63768117Y-53722622D01*
X63712027Y-53792655D01*
X63644576Y-53852337D01*
X63568108Y-53899059D01*
X63481334Y-53933284D01*
X63382498Y-53954690D01*
X63269459Y-53962190D01*
X63154179Y-53954493D01*
X63054139Y-53932594D01*
X62967003Y-53897691D01*
X62890862Y-53850162D01*
X62824326Y-53789541D01*
X62769640Y-53718718D01*
X62726015Y-53636770D01*
X62693534Y-53542027D01*
X62672959Y-53432386D01*
X62665690Y-53305390D01*
X62672322Y-53175571D01*
X62692343Y-53045180D01*
X62725127Y-52915883D01*
X62771203Y-52784878D01*
X63052571Y-52784878D01*
X62989695Y-52913600D01*
X62946783Y-53034372D01*
X62920426Y-53155671D01*
X62911887Y-53271593D01*
X62919975Y-53365229D01*
X62942100Y-53438215D01*
X62976367Y-53494984D01*
X63024547Y-53539543D01*
X63087688Y-53570846D01*
X63169808Y-53588224D01*
X63169808Y-53584102D01*
X63398419Y-53584102D01*
X63469286Y-53566605D01*
X63524879Y-53538762D01*
X63568137Y-53501120D01*
X63600166Y-53453674D01*
X63620006Y-53396785D01*
X63627030Y-53327922D01*
X63619669Y-53265013D01*
X63598671Y-53212727D01*
X63564107Y-53168645D01*
X63518839Y-53135351D01*
X63464465Y-53114877D01*
X63398419Y-53107645D01*
X63398419Y-53584102D01*
X63169808Y-53584102D01*
X63169808Y-52730565D01*
X63275321Y-52730565D01*
X63384588Y-52737690D01*
G37*
G36*
X63397045Y-51299454D02*
G01*
X62695000Y-51299454D01*
X62695000Y-51668292D01*
X62809214Y-51668292D01*
X63232273Y-51668292D01*
X63438169Y-51674978D01*
X63490568Y-51684950D01*
X63521517Y-51697967D01*
X63553598Y-51723339D01*
X63577663Y-51756402D01*
X63592561Y-51795275D01*
X63597721Y-51840483D01*
X63587531Y-51912507D01*
X63558224Y-51971545D01*
X63508695Y-52020826D01*
X63446001Y-52055556D01*
X63365391Y-52078133D01*
X63262131Y-52086405D01*
X62695000Y-52086405D01*
X62695000Y-52453227D01*
X63843918Y-52453227D01*
X63843918Y-52086405D01*
X63679787Y-52086405D01*
X63742229Y-52027767D01*
X63790442Y-51969133D01*
X63826149Y-51910184D01*
X63852083Y-51846556D01*
X63867843Y-51778219D01*
X63873227Y-51704195D01*
X63864738Y-51605973D01*
X63840948Y-51525018D01*
X63803223Y-51457986D01*
X63751319Y-51402494D01*
X63688382Y-51359984D01*
X63610555Y-51327831D01*
X63514713Y-51306994D01*
X63397045Y-51299454D01*
G37*
G36*
X64166318Y-50557750D02*
G01*
X63843918Y-50557750D01*
X63843918Y-50179662D01*
X63580136Y-50179662D01*
X63580136Y-50557750D01*
X63094703Y-50557750D01*
X63042328Y-50553320D01*
X63008194Y-50542110D01*
X62986900Y-50526059D01*
X62967410Y-50485277D01*
X62958782Y-50400030D01*
X62958782Y-50211444D01*
X62695000Y-50211444D01*
X62695000Y-50526059D01*
X62702077Y-50637420D01*
X62721075Y-50722424D01*
X62749456Y-50786488D01*
X62785949Y-50833989D01*
X62833554Y-50870352D01*
X62897779Y-50898651D01*
X62983018Y-50917602D01*
X63094703Y-50924664D01*
X63580136Y-50924664D01*
X63580136Y-51107021D01*
X63843918Y-51107021D01*
X63843918Y-50924664D01*
X64166318Y-50924664D01*
X64166318Y-50557750D01*
G37*
G36*
X64224937Y-49208430D02*
G01*
X64224937Y-48813948D01*
X62842644Y-48813948D01*
X62725730Y-48821183D01*
X62627082Y-48841485D01*
X62543843Y-48873293D01*
X62473629Y-48915839D01*
X62414639Y-48969194D01*
X62366976Y-49032226D01*
X62328202Y-49108256D01*
X62298757Y-49199507D01*
X62279759Y-49308699D01*
X62272948Y-49438965D01*
X62272948Y-49518924D01*
X62571901Y-49518924D01*
X62571901Y-49457375D01*
X62580400Y-49378317D01*
X62603728Y-49317797D01*
X62640594Y-49271445D01*
X62690143Y-49238068D01*
X62755878Y-49216419D01*
X62842644Y-49208430D01*
X64224937Y-49208430D01*
G37*
G36*
X63093604Y-48405818D02*
G01*
X63093604Y-48036889D01*
X62695000Y-48036889D01*
X62695000Y-48405818D01*
X63093604Y-48405818D01*
G37*
G36*
X61704937Y-70507383D02*
G01*
X61704937Y-69442729D01*
X61405983Y-69442729D01*
X61405983Y-70112901D01*
X61124616Y-70112901D01*
X61124616Y-69482663D01*
X60825662Y-69482663D01*
X60825662Y-70112901D01*
X60175000Y-70112901D01*
X60175000Y-70507383D01*
X61704937Y-70507383D01*
G37*
G36*
X61323918Y-69090561D02*
G01*
X61323918Y-68723739D01*
X60175000Y-68723739D01*
X60175000Y-69090561D01*
X61323918Y-69090561D01*
G37*
G36*
X61769417Y-69090561D02*
G01*
X61769417Y-68723739D01*
X61470464Y-68723739D01*
X61470464Y-69090561D01*
X61769417Y-69090561D01*
G37*
G36*
X61007379Y-67518492D02*
G01*
X61028444Y-67567088D01*
X61042825Y-67614296D01*
X61054274Y-67710101D01*
X61048038Y-67779636D01*
X61030433Y-67837749D01*
X61002261Y-67886658D01*
X60963141Y-67927904D01*
X60898115Y-67968304D01*
X60812983Y-67994544D01*
X60702015Y-68004200D01*
X60175000Y-68004200D01*
X60175000Y-68371022D01*
X61323918Y-68371022D01*
X61323918Y-68004200D01*
X61136339Y-68004200D01*
X61207549Y-67952530D01*
X61261730Y-67898471D01*
X61301295Y-67841809D01*
X61329446Y-67778675D01*
X61347045Y-67706030D01*
X61353227Y-67621990D01*
X61351578Y-67582056D01*
X61344526Y-67519500D01*
X61007379Y-67518492D01*
G37*
G36*
X61288747Y-66439824D02*
G01*
X61007379Y-66439824D01*
X61051594Y-66557525D01*
X61082117Y-66667336D01*
X61101029Y-66775781D01*
X61107030Y-66874241D01*
X61099359Y-66971461D01*
X61080744Y-67029487D01*
X61059649Y-67058135D01*
X61033333Y-67074555D01*
X61000052Y-67080229D01*
X60961051Y-67070683D01*
X60932183Y-67041852D01*
X60913480Y-66995185D01*
X60897195Y-66904008D01*
X60888036Y-66839436D01*
X60863257Y-66690955D01*
X60834250Y-66584043D01*
X60802843Y-66509740D01*
X60770250Y-66460341D01*
X60726159Y-66419630D01*
X60670513Y-66389447D01*
X60600715Y-66370025D01*
X60513245Y-66362979D01*
X60424263Y-66372089D01*
X60350657Y-66397840D01*
X60289176Y-66439447D01*
X60237831Y-66498259D01*
X60200754Y-66566485D01*
X60171858Y-66653624D01*
X60152714Y-66763826D01*
X60145690Y-66901901D01*
X60150004Y-67016470D01*
X60163276Y-67137107D01*
X60184995Y-67258963D01*
X60216032Y-67386601D01*
X60497400Y-67386601D01*
X60451101Y-67275181D01*
X60418265Y-67161745D01*
X60398490Y-67045609D01*
X60391887Y-66927547D01*
X60400390Y-66827343D01*
X60421379Y-66765614D01*
X60444807Y-66734886D01*
X60473377Y-66717330D01*
X60508849Y-66711300D01*
X60551981Y-66720911D01*
X60581664Y-66748761D01*
X60600613Y-66795978D01*
X60618758Y-66897780D01*
X60626910Y-66962351D01*
X60648612Y-67089594D01*
X60675864Y-67185284D01*
X60707002Y-67255540D01*
X60740941Y-67305635D01*
X60785765Y-67347111D01*
X60841164Y-67377585D01*
X60909414Y-67397011D01*
X60993640Y-67404003D01*
X61083187Y-67395380D01*
X61156140Y-67371227D01*
X61215946Y-67332698D01*
X61264842Y-67278982D01*
X61300225Y-67215790D01*
X61327945Y-67133852D01*
X61346416Y-67028851D01*
X61353227Y-66895765D01*
X61349417Y-66793257D01*
X61337565Y-66682724D01*
X61318159Y-66569042D01*
X61288747Y-66439824D01*
G37*
G36*
X61646318Y-65687129D02*
G01*
X61323918Y-65687129D01*
X61323918Y-65309041D01*
X61060136Y-65309041D01*
X61060136Y-65687129D01*
X60574703Y-65687129D01*
X60522328Y-65682699D01*
X60488194Y-65671489D01*
X60466900Y-65655438D01*
X60447410Y-65614656D01*
X60438782Y-65529409D01*
X60438782Y-65340823D01*
X60175000Y-65340823D01*
X60175000Y-65655438D01*
X60182077Y-65766799D01*
X60201075Y-65851803D01*
X60229456Y-65915867D01*
X60265949Y-65963367D01*
X60313554Y-65999731D01*
X60377779Y-66028030D01*
X60463018Y-66046981D01*
X60574703Y-66054043D01*
X61060136Y-66054043D01*
X61060136Y-66236400D01*
X61323918Y-66236400D01*
X61323918Y-66054043D01*
X61646318Y-66054043D01*
X61646318Y-65687129D01*
G37*
G36*
X60707556Y-63086693D02*
G01*
X60787969Y-63110215D01*
X60857261Y-63148133D01*
X60916033Y-63200363D01*
X60961278Y-63265206D01*
X60993549Y-63344870D01*
X61024147Y-63282531D01*
X61062829Y-63232573D01*
X61109870Y-63193287D01*
X61164330Y-63164826D01*
X61227091Y-63147176D01*
X61300013Y-63140989D01*
X61404119Y-63150981D01*
X61487593Y-63178777D01*
X61554805Y-63222825D01*
X61608583Y-63283962D01*
X61646432Y-63355620D01*
X61676721Y-63452095D01*
X61697263Y-63579644D01*
X61704937Y-63745490D01*
X61704937Y-64337809D01*
X60175000Y-64337809D01*
X60175000Y-63711693D01*
X60444644Y-63711693D01*
X60444644Y-63943326D01*
X60843248Y-63943326D01*
X60843248Y-63725065D01*
X61112892Y-63725065D01*
X61112892Y-63943326D01*
X61435293Y-63943326D01*
X61435293Y-63725065D01*
X61430014Y-63664162D01*
X61415767Y-63618157D01*
X61393985Y-63583648D01*
X61363393Y-63557541D01*
X61324304Y-63541314D01*
X61274092Y-63535471D01*
X61223213Y-63541350D01*
X61183990Y-63557608D01*
X61153650Y-63583648D01*
X61132178Y-63618111D01*
X61118109Y-63664115D01*
X61112892Y-63725065D01*
X60843248Y-63725065D01*
X60843248Y-63711693D01*
X60836813Y-63633066D01*
X60819641Y-63574886D01*
X60793789Y-63532357D01*
X60756905Y-63500293D01*
X60708676Y-63480207D01*
X60645503Y-63472915D01*
X60580935Y-63480303D01*
X60531870Y-63500601D01*
X60494561Y-63532907D01*
X60468398Y-63575740D01*
X60451101Y-63633804D01*
X60444644Y-63711693D01*
X60175000Y-63711693D01*
X60175000Y-63683025D01*
X60183304Y-63526012D01*
X60205883Y-63401576D01*
X60239899Y-63303922D01*
X60283535Y-63228092D01*
X60343427Y-63163823D01*
X60416361Y-63117675D01*
X60505012Y-63088749D01*
X60613446Y-63078432D01*
X60707556Y-63086693D01*
G37*
G36*
X60863615Y-61586049D02*
G01*
X60963048Y-61607187D01*
X61049961Y-61640888D01*
X61126173Y-61686750D01*
X61193034Y-61745141D01*
X61248681Y-61813915D01*
X61292772Y-61892859D01*
X61325406Y-61983470D01*
X61345981Y-62087677D01*
X61353227Y-62207767D01*
X61345982Y-62328280D01*
X61325406Y-62432905D01*
X61292768Y-62523921D01*
X61248674Y-62603257D01*
X61193034Y-62672409D01*
X61126119Y-62731193D01*
X61049876Y-62777334D01*
X60962963Y-62811223D01*
X60863559Y-62832471D01*
X60749459Y-62839929D01*
X60635359Y-62832471D01*
X60535955Y-62811223D01*
X60449041Y-62777334D01*
X60372799Y-62731193D01*
X60305883Y-62672409D01*
X60250243Y-62603257D01*
X60206149Y-62523921D01*
X60173512Y-62432905D01*
X60152935Y-62328280D01*
X60145690Y-62207767D01*
X60409473Y-62207767D01*
X60419781Y-62284662D01*
X60448875Y-62345356D01*
X60497034Y-62393789D01*
X60558788Y-62427345D01*
X60641013Y-62449554D01*
X60749459Y-62457811D01*
X60857905Y-62449554D01*
X60940129Y-62427345D01*
X61001884Y-62393789D01*
X61050043Y-62345356D01*
X61079136Y-62284662D01*
X61089445Y-62207767D01*
X61079186Y-62132301D01*
X61050146Y-62072448D01*
X61001884Y-62024402D01*
X60940166Y-61991100D01*
X60857942Y-61969042D01*
X60749459Y-61960838D01*
X60640975Y-61969042D01*
X60558752Y-61991100D01*
X60497034Y-62024402D01*
X60448772Y-62072448D01*
X60419732Y-62132301D01*
X60409473Y-62207767D01*
X60145690Y-62207767D01*
X60152936Y-62087677D01*
X60173512Y-61983470D01*
X60206146Y-61892859D01*
X60250237Y-61813915D01*
X60305883Y-61745141D01*
X60372744Y-61686750D01*
X60448956Y-61640888D01*
X60535869Y-61607187D01*
X60635302Y-61586049D01*
X60749459Y-61578628D01*
X60863615Y-61586049D01*
G37*
G36*
X60968689Y-60247293D02*
G01*
X61078523Y-60275333D01*
X61163969Y-60318181D01*
X61229762Y-60374847D01*
X61279334Y-60446067D01*
X61317925Y-60540431D01*
X61343678Y-60663756D01*
X61353227Y-60823094D01*
X61349502Y-60941868D01*
X61338298Y-61060864D01*
X61319945Y-61179241D01*
X61294609Y-61297535D01*
X61013241Y-61297535D01*
X61054058Y-61207436D01*
X61083583Y-61109041D01*
X61100986Y-61005170D01*
X61107030Y-60889772D01*
X61101430Y-60792644D01*
X61086898Y-60723491D01*
X61066089Y-60675632D01*
X61033887Y-60637682D01*
X60992033Y-60615001D01*
X60937312Y-60606939D01*
X60907728Y-60606939D01*
X60907728Y-60823094D01*
X60900358Y-60977096D01*
X60880504Y-61097087D01*
X60850988Y-61189283D01*
X60813756Y-61259067D01*
X60761343Y-61318707D01*
X60696605Y-61361467D01*
X60617001Y-61388311D01*
X60518558Y-61397919D01*
X60437634Y-61390593D01*
X60367015Y-61369523D01*
X60304723Y-61335178D01*
X60249371Y-61286819D01*
X60204861Y-61228419D01*
X60172689Y-61161817D01*
X60152694Y-61085459D01*
X60145690Y-60997300D01*
X60151439Y-60910209D01*
X60164201Y-60851853D01*
X60391887Y-60851853D01*
X60396746Y-60905892D01*
X60410094Y-60948255D01*
X60430905Y-60981454D01*
X60459757Y-61007050D01*
X60495058Y-61022588D01*
X60538799Y-61028074D01*
X60585710Y-61021343D01*
X60622722Y-61002235D01*
X60652281Y-60970189D01*
X60672213Y-60929594D01*
X60685731Y-60873556D01*
X60690840Y-60797540D01*
X60690840Y-60606939D01*
X60649258Y-60606939D01*
X60578478Y-60615099D01*
X60517955Y-60638624D01*
X60465343Y-60677647D01*
X60424421Y-60728618D01*
X60400190Y-60785966D01*
X60391887Y-60851853D01*
X60164201Y-60851853D01*
X60167646Y-60836100D01*
X60193226Y-60772902D01*
X60229775Y-60715347D01*
X60279705Y-60660125D01*
X60344993Y-60606939D01*
X60175000Y-60606939D01*
X60175000Y-60237002D01*
X60828319Y-60237002D01*
X60968689Y-60247293D01*
G37*
G36*
X61007379Y-59042288D02*
G01*
X61028444Y-59090884D01*
X61042825Y-59138093D01*
X61054274Y-59233897D01*
X61048038Y-59303432D01*
X61030433Y-59361545D01*
X61002261Y-59410454D01*
X60963141Y-59451700D01*
X60898115Y-59492100D01*
X60812983Y-59518340D01*
X60702015Y-59527996D01*
X60175000Y-59527996D01*
X60175000Y-59894818D01*
X61323918Y-59894818D01*
X61323918Y-59527996D01*
X61136339Y-59527996D01*
X61207549Y-59476326D01*
X61261730Y-59422268D01*
X61301295Y-59365605D01*
X61329446Y-59302472D01*
X61347045Y-59229827D01*
X61353227Y-59145786D01*
X61351578Y-59105853D01*
X61344526Y-59043296D01*
X61007379Y-59042288D01*
G37*
G36*
X61769417Y-58079392D02*
G01*
X61159787Y-58079392D01*
X61222032Y-58133558D01*
X61270264Y-58189302D01*
X61306149Y-58246912D01*
X61331850Y-58309608D01*
X61347723Y-58379362D01*
X61353227Y-58457479D01*
X61342498Y-58559593D01*
X61311258Y-58650119D01*
X61259308Y-58731675D01*
X61184333Y-58805892D01*
X61096864Y-58863894D01*
X60996822Y-58906307D01*
X60881956Y-58932855D01*
X60749459Y-58942179D01*
X60616961Y-58932855D01*
X60502095Y-58906307D01*
X60402053Y-58863894D01*
X60314584Y-58805892D01*
X60239610Y-58731675D01*
X60187659Y-58650119D01*
X60156420Y-58559593D01*
X60145690Y-58457479D01*
X60151158Y-58378659D01*
X60164082Y-58321192D01*
X60409473Y-58321192D01*
X60419621Y-58394566D01*
X60448422Y-58452937D01*
X60496484Y-58499978D01*
X60557805Y-58532366D01*
X60640145Y-58553933D01*
X60749459Y-58561985D01*
X60858773Y-58553931D01*
X60941078Y-58532363D01*
X61002342Y-58499978D01*
X61050460Y-58452929D01*
X61079288Y-58394558D01*
X61089445Y-58321192D01*
X61079258Y-58247154D01*
X61050400Y-58188475D01*
X61002342Y-58141399D01*
X60941078Y-58109014D01*
X60858773Y-58087445D01*
X60749459Y-58079392D01*
X60640145Y-58087443D01*
X60557805Y-58109010D01*
X60496484Y-58141399D01*
X60448481Y-58188468D01*
X60419651Y-58247146D01*
X60409473Y-58321192D01*
X60164082Y-58321192D01*
X60166874Y-58308777D01*
X60192219Y-58246454D01*
X60227871Y-58189214D01*
X60276242Y-58133625D01*
X60339131Y-58079392D01*
X60175000Y-58079392D01*
X60175000Y-57710463D01*
X61769417Y-57710463D01*
X61769417Y-58079392D01*
G37*
G36*
X61288747Y-55700955D02*
G01*
X60989794Y-55700955D01*
X61034634Y-55777151D01*
X61064990Y-55851072D01*
X61083298Y-55927568D01*
X61089445Y-56007327D01*
X61083235Y-56083537D01*
X61065741Y-56147421D01*
X61037937Y-56201235D01*
X60999777Y-56246654D01*
X60935140Y-56292655D01*
X60853336Y-56321704D01*
X60749459Y-56332200D01*
X60645580Y-56321706D01*
X60563742Y-56292658D01*
X60499049Y-56246654D01*
X60460931Y-56201241D01*
X60433155Y-56147430D01*
X60415677Y-56083543D01*
X60409473Y-56007327D01*
X60415834Y-55922860D01*
X60434569Y-55843928D01*
X60465763Y-55769561D01*
X60509124Y-55700955D01*
X60210170Y-55700955D01*
X60181903Y-55787900D01*
X60161810Y-55875710D01*
X60149711Y-55964523D01*
X60145690Y-56053397D01*
X60152961Y-56179763D01*
X60173585Y-56289338D01*
X60206219Y-56384479D01*
X60250151Y-56467202D01*
X60305334Y-56539105D01*
X60372469Y-56600851D01*
X60448876Y-56649115D01*
X60535877Y-56684452D01*
X60635316Y-56706563D01*
X60749459Y-56714318D01*
X60863604Y-56706562D01*
X60963033Y-56684449D01*
X61050014Y-56649112D01*
X61126392Y-56600849D01*
X61193492Y-56539105D01*
X61248710Y-56467197D01*
X61292667Y-56384471D01*
X61325318Y-56289330D01*
X61345952Y-56179758D01*
X61353227Y-56053397D01*
X61349185Y-55963783D01*
X61337107Y-55875710D01*
X61317077Y-55788630D01*
X61288747Y-55700955D01*
G37*
G36*
X60863615Y-54216265D02*
G01*
X60963048Y-54237403D01*
X61049961Y-54271104D01*
X61126173Y-54316966D01*
X61193034Y-54375357D01*
X61248681Y-54444131D01*
X61292772Y-54523076D01*
X61325406Y-54613686D01*
X61345981Y-54717893D01*
X61353227Y-54837984D01*
X61345982Y-54958496D01*
X61325406Y-55063121D01*
X61292768Y-55154138D01*
X61248674Y-55233474D01*
X61193034Y-55302625D01*
X61126119Y-55361409D01*
X61049876Y-55407551D01*
X60962963Y-55441440D01*
X60863559Y-55462687D01*
X60749459Y-55470145D01*
X60635359Y-55462687D01*
X60535955Y-55441440D01*
X60449041Y-55407551D01*
X60372799Y-55361409D01*
X60305883Y-55302625D01*
X60250243Y-55233474D01*
X60206149Y-55154138D01*
X60173512Y-55063121D01*
X60152935Y-54958496D01*
X60145690Y-54837984D01*
X60409473Y-54837984D01*
X60419781Y-54914879D01*
X60448875Y-54975572D01*
X60497034Y-55024005D01*
X60558788Y-55057561D01*
X60641013Y-55079770D01*
X60749459Y-55088027D01*
X60857905Y-55079770D01*
X60940129Y-55057561D01*
X61001884Y-55024005D01*
X61050043Y-54975572D01*
X61079136Y-54914879D01*
X61089445Y-54837984D01*
X61079186Y-54762517D01*
X61050146Y-54702665D01*
X61001884Y-54654618D01*
X60940166Y-54621317D01*
X60857942Y-54599259D01*
X60749459Y-54591054D01*
X60640975Y-54599259D01*
X60558752Y-54621317D01*
X60497034Y-54654618D01*
X60448772Y-54702665D01*
X60419732Y-54762517D01*
X60409473Y-54837984D01*
X60145690Y-54837984D01*
X60152936Y-54717893D01*
X60173512Y-54613686D01*
X60206146Y-54523076D01*
X60250237Y-54444131D01*
X60305883Y-54375357D01*
X60372744Y-54316966D01*
X60448956Y-54271104D01*
X60535869Y-54237403D01*
X60635302Y-54216265D01*
X60749459Y-54208845D01*
X60863615Y-54216265D01*
G37*
G36*
X61136889Y-52878484D02*
G01*
X61203134Y-52827851D01*
X61256316Y-52772774D01*
X61297814Y-52712979D01*
X61328514Y-52647239D01*
X61346966Y-52577424D01*
X61353227Y-52502411D01*
X61344763Y-52404748D01*
X61321011Y-52324008D01*
X61283287Y-52256923D01*
X61231319Y-52201168D01*
X61168351Y-52158452D01*
X61090512Y-52126160D01*
X60994680Y-52105239D01*
X60877045Y-52097670D01*
X60175000Y-52097670D01*
X60175000Y-52466599D01*
X60776112Y-52466599D01*
X60803864Y-52465042D01*
X60845080Y-52464493D01*
X60926739Y-52469445D01*
X60983863Y-52482211D01*
X61022583Y-52500396D01*
X61052580Y-52528312D01*
X61071031Y-52565820D01*
X61077721Y-52616168D01*
X61067898Y-52681205D01*
X61039588Y-52733968D01*
X60991259Y-52777551D01*
X60930783Y-52807344D01*
X60849325Y-52827825D01*
X60741124Y-52836444D01*
X60175000Y-52836444D01*
X60175000Y-53205373D01*
X60776112Y-53205373D01*
X60906611Y-53210541D01*
X60982690Y-53222788D01*
X61022583Y-53238162D01*
X61052249Y-53264431D01*
X61070837Y-53302016D01*
X61077721Y-53355033D01*
X61067829Y-53420720D01*
X61039329Y-53473991D01*
X60990710Y-53517973D01*
X60929923Y-53547909D01*
X60848903Y-53567869D01*
X60742131Y-53575309D01*
X60175000Y-53575309D01*
X60175000Y-53944146D01*
X61323918Y-53944146D01*
X61323918Y-53575309D01*
X61159787Y-53575309D01*
X61220134Y-53526611D01*
X61267940Y-53474942D01*
X61304592Y-53420062D01*
X61331480Y-53360022D01*
X61347707Y-53295965D01*
X61353227Y-53226897D01*
X61346656Y-53149288D01*
X61327594Y-53079784D01*
X61296349Y-53016878D01*
X61253594Y-52961214D01*
X61200850Y-52915288D01*
X61136889Y-52878484D01*
G37*
G36*
X60881956Y-50531811D02*
G01*
X60996822Y-50558360D01*
X61096864Y-50600773D01*
X61184333Y-50658775D01*
X61259308Y-50732992D01*
X61311258Y-50814547D01*
X61342498Y-50905074D01*
X61353227Y-51007187D01*
X61347717Y-51085985D01*
X61331836Y-51156252D01*
X61306149Y-51219312D01*
X61270227Y-51277269D01*
X61221987Y-51333195D01*
X61159787Y-51387382D01*
X61323918Y-51387382D01*
X61323918Y-51754204D01*
X59741224Y-51754204D01*
X59741224Y-51387382D01*
X60339131Y-51387382D01*
X60276930Y-51333195D01*
X60228690Y-51277269D01*
X60192768Y-51219312D01*
X60167081Y-51156252D01*
X60164193Y-51143475D01*
X60409473Y-51143475D01*
X60419682Y-51217578D01*
X60448669Y-51276651D01*
X60497034Y-51324367D01*
X60558764Y-51357370D01*
X60640994Y-51379244D01*
X60749459Y-51387382D01*
X60857924Y-51379242D01*
X60940119Y-51357367D01*
X61001792Y-51324367D01*
X61050213Y-51276643D01*
X61079227Y-51217571D01*
X61089445Y-51143475D01*
X61079258Y-51069437D01*
X61050400Y-51010758D01*
X61002342Y-50963681D01*
X60941078Y-50931297D01*
X60858773Y-50909728D01*
X60749459Y-50901674D01*
X60640145Y-50909726D01*
X60557805Y-50931293D01*
X60496484Y-50963681D01*
X60448481Y-51010751D01*
X60419651Y-51069429D01*
X60409473Y-51143475D01*
X60164193Y-51143475D01*
X60151201Y-51085985D01*
X60145690Y-51007187D01*
X60156420Y-50905074D01*
X60187659Y-50814547D01*
X60239610Y-50732992D01*
X60314584Y-50658775D01*
X60402053Y-50600773D01*
X60502095Y-50558360D01*
X60616961Y-50531811D01*
X60749459Y-50522487D01*
X60881956Y-50531811D01*
G37*
G36*
X61769417Y-50252110D02*
G01*
X61769417Y-49885288D01*
X60175000Y-49885288D01*
X60175000Y-50252110D01*
X61769417Y-50252110D01*
G37*
G36*
X60864588Y-48394075D02*
G01*
X60961009Y-48414488D01*
X61046473Y-48447235D01*
X61122542Y-48492045D01*
X61190378Y-48549341D01*
X61247912Y-48617088D01*
X61292857Y-48692924D01*
X61325667Y-48777989D01*
X61346100Y-48873823D01*
X61353227Y-48982292D01*
X61345966Y-49102666D01*
X61325316Y-49207487D01*
X61292508Y-49298975D01*
X61248117Y-49379007D01*
X61192027Y-49449040D01*
X61124576Y-49508722D01*
X61048108Y-49555444D01*
X60961334Y-49589669D01*
X60862498Y-49611076D01*
X60749459Y-49618575D01*
X60634179Y-49610879D01*
X60534139Y-49588979D01*
X60447003Y-49554076D01*
X60370862Y-49506547D01*
X60304326Y-49445926D01*
X60249640Y-49375103D01*
X60206015Y-49293155D01*
X60173534Y-49198412D01*
X60152959Y-49088771D01*
X60145690Y-48961775D01*
X60152322Y-48831956D01*
X60172343Y-48701565D01*
X60205127Y-48572268D01*
X60251203Y-48441263D01*
X60532571Y-48441263D01*
X60469695Y-48569986D01*
X60426783Y-48690758D01*
X60400426Y-48812056D01*
X60391887Y-48927978D01*
X60399975Y-49021614D01*
X60422100Y-49094600D01*
X60456367Y-49151369D01*
X60504547Y-49195928D01*
X60567688Y-49227231D01*
X60649808Y-49244609D01*
X60649808Y-49240487D01*
X60878419Y-49240487D01*
X60949286Y-49222990D01*
X61004879Y-49195148D01*
X61048137Y-49157506D01*
X61080166Y-49110060D01*
X61100006Y-49053170D01*
X61107030Y-48984307D01*
X61099669Y-48921398D01*
X61078671Y-48869112D01*
X61044107Y-48825030D01*
X60998839Y-48791737D01*
X60944465Y-48771263D01*
X60878419Y-48764030D01*
X60878419Y-49240487D01*
X60649808Y-49240487D01*
X60649808Y-48386950D01*
X60755321Y-48386950D01*
X60864588Y-48394075D01*
G37*
G36*
X61646318Y-47708901D02*
G01*
X61323918Y-47708901D01*
X61323918Y-47330813D01*
X61060136Y-47330813D01*
X61060136Y-47708901D01*
X60574703Y-47708901D01*
X60522328Y-47704472D01*
X60488194Y-47693262D01*
X60466900Y-47677211D01*
X60447410Y-47636428D01*
X60438782Y-47551181D01*
X60438782Y-47362595D01*
X60175000Y-47362595D01*
X60175000Y-47677211D01*
X60182077Y-47788572D01*
X60201075Y-47873575D01*
X60229456Y-47937639D01*
X60265949Y-47985140D01*
X60313554Y-48021503D01*
X60377779Y-48049802D01*
X60463018Y-48068753D01*
X60574703Y-48075815D01*
X61060136Y-48075815D01*
X61060136Y-48258173D01*
X61323918Y-48258173D01*
X61323918Y-48075815D01*
X61646318Y-48075815D01*
X61646318Y-47708901D01*
G37*
G36*
X60864588Y-45967278D02*
G01*
X60961009Y-45987691D01*
X61046473Y-46020438D01*
X61122542Y-46065248D01*
X61190378Y-46122544D01*
X61247912Y-46190291D01*
X61292857Y-46266127D01*
X61325667Y-46351192D01*
X61346100Y-46447027D01*
X61353227Y-46555495D01*
X61345966Y-46675869D01*
X61325316Y-46780690D01*
X61292508Y-46872178D01*
X61248117Y-46952210D01*
X61192027Y-47022243D01*
X61124576Y-47081925D01*
X61048108Y-47128647D01*
X60961334Y-47162872D01*
X60862498Y-47184279D01*
X60749459Y-47191778D01*
X60634179Y-47184082D01*
X60534139Y-47162182D01*
X60447003Y-47127279D01*
X60370862Y-47079750D01*
X60304326Y-47019129D01*
X60249640Y-46948306D01*
X60206015Y-46866358D01*
X60173534Y-46771615D01*
X60152959Y-46661974D01*
X60145690Y-46534979D01*
X60152322Y-46405159D01*
X60172343Y-46274768D01*
X60205127Y-46145471D01*
X60251203Y-46014467D01*
X60532571Y-46014467D01*
X60469695Y-46143189D01*
X60426783Y-46263961D01*
X60400426Y-46385259D01*
X60391887Y-46501181D01*
X60399975Y-46594817D01*
X60422100Y-46667803D01*
X60456367Y-46724572D01*
X60504547Y-46769131D01*
X60567688Y-46800434D01*
X60649808Y-46817812D01*
X60649808Y-46813690D01*
X60878419Y-46813690D01*
X60949286Y-46796193D01*
X61004879Y-46768351D01*
X61048137Y-46730709D01*
X61080166Y-46683263D01*
X61100006Y-46626373D01*
X61107030Y-46557510D01*
X61099669Y-46494601D01*
X61078671Y-46442315D01*
X61044107Y-46398233D01*
X60998839Y-46364940D01*
X60944465Y-46344466D01*
X60878419Y-46337233D01*
X60878419Y-46813690D01*
X60649808Y-46813690D01*
X60649808Y-45960153D01*
X60755321Y-45960153D01*
X60864588Y-45967278D01*
G37*
G36*
X61769417Y-44902001D02*
G01*
X61159787Y-44902001D01*
X61222032Y-44956168D01*
X61270264Y-45011911D01*
X61306149Y-45069521D01*
X61331850Y-45132218D01*
X61347723Y-45201972D01*
X61353227Y-45280089D01*
X61342498Y-45382203D01*
X61311258Y-45472729D01*
X61259308Y-45554285D01*
X61184333Y-45628502D01*
X61096864Y-45686504D01*
X60996822Y-45728917D01*
X60881956Y-45755465D01*
X60749459Y-45764789D01*
X60616961Y-45755465D01*
X60502095Y-45728917D01*
X60402053Y-45686504D01*
X60314584Y-45628502D01*
X60239610Y-45554285D01*
X60187659Y-45472729D01*
X60156420Y-45382203D01*
X60145690Y-45280089D01*
X60151158Y-45201269D01*
X60164082Y-45143802D01*
X60409473Y-45143802D01*
X60419621Y-45217176D01*
X60448422Y-45275546D01*
X60496484Y-45322588D01*
X60557805Y-45354976D01*
X60640145Y-45376543D01*
X60749459Y-45384595D01*
X60858773Y-45376541D01*
X60941078Y-45354973D01*
X61002342Y-45322588D01*
X61050460Y-45275539D01*
X61079288Y-45217168D01*
X61089445Y-45143802D01*
X61079258Y-45069764D01*
X61050400Y-45011085D01*
X61002342Y-44964009D01*
X60941078Y-44931624D01*
X60858773Y-44910055D01*
X60749459Y-44902001D01*
X60640145Y-44910053D01*
X60557805Y-44931620D01*
X60496484Y-44964009D01*
X60448481Y-45011078D01*
X60419651Y-45069756D01*
X60409473Y-45143802D01*
X60164082Y-45143802D01*
X60166874Y-45131387D01*
X60192219Y-45069064D01*
X60227871Y-45011824D01*
X60276242Y-44956235D01*
X60339131Y-44902001D01*
X60175000Y-44902001D01*
X60175000Y-44533073D01*
X61769417Y-44533073D01*
X61769417Y-44902001D01*
G37*
G36*
X61704937Y-44062844D02*
G01*
X61704937Y-43694007D01*
X61118571Y-43694007D01*
X60690840Y-43746214D01*
X60690840Y-44010637D01*
X61118571Y-44062844D01*
X61704937Y-44062844D01*
G37*
G36*
X60538433Y-44062844D02*
G01*
X60538433Y-43694007D01*
X60175000Y-43694007D01*
X60175000Y-44062844D01*
X60538433Y-44062844D01*
G37*
G36*
X61704937Y-43105901D02*
G01*
X61704937Y-42737063D01*
X61118571Y-42737063D01*
X60690840Y-42789270D01*
X60690840Y-43053694D01*
X61118571Y-43105901D01*
X61704937Y-43105901D01*
G37*
G36*
X60538433Y-43105901D02*
G01*
X60538433Y-42737063D01*
X60175000Y-42737063D01*
X60175000Y-43105901D01*
X60538433Y-43105901D01*
G37*
G36*
X61704937Y-42148957D02*
G01*
X61704937Y-41780120D01*
X61118571Y-41780120D01*
X60690840Y-41832327D01*
X60690840Y-42096750D01*
X61118571Y-42148957D01*
X61704937Y-42148957D01*
G37*
G36*
X60538433Y-42148957D02*
G01*
X60538433Y-41780120D01*
X60175000Y-41780120D01*
X60175000Y-42148957D01*
X60538433Y-42148957D01*
G37*
G36*
X59184937Y-70507383D02*
G01*
X59184937Y-70066739D01*
X58135578Y-69510323D01*
X59184937Y-69510323D01*
X59184937Y-69136357D01*
X57655000Y-69136357D01*
X57655000Y-69576910D01*
X58704358Y-70133326D01*
X57655000Y-70133326D01*
X57655000Y-70507383D01*
X59184937Y-70507383D01*
G37*
G36*
X58343615Y-67598819D02*
G01*
X58443048Y-67619957D01*
X58529961Y-67653658D01*
X58606173Y-67699520D01*
X58673034Y-67757911D01*
X58728681Y-67826686D01*
X58772772Y-67905630D01*
X58805406Y-67996240D01*
X58825981Y-68100447D01*
X58833227Y-68220538D01*
X58825982Y-68341050D01*
X58805406Y-68445675D01*
X58772768Y-68536692D01*
X58728674Y-68616028D01*
X58673034Y-68685179D01*
X58606119Y-68743963D01*
X58529876Y-68790105D01*
X58442963Y-68823994D01*
X58343559Y-68845241D01*
X58229459Y-68852699D01*
X58115359Y-68845241D01*
X58015955Y-68823994D01*
X57929041Y-68790105D01*
X57852799Y-68743963D01*
X57785883Y-68685179D01*
X57730243Y-68616028D01*
X57686149Y-68536692D01*
X57653512Y-68445675D01*
X57632935Y-68341050D01*
X57625690Y-68220538D01*
X57889473Y-68220538D01*
X57899781Y-68297433D01*
X57928875Y-68358126D01*
X57977034Y-68406559D01*
X58038788Y-68440115D01*
X58121013Y-68462324D01*
X58229459Y-68470581D01*
X58337905Y-68462324D01*
X58420129Y-68440115D01*
X58481884Y-68406559D01*
X58530043Y-68358126D01*
X58559136Y-68297433D01*
X58569445Y-68220538D01*
X58559186Y-68145072D01*
X58530146Y-68085219D01*
X58481884Y-68037172D01*
X58420166Y-68003871D01*
X58337942Y-67981813D01*
X58229459Y-67973608D01*
X58120975Y-67981813D01*
X58038752Y-68003871D01*
X57977034Y-68037172D01*
X57928772Y-68085219D01*
X57899732Y-68145072D01*
X57889473Y-68220538D01*
X57625690Y-68220538D01*
X57632936Y-68100447D01*
X57653512Y-67996240D01*
X57686146Y-67905630D01*
X57730237Y-67826686D01*
X57785883Y-67757911D01*
X57852744Y-67699520D01*
X57928956Y-67653658D01*
X58015869Y-67619957D01*
X58115302Y-67598819D01*
X58229459Y-67591399D01*
X58343615Y-67598819D01*
G37*
G36*
X58090515Y-65411348D02*
G01*
X58212894Y-65480672D01*
X58288993Y-65540949D01*
X58328076Y-65586405D01*
X58355768Y-65634506D01*
X58373073Y-65685938D01*
X58411283Y-65592191D01*
X58459051Y-65519828D01*
X58516047Y-65465204D01*
X58584192Y-65425584D01*
X58665802Y-65400754D01*
X58764167Y-65391931D01*
X58871841Y-65401842D01*
X58958314Y-65429383D01*
X59027986Y-65472854D01*
X59083820Y-65532798D01*
X59124037Y-65603981D01*
X59155763Y-65697779D01*
X59177046Y-65819642D01*
X59184937Y-65975915D01*
X59184937Y-66578493D01*
X57655000Y-66578493D01*
X57655000Y-66184010D01*
X58235321Y-66184010D01*
X58235321Y-66072269D01*
X58230829Y-66017956D01*
X58510826Y-66017956D01*
X58510826Y-66184010D01*
X58897707Y-66184010D01*
X58897707Y-66017956D01*
X58891643Y-65936037D01*
X58875943Y-65878955D01*
X58853194Y-65840269D01*
X58819694Y-65811856D01*
X58772208Y-65793357D01*
X58705824Y-65786413D01*
X58638663Y-65793354D01*
X58590435Y-65811861D01*
X58556256Y-65840269D01*
X58533004Y-65879037D01*
X58517000Y-65936126D01*
X58510826Y-66017956D01*
X58230829Y-66017956D01*
X58230110Y-66009260D01*
X58215699Y-65958674D01*
X58193189Y-65918030D01*
X58161384Y-65883471D01*
X58110907Y-65845545D01*
X58036018Y-65803816D01*
X57655000Y-65617336D01*
X57655000Y-65197208D01*
X58090515Y-65411348D01*
G37*
G36*
X58344588Y-63839992D02*
G01*
X58441009Y-63860405D01*
X58526473Y-63893152D01*
X58602542Y-63937962D01*
X58670378Y-63995259D01*
X58727912Y-64063006D01*
X58772857Y-64138842D01*
X58805667Y-64223907D01*
X58826100Y-64319741D01*
X58833227Y-64428210D01*
X58825966Y-64548584D01*
X58805316Y-64653404D01*
X58772508Y-64744892D01*
X58728117Y-64824925D01*
X58672027Y-64894958D01*
X58604576Y-64954640D01*
X58528108Y-65001362D01*
X58441334Y-65035587D01*
X58342498Y-65056993D01*
X58229459Y-65064493D01*
X58114179Y-65056796D01*
X58014139Y-65034897D01*
X57927003Y-64999994D01*
X57850862Y-64952465D01*
X57784326Y-64891844D01*
X57729640Y-64821021D01*
X57686015Y-64739073D01*
X57653534Y-64644330D01*
X57632959Y-64534689D01*
X57625690Y-64407693D01*
X57632322Y-64277874D01*
X57652343Y-64147483D01*
X57685127Y-64018185D01*
X57731203Y-63887181D01*
X58012571Y-63887181D01*
X57949695Y-64015903D01*
X57906783Y-64136675D01*
X57880426Y-64257974D01*
X57871887Y-64373896D01*
X57879975Y-64467532D01*
X57902100Y-64540518D01*
X57936367Y-64597287D01*
X57984547Y-64641845D01*
X58047688Y-64673149D01*
X58129808Y-64690526D01*
X58129808Y-64686405D01*
X58358419Y-64686405D01*
X58429286Y-64668908D01*
X58484879Y-64641065D01*
X58528137Y-64603423D01*
X58560166Y-64555977D01*
X58580006Y-64499088D01*
X58587030Y-64430225D01*
X58579669Y-64367316D01*
X58558671Y-64315030D01*
X58524107Y-64270948D01*
X58478839Y-64237654D01*
X58424465Y-64217180D01*
X58358419Y-64209948D01*
X58358419Y-64686405D01*
X58129808Y-64686405D01*
X58129808Y-63832868D01*
X58235321Y-63832868D01*
X58344588Y-63839992D01*
G37*
G36*
X58803918Y-62774716D02*
G01*
X58633925Y-62774716D01*
X58696807Y-62828954D01*
X58745145Y-62884542D01*
X58780745Y-62941778D01*
X58806141Y-63004107D01*
X58821887Y-63073988D01*
X58827365Y-63152804D01*
X58816921Y-63254119D01*
X58786491Y-63344277D01*
X58735913Y-63425776D01*
X58663051Y-63500209D01*
X58577650Y-63558866D01*
X58480481Y-63601555D01*
X58369408Y-63628177D01*
X58241732Y-63637504D01*
X58114628Y-63628206D01*
X58003680Y-63601628D01*
X57906269Y-63558942D01*
X57820321Y-63500209D01*
X57746963Y-63425714D01*
X57696085Y-63344195D01*
X57665495Y-63254060D01*
X57655000Y-63152804D01*
X57660498Y-63073998D01*
X57673500Y-63016516D01*
X57918782Y-63016516D01*
X57928477Y-63091037D01*
X57955715Y-63149522D01*
X58000481Y-63195852D01*
X58058357Y-63227972D01*
X58136450Y-63249330D01*
X58240633Y-63257309D01*
X58341854Y-63249227D01*
X58419708Y-63227314D01*
X58479228Y-63193837D01*
X58525905Y-63146149D01*
X58553807Y-63088152D01*
X58563583Y-63016516D01*
X58553775Y-62944214D01*
X58525843Y-62885939D01*
X58479228Y-62838280D01*
X58419701Y-62804752D01*
X58341847Y-62782809D01*
X58240633Y-62774716D01*
X58140176Y-62782787D01*
X58062614Y-62804710D01*
X58003046Y-62838280D01*
X57956485Y-62885932D01*
X57928582Y-62944207D01*
X57918782Y-63016516D01*
X57673500Y-63016516D01*
X57676304Y-63004117D01*
X57701803Y-62941778D01*
X57737580Y-62884493D01*
X57785880Y-62828902D01*
X57848440Y-62774716D01*
X57770038Y-62774716D01*
X57685313Y-62780912D01*
X57618018Y-62797905D01*
X57564764Y-62824048D01*
X57522925Y-62858797D01*
X57490769Y-62902555D01*
X57466140Y-62959065D01*
X57449927Y-63031347D01*
X57443974Y-63123128D01*
X57450813Y-63215760D01*
X57471543Y-63308600D01*
X57505493Y-63400023D01*
X57555348Y-63497095D01*
X57268119Y-63497095D01*
X57239493Y-63395299D01*
X57219576Y-63295228D01*
X57207679Y-63193761D01*
X57203639Y-63087225D01*
X57210543Y-62950021D01*
X57229903Y-62833460D01*
X57260074Y-62734648D01*
X57299962Y-62651046D01*
X57349085Y-62580543D01*
X57410793Y-62519002D01*
X57482073Y-62470946D01*
X57564301Y-62435710D01*
X57659463Y-62413583D01*
X57770038Y-62405787D01*
X58803918Y-62405787D01*
X58803918Y-62774716D01*
G37*
G36*
X58344588Y-60914940D02*
G01*
X58441009Y-60935353D01*
X58526473Y-60968100D01*
X58602542Y-61012910D01*
X58670378Y-61070206D01*
X58727912Y-61137953D01*
X58772857Y-61213789D01*
X58805667Y-61298855D01*
X58826100Y-61394689D01*
X58833227Y-61503157D01*
X58825966Y-61623531D01*
X58805316Y-61728352D01*
X58772508Y-61819840D01*
X58728117Y-61899873D01*
X58672027Y-61969905D01*
X58604576Y-62029587D01*
X58528108Y-62076309D01*
X58441334Y-62110534D01*
X58342498Y-62131941D01*
X58229459Y-62139440D01*
X58114179Y-62131744D01*
X58014139Y-62109844D01*
X57927003Y-62074942D01*
X57850862Y-62027412D01*
X57784326Y-61966791D01*
X57729640Y-61895968D01*
X57686015Y-61814020D01*
X57653534Y-61719277D01*
X57632959Y-61609637D01*
X57625690Y-61482641D01*
X57632322Y-61352822D01*
X57652343Y-61222431D01*
X57685127Y-61093133D01*
X57731203Y-60962129D01*
X58012571Y-60962129D01*
X57949695Y-61090851D01*
X57906783Y-61211623D01*
X57880426Y-61332922D01*
X57871887Y-61448844D01*
X57879975Y-61542479D01*
X57902100Y-61615465D01*
X57936367Y-61672234D01*
X57984547Y-61716793D01*
X58047688Y-61748097D01*
X58129808Y-61765474D01*
X58129808Y-61761352D01*
X58358419Y-61761352D01*
X58429286Y-61743855D01*
X58484879Y-61716013D01*
X58528137Y-61678371D01*
X58560166Y-61630925D01*
X58580006Y-61574035D01*
X58587030Y-61505172D01*
X58579669Y-61442264D01*
X58558671Y-61389977D01*
X58524107Y-61345895D01*
X58478839Y-61312602D01*
X58424465Y-61292128D01*
X58358419Y-61284896D01*
X58358419Y-61761352D01*
X58129808Y-61761352D01*
X58129808Y-60907815D01*
X58235321Y-60907815D01*
X58344588Y-60914940D01*
G37*
G36*
X58487379Y-59777948D02*
G01*
X58508444Y-59826544D01*
X58522825Y-59873752D01*
X58534274Y-59969556D01*
X58528038Y-60039091D01*
X58510433Y-60097205D01*
X58482261Y-60146113D01*
X58443141Y-60187360D01*
X58378115Y-60227759D01*
X58292983Y-60254000D01*
X58182015Y-60263655D01*
X57655000Y-60263655D01*
X57655000Y-60630478D01*
X58803918Y-60630478D01*
X58803918Y-60263655D01*
X58616339Y-60263655D01*
X58687549Y-60211986D01*
X58741730Y-60157927D01*
X58781295Y-60101264D01*
X58809446Y-60038131D01*
X58827045Y-59965486D01*
X58833227Y-59881446D01*
X58831578Y-59841512D01*
X58824526Y-59778955D01*
X58487379Y-59777948D01*
G37*
G36*
X59126318Y-59195154D02*
G01*
X58803918Y-59195154D01*
X58803918Y-58817066D01*
X58540136Y-58817066D01*
X58540136Y-59195154D01*
X58054703Y-59195154D01*
X58002328Y-59190724D01*
X57968194Y-59179514D01*
X57946900Y-59163463D01*
X57927410Y-59122681D01*
X57918782Y-59037434D01*
X57918782Y-58848848D01*
X57655000Y-58848848D01*
X57655000Y-59163463D01*
X57662077Y-59274824D01*
X57681075Y-59359828D01*
X57709456Y-59423892D01*
X57745949Y-59471393D01*
X57793554Y-59507756D01*
X57857779Y-59536055D01*
X57943018Y-59555006D01*
X58054703Y-59562068D01*
X58540136Y-59562068D01*
X58540136Y-59744426D01*
X58803918Y-59744426D01*
X58803918Y-59562068D01*
X59126318Y-59562068D01*
X59126318Y-59195154D01*
G37*
G36*
X58768747Y-57695442D02*
G01*
X58487379Y-57695442D01*
X58531594Y-57813143D01*
X58562117Y-57922954D01*
X58581029Y-58031398D01*
X58587030Y-58129858D01*
X58579359Y-58227078D01*
X58560744Y-58285105D01*
X58539649Y-58313753D01*
X58513333Y-58330173D01*
X58480052Y-58335846D01*
X58441051Y-58326301D01*
X58412183Y-58297470D01*
X58393480Y-58250803D01*
X58377195Y-58159625D01*
X58368036Y-58095054D01*
X58343257Y-57946572D01*
X58314250Y-57839660D01*
X58282843Y-57765357D01*
X58250250Y-57715958D01*
X58206159Y-57675248D01*
X58150513Y-57645065D01*
X58080715Y-57625642D01*
X57993245Y-57618597D01*
X57904263Y-57627707D01*
X57830657Y-57653458D01*
X57769176Y-57695064D01*
X57717831Y-57753877D01*
X57680754Y-57822103D01*
X57651858Y-57909241D01*
X57632714Y-58019444D01*
X57625690Y-58157519D01*
X57630004Y-58272087D01*
X57643276Y-58392725D01*
X57664995Y-58514581D01*
X57696032Y-58642219D01*
X57977400Y-58642219D01*
X57931101Y-58530798D01*
X57898265Y-58417363D01*
X57878490Y-58301226D01*
X57871887Y-58183164D01*
X57880390Y-58082961D01*
X57901379Y-58021231D01*
X57924807Y-57990504D01*
X57953377Y-57972947D01*
X57988849Y-57966918D01*
X58031981Y-57976529D01*
X58061664Y-58004378D01*
X58080613Y-58051596D01*
X58098758Y-58153397D01*
X58106910Y-58217969D01*
X58128612Y-58345212D01*
X58155864Y-58440902D01*
X58187002Y-58511157D01*
X58220941Y-58561252D01*
X58265765Y-58602729D01*
X58321164Y-58633202D01*
X58389414Y-58652628D01*
X58473640Y-58659621D01*
X58563187Y-58650998D01*
X58636140Y-58626845D01*
X58695946Y-58588315D01*
X58744842Y-58534599D01*
X58780225Y-58471407D01*
X58807945Y-58389469D01*
X58826416Y-58284468D01*
X58833227Y-58151382D01*
X58829417Y-58048875D01*
X58817565Y-57938341D01*
X58798159Y-57824659D01*
X58768747Y-57695442D01*
G37*
M02*
