%TF.GenerationSoftware,KiCad,Pcbnew,9.0.6*%
%TF.CreationDate,2025-12-02T19:40:24-05:00*%
%TF.ProjectId,knob_board,6b6e6f62-5f62-46f6-9172-642e6b696361,rev?*%
%TF.SameCoordinates,Original*%
%TF.FileFunction,Legend,Bot*%
%TF.FilePolarity,Positive*%
%FSLAX46Y46*%
G04 Gerber Fmt 4.6, Leading zero omitted, Abs format (unit mm)*
G04 Created by KiCad (PCBNEW 9.0.6) date 2025-12-02 19:40:24*
%MOMM*%
%LPD*%
G01*
G04 APERTURE LIST*
%ADD10C,0.300000*%
G04 APERTURE END LIST*
D10*
G36*
X64359759Y-69277041D02*
G01*
X62695000Y-69277041D01*
X62695000Y-69659983D01*
X63817906Y-69657052D01*
X62695000Y-69805063D01*
X62695000Y-70077638D01*
X63794459Y-70233893D01*
X62695000Y-70230962D01*
X62695000Y-70613904D01*
X64359759Y-70613904D01*
X64359759Y-70050069D01*
X64004569Y-69997313D01*
X63582242Y-69940893D01*
X64359759Y-69845088D01*
X64359759Y-69277041D01*
G37*
G36*
X63688832Y-68207276D02*
G01*
X63825783Y-68222003D01*
X63893051Y-68245184D01*
X63953801Y-68287188D01*
X64009423Y-68351055D01*
X64048264Y-68426637D01*
X64074412Y-68530051D01*
X64084253Y-68669426D01*
X64076055Y-68785375D01*
X64053378Y-68879542D01*
X64018216Y-68955922D01*
X63969155Y-69024630D01*
X63918560Y-69072399D01*
X63865991Y-69103018D01*
X63807161Y-69121850D01*
X63727398Y-69134777D01*
X63621443Y-69139654D01*
X63527379Y-69139654D01*
X63527379Y-68745446D01*
X63672826Y-68745446D01*
X63775548Y-68742086D01*
X63812044Y-68735646D01*
X63830850Y-68719601D01*
X63838056Y-68685912D01*
X63830247Y-68655740D01*
X63806915Y-68635537D01*
X63766423Y-68625169D01*
X63669712Y-68620150D01*
X63592612Y-68624611D01*
X63558428Y-68634071D01*
X63530465Y-68671931D01*
X63452274Y-68850959D01*
X63397056Y-68979036D01*
X63354661Y-69053201D01*
X63322490Y-69090928D01*
X63281636Y-69115189D01*
X63215356Y-69132669D01*
X63113113Y-69139654D01*
X63001646Y-69139654D01*
X62895012Y-69132134D01*
X62819548Y-69112549D01*
X62767521Y-69084102D01*
X62733101Y-69047971D01*
X62698784Y-68984572D01*
X62678416Y-68917917D01*
X62671552Y-68846746D01*
X62681169Y-68767229D01*
X62708463Y-68702307D01*
X62726819Y-68679684D01*
X62917749Y-68679684D01*
X62925522Y-68713057D01*
X62947241Y-68732165D01*
X62986022Y-68741073D01*
X63081331Y-68745446D01*
X63167363Y-68740901D01*
X63221099Y-68729784D01*
X63250355Y-68714463D01*
X63288394Y-68680737D01*
X63338060Y-68620150D01*
X63064936Y-68620150D01*
X62973032Y-68624012D01*
X62940555Y-68631415D01*
X62924079Y-68647792D01*
X62917749Y-68679684D01*
X62726819Y-68679684D01*
X62752001Y-68648648D01*
X62808664Y-68608884D01*
X62695000Y-68608884D01*
X62695000Y-68200296D01*
X63379918Y-68200296D01*
X63688832Y-68207276D01*
G37*
G36*
X64359759Y-67535437D02*
G01*
X63976816Y-67535437D01*
X64022085Y-67587235D01*
X64056043Y-67647636D01*
X64077035Y-67714609D01*
X64084253Y-67789693D01*
X64078395Y-67854978D01*
X64061540Y-67912068D01*
X64034061Y-67962526D01*
X63997125Y-68006750D01*
X63958535Y-68036934D01*
X63917740Y-68055307D01*
X63840260Y-68069315D01*
X63694533Y-68075457D01*
X63059166Y-68075457D01*
X62918765Y-68069387D01*
X62841087Y-68055307D01*
X62799532Y-68037020D01*
X62760274Y-68007149D01*
X62722752Y-67963625D01*
X62694610Y-67913784D01*
X62677475Y-67858011D01*
X62671552Y-67794822D01*
X62679318Y-67724108D01*
X62702693Y-67656337D01*
X62736673Y-67599092D01*
X62917749Y-67599092D01*
X62924304Y-67627397D01*
X62942662Y-67643880D01*
X62974805Y-67651802D01*
X63049915Y-67655604D01*
X63715141Y-67655604D01*
X63787016Y-67651596D01*
X63816074Y-67643422D01*
X63832040Y-67626531D01*
X63838056Y-67596070D01*
X63831437Y-67565013D01*
X63813510Y-67547710D01*
X63782803Y-67539344D01*
X63715141Y-67535437D01*
X63086734Y-67535437D01*
X62984203Y-67539761D01*
X62945776Y-67548259D01*
X62925179Y-67566629D01*
X62917749Y-67599092D01*
X62736673Y-67599092D01*
X62739926Y-67593612D01*
X62790804Y-67535437D01*
X62695000Y-67535437D01*
X62695000Y-67115583D01*
X64359759Y-67115583D01*
X64359759Y-67535437D01*
G37*
G36*
X63269459Y-66427734D02*
G01*
X63087101Y-66427734D01*
X62994533Y-66432619D01*
X62951912Y-66443121D01*
X62926748Y-66465154D01*
X62917749Y-66503663D01*
X62924562Y-66534728D01*
X62943303Y-66552573D01*
X62977056Y-66561111D01*
X63060356Y-66565304D01*
X63351524Y-66565304D01*
X63580136Y-66565304D01*
X63675573Y-66565304D01*
X63778012Y-66561915D01*
X63813326Y-66555504D01*
X63831073Y-66539461D01*
X63838056Y-66504671D01*
X63830626Y-66477224D01*
X63808747Y-66461073D01*
X63770349Y-66453832D01*
X63675573Y-66450266D01*
X63580136Y-66450266D01*
X63580136Y-66565304D01*
X63351524Y-66565304D01*
X63351524Y-66029405D01*
X63534340Y-66029405D01*
X63666716Y-66035496D01*
X63767109Y-66051693D01*
X63841811Y-66075383D01*
X63909233Y-66112916D01*
X63967626Y-66165518D01*
X64017849Y-66235210D01*
X64053375Y-66313876D01*
X64076100Y-66409023D01*
X64084253Y-66524180D01*
X64077795Y-66618321D01*
X64059189Y-66702313D01*
X64029115Y-66777704D01*
X63986221Y-66845407D01*
X63933615Y-66897769D01*
X63870388Y-66936614D01*
X63799512Y-66961898D01*
X63707122Y-66978860D01*
X63588196Y-66985157D01*
X63192156Y-66985157D01*
X63049394Y-66978870D01*
X62960614Y-66963542D01*
X62884607Y-66933453D01*
X62814251Y-66885598D01*
X62774359Y-66844672D01*
X62739438Y-66792835D01*
X62709654Y-66728244D01*
X62681563Y-66622471D01*
X62671552Y-66495512D01*
X62676362Y-66405307D01*
X62689687Y-66330751D01*
X62710204Y-66269373D01*
X62740465Y-66212439D01*
X62778978Y-66162987D01*
X62826250Y-66120263D01*
X62904437Y-66070517D01*
X62971696Y-66045433D01*
X63047028Y-66034044D01*
X63166144Y-66029405D01*
X63269459Y-66029405D01*
X63269459Y-66427734D01*
G37*
G36*
X63886508Y-64577686D02*
G01*
X63932213Y-64590443D01*
X63981762Y-64617620D01*
X64024294Y-64657438D01*
X64057325Y-64714065D01*
X64077134Y-64780725D01*
X64084253Y-64862901D01*
X64076705Y-64935151D01*
X64054486Y-65001020D01*
X64018638Y-65060169D01*
X63970222Y-65111021D01*
X64359759Y-65111021D01*
X64359759Y-65530783D01*
X62695000Y-65530783D01*
X62695000Y-65138315D01*
X62795841Y-65112578D01*
X62742467Y-65059375D01*
X62736612Y-65050388D01*
X62917749Y-65050388D01*
X62925373Y-65080882D01*
X62947241Y-65098748D01*
X62986503Y-65106945D01*
X63085727Y-65111021D01*
X63671086Y-65111021D01*
X63773642Y-65107344D01*
X63811037Y-65100213D01*
X63830887Y-65083832D01*
X63838056Y-65053502D01*
X63830077Y-65022201D01*
X63807007Y-65003676D01*
X63766830Y-64995040D01*
X63671086Y-64990853D01*
X63099008Y-64990853D01*
X62989768Y-64994672D01*
X62948249Y-65002211D01*
X62925657Y-65019447D01*
X62917749Y-65050388D01*
X62736612Y-65050388D01*
X62703792Y-65000013D01*
X62679670Y-64934150D01*
X62671552Y-64862901D01*
X62677845Y-64796418D01*
X62696027Y-64737971D01*
X62725866Y-64685947D01*
X62765713Y-64640882D01*
X62808196Y-64609937D01*
X62854002Y-64591150D01*
X62937313Y-64576943D01*
X63077575Y-64571000D01*
X63689495Y-64571000D01*
X63886508Y-64577686D01*
G37*
G36*
X64060806Y-63567437D02*
G01*
X63073545Y-63686688D01*
X62856576Y-63714957D01*
X62752061Y-63733400D01*
X62672027Y-63759661D01*
X62610461Y-63797056D01*
X62562616Y-63849024D01*
X62528029Y-63920612D01*
X62509481Y-64011400D01*
X62501559Y-64172213D01*
X62501559Y-64426195D01*
X62724309Y-64426195D01*
X62727423Y-64336229D01*
X62733651Y-64300990D01*
X62748233Y-64281379D01*
X62774775Y-64274520D01*
X62917016Y-64300074D01*
X64060806Y-64527219D01*
X64060806Y-64145010D01*
X63133080Y-64012386D01*
X64060806Y-63949555D01*
X64060806Y-63567437D01*
G37*
G36*
X63779438Y-63181289D02*
G01*
X63433590Y-63181289D01*
X63433590Y-63499659D01*
X63779438Y-63499659D01*
X63779438Y-63181289D01*
G37*
G36*
X63040847Y-63181289D02*
G01*
X62695000Y-63181289D01*
X62695000Y-63499659D01*
X63040847Y-63499659D01*
X63040847Y-63181289D01*
G37*
G36*
X64359759Y-61663625D02*
G01*
X62695000Y-61883718D01*
X62695000Y-62543632D01*
X64359759Y-62793401D01*
X64359759Y-62332423D01*
X63697833Y-62262901D01*
X63192064Y-62222330D01*
X63662077Y-62188868D01*
X64048441Y-62154553D01*
X64359759Y-62124603D01*
X64359759Y-61663625D01*
G37*
G36*
X64359759Y-61175628D02*
G01*
X64137009Y-61175628D01*
X64137009Y-61607754D01*
X64359759Y-61607754D01*
X64359759Y-61175628D01*
G37*
G36*
X64060806Y-61175628D02*
G01*
X62695000Y-61175628D01*
X62695000Y-61607754D01*
X64060806Y-61607754D01*
X64060806Y-61175628D01*
G37*
G36*
X64060806Y-60606114D02*
G01*
X63944851Y-60612892D01*
X64002697Y-60566907D01*
X64046884Y-60507745D01*
X64074615Y-60438158D01*
X64084253Y-60356162D01*
X64078103Y-60286091D01*
X64060846Y-60228238D01*
X64033420Y-60180216D01*
X63996040Y-60139468D01*
X63953779Y-60110508D01*
X63905742Y-60092197D01*
X63816124Y-60078480D01*
X63650203Y-60072505D01*
X62695000Y-60072505D01*
X62695000Y-60492267D01*
X63639212Y-60492267D01*
X63765836Y-60495360D01*
X63808564Y-60501151D01*
X63830108Y-60516787D01*
X63838056Y-60549786D01*
X63829111Y-60584655D01*
X63803893Y-60602725D01*
X63755472Y-60609807D01*
X63616680Y-60613533D01*
X62695000Y-60613533D01*
X62695000Y-61033295D01*
X64060806Y-61033295D01*
X64060806Y-60606114D01*
G37*
G36*
X63539103Y-59014811D02*
G01*
X63539103Y-59411034D01*
X63699754Y-59411034D01*
X63774807Y-59415090D01*
X63809754Y-59423857D01*
X63830800Y-59441673D01*
X63838056Y-59470660D01*
X63831550Y-59499817D01*
X63813601Y-59516455D01*
X63781225Y-59524308D01*
X63700761Y-59528179D01*
X63060173Y-59528179D01*
X62993141Y-59522972D01*
X62952920Y-59510319D01*
X62926176Y-59487812D01*
X62917749Y-59458387D01*
X62927022Y-59424741D01*
X62954752Y-59403982D01*
X63000330Y-59394147D01*
X63097542Y-59389602D01*
X63263597Y-59389602D01*
X63263597Y-59014811D01*
X63107643Y-59018789D01*
X63014744Y-59026626D01*
X62933894Y-59048323D01*
X62846033Y-59095778D01*
X62792941Y-59138739D01*
X62749671Y-59189219D01*
X62715516Y-59248002D01*
X62692021Y-59312142D01*
X62676946Y-59388675D01*
X62671552Y-59479911D01*
X62679224Y-59596257D01*
X62700100Y-59687736D01*
X62731819Y-59759172D01*
X62777831Y-59821725D01*
X62833744Y-59869973D01*
X62900805Y-59905259D01*
X62974818Y-59927218D01*
X63075227Y-59942328D01*
X63208551Y-59948032D01*
X63594332Y-59948032D01*
X63710794Y-59943257D01*
X63795948Y-59930776D01*
X63856466Y-59912953D01*
X63910489Y-59882912D01*
X63963063Y-59834461D01*
X64014735Y-59763293D01*
X64052390Y-59684195D01*
X64075952Y-59592334D01*
X64084253Y-59485040D01*
X64076008Y-59378411D01*
X64052537Y-59286501D01*
X64014918Y-59206786D01*
X63962795Y-59136211D01*
X63904805Y-59085931D01*
X63840163Y-59053005D01*
X63768459Y-59033467D01*
X63670296Y-59019937D01*
X63539103Y-59014811D01*
G37*
G36*
X63269459Y-58353066D02*
G01*
X63087101Y-58353066D01*
X62994533Y-58357950D01*
X62951912Y-58368453D01*
X62926748Y-58390485D01*
X62917749Y-58428995D01*
X62924562Y-58460059D01*
X62943303Y-58477904D01*
X62977056Y-58486443D01*
X63060356Y-58490635D01*
X63351524Y-58490635D01*
X63580136Y-58490635D01*
X63675573Y-58490635D01*
X63778012Y-58487246D01*
X63813326Y-58480835D01*
X63831073Y-58464792D01*
X63838056Y-58430002D01*
X63830626Y-58402555D01*
X63808747Y-58386405D01*
X63770349Y-58379164D01*
X63675573Y-58375597D01*
X63580136Y-58375597D01*
X63580136Y-58490635D01*
X63351524Y-58490635D01*
X63351524Y-57954736D01*
X63534340Y-57954736D01*
X63666716Y-57960828D01*
X63767109Y-57977025D01*
X63841811Y-58000715D01*
X63909233Y-58038247D01*
X63967626Y-58090850D01*
X64017849Y-58160541D01*
X64053375Y-58239208D01*
X64076100Y-58334354D01*
X64084253Y-58449511D01*
X64077795Y-58543652D01*
X64059189Y-58627644D01*
X64029115Y-58703035D01*
X63986221Y-58770739D01*
X63933615Y-58823100D01*
X63870388Y-58861946D01*
X63799512Y-58887230D01*
X63707122Y-58904191D01*
X63588196Y-58910489D01*
X63192156Y-58910489D01*
X63049394Y-58904202D01*
X62960614Y-58888873D01*
X62884607Y-58858785D01*
X62814251Y-58810929D01*
X62774359Y-58770004D01*
X62739438Y-58718166D01*
X62709654Y-58653576D01*
X62681563Y-58547803D01*
X62671552Y-58420843D01*
X62676362Y-58330638D01*
X62689687Y-58256082D01*
X62710204Y-58194705D01*
X62740465Y-58137771D01*
X62778978Y-58088318D01*
X62826250Y-58045594D01*
X62904437Y-57995848D01*
X62971696Y-57970765D01*
X63047028Y-57959376D01*
X63166144Y-57954736D01*
X63269459Y-57954736D01*
X63269459Y-58353066D01*
G37*
G36*
X64060806Y-57398229D02*
G01*
X63944851Y-57405006D01*
X64002697Y-57359021D01*
X64046884Y-57299860D01*
X64074615Y-57230273D01*
X64084253Y-57148277D01*
X64078103Y-57078205D01*
X64060846Y-57020353D01*
X64033420Y-56972330D01*
X63996040Y-56931582D01*
X63953779Y-56902622D01*
X63905742Y-56884311D01*
X63816124Y-56870595D01*
X63650203Y-56864619D01*
X62695000Y-56864619D01*
X62695000Y-57284381D01*
X63639212Y-57284381D01*
X63765836Y-57287474D01*
X63808564Y-57293265D01*
X63830108Y-57308902D01*
X63838056Y-57341900D01*
X63829111Y-57376770D01*
X63803893Y-57394840D01*
X63755472Y-57401921D01*
X63616680Y-57405648D01*
X62695000Y-57405648D01*
X62695000Y-57825409D01*
X64060806Y-57825409D01*
X64060806Y-57398229D01*
G37*
G36*
X64242522Y-56285489D02*
G01*
X64025635Y-56285489D01*
X64025635Y-56173748D01*
X63802885Y-56173748D01*
X63802885Y-56285489D01*
X63079499Y-56285489D01*
X62960499Y-56280526D01*
X62932129Y-56272483D01*
X62923044Y-56248325D01*
X62917749Y-56156345D01*
X62695000Y-56156345D01*
X62695000Y-56326338D01*
X62698583Y-56457936D01*
X62706815Y-56529030D01*
X62726340Y-56586332D01*
X62761586Y-56636832D01*
X62808415Y-56675161D01*
X62859863Y-56694993D01*
X62933165Y-56702579D01*
X63117601Y-56706350D01*
X63802885Y-56706350D01*
X63802885Y-56795468D01*
X64025635Y-56795468D01*
X64025635Y-56706350D01*
X64242522Y-56706350D01*
X64242522Y-56285489D01*
G37*
G36*
X64359759Y-55173756D02*
G01*
X63248118Y-55173756D01*
X62927366Y-55178977D01*
X62859103Y-55193336D01*
X62797581Y-55226147D01*
X62748716Y-55275230D01*
X62717256Y-55339994D01*
X62701540Y-55420934D01*
X62695000Y-55555783D01*
X62695000Y-55774960D01*
X62991388Y-55774960D01*
X62988091Y-55715701D01*
X62993956Y-55674127D01*
X63009890Y-55644809D01*
X63034423Y-55624372D01*
X63063837Y-55615042D01*
X63190049Y-55611012D01*
X64359759Y-55611012D01*
X64359759Y-55173756D01*
G37*
G36*
X63040847Y-54743462D02*
G01*
X62695000Y-54743462D01*
X62695000Y-55061832D01*
X63040847Y-55061832D01*
X63040847Y-54743462D01*
G37*
G36*
X61839759Y-70613904D02*
G01*
X61839759Y-69877512D01*
X61499773Y-69877512D01*
X61499773Y-70176648D01*
X61194958Y-70176648D01*
X61194958Y-69910301D01*
X60872557Y-69910301D01*
X60872557Y-70176648D01*
X60175000Y-70176648D01*
X60175000Y-70613904D01*
X61839759Y-70613904D01*
G37*
G36*
X61839759Y-69358740D02*
G01*
X61617009Y-69358740D01*
X61617009Y-69790867D01*
X61839759Y-69790867D01*
X61839759Y-69358740D01*
G37*
G36*
X61540806Y-69358740D02*
G01*
X60175000Y-69358740D01*
X60175000Y-69790867D01*
X61540806Y-69790867D01*
X61540806Y-69358740D01*
G37*
G36*
X61540806Y-68796371D02*
G01*
X61355334Y-68815971D01*
X61431276Y-68774190D01*
X61487457Y-68727308D01*
X61527242Y-68675320D01*
X61552704Y-68617348D01*
X61564436Y-68551731D01*
X61077721Y-68551731D01*
X61068822Y-68658913D01*
X61047588Y-68719984D01*
X61011028Y-68762701D01*
X60963599Y-68784556D01*
X60892273Y-68792632D01*
X60713005Y-68796646D01*
X60175000Y-68796646D01*
X60175000Y-69216407D01*
X61540806Y-69216407D01*
X61540806Y-68796371D01*
G37*
G36*
X61101168Y-67614938D02*
G01*
X61101168Y-67987622D01*
X61177372Y-67987622D01*
X61261946Y-67991064D01*
X61294242Y-67997880D01*
X61311286Y-68014183D01*
X61318056Y-68049262D01*
X61312258Y-68079057D01*
X61295983Y-68099271D01*
X61270328Y-68111217D01*
X61228938Y-68115941D01*
X61171112Y-68113393D01*
X61138354Y-68107423D01*
X61110973Y-68092346D01*
X61075431Y-68055857D01*
X61039128Y-68000392D01*
X60974681Y-67877804D01*
X60909489Y-67758977D01*
X60854494Y-67683632D01*
X60808077Y-67640034D01*
X60752626Y-67610277D01*
X60678433Y-67590518D01*
X60580198Y-67583155D01*
X60468975Y-67589009D01*
X60387188Y-67604390D01*
X60328415Y-67626661D01*
X60277047Y-67661163D01*
X60233504Y-67708777D01*
X60197348Y-67771741D01*
X60172742Y-67840994D01*
X60157100Y-67921895D01*
X60151552Y-68016473D01*
X60157568Y-68121278D01*
X60174529Y-68211004D01*
X60201195Y-68287857D01*
X60240319Y-68358241D01*
X60285196Y-68408847D01*
X60336017Y-68443196D01*
X60394723Y-68464776D01*
X60477937Y-68479832D01*
X60592746Y-68485602D01*
X60661531Y-68485602D01*
X60661531Y-68112918D01*
X60571680Y-68112918D01*
X60471237Y-68108566D01*
X60429623Y-68099637D01*
X60406001Y-68080292D01*
X60397749Y-68047156D01*
X60403682Y-68009138D01*
X60418723Y-67987896D01*
X60446358Y-67976521D01*
X60509398Y-67971227D01*
X60595812Y-67978358D01*
X60629200Y-67992934D01*
X60662124Y-68039585D01*
X60773913Y-68233086D01*
X60849821Y-68352307D01*
X60911064Y-68421726D01*
X60960759Y-68456568D01*
X61018212Y-68478348D01*
X61084207Y-68492048D01*
X61160245Y-68496868D01*
X61269456Y-68490914D01*
X61347494Y-68475456D01*
X61401679Y-68453362D01*
X61448209Y-68419116D01*
X61488254Y-68370989D01*
X61521938Y-68306175D01*
X61544834Y-68235837D01*
X61559214Y-68156145D01*
X61564253Y-68065657D01*
X61554974Y-67935554D01*
X61529815Y-67834481D01*
X61488147Y-67747521D01*
X61438681Y-67687936D01*
X61381132Y-67645091D01*
X61333535Y-67625837D01*
X61278343Y-67618180D01*
X61182684Y-67614938D01*
X61101168Y-67614938D01*
G37*
G36*
X61722522Y-67036082D02*
G01*
X61505635Y-67036082D01*
X61505635Y-66924341D01*
X61282885Y-66924341D01*
X61282885Y-67036082D01*
X60559499Y-67036082D01*
X60440499Y-67031119D01*
X60412129Y-67023076D01*
X60403044Y-66998919D01*
X60397749Y-66906939D01*
X60175000Y-66906939D01*
X60175000Y-67076932D01*
X60178583Y-67208529D01*
X60186815Y-67279623D01*
X60206340Y-67336925D01*
X60241586Y-67387425D01*
X60288415Y-67425754D01*
X60339863Y-67445586D01*
X60413165Y-67453172D01*
X60597601Y-67456943D01*
X61282885Y-67456943D01*
X61282885Y-67546061D01*
X61505635Y-67546061D01*
X61505635Y-67456943D01*
X61722522Y-67456943D01*
X61722522Y-67036082D01*
G37*
G36*
X60832014Y-65455026D02*
G01*
X60910747Y-65474002D01*
X60966713Y-65501748D01*
X61011740Y-65543620D01*
X61049057Y-65605638D01*
X61077721Y-65693723D01*
X61102197Y-65614145D01*
X61131167Y-65559938D01*
X61163542Y-65524829D01*
X61205246Y-65501598D01*
X61270137Y-65485086D01*
X61367057Y-65478576D01*
X61510219Y-65487525D01*
X61610651Y-65510640D01*
X61679016Y-65543697D01*
X61737188Y-65592357D01*
X61779631Y-65648887D01*
X61807885Y-65714515D01*
X61830461Y-65832601D01*
X61839759Y-66024550D01*
X61839759Y-66457868D01*
X60175000Y-66457868D01*
X60175000Y-66020612D01*
X60462321Y-66020612D01*
X60925222Y-66020612D01*
X61189187Y-66020612D01*
X61552529Y-66020612D01*
X61549201Y-65962605D01*
X61543553Y-65935249D01*
X61530893Y-65915848D01*
X61505177Y-65898979D01*
X61468794Y-65889340D01*
X61397465Y-65885057D01*
X61264671Y-65890921D01*
X61220237Y-65901910D01*
X61198929Y-65926775D01*
X61190103Y-65980495D01*
X61189187Y-66020612D01*
X60925222Y-66020612D01*
X60915558Y-65938126D01*
X60900309Y-65906764D01*
X60867234Y-65892412D01*
X60771898Y-65885057D01*
X60615644Y-65885057D01*
X60525664Y-65892969D01*
X60490348Y-65909329D01*
X60472659Y-65942635D01*
X60462321Y-66020612D01*
X60175000Y-66020612D01*
X60175000Y-65955949D01*
X60179647Y-65778223D01*
X60190859Y-65670116D01*
X60205133Y-65610284D01*
X60231133Y-65558659D01*
X60268112Y-65517903D01*
X60317424Y-65486636D01*
X60374030Y-65466979D01*
X60455480Y-65453137D01*
X60569116Y-65447801D01*
X60723538Y-65447801D01*
X60832014Y-65455026D01*
G37*
G36*
X61195376Y-64374530D02*
G01*
X61275649Y-64388734D01*
X61344412Y-64416742D01*
X61413769Y-64463564D01*
X61454216Y-64503419D01*
X61490504Y-64554532D01*
X61522487Y-64618811D01*
X61544918Y-64687106D01*
X61559192Y-64766630D01*
X61564253Y-64859237D01*
X61556272Y-64968928D01*
X61534049Y-65059167D01*
X61499315Y-65133461D01*
X61450337Y-65198756D01*
X61393291Y-65247694D01*
X61327215Y-65282113D01*
X61254441Y-65303369D01*
X61157366Y-65317884D01*
X61030277Y-65323329D01*
X60682414Y-65323329D01*
X60519900Y-65316682D01*
X60422112Y-65300706D01*
X60340652Y-65269878D01*
X60273735Y-65224685D01*
X60237340Y-65185895D01*
X60206647Y-65136782D01*
X60181869Y-65075484D01*
X60159772Y-64973943D01*
X60151808Y-64845956D01*
X60397749Y-64845956D01*
X60404961Y-64874765D01*
X60425684Y-64891752D01*
X60462067Y-64899641D01*
X60549332Y-64903476D01*
X61162351Y-64903476D01*
X61256587Y-64899526D01*
X61292044Y-64891752D01*
X61311174Y-64874812D01*
X61318056Y-64844949D01*
X61311158Y-64815311D01*
X61292136Y-64799245D01*
X61256695Y-64792082D01*
X61162351Y-64788437D01*
X60536051Y-64788437D01*
X60456343Y-64792124D01*
X60423211Y-64799703D01*
X60404535Y-64816153D01*
X60397749Y-64845956D01*
X60151808Y-64845956D01*
X60151552Y-64841835D01*
X60160876Y-64722729D01*
X60187090Y-64623024D01*
X60215512Y-64562589D01*
X60252161Y-64510808D01*
X60297365Y-64466678D01*
X60375897Y-64415844D01*
X60458107Y-64387177D01*
X60556213Y-64374127D01*
X60727477Y-64368584D01*
X61059952Y-64368584D01*
X61195376Y-64374530D01*
G37*
G36*
X61168832Y-63324373D02*
G01*
X61305783Y-63339100D01*
X61373051Y-63362281D01*
X61433801Y-63404285D01*
X61489423Y-63468152D01*
X61528264Y-63543734D01*
X61554412Y-63647148D01*
X61564253Y-63786523D01*
X61556055Y-63902472D01*
X61533378Y-63996639D01*
X61498216Y-64073019D01*
X61449155Y-64141727D01*
X61398560Y-64189496D01*
X61345991Y-64220115D01*
X61287161Y-64238947D01*
X61207398Y-64251874D01*
X61101443Y-64256751D01*
X61007379Y-64256751D01*
X61007379Y-63862543D01*
X61152826Y-63862543D01*
X61255548Y-63859183D01*
X61292044Y-63852743D01*
X61310850Y-63836698D01*
X61318056Y-63803009D01*
X61310247Y-63772837D01*
X61286915Y-63752634D01*
X61246423Y-63742266D01*
X61149712Y-63737247D01*
X61072612Y-63741708D01*
X61038428Y-63751168D01*
X61010465Y-63789028D01*
X60932274Y-63968056D01*
X60877056Y-64096133D01*
X60834661Y-64170298D01*
X60802490Y-64208025D01*
X60761636Y-64232286D01*
X60695356Y-64249766D01*
X60593113Y-64256751D01*
X60481646Y-64256751D01*
X60375012Y-64249231D01*
X60299548Y-64229646D01*
X60247521Y-64201199D01*
X60213101Y-64165068D01*
X60178784Y-64101669D01*
X60158416Y-64035014D01*
X60151552Y-63963843D01*
X60161169Y-63884326D01*
X60188463Y-63819404D01*
X60206819Y-63796781D01*
X60397749Y-63796781D01*
X60405522Y-63830154D01*
X60427241Y-63849262D01*
X60466022Y-63858170D01*
X60561331Y-63862543D01*
X60647363Y-63857998D01*
X60701099Y-63846881D01*
X60730355Y-63831560D01*
X60768394Y-63797834D01*
X60818060Y-63737247D01*
X60544936Y-63737247D01*
X60453032Y-63741109D01*
X60420555Y-63748512D01*
X60404079Y-63764889D01*
X60397749Y-63796781D01*
X60206819Y-63796781D01*
X60232001Y-63765745D01*
X60288664Y-63725981D01*
X60175000Y-63725981D01*
X60175000Y-63317393D01*
X60859918Y-63317393D01*
X61168832Y-63324373D01*
G37*
G36*
X61540806Y-62760153D02*
G01*
X61355334Y-62779754D01*
X61431276Y-62737972D01*
X61487457Y-62691090D01*
X61527242Y-62639102D01*
X61552704Y-62581130D01*
X61564436Y-62515513D01*
X61077721Y-62515513D01*
X61068822Y-62622695D01*
X61047588Y-62683766D01*
X61011028Y-62726483D01*
X60963599Y-62748338D01*
X60892273Y-62756415D01*
X60713005Y-62760428D01*
X60175000Y-62760428D01*
X60175000Y-63180190D01*
X61540806Y-63180190D01*
X61540806Y-62760153D01*
G37*
G36*
X61839759Y-61902219D02*
G01*
X61456816Y-61902219D01*
X61502085Y-61954018D01*
X61536043Y-62014419D01*
X61557035Y-62081392D01*
X61564253Y-62156476D01*
X61558395Y-62221761D01*
X61541540Y-62278851D01*
X61514061Y-62329309D01*
X61477125Y-62373533D01*
X61438535Y-62403717D01*
X61397740Y-62422090D01*
X61320260Y-62436098D01*
X61174533Y-62442240D01*
X60539166Y-62442240D01*
X60398765Y-62436170D01*
X60321087Y-62422090D01*
X60279532Y-62403803D01*
X60240274Y-62373931D01*
X60202752Y-62330408D01*
X60174610Y-62280567D01*
X60157475Y-62224794D01*
X60151552Y-62161605D01*
X60159318Y-62090891D01*
X60182693Y-62023120D01*
X60216673Y-61965875D01*
X60397749Y-61965875D01*
X60404304Y-61994180D01*
X60422662Y-62010663D01*
X60454805Y-62018585D01*
X60529915Y-62022387D01*
X61195141Y-62022387D01*
X61267016Y-62018379D01*
X61296074Y-62010205D01*
X61312040Y-61993314D01*
X61318056Y-61962853D01*
X61311437Y-61931796D01*
X61293510Y-61914493D01*
X61262803Y-61906126D01*
X61195141Y-61902219D01*
X60566734Y-61902219D01*
X60464203Y-61906544D01*
X60425776Y-61915042D01*
X60405179Y-61933412D01*
X60397749Y-61965875D01*
X60216673Y-61965875D01*
X60219926Y-61960395D01*
X60270804Y-61902219D01*
X60175000Y-61902219D01*
X60175000Y-61482366D01*
X61839759Y-61482366D01*
X61839759Y-61902219D01*
G37*
G36*
X61019103Y-60049424D02*
G01*
X61019103Y-60445647D01*
X61179754Y-60445647D01*
X61254807Y-60449703D01*
X61289754Y-60458469D01*
X61310800Y-60476286D01*
X61318056Y-60505273D01*
X61311550Y-60534430D01*
X61293601Y-60551068D01*
X61261225Y-60558921D01*
X61180761Y-60562792D01*
X60540173Y-60562792D01*
X60473141Y-60557585D01*
X60432920Y-60544931D01*
X60406176Y-60522425D01*
X60397749Y-60492999D01*
X60407022Y-60459353D01*
X60434752Y-60438594D01*
X60480330Y-60428760D01*
X60577542Y-60424214D01*
X60743597Y-60424214D01*
X60743597Y-60049424D01*
X60587643Y-60053402D01*
X60494744Y-60061239D01*
X60413894Y-60082935D01*
X60326033Y-60130390D01*
X60272941Y-60173351D01*
X60229671Y-60223832D01*
X60195516Y-60282615D01*
X60172021Y-60346754D01*
X60156946Y-60423287D01*
X60151552Y-60514523D01*
X60159224Y-60630870D01*
X60180100Y-60722349D01*
X60211819Y-60793784D01*
X60257831Y-60856338D01*
X60313744Y-60904585D01*
X60380805Y-60939872D01*
X60454818Y-60961830D01*
X60555227Y-60976941D01*
X60688551Y-60982645D01*
X61074332Y-60982645D01*
X61190794Y-60977870D01*
X61275948Y-60965389D01*
X61336466Y-60947566D01*
X61390489Y-60917525D01*
X61443063Y-60869074D01*
X61494735Y-60797906D01*
X61532390Y-60718808D01*
X61555952Y-60626946D01*
X61564253Y-60519652D01*
X61556008Y-60413024D01*
X61532537Y-60321113D01*
X61494918Y-60241399D01*
X61442795Y-60170823D01*
X61384805Y-60120544D01*
X61320163Y-60087617D01*
X61248459Y-60068079D01*
X61150296Y-60054550D01*
X61019103Y-60049424D01*
G37*
G36*
X61195376Y-58996303D02*
G01*
X61275649Y-59010506D01*
X61344412Y-59038515D01*
X61413769Y-59085336D01*
X61454216Y-59125191D01*
X61490504Y-59176304D01*
X61522487Y-59240583D01*
X61544918Y-59308878D01*
X61559192Y-59388403D01*
X61564253Y-59481010D01*
X61556272Y-59590701D01*
X61534049Y-59680940D01*
X61499315Y-59755233D01*
X61450337Y-59820528D01*
X61393291Y-59869467D01*
X61327215Y-59903886D01*
X61254441Y-59925141D01*
X61157366Y-59939656D01*
X61030277Y-59945102D01*
X60682414Y-59945102D01*
X60519900Y-59938454D01*
X60422112Y-59922479D01*
X60340652Y-59891651D01*
X60273735Y-59846458D01*
X60237340Y-59807667D01*
X60206647Y-59758555D01*
X60181869Y-59697256D01*
X60159772Y-59595716D01*
X60151808Y-59467729D01*
X60397749Y-59467729D01*
X60404961Y-59496538D01*
X60425684Y-59513524D01*
X60462067Y-59521413D01*
X60549332Y-59525248D01*
X61162351Y-59525248D01*
X61256587Y-59521299D01*
X61292044Y-59513524D01*
X61311174Y-59496584D01*
X61318056Y-59466721D01*
X61311158Y-59437083D01*
X61292136Y-59421017D01*
X61256695Y-59413854D01*
X61162351Y-59410210D01*
X60536051Y-59410210D01*
X60456343Y-59413896D01*
X60423211Y-59421475D01*
X60404535Y-59437926D01*
X60397749Y-59467729D01*
X60151808Y-59467729D01*
X60151552Y-59463607D01*
X60160876Y-59344502D01*
X60187090Y-59244796D01*
X60215512Y-59184362D01*
X60252161Y-59132581D01*
X60297365Y-59088450D01*
X60375897Y-59037616D01*
X60458107Y-59008949D01*
X60556213Y-58995900D01*
X60727477Y-58990356D01*
X61059952Y-58990356D01*
X61195376Y-58996303D01*
G37*
G36*
X61540806Y-58445206D02*
G01*
X61418165Y-58451892D01*
X61479223Y-58402988D01*
X61525235Y-58342166D01*
X61554255Y-58271217D01*
X61564253Y-58189026D01*
X61554678Y-58109530D01*
X61526919Y-58041001D01*
X61480465Y-57980804D01*
X61412303Y-57927625D01*
X61478611Y-57872340D01*
X61525235Y-57811304D01*
X61554381Y-57741907D01*
X61564253Y-57664392D01*
X61558043Y-57594994D01*
X61540501Y-57536893D01*
X61512412Y-57487896D01*
X61474386Y-57445996D01*
X61432422Y-57416611D01*
X61385742Y-57398320D01*
X61299298Y-57384556D01*
X61143575Y-57378628D01*
X60175000Y-57378628D01*
X60175000Y-57786209D01*
X61063891Y-57786209D01*
X61221506Y-57790129D01*
X61277848Y-57797657D01*
X61300572Y-57808814D01*
X61313473Y-57825642D01*
X61318056Y-57849864D01*
X61313484Y-57874873D01*
X61300662Y-57892376D01*
X61278306Y-57904178D01*
X61222268Y-57912357D01*
X61063891Y-57916634D01*
X60175000Y-57916634D01*
X60175000Y-58324123D01*
X61041359Y-58324123D01*
X61221648Y-58327458D01*
X61279405Y-58333557D01*
X61301029Y-58343557D01*
X61313517Y-58359927D01*
X61318056Y-58384756D01*
X61313072Y-58409091D01*
X61297906Y-58429819D01*
X61275700Y-58444229D01*
X61248172Y-58450519D01*
X61120219Y-58452534D01*
X60175000Y-58452534D01*
X60175000Y-58860022D01*
X61540806Y-58860022D01*
X61540806Y-58445206D01*
G37*
G36*
X61311582Y-56288744D02*
G01*
X61391512Y-56300968D01*
X61433801Y-56317833D01*
X61473728Y-56346645D01*
X61511954Y-56389536D01*
X61540708Y-56439104D01*
X61558203Y-56494705D01*
X61564253Y-56557881D01*
X61555072Y-56634747D01*
X61527891Y-56704701D01*
X61484627Y-56767035D01*
X61425584Y-56821846D01*
X61540806Y-56814977D01*
X61540806Y-57242158D01*
X59981559Y-57242158D01*
X59981559Y-56822396D01*
X60289397Y-56822396D01*
X60231153Y-56768229D01*
X60225194Y-56759747D01*
X60397749Y-56759747D01*
X60405556Y-56792651D01*
X60427241Y-56810580D01*
X60468024Y-56818385D01*
X60579008Y-56822396D01*
X61141926Y-56822396D01*
X61248381Y-56818601D01*
X61288564Y-56811130D01*
X61310227Y-56793618D01*
X61318056Y-56760755D01*
X61310954Y-56727216D01*
X61292685Y-56712028D01*
X61255348Y-56706318D01*
X61141926Y-56703236D01*
X60559590Y-56703236D01*
X60461468Y-56706390D01*
X60424677Y-56712578D01*
X60405049Y-56728078D01*
X60397749Y-56759747D01*
X60225194Y-56759747D01*
X60188005Y-56706808D01*
X60160724Y-56637977D01*
X60151552Y-56563010D01*
X60157090Y-56499617D01*
X60172944Y-56444733D01*
X60198630Y-56396772D01*
X60233902Y-56355722D01*
X60275588Y-56325649D01*
X60324751Y-56305639D01*
X60417080Y-56290152D01*
X60589357Y-56283382D01*
X61161252Y-56283382D01*
X61311582Y-56288744D01*
G37*
G36*
X61839759Y-55721196D02*
G01*
X60175000Y-55721196D01*
X60175000Y-56153323D01*
X61839759Y-56153323D01*
X61839759Y-55721196D01*
G37*
G36*
X60749459Y-55033805D02*
G01*
X60567101Y-55033805D01*
X60474533Y-55038690D01*
X60431912Y-55049193D01*
X60406748Y-55071225D01*
X60397749Y-55109734D01*
X60404562Y-55140799D01*
X60423303Y-55158644D01*
X60457056Y-55167182D01*
X60540356Y-55171375D01*
X60831524Y-55171375D01*
X61060136Y-55171375D01*
X61155573Y-55171375D01*
X61258012Y-55167986D01*
X61293326Y-55161575D01*
X61311073Y-55145532D01*
X61318056Y-55110742D01*
X61310626Y-55083295D01*
X61288747Y-55067144D01*
X61250349Y-55059904D01*
X61155573Y-55056337D01*
X61060136Y-55056337D01*
X61060136Y-55171375D01*
X60831524Y-55171375D01*
X60831524Y-54635476D01*
X61014340Y-54635476D01*
X61146716Y-54641567D01*
X61247109Y-54657765D01*
X61321811Y-54681454D01*
X61389233Y-54718987D01*
X61447626Y-54771589D01*
X61497849Y-54841281D01*
X61533375Y-54919947D01*
X61556100Y-55015094D01*
X61564253Y-55130251D01*
X61557795Y-55224392D01*
X61539189Y-55308384D01*
X61509115Y-55383775D01*
X61466221Y-55451478D01*
X61413615Y-55503840D01*
X61350388Y-55542685D01*
X61279512Y-55567969D01*
X61187122Y-55584931D01*
X61068196Y-55591229D01*
X60672156Y-55591229D01*
X60529394Y-55584941D01*
X60440614Y-55569613D01*
X60364607Y-55539524D01*
X60294251Y-55491669D01*
X60254359Y-55450743D01*
X60219438Y-55398906D01*
X60189654Y-55334316D01*
X60161563Y-55228542D01*
X60151552Y-55101583D01*
X60156362Y-55011378D01*
X60169687Y-54936822D01*
X60190204Y-54875444D01*
X60220465Y-54818510D01*
X60258978Y-54769058D01*
X60306250Y-54726334D01*
X60384437Y-54676588D01*
X60451696Y-54651504D01*
X60527028Y-54640115D01*
X60646144Y-54635476D01*
X60749459Y-54635476D01*
X60749459Y-55033805D01*
G37*
G36*
X61722522Y-54063856D02*
G01*
X61505635Y-54063856D01*
X61505635Y-53952115D01*
X61282885Y-53952115D01*
X61282885Y-54063856D01*
X60559499Y-54063856D01*
X60440499Y-54058893D01*
X60412129Y-54050850D01*
X60403044Y-54026692D01*
X60397749Y-53934713D01*
X60175000Y-53934713D01*
X60175000Y-54104706D01*
X60178583Y-54236303D01*
X60186815Y-54307397D01*
X60206340Y-54364699D01*
X60241586Y-54415199D01*
X60288415Y-54453528D01*
X60339863Y-54473360D01*
X60413165Y-54480946D01*
X60597601Y-54484717D01*
X61282885Y-54484717D01*
X61282885Y-54573835D01*
X61505635Y-54573835D01*
X61505635Y-54484717D01*
X61722522Y-54484717D01*
X61722522Y-54063856D01*
G37*
G36*
X60749459Y-53322151D02*
G01*
X60567101Y-53322151D01*
X60474533Y-53327036D01*
X60431912Y-53337539D01*
X60406748Y-53359571D01*
X60397749Y-53398080D01*
X60404562Y-53429145D01*
X60423303Y-53446990D01*
X60457056Y-53455528D01*
X60540356Y-53459721D01*
X60831524Y-53459721D01*
X61060136Y-53459721D01*
X61155573Y-53459721D01*
X61258012Y-53456332D01*
X61293326Y-53449921D01*
X61311073Y-53433878D01*
X61318056Y-53399088D01*
X61310626Y-53371641D01*
X61288747Y-53355491D01*
X61250349Y-53348250D01*
X61155573Y-53344683D01*
X61060136Y-53344683D01*
X61060136Y-53459721D01*
X60831524Y-53459721D01*
X60831524Y-52923822D01*
X61014340Y-52923822D01*
X61146716Y-52929913D01*
X61247109Y-52946111D01*
X61321811Y-52969801D01*
X61389233Y-53007333D01*
X61447626Y-53059936D01*
X61497849Y-53129627D01*
X61533375Y-53208293D01*
X61556100Y-53303440D01*
X61564253Y-53418597D01*
X61557795Y-53512738D01*
X61539189Y-53596730D01*
X61509115Y-53672121D01*
X61466221Y-53739824D01*
X61413615Y-53792186D01*
X61350388Y-53831031D01*
X61279512Y-53856315D01*
X61187122Y-53873277D01*
X61068196Y-53879575D01*
X60672156Y-53879575D01*
X60529394Y-53873287D01*
X60440614Y-53857959D01*
X60364607Y-53827870D01*
X60294251Y-53780015D01*
X60254359Y-53739090D01*
X60219438Y-53687252D01*
X60189654Y-53622662D01*
X60161563Y-53516889D01*
X60151552Y-53389929D01*
X60156362Y-53299724D01*
X60169687Y-53225168D01*
X60190204Y-53163790D01*
X60220465Y-53106856D01*
X60258978Y-53057404D01*
X60306250Y-53014680D01*
X60384437Y-52964934D01*
X60451696Y-52939850D01*
X60527028Y-52928461D01*
X60646144Y-52923822D01*
X60749459Y-52923822D01*
X60749459Y-53322151D01*
G37*
G36*
X61839759Y-52266839D02*
G01*
X61456816Y-52266839D01*
X61502085Y-52318637D01*
X61536043Y-52379038D01*
X61557035Y-52446011D01*
X61564253Y-52521096D01*
X61558395Y-52586381D01*
X61541540Y-52643470D01*
X61514061Y-52693928D01*
X61477125Y-52738153D01*
X61438535Y-52768337D01*
X61397740Y-52786710D01*
X61320260Y-52800718D01*
X61174533Y-52806860D01*
X60539166Y-52806860D01*
X60398765Y-52800790D01*
X60321087Y-52786710D01*
X60279532Y-52768422D01*
X60240274Y-52738551D01*
X60202752Y-52695027D01*
X60174610Y-52645187D01*
X60157475Y-52589414D01*
X60151552Y-52526225D01*
X60159318Y-52455511D01*
X60182693Y-52387739D01*
X60216673Y-52330495D01*
X60397749Y-52330495D01*
X60404304Y-52358800D01*
X60422662Y-52375283D01*
X60454805Y-52383205D01*
X60529915Y-52387007D01*
X61195141Y-52387007D01*
X61267016Y-52382999D01*
X61296074Y-52374825D01*
X61312040Y-52357934D01*
X61318056Y-52327472D01*
X61311437Y-52296416D01*
X61293510Y-52279112D01*
X61262803Y-52270746D01*
X61195141Y-52266839D01*
X60566734Y-52266839D01*
X60464203Y-52271164D01*
X60425776Y-52279662D01*
X60405179Y-52298031D01*
X60397749Y-52330495D01*
X60216673Y-52330495D01*
X60219926Y-52325015D01*
X60270804Y-52266839D01*
X60175000Y-52266839D01*
X60175000Y-51846986D01*
X61839759Y-51846986D01*
X61839759Y-52266839D01*
G37*
G36*
X61839759Y-51243217D02*
G01*
X60585327Y-51311270D01*
X60585327Y-51636418D01*
X61839759Y-51704378D01*
X61839759Y-51243217D01*
G37*
G36*
X60514986Y-51277198D02*
G01*
X60175000Y-51277198D01*
X60175000Y-51670398D01*
X60514986Y-51670398D01*
X60514986Y-51277198D01*
G37*
G36*
X61839759Y-50677551D02*
G01*
X60585327Y-50745603D01*
X60585327Y-51070751D01*
X61839759Y-51138712D01*
X61839759Y-50677551D01*
G37*
G36*
X60514986Y-50711531D02*
G01*
X60175000Y-50711531D01*
X60175000Y-51104732D01*
X60514986Y-51104732D01*
X60514986Y-50711531D01*
G37*
G36*
X61839759Y-50111885D02*
G01*
X60585327Y-50179937D01*
X60585327Y-50505085D01*
X61839759Y-50573046D01*
X61839759Y-50111885D01*
G37*
G36*
X60514986Y-50145865D02*
G01*
X60175000Y-50145865D01*
X60175000Y-50539065D01*
X60514986Y-50539065D01*
X60514986Y-50145865D01*
G37*
G36*
X59319759Y-69644870D02*
G01*
X57655000Y-69644870D01*
X57655000Y-70028087D01*
X58412091Y-70250287D01*
X57655000Y-70247356D01*
X57655000Y-70613904D01*
X59319759Y-70613904D01*
X59319759Y-70248181D01*
X58569903Y-70008487D01*
X59319759Y-70011418D01*
X59319759Y-69644870D01*
G37*
G36*
X58675376Y-68552548D02*
G01*
X58755649Y-68566752D01*
X58824412Y-68594760D01*
X58893769Y-68641582D01*
X58934216Y-68681437D01*
X58970504Y-68732550D01*
X59002487Y-68796829D01*
X59024918Y-68865124D01*
X59039192Y-68944648D01*
X59044253Y-69037255D01*
X59036272Y-69146946D01*
X59014049Y-69237186D01*
X58979315Y-69311479D01*
X58930337Y-69376774D01*
X58873291Y-69425712D01*
X58807215Y-69460131D01*
X58734441Y-69481387D01*
X58637366Y-69495902D01*
X58510277Y-69501347D01*
X58162414Y-69501347D01*
X57999900Y-69494700D01*
X57902112Y-69478724D01*
X57820652Y-69447896D01*
X57753735Y-69402704D01*
X57717340Y-69363913D01*
X57686647Y-69314800D01*
X57661869Y-69253502D01*
X57639772Y-69151961D01*
X57631808Y-69023975D01*
X57877749Y-69023975D01*
X57884961Y-69052783D01*
X57905684Y-69069770D01*
X57942067Y-69077659D01*
X58029332Y-69081494D01*
X58642351Y-69081494D01*
X58736587Y-69077544D01*
X58772044Y-69069770D01*
X58791174Y-69052830D01*
X58798056Y-69022967D01*
X58791158Y-68993329D01*
X58772136Y-68977263D01*
X58736695Y-68970100D01*
X58642351Y-68966455D01*
X58016051Y-68966455D01*
X57936343Y-68970142D01*
X57903211Y-68977721D01*
X57884535Y-68994171D01*
X57877749Y-69023975D01*
X57631808Y-69023975D01*
X57631552Y-69019853D01*
X57640876Y-68900747D01*
X57667090Y-68801042D01*
X57695512Y-68740607D01*
X57732161Y-68688827D01*
X57777365Y-68644696D01*
X57855897Y-68593862D01*
X57938107Y-68565195D01*
X58036213Y-68552145D01*
X58207477Y-68546602D01*
X58539952Y-68546602D01*
X58675376Y-68552548D01*
G37*
G36*
X58279399Y-67069421D02*
G01*
X58343398Y-67076565D01*
X58388171Y-67094418D01*
X58442683Y-67132069D01*
X58472551Y-67165962D01*
X58500690Y-67221377D01*
X58525939Y-67306276D01*
X58541367Y-67213712D01*
X58568126Y-67152795D01*
X58603700Y-67114576D01*
X58652290Y-67090711D01*
X58734602Y-67072906D01*
X58865192Y-67065666D01*
X59006232Y-67075023D01*
X59106132Y-67099335D01*
X59175045Y-67134451D01*
X59232623Y-67185622D01*
X59272382Y-67244287D01*
X59296128Y-67311954D01*
X59312307Y-67445208D01*
X59319759Y-67726404D01*
X59319759Y-68034699D01*
X57655000Y-68034699D01*
X57655000Y-67597444D01*
X58405314Y-67597444D01*
X58669096Y-67597444D01*
X59032529Y-67597444D01*
X59025421Y-67533194D01*
X59008624Y-67499441D01*
X58976515Y-67480470D01*
X58907233Y-67472147D01*
X58815916Y-67472147D01*
X58742738Y-67476796D01*
X58705007Y-67487337D01*
X58688422Y-67500357D01*
X58674877Y-67534267D01*
X58669096Y-67597444D01*
X58405314Y-67597444D01*
X58400677Y-67541500D01*
X58389549Y-67509319D01*
X58374447Y-67492480D01*
X58330823Y-67479030D01*
X58210866Y-67472147D01*
X57655000Y-67472147D01*
X57655000Y-67065666D01*
X58096560Y-67065666D01*
X58279399Y-67069421D01*
G37*
G36*
X58229459Y-66372047D02*
G01*
X58047101Y-66372047D01*
X57954533Y-66376931D01*
X57911912Y-66387434D01*
X57886748Y-66409466D01*
X57877749Y-66447976D01*
X57884562Y-66479041D01*
X57903303Y-66496885D01*
X57937056Y-66505424D01*
X58020356Y-66509617D01*
X58311524Y-66509617D01*
X58540136Y-66509617D01*
X58635573Y-66509617D01*
X58738012Y-66506228D01*
X58773326Y-66499816D01*
X58791073Y-66483773D01*
X58798056Y-66448983D01*
X58790626Y-66421536D01*
X58768747Y-66405386D01*
X58730349Y-66398145D01*
X58635573Y-66394578D01*
X58540136Y-66394578D01*
X58540136Y-66509617D01*
X58311524Y-66509617D01*
X58311524Y-65973717D01*
X58494340Y-65973717D01*
X58626716Y-65979809D01*
X58727109Y-65996006D01*
X58801811Y-66019696D01*
X58869233Y-66057228D01*
X58927626Y-66109831D01*
X58977849Y-66179522D01*
X59013375Y-66258189D01*
X59036100Y-66353336D01*
X59044253Y-66468492D01*
X59037795Y-66562634D01*
X59019189Y-66646625D01*
X58989115Y-66722016D01*
X58946221Y-66789720D01*
X58893615Y-66842081D01*
X58830388Y-66880927D01*
X58759512Y-66906211D01*
X58667122Y-66923173D01*
X58548196Y-66929470D01*
X58152156Y-66929470D01*
X58009394Y-66923183D01*
X57920614Y-66907855D01*
X57844607Y-66877766D01*
X57774251Y-66829911D01*
X57734359Y-66788985D01*
X57699438Y-66737148D01*
X57669654Y-66672557D01*
X57641563Y-66566784D01*
X57631552Y-66439824D01*
X57636362Y-66349619D01*
X57649687Y-66275063D01*
X57670204Y-66213686D01*
X57700465Y-66156752D01*
X57738978Y-66107299D01*
X57786250Y-66064576D01*
X57864437Y-66014830D01*
X57931696Y-65989746D01*
X58007028Y-65978357D01*
X58126144Y-65973717D01*
X58229459Y-65973717D01*
X58229459Y-66372047D01*
G37*
G36*
X59020806Y-65288341D02*
G01*
X58919964Y-65317101D01*
X58973169Y-65368856D01*
X59012013Y-65428750D01*
X59036026Y-65496155D01*
X59044253Y-65571999D01*
X59038166Y-65643285D01*
X59021231Y-65701122D01*
X58994584Y-65748168D01*
X58958157Y-65786322D01*
X58896337Y-65822396D01*
X58805944Y-65847205D01*
X58677156Y-65856755D01*
X58182747Y-65856755D01*
X58054723Y-65849015D01*
X57972729Y-65829828D01*
X57927010Y-65807066D01*
X57887336Y-65774180D01*
X57853019Y-65729902D01*
X57828556Y-65679291D01*
X57812982Y-65618209D01*
X57807407Y-65544338D01*
X57813675Y-65480576D01*
X57832411Y-65419866D01*
X57852673Y-65381398D01*
X58053604Y-65381398D01*
X58060479Y-65410173D01*
X58079707Y-65426186D01*
X58113820Y-65433381D01*
X58196852Y-65436902D01*
X58655907Y-65436902D01*
X58734281Y-65432350D01*
X58769754Y-65422614D01*
X58790845Y-65403563D01*
X58798056Y-65374254D01*
X58791428Y-65344569D01*
X58773510Y-65329008D01*
X58740559Y-65322173D01*
X58655907Y-65318750D01*
X58232848Y-65318750D01*
X58127379Y-65322696D01*
X58085294Y-65330656D01*
X58061852Y-65348736D01*
X58053604Y-65381398D01*
X57852673Y-65381398D01*
X57862244Y-65363228D01*
X57901929Y-65311605D01*
X57806583Y-65311605D01*
X57727250Y-65316396D01*
X57693101Y-65326443D01*
X57674088Y-65347155D01*
X57666723Y-65386527D01*
X57675620Y-65420044D01*
X57701990Y-65440752D01*
X57754651Y-65449175D01*
X57754651Y-65856847D01*
X57655319Y-65845811D01*
X57581309Y-65820161D01*
X57526750Y-65782171D01*
X57487754Y-65731642D01*
X57452227Y-65648221D01*
X57429002Y-65543352D01*
X57420526Y-65412172D01*
X57425136Y-65304563D01*
X57437832Y-65216167D01*
X57457163Y-65144085D01*
X57486400Y-65075909D01*
X57521909Y-65021026D01*
X57563500Y-64977481D01*
X57634698Y-64928428D01*
X57695758Y-64907780D01*
X57776632Y-64901128D01*
X57970622Y-64897889D01*
X59020806Y-64897889D01*
X59020806Y-65288341D01*
G37*
G36*
X58229459Y-64210498D02*
G01*
X58047101Y-64210498D01*
X57954533Y-64215382D01*
X57911912Y-64225885D01*
X57886748Y-64247917D01*
X57877749Y-64286427D01*
X57884562Y-64317491D01*
X57903303Y-64335336D01*
X57937056Y-64343875D01*
X58020356Y-64348067D01*
X58311524Y-64348067D01*
X58540136Y-64348067D01*
X58635573Y-64348067D01*
X58738012Y-64344678D01*
X58773326Y-64338267D01*
X58791073Y-64322224D01*
X58798056Y-64287434D01*
X58790626Y-64259987D01*
X58768747Y-64243837D01*
X58730349Y-64236596D01*
X58635573Y-64233029D01*
X58540136Y-64233029D01*
X58540136Y-64348067D01*
X58311524Y-64348067D01*
X58311524Y-63812168D01*
X58494340Y-63812168D01*
X58626716Y-63818259D01*
X58727109Y-63834457D01*
X58801811Y-63858147D01*
X58869233Y-63895679D01*
X58927626Y-63948282D01*
X58977849Y-64017973D01*
X59013375Y-64096640D01*
X59036100Y-64191786D01*
X59044253Y-64306943D01*
X59037795Y-64401084D01*
X59019189Y-64485076D01*
X58989115Y-64560467D01*
X58946221Y-64628170D01*
X58893615Y-64680532D01*
X58830388Y-64719378D01*
X58759512Y-64744662D01*
X58667122Y-64761623D01*
X58548196Y-64767921D01*
X58152156Y-64767921D01*
X58009394Y-64761634D01*
X57920614Y-64746305D01*
X57844607Y-64716216D01*
X57774251Y-64668361D01*
X57734359Y-64627436D01*
X57699438Y-64575598D01*
X57669654Y-64511008D01*
X57641563Y-64405235D01*
X57631552Y-64278275D01*
X57636362Y-64188070D01*
X57649687Y-64113514D01*
X57670204Y-64052137D01*
X57700465Y-63995203D01*
X57738978Y-63945750D01*
X57786250Y-63903026D01*
X57864437Y-63853280D01*
X57931696Y-63828196D01*
X58007028Y-63816808D01*
X58126144Y-63812168D01*
X58229459Y-63812168D01*
X58229459Y-64210498D01*
G37*
G36*
X59020806Y-63262805D02*
G01*
X58835334Y-63282405D01*
X58911276Y-63240624D01*
X58967457Y-63193742D01*
X59007242Y-63141754D01*
X59032704Y-63083782D01*
X59044436Y-63018165D01*
X58557721Y-63018165D01*
X58548822Y-63125347D01*
X58527588Y-63186418D01*
X58491028Y-63229135D01*
X58443599Y-63250990D01*
X58372273Y-63259067D01*
X58193005Y-63263080D01*
X57655000Y-63263080D01*
X57655000Y-63682841D01*
X59020806Y-63682841D01*
X59020806Y-63262805D01*
G37*
G36*
X59202522Y-62452132D02*
G01*
X58985635Y-62452132D01*
X58985635Y-62340391D01*
X58762885Y-62340391D01*
X58762885Y-62452132D01*
X58039499Y-62452132D01*
X57920499Y-62447169D01*
X57892129Y-62439126D01*
X57883044Y-62414969D01*
X57877749Y-62322989D01*
X57655000Y-62322989D01*
X57655000Y-62492982D01*
X57658583Y-62624579D01*
X57666815Y-62695673D01*
X57686340Y-62752975D01*
X57721586Y-62803476D01*
X57768415Y-62841804D01*
X57819863Y-62861636D01*
X57893165Y-62869222D01*
X58077601Y-62872993D01*
X58762885Y-62872993D01*
X58762885Y-62962111D01*
X58985635Y-62962111D01*
X58985635Y-62872993D01*
X59202522Y-62872993D01*
X59202522Y-62452132D01*
G37*
G36*
X58581168Y-61404330D02*
G01*
X58581168Y-61777015D01*
X58657372Y-61777015D01*
X58741946Y-61780457D01*
X58774242Y-61787273D01*
X58791286Y-61803576D01*
X58798056Y-61838655D01*
X58792258Y-61868450D01*
X58775983Y-61888664D01*
X58750328Y-61900610D01*
X58708938Y-61905334D01*
X58651112Y-61902786D01*
X58618354Y-61896816D01*
X58590973Y-61881739D01*
X58555431Y-61845250D01*
X58519128Y-61789785D01*
X58454681Y-61667197D01*
X58389489Y-61548370D01*
X58334494Y-61473025D01*
X58288077Y-61429426D01*
X58232626Y-61399670D01*
X58158433Y-61379911D01*
X58060198Y-61372548D01*
X57948975Y-61378402D01*
X57867188Y-61393783D01*
X57808415Y-61416054D01*
X57757047Y-61450556D01*
X57713504Y-61498170D01*
X57677348Y-61561134D01*
X57652742Y-61630387D01*
X57637100Y-61711288D01*
X57631552Y-61805866D01*
X57637568Y-61910671D01*
X57654529Y-62000397D01*
X57681195Y-62077250D01*
X57720319Y-62147634D01*
X57765196Y-62198240D01*
X57816017Y-62232588D01*
X57874723Y-62254169D01*
X57957937Y-62269225D01*
X58072746Y-62274995D01*
X58141531Y-62274995D01*
X58141531Y-61902311D01*
X58051680Y-61902311D01*
X57951237Y-61897959D01*
X57909623Y-61889030D01*
X57886001Y-61869685D01*
X57877749Y-61836549D01*
X57883682Y-61798531D01*
X57898723Y-61777289D01*
X57926358Y-61765914D01*
X57989398Y-61760620D01*
X58075812Y-61767751D01*
X58109200Y-61782327D01*
X58142124Y-61828977D01*
X58253913Y-62022479D01*
X58329821Y-62141700D01*
X58391064Y-62211119D01*
X58440759Y-62245961D01*
X58498212Y-62267741D01*
X58564207Y-62281440D01*
X58640245Y-62286261D01*
X58749456Y-62280307D01*
X58827494Y-62264849D01*
X58881679Y-62242755D01*
X58928209Y-62208509D01*
X58968254Y-62160382D01*
X59001938Y-62095568D01*
X59024834Y-62025230D01*
X59039214Y-61945538D01*
X59044253Y-61855050D01*
X59034974Y-61724947D01*
X59009815Y-61623874D01*
X58968147Y-61536913D01*
X58918681Y-61477329D01*
X58861132Y-61434484D01*
X58813535Y-61415230D01*
X58758343Y-61407573D01*
X58662684Y-61404330D01*
X58581168Y-61404330D01*
G37*
M02*
