M48
; DRILL file {KiCad 9.0.6} date 2025-12-09T17:39:41-0500
; FORMAT={-:-/ absolute / metric / decimal}
; #@! TF.CreationDate,2025-12-09T17:39:41-05:00
; #@! TF.GenerationSoftware,Kicad,Pcbnew,9.0.6
; #@! TF.FileFunction,Plated,1,2,PTH
FMAT,2
METRIC
; #@! TA.AperFunction,Plated,PTH,ViaDrill
T1C0.300
; #@! TA.AperFunction,Plated,PTH,ComponentDrill
T2C0.750
; #@! TA.AperFunction,Plated,PTH,ComponentDrill
T3C1.000
; #@! TA.AperFunction,Plated,PTH,ComponentDrill
T4C1.100
; #@! TA.AperFunction,Plated,PTH,ComponentDrill
T5C2.700
%
G90
G05
T1
X43.4Y-57.2
X43.5Y-62.8
X43.8Y-68.4
X43.8Y-75.7
X43.8Y-97.3
X43.9Y-72.0
X44.1Y-52.9
X44.5Y-60.2
X44.7Y-44.5
X44.7Y-66.0
X45.6Y-49.0
X45.6Y-78.9
X47.3Y-71.7
X47.8Y-54.2
X47.8Y-60.9
X48.0Y-68.9
X48.1Y-49.2
X48.1Y-74.1
X48.2Y-57.4
X48.2Y-64.6
X48.4Y-45.5
X49.6Y-42.0
X51.0Y-101.6
X51.1Y-38.8
X51.5Y-105.2
X54.102Y-103.277
X55.3Y-78.6
X55.7Y-82.5
X56.0Y-92.4
X56.1Y-61.3
X56.1Y-94.5
X56.4Y-55.8
X56.4Y-71.9
X56.5Y-43.0
X56.6Y-51.9
X56.6Y-67.7
X56.6Y-105.5
X56.8Y-39.6
X57.1Y-47.1
X58.1Y-76.1
X58.8Y-91.4
X58.8Y-94.2
X58.9Y-52.2
X59.0Y-68.6
X59.0Y-73.3
X59.0Y-98.3
X59.1Y-103.5
X59.2Y-80.4
X59.4Y-59.4
X59.5Y-43.7
X59.9Y-63.5
X59.9Y-89.4
X60.0Y-56.9
X60.1Y-39.8
X60.8Y-50.4
X61.4Y-47.5
X61.4Y-61.7
X62.1Y-90.6
X62.2Y-105.6
X62.3Y-94.9
X62.6Y-86.5
X63.6Y-77.8
X63.9Y-103.7
X64.1Y-53.3
X64.1Y-57.3
X64.1Y-87.7
X64.3Y-43.7
X64.5Y-72.6
X64.5Y-83.1
X64.7Y-47.2
X64.8Y-85.5
X64.9Y-39.9
X64.9Y-50.9
X65.0Y-74.9
X65.2Y-69.6
X65.3Y-60.6
X65.3Y-94.1
X65.4Y-66.2
X65.4Y-80.3
X65.5Y-90.6
X65.6Y-98.4
X68.4Y-102.7
X68.4Y-105.2
X70.2Y-37.9
X70.3Y-73.6
X70.3Y-77.4
X70.3Y-81.52
X70.3Y-85.4
X70.3Y-88.4
X71.5Y-97.4
X71.9Y-41.3
X72.2Y-61.6
X72.6Y-58.1
X73.0Y-54.3
X73.1Y-66.5
X73.1Y-68.6
X73.2Y-94.1
X73.3Y-64.4
X74.0Y-55.4
X74.2Y-105.6
X74.3Y-70.4
X74.4Y-43.9
X74.6Y-39.1
X76.0Y-59.7
X76.0Y-97.9
X76.1Y-102.7
X76.2Y-62.9
X76.4Y-94.2
X76.6Y-42.5
X76.6Y-56.0
X76.6Y-67.3
X76.9Y-64.9
X77.0Y-69.8
X77.2Y-45.2
X77.3Y-37.7
X78.1Y-77.3
X78.1Y-81.1
X78.2Y-85.3
X78.5Y-89.4
X78.8Y-58.1
X79.0Y-97.2
X80.1Y-41.2
X80.3Y-44.4
X80.3Y-56.0
X80.9Y-105.4
X81.0Y-47.5
X81.0Y-53.5
X81.3Y-63.4
X81.5Y-77.5
X82.0Y-95.4
X82.7Y-87.1
X82.9Y-42.9
X83.0Y-69.5
X83.2Y-38.4
X83.315Y-102.571
X85.6Y-37.7
X85.6Y-41.1
X85.6Y-105.6
X87.1Y-43.1
X88.2Y-40.6
X88.4Y-55.5
X89.2Y-44.2
X91.2Y-72.0
X91.2Y-81.9
X91.4Y-64.8
X91.5Y-58.0
X91.5Y-91.9
X91.7Y-55.0
X91.7Y-61.1
X91.7Y-96.7
X91.8Y-76.4
X91.9Y-68.8
X91.9Y-87.7
X93.1Y-45.7
X93.7Y-49.3
X94.0Y-52.4
X94.3Y-63.8
X94.4Y-61.2
X94.5Y-67.5
X94.6Y-57.5
X94.6Y-82.2
X94.6Y-93.0
X94.7Y-71.5
X94.8Y-86.2
X95.0Y-76.5
X95.2Y-54.6
X95.2Y-96.8
X95.5Y-46.9
T2
X88.45Y-49.5
X88.45Y-51.5
T3
X85.0Y-57.42
X85.0Y-59.96
X85.0Y-62.5
X85.0Y-66.46
X85.0Y-69.0
X85.0Y-71.54
X85.0Y-75.5
X85.0Y-78.04
X85.0Y-80.58
X85.0Y-84.46
X85.0Y-87.0
X85.0Y-89.54
X85.0Y-93.46
X85.0Y-96.0
X85.0Y-98.54
T4
X52.76Y-37.74
X52.76Y-40.28
X52.76Y-42.82
X52.76Y-45.36
X52.76Y-47.9
X52.76Y-50.44
X52.76Y-52.98
X52.76Y-55.52
X52.76Y-58.06
X52.76Y-60.6
X52.76Y-63.14
X52.76Y-65.68
X52.76Y-68.22
X52.76Y-70.76
X52.76Y-73.3
X52.76Y-75.84
X52.76Y-78.38
X52.76Y-80.92
X52.76Y-83.46
X52.76Y-86.0
X52.76Y-88.54
X52.76Y-91.08
X52.76Y-93.62
X52.76Y-96.16
X68.0Y-37.74
X68.0Y-40.28
X68.0Y-42.82
X68.0Y-45.36
X68.0Y-47.9
X68.0Y-50.44
X68.0Y-52.98
X68.0Y-55.52
X68.0Y-58.06
X68.0Y-60.6
X68.0Y-63.14
X68.0Y-65.68
X68.0Y-68.22
X68.0Y-70.76
X68.0Y-73.3
X68.0Y-75.84
X68.0Y-78.38
X68.0Y-80.92
X68.0Y-83.46
X68.0Y-86.0
X68.0Y-88.54
X68.0Y-91.08
X68.0Y-93.62
X68.0Y-96.16
T5
X47.0Y-84.0
X47.0Y-89.0
M30
