M48
; DRILL file {KiCad 9.0.7} date 2026-02-28T14:07:48-0500
; FORMAT={-:-/ absolute / metric / decimal}
; #@! TF.CreationDate,2026-02-28T14:07:48-05:00
; #@! TF.GenerationSoftware,Kicad,Pcbnew,9.0.7
; #@! TF.FileFunction,Plated,1,2,PTH
FMAT,2
METRIC
; #@! TA.AperFunction,Plated,PTH,ViaDrill
T1C0.300
; #@! TA.AperFunction,Plated,PTH,ViaDrill
T2C0.500
; #@! TA.AperFunction,Plated,PTH,ComponentDrill
T3C0.700
; #@! TA.AperFunction,Plated,PTH,ComponentDrill
T4C0.750
; #@! TA.AperFunction,Plated,PTH,ComponentDrill
T5C0.800
; #@! TA.AperFunction,Plated,PTH,ComponentDrill
T6C1.000
; #@! TA.AperFunction,Plated,PTH,ComponentDrill
T7C2.700
%
G90
G05
T1
X108.85Y-75.0
X108.85Y-107.5
X108.894Y-98.288
X108.894Y-113.983
X108.95Y-110.05
X109.012Y-117.254
X109.05Y-82.05
X109.05Y-85.3
X109.05Y-92.35
X109.15Y-89.3
X109.2Y-78.75
X109.239Y-94.853
X109.3Y-102.45
X109.7Y-127.6
X109.7Y-132.4
X109.9Y-139.0
X110.6Y-71.15
X111.664Y-126.027
X111.7Y-100.85
X111.7Y-128.7
X111.75Y-97.9
X111.776Y-119.758
X111.8Y-83.35
X111.8Y-109.8
X111.85Y-90.85
X111.85Y-94.0
X111.85Y-122.5
X111.898Y-86.918
X111.9Y-103.75
X111.9Y-113.15
X112.0Y-107.05
X112.1Y-76.1
X112.1Y-80.15
X112.85Y-73.1
X114.088Y-106.433
X114.25Y-94.6
X114.289Y-117.358
X114.318Y-129.048
X114.347Y-99.821
X114.35Y-89.25
X114.35Y-104.95
X114.393Y-86.146
X114.4Y-92.35
X114.4Y-97.35
X114.4Y-102.4
X114.45Y-81.15
X114.45Y-83.6
X114.487Y-125.377
X114.628Y-120.944
X114.65Y-133.45
X114.7Y-76.8
X114.854Y-113.201
X114.9Y-61.5
X115.05Y-71.75
X115.7Y-74.45
X115.95Y-111.9
X116.05Y-106.35
X116.112Y-102.88
X116.3Y-66.6
X116.417Y-56.85
X116.8Y-61.15
X117.1Y-86.95
X117.688Y-99.256
X117.75Y-95.35
X117.95Y-90.45
X118.279Y-111.144
X118.75Y-40.3
X119.023Y-65.578
X119.4Y-54.6
X119.7Y-67.7
X119.95Y-102.65
X120.041Y-104.574
X120.35Y-129.5
X120.394Y-99.021
X120.45Y-73.6
X120.45Y-81.8
X120.456Y-95.115
X120.523Y-59.995
X120.55Y-71.0
X120.55Y-77.65
X120.55Y-79.6
X120.55Y-117.5
X120.6Y-123.444
X120.6Y-75.6
X120.6Y-119.6
X120.6Y-121.5
X120.65Y-110.45
X120.65Y-115.15
X120.65Y-126.05
X120.656Y-90.215
X121.296Y-87.035
X121.6Y-58.05
X122.45Y-102.45
X122.7Y-55.3
X122.7Y-64.8
X123.25Y-99.1
X123.312Y-95.194
X123.512Y-90.294
X123.55Y-40.2
X123.7Y-106.75
X125.15Y-87.0
X125.15Y-100.85
X125.359Y-62.168
X125.394Y-129.227
X125.65Y-111.5
X125.689Y-99.115
X125.75Y-102.5
X125.75Y-106.1
X125.75Y-95.209
X125.8Y-66.0
X125.95Y-90.309
X126.0Y-104.5
X126.55Y-81.05
X126.6Y-75.6
X126.6Y-78.55
X126.608Y-84.154
X126.625Y-73.613
X126.65Y-69.6
X127.25Y-118.3
X127.861Y-113.854
X128.25Y-111.7
X128.7Y-58.1
X128.841Y-120.93
X128.85Y-116.4
X128.9Y-129.179
X128.912Y-107.868
X129.05Y-123.55
X129.054Y-118.136
X129.25Y-81.55
X129.35Y-100.85
X129.35Y-104.75
X129.359Y-98.103
X129.4Y-125.9
X129.406Y-85.914
X129.5Y-94.0
X129.548Y-89.773
X129.6Y-76.65
X129.6Y-79.15
X129.603Y-66.726
X129.65Y-102.45
X129.8Y-73.25
X129.9Y-40.55
X130.889Y-109.092
X131.3Y-59.25
X131.95Y-55.4
X131.982Y-131.533
X132.011Y-113.593
X132.289Y-121.731
X132.3Y-115.9
X132.712Y-128.638
X132.8Y-64.9
X132.85Y-88.0
X132.861Y-123.757
X132.991Y-73.151
X133.03Y-103.939
X133.05Y-83.05
X133.65Y-107.65
X133.9Y-117.65
X134.15Y-90.15
X134.25Y-94.1
X134.3Y-98.6
X134.607Y-102.15
X135.033Y-79.538
X135.1Y-118.85
X135.124Y-85.726
X135.15Y-110.35
X135.238Y-76.133
X135.45Y-58.9
X135.55Y-71.15
X135.6Y-112.8
X135.6Y-124.85
X135.8Y-102.45
X136.3Y-103.85
X136.3Y-111.4
X136.45Y-115.05
X136.456Y-120.244
X136.5Y-77.8
X136.65Y-86.2
X136.889Y-81.632
X136.95Y-110.05
X137.05Y-106.7
X137.25Y-63.0
X137.55Y-69.25
X137.75Y-127.0
X137.8Y-116.25
X138.4Y-134.05
X138.45Y-122.27
X138.5Y-64.5
X138.95Y-112.65
X139.218Y-117.286
X139.3Y-56.0
X139.55Y-62.75
X139.8Y-104.15
X139.85Y-63.9
X139.85Y-68.15
X139.85Y-98.45
X139.95Y-109.45
X140.0Y-106.65
X140.133Y-124.672
X140.247Y-114.132
X140.4Y-47.8
X140.55Y-45.45
X141.1Y-50.75
X142.192Y-44.848
X142.55Y-133.45
X144.0Y-47.1
X144.55Y-35.25
X144.62Y-92.915
X145.241Y-101.641
X145.406Y-106.109
X145.55Y-127.8
X145.587Y-108.871
X145.7Y-122.3
X145.842Y-118.961
X146.15Y-51.7
X146.163Y-44.952
X146.45Y-50.3
X146.535Y-71.141
X146.55Y-46.55
X146.8Y-56.0
X146.85Y-96.3
X148.725Y-134.19
X148.8Y-92.7
X149.0Y-131.05
X149.038Y-104.85
X149.106Y-128.299
X149.139Y-126.959
X149.4Y-123.5
X149.75Y-118.2
X149.8Y-66.85
X149.95Y-64.75
X150.75Y-70.95
X150.95Y-128.35
X150.95Y-134.0
X151.0Y-65.65
X151.954Y-115.823
X152.05Y-104.95
X152.2Y-112.8
X152.2Y-128.8
X152.45Y-100.9
X152.848Y-131.093
X152.9Y-120.15
X152.944Y-65.046
X153.15Y-51.4
X153.442Y-134.388
X153.55Y-94.05
X153.75Y-123.65
X153.85Y-108.0
X154.347Y-73.753
X154.95Y-70.3
X155.15Y-35.9
X155.45Y-106.15
X155.75Y-126.65
X155.9Y-103.8
X156.5Y-131.0
X156.95Y-134.45
X157.609Y-51.38
X158.241Y-61.836
X159.601Y-70.126
X159.7Y-72.2
X159.834Y-125.125
X159.95Y-106.45
X159.994Y-88.44
X160.35Y-110.2
X160.45Y-84.75
X160.539Y-81.566
X160.6Y-75.6
X160.6Y-104.0
X160.75Y-93.5
X160.88Y-47.733
X160.95Y-50.75
X160.95Y-78.3
X160.998Y-131.128
X161.2Y-90.2
X161.25Y-67.45
X161.25Y-127.25
X161.35Y-98.85
X161.4Y-113.4
X161.6Y-95.35
X161.757Y-116.272
X161.85Y-53.75
X161.95Y-69.65
X162.033Y-38.721
X162.05Y-122.15
X162.2Y-74.25
X162.347Y-101.814
X162.4Y-71.95
X162.45Y-131.5
X162.602Y-105.892
X162.7Y-78.3
X162.9Y-115.9
X163.1Y-42.1
X163.1Y-88.4
X163.447Y-85.039
X163.6Y-81.15
X163.645Y-83.288
X163.685Y-66.847
X163.7Y-130.7
X163.719Y-124.452
X163.778Y-127.569
X163.935Y-96.264
X164.0Y-90.2
X164.14Y-63.291
X164.267Y-115.801
X164.332Y-72.494
X164.5Y-70.1
X164.5Y-75.15
X164.65Y-111.35
X164.721Y-59.336
X164.896Y-100.068
X164.9Y-131.6
X165.073Y-91.97
X165.254Y-66.749
X165.8Y-104.8
X165.9Y-83.45
X165.96Y-81.057
X166.0Y-54.8
X166.35Y-85.6
X166.464Y-116.471
X166.55Y-110.05
X166.6Y-72.85
X166.6Y-113.4
X166.65Y-93.25
X166.895Y-128.099
X166.95Y-97.85
X167.1Y-121.3
X167.2Y-63.5
X167.209Y-41.709
X167.45Y-35.3
X167.45Y-125.3
X167.65Y-59.2
X167.95Y-89.2
X168.05Y-66.55
X168.132Y-102.48
X168.25Y-79.0
X168.45Y-81.6
X168.5Y-95.75
X168.8Y-68.15
X168.8Y-75.6
X168.856Y-130.844
X169.2Y-70.3
X169.349Y-83.683
X169.4Y-59.1
X169.797Y-108.235
X169.797Y-117.687
X169.85Y-113.3
X169.896Y-93.951
X170.25Y-97.5
X170.4Y-122.65
X170.45Y-89.4
X170.535Y-80.069
X170.759Y-86.166
X170.85Y-69.05
X170.85Y-73.5
X170.896Y-125.569
X170.935Y-128.04
X171.022Y-141.539
X171.325Y-76.991
X171.4Y-66.35
X171.445Y-99.833
X171.7Y-81.55
X171.8Y-63.8
X171.85Y-119.55
X172.151Y-105.941
X172.5Y-58.85
X172.817Y-116.334
X172.876Y-110.608
X173.05Y-130.55
X173.45Y-75.25
X173.75Y-79.2
X173.79Y-112.986
X173.915Y-125.942
X174.05Y-90.55
X174.053Y-86.146
X174.1Y-68.45
X174.177Y-76.991
X174.25Y-94.2
X174.288Y-35.342
X174.3Y-71.55
X174.5Y-122.3
X174.544Y-82.695
X175.047Y-63.495
X175.05Y-67.0
X175.19Y-129.471
X175.504Y-103.47
X175.55Y-107.85
X175.9Y-71.65
X176.182Y-74.281
X176.4Y-69.0
X176.6Y-118.25
X176.85Y-67.65
X177.05Y-113.1
X177.25Y-79.9
X177.268Y-126.432
X177.288Y-100.784
X177.3Y-59.15
X177.3Y-76.9
X177.35Y-82.65
X177.406Y-93.666
X177.45Y-123.85
X177.55Y-104.5
X177.6Y-62.3
X177.621Y-90.47
X177.8Y-97.55
X178.0Y-92.0
X178.05Y-107.3
X178.1Y-87.95
X179.0Y-141.65
X179.2Y-92.2
X179.675Y-35.342
X179.75Y-90.45
X180.3Y-66.35
X181.05Y-97.15
X181.2Y-112.1
X181.4Y-88.4
X181.5Y-93.95
X181.65Y-101.95
X181.7Y-65.25
X181.75Y-58.65
X181.8Y-99.5
X182.05Y-123.6
X182.1Y-117.6
X182.1Y-119.45
X182.1Y-121.75
X182.1Y-126.9
X182.15Y-115.15
X182.2Y-73.55
X182.2Y-75.6
X182.2Y-77.65
X182.2Y-79.5
X182.25Y-104.25
X182.3Y-110.55
X182.484Y-90.588
X182.5Y-60.05
X183.7Y-70.4
X183.8Y-93.9
X183.9Y-88.65
X184.2Y-104.9
X184.4Y-90.45
X184.45Y-99.55
X184.8Y-97.3
X184.916Y-102.196
X185.15Y-106.8
X185.2Y-88.45
X185.407Y-56.799
X185.488Y-136.886
X185.85Y-62.9
X186.0Y-59.65
X186.15Y-109.75
X187.302Y-66.113
X187.6Y-99.2
X187.75Y-105.9
X187.877Y-94.529
X188.1Y-133.6
X190.7Y-34.9
X190.807Y-67.955
X191.0Y-71.85
X191.0Y-88.9
X191.1Y-79.85
X191.15Y-83.9
X191.2Y-75.6
T2
X111.8Y-60.8
X111.8Y-64.15
X111.8Y-68.1
X111.85Y-46.25
X111.85Y-49.6
X111.85Y-53.55
X111.85Y-56.85
X114.65Y-50.9
X114.7Y-47.15
X114.75Y-44.0
X117.8Y-142.45
X118.6Y-50.9
X118.65Y-47.15
X118.7Y-44.0
X118.7Y-134.1
X118.95Y-36.9
X119.25Y-140.75
X121.95Y-50.9
X122.0Y-47.15
X122.05Y-44.0
X122.05Y-134.1
X122.3Y-36.9
X122.6Y-140.75
X125.9Y-50.95
X125.95Y-47.2
X126.0Y-44.05
X126.0Y-134.1
X126.25Y-36.95
X126.55Y-140.8
X126.65Y-59.5
X127.05Y-54.2
X129.2Y-50.95
X129.25Y-47.2
X129.3Y-44.05
X129.3Y-70.25
X129.3Y-134.1
X129.55Y-36.95
X129.75Y-63.25
X129.85Y-140.8
X133.15Y-50.95
X133.2Y-47.2
X133.25Y-44.05
X133.25Y-134.15
X133.5Y-36.95
X133.8Y-140.8
X134.08Y-62.928
X134.7Y-69.15
X136.5Y-50.95
X136.55Y-47.2
X136.6Y-44.05
X136.664Y-74.731
X136.85Y-36.95
X137.15Y-140.8
X138.3Y-57.45
X141.75Y-35.9
X143.2Y-141.1
X145.85Y-86.0
X146.1Y-89.65
X146.35Y-98.9
X146.782Y-77.986
X147.15Y-141.1
X147.35Y-62.05
X147.629Y-73.383
X149.0Y-56.35
X150.5Y-141.1
X152.1Y-89.3
X152.8Y-85.6
X153.65Y-78.45
X154.2Y-75.9
X154.45Y-141.15
X155.2Y-63.808
X157.5Y-59.6
X157.75Y-141.15
X161.7Y-141.15
X165.05Y-141.15
X166.65Y-39.25
X166.65Y-139.8
X167.85Y-134.8
X169.6Y-54.45
X170.0Y-39.25
X170.0Y-139.8
X170.873Y-62.309
X171.2Y-134.8
X171.55Y-44.4
X172.0Y-48.65
X172.95Y-54.45
X173.95Y-39.25
X173.95Y-139.8
X174.9Y-44.4
X175.1Y-60.05
X175.15Y-134.8
X175.35Y-48.65
X176.9Y-54.45
X177.25Y-39.25
X177.25Y-139.8
X178.45Y-134.8
X178.85Y-44.4
X179.3Y-48.65
X180.2Y-54.45
X181.2Y-39.3
X181.2Y-139.85
X182.15Y-44.4
X182.4Y-134.85
X182.6Y-48.65
X184.15Y-54.5
X186.1Y-44.45
X186.55Y-48.7
X189.95Y-58.7
X189.95Y-62.05
X189.95Y-66.0
X190.0Y-44.15
X190.0Y-47.5
X190.0Y-51.45
X190.0Y-54.75
X190.2Y-132.75
X190.2Y-136.1
X190.2Y-140.05
X190.25Y-107.65
X190.25Y-111.0
X190.25Y-121.55
X190.25Y-125.5
X190.25Y-128.8
X190.3Y-93.1
X190.3Y-96.45
X190.3Y-100.4
X190.3Y-103.7
X190.85Y-117.4
X190.9Y-115.5
T3
X145.01Y-112.89
X145.01Y-114.89
X147.01Y-112.89
X147.01Y-114.89
X149.01Y-112.89
X149.01Y-114.89
T4
X118.3Y-70.65
X118.3Y-72.65
X118.3Y-74.65
X118.3Y-76.65
X118.3Y-78.65
X118.3Y-80.65
X118.3Y-82.65
X118.3Y-114.62
X118.3Y-116.62
X118.3Y-118.62
X118.3Y-120.62
X118.3Y-122.62
X118.3Y-124.62
X118.3Y-126.62
X123.95Y-70.65
X123.95Y-72.65
X123.95Y-74.65
X123.95Y-76.65
X123.95Y-78.65
X123.95Y-80.65
X123.95Y-82.65
X123.95Y-114.62
X123.95Y-116.62
X123.95Y-118.62
X123.95Y-120.62
X123.95Y-122.62
X123.95Y-124.62
X123.95Y-126.62
X143.05Y-41.85
X145.05Y-41.85
X154.75Y-111.35
X154.75Y-113.89
X154.75Y-116.43
X154.75Y-118.97
X154.75Y-121.51
X179.8Y-70.65
X179.8Y-72.65
X179.8Y-74.65
X179.8Y-76.65
X179.8Y-78.65
X179.8Y-80.65
X179.8Y-82.65
X179.8Y-114.62
X179.8Y-116.62
X179.8Y-118.62
X179.8Y-120.62
X179.8Y-122.62
X179.8Y-124.62
X179.8Y-126.62
X185.6Y-70.65
X185.6Y-72.65
X185.6Y-74.65
X185.6Y-76.65
X185.6Y-78.65
X185.6Y-80.65
X185.6Y-82.65
X185.6Y-114.62
X185.6Y-116.62
X185.6Y-118.62
X185.6Y-120.62
X185.6Y-122.62
X185.6Y-124.62
X185.6Y-126.62
T5
X142.56Y-69.44
X142.56Y-71.98
X142.56Y-74.52
X142.56Y-77.06
X142.56Y-79.6
X142.56Y-82.14
X142.56Y-84.68
X142.56Y-87.22
X142.56Y-89.76
X142.56Y-92.3
X142.56Y-94.84
X142.56Y-97.38
X142.56Y-99.92
X142.56Y-102.46
X142.56Y-105.0
X142.56Y-107.54
X142.56Y-110.08
X142.56Y-112.62
X142.56Y-115.16
X142.56Y-117.7
X142.56Y-120.24
X142.56Y-122.78
X142.56Y-125.32
X142.56Y-127.86
X145.1Y-82.14
X145.1Y-125.32
X147.64Y-82.14
X150.18Y-82.14
X152.72Y-82.14
X155.26Y-82.14
X157.8Y-69.44
X157.8Y-71.98
X157.8Y-74.52
X157.8Y-77.06
X157.8Y-79.6
X157.8Y-82.14
X157.8Y-84.68
X157.8Y-87.22
X157.8Y-89.76
X157.8Y-92.3
X157.8Y-94.84
X157.8Y-97.38
X157.8Y-99.92
X157.8Y-102.46
X157.8Y-105.0
X157.8Y-107.54
X157.8Y-110.08
X157.8Y-112.62
X157.8Y-115.16
X157.8Y-117.7
X157.8Y-120.24
X157.8Y-122.78
X157.8Y-125.32
X157.8Y-127.86
T6
X149.76Y-60.01
X149.76Y-62.55
X152.3Y-60.01
X152.3Y-62.55
X152.48Y-35.9
X158.6Y-35.9
X161.55Y-57.4
X161.55Y-61.15
X161.6Y-64.9
X164.05Y-45.6
X164.07Y-50.0
T7
X152.68Y-40.88
X157.68Y-40.88
M30
