%TF.GenerationSoftware,KiCad,Pcbnew,9.0.7*%
%TF.CreationDate,2026-02-28T14:07:45-05:00*%
%TF.ProjectId,igvcControlBoard,69677663-436f-46e7-9472-6f6c426f6172,1.1*%
%TF.SameCoordinates,Original*%
%TF.FileFunction,Legend,Bot*%
%TF.FilePolarity,Positive*%
%FSLAX46Y46*%
G04 Gerber Fmt 4.6, Leading zero omitted, Abs format (unit mm)*
G04 Created by KiCad (PCBNEW 9.0.7) date 2026-02-28 14:07:45*
%MOMM*%
%LPD*%
G01*
G04 APERTURE LIST*
G04 Aperture macros list*
%AMRoundRect*
0 Rectangle with rounded corners*
0 $1 Rounding radius*
0 $2 $3 $4 $5 $6 $7 $8 $9 X,Y pos of 4 corners*
0 Add a 4 corners polygon primitive as box body*
4,1,4,$2,$3,$4,$5,$6,$7,$8,$9,$2,$3,0*
0 Add four circle primitives for the rounded corners*
1,1,$1+$1,$2,$3*
1,1,$1+$1,$4,$5*
1,1,$1+$1,$6,$7*
1,1,$1+$1,$8,$9*
0 Add four rect primitives between the rounded corners*
20,1,$1+$1,$2,$3,$4,$5,0*
20,1,$1+$1,$4,$5,$6,$7,0*
20,1,$1+$1,$6,$7,$8,$9,0*
20,1,$1+$1,$8,$9,$2,$3,0*%
G04 Aperture macros list end*
%ADD10C,4.300000*%
%ADD11RoundRect,0.250000X-0.625000X0.350000X-0.625000X-0.350000X0.625000X-0.350000X0.625000X0.350000X0*%
%ADD12O,1.750000X1.200000*%
%ADD13R,1.700000X1.700000*%
%ADD14C,1.700000*%
%ADD15O,1.200000X1.750000*%
%ADD16RoundRect,0.250000X0.350000X0.625000X-0.350000X0.625000X-0.350000X-0.625000X0.350000X-0.625000X0*%
%ADD17C,2.000000*%
%ADD18C,1.512000*%
%ADD19C,1.462000*%
%ADD20C,1.412000*%
%ADD21RoundRect,0.760000X1.140000X1.140000X-1.140000X1.140000X-1.140000X-1.140000X1.140000X-1.140000X0*%
%ADD22C,4.000000*%
G04 APERTURE END LIST*
%LPC*%
D10*
%TO.C,He2*%
X186900000Y-139800000D03*
%TD*%
%TO.C,H4*%
X112900000Y-139800000D03*
%TD*%
D11*
%TO.C,J10*%
X185600000Y-114620000D03*
D12*
X185600000Y-116620000D03*
X185600000Y-118620000D03*
X185600000Y-120620000D03*
X185600000Y-122620000D03*
X185600000Y-124620000D03*
X185600000Y-126620000D03*
%TD*%
D11*
%TO.C,J9*%
X185600000Y-70650000D03*
D12*
X185600000Y-72650000D03*
X185600000Y-74650000D03*
X185600000Y-76650000D03*
X185600000Y-78650000D03*
X185600000Y-80650000D03*
X185600000Y-82650000D03*
%TD*%
D11*
%TO.C,J8*%
X123950000Y-114620000D03*
D12*
X123950000Y-116620000D03*
X123950000Y-118620000D03*
X123950000Y-120620000D03*
X123950000Y-122620000D03*
X123950000Y-124620000D03*
X123950000Y-126620000D03*
%TD*%
D11*
%TO.C,J7*%
X123950000Y-70650000D03*
D12*
X123950000Y-72650000D03*
X123950000Y-74650000D03*
X123950000Y-76650000D03*
X123950000Y-78650000D03*
X123950000Y-80650000D03*
X123950000Y-82650000D03*
%TD*%
D11*
%TO.C,J6*%
X179800000Y-114620000D03*
D12*
X179800000Y-116620000D03*
X179800000Y-118620000D03*
X179800000Y-120620000D03*
X179800000Y-122620000D03*
X179800000Y-124620000D03*
X179800000Y-126620000D03*
%TD*%
D11*
%TO.C,J4*%
X179800000Y-70650000D03*
D12*
X179800000Y-72650000D03*
X179800000Y-74650000D03*
X179800000Y-76650000D03*
X179800000Y-78650000D03*
X179800000Y-80650000D03*
X179800000Y-82650000D03*
%TD*%
D11*
%TO.C,J3*%
X118300000Y-70650000D03*
D12*
X118300000Y-72650000D03*
X118300000Y-74650000D03*
X118300000Y-76650000D03*
X118300000Y-78650000D03*
X118300000Y-80650000D03*
X118300000Y-82650000D03*
%TD*%
D10*
%TO.C,He1*%
X187600000Y-38400000D03*
%TD*%
D13*
%TO.C,J11*%
X149760000Y-62550000D03*
D14*
X149760000Y-60010000D03*
X152300000Y-62550000D03*
X152300000Y-60010000D03*
%TD*%
D15*
%TO.C,J1*%
X143050000Y-41850000D03*
D16*
X145050000Y-41850000D03*
%TD*%
D17*
%TO.C,TP2*%
X164050000Y-45600000D03*
%TD*%
%TO.C,TP4*%
X161600000Y-64900000D03*
%TD*%
%TO.C,TP14*%
X164070000Y-50000000D03*
%TD*%
D18*
%TO.C,U8*%
X157800000Y-125320000D03*
X157800000Y-122780000D03*
X157800000Y-120240000D03*
X157800000Y-117700000D03*
X157800000Y-92300000D03*
X152720000Y-82140000D03*
X142560000Y-122780000D03*
X157800000Y-115160000D03*
X157800000Y-112620000D03*
D19*
X154750000Y-121510000D03*
D18*
X157800000Y-110080000D03*
X157800000Y-107540000D03*
X157800000Y-105000000D03*
X157800000Y-102460000D03*
X157800000Y-99920000D03*
X157800000Y-97380000D03*
X157800000Y-94840000D03*
X142560000Y-94840000D03*
X142560000Y-97380000D03*
X142560000Y-99920000D03*
X142560000Y-102460000D03*
X142560000Y-105000000D03*
X142560000Y-107540000D03*
X142560000Y-110080000D03*
X142560000Y-112620000D03*
X142560000Y-115160000D03*
X142560000Y-117700000D03*
X142560000Y-120240000D03*
X157800000Y-89760000D03*
X157800000Y-87220000D03*
X157800000Y-84680000D03*
X157800000Y-82140000D03*
X157800000Y-79600000D03*
X157800000Y-77060000D03*
X157800000Y-74520000D03*
X157800000Y-71980000D03*
X157800000Y-69440000D03*
X142560000Y-69440000D03*
X142560000Y-71980000D03*
X142560000Y-74520000D03*
X142560000Y-77060000D03*
X142560000Y-79600000D03*
X142560000Y-82140000D03*
X142560000Y-84680000D03*
X142560000Y-87220000D03*
X142560000Y-89760000D03*
D19*
X154750000Y-116430000D03*
X154750000Y-118970000D03*
D18*
X157800000Y-127860000D03*
X142560000Y-125320000D03*
D20*
X147010000Y-112890000D03*
D18*
X142560000Y-92300000D03*
X150180000Y-82140000D03*
D20*
X147010000Y-114890000D03*
D18*
X145100000Y-82140000D03*
X147640000Y-82140000D03*
D20*
X145010000Y-114890000D03*
X145010000Y-112890000D03*
X149010000Y-112890000D03*
X149010000Y-114890000D03*
D19*
X154750000Y-113890000D03*
X154750000Y-111350000D03*
D18*
X155260000Y-82140000D03*
X142560000Y-127860000D03*
X145100000Y-125320000D03*
%TD*%
D17*
%TO.C,TP13*%
X158600000Y-35900000D03*
%TD*%
D21*
%TO.C,J2*%
X157680000Y-40880000D03*
D22*
X152680000Y-40880000D03*
%TD*%
D17*
%TO.C,TP3*%
X161550000Y-57400000D03*
%TD*%
%TO.C,TP15*%
X161550000Y-61150000D03*
%TD*%
%TO.C,TP1*%
X152480000Y-35900000D03*
%TD*%
D10*
%TO.C,H1*%
X113600000Y-38400000D03*
%TD*%
D12*
%TO.C,J5*%
X118300000Y-126620000D03*
X118300000Y-124620000D03*
X118300000Y-122620000D03*
X118300000Y-120620000D03*
X118300000Y-118620000D03*
X118300000Y-116620000D03*
D11*
X118300000Y-114620000D03*
%TD*%
%LPD*%
M02*
