%TF.GenerationSoftware,KiCad,Pcbnew,9.0.7*%
%TF.CreationDate,2026-02-28T14:07:45-05:00*%
%TF.ProjectId,igvcControlBoard,69677663-436f-46e7-9472-6f6c426f6172,1.1*%
%TF.SameCoordinates,Original*%
%TF.FileFunction,Legend,Top*%
%TF.FilePolarity,Positive*%
%FSLAX46Y46*%
G04 Gerber Fmt 4.6, Leading zero omitted, Abs format (unit mm)*
G04 Created by KiCad (PCBNEW 9.0.7) date 2026-02-28 14:07:45*
%MOMM*%
%LPD*%
G01*
G04 APERTURE LIST*
G04 Aperture macros list*
%AMRoundRect*
0 Rectangle with rounded corners*
0 $1 Rounding radius*
0 $2 $3 $4 $5 $6 $7 $8 $9 X,Y pos of 4 corners*
0 Add a 4 corners polygon primitive as box body*
4,1,4,$2,$3,$4,$5,$6,$7,$8,$9,$2,$3,0*
0 Add four circle primitives for the rounded corners*
1,1,$1+$1,$2,$3*
1,1,$1+$1,$4,$5*
1,1,$1+$1,$6,$7*
1,1,$1+$1,$8,$9*
0 Add four rect primitives between the rounded corners*
20,1,$1+$1,$2,$3,$4,$5,0*
20,1,$1+$1,$4,$5,$6,$7,0*
20,1,$1+$1,$6,$7,$8,$9,0*
20,1,$1+$1,$8,$9,$2,$3,0*%
G04 Aperture macros list end*
%ADD10C,0.100000*%
%ADD11C,0.300000*%
%ADD12C,0.150000*%
%ADD13C,0.120000*%
%ADD14C,0.127000*%
%ADD15C,0.200000*%
%ADD16C,4.300000*%
%ADD17RoundRect,0.250000X-0.625000X0.350000X-0.625000X-0.350000X0.625000X-0.350000X0.625000X0.350000X0*%
%ADD18O,1.750000X1.200000*%
%ADD19R,1.700000X1.700000*%
%ADD20C,1.700000*%
%ADD21O,1.200000X1.750000*%
%ADD22RoundRect,0.250000X0.350000X0.625000X-0.350000X0.625000X-0.350000X-0.625000X0.350000X-0.625000X0*%
%ADD23RoundRect,0.162500X-0.162500X0.837500X-0.162500X-0.837500X0.162500X-0.837500X0.162500X0.837500X0*%
%ADD24RoundRect,0.250000X-0.350000X-0.450000X0.350000X-0.450000X0.350000X0.450000X-0.350000X0.450000X0*%
%ADD25RoundRect,0.150000X-0.587500X-0.150000X0.587500X-0.150000X0.587500X0.150000X-0.587500X0.150000X0*%
%ADD26RoundRect,0.250000X0.450000X-0.350000X0.450000X0.350000X-0.450000X0.350000X-0.450000X-0.350000X0*%
%ADD27RoundRect,0.150000X0.150000X-0.825000X0.150000X0.825000X-0.150000X0.825000X-0.150000X-0.825000X0*%
%ADD28RoundRect,0.250000X-0.475000X0.337500X-0.475000X-0.337500X0.475000X-0.337500X0.475000X0.337500X0*%
%ADD29C,2.000000*%
%ADD30RoundRect,0.250000X-0.337500X-0.475000X0.337500X-0.475000X0.337500X0.475000X-0.337500X0.475000X0*%
%ADD31RoundRect,0.250000X0.350000X0.450000X-0.350000X0.450000X-0.350000X-0.450000X0.350000X-0.450000X0*%
%ADD32C,1.512000*%
%ADD33C,1.462000*%
%ADD34C,1.412000*%
%ADD35RoundRect,0.375000X-0.375000X0.625000X-0.375000X-0.625000X0.375000X-0.625000X0.375000X0.625000X0*%
%ADD36RoundRect,0.500000X-1.400000X0.500000X-1.400000X-0.500000X1.400000X-0.500000X1.400000X0.500000X0*%
%ADD37RoundRect,0.250000X0.250000X0.250000X-0.250000X0.250000X-0.250000X-0.250000X0.250000X-0.250000X0*%
%ADD38RoundRect,0.760000X1.140000X1.140000X-1.140000X1.140000X-1.140000X-1.140000X1.140000X-1.140000X0*%
%ADD39C,4.000000*%
%ADD40RoundRect,0.250000X0.337500X0.475000X-0.337500X0.475000X-0.337500X-0.475000X0.337500X-0.475000X0*%
G04 APERTURE END LIST*
D10*
X154777693Y-62170038D02*
X154682455Y-62122419D01*
X154682455Y-62122419D02*
X154539598Y-62122419D01*
X154539598Y-62122419D02*
X154396741Y-62170038D01*
X154396741Y-62170038D02*
X154301503Y-62265276D01*
X154301503Y-62265276D02*
X154253884Y-62360514D01*
X154253884Y-62360514D02*
X154206265Y-62550990D01*
X154206265Y-62550990D02*
X154206265Y-62693847D01*
X154206265Y-62693847D02*
X154253884Y-62884323D01*
X154253884Y-62884323D02*
X154301503Y-62979561D01*
X154301503Y-62979561D02*
X154396741Y-63074800D01*
X154396741Y-63074800D02*
X154539598Y-63122419D01*
X154539598Y-63122419D02*
X154634836Y-63122419D01*
X154634836Y-63122419D02*
X154777693Y-63074800D01*
X154777693Y-63074800D02*
X154825312Y-63027180D01*
X154825312Y-63027180D02*
X154825312Y-62693847D01*
X154825312Y-62693847D02*
X154634836Y-62693847D01*
X155253884Y-63122419D02*
X155253884Y-62122419D01*
X155253884Y-62122419D02*
X155825312Y-63122419D01*
X155825312Y-63122419D02*
X155825312Y-62122419D01*
X156301503Y-63122419D02*
X156301503Y-62122419D01*
X156301503Y-62122419D02*
X156539598Y-62122419D01*
X156539598Y-62122419D02*
X156682455Y-62170038D01*
X156682455Y-62170038D02*
X156777693Y-62265276D01*
X156777693Y-62265276D02*
X156825312Y-62360514D01*
X156825312Y-62360514D02*
X156872931Y-62550990D01*
X156872931Y-62550990D02*
X156872931Y-62693847D01*
X156872931Y-62693847D02*
X156825312Y-62884323D01*
X156825312Y-62884323D02*
X156777693Y-62979561D01*
X156777693Y-62979561D02*
X156682455Y-63074800D01*
X156682455Y-63074800D02*
X156539598Y-63122419D01*
X156539598Y-63122419D02*
X156301503Y-63122419D01*
X154208646Y-59472419D02*
X154827693Y-59472419D01*
X154827693Y-59472419D02*
X154494360Y-59853371D01*
X154494360Y-59853371D02*
X154637217Y-59853371D01*
X154637217Y-59853371D02*
X154732455Y-59900990D01*
X154732455Y-59900990D02*
X154780074Y-59948609D01*
X154780074Y-59948609D02*
X154827693Y-60043847D01*
X154827693Y-60043847D02*
X154827693Y-60281942D01*
X154827693Y-60281942D02*
X154780074Y-60377180D01*
X154780074Y-60377180D02*
X154732455Y-60424800D01*
X154732455Y-60424800D02*
X154637217Y-60472419D01*
X154637217Y-60472419D02*
X154351503Y-60472419D01*
X154351503Y-60472419D02*
X154256265Y-60424800D01*
X154256265Y-60424800D02*
X154208646Y-60377180D01*
X155113408Y-59472419D02*
X155446741Y-60472419D01*
X155446741Y-60472419D02*
X155780074Y-59472419D01*
X156018170Y-59472419D02*
X156637217Y-59472419D01*
X156637217Y-59472419D02*
X156303884Y-59853371D01*
X156303884Y-59853371D02*
X156446741Y-59853371D01*
X156446741Y-59853371D02*
X156541979Y-59900990D01*
X156541979Y-59900990D02*
X156589598Y-59948609D01*
X156589598Y-59948609D02*
X156637217Y-60043847D01*
X156637217Y-60043847D02*
X156637217Y-60281942D01*
X156637217Y-60281942D02*
X156589598Y-60377180D01*
X156589598Y-60377180D02*
X156541979Y-60424800D01*
X156541979Y-60424800D02*
X156446741Y-60472419D01*
X156446741Y-60472419D02*
X156161027Y-60472419D01*
X156161027Y-60472419D02*
X156065789Y-60424800D01*
X156065789Y-60424800D02*
X156018170Y-60377180D01*
X187130074Y-66872419D02*
X186653884Y-66872419D01*
X186653884Y-66872419D02*
X186606265Y-67348609D01*
X186606265Y-67348609D02*
X186653884Y-67300990D01*
X186653884Y-67300990D02*
X186749122Y-67253371D01*
X186749122Y-67253371D02*
X186987217Y-67253371D01*
X186987217Y-67253371D02*
X187082455Y-67300990D01*
X187082455Y-67300990D02*
X187130074Y-67348609D01*
X187130074Y-67348609D02*
X187177693Y-67443847D01*
X187177693Y-67443847D02*
X187177693Y-67681942D01*
X187177693Y-67681942D02*
X187130074Y-67777180D01*
X187130074Y-67777180D02*
X187082455Y-67824800D01*
X187082455Y-67824800D02*
X186987217Y-67872419D01*
X186987217Y-67872419D02*
X186749122Y-67872419D01*
X186749122Y-67872419D02*
X186653884Y-67824800D01*
X186653884Y-67824800D02*
X186606265Y-67777180D01*
X187463408Y-66872419D02*
X187796741Y-67872419D01*
X187796741Y-67872419D02*
X188130074Y-66872419D01*
X187230074Y-111072419D02*
X186753884Y-111072419D01*
X186753884Y-111072419D02*
X186706265Y-111548609D01*
X186706265Y-111548609D02*
X186753884Y-111500990D01*
X186753884Y-111500990D02*
X186849122Y-111453371D01*
X186849122Y-111453371D02*
X187087217Y-111453371D01*
X187087217Y-111453371D02*
X187182455Y-111500990D01*
X187182455Y-111500990D02*
X187230074Y-111548609D01*
X187230074Y-111548609D02*
X187277693Y-111643847D01*
X187277693Y-111643847D02*
X187277693Y-111881942D01*
X187277693Y-111881942D02*
X187230074Y-111977180D01*
X187230074Y-111977180D02*
X187182455Y-112024800D01*
X187182455Y-112024800D02*
X187087217Y-112072419D01*
X187087217Y-112072419D02*
X186849122Y-112072419D01*
X186849122Y-112072419D02*
X186753884Y-112024800D01*
X186753884Y-112024800D02*
X186706265Y-111977180D01*
X187563408Y-111072419D02*
X187896741Y-112072419D01*
X187896741Y-112072419D02*
X188230074Y-111072419D01*
X187803882Y-114972419D02*
X187803882Y-113972419D01*
X187803882Y-113972419D02*
X188184834Y-113972419D01*
X188184834Y-113972419D02*
X188280072Y-114020038D01*
X188280072Y-114020038D02*
X188327691Y-114067657D01*
X188327691Y-114067657D02*
X188375310Y-114162895D01*
X188375310Y-114162895D02*
X188375310Y-114305752D01*
X188375310Y-114305752D02*
X188327691Y-114400990D01*
X188327691Y-114400990D02*
X188280072Y-114448609D01*
X188280072Y-114448609D02*
X188184834Y-114496228D01*
X188184834Y-114496228D02*
X187803882Y-114496228D01*
X188708644Y-113972419D02*
X188946739Y-114972419D01*
X188946739Y-114972419D02*
X189137215Y-114258133D01*
X189137215Y-114258133D02*
X189327691Y-114972419D01*
X189327691Y-114972419D02*
X189565787Y-113972419D01*
X189946739Y-114972419D02*
X189946739Y-113972419D01*
X189946739Y-113972419D02*
X190280072Y-114686704D01*
X190280072Y-114686704D02*
X190613405Y-113972419D01*
X190613405Y-113972419D02*
X190613405Y-114972419D01*
X191518167Y-114305752D02*
X191518167Y-114972419D01*
X191280072Y-113924800D02*
X191041977Y-114639085D01*
X191041977Y-114639085D02*
X191661024Y-114639085D01*
X189003882Y-125022419D02*
X189003882Y-124022419D01*
X189003882Y-124498609D02*
X189575310Y-124498609D01*
X189575310Y-125022419D02*
X189575310Y-124022419D01*
X190622929Y-124927180D02*
X190575310Y-124974800D01*
X190575310Y-124974800D02*
X190432453Y-125022419D01*
X190432453Y-125022419D02*
X190337215Y-125022419D01*
X190337215Y-125022419D02*
X190194358Y-124974800D01*
X190194358Y-124974800D02*
X190099120Y-124879561D01*
X190099120Y-124879561D02*
X190051501Y-124784323D01*
X190051501Y-124784323D02*
X190003882Y-124593847D01*
X190003882Y-124593847D02*
X190003882Y-124450990D01*
X190003882Y-124450990D02*
X190051501Y-124260514D01*
X190051501Y-124260514D02*
X190099120Y-124165276D01*
X190099120Y-124165276D02*
X190194358Y-124070038D01*
X190194358Y-124070038D02*
X190337215Y-124022419D01*
X190337215Y-124022419D02*
X190432453Y-124022419D01*
X190432453Y-124022419D02*
X190575310Y-124070038D01*
X190575310Y-124070038D02*
X190622929Y-124117657D01*
X191480072Y-124355752D02*
X191480072Y-125022419D01*
X191241977Y-123974800D02*
X191003882Y-124689085D01*
X191003882Y-124689085D02*
X191622929Y-124689085D01*
X189427691Y-126020038D02*
X189332453Y-125972419D01*
X189332453Y-125972419D02*
X189189596Y-125972419D01*
X189189596Y-125972419D02*
X189046739Y-126020038D01*
X189046739Y-126020038D02*
X188951501Y-126115276D01*
X188951501Y-126115276D02*
X188903882Y-126210514D01*
X188903882Y-126210514D02*
X188856263Y-126400990D01*
X188856263Y-126400990D02*
X188856263Y-126543847D01*
X188856263Y-126543847D02*
X188903882Y-126734323D01*
X188903882Y-126734323D02*
X188951501Y-126829561D01*
X188951501Y-126829561D02*
X189046739Y-126924800D01*
X189046739Y-126924800D02*
X189189596Y-126972419D01*
X189189596Y-126972419D02*
X189284834Y-126972419D01*
X189284834Y-126972419D02*
X189427691Y-126924800D01*
X189427691Y-126924800D02*
X189475310Y-126877180D01*
X189475310Y-126877180D02*
X189475310Y-126543847D01*
X189475310Y-126543847D02*
X189284834Y-126543847D01*
X189903882Y-126972419D02*
X189903882Y-125972419D01*
X189903882Y-125972419D02*
X190475310Y-126972419D01*
X190475310Y-126972419D02*
X190475310Y-125972419D01*
X190951501Y-126972419D02*
X190951501Y-125972419D01*
X190951501Y-125972419D02*
X191189596Y-125972419D01*
X191189596Y-125972419D02*
X191332453Y-126020038D01*
X191332453Y-126020038D02*
X191427691Y-126115276D01*
X191427691Y-126115276D02*
X191475310Y-126210514D01*
X191475310Y-126210514D02*
X191522929Y-126400990D01*
X191522929Y-126400990D02*
X191522929Y-126543847D01*
X191522929Y-126543847D02*
X191475310Y-126734323D01*
X191475310Y-126734323D02*
X191427691Y-126829561D01*
X191427691Y-126829561D02*
X191332453Y-126924800D01*
X191332453Y-126924800D02*
X191189596Y-126972419D01*
X191189596Y-126972419D02*
X190951501Y-126972419D01*
X189437215Y-118448609D02*
X189580072Y-118496228D01*
X189580072Y-118496228D02*
X189627691Y-118543847D01*
X189627691Y-118543847D02*
X189675310Y-118639085D01*
X189675310Y-118639085D02*
X189675310Y-118781942D01*
X189675310Y-118781942D02*
X189627691Y-118877180D01*
X189627691Y-118877180D02*
X189580072Y-118924800D01*
X189580072Y-118924800D02*
X189484834Y-118972419D01*
X189484834Y-118972419D02*
X189103882Y-118972419D01*
X189103882Y-118972419D02*
X189103882Y-117972419D01*
X189103882Y-117972419D02*
X189437215Y-117972419D01*
X189437215Y-117972419D02*
X189532453Y-118020038D01*
X189532453Y-118020038D02*
X189580072Y-118067657D01*
X189580072Y-118067657D02*
X189627691Y-118162895D01*
X189627691Y-118162895D02*
X189627691Y-118258133D01*
X189627691Y-118258133D02*
X189580072Y-118353371D01*
X189580072Y-118353371D02*
X189532453Y-118400990D01*
X189532453Y-118400990D02*
X189437215Y-118448609D01*
X189437215Y-118448609D02*
X189103882Y-118448609D01*
X190675310Y-118972419D02*
X190341977Y-118496228D01*
X190103882Y-118972419D02*
X190103882Y-117972419D01*
X190103882Y-117972419D02*
X190484834Y-117972419D01*
X190484834Y-117972419D02*
X190580072Y-118020038D01*
X190580072Y-118020038D02*
X190627691Y-118067657D01*
X190627691Y-118067657D02*
X190675310Y-118162895D01*
X190675310Y-118162895D02*
X190675310Y-118305752D01*
X190675310Y-118305752D02*
X190627691Y-118400990D01*
X190627691Y-118400990D02*
X190580072Y-118448609D01*
X190580072Y-118448609D02*
X190484834Y-118496228D01*
X190484834Y-118496228D02*
X190103882Y-118496228D01*
X191532453Y-118305752D02*
X191532453Y-118972419D01*
X191294358Y-117924800D02*
X191056263Y-118639085D01*
X191056263Y-118639085D02*
X191675310Y-118639085D01*
X189153882Y-121022419D02*
X189153882Y-120022419D01*
X189153882Y-120498609D02*
X189725310Y-120498609D01*
X189725310Y-121022419D02*
X189725310Y-120022419D01*
X190153882Y-120736704D02*
X190630072Y-120736704D01*
X190058644Y-121022419D02*
X190391977Y-120022419D01*
X190391977Y-120022419D02*
X190725310Y-121022419D01*
X191487215Y-120355752D02*
X191487215Y-121022419D01*
X191249120Y-119974800D02*
X191011025Y-120689085D01*
X191011025Y-120689085D02*
X191630072Y-120689085D01*
X174103884Y-123222419D02*
X174103884Y-122222419D01*
X174103884Y-122698609D02*
X174675312Y-122698609D01*
X174675312Y-123222419D02*
X174675312Y-122222419D01*
X175484836Y-122698609D02*
X175627693Y-122746228D01*
X175627693Y-122746228D02*
X175675312Y-122793847D01*
X175675312Y-122793847D02*
X175722931Y-122889085D01*
X175722931Y-122889085D02*
X175722931Y-123031942D01*
X175722931Y-123031942D02*
X175675312Y-123127180D01*
X175675312Y-123127180D02*
X175627693Y-123174800D01*
X175627693Y-123174800D02*
X175532455Y-123222419D01*
X175532455Y-123222419D02*
X175151503Y-123222419D01*
X175151503Y-123222419D02*
X175151503Y-122222419D01*
X175151503Y-122222419D02*
X175484836Y-122222419D01*
X175484836Y-122222419D02*
X175580074Y-122270038D01*
X175580074Y-122270038D02*
X175627693Y-122317657D01*
X175627693Y-122317657D02*
X175675312Y-122412895D01*
X175675312Y-122412895D02*
X175675312Y-122508133D01*
X175675312Y-122508133D02*
X175627693Y-122603371D01*
X175627693Y-122603371D02*
X175580074Y-122650990D01*
X175580074Y-122650990D02*
X175484836Y-122698609D01*
X175484836Y-122698609D02*
X175151503Y-122698609D01*
X176580074Y-122555752D02*
X176580074Y-123222419D01*
X176341979Y-122174800D02*
X176103884Y-122889085D01*
X176103884Y-122889085D02*
X176722931Y-122889085D01*
X174253884Y-121222419D02*
X174253884Y-120222419D01*
X174253884Y-120698609D02*
X174825312Y-120698609D01*
X174825312Y-121222419D02*
X174825312Y-120222419D01*
X175253884Y-120936704D02*
X175730074Y-120936704D01*
X175158646Y-121222419D02*
X175491979Y-120222419D01*
X175491979Y-120222419D02*
X175825312Y-121222419D01*
X176587217Y-120555752D02*
X176587217Y-121222419D01*
X176349122Y-120174800D02*
X176111027Y-120889085D01*
X176111027Y-120889085D02*
X176730074Y-120889085D01*
X174527693Y-126220038D02*
X174432455Y-126172419D01*
X174432455Y-126172419D02*
X174289598Y-126172419D01*
X174289598Y-126172419D02*
X174146741Y-126220038D01*
X174146741Y-126220038D02*
X174051503Y-126315276D01*
X174051503Y-126315276D02*
X174003884Y-126410514D01*
X174003884Y-126410514D02*
X173956265Y-126600990D01*
X173956265Y-126600990D02*
X173956265Y-126743847D01*
X173956265Y-126743847D02*
X174003884Y-126934323D01*
X174003884Y-126934323D02*
X174051503Y-127029561D01*
X174051503Y-127029561D02*
X174146741Y-127124800D01*
X174146741Y-127124800D02*
X174289598Y-127172419D01*
X174289598Y-127172419D02*
X174384836Y-127172419D01*
X174384836Y-127172419D02*
X174527693Y-127124800D01*
X174527693Y-127124800D02*
X174575312Y-127077180D01*
X174575312Y-127077180D02*
X174575312Y-126743847D01*
X174575312Y-126743847D02*
X174384836Y-126743847D01*
X175003884Y-127172419D02*
X175003884Y-126172419D01*
X175003884Y-126172419D02*
X175575312Y-127172419D01*
X175575312Y-127172419D02*
X175575312Y-126172419D01*
X176051503Y-127172419D02*
X176051503Y-126172419D01*
X176051503Y-126172419D02*
X176289598Y-126172419D01*
X176289598Y-126172419D02*
X176432455Y-126220038D01*
X176432455Y-126220038D02*
X176527693Y-126315276D01*
X176527693Y-126315276D02*
X176575312Y-126410514D01*
X176575312Y-126410514D02*
X176622931Y-126600990D01*
X176622931Y-126600990D02*
X176622931Y-126743847D01*
X176622931Y-126743847D02*
X176575312Y-126934323D01*
X176575312Y-126934323D02*
X176527693Y-127029561D01*
X176527693Y-127029561D02*
X176432455Y-127124800D01*
X176432455Y-127124800D02*
X176289598Y-127172419D01*
X176289598Y-127172419D02*
X176051503Y-127172419D01*
X188553882Y-117022419D02*
X188553882Y-116022419D01*
X188553882Y-116022419D02*
X188791977Y-116022419D01*
X188791977Y-116022419D02*
X188934834Y-116070038D01*
X188934834Y-116070038D02*
X189030072Y-116165276D01*
X189030072Y-116165276D02*
X189077691Y-116260514D01*
X189077691Y-116260514D02*
X189125310Y-116450990D01*
X189125310Y-116450990D02*
X189125310Y-116593847D01*
X189125310Y-116593847D02*
X189077691Y-116784323D01*
X189077691Y-116784323D02*
X189030072Y-116879561D01*
X189030072Y-116879561D02*
X188934834Y-116974800D01*
X188934834Y-116974800D02*
X188791977Y-117022419D01*
X188791977Y-117022419D02*
X188553882Y-117022419D01*
X189553882Y-117022419D02*
X189553882Y-116022419D01*
X190601500Y-117022419D02*
X190268167Y-116546228D01*
X190030072Y-117022419D02*
X190030072Y-116022419D01*
X190030072Y-116022419D02*
X190411024Y-116022419D01*
X190411024Y-116022419D02*
X190506262Y-116070038D01*
X190506262Y-116070038D02*
X190553881Y-116117657D01*
X190553881Y-116117657D02*
X190601500Y-116212895D01*
X190601500Y-116212895D02*
X190601500Y-116355752D01*
X190601500Y-116355752D02*
X190553881Y-116450990D01*
X190553881Y-116450990D02*
X190506262Y-116498609D01*
X190506262Y-116498609D02*
X190411024Y-116546228D01*
X190411024Y-116546228D02*
X190030072Y-116546228D01*
X191458643Y-116355752D02*
X191458643Y-117022419D01*
X191220548Y-115974800D02*
X190982453Y-116689085D01*
X190982453Y-116689085D02*
X191601500Y-116689085D01*
X174103884Y-125222419D02*
X174103884Y-124222419D01*
X174103884Y-124698609D02*
X174675312Y-124698609D01*
X174675312Y-125222419D02*
X174675312Y-124222419D01*
X175722931Y-125127180D02*
X175675312Y-125174800D01*
X175675312Y-125174800D02*
X175532455Y-125222419D01*
X175532455Y-125222419D02*
X175437217Y-125222419D01*
X175437217Y-125222419D02*
X175294360Y-125174800D01*
X175294360Y-125174800D02*
X175199122Y-125079561D01*
X175199122Y-125079561D02*
X175151503Y-124984323D01*
X175151503Y-124984323D02*
X175103884Y-124793847D01*
X175103884Y-124793847D02*
X175103884Y-124650990D01*
X175103884Y-124650990D02*
X175151503Y-124460514D01*
X175151503Y-124460514D02*
X175199122Y-124365276D01*
X175199122Y-124365276D02*
X175294360Y-124270038D01*
X175294360Y-124270038D02*
X175437217Y-124222419D01*
X175437217Y-124222419D02*
X175532455Y-124222419D01*
X175532455Y-124222419D02*
X175675312Y-124270038D01*
X175675312Y-124270038D02*
X175722931Y-124317657D01*
X176580074Y-124555752D02*
X176580074Y-125222419D01*
X176341979Y-124174800D02*
X176103884Y-124889085D01*
X176103884Y-124889085D02*
X176722931Y-124889085D01*
X189003882Y-123022419D02*
X189003882Y-122022419D01*
X189003882Y-122498609D02*
X189575310Y-122498609D01*
X189575310Y-123022419D02*
X189575310Y-122022419D01*
X190384834Y-122498609D02*
X190527691Y-122546228D01*
X190527691Y-122546228D02*
X190575310Y-122593847D01*
X190575310Y-122593847D02*
X190622929Y-122689085D01*
X190622929Y-122689085D02*
X190622929Y-122831942D01*
X190622929Y-122831942D02*
X190575310Y-122927180D01*
X190575310Y-122927180D02*
X190527691Y-122974800D01*
X190527691Y-122974800D02*
X190432453Y-123022419D01*
X190432453Y-123022419D02*
X190051501Y-123022419D01*
X190051501Y-123022419D02*
X190051501Y-122022419D01*
X190051501Y-122022419D02*
X190384834Y-122022419D01*
X190384834Y-122022419D02*
X190480072Y-122070038D01*
X190480072Y-122070038D02*
X190527691Y-122117657D01*
X190527691Y-122117657D02*
X190575310Y-122212895D01*
X190575310Y-122212895D02*
X190575310Y-122308133D01*
X190575310Y-122308133D02*
X190527691Y-122403371D01*
X190527691Y-122403371D02*
X190480072Y-122450990D01*
X190480072Y-122450990D02*
X190384834Y-122498609D01*
X190384834Y-122498609D02*
X190051501Y-122498609D01*
X191480072Y-122355752D02*
X191480072Y-123022419D01*
X191241977Y-121974800D02*
X191003882Y-122689085D01*
X191003882Y-122689085D02*
X191622929Y-122689085D01*
X173653884Y-117222419D02*
X173653884Y-116222419D01*
X173653884Y-116222419D02*
X173891979Y-116222419D01*
X173891979Y-116222419D02*
X174034836Y-116270038D01*
X174034836Y-116270038D02*
X174130074Y-116365276D01*
X174130074Y-116365276D02*
X174177693Y-116460514D01*
X174177693Y-116460514D02*
X174225312Y-116650990D01*
X174225312Y-116650990D02*
X174225312Y-116793847D01*
X174225312Y-116793847D02*
X174177693Y-116984323D01*
X174177693Y-116984323D02*
X174130074Y-117079561D01*
X174130074Y-117079561D02*
X174034836Y-117174800D01*
X174034836Y-117174800D02*
X173891979Y-117222419D01*
X173891979Y-117222419D02*
X173653884Y-117222419D01*
X174653884Y-117222419D02*
X174653884Y-116222419D01*
X175701502Y-117222419D02*
X175368169Y-116746228D01*
X175130074Y-117222419D02*
X175130074Y-116222419D01*
X175130074Y-116222419D02*
X175511026Y-116222419D01*
X175511026Y-116222419D02*
X175606264Y-116270038D01*
X175606264Y-116270038D02*
X175653883Y-116317657D01*
X175653883Y-116317657D02*
X175701502Y-116412895D01*
X175701502Y-116412895D02*
X175701502Y-116555752D01*
X175701502Y-116555752D02*
X175653883Y-116650990D01*
X175653883Y-116650990D02*
X175606264Y-116698609D01*
X175606264Y-116698609D02*
X175511026Y-116746228D01*
X175511026Y-116746228D02*
X175130074Y-116746228D01*
X176558645Y-116555752D02*
X176558645Y-117222419D01*
X176320550Y-116174800D02*
X176082455Y-116889085D01*
X176082455Y-116889085D02*
X176701502Y-116889085D01*
X174537217Y-118648609D02*
X174680074Y-118696228D01*
X174680074Y-118696228D02*
X174727693Y-118743847D01*
X174727693Y-118743847D02*
X174775312Y-118839085D01*
X174775312Y-118839085D02*
X174775312Y-118981942D01*
X174775312Y-118981942D02*
X174727693Y-119077180D01*
X174727693Y-119077180D02*
X174680074Y-119124800D01*
X174680074Y-119124800D02*
X174584836Y-119172419D01*
X174584836Y-119172419D02*
X174203884Y-119172419D01*
X174203884Y-119172419D02*
X174203884Y-118172419D01*
X174203884Y-118172419D02*
X174537217Y-118172419D01*
X174537217Y-118172419D02*
X174632455Y-118220038D01*
X174632455Y-118220038D02*
X174680074Y-118267657D01*
X174680074Y-118267657D02*
X174727693Y-118362895D01*
X174727693Y-118362895D02*
X174727693Y-118458133D01*
X174727693Y-118458133D02*
X174680074Y-118553371D01*
X174680074Y-118553371D02*
X174632455Y-118600990D01*
X174632455Y-118600990D02*
X174537217Y-118648609D01*
X174537217Y-118648609D02*
X174203884Y-118648609D01*
X175775312Y-119172419D02*
X175441979Y-118696228D01*
X175203884Y-119172419D02*
X175203884Y-118172419D01*
X175203884Y-118172419D02*
X175584836Y-118172419D01*
X175584836Y-118172419D02*
X175680074Y-118220038D01*
X175680074Y-118220038D02*
X175727693Y-118267657D01*
X175727693Y-118267657D02*
X175775312Y-118362895D01*
X175775312Y-118362895D02*
X175775312Y-118505752D01*
X175775312Y-118505752D02*
X175727693Y-118600990D01*
X175727693Y-118600990D02*
X175680074Y-118648609D01*
X175680074Y-118648609D02*
X175584836Y-118696228D01*
X175584836Y-118696228D02*
X175203884Y-118696228D01*
X176632455Y-118505752D02*
X176632455Y-119172419D01*
X176394360Y-118124800D02*
X176156265Y-118839085D01*
X176156265Y-118839085D02*
X176775312Y-118839085D01*
X172903884Y-115172419D02*
X172903884Y-114172419D01*
X172903884Y-114172419D02*
X173284836Y-114172419D01*
X173284836Y-114172419D02*
X173380074Y-114220038D01*
X173380074Y-114220038D02*
X173427693Y-114267657D01*
X173427693Y-114267657D02*
X173475312Y-114362895D01*
X173475312Y-114362895D02*
X173475312Y-114505752D01*
X173475312Y-114505752D02*
X173427693Y-114600990D01*
X173427693Y-114600990D02*
X173380074Y-114648609D01*
X173380074Y-114648609D02*
X173284836Y-114696228D01*
X173284836Y-114696228D02*
X172903884Y-114696228D01*
X173808646Y-114172419D02*
X174046741Y-115172419D01*
X174046741Y-115172419D02*
X174237217Y-114458133D01*
X174237217Y-114458133D02*
X174427693Y-115172419D01*
X174427693Y-115172419D02*
X174665789Y-114172419D01*
X175046741Y-115172419D02*
X175046741Y-114172419D01*
X175046741Y-114172419D02*
X175380074Y-114886704D01*
X175380074Y-114886704D02*
X175713407Y-114172419D01*
X175713407Y-114172419D02*
X175713407Y-115172419D01*
X176618169Y-114505752D02*
X176618169Y-115172419D01*
X176380074Y-114124800D02*
X176141979Y-114839085D01*
X176141979Y-114839085D02*
X176761026Y-114839085D01*
X187753882Y-71022419D02*
X187753882Y-70022419D01*
X187753882Y-70022419D02*
X188134834Y-70022419D01*
X188134834Y-70022419D02*
X188230072Y-70070038D01*
X188230072Y-70070038D02*
X188277691Y-70117657D01*
X188277691Y-70117657D02*
X188325310Y-70212895D01*
X188325310Y-70212895D02*
X188325310Y-70355752D01*
X188325310Y-70355752D02*
X188277691Y-70450990D01*
X188277691Y-70450990D02*
X188230072Y-70498609D01*
X188230072Y-70498609D02*
X188134834Y-70546228D01*
X188134834Y-70546228D02*
X187753882Y-70546228D01*
X188658644Y-70022419D02*
X188896739Y-71022419D01*
X188896739Y-71022419D02*
X189087215Y-70308133D01*
X189087215Y-70308133D02*
X189277691Y-71022419D01*
X189277691Y-71022419D02*
X189515787Y-70022419D01*
X189896739Y-71022419D02*
X189896739Y-70022419D01*
X189896739Y-70022419D02*
X190230072Y-70736704D01*
X190230072Y-70736704D02*
X190563405Y-70022419D01*
X190563405Y-70022419D02*
X190563405Y-71022419D01*
X190991977Y-70117657D02*
X191039596Y-70070038D01*
X191039596Y-70070038D02*
X191134834Y-70022419D01*
X191134834Y-70022419D02*
X191372929Y-70022419D01*
X191372929Y-70022419D02*
X191468167Y-70070038D01*
X191468167Y-70070038D02*
X191515786Y-70117657D01*
X191515786Y-70117657D02*
X191563405Y-70212895D01*
X191563405Y-70212895D02*
X191563405Y-70308133D01*
X191563405Y-70308133D02*
X191515786Y-70450990D01*
X191515786Y-70450990D02*
X190944358Y-71022419D01*
X190944358Y-71022419D02*
X191563405Y-71022419D01*
X188953882Y-81072419D02*
X188953882Y-80072419D01*
X188953882Y-80548609D02*
X189525310Y-80548609D01*
X189525310Y-81072419D02*
X189525310Y-80072419D01*
X190572929Y-80977180D02*
X190525310Y-81024800D01*
X190525310Y-81024800D02*
X190382453Y-81072419D01*
X190382453Y-81072419D02*
X190287215Y-81072419D01*
X190287215Y-81072419D02*
X190144358Y-81024800D01*
X190144358Y-81024800D02*
X190049120Y-80929561D01*
X190049120Y-80929561D02*
X190001501Y-80834323D01*
X190001501Y-80834323D02*
X189953882Y-80643847D01*
X189953882Y-80643847D02*
X189953882Y-80500990D01*
X189953882Y-80500990D02*
X190001501Y-80310514D01*
X190001501Y-80310514D02*
X190049120Y-80215276D01*
X190049120Y-80215276D02*
X190144358Y-80120038D01*
X190144358Y-80120038D02*
X190287215Y-80072419D01*
X190287215Y-80072419D02*
X190382453Y-80072419D01*
X190382453Y-80072419D02*
X190525310Y-80120038D01*
X190525310Y-80120038D02*
X190572929Y-80167657D01*
X190953882Y-80167657D02*
X191001501Y-80120038D01*
X191001501Y-80120038D02*
X191096739Y-80072419D01*
X191096739Y-80072419D02*
X191334834Y-80072419D01*
X191334834Y-80072419D02*
X191430072Y-80120038D01*
X191430072Y-80120038D02*
X191477691Y-80167657D01*
X191477691Y-80167657D02*
X191525310Y-80262895D01*
X191525310Y-80262895D02*
X191525310Y-80358133D01*
X191525310Y-80358133D02*
X191477691Y-80500990D01*
X191477691Y-80500990D02*
X190906263Y-81072419D01*
X190906263Y-81072419D02*
X191525310Y-81072419D01*
X189377691Y-82070038D02*
X189282453Y-82022419D01*
X189282453Y-82022419D02*
X189139596Y-82022419D01*
X189139596Y-82022419D02*
X188996739Y-82070038D01*
X188996739Y-82070038D02*
X188901501Y-82165276D01*
X188901501Y-82165276D02*
X188853882Y-82260514D01*
X188853882Y-82260514D02*
X188806263Y-82450990D01*
X188806263Y-82450990D02*
X188806263Y-82593847D01*
X188806263Y-82593847D02*
X188853882Y-82784323D01*
X188853882Y-82784323D02*
X188901501Y-82879561D01*
X188901501Y-82879561D02*
X188996739Y-82974800D01*
X188996739Y-82974800D02*
X189139596Y-83022419D01*
X189139596Y-83022419D02*
X189234834Y-83022419D01*
X189234834Y-83022419D02*
X189377691Y-82974800D01*
X189377691Y-82974800D02*
X189425310Y-82927180D01*
X189425310Y-82927180D02*
X189425310Y-82593847D01*
X189425310Y-82593847D02*
X189234834Y-82593847D01*
X189853882Y-83022419D02*
X189853882Y-82022419D01*
X189853882Y-82022419D02*
X190425310Y-83022419D01*
X190425310Y-83022419D02*
X190425310Y-82022419D01*
X190901501Y-83022419D02*
X190901501Y-82022419D01*
X190901501Y-82022419D02*
X191139596Y-82022419D01*
X191139596Y-82022419D02*
X191282453Y-82070038D01*
X191282453Y-82070038D02*
X191377691Y-82165276D01*
X191377691Y-82165276D02*
X191425310Y-82260514D01*
X191425310Y-82260514D02*
X191472929Y-82450990D01*
X191472929Y-82450990D02*
X191472929Y-82593847D01*
X191472929Y-82593847D02*
X191425310Y-82784323D01*
X191425310Y-82784323D02*
X191377691Y-82879561D01*
X191377691Y-82879561D02*
X191282453Y-82974800D01*
X191282453Y-82974800D02*
X191139596Y-83022419D01*
X191139596Y-83022419D02*
X190901501Y-83022419D01*
X189387215Y-74498609D02*
X189530072Y-74546228D01*
X189530072Y-74546228D02*
X189577691Y-74593847D01*
X189577691Y-74593847D02*
X189625310Y-74689085D01*
X189625310Y-74689085D02*
X189625310Y-74831942D01*
X189625310Y-74831942D02*
X189577691Y-74927180D01*
X189577691Y-74927180D02*
X189530072Y-74974800D01*
X189530072Y-74974800D02*
X189434834Y-75022419D01*
X189434834Y-75022419D02*
X189053882Y-75022419D01*
X189053882Y-75022419D02*
X189053882Y-74022419D01*
X189053882Y-74022419D02*
X189387215Y-74022419D01*
X189387215Y-74022419D02*
X189482453Y-74070038D01*
X189482453Y-74070038D02*
X189530072Y-74117657D01*
X189530072Y-74117657D02*
X189577691Y-74212895D01*
X189577691Y-74212895D02*
X189577691Y-74308133D01*
X189577691Y-74308133D02*
X189530072Y-74403371D01*
X189530072Y-74403371D02*
X189482453Y-74450990D01*
X189482453Y-74450990D02*
X189387215Y-74498609D01*
X189387215Y-74498609D02*
X189053882Y-74498609D01*
X190625310Y-75022419D02*
X190291977Y-74546228D01*
X190053882Y-75022419D02*
X190053882Y-74022419D01*
X190053882Y-74022419D02*
X190434834Y-74022419D01*
X190434834Y-74022419D02*
X190530072Y-74070038D01*
X190530072Y-74070038D02*
X190577691Y-74117657D01*
X190577691Y-74117657D02*
X190625310Y-74212895D01*
X190625310Y-74212895D02*
X190625310Y-74355752D01*
X190625310Y-74355752D02*
X190577691Y-74450990D01*
X190577691Y-74450990D02*
X190530072Y-74498609D01*
X190530072Y-74498609D02*
X190434834Y-74546228D01*
X190434834Y-74546228D02*
X190053882Y-74546228D01*
X191006263Y-74117657D02*
X191053882Y-74070038D01*
X191053882Y-74070038D02*
X191149120Y-74022419D01*
X191149120Y-74022419D02*
X191387215Y-74022419D01*
X191387215Y-74022419D02*
X191482453Y-74070038D01*
X191482453Y-74070038D02*
X191530072Y-74117657D01*
X191530072Y-74117657D02*
X191577691Y-74212895D01*
X191577691Y-74212895D02*
X191577691Y-74308133D01*
X191577691Y-74308133D02*
X191530072Y-74450990D01*
X191530072Y-74450990D02*
X190958644Y-75022419D01*
X190958644Y-75022419D02*
X191577691Y-75022419D01*
X189103882Y-77072419D02*
X189103882Y-76072419D01*
X189103882Y-76548609D02*
X189675310Y-76548609D01*
X189675310Y-77072419D02*
X189675310Y-76072419D01*
X190103882Y-76786704D02*
X190580072Y-76786704D01*
X190008644Y-77072419D02*
X190341977Y-76072419D01*
X190341977Y-76072419D02*
X190675310Y-77072419D01*
X190961025Y-76167657D02*
X191008644Y-76120038D01*
X191008644Y-76120038D02*
X191103882Y-76072419D01*
X191103882Y-76072419D02*
X191341977Y-76072419D01*
X191341977Y-76072419D02*
X191437215Y-76120038D01*
X191437215Y-76120038D02*
X191484834Y-76167657D01*
X191484834Y-76167657D02*
X191532453Y-76262895D01*
X191532453Y-76262895D02*
X191532453Y-76358133D01*
X191532453Y-76358133D02*
X191484834Y-76500990D01*
X191484834Y-76500990D02*
X190913406Y-77072419D01*
X190913406Y-77072419D02*
X191532453Y-77072419D01*
X174053884Y-79272419D02*
X174053884Y-78272419D01*
X174053884Y-78748609D02*
X174625312Y-78748609D01*
X174625312Y-79272419D02*
X174625312Y-78272419D01*
X175434836Y-78748609D02*
X175577693Y-78796228D01*
X175577693Y-78796228D02*
X175625312Y-78843847D01*
X175625312Y-78843847D02*
X175672931Y-78939085D01*
X175672931Y-78939085D02*
X175672931Y-79081942D01*
X175672931Y-79081942D02*
X175625312Y-79177180D01*
X175625312Y-79177180D02*
X175577693Y-79224800D01*
X175577693Y-79224800D02*
X175482455Y-79272419D01*
X175482455Y-79272419D02*
X175101503Y-79272419D01*
X175101503Y-79272419D02*
X175101503Y-78272419D01*
X175101503Y-78272419D02*
X175434836Y-78272419D01*
X175434836Y-78272419D02*
X175530074Y-78320038D01*
X175530074Y-78320038D02*
X175577693Y-78367657D01*
X175577693Y-78367657D02*
X175625312Y-78462895D01*
X175625312Y-78462895D02*
X175625312Y-78558133D01*
X175625312Y-78558133D02*
X175577693Y-78653371D01*
X175577693Y-78653371D02*
X175530074Y-78700990D01*
X175530074Y-78700990D02*
X175434836Y-78748609D01*
X175434836Y-78748609D02*
X175101503Y-78748609D01*
X176053884Y-78367657D02*
X176101503Y-78320038D01*
X176101503Y-78320038D02*
X176196741Y-78272419D01*
X176196741Y-78272419D02*
X176434836Y-78272419D01*
X176434836Y-78272419D02*
X176530074Y-78320038D01*
X176530074Y-78320038D02*
X176577693Y-78367657D01*
X176577693Y-78367657D02*
X176625312Y-78462895D01*
X176625312Y-78462895D02*
X176625312Y-78558133D01*
X176625312Y-78558133D02*
X176577693Y-78700990D01*
X176577693Y-78700990D02*
X176006265Y-79272419D01*
X176006265Y-79272419D02*
X176625312Y-79272419D01*
X174203884Y-77272419D02*
X174203884Y-76272419D01*
X174203884Y-76748609D02*
X174775312Y-76748609D01*
X174775312Y-77272419D02*
X174775312Y-76272419D01*
X175203884Y-76986704D02*
X175680074Y-76986704D01*
X175108646Y-77272419D02*
X175441979Y-76272419D01*
X175441979Y-76272419D02*
X175775312Y-77272419D01*
X176061027Y-76367657D02*
X176108646Y-76320038D01*
X176108646Y-76320038D02*
X176203884Y-76272419D01*
X176203884Y-76272419D02*
X176441979Y-76272419D01*
X176441979Y-76272419D02*
X176537217Y-76320038D01*
X176537217Y-76320038D02*
X176584836Y-76367657D01*
X176584836Y-76367657D02*
X176632455Y-76462895D01*
X176632455Y-76462895D02*
X176632455Y-76558133D01*
X176632455Y-76558133D02*
X176584836Y-76700990D01*
X176584836Y-76700990D02*
X176013408Y-77272419D01*
X176013408Y-77272419D02*
X176632455Y-77272419D01*
X174477693Y-82270038D02*
X174382455Y-82222419D01*
X174382455Y-82222419D02*
X174239598Y-82222419D01*
X174239598Y-82222419D02*
X174096741Y-82270038D01*
X174096741Y-82270038D02*
X174001503Y-82365276D01*
X174001503Y-82365276D02*
X173953884Y-82460514D01*
X173953884Y-82460514D02*
X173906265Y-82650990D01*
X173906265Y-82650990D02*
X173906265Y-82793847D01*
X173906265Y-82793847D02*
X173953884Y-82984323D01*
X173953884Y-82984323D02*
X174001503Y-83079561D01*
X174001503Y-83079561D02*
X174096741Y-83174800D01*
X174096741Y-83174800D02*
X174239598Y-83222419D01*
X174239598Y-83222419D02*
X174334836Y-83222419D01*
X174334836Y-83222419D02*
X174477693Y-83174800D01*
X174477693Y-83174800D02*
X174525312Y-83127180D01*
X174525312Y-83127180D02*
X174525312Y-82793847D01*
X174525312Y-82793847D02*
X174334836Y-82793847D01*
X174953884Y-83222419D02*
X174953884Y-82222419D01*
X174953884Y-82222419D02*
X175525312Y-83222419D01*
X175525312Y-83222419D02*
X175525312Y-82222419D01*
X176001503Y-83222419D02*
X176001503Y-82222419D01*
X176001503Y-82222419D02*
X176239598Y-82222419D01*
X176239598Y-82222419D02*
X176382455Y-82270038D01*
X176382455Y-82270038D02*
X176477693Y-82365276D01*
X176477693Y-82365276D02*
X176525312Y-82460514D01*
X176525312Y-82460514D02*
X176572931Y-82650990D01*
X176572931Y-82650990D02*
X176572931Y-82793847D01*
X176572931Y-82793847D02*
X176525312Y-82984323D01*
X176525312Y-82984323D02*
X176477693Y-83079561D01*
X176477693Y-83079561D02*
X176382455Y-83174800D01*
X176382455Y-83174800D02*
X176239598Y-83222419D01*
X176239598Y-83222419D02*
X176001503Y-83222419D01*
X188503882Y-73072419D02*
X188503882Y-72072419D01*
X188503882Y-72072419D02*
X188741977Y-72072419D01*
X188741977Y-72072419D02*
X188884834Y-72120038D01*
X188884834Y-72120038D02*
X188980072Y-72215276D01*
X188980072Y-72215276D02*
X189027691Y-72310514D01*
X189027691Y-72310514D02*
X189075310Y-72500990D01*
X189075310Y-72500990D02*
X189075310Y-72643847D01*
X189075310Y-72643847D02*
X189027691Y-72834323D01*
X189027691Y-72834323D02*
X188980072Y-72929561D01*
X188980072Y-72929561D02*
X188884834Y-73024800D01*
X188884834Y-73024800D02*
X188741977Y-73072419D01*
X188741977Y-73072419D02*
X188503882Y-73072419D01*
X189503882Y-73072419D02*
X189503882Y-72072419D01*
X190551500Y-73072419D02*
X190218167Y-72596228D01*
X189980072Y-73072419D02*
X189980072Y-72072419D01*
X189980072Y-72072419D02*
X190361024Y-72072419D01*
X190361024Y-72072419D02*
X190456262Y-72120038D01*
X190456262Y-72120038D02*
X190503881Y-72167657D01*
X190503881Y-72167657D02*
X190551500Y-72262895D01*
X190551500Y-72262895D02*
X190551500Y-72405752D01*
X190551500Y-72405752D02*
X190503881Y-72500990D01*
X190503881Y-72500990D02*
X190456262Y-72548609D01*
X190456262Y-72548609D02*
X190361024Y-72596228D01*
X190361024Y-72596228D02*
X189980072Y-72596228D01*
X190932453Y-72167657D02*
X190980072Y-72120038D01*
X190980072Y-72120038D02*
X191075310Y-72072419D01*
X191075310Y-72072419D02*
X191313405Y-72072419D01*
X191313405Y-72072419D02*
X191408643Y-72120038D01*
X191408643Y-72120038D02*
X191456262Y-72167657D01*
X191456262Y-72167657D02*
X191503881Y-72262895D01*
X191503881Y-72262895D02*
X191503881Y-72358133D01*
X191503881Y-72358133D02*
X191456262Y-72500990D01*
X191456262Y-72500990D02*
X190884834Y-73072419D01*
X190884834Y-73072419D02*
X191503881Y-73072419D01*
X174053884Y-81272419D02*
X174053884Y-80272419D01*
X174053884Y-80748609D02*
X174625312Y-80748609D01*
X174625312Y-81272419D02*
X174625312Y-80272419D01*
X175672931Y-81177180D02*
X175625312Y-81224800D01*
X175625312Y-81224800D02*
X175482455Y-81272419D01*
X175482455Y-81272419D02*
X175387217Y-81272419D01*
X175387217Y-81272419D02*
X175244360Y-81224800D01*
X175244360Y-81224800D02*
X175149122Y-81129561D01*
X175149122Y-81129561D02*
X175101503Y-81034323D01*
X175101503Y-81034323D02*
X175053884Y-80843847D01*
X175053884Y-80843847D02*
X175053884Y-80700990D01*
X175053884Y-80700990D02*
X175101503Y-80510514D01*
X175101503Y-80510514D02*
X175149122Y-80415276D01*
X175149122Y-80415276D02*
X175244360Y-80320038D01*
X175244360Y-80320038D02*
X175387217Y-80272419D01*
X175387217Y-80272419D02*
X175482455Y-80272419D01*
X175482455Y-80272419D02*
X175625312Y-80320038D01*
X175625312Y-80320038D02*
X175672931Y-80367657D01*
X176053884Y-80367657D02*
X176101503Y-80320038D01*
X176101503Y-80320038D02*
X176196741Y-80272419D01*
X176196741Y-80272419D02*
X176434836Y-80272419D01*
X176434836Y-80272419D02*
X176530074Y-80320038D01*
X176530074Y-80320038D02*
X176577693Y-80367657D01*
X176577693Y-80367657D02*
X176625312Y-80462895D01*
X176625312Y-80462895D02*
X176625312Y-80558133D01*
X176625312Y-80558133D02*
X176577693Y-80700990D01*
X176577693Y-80700990D02*
X176006265Y-81272419D01*
X176006265Y-81272419D02*
X176625312Y-81272419D01*
X188953882Y-79072419D02*
X188953882Y-78072419D01*
X188953882Y-78548609D02*
X189525310Y-78548609D01*
X189525310Y-79072419D02*
X189525310Y-78072419D01*
X190334834Y-78548609D02*
X190477691Y-78596228D01*
X190477691Y-78596228D02*
X190525310Y-78643847D01*
X190525310Y-78643847D02*
X190572929Y-78739085D01*
X190572929Y-78739085D02*
X190572929Y-78881942D01*
X190572929Y-78881942D02*
X190525310Y-78977180D01*
X190525310Y-78977180D02*
X190477691Y-79024800D01*
X190477691Y-79024800D02*
X190382453Y-79072419D01*
X190382453Y-79072419D02*
X190001501Y-79072419D01*
X190001501Y-79072419D02*
X190001501Y-78072419D01*
X190001501Y-78072419D02*
X190334834Y-78072419D01*
X190334834Y-78072419D02*
X190430072Y-78120038D01*
X190430072Y-78120038D02*
X190477691Y-78167657D01*
X190477691Y-78167657D02*
X190525310Y-78262895D01*
X190525310Y-78262895D02*
X190525310Y-78358133D01*
X190525310Y-78358133D02*
X190477691Y-78453371D01*
X190477691Y-78453371D02*
X190430072Y-78500990D01*
X190430072Y-78500990D02*
X190334834Y-78548609D01*
X190334834Y-78548609D02*
X190001501Y-78548609D01*
X190953882Y-78167657D02*
X191001501Y-78120038D01*
X191001501Y-78120038D02*
X191096739Y-78072419D01*
X191096739Y-78072419D02*
X191334834Y-78072419D01*
X191334834Y-78072419D02*
X191430072Y-78120038D01*
X191430072Y-78120038D02*
X191477691Y-78167657D01*
X191477691Y-78167657D02*
X191525310Y-78262895D01*
X191525310Y-78262895D02*
X191525310Y-78358133D01*
X191525310Y-78358133D02*
X191477691Y-78500990D01*
X191477691Y-78500990D02*
X190906263Y-79072419D01*
X190906263Y-79072419D02*
X191525310Y-79072419D01*
X173603884Y-73272419D02*
X173603884Y-72272419D01*
X173603884Y-72272419D02*
X173841979Y-72272419D01*
X173841979Y-72272419D02*
X173984836Y-72320038D01*
X173984836Y-72320038D02*
X174080074Y-72415276D01*
X174080074Y-72415276D02*
X174127693Y-72510514D01*
X174127693Y-72510514D02*
X174175312Y-72700990D01*
X174175312Y-72700990D02*
X174175312Y-72843847D01*
X174175312Y-72843847D02*
X174127693Y-73034323D01*
X174127693Y-73034323D02*
X174080074Y-73129561D01*
X174080074Y-73129561D02*
X173984836Y-73224800D01*
X173984836Y-73224800D02*
X173841979Y-73272419D01*
X173841979Y-73272419D02*
X173603884Y-73272419D01*
X174603884Y-73272419D02*
X174603884Y-72272419D01*
X175651502Y-73272419D02*
X175318169Y-72796228D01*
X175080074Y-73272419D02*
X175080074Y-72272419D01*
X175080074Y-72272419D02*
X175461026Y-72272419D01*
X175461026Y-72272419D02*
X175556264Y-72320038D01*
X175556264Y-72320038D02*
X175603883Y-72367657D01*
X175603883Y-72367657D02*
X175651502Y-72462895D01*
X175651502Y-72462895D02*
X175651502Y-72605752D01*
X175651502Y-72605752D02*
X175603883Y-72700990D01*
X175603883Y-72700990D02*
X175556264Y-72748609D01*
X175556264Y-72748609D02*
X175461026Y-72796228D01*
X175461026Y-72796228D02*
X175080074Y-72796228D01*
X176032455Y-72367657D02*
X176080074Y-72320038D01*
X176080074Y-72320038D02*
X176175312Y-72272419D01*
X176175312Y-72272419D02*
X176413407Y-72272419D01*
X176413407Y-72272419D02*
X176508645Y-72320038D01*
X176508645Y-72320038D02*
X176556264Y-72367657D01*
X176556264Y-72367657D02*
X176603883Y-72462895D01*
X176603883Y-72462895D02*
X176603883Y-72558133D01*
X176603883Y-72558133D02*
X176556264Y-72700990D01*
X176556264Y-72700990D02*
X175984836Y-73272419D01*
X175984836Y-73272419D02*
X176603883Y-73272419D01*
X174487217Y-74698609D02*
X174630074Y-74746228D01*
X174630074Y-74746228D02*
X174677693Y-74793847D01*
X174677693Y-74793847D02*
X174725312Y-74889085D01*
X174725312Y-74889085D02*
X174725312Y-75031942D01*
X174725312Y-75031942D02*
X174677693Y-75127180D01*
X174677693Y-75127180D02*
X174630074Y-75174800D01*
X174630074Y-75174800D02*
X174534836Y-75222419D01*
X174534836Y-75222419D02*
X174153884Y-75222419D01*
X174153884Y-75222419D02*
X174153884Y-74222419D01*
X174153884Y-74222419D02*
X174487217Y-74222419D01*
X174487217Y-74222419D02*
X174582455Y-74270038D01*
X174582455Y-74270038D02*
X174630074Y-74317657D01*
X174630074Y-74317657D02*
X174677693Y-74412895D01*
X174677693Y-74412895D02*
X174677693Y-74508133D01*
X174677693Y-74508133D02*
X174630074Y-74603371D01*
X174630074Y-74603371D02*
X174582455Y-74650990D01*
X174582455Y-74650990D02*
X174487217Y-74698609D01*
X174487217Y-74698609D02*
X174153884Y-74698609D01*
X175725312Y-75222419D02*
X175391979Y-74746228D01*
X175153884Y-75222419D02*
X175153884Y-74222419D01*
X175153884Y-74222419D02*
X175534836Y-74222419D01*
X175534836Y-74222419D02*
X175630074Y-74270038D01*
X175630074Y-74270038D02*
X175677693Y-74317657D01*
X175677693Y-74317657D02*
X175725312Y-74412895D01*
X175725312Y-74412895D02*
X175725312Y-74555752D01*
X175725312Y-74555752D02*
X175677693Y-74650990D01*
X175677693Y-74650990D02*
X175630074Y-74698609D01*
X175630074Y-74698609D02*
X175534836Y-74746228D01*
X175534836Y-74746228D02*
X175153884Y-74746228D01*
X176106265Y-74317657D02*
X176153884Y-74270038D01*
X176153884Y-74270038D02*
X176249122Y-74222419D01*
X176249122Y-74222419D02*
X176487217Y-74222419D01*
X176487217Y-74222419D02*
X176582455Y-74270038D01*
X176582455Y-74270038D02*
X176630074Y-74317657D01*
X176630074Y-74317657D02*
X176677693Y-74412895D01*
X176677693Y-74412895D02*
X176677693Y-74508133D01*
X176677693Y-74508133D02*
X176630074Y-74650990D01*
X176630074Y-74650990D02*
X176058646Y-75222419D01*
X176058646Y-75222419D02*
X176677693Y-75222419D01*
X172853884Y-71222419D02*
X172853884Y-70222419D01*
X172853884Y-70222419D02*
X173234836Y-70222419D01*
X173234836Y-70222419D02*
X173330074Y-70270038D01*
X173330074Y-70270038D02*
X173377693Y-70317657D01*
X173377693Y-70317657D02*
X173425312Y-70412895D01*
X173425312Y-70412895D02*
X173425312Y-70555752D01*
X173425312Y-70555752D02*
X173377693Y-70650990D01*
X173377693Y-70650990D02*
X173330074Y-70698609D01*
X173330074Y-70698609D02*
X173234836Y-70746228D01*
X173234836Y-70746228D02*
X172853884Y-70746228D01*
X173758646Y-70222419D02*
X173996741Y-71222419D01*
X173996741Y-71222419D02*
X174187217Y-70508133D01*
X174187217Y-70508133D02*
X174377693Y-71222419D01*
X174377693Y-71222419D02*
X174615789Y-70222419D01*
X174996741Y-71222419D02*
X174996741Y-70222419D01*
X174996741Y-70222419D02*
X175330074Y-70936704D01*
X175330074Y-70936704D02*
X175663407Y-70222419D01*
X175663407Y-70222419D02*
X175663407Y-71222419D01*
X176091979Y-70317657D02*
X176139598Y-70270038D01*
X176139598Y-70270038D02*
X176234836Y-70222419D01*
X176234836Y-70222419D02*
X176472931Y-70222419D01*
X176472931Y-70222419D02*
X176568169Y-70270038D01*
X176568169Y-70270038D02*
X176615788Y-70317657D01*
X176615788Y-70317657D02*
X176663407Y-70412895D01*
X176663407Y-70412895D02*
X176663407Y-70508133D01*
X176663407Y-70508133D02*
X176615788Y-70650990D01*
X176615788Y-70650990D02*
X176044360Y-71222419D01*
X176044360Y-71222419D02*
X176663407Y-71222419D01*
X126253882Y-70872419D02*
X126253882Y-69872419D01*
X126253882Y-69872419D02*
X126634834Y-69872419D01*
X126634834Y-69872419D02*
X126730072Y-69920038D01*
X126730072Y-69920038D02*
X126777691Y-69967657D01*
X126777691Y-69967657D02*
X126825310Y-70062895D01*
X126825310Y-70062895D02*
X126825310Y-70205752D01*
X126825310Y-70205752D02*
X126777691Y-70300990D01*
X126777691Y-70300990D02*
X126730072Y-70348609D01*
X126730072Y-70348609D02*
X126634834Y-70396228D01*
X126634834Y-70396228D02*
X126253882Y-70396228D01*
X127158644Y-69872419D02*
X127396739Y-70872419D01*
X127396739Y-70872419D02*
X127587215Y-70158133D01*
X127587215Y-70158133D02*
X127777691Y-70872419D01*
X127777691Y-70872419D02*
X128015787Y-69872419D01*
X128396739Y-70872419D02*
X128396739Y-69872419D01*
X128396739Y-69872419D02*
X128730072Y-70586704D01*
X128730072Y-70586704D02*
X129063405Y-69872419D01*
X129063405Y-69872419D02*
X129063405Y-70872419D01*
X130063405Y-70872419D02*
X129491977Y-70872419D01*
X129777691Y-70872419D02*
X129777691Y-69872419D01*
X129777691Y-69872419D02*
X129682453Y-70015276D01*
X129682453Y-70015276D02*
X129587215Y-70110514D01*
X129587215Y-70110514D02*
X129491977Y-70158133D01*
X130253882Y-70967657D02*
X131015786Y-70967657D01*
X131730072Y-69872419D02*
X131253882Y-69872419D01*
X131253882Y-69872419D02*
X131206263Y-70348609D01*
X131206263Y-70348609D02*
X131253882Y-70300990D01*
X131253882Y-70300990D02*
X131349120Y-70253371D01*
X131349120Y-70253371D02*
X131587215Y-70253371D01*
X131587215Y-70253371D02*
X131682453Y-70300990D01*
X131682453Y-70300990D02*
X131730072Y-70348609D01*
X131730072Y-70348609D02*
X131777691Y-70443847D01*
X131777691Y-70443847D02*
X131777691Y-70681942D01*
X131777691Y-70681942D02*
X131730072Y-70777180D01*
X131730072Y-70777180D02*
X131682453Y-70824800D01*
X131682453Y-70824800D02*
X131587215Y-70872419D01*
X131587215Y-70872419D02*
X131349120Y-70872419D01*
X131349120Y-70872419D02*
X131253882Y-70824800D01*
X131253882Y-70824800D02*
X131206263Y-70777180D01*
X132063406Y-69872419D02*
X132396739Y-70872419D01*
X132396739Y-70872419D02*
X132730072Y-69872419D01*
X127453882Y-80922419D02*
X127453882Y-79922419D01*
X127453882Y-80398609D02*
X128025310Y-80398609D01*
X128025310Y-80922419D02*
X128025310Y-79922419D01*
X129072929Y-80827180D02*
X129025310Y-80874800D01*
X129025310Y-80874800D02*
X128882453Y-80922419D01*
X128882453Y-80922419D02*
X128787215Y-80922419D01*
X128787215Y-80922419D02*
X128644358Y-80874800D01*
X128644358Y-80874800D02*
X128549120Y-80779561D01*
X128549120Y-80779561D02*
X128501501Y-80684323D01*
X128501501Y-80684323D02*
X128453882Y-80493847D01*
X128453882Y-80493847D02*
X128453882Y-80350990D01*
X128453882Y-80350990D02*
X128501501Y-80160514D01*
X128501501Y-80160514D02*
X128549120Y-80065276D01*
X128549120Y-80065276D02*
X128644358Y-79970038D01*
X128644358Y-79970038D02*
X128787215Y-79922419D01*
X128787215Y-79922419D02*
X128882453Y-79922419D01*
X128882453Y-79922419D02*
X129025310Y-79970038D01*
X129025310Y-79970038D02*
X129072929Y-80017657D01*
X130025310Y-80922419D02*
X129453882Y-80922419D01*
X129739596Y-80922419D02*
X129739596Y-79922419D01*
X129739596Y-79922419D02*
X129644358Y-80065276D01*
X129644358Y-80065276D02*
X129549120Y-80160514D01*
X129549120Y-80160514D02*
X129453882Y-80208133D01*
X127877691Y-81920038D02*
X127782453Y-81872419D01*
X127782453Y-81872419D02*
X127639596Y-81872419D01*
X127639596Y-81872419D02*
X127496739Y-81920038D01*
X127496739Y-81920038D02*
X127401501Y-82015276D01*
X127401501Y-82015276D02*
X127353882Y-82110514D01*
X127353882Y-82110514D02*
X127306263Y-82300990D01*
X127306263Y-82300990D02*
X127306263Y-82443847D01*
X127306263Y-82443847D02*
X127353882Y-82634323D01*
X127353882Y-82634323D02*
X127401501Y-82729561D01*
X127401501Y-82729561D02*
X127496739Y-82824800D01*
X127496739Y-82824800D02*
X127639596Y-82872419D01*
X127639596Y-82872419D02*
X127734834Y-82872419D01*
X127734834Y-82872419D02*
X127877691Y-82824800D01*
X127877691Y-82824800D02*
X127925310Y-82777180D01*
X127925310Y-82777180D02*
X127925310Y-82443847D01*
X127925310Y-82443847D02*
X127734834Y-82443847D01*
X128353882Y-82872419D02*
X128353882Y-81872419D01*
X128353882Y-81872419D02*
X128925310Y-82872419D01*
X128925310Y-82872419D02*
X128925310Y-81872419D01*
X129401501Y-82872419D02*
X129401501Y-81872419D01*
X129401501Y-81872419D02*
X129639596Y-81872419D01*
X129639596Y-81872419D02*
X129782453Y-81920038D01*
X129782453Y-81920038D02*
X129877691Y-82015276D01*
X129877691Y-82015276D02*
X129925310Y-82110514D01*
X129925310Y-82110514D02*
X129972929Y-82300990D01*
X129972929Y-82300990D02*
X129972929Y-82443847D01*
X129972929Y-82443847D02*
X129925310Y-82634323D01*
X129925310Y-82634323D02*
X129877691Y-82729561D01*
X129877691Y-82729561D02*
X129782453Y-82824800D01*
X129782453Y-82824800D02*
X129639596Y-82872419D01*
X129639596Y-82872419D02*
X129401501Y-82872419D01*
X127887215Y-74348609D02*
X128030072Y-74396228D01*
X128030072Y-74396228D02*
X128077691Y-74443847D01*
X128077691Y-74443847D02*
X128125310Y-74539085D01*
X128125310Y-74539085D02*
X128125310Y-74681942D01*
X128125310Y-74681942D02*
X128077691Y-74777180D01*
X128077691Y-74777180D02*
X128030072Y-74824800D01*
X128030072Y-74824800D02*
X127934834Y-74872419D01*
X127934834Y-74872419D02*
X127553882Y-74872419D01*
X127553882Y-74872419D02*
X127553882Y-73872419D01*
X127553882Y-73872419D02*
X127887215Y-73872419D01*
X127887215Y-73872419D02*
X127982453Y-73920038D01*
X127982453Y-73920038D02*
X128030072Y-73967657D01*
X128030072Y-73967657D02*
X128077691Y-74062895D01*
X128077691Y-74062895D02*
X128077691Y-74158133D01*
X128077691Y-74158133D02*
X128030072Y-74253371D01*
X128030072Y-74253371D02*
X127982453Y-74300990D01*
X127982453Y-74300990D02*
X127887215Y-74348609D01*
X127887215Y-74348609D02*
X127553882Y-74348609D01*
X129125310Y-74872419D02*
X128791977Y-74396228D01*
X128553882Y-74872419D02*
X128553882Y-73872419D01*
X128553882Y-73872419D02*
X128934834Y-73872419D01*
X128934834Y-73872419D02*
X129030072Y-73920038D01*
X129030072Y-73920038D02*
X129077691Y-73967657D01*
X129077691Y-73967657D02*
X129125310Y-74062895D01*
X129125310Y-74062895D02*
X129125310Y-74205752D01*
X129125310Y-74205752D02*
X129077691Y-74300990D01*
X129077691Y-74300990D02*
X129030072Y-74348609D01*
X129030072Y-74348609D02*
X128934834Y-74396228D01*
X128934834Y-74396228D02*
X128553882Y-74396228D01*
X130077691Y-74872419D02*
X129506263Y-74872419D01*
X129791977Y-74872419D02*
X129791977Y-73872419D01*
X129791977Y-73872419D02*
X129696739Y-74015276D01*
X129696739Y-74015276D02*
X129601501Y-74110514D01*
X129601501Y-74110514D02*
X129506263Y-74158133D01*
X127603882Y-76922419D02*
X127603882Y-75922419D01*
X127603882Y-76398609D02*
X128175310Y-76398609D01*
X128175310Y-76922419D02*
X128175310Y-75922419D01*
X128603882Y-76636704D02*
X129080072Y-76636704D01*
X128508644Y-76922419D02*
X128841977Y-75922419D01*
X128841977Y-75922419D02*
X129175310Y-76922419D01*
X130032453Y-76922419D02*
X129461025Y-76922419D01*
X129746739Y-76922419D02*
X129746739Y-75922419D01*
X129746739Y-75922419D02*
X129651501Y-76065276D01*
X129651501Y-76065276D02*
X129556263Y-76160514D01*
X129556263Y-76160514D02*
X129461025Y-76208133D01*
X112553884Y-79122419D02*
X112553884Y-78122419D01*
X112553884Y-78598609D02*
X113125312Y-78598609D01*
X113125312Y-79122419D02*
X113125312Y-78122419D01*
X113934836Y-78598609D02*
X114077693Y-78646228D01*
X114077693Y-78646228D02*
X114125312Y-78693847D01*
X114125312Y-78693847D02*
X114172931Y-78789085D01*
X114172931Y-78789085D02*
X114172931Y-78931942D01*
X114172931Y-78931942D02*
X114125312Y-79027180D01*
X114125312Y-79027180D02*
X114077693Y-79074800D01*
X114077693Y-79074800D02*
X113982455Y-79122419D01*
X113982455Y-79122419D02*
X113601503Y-79122419D01*
X113601503Y-79122419D02*
X113601503Y-78122419D01*
X113601503Y-78122419D02*
X113934836Y-78122419D01*
X113934836Y-78122419D02*
X114030074Y-78170038D01*
X114030074Y-78170038D02*
X114077693Y-78217657D01*
X114077693Y-78217657D02*
X114125312Y-78312895D01*
X114125312Y-78312895D02*
X114125312Y-78408133D01*
X114125312Y-78408133D02*
X114077693Y-78503371D01*
X114077693Y-78503371D02*
X114030074Y-78550990D01*
X114030074Y-78550990D02*
X113934836Y-78598609D01*
X113934836Y-78598609D02*
X113601503Y-78598609D01*
X115125312Y-79122419D02*
X114553884Y-79122419D01*
X114839598Y-79122419D02*
X114839598Y-78122419D01*
X114839598Y-78122419D02*
X114744360Y-78265276D01*
X114744360Y-78265276D02*
X114649122Y-78360514D01*
X114649122Y-78360514D02*
X114553884Y-78408133D01*
X112703884Y-77122419D02*
X112703884Y-76122419D01*
X112703884Y-76598609D02*
X113275312Y-76598609D01*
X113275312Y-77122419D02*
X113275312Y-76122419D01*
X113703884Y-76836704D02*
X114180074Y-76836704D01*
X113608646Y-77122419D02*
X113941979Y-76122419D01*
X113941979Y-76122419D02*
X114275312Y-77122419D01*
X115132455Y-77122419D02*
X114561027Y-77122419D01*
X114846741Y-77122419D02*
X114846741Y-76122419D01*
X114846741Y-76122419D02*
X114751503Y-76265276D01*
X114751503Y-76265276D02*
X114656265Y-76360514D01*
X114656265Y-76360514D02*
X114561027Y-76408133D01*
X112977693Y-82120038D02*
X112882455Y-82072419D01*
X112882455Y-82072419D02*
X112739598Y-82072419D01*
X112739598Y-82072419D02*
X112596741Y-82120038D01*
X112596741Y-82120038D02*
X112501503Y-82215276D01*
X112501503Y-82215276D02*
X112453884Y-82310514D01*
X112453884Y-82310514D02*
X112406265Y-82500990D01*
X112406265Y-82500990D02*
X112406265Y-82643847D01*
X112406265Y-82643847D02*
X112453884Y-82834323D01*
X112453884Y-82834323D02*
X112501503Y-82929561D01*
X112501503Y-82929561D02*
X112596741Y-83024800D01*
X112596741Y-83024800D02*
X112739598Y-83072419D01*
X112739598Y-83072419D02*
X112834836Y-83072419D01*
X112834836Y-83072419D02*
X112977693Y-83024800D01*
X112977693Y-83024800D02*
X113025312Y-82977180D01*
X113025312Y-82977180D02*
X113025312Y-82643847D01*
X113025312Y-82643847D02*
X112834836Y-82643847D01*
X113453884Y-83072419D02*
X113453884Y-82072419D01*
X113453884Y-82072419D02*
X114025312Y-83072419D01*
X114025312Y-83072419D02*
X114025312Y-82072419D01*
X114501503Y-83072419D02*
X114501503Y-82072419D01*
X114501503Y-82072419D02*
X114739598Y-82072419D01*
X114739598Y-82072419D02*
X114882455Y-82120038D01*
X114882455Y-82120038D02*
X114977693Y-82215276D01*
X114977693Y-82215276D02*
X115025312Y-82310514D01*
X115025312Y-82310514D02*
X115072931Y-82500990D01*
X115072931Y-82500990D02*
X115072931Y-82643847D01*
X115072931Y-82643847D02*
X115025312Y-82834323D01*
X115025312Y-82834323D02*
X114977693Y-82929561D01*
X114977693Y-82929561D02*
X114882455Y-83024800D01*
X114882455Y-83024800D02*
X114739598Y-83072419D01*
X114739598Y-83072419D02*
X114501503Y-83072419D01*
X127003882Y-72922419D02*
X127003882Y-71922419D01*
X127003882Y-71922419D02*
X127241977Y-71922419D01*
X127241977Y-71922419D02*
X127384834Y-71970038D01*
X127384834Y-71970038D02*
X127480072Y-72065276D01*
X127480072Y-72065276D02*
X127527691Y-72160514D01*
X127527691Y-72160514D02*
X127575310Y-72350990D01*
X127575310Y-72350990D02*
X127575310Y-72493847D01*
X127575310Y-72493847D02*
X127527691Y-72684323D01*
X127527691Y-72684323D02*
X127480072Y-72779561D01*
X127480072Y-72779561D02*
X127384834Y-72874800D01*
X127384834Y-72874800D02*
X127241977Y-72922419D01*
X127241977Y-72922419D02*
X127003882Y-72922419D01*
X128003882Y-72922419D02*
X128003882Y-71922419D01*
X129051500Y-72922419D02*
X128718167Y-72446228D01*
X128480072Y-72922419D02*
X128480072Y-71922419D01*
X128480072Y-71922419D02*
X128861024Y-71922419D01*
X128861024Y-71922419D02*
X128956262Y-71970038D01*
X128956262Y-71970038D02*
X129003881Y-72017657D01*
X129003881Y-72017657D02*
X129051500Y-72112895D01*
X129051500Y-72112895D02*
X129051500Y-72255752D01*
X129051500Y-72255752D02*
X129003881Y-72350990D01*
X129003881Y-72350990D02*
X128956262Y-72398609D01*
X128956262Y-72398609D02*
X128861024Y-72446228D01*
X128861024Y-72446228D02*
X128480072Y-72446228D01*
X130003881Y-72922419D02*
X129432453Y-72922419D01*
X129718167Y-72922419D02*
X129718167Y-71922419D01*
X129718167Y-71922419D02*
X129622929Y-72065276D01*
X129622929Y-72065276D02*
X129527691Y-72160514D01*
X129527691Y-72160514D02*
X129432453Y-72208133D01*
X112553884Y-81122419D02*
X112553884Y-80122419D01*
X112553884Y-80598609D02*
X113125312Y-80598609D01*
X113125312Y-81122419D02*
X113125312Y-80122419D01*
X114172931Y-81027180D02*
X114125312Y-81074800D01*
X114125312Y-81074800D02*
X113982455Y-81122419D01*
X113982455Y-81122419D02*
X113887217Y-81122419D01*
X113887217Y-81122419D02*
X113744360Y-81074800D01*
X113744360Y-81074800D02*
X113649122Y-80979561D01*
X113649122Y-80979561D02*
X113601503Y-80884323D01*
X113601503Y-80884323D02*
X113553884Y-80693847D01*
X113553884Y-80693847D02*
X113553884Y-80550990D01*
X113553884Y-80550990D02*
X113601503Y-80360514D01*
X113601503Y-80360514D02*
X113649122Y-80265276D01*
X113649122Y-80265276D02*
X113744360Y-80170038D01*
X113744360Y-80170038D02*
X113887217Y-80122419D01*
X113887217Y-80122419D02*
X113982455Y-80122419D01*
X113982455Y-80122419D02*
X114125312Y-80170038D01*
X114125312Y-80170038D02*
X114172931Y-80217657D01*
X115125312Y-81122419D02*
X114553884Y-81122419D01*
X114839598Y-81122419D02*
X114839598Y-80122419D01*
X114839598Y-80122419D02*
X114744360Y-80265276D01*
X114744360Y-80265276D02*
X114649122Y-80360514D01*
X114649122Y-80360514D02*
X114553884Y-80408133D01*
X127453882Y-78922419D02*
X127453882Y-77922419D01*
X127453882Y-78398609D02*
X128025310Y-78398609D01*
X128025310Y-78922419D02*
X128025310Y-77922419D01*
X128834834Y-78398609D02*
X128977691Y-78446228D01*
X128977691Y-78446228D02*
X129025310Y-78493847D01*
X129025310Y-78493847D02*
X129072929Y-78589085D01*
X129072929Y-78589085D02*
X129072929Y-78731942D01*
X129072929Y-78731942D02*
X129025310Y-78827180D01*
X129025310Y-78827180D02*
X128977691Y-78874800D01*
X128977691Y-78874800D02*
X128882453Y-78922419D01*
X128882453Y-78922419D02*
X128501501Y-78922419D01*
X128501501Y-78922419D02*
X128501501Y-77922419D01*
X128501501Y-77922419D02*
X128834834Y-77922419D01*
X128834834Y-77922419D02*
X128930072Y-77970038D01*
X128930072Y-77970038D02*
X128977691Y-78017657D01*
X128977691Y-78017657D02*
X129025310Y-78112895D01*
X129025310Y-78112895D02*
X129025310Y-78208133D01*
X129025310Y-78208133D02*
X128977691Y-78303371D01*
X128977691Y-78303371D02*
X128930072Y-78350990D01*
X128930072Y-78350990D02*
X128834834Y-78398609D01*
X128834834Y-78398609D02*
X128501501Y-78398609D01*
X130025310Y-78922419D02*
X129453882Y-78922419D01*
X129739596Y-78922419D02*
X129739596Y-77922419D01*
X129739596Y-77922419D02*
X129644358Y-78065276D01*
X129644358Y-78065276D02*
X129549120Y-78160514D01*
X129549120Y-78160514D02*
X129453882Y-78208133D01*
X112103884Y-73122419D02*
X112103884Y-72122419D01*
X112103884Y-72122419D02*
X112341979Y-72122419D01*
X112341979Y-72122419D02*
X112484836Y-72170038D01*
X112484836Y-72170038D02*
X112580074Y-72265276D01*
X112580074Y-72265276D02*
X112627693Y-72360514D01*
X112627693Y-72360514D02*
X112675312Y-72550990D01*
X112675312Y-72550990D02*
X112675312Y-72693847D01*
X112675312Y-72693847D02*
X112627693Y-72884323D01*
X112627693Y-72884323D02*
X112580074Y-72979561D01*
X112580074Y-72979561D02*
X112484836Y-73074800D01*
X112484836Y-73074800D02*
X112341979Y-73122419D01*
X112341979Y-73122419D02*
X112103884Y-73122419D01*
X113103884Y-73122419D02*
X113103884Y-72122419D01*
X114151502Y-73122419D02*
X113818169Y-72646228D01*
X113580074Y-73122419D02*
X113580074Y-72122419D01*
X113580074Y-72122419D02*
X113961026Y-72122419D01*
X113961026Y-72122419D02*
X114056264Y-72170038D01*
X114056264Y-72170038D02*
X114103883Y-72217657D01*
X114103883Y-72217657D02*
X114151502Y-72312895D01*
X114151502Y-72312895D02*
X114151502Y-72455752D01*
X114151502Y-72455752D02*
X114103883Y-72550990D01*
X114103883Y-72550990D02*
X114056264Y-72598609D01*
X114056264Y-72598609D02*
X113961026Y-72646228D01*
X113961026Y-72646228D02*
X113580074Y-72646228D01*
X115103883Y-73122419D02*
X114532455Y-73122419D01*
X114818169Y-73122419D02*
X114818169Y-72122419D01*
X114818169Y-72122419D02*
X114722931Y-72265276D01*
X114722931Y-72265276D02*
X114627693Y-72360514D01*
X114627693Y-72360514D02*
X114532455Y-72408133D01*
X112987217Y-74548609D02*
X113130074Y-74596228D01*
X113130074Y-74596228D02*
X113177693Y-74643847D01*
X113177693Y-74643847D02*
X113225312Y-74739085D01*
X113225312Y-74739085D02*
X113225312Y-74881942D01*
X113225312Y-74881942D02*
X113177693Y-74977180D01*
X113177693Y-74977180D02*
X113130074Y-75024800D01*
X113130074Y-75024800D02*
X113034836Y-75072419D01*
X113034836Y-75072419D02*
X112653884Y-75072419D01*
X112653884Y-75072419D02*
X112653884Y-74072419D01*
X112653884Y-74072419D02*
X112987217Y-74072419D01*
X112987217Y-74072419D02*
X113082455Y-74120038D01*
X113082455Y-74120038D02*
X113130074Y-74167657D01*
X113130074Y-74167657D02*
X113177693Y-74262895D01*
X113177693Y-74262895D02*
X113177693Y-74358133D01*
X113177693Y-74358133D02*
X113130074Y-74453371D01*
X113130074Y-74453371D02*
X113082455Y-74500990D01*
X113082455Y-74500990D02*
X112987217Y-74548609D01*
X112987217Y-74548609D02*
X112653884Y-74548609D01*
X114225312Y-75072419D02*
X113891979Y-74596228D01*
X113653884Y-75072419D02*
X113653884Y-74072419D01*
X113653884Y-74072419D02*
X114034836Y-74072419D01*
X114034836Y-74072419D02*
X114130074Y-74120038D01*
X114130074Y-74120038D02*
X114177693Y-74167657D01*
X114177693Y-74167657D02*
X114225312Y-74262895D01*
X114225312Y-74262895D02*
X114225312Y-74405752D01*
X114225312Y-74405752D02*
X114177693Y-74500990D01*
X114177693Y-74500990D02*
X114130074Y-74548609D01*
X114130074Y-74548609D02*
X114034836Y-74596228D01*
X114034836Y-74596228D02*
X113653884Y-74596228D01*
X115177693Y-75072419D02*
X114606265Y-75072419D01*
X114891979Y-75072419D02*
X114891979Y-74072419D01*
X114891979Y-74072419D02*
X114796741Y-74215276D01*
X114796741Y-74215276D02*
X114701503Y-74310514D01*
X114701503Y-74310514D02*
X114606265Y-74358133D01*
X111353884Y-71072419D02*
X111353884Y-70072419D01*
X111353884Y-70072419D02*
X111734836Y-70072419D01*
X111734836Y-70072419D02*
X111830074Y-70120038D01*
X111830074Y-70120038D02*
X111877693Y-70167657D01*
X111877693Y-70167657D02*
X111925312Y-70262895D01*
X111925312Y-70262895D02*
X111925312Y-70405752D01*
X111925312Y-70405752D02*
X111877693Y-70500990D01*
X111877693Y-70500990D02*
X111830074Y-70548609D01*
X111830074Y-70548609D02*
X111734836Y-70596228D01*
X111734836Y-70596228D02*
X111353884Y-70596228D01*
X112258646Y-70072419D02*
X112496741Y-71072419D01*
X112496741Y-71072419D02*
X112687217Y-70358133D01*
X112687217Y-70358133D02*
X112877693Y-71072419D01*
X112877693Y-71072419D02*
X113115789Y-70072419D01*
X113496741Y-71072419D02*
X113496741Y-70072419D01*
X113496741Y-70072419D02*
X113830074Y-70786704D01*
X113830074Y-70786704D02*
X114163407Y-70072419D01*
X114163407Y-70072419D02*
X114163407Y-71072419D01*
X115163407Y-71072419D02*
X114591979Y-71072419D01*
X114877693Y-71072419D02*
X114877693Y-70072419D01*
X114877693Y-70072419D02*
X114782455Y-70215276D01*
X114782455Y-70215276D02*
X114687217Y-70310514D01*
X114687217Y-70310514D02*
X114591979Y-70358133D01*
X127453882Y-122922419D02*
X127453882Y-121922419D01*
X127453882Y-122398609D02*
X128025310Y-122398609D01*
X128025310Y-122922419D02*
X128025310Y-121922419D01*
X128834834Y-122398609D02*
X128977691Y-122446228D01*
X128977691Y-122446228D02*
X129025310Y-122493847D01*
X129025310Y-122493847D02*
X129072929Y-122589085D01*
X129072929Y-122589085D02*
X129072929Y-122731942D01*
X129072929Y-122731942D02*
X129025310Y-122827180D01*
X129025310Y-122827180D02*
X128977691Y-122874800D01*
X128977691Y-122874800D02*
X128882453Y-122922419D01*
X128882453Y-122922419D02*
X128501501Y-122922419D01*
X128501501Y-122922419D02*
X128501501Y-121922419D01*
X128501501Y-121922419D02*
X128834834Y-121922419D01*
X128834834Y-121922419D02*
X128930072Y-121970038D01*
X128930072Y-121970038D02*
X128977691Y-122017657D01*
X128977691Y-122017657D02*
X129025310Y-122112895D01*
X129025310Y-122112895D02*
X129025310Y-122208133D01*
X129025310Y-122208133D02*
X128977691Y-122303371D01*
X128977691Y-122303371D02*
X128930072Y-122350990D01*
X128930072Y-122350990D02*
X128834834Y-122398609D01*
X128834834Y-122398609D02*
X128501501Y-122398609D01*
X129406263Y-121922419D02*
X130025310Y-121922419D01*
X130025310Y-121922419D02*
X129691977Y-122303371D01*
X129691977Y-122303371D02*
X129834834Y-122303371D01*
X129834834Y-122303371D02*
X129930072Y-122350990D01*
X129930072Y-122350990D02*
X129977691Y-122398609D01*
X129977691Y-122398609D02*
X130025310Y-122493847D01*
X130025310Y-122493847D02*
X130025310Y-122731942D01*
X130025310Y-122731942D02*
X129977691Y-122827180D01*
X129977691Y-122827180D02*
X129930072Y-122874800D01*
X129930072Y-122874800D02*
X129834834Y-122922419D01*
X129834834Y-122922419D02*
X129549120Y-122922419D01*
X129549120Y-122922419D02*
X129453882Y-122874800D01*
X129453882Y-122874800D02*
X129406263Y-122827180D01*
X127603882Y-120922419D02*
X127603882Y-119922419D01*
X127603882Y-120398609D02*
X128175310Y-120398609D01*
X128175310Y-120922419D02*
X128175310Y-119922419D01*
X128603882Y-120636704D02*
X129080072Y-120636704D01*
X128508644Y-120922419D02*
X128841977Y-119922419D01*
X128841977Y-119922419D02*
X129175310Y-120922419D01*
X129413406Y-119922419D02*
X130032453Y-119922419D01*
X130032453Y-119922419D02*
X129699120Y-120303371D01*
X129699120Y-120303371D02*
X129841977Y-120303371D01*
X129841977Y-120303371D02*
X129937215Y-120350990D01*
X129937215Y-120350990D02*
X129984834Y-120398609D01*
X129984834Y-120398609D02*
X130032453Y-120493847D01*
X130032453Y-120493847D02*
X130032453Y-120731942D01*
X130032453Y-120731942D02*
X129984834Y-120827180D01*
X129984834Y-120827180D02*
X129937215Y-120874800D01*
X129937215Y-120874800D02*
X129841977Y-120922419D01*
X129841977Y-120922419D02*
X129556263Y-120922419D01*
X129556263Y-120922419D02*
X129461025Y-120874800D01*
X129461025Y-120874800D02*
X129413406Y-120827180D01*
X127877691Y-125920038D02*
X127782453Y-125872419D01*
X127782453Y-125872419D02*
X127639596Y-125872419D01*
X127639596Y-125872419D02*
X127496739Y-125920038D01*
X127496739Y-125920038D02*
X127401501Y-126015276D01*
X127401501Y-126015276D02*
X127353882Y-126110514D01*
X127353882Y-126110514D02*
X127306263Y-126300990D01*
X127306263Y-126300990D02*
X127306263Y-126443847D01*
X127306263Y-126443847D02*
X127353882Y-126634323D01*
X127353882Y-126634323D02*
X127401501Y-126729561D01*
X127401501Y-126729561D02*
X127496739Y-126824800D01*
X127496739Y-126824800D02*
X127639596Y-126872419D01*
X127639596Y-126872419D02*
X127734834Y-126872419D01*
X127734834Y-126872419D02*
X127877691Y-126824800D01*
X127877691Y-126824800D02*
X127925310Y-126777180D01*
X127925310Y-126777180D02*
X127925310Y-126443847D01*
X127925310Y-126443847D02*
X127734834Y-126443847D01*
X128353882Y-126872419D02*
X128353882Y-125872419D01*
X128353882Y-125872419D02*
X128925310Y-126872419D01*
X128925310Y-126872419D02*
X128925310Y-125872419D01*
X129401501Y-126872419D02*
X129401501Y-125872419D01*
X129401501Y-125872419D02*
X129639596Y-125872419D01*
X129639596Y-125872419D02*
X129782453Y-125920038D01*
X129782453Y-125920038D02*
X129877691Y-126015276D01*
X129877691Y-126015276D02*
X129925310Y-126110514D01*
X129925310Y-126110514D02*
X129972929Y-126300990D01*
X129972929Y-126300990D02*
X129972929Y-126443847D01*
X129972929Y-126443847D02*
X129925310Y-126634323D01*
X129925310Y-126634323D02*
X129877691Y-126729561D01*
X129877691Y-126729561D02*
X129782453Y-126824800D01*
X129782453Y-126824800D02*
X129639596Y-126872419D01*
X129639596Y-126872419D02*
X129401501Y-126872419D01*
X127453882Y-124922419D02*
X127453882Y-123922419D01*
X127453882Y-124398609D02*
X128025310Y-124398609D01*
X128025310Y-124922419D02*
X128025310Y-123922419D01*
X129072929Y-124827180D02*
X129025310Y-124874800D01*
X129025310Y-124874800D02*
X128882453Y-124922419D01*
X128882453Y-124922419D02*
X128787215Y-124922419D01*
X128787215Y-124922419D02*
X128644358Y-124874800D01*
X128644358Y-124874800D02*
X128549120Y-124779561D01*
X128549120Y-124779561D02*
X128501501Y-124684323D01*
X128501501Y-124684323D02*
X128453882Y-124493847D01*
X128453882Y-124493847D02*
X128453882Y-124350990D01*
X128453882Y-124350990D02*
X128501501Y-124160514D01*
X128501501Y-124160514D02*
X128549120Y-124065276D01*
X128549120Y-124065276D02*
X128644358Y-123970038D01*
X128644358Y-123970038D02*
X128787215Y-123922419D01*
X128787215Y-123922419D02*
X128882453Y-123922419D01*
X128882453Y-123922419D02*
X129025310Y-123970038D01*
X129025310Y-123970038D02*
X129072929Y-124017657D01*
X129406263Y-123922419D02*
X130025310Y-123922419D01*
X130025310Y-123922419D02*
X129691977Y-124303371D01*
X129691977Y-124303371D02*
X129834834Y-124303371D01*
X129834834Y-124303371D02*
X129930072Y-124350990D01*
X129930072Y-124350990D02*
X129977691Y-124398609D01*
X129977691Y-124398609D02*
X130025310Y-124493847D01*
X130025310Y-124493847D02*
X130025310Y-124731942D01*
X130025310Y-124731942D02*
X129977691Y-124827180D01*
X129977691Y-124827180D02*
X129930072Y-124874800D01*
X129930072Y-124874800D02*
X129834834Y-124922419D01*
X129834834Y-124922419D02*
X129549120Y-124922419D01*
X129549120Y-124922419D02*
X129453882Y-124874800D01*
X129453882Y-124874800D02*
X129406263Y-124827180D01*
X127003882Y-116922419D02*
X127003882Y-115922419D01*
X127003882Y-115922419D02*
X127241977Y-115922419D01*
X127241977Y-115922419D02*
X127384834Y-115970038D01*
X127384834Y-115970038D02*
X127480072Y-116065276D01*
X127480072Y-116065276D02*
X127527691Y-116160514D01*
X127527691Y-116160514D02*
X127575310Y-116350990D01*
X127575310Y-116350990D02*
X127575310Y-116493847D01*
X127575310Y-116493847D02*
X127527691Y-116684323D01*
X127527691Y-116684323D02*
X127480072Y-116779561D01*
X127480072Y-116779561D02*
X127384834Y-116874800D01*
X127384834Y-116874800D02*
X127241977Y-116922419D01*
X127241977Y-116922419D02*
X127003882Y-116922419D01*
X128003882Y-116922419D02*
X128003882Y-115922419D01*
X129051500Y-116922419D02*
X128718167Y-116446228D01*
X128480072Y-116922419D02*
X128480072Y-115922419D01*
X128480072Y-115922419D02*
X128861024Y-115922419D01*
X128861024Y-115922419D02*
X128956262Y-115970038D01*
X128956262Y-115970038D02*
X129003881Y-116017657D01*
X129003881Y-116017657D02*
X129051500Y-116112895D01*
X129051500Y-116112895D02*
X129051500Y-116255752D01*
X129051500Y-116255752D02*
X129003881Y-116350990D01*
X129003881Y-116350990D02*
X128956262Y-116398609D01*
X128956262Y-116398609D02*
X128861024Y-116446228D01*
X128861024Y-116446228D02*
X128480072Y-116446228D01*
X129384834Y-115922419D02*
X130003881Y-115922419D01*
X130003881Y-115922419D02*
X129670548Y-116303371D01*
X129670548Y-116303371D02*
X129813405Y-116303371D01*
X129813405Y-116303371D02*
X129908643Y-116350990D01*
X129908643Y-116350990D02*
X129956262Y-116398609D01*
X129956262Y-116398609D02*
X130003881Y-116493847D01*
X130003881Y-116493847D02*
X130003881Y-116731942D01*
X130003881Y-116731942D02*
X129956262Y-116827180D01*
X129956262Y-116827180D02*
X129908643Y-116874800D01*
X129908643Y-116874800D02*
X129813405Y-116922419D01*
X129813405Y-116922419D02*
X129527691Y-116922419D01*
X129527691Y-116922419D02*
X129432453Y-116874800D01*
X129432453Y-116874800D02*
X129384834Y-116827180D01*
X127887215Y-118348609D02*
X128030072Y-118396228D01*
X128030072Y-118396228D02*
X128077691Y-118443847D01*
X128077691Y-118443847D02*
X128125310Y-118539085D01*
X128125310Y-118539085D02*
X128125310Y-118681942D01*
X128125310Y-118681942D02*
X128077691Y-118777180D01*
X128077691Y-118777180D02*
X128030072Y-118824800D01*
X128030072Y-118824800D02*
X127934834Y-118872419D01*
X127934834Y-118872419D02*
X127553882Y-118872419D01*
X127553882Y-118872419D02*
X127553882Y-117872419D01*
X127553882Y-117872419D02*
X127887215Y-117872419D01*
X127887215Y-117872419D02*
X127982453Y-117920038D01*
X127982453Y-117920038D02*
X128030072Y-117967657D01*
X128030072Y-117967657D02*
X128077691Y-118062895D01*
X128077691Y-118062895D02*
X128077691Y-118158133D01*
X128077691Y-118158133D02*
X128030072Y-118253371D01*
X128030072Y-118253371D02*
X127982453Y-118300990D01*
X127982453Y-118300990D02*
X127887215Y-118348609D01*
X127887215Y-118348609D02*
X127553882Y-118348609D01*
X129125310Y-118872419D02*
X128791977Y-118396228D01*
X128553882Y-118872419D02*
X128553882Y-117872419D01*
X128553882Y-117872419D02*
X128934834Y-117872419D01*
X128934834Y-117872419D02*
X129030072Y-117920038D01*
X129030072Y-117920038D02*
X129077691Y-117967657D01*
X129077691Y-117967657D02*
X129125310Y-118062895D01*
X129125310Y-118062895D02*
X129125310Y-118205752D01*
X129125310Y-118205752D02*
X129077691Y-118300990D01*
X129077691Y-118300990D02*
X129030072Y-118348609D01*
X129030072Y-118348609D02*
X128934834Y-118396228D01*
X128934834Y-118396228D02*
X128553882Y-118396228D01*
X129458644Y-117872419D02*
X130077691Y-117872419D01*
X130077691Y-117872419D02*
X129744358Y-118253371D01*
X129744358Y-118253371D02*
X129887215Y-118253371D01*
X129887215Y-118253371D02*
X129982453Y-118300990D01*
X129982453Y-118300990D02*
X130030072Y-118348609D01*
X130030072Y-118348609D02*
X130077691Y-118443847D01*
X130077691Y-118443847D02*
X130077691Y-118681942D01*
X130077691Y-118681942D02*
X130030072Y-118777180D01*
X130030072Y-118777180D02*
X129982453Y-118824800D01*
X129982453Y-118824800D02*
X129887215Y-118872419D01*
X129887215Y-118872419D02*
X129601501Y-118872419D01*
X129601501Y-118872419D02*
X129506263Y-118824800D01*
X129506263Y-118824800D02*
X129458644Y-118777180D01*
X126253882Y-114872419D02*
X126253882Y-113872419D01*
X126253882Y-113872419D02*
X126634834Y-113872419D01*
X126634834Y-113872419D02*
X126730072Y-113920038D01*
X126730072Y-113920038D02*
X126777691Y-113967657D01*
X126777691Y-113967657D02*
X126825310Y-114062895D01*
X126825310Y-114062895D02*
X126825310Y-114205752D01*
X126825310Y-114205752D02*
X126777691Y-114300990D01*
X126777691Y-114300990D02*
X126730072Y-114348609D01*
X126730072Y-114348609D02*
X126634834Y-114396228D01*
X126634834Y-114396228D02*
X126253882Y-114396228D01*
X127158644Y-113872419D02*
X127396739Y-114872419D01*
X127396739Y-114872419D02*
X127587215Y-114158133D01*
X127587215Y-114158133D02*
X127777691Y-114872419D01*
X127777691Y-114872419D02*
X128015787Y-113872419D01*
X128396739Y-114872419D02*
X128396739Y-113872419D01*
X128396739Y-113872419D02*
X128730072Y-114586704D01*
X128730072Y-114586704D02*
X129063405Y-113872419D01*
X129063405Y-113872419D02*
X129063405Y-114872419D01*
X129301501Y-114967657D02*
X130063405Y-114967657D01*
X130777691Y-113872419D02*
X130301501Y-113872419D01*
X130301501Y-113872419D02*
X130253882Y-114348609D01*
X130253882Y-114348609D02*
X130301501Y-114300990D01*
X130301501Y-114300990D02*
X130396739Y-114253371D01*
X130396739Y-114253371D02*
X130634834Y-114253371D01*
X130634834Y-114253371D02*
X130730072Y-114300990D01*
X130730072Y-114300990D02*
X130777691Y-114348609D01*
X130777691Y-114348609D02*
X130825310Y-114443847D01*
X130825310Y-114443847D02*
X130825310Y-114681942D01*
X130825310Y-114681942D02*
X130777691Y-114777180D01*
X130777691Y-114777180D02*
X130730072Y-114824800D01*
X130730072Y-114824800D02*
X130634834Y-114872419D01*
X130634834Y-114872419D02*
X130396739Y-114872419D01*
X130396739Y-114872419D02*
X130301501Y-114824800D01*
X130301501Y-114824800D02*
X130253882Y-114777180D01*
X131111025Y-113872419D02*
X131444358Y-114872419D01*
X131444358Y-114872419D02*
X131777691Y-113872419D01*
X112977693Y-126120038D02*
X112882455Y-126072419D01*
X112882455Y-126072419D02*
X112739598Y-126072419D01*
X112739598Y-126072419D02*
X112596741Y-126120038D01*
X112596741Y-126120038D02*
X112501503Y-126215276D01*
X112501503Y-126215276D02*
X112453884Y-126310514D01*
X112453884Y-126310514D02*
X112406265Y-126500990D01*
X112406265Y-126500990D02*
X112406265Y-126643847D01*
X112406265Y-126643847D02*
X112453884Y-126834323D01*
X112453884Y-126834323D02*
X112501503Y-126929561D01*
X112501503Y-126929561D02*
X112596741Y-127024800D01*
X112596741Y-127024800D02*
X112739598Y-127072419D01*
X112739598Y-127072419D02*
X112834836Y-127072419D01*
X112834836Y-127072419D02*
X112977693Y-127024800D01*
X112977693Y-127024800D02*
X113025312Y-126977180D01*
X113025312Y-126977180D02*
X113025312Y-126643847D01*
X113025312Y-126643847D02*
X112834836Y-126643847D01*
X113453884Y-127072419D02*
X113453884Y-126072419D01*
X113453884Y-126072419D02*
X114025312Y-127072419D01*
X114025312Y-127072419D02*
X114025312Y-126072419D01*
X114501503Y-127072419D02*
X114501503Y-126072419D01*
X114501503Y-126072419D02*
X114739598Y-126072419D01*
X114739598Y-126072419D02*
X114882455Y-126120038D01*
X114882455Y-126120038D02*
X114977693Y-126215276D01*
X114977693Y-126215276D02*
X115025312Y-126310514D01*
X115025312Y-126310514D02*
X115072931Y-126500990D01*
X115072931Y-126500990D02*
X115072931Y-126643847D01*
X115072931Y-126643847D02*
X115025312Y-126834323D01*
X115025312Y-126834323D02*
X114977693Y-126929561D01*
X114977693Y-126929561D02*
X114882455Y-127024800D01*
X114882455Y-127024800D02*
X114739598Y-127072419D01*
X114739598Y-127072419D02*
X114501503Y-127072419D01*
X112553884Y-125122419D02*
X112553884Y-124122419D01*
X112553884Y-124598609D02*
X113125312Y-124598609D01*
X113125312Y-125122419D02*
X113125312Y-124122419D01*
X114172931Y-125027180D02*
X114125312Y-125074800D01*
X114125312Y-125074800D02*
X113982455Y-125122419D01*
X113982455Y-125122419D02*
X113887217Y-125122419D01*
X113887217Y-125122419D02*
X113744360Y-125074800D01*
X113744360Y-125074800D02*
X113649122Y-124979561D01*
X113649122Y-124979561D02*
X113601503Y-124884323D01*
X113601503Y-124884323D02*
X113553884Y-124693847D01*
X113553884Y-124693847D02*
X113553884Y-124550990D01*
X113553884Y-124550990D02*
X113601503Y-124360514D01*
X113601503Y-124360514D02*
X113649122Y-124265276D01*
X113649122Y-124265276D02*
X113744360Y-124170038D01*
X113744360Y-124170038D02*
X113887217Y-124122419D01*
X113887217Y-124122419D02*
X113982455Y-124122419D01*
X113982455Y-124122419D02*
X114125312Y-124170038D01*
X114125312Y-124170038D02*
X114172931Y-124217657D01*
X114506265Y-124122419D02*
X115125312Y-124122419D01*
X115125312Y-124122419D02*
X114791979Y-124503371D01*
X114791979Y-124503371D02*
X114934836Y-124503371D01*
X114934836Y-124503371D02*
X115030074Y-124550990D01*
X115030074Y-124550990D02*
X115077693Y-124598609D01*
X115077693Y-124598609D02*
X115125312Y-124693847D01*
X115125312Y-124693847D02*
X115125312Y-124931942D01*
X115125312Y-124931942D02*
X115077693Y-125027180D01*
X115077693Y-125027180D02*
X115030074Y-125074800D01*
X115030074Y-125074800D02*
X114934836Y-125122419D01*
X114934836Y-125122419D02*
X114649122Y-125122419D01*
X114649122Y-125122419D02*
X114553884Y-125074800D01*
X114553884Y-125074800D02*
X114506265Y-125027180D01*
X112553884Y-123122419D02*
X112553884Y-122122419D01*
X112553884Y-122598609D02*
X113125312Y-122598609D01*
X113125312Y-123122419D02*
X113125312Y-122122419D01*
X113934836Y-122598609D02*
X114077693Y-122646228D01*
X114077693Y-122646228D02*
X114125312Y-122693847D01*
X114125312Y-122693847D02*
X114172931Y-122789085D01*
X114172931Y-122789085D02*
X114172931Y-122931942D01*
X114172931Y-122931942D02*
X114125312Y-123027180D01*
X114125312Y-123027180D02*
X114077693Y-123074800D01*
X114077693Y-123074800D02*
X113982455Y-123122419D01*
X113982455Y-123122419D02*
X113601503Y-123122419D01*
X113601503Y-123122419D02*
X113601503Y-122122419D01*
X113601503Y-122122419D02*
X113934836Y-122122419D01*
X113934836Y-122122419D02*
X114030074Y-122170038D01*
X114030074Y-122170038D02*
X114077693Y-122217657D01*
X114077693Y-122217657D02*
X114125312Y-122312895D01*
X114125312Y-122312895D02*
X114125312Y-122408133D01*
X114125312Y-122408133D02*
X114077693Y-122503371D01*
X114077693Y-122503371D02*
X114030074Y-122550990D01*
X114030074Y-122550990D02*
X113934836Y-122598609D01*
X113934836Y-122598609D02*
X113601503Y-122598609D01*
X114506265Y-122122419D02*
X115125312Y-122122419D01*
X115125312Y-122122419D02*
X114791979Y-122503371D01*
X114791979Y-122503371D02*
X114934836Y-122503371D01*
X114934836Y-122503371D02*
X115030074Y-122550990D01*
X115030074Y-122550990D02*
X115077693Y-122598609D01*
X115077693Y-122598609D02*
X115125312Y-122693847D01*
X115125312Y-122693847D02*
X115125312Y-122931942D01*
X115125312Y-122931942D02*
X115077693Y-123027180D01*
X115077693Y-123027180D02*
X115030074Y-123074800D01*
X115030074Y-123074800D02*
X114934836Y-123122419D01*
X114934836Y-123122419D02*
X114649122Y-123122419D01*
X114649122Y-123122419D02*
X114553884Y-123074800D01*
X114553884Y-123074800D02*
X114506265Y-123027180D01*
X112703884Y-121122419D02*
X112703884Y-120122419D01*
X112703884Y-120598609D02*
X113275312Y-120598609D01*
X113275312Y-121122419D02*
X113275312Y-120122419D01*
X113703884Y-120836704D02*
X114180074Y-120836704D01*
X113608646Y-121122419D02*
X113941979Y-120122419D01*
X113941979Y-120122419D02*
X114275312Y-121122419D01*
X114513408Y-120122419D02*
X115132455Y-120122419D01*
X115132455Y-120122419D02*
X114799122Y-120503371D01*
X114799122Y-120503371D02*
X114941979Y-120503371D01*
X114941979Y-120503371D02*
X115037217Y-120550990D01*
X115037217Y-120550990D02*
X115084836Y-120598609D01*
X115084836Y-120598609D02*
X115132455Y-120693847D01*
X115132455Y-120693847D02*
X115132455Y-120931942D01*
X115132455Y-120931942D02*
X115084836Y-121027180D01*
X115084836Y-121027180D02*
X115037217Y-121074800D01*
X115037217Y-121074800D02*
X114941979Y-121122419D01*
X114941979Y-121122419D02*
X114656265Y-121122419D01*
X114656265Y-121122419D02*
X114561027Y-121074800D01*
X114561027Y-121074800D02*
X114513408Y-121027180D01*
X112987217Y-118548609D02*
X113130074Y-118596228D01*
X113130074Y-118596228D02*
X113177693Y-118643847D01*
X113177693Y-118643847D02*
X113225312Y-118739085D01*
X113225312Y-118739085D02*
X113225312Y-118881942D01*
X113225312Y-118881942D02*
X113177693Y-118977180D01*
X113177693Y-118977180D02*
X113130074Y-119024800D01*
X113130074Y-119024800D02*
X113034836Y-119072419D01*
X113034836Y-119072419D02*
X112653884Y-119072419D01*
X112653884Y-119072419D02*
X112653884Y-118072419D01*
X112653884Y-118072419D02*
X112987217Y-118072419D01*
X112987217Y-118072419D02*
X113082455Y-118120038D01*
X113082455Y-118120038D02*
X113130074Y-118167657D01*
X113130074Y-118167657D02*
X113177693Y-118262895D01*
X113177693Y-118262895D02*
X113177693Y-118358133D01*
X113177693Y-118358133D02*
X113130074Y-118453371D01*
X113130074Y-118453371D02*
X113082455Y-118500990D01*
X113082455Y-118500990D02*
X112987217Y-118548609D01*
X112987217Y-118548609D02*
X112653884Y-118548609D01*
X114225312Y-119072419D02*
X113891979Y-118596228D01*
X113653884Y-119072419D02*
X113653884Y-118072419D01*
X113653884Y-118072419D02*
X114034836Y-118072419D01*
X114034836Y-118072419D02*
X114130074Y-118120038D01*
X114130074Y-118120038D02*
X114177693Y-118167657D01*
X114177693Y-118167657D02*
X114225312Y-118262895D01*
X114225312Y-118262895D02*
X114225312Y-118405752D01*
X114225312Y-118405752D02*
X114177693Y-118500990D01*
X114177693Y-118500990D02*
X114130074Y-118548609D01*
X114130074Y-118548609D02*
X114034836Y-118596228D01*
X114034836Y-118596228D02*
X113653884Y-118596228D01*
X114558646Y-118072419D02*
X115177693Y-118072419D01*
X115177693Y-118072419D02*
X114844360Y-118453371D01*
X114844360Y-118453371D02*
X114987217Y-118453371D01*
X114987217Y-118453371D02*
X115082455Y-118500990D01*
X115082455Y-118500990D02*
X115130074Y-118548609D01*
X115130074Y-118548609D02*
X115177693Y-118643847D01*
X115177693Y-118643847D02*
X115177693Y-118881942D01*
X115177693Y-118881942D02*
X115130074Y-118977180D01*
X115130074Y-118977180D02*
X115082455Y-119024800D01*
X115082455Y-119024800D02*
X114987217Y-119072419D01*
X114987217Y-119072419D02*
X114701503Y-119072419D01*
X114701503Y-119072419D02*
X114606265Y-119024800D01*
X114606265Y-119024800D02*
X114558646Y-118977180D01*
X112103884Y-117122419D02*
X112103884Y-116122419D01*
X112103884Y-116122419D02*
X112341979Y-116122419D01*
X112341979Y-116122419D02*
X112484836Y-116170038D01*
X112484836Y-116170038D02*
X112580074Y-116265276D01*
X112580074Y-116265276D02*
X112627693Y-116360514D01*
X112627693Y-116360514D02*
X112675312Y-116550990D01*
X112675312Y-116550990D02*
X112675312Y-116693847D01*
X112675312Y-116693847D02*
X112627693Y-116884323D01*
X112627693Y-116884323D02*
X112580074Y-116979561D01*
X112580074Y-116979561D02*
X112484836Y-117074800D01*
X112484836Y-117074800D02*
X112341979Y-117122419D01*
X112341979Y-117122419D02*
X112103884Y-117122419D01*
X113103884Y-117122419D02*
X113103884Y-116122419D01*
X114151502Y-117122419D02*
X113818169Y-116646228D01*
X113580074Y-117122419D02*
X113580074Y-116122419D01*
X113580074Y-116122419D02*
X113961026Y-116122419D01*
X113961026Y-116122419D02*
X114056264Y-116170038D01*
X114056264Y-116170038D02*
X114103883Y-116217657D01*
X114103883Y-116217657D02*
X114151502Y-116312895D01*
X114151502Y-116312895D02*
X114151502Y-116455752D01*
X114151502Y-116455752D02*
X114103883Y-116550990D01*
X114103883Y-116550990D02*
X114056264Y-116598609D01*
X114056264Y-116598609D02*
X113961026Y-116646228D01*
X113961026Y-116646228D02*
X113580074Y-116646228D01*
X114484836Y-116122419D02*
X115103883Y-116122419D01*
X115103883Y-116122419D02*
X114770550Y-116503371D01*
X114770550Y-116503371D02*
X114913407Y-116503371D01*
X114913407Y-116503371D02*
X115008645Y-116550990D01*
X115008645Y-116550990D02*
X115056264Y-116598609D01*
X115056264Y-116598609D02*
X115103883Y-116693847D01*
X115103883Y-116693847D02*
X115103883Y-116931942D01*
X115103883Y-116931942D02*
X115056264Y-117027180D01*
X115056264Y-117027180D02*
X115008645Y-117074800D01*
X115008645Y-117074800D02*
X114913407Y-117122419D01*
X114913407Y-117122419D02*
X114627693Y-117122419D01*
X114627693Y-117122419D02*
X114532455Y-117074800D01*
X114532455Y-117074800D02*
X114484836Y-117027180D01*
X111353884Y-115072419D02*
X111353884Y-114072419D01*
X111353884Y-114072419D02*
X111734836Y-114072419D01*
X111734836Y-114072419D02*
X111830074Y-114120038D01*
X111830074Y-114120038D02*
X111877693Y-114167657D01*
X111877693Y-114167657D02*
X111925312Y-114262895D01*
X111925312Y-114262895D02*
X111925312Y-114405752D01*
X111925312Y-114405752D02*
X111877693Y-114500990D01*
X111877693Y-114500990D02*
X111830074Y-114548609D01*
X111830074Y-114548609D02*
X111734836Y-114596228D01*
X111734836Y-114596228D02*
X111353884Y-114596228D01*
X112258646Y-114072419D02*
X112496741Y-115072419D01*
X112496741Y-115072419D02*
X112687217Y-114358133D01*
X112687217Y-114358133D02*
X112877693Y-115072419D01*
X112877693Y-115072419D02*
X113115789Y-114072419D01*
X113496741Y-115072419D02*
X113496741Y-114072419D01*
X113496741Y-114072419D02*
X113830074Y-114786704D01*
X113830074Y-114786704D02*
X114163407Y-114072419D01*
X114163407Y-114072419D02*
X114163407Y-115072419D01*
X114544360Y-114072419D02*
X115163407Y-114072419D01*
X115163407Y-114072419D02*
X114830074Y-114453371D01*
X114830074Y-114453371D02*
X114972931Y-114453371D01*
X114972931Y-114453371D02*
X115068169Y-114500990D01*
X115068169Y-114500990D02*
X115115788Y-114548609D01*
X115115788Y-114548609D02*
X115163407Y-114643847D01*
X115163407Y-114643847D02*
X115163407Y-114881942D01*
X115163407Y-114881942D02*
X115115788Y-114977180D01*
X115115788Y-114977180D02*
X115068169Y-115024800D01*
X115068169Y-115024800D02*
X114972931Y-115072419D01*
X114972931Y-115072419D02*
X114687217Y-115072419D01*
X114687217Y-115072419D02*
X114591979Y-115024800D01*
X114591979Y-115024800D02*
X114544360Y-114977180D01*
D11*
X159154510Y-138150828D02*
X159154510Y-136650828D01*
X160654511Y-136722257D02*
X160511654Y-136650828D01*
X160511654Y-136650828D02*
X160297368Y-136650828D01*
X160297368Y-136650828D02*
X160083082Y-136722257D01*
X160083082Y-136722257D02*
X159940225Y-136865114D01*
X159940225Y-136865114D02*
X159868796Y-137007971D01*
X159868796Y-137007971D02*
X159797368Y-137293685D01*
X159797368Y-137293685D02*
X159797368Y-137507971D01*
X159797368Y-137507971D02*
X159868796Y-137793685D01*
X159868796Y-137793685D02*
X159940225Y-137936542D01*
X159940225Y-137936542D02*
X160083082Y-138079400D01*
X160083082Y-138079400D02*
X160297368Y-138150828D01*
X160297368Y-138150828D02*
X160440225Y-138150828D01*
X160440225Y-138150828D02*
X160654511Y-138079400D01*
X160654511Y-138079400D02*
X160725939Y-138007971D01*
X160725939Y-138007971D02*
X160725939Y-137507971D01*
X160725939Y-137507971D02*
X160440225Y-137507971D01*
X161154511Y-136650828D02*
X161654511Y-138150828D01*
X161654511Y-138150828D02*
X162154511Y-136650828D01*
X163511653Y-138007971D02*
X163440225Y-138079400D01*
X163440225Y-138079400D02*
X163225939Y-138150828D01*
X163225939Y-138150828D02*
X163083082Y-138150828D01*
X163083082Y-138150828D02*
X162868796Y-138079400D01*
X162868796Y-138079400D02*
X162725939Y-137936542D01*
X162725939Y-137936542D02*
X162654510Y-137793685D01*
X162654510Y-137793685D02*
X162583082Y-137507971D01*
X162583082Y-137507971D02*
X162583082Y-137293685D01*
X162583082Y-137293685D02*
X162654510Y-137007971D01*
X162654510Y-137007971D02*
X162725939Y-136865114D01*
X162725939Y-136865114D02*
X162868796Y-136722257D01*
X162868796Y-136722257D02*
X163083082Y-136650828D01*
X163083082Y-136650828D02*
X163225939Y-136650828D01*
X163225939Y-136650828D02*
X163440225Y-136722257D01*
X163440225Y-136722257D02*
X163511653Y-136793685D01*
X166154510Y-138007971D02*
X166083082Y-138079400D01*
X166083082Y-138079400D02*
X165868796Y-138150828D01*
X165868796Y-138150828D02*
X165725939Y-138150828D01*
X165725939Y-138150828D02*
X165511653Y-138079400D01*
X165511653Y-138079400D02*
X165368796Y-137936542D01*
X165368796Y-137936542D02*
X165297367Y-137793685D01*
X165297367Y-137793685D02*
X165225939Y-137507971D01*
X165225939Y-137507971D02*
X165225939Y-137293685D01*
X165225939Y-137293685D02*
X165297367Y-137007971D01*
X165297367Y-137007971D02*
X165368796Y-136865114D01*
X165368796Y-136865114D02*
X165511653Y-136722257D01*
X165511653Y-136722257D02*
X165725939Y-136650828D01*
X165725939Y-136650828D02*
X165868796Y-136650828D01*
X165868796Y-136650828D02*
X166083082Y-136722257D01*
X166083082Y-136722257D02*
X166154510Y-136793685D01*
X167011653Y-138150828D02*
X166868796Y-138079400D01*
X166868796Y-138079400D02*
X166797367Y-138007971D01*
X166797367Y-138007971D02*
X166725939Y-137865114D01*
X166725939Y-137865114D02*
X166725939Y-137436542D01*
X166725939Y-137436542D02*
X166797367Y-137293685D01*
X166797367Y-137293685D02*
X166868796Y-137222257D01*
X166868796Y-137222257D02*
X167011653Y-137150828D01*
X167011653Y-137150828D02*
X167225939Y-137150828D01*
X167225939Y-137150828D02*
X167368796Y-137222257D01*
X167368796Y-137222257D02*
X167440225Y-137293685D01*
X167440225Y-137293685D02*
X167511653Y-137436542D01*
X167511653Y-137436542D02*
X167511653Y-137865114D01*
X167511653Y-137865114D02*
X167440225Y-138007971D01*
X167440225Y-138007971D02*
X167368796Y-138079400D01*
X167368796Y-138079400D02*
X167225939Y-138150828D01*
X167225939Y-138150828D02*
X167011653Y-138150828D01*
X168154510Y-137150828D02*
X168154510Y-138150828D01*
X168154510Y-137293685D02*
X168225939Y-137222257D01*
X168225939Y-137222257D02*
X168368796Y-137150828D01*
X168368796Y-137150828D02*
X168583082Y-137150828D01*
X168583082Y-137150828D02*
X168725939Y-137222257D01*
X168725939Y-137222257D02*
X168797368Y-137365114D01*
X168797368Y-137365114D02*
X168797368Y-138150828D01*
X169297368Y-137150828D02*
X169868796Y-137150828D01*
X169511653Y-136650828D02*
X169511653Y-137936542D01*
X169511653Y-137936542D02*
X169583082Y-138079400D01*
X169583082Y-138079400D02*
X169725939Y-138150828D01*
X169725939Y-138150828D02*
X169868796Y-138150828D01*
X170368796Y-138150828D02*
X170368796Y-137150828D01*
X170368796Y-137436542D02*
X170440225Y-137293685D01*
X170440225Y-137293685D02*
X170511654Y-137222257D01*
X170511654Y-137222257D02*
X170654511Y-137150828D01*
X170654511Y-137150828D02*
X170797368Y-137150828D01*
X171511653Y-138150828D02*
X171368796Y-138079400D01*
X171368796Y-138079400D02*
X171297367Y-138007971D01*
X171297367Y-138007971D02*
X171225939Y-137865114D01*
X171225939Y-137865114D02*
X171225939Y-137436542D01*
X171225939Y-137436542D02*
X171297367Y-137293685D01*
X171297367Y-137293685D02*
X171368796Y-137222257D01*
X171368796Y-137222257D02*
X171511653Y-137150828D01*
X171511653Y-137150828D02*
X171725939Y-137150828D01*
X171725939Y-137150828D02*
X171868796Y-137222257D01*
X171868796Y-137222257D02*
X171940225Y-137293685D01*
X171940225Y-137293685D02*
X172011653Y-137436542D01*
X172011653Y-137436542D02*
X172011653Y-137865114D01*
X172011653Y-137865114D02*
X171940225Y-138007971D01*
X171940225Y-138007971D02*
X171868796Y-138079400D01*
X171868796Y-138079400D02*
X171725939Y-138150828D01*
X171725939Y-138150828D02*
X171511653Y-138150828D01*
X172868796Y-138150828D02*
X172725939Y-138079400D01*
X172725939Y-138079400D02*
X172654510Y-137936542D01*
X172654510Y-137936542D02*
X172654510Y-136650828D01*
X175083081Y-137365114D02*
X175297367Y-137436542D01*
X175297367Y-137436542D02*
X175368796Y-137507971D01*
X175368796Y-137507971D02*
X175440224Y-137650828D01*
X175440224Y-137650828D02*
X175440224Y-137865114D01*
X175440224Y-137865114D02*
X175368796Y-138007971D01*
X175368796Y-138007971D02*
X175297367Y-138079400D01*
X175297367Y-138079400D02*
X175154510Y-138150828D01*
X175154510Y-138150828D02*
X174583081Y-138150828D01*
X174583081Y-138150828D02*
X174583081Y-136650828D01*
X174583081Y-136650828D02*
X175083081Y-136650828D01*
X175083081Y-136650828D02*
X175225939Y-136722257D01*
X175225939Y-136722257D02*
X175297367Y-136793685D01*
X175297367Y-136793685D02*
X175368796Y-136936542D01*
X175368796Y-136936542D02*
X175368796Y-137079400D01*
X175368796Y-137079400D02*
X175297367Y-137222257D01*
X175297367Y-137222257D02*
X175225939Y-137293685D01*
X175225939Y-137293685D02*
X175083081Y-137365114D01*
X175083081Y-137365114D02*
X174583081Y-137365114D01*
X176297367Y-138150828D02*
X176154510Y-138079400D01*
X176154510Y-138079400D02*
X176083081Y-138007971D01*
X176083081Y-138007971D02*
X176011653Y-137865114D01*
X176011653Y-137865114D02*
X176011653Y-137436542D01*
X176011653Y-137436542D02*
X176083081Y-137293685D01*
X176083081Y-137293685D02*
X176154510Y-137222257D01*
X176154510Y-137222257D02*
X176297367Y-137150828D01*
X176297367Y-137150828D02*
X176511653Y-137150828D01*
X176511653Y-137150828D02*
X176654510Y-137222257D01*
X176654510Y-137222257D02*
X176725939Y-137293685D01*
X176725939Y-137293685D02*
X176797367Y-137436542D01*
X176797367Y-137436542D02*
X176797367Y-137865114D01*
X176797367Y-137865114D02*
X176725939Y-138007971D01*
X176725939Y-138007971D02*
X176654510Y-138079400D01*
X176654510Y-138079400D02*
X176511653Y-138150828D01*
X176511653Y-138150828D02*
X176297367Y-138150828D01*
X178083082Y-138150828D02*
X178083082Y-137365114D01*
X178083082Y-137365114D02*
X178011653Y-137222257D01*
X178011653Y-137222257D02*
X177868796Y-137150828D01*
X177868796Y-137150828D02*
X177583082Y-137150828D01*
X177583082Y-137150828D02*
X177440224Y-137222257D01*
X178083082Y-138079400D02*
X177940224Y-138150828D01*
X177940224Y-138150828D02*
X177583082Y-138150828D01*
X177583082Y-138150828D02*
X177440224Y-138079400D01*
X177440224Y-138079400D02*
X177368796Y-137936542D01*
X177368796Y-137936542D02*
X177368796Y-137793685D01*
X177368796Y-137793685D02*
X177440224Y-137650828D01*
X177440224Y-137650828D02*
X177583082Y-137579400D01*
X177583082Y-137579400D02*
X177940224Y-137579400D01*
X177940224Y-137579400D02*
X178083082Y-137507971D01*
X178797367Y-138150828D02*
X178797367Y-137150828D01*
X178797367Y-137436542D02*
X178868796Y-137293685D01*
X178868796Y-137293685D02*
X178940225Y-137222257D01*
X178940225Y-137222257D02*
X179083082Y-137150828D01*
X179083082Y-137150828D02*
X179225939Y-137150828D01*
X180368796Y-138150828D02*
X180368796Y-136650828D01*
X180368796Y-138079400D02*
X180225938Y-138150828D01*
X180225938Y-138150828D02*
X179940224Y-138150828D01*
X179940224Y-138150828D02*
X179797367Y-138079400D01*
X179797367Y-138079400D02*
X179725938Y-138007971D01*
X179725938Y-138007971D02*
X179654510Y-137865114D01*
X179654510Y-137865114D02*
X179654510Y-137436542D01*
X179654510Y-137436542D02*
X179725938Y-137293685D01*
X179725938Y-137293685D02*
X179797367Y-137222257D01*
X179797367Y-137222257D02*
X179940224Y-137150828D01*
X179940224Y-137150828D02*
X180225938Y-137150828D01*
X180225938Y-137150828D02*
X180368796Y-137222257D01*
X133911653Y-42457971D02*
X133840225Y-42529400D01*
X133840225Y-42529400D02*
X133625939Y-42600828D01*
X133625939Y-42600828D02*
X133483082Y-42600828D01*
X133483082Y-42600828D02*
X133268796Y-42529400D01*
X133268796Y-42529400D02*
X133125939Y-42386542D01*
X133125939Y-42386542D02*
X133054510Y-42243685D01*
X133054510Y-42243685D02*
X132983082Y-41957971D01*
X132983082Y-41957971D02*
X132983082Y-41743685D01*
X132983082Y-41743685D02*
X133054510Y-41457971D01*
X133054510Y-41457971D02*
X133125939Y-41315114D01*
X133125939Y-41315114D02*
X133268796Y-41172257D01*
X133268796Y-41172257D02*
X133483082Y-41100828D01*
X133483082Y-41100828D02*
X133625939Y-41100828D01*
X133625939Y-41100828D02*
X133840225Y-41172257D01*
X133840225Y-41172257D02*
X133911653Y-41243685D01*
X134483082Y-42172257D02*
X135197368Y-42172257D01*
X134340225Y-42600828D02*
X134840225Y-41100828D01*
X134840225Y-41100828D02*
X135340225Y-42600828D01*
X135840224Y-42600828D02*
X135840224Y-41100828D01*
X135840224Y-41100828D02*
X136697367Y-42600828D01*
X136697367Y-42600828D02*
X136697367Y-41100828D01*
X138554510Y-42600828D02*
X138554510Y-41100828D01*
X139268796Y-42600828D02*
X139268796Y-41100828D01*
X139268796Y-41100828D02*
X140125939Y-42600828D01*
X140125939Y-42600828D02*
X140125939Y-41100828D01*
X164568796Y-56600828D02*
X163854510Y-56600828D01*
X163854510Y-56600828D02*
X163783082Y-57315114D01*
X163783082Y-57315114D02*
X163854510Y-57243685D01*
X163854510Y-57243685D02*
X163997368Y-57172257D01*
X163997368Y-57172257D02*
X164354510Y-57172257D01*
X164354510Y-57172257D02*
X164497368Y-57243685D01*
X164497368Y-57243685D02*
X164568796Y-57315114D01*
X164568796Y-57315114D02*
X164640225Y-57457971D01*
X164640225Y-57457971D02*
X164640225Y-57815114D01*
X164640225Y-57815114D02*
X164568796Y-57957971D01*
X164568796Y-57957971D02*
X164497368Y-58029400D01*
X164497368Y-58029400D02*
X164354510Y-58100828D01*
X164354510Y-58100828D02*
X163997368Y-58100828D01*
X163997368Y-58100828D02*
X163854510Y-58029400D01*
X163854510Y-58029400D02*
X163783082Y-57957971D01*
X165068796Y-56600828D02*
X165568796Y-58100828D01*
X165568796Y-58100828D02*
X166068796Y-56600828D01*
X145404510Y-38650828D02*
X145404510Y-37150828D01*
X145404510Y-37150828D02*
X146261653Y-38650828D01*
X146261653Y-38650828D02*
X146261653Y-37150828D01*
X142404510Y-38650828D02*
X142404510Y-37150828D01*
X142404510Y-37150828D02*
X142975939Y-37150828D01*
X142975939Y-37150828D02*
X143118796Y-37222257D01*
X143118796Y-37222257D02*
X143190225Y-37293685D01*
X143190225Y-37293685D02*
X143261653Y-37436542D01*
X143261653Y-37436542D02*
X143261653Y-37650828D01*
X143261653Y-37650828D02*
X143190225Y-37793685D01*
X143190225Y-37793685D02*
X143118796Y-37865114D01*
X143118796Y-37865114D02*
X142975939Y-37936542D01*
X142975939Y-37936542D02*
X142404510Y-37936542D01*
X161440225Y-35272257D02*
X161297368Y-35200828D01*
X161297368Y-35200828D02*
X161083082Y-35200828D01*
X161083082Y-35200828D02*
X160868796Y-35272257D01*
X160868796Y-35272257D02*
X160725939Y-35415114D01*
X160725939Y-35415114D02*
X160654510Y-35557971D01*
X160654510Y-35557971D02*
X160583082Y-35843685D01*
X160583082Y-35843685D02*
X160583082Y-36057971D01*
X160583082Y-36057971D02*
X160654510Y-36343685D01*
X160654510Y-36343685D02*
X160725939Y-36486542D01*
X160725939Y-36486542D02*
X160868796Y-36629400D01*
X160868796Y-36629400D02*
X161083082Y-36700828D01*
X161083082Y-36700828D02*
X161225939Y-36700828D01*
X161225939Y-36700828D02*
X161440225Y-36629400D01*
X161440225Y-36629400D02*
X161511653Y-36557971D01*
X161511653Y-36557971D02*
X161511653Y-36057971D01*
X161511653Y-36057971D02*
X161225939Y-36057971D01*
X162154510Y-36700828D02*
X162154510Y-35200828D01*
X162154510Y-35200828D02*
X163011653Y-36700828D01*
X163011653Y-36700828D02*
X163011653Y-35200828D01*
X163725939Y-36700828D02*
X163725939Y-35200828D01*
X163725939Y-35200828D02*
X164083082Y-35200828D01*
X164083082Y-35200828D02*
X164297368Y-35272257D01*
X164297368Y-35272257D02*
X164440225Y-35415114D01*
X164440225Y-35415114D02*
X164511654Y-35557971D01*
X164511654Y-35557971D02*
X164583082Y-35843685D01*
X164583082Y-35843685D02*
X164583082Y-36057971D01*
X164583082Y-36057971D02*
X164511654Y-36343685D01*
X164511654Y-36343685D02*
X164440225Y-36486542D01*
X164440225Y-36486542D02*
X164297368Y-36629400D01*
X164297368Y-36629400D02*
X164083082Y-36700828D01*
X164083082Y-36700828D02*
X163725939Y-36700828D01*
X164540225Y-60592257D02*
X164397368Y-60520828D01*
X164397368Y-60520828D02*
X164183082Y-60520828D01*
X164183082Y-60520828D02*
X163968796Y-60592257D01*
X163968796Y-60592257D02*
X163825939Y-60735114D01*
X163825939Y-60735114D02*
X163754510Y-60877971D01*
X163754510Y-60877971D02*
X163683082Y-61163685D01*
X163683082Y-61163685D02*
X163683082Y-61377971D01*
X163683082Y-61377971D02*
X163754510Y-61663685D01*
X163754510Y-61663685D02*
X163825939Y-61806542D01*
X163825939Y-61806542D02*
X163968796Y-61949400D01*
X163968796Y-61949400D02*
X164183082Y-62020828D01*
X164183082Y-62020828D02*
X164325939Y-62020828D01*
X164325939Y-62020828D02*
X164540225Y-61949400D01*
X164540225Y-61949400D02*
X164611653Y-61877971D01*
X164611653Y-61877971D02*
X164611653Y-61377971D01*
X164611653Y-61377971D02*
X164325939Y-61377971D01*
X165254510Y-62020828D02*
X165254510Y-60520828D01*
X165254510Y-60520828D02*
X166111653Y-62020828D01*
X166111653Y-62020828D02*
X166111653Y-60520828D01*
X166825939Y-62020828D02*
X166825939Y-60520828D01*
X166825939Y-60520828D02*
X167183082Y-60520828D01*
X167183082Y-60520828D02*
X167397368Y-60592257D01*
X167397368Y-60592257D02*
X167540225Y-60735114D01*
X167540225Y-60735114D02*
X167611654Y-60877971D01*
X167611654Y-60877971D02*
X167683082Y-61163685D01*
X167683082Y-61163685D02*
X167683082Y-61377971D01*
X167683082Y-61377971D02*
X167611654Y-61663685D01*
X167611654Y-61663685D02*
X167540225Y-61806542D01*
X167540225Y-61806542D02*
X167397368Y-61949400D01*
X167397368Y-61949400D02*
X167183082Y-62020828D01*
X167183082Y-62020828D02*
X166825939Y-62020828D01*
X147940225Y-36700828D02*
X147083082Y-36700828D01*
X147511653Y-36700828D02*
X147511653Y-35200828D01*
X147511653Y-35200828D02*
X147368796Y-35415114D01*
X147368796Y-35415114D02*
X147225939Y-35557971D01*
X147225939Y-35557971D02*
X147083082Y-35629400D01*
X148511653Y-35343685D02*
X148583081Y-35272257D01*
X148583081Y-35272257D02*
X148725939Y-35200828D01*
X148725939Y-35200828D02*
X149083081Y-35200828D01*
X149083081Y-35200828D02*
X149225939Y-35272257D01*
X149225939Y-35272257D02*
X149297367Y-35343685D01*
X149297367Y-35343685D02*
X149368796Y-35486542D01*
X149368796Y-35486542D02*
X149368796Y-35629400D01*
X149368796Y-35629400D02*
X149297367Y-35843685D01*
X149297367Y-35843685D02*
X148440224Y-36700828D01*
X148440224Y-36700828D02*
X149368796Y-36700828D01*
X149797367Y-35200828D02*
X150297367Y-36700828D01*
X150297367Y-36700828D02*
X150797367Y-35200828D01*
X167140225Y-49272257D02*
X166997368Y-49200828D01*
X166997368Y-49200828D02*
X166783082Y-49200828D01*
X166783082Y-49200828D02*
X166568796Y-49272257D01*
X166568796Y-49272257D02*
X166425939Y-49415114D01*
X166425939Y-49415114D02*
X166354510Y-49557971D01*
X166354510Y-49557971D02*
X166283082Y-49843685D01*
X166283082Y-49843685D02*
X166283082Y-50057971D01*
X166283082Y-50057971D02*
X166354510Y-50343685D01*
X166354510Y-50343685D02*
X166425939Y-50486542D01*
X166425939Y-50486542D02*
X166568796Y-50629400D01*
X166568796Y-50629400D02*
X166783082Y-50700828D01*
X166783082Y-50700828D02*
X166925939Y-50700828D01*
X166925939Y-50700828D02*
X167140225Y-50629400D01*
X167140225Y-50629400D02*
X167211653Y-50557971D01*
X167211653Y-50557971D02*
X167211653Y-50057971D01*
X167211653Y-50057971D02*
X166925939Y-50057971D01*
X167854510Y-50700828D02*
X167854510Y-49200828D01*
X167854510Y-49200828D02*
X168711653Y-50700828D01*
X168711653Y-50700828D02*
X168711653Y-49200828D01*
X169425939Y-50700828D02*
X169425939Y-49200828D01*
X169425939Y-49200828D02*
X169783082Y-49200828D01*
X169783082Y-49200828D02*
X169997368Y-49272257D01*
X169997368Y-49272257D02*
X170140225Y-49415114D01*
X170140225Y-49415114D02*
X170211654Y-49557971D01*
X170211654Y-49557971D02*
X170283082Y-49843685D01*
X170283082Y-49843685D02*
X170283082Y-50057971D01*
X170283082Y-50057971D02*
X170211654Y-50343685D01*
X170211654Y-50343685D02*
X170140225Y-50486542D01*
X170140225Y-50486542D02*
X169997368Y-50629400D01*
X169997368Y-50629400D02*
X169783082Y-50700828D01*
X169783082Y-50700828D02*
X169425939Y-50700828D01*
X163761653Y-64100828D02*
X164690225Y-64100828D01*
X164690225Y-64100828D02*
X164190225Y-64672257D01*
X164190225Y-64672257D02*
X164404510Y-64672257D01*
X164404510Y-64672257D02*
X164547368Y-64743685D01*
X164547368Y-64743685D02*
X164618796Y-64815114D01*
X164618796Y-64815114D02*
X164690225Y-64957971D01*
X164690225Y-64957971D02*
X164690225Y-65315114D01*
X164690225Y-65315114D02*
X164618796Y-65457971D01*
X164618796Y-65457971D02*
X164547368Y-65529400D01*
X164547368Y-65529400D02*
X164404510Y-65600828D01*
X164404510Y-65600828D02*
X163975939Y-65600828D01*
X163975939Y-65600828D02*
X163833082Y-65529400D01*
X163833082Y-65529400D02*
X163761653Y-65457971D01*
X165333081Y-65457971D02*
X165404510Y-65529400D01*
X165404510Y-65529400D02*
X165333081Y-65600828D01*
X165333081Y-65600828D02*
X165261653Y-65529400D01*
X165261653Y-65529400D02*
X165333081Y-65457971D01*
X165333081Y-65457971D02*
X165333081Y-65600828D01*
X165904510Y-64100828D02*
X166833082Y-64100828D01*
X166833082Y-64100828D02*
X166333082Y-64672257D01*
X166333082Y-64672257D02*
X166547367Y-64672257D01*
X166547367Y-64672257D02*
X166690225Y-64743685D01*
X166690225Y-64743685D02*
X166761653Y-64815114D01*
X166761653Y-64815114D02*
X166833082Y-64957971D01*
X166833082Y-64957971D02*
X166833082Y-65315114D01*
X166833082Y-65315114D02*
X166761653Y-65457971D01*
X166761653Y-65457971D02*
X166690225Y-65529400D01*
X166690225Y-65529400D02*
X166547367Y-65600828D01*
X166547367Y-65600828D02*
X166118796Y-65600828D01*
X166118796Y-65600828D02*
X165975939Y-65529400D01*
X165975939Y-65529400D02*
X165904510Y-65457971D01*
X167261653Y-64100828D02*
X167761653Y-65600828D01*
X167761653Y-65600828D02*
X168261653Y-64100828D01*
X166140225Y-44900828D02*
X166640225Y-46400828D01*
X166640225Y-46400828D02*
X167140225Y-44900828D01*
X168497367Y-46257971D02*
X168425939Y-46329400D01*
X168425939Y-46329400D02*
X168211653Y-46400828D01*
X168211653Y-46400828D02*
X168068796Y-46400828D01*
X168068796Y-46400828D02*
X167854510Y-46329400D01*
X167854510Y-46329400D02*
X167711653Y-46186542D01*
X167711653Y-46186542D02*
X167640224Y-46043685D01*
X167640224Y-46043685D02*
X167568796Y-45757971D01*
X167568796Y-45757971D02*
X167568796Y-45543685D01*
X167568796Y-45543685D02*
X167640224Y-45257971D01*
X167640224Y-45257971D02*
X167711653Y-45115114D01*
X167711653Y-45115114D02*
X167854510Y-44972257D01*
X167854510Y-44972257D02*
X168068796Y-44900828D01*
X168068796Y-44900828D02*
X168211653Y-44900828D01*
X168211653Y-44900828D02*
X168425939Y-44972257D01*
X168425939Y-44972257D02*
X168497367Y-45043685D01*
X169997367Y-46257971D02*
X169925939Y-46329400D01*
X169925939Y-46329400D02*
X169711653Y-46400828D01*
X169711653Y-46400828D02*
X169568796Y-46400828D01*
X169568796Y-46400828D02*
X169354510Y-46329400D01*
X169354510Y-46329400D02*
X169211653Y-46186542D01*
X169211653Y-46186542D02*
X169140224Y-46043685D01*
X169140224Y-46043685D02*
X169068796Y-45757971D01*
X169068796Y-45757971D02*
X169068796Y-45543685D01*
X169068796Y-45543685D02*
X169140224Y-45257971D01*
X169140224Y-45257971D02*
X169211653Y-45115114D01*
X169211653Y-45115114D02*
X169354510Y-44972257D01*
X169354510Y-44972257D02*
X169568796Y-44900828D01*
X169568796Y-44900828D02*
X169711653Y-44900828D01*
X169711653Y-44900828D02*
X169925939Y-44972257D01*
X169925939Y-44972257D02*
X169997367Y-45043685D01*
D12*
X183090476Y-111304819D02*
X183090476Y-112019104D01*
X183090476Y-112019104D02*
X183042857Y-112161961D01*
X183042857Y-112161961D02*
X182947619Y-112257200D01*
X182947619Y-112257200D02*
X182804762Y-112304819D01*
X182804762Y-112304819D02*
X182709524Y-112304819D01*
X184090476Y-112304819D02*
X183519048Y-112304819D01*
X183804762Y-112304819D02*
X183804762Y-111304819D01*
X183804762Y-111304819D02*
X183709524Y-111447676D01*
X183709524Y-111447676D02*
X183614286Y-111542914D01*
X183614286Y-111542914D02*
X183519048Y-111590533D01*
X184709524Y-111304819D02*
X184804762Y-111304819D01*
X184804762Y-111304819D02*
X184900000Y-111352438D01*
X184900000Y-111352438D02*
X184947619Y-111400057D01*
X184947619Y-111400057D02*
X184995238Y-111495295D01*
X184995238Y-111495295D02*
X185042857Y-111685771D01*
X185042857Y-111685771D02*
X185042857Y-111923866D01*
X185042857Y-111923866D02*
X184995238Y-112114342D01*
X184995238Y-112114342D02*
X184947619Y-112209580D01*
X184947619Y-112209580D02*
X184900000Y-112257200D01*
X184900000Y-112257200D02*
X184804762Y-112304819D01*
X184804762Y-112304819D02*
X184709524Y-112304819D01*
X184709524Y-112304819D02*
X184614286Y-112257200D01*
X184614286Y-112257200D02*
X184566667Y-112209580D01*
X184566667Y-112209580D02*
X184519048Y-112114342D01*
X184519048Y-112114342D02*
X184471429Y-111923866D01*
X184471429Y-111923866D02*
X184471429Y-111685771D01*
X184471429Y-111685771D02*
X184519048Y-111495295D01*
X184519048Y-111495295D02*
X184566667Y-111400057D01*
X184566667Y-111400057D02*
X184614286Y-111352438D01*
X184614286Y-111352438D02*
X184709524Y-111304819D01*
X182716666Y-67004819D02*
X182716666Y-67719104D01*
X182716666Y-67719104D02*
X182669047Y-67861961D01*
X182669047Y-67861961D02*
X182573809Y-67957200D01*
X182573809Y-67957200D02*
X182430952Y-68004819D01*
X182430952Y-68004819D02*
X182335714Y-68004819D01*
X183240476Y-68004819D02*
X183430952Y-68004819D01*
X183430952Y-68004819D02*
X183526190Y-67957200D01*
X183526190Y-67957200D02*
X183573809Y-67909580D01*
X183573809Y-67909580D02*
X183669047Y-67766723D01*
X183669047Y-67766723D02*
X183716666Y-67576247D01*
X183716666Y-67576247D02*
X183716666Y-67195295D01*
X183716666Y-67195295D02*
X183669047Y-67100057D01*
X183669047Y-67100057D02*
X183621428Y-67052438D01*
X183621428Y-67052438D02*
X183526190Y-67004819D01*
X183526190Y-67004819D02*
X183335714Y-67004819D01*
X183335714Y-67004819D02*
X183240476Y-67052438D01*
X183240476Y-67052438D02*
X183192857Y-67100057D01*
X183192857Y-67100057D02*
X183145238Y-67195295D01*
X183145238Y-67195295D02*
X183145238Y-67433390D01*
X183145238Y-67433390D02*
X183192857Y-67528628D01*
X183192857Y-67528628D02*
X183240476Y-67576247D01*
X183240476Y-67576247D02*
X183335714Y-67623866D01*
X183335714Y-67623866D02*
X183526190Y-67623866D01*
X183526190Y-67623866D02*
X183621428Y-67576247D01*
X183621428Y-67576247D02*
X183669047Y-67528628D01*
X183669047Y-67528628D02*
X183716666Y-67433390D01*
X121366666Y-111204819D02*
X121366666Y-111919104D01*
X121366666Y-111919104D02*
X121319047Y-112061961D01*
X121319047Y-112061961D02*
X121223809Y-112157200D01*
X121223809Y-112157200D02*
X121080952Y-112204819D01*
X121080952Y-112204819D02*
X120985714Y-112204819D01*
X121985714Y-111633390D02*
X121890476Y-111585771D01*
X121890476Y-111585771D02*
X121842857Y-111538152D01*
X121842857Y-111538152D02*
X121795238Y-111442914D01*
X121795238Y-111442914D02*
X121795238Y-111395295D01*
X121795238Y-111395295D02*
X121842857Y-111300057D01*
X121842857Y-111300057D02*
X121890476Y-111252438D01*
X121890476Y-111252438D02*
X121985714Y-111204819D01*
X121985714Y-111204819D02*
X122176190Y-111204819D01*
X122176190Y-111204819D02*
X122271428Y-111252438D01*
X122271428Y-111252438D02*
X122319047Y-111300057D01*
X122319047Y-111300057D02*
X122366666Y-111395295D01*
X122366666Y-111395295D02*
X122366666Y-111442914D01*
X122366666Y-111442914D02*
X122319047Y-111538152D01*
X122319047Y-111538152D02*
X122271428Y-111585771D01*
X122271428Y-111585771D02*
X122176190Y-111633390D01*
X122176190Y-111633390D02*
X121985714Y-111633390D01*
X121985714Y-111633390D02*
X121890476Y-111681009D01*
X121890476Y-111681009D02*
X121842857Y-111728628D01*
X121842857Y-111728628D02*
X121795238Y-111823866D01*
X121795238Y-111823866D02*
X121795238Y-112014342D01*
X121795238Y-112014342D02*
X121842857Y-112109580D01*
X121842857Y-112109580D02*
X121890476Y-112157200D01*
X121890476Y-112157200D02*
X121985714Y-112204819D01*
X121985714Y-112204819D02*
X122176190Y-112204819D01*
X122176190Y-112204819D02*
X122271428Y-112157200D01*
X122271428Y-112157200D02*
X122319047Y-112109580D01*
X122319047Y-112109580D02*
X122366666Y-112014342D01*
X122366666Y-112014342D02*
X122366666Y-111823866D01*
X122366666Y-111823866D02*
X122319047Y-111728628D01*
X122319047Y-111728628D02*
X122271428Y-111681009D01*
X122271428Y-111681009D02*
X122176190Y-111633390D01*
X125416666Y-67004819D02*
X125416666Y-67719104D01*
X125416666Y-67719104D02*
X125369047Y-67861961D01*
X125369047Y-67861961D02*
X125273809Y-67957200D01*
X125273809Y-67957200D02*
X125130952Y-68004819D01*
X125130952Y-68004819D02*
X125035714Y-68004819D01*
X125797619Y-67004819D02*
X126464285Y-67004819D01*
X126464285Y-67004819D02*
X126035714Y-68004819D01*
X177266666Y-111354819D02*
X177266666Y-112069104D01*
X177266666Y-112069104D02*
X177219047Y-112211961D01*
X177219047Y-112211961D02*
X177123809Y-112307200D01*
X177123809Y-112307200D02*
X176980952Y-112354819D01*
X176980952Y-112354819D02*
X176885714Y-112354819D01*
X178171428Y-111354819D02*
X177980952Y-111354819D01*
X177980952Y-111354819D02*
X177885714Y-111402438D01*
X177885714Y-111402438D02*
X177838095Y-111450057D01*
X177838095Y-111450057D02*
X177742857Y-111592914D01*
X177742857Y-111592914D02*
X177695238Y-111783390D01*
X177695238Y-111783390D02*
X177695238Y-112164342D01*
X177695238Y-112164342D02*
X177742857Y-112259580D01*
X177742857Y-112259580D02*
X177790476Y-112307200D01*
X177790476Y-112307200D02*
X177885714Y-112354819D01*
X177885714Y-112354819D02*
X178076190Y-112354819D01*
X178076190Y-112354819D02*
X178171428Y-112307200D01*
X178171428Y-112307200D02*
X178219047Y-112259580D01*
X178219047Y-112259580D02*
X178266666Y-112164342D01*
X178266666Y-112164342D02*
X178266666Y-111926247D01*
X178266666Y-111926247D02*
X178219047Y-111831009D01*
X178219047Y-111831009D02*
X178171428Y-111783390D01*
X178171428Y-111783390D02*
X178076190Y-111735771D01*
X178076190Y-111735771D02*
X177885714Y-111735771D01*
X177885714Y-111735771D02*
X177790476Y-111783390D01*
X177790476Y-111783390D02*
X177742857Y-111831009D01*
X177742857Y-111831009D02*
X177695238Y-111926247D01*
X178066666Y-67104819D02*
X178066666Y-67819104D01*
X178066666Y-67819104D02*
X178019047Y-67961961D01*
X178019047Y-67961961D02*
X177923809Y-68057200D01*
X177923809Y-68057200D02*
X177780952Y-68104819D01*
X177780952Y-68104819D02*
X177685714Y-68104819D01*
X178971428Y-67438152D02*
X178971428Y-68104819D01*
X178733333Y-67057200D02*
X178495238Y-67771485D01*
X178495238Y-67771485D02*
X179114285Y-67771485D01*
X115766666Y-67404819D02*
X115766666Y-68119104D01*
X115766666Y-68119104D02*
X115719047Y-68261961D01*
X115719047Y-68261961D02*
X115623809Y-68357200D01*
X115623809Y-68357200D02*
X115480952Y-68404819D01*
X115480952Y-68404819D02*
X115385714Y-68404819D01*
X116147619Y-67404819D02*
X116766666Y-67404819D01*
X116766666Y-67404819D02*
X116433333Y-67785771D01*
X116433333Y-67785771D02*
X116576190Y-67785771D01*
X116576190Y-67785771D02*
X116671428Y-67833390D01*
X116671428Y-67833390D02*
X116719047Y-67881009D01*
X116719047Y-67881009D02*
X116766666Y-67976247D01*
X116766666Y-67976247D02*
X116766666Y-68214342D01*
X116766666Y-68214342D02*
X116719047Y-68309580D01*
X116719047Y-68309580D02*
X116671428Y-68357200D01*
X116671428Y-68357200D02*
X116576190Y-68404819D01*
X116576190Y-68404819D02*
X116290476Y-68404819D01*
X116290476Y-68404819D02*
X116195238Y-68357200D01*
X116195238Y-68357200D02*
X116147619Y-68309580D01*
X148840476Y-57354819D02*
X148840476Y-58069104D01*
X148840476Y-58069104D02*
X148792857Y-58211961D01*
X148792857Y-58211961D02*
X148697619Y-58307200D01*
X148697619Y-58307200D02*
X148554762Y-58354819D01*
X148554762Y-58354819D02*
X148459524Y-58354819D01*
X149840476Y-58354819D02*
X149269048Y-58354819D01*
X149554762Y-58354819D02*
X149554762Y-57354819D01*
X149554762Y-57354819D02*
X149459524Y-57497676D01*
X149459524Y-57497676D02*
X149364286Y-57592914D01*
X149364286Y-57592914D02*
X149269048Y-57640533D01*
X150792857Y-58354819D02*
X150221429Y-58354819D01*
X150507143Y-58354819D02*
X150507143Y-57354819D01*
X150507143Y-57354819D02*
X150411905Y-57497676D01*
X150411905Y-57497676D02*
X150316667Y-57592914D01*
X150316667Y-57592914D02*
X150221429Y-57640533D01*
X139516666Y-39004819D02*
X139516666Y-39719104D01*
X139516666Y-39719104D02*
X139469047Y-39861961D01*
X139469047Y-39861961D02*
X139373809Y-39957200D01*
X139373809Y-39957200D02*
X139230952Y-40004819D01*
X139230952Y-40004819D02*
X139135714Y-40004819D01*
X140516666Y-40004819D02*
X139945238Y-40004819D01*
X140230952Y-40004819D02*
X140230952Y-39004819D01*
X140230952Y-39004819D02*
X140135714Y-39147676D01*
X140135714Y-39147676D02*
X140040476Y-39242914D01*
X140040476Y-39242914D02*
X139945238Y-39290533D01*
X147128819Y-49244104D02*
X146128819Y-49244104D01*
X146128819Y-49244104D02*
X146128819Y-49006009D01*
X146128819Y-49006009D02*
X146176438Y-48863152D01*
X146176438Y-48863152D02*
X146271676Y-48767914D01*
X146271676Y-48767914D02*
X146366914Y-48720295D01*
X146366914Y-48720295D02*
X146557390Y-48672676D01*
X146557390Y-48672676D02*
X146700247Y-48672676D01*
X146700247Y-48672676D02*
X146890723Y-48720295D01*
X146890723Y-48720295D02*
X146985961Y-48767914D01*
X146985961Y-48767914D02*
X147081200Y-48863152D01*
X147081200Y-48863152D02*
X147128819Y-49006009D01*
X147128819Y-49006009D02*
X147128819Y-49244104D01*
X146462152Y-47815533D02*
X147128819Y-47815533D01*
X146081200Y-48053628D02*
X146795485Y-48291723D01*
X146795485Y-48291723D02*
X146795485Y-47672676D01*
X115133333Y-111204819D02*
X114800000Y-110728628D01*
X114561905Y-111204819D02*
X114561905Y-110204819D01*
X114561905Y-110204819D02*
X114942857Y-110204819D01*
X114942857Y-110204819D02*
X115038095Y-110252438D01*
X115038095Y-110252438D02*
X115085714Y-110300057D01*
X115085714Y-110300057D02*
X115133333Y-110395295D01*
X115133333Y-110395295D02*
X115133333Y-110538152D01*
X115133333Y-110538152D02*
X115085714Y-110633390D01*
X115085714Y-110633390D02*
X115038095Y-110681009D01*
X115038095Y-110681009D02*
X114942857Y-110728628D01*
X114942857Y-110728628D02*
X114561905Y-110728628D01*
X116038095Y-110204819D02*
X115561905Y-110204819D01*
X115561905Y-110204819D02*
X115514286Y-110681009D01*
X115514286Y-110681009D02*
X115561905Y-110633390D01*
X115561905Y-110633390D02*
X115657143Y-110585771D01*
X115657143Y-110585771D02*
X115895238Y-110585771D01*
X115895238Y-110585771D02*
X115990476Y-110633390D01*
X115990476Y-110633390D02*
X116038095Y-110681009D01*
X116038095Y-110681009D02*
X116085714Y-110776247D01*
X116085714Y-110776247D02*
X116085714Y-111014342D01*
X116085714Y-111014342D02*
X116038095Y-111109580D01*
X116038095Y-111109580D02*
X115990476Y-111157200D01*
X115990476Y-111157200D02*
X115895238Y-111204819D01*
X115895238Y-111204819D02*
X115657143Y-111204819D01*
X115657143Y-111204819D02*
X115561905Y-111157200D01*
X115561905Y-111157200D02*
X115514286Y-111109580D01*
X118167261Y-104550057D02*
X118072023Y-104502438D01*
X118072023Y-104502438D02*
X117976785Y-104407200D01*
X117976785Y-104407200D02*
X117833928Y-104264342D01*
X117833928Y-104264342D02*
X117738690Y-104216723D01*
X117738690Y-104216723D02*
X117643452Y-104216723D01*
X117691071Y-104454819D02*
X117595833Y-104407200D01*
X117595833Y-104407200D02*
X117500595Y-104311961D01*
X117500595Y-104311961D02*
X117452976Y-104121485D01*
X117452976Y-104121485D02*
X117452976Y-103788152D01*
X117452976Y-103788152D02*
X117500595Y-103597676D01*
X117500595Y-103597676D02*
X117595833Y-103502438D01*
X117595833Y-103502438D02*
X117691071Y-103454819D01*
X117691071Y-103454819D02*
X117881547Y-103454819D01*
X117881547Y-103454819D02*
X117976785Y-103502438D01*
X117976785Y-103502438D02*
X118072023Y-103597676D01*
X118072023Y-103597676D02*
X118119642Y-103788152D01*
X118119642Y-103788152D02*
X118119642Y-104121485D01*
X118119642Y-104121485D02*
X118072023Y-104311961D01*
X118072023Y-104311961D02*
X117976785Y-104407200D01*
X117976785Y-104407200D02*
X117881547Y-104454819D01*
X117881547Y-104454819D02*
X117691071Y-104454819D01*
X118500595Y-103550057D02*
X118548214Y-103502438D01*
X118548214Y-103502438D02*
X118643452Y-103454819D01*
X118643452Y-103454819D02*
X118881547Y-103454819D01*
X118881547Y-103454819D02*
X118976785Y-103502438D01*
X118976785Y-103502438D02*
X119024404Y-103550057D01*
X119024404Y-103550057D02*
X119072023Y-103645295D01*
X119072023Y-103645295D02*
X119072023Y-103740533D01*
X119072023Y-103740533D02*
X119024404Y-103883390D01*
X119024404Y-103883390D02*
X118452976Y-104454819D01*
X118452976Y-104454819D02*
X119072023Y-104454819D01*
X123354819Y-108616666D02*
X122878628Y-108949999D01*
X123354819Y-109188094D02*
X122354819Y-109188094D01*
X122354819Y-109188094D02*
X122354819Y-108807142D01*
X122354819Y-108807142D02*
X122402438Y-108711904D01*
X122402438Y-108711904D02*
X122450057Y-108664285D01*
X122450057Y-108664285D02*
X122545295Y-108616666D01*
X122545295Y-108616666D02*
X122688152Y-108616666D01*
X122688152Y-108616666D02*
X122783390Y-108664285D01*
X122783390Y-108664285D02*
X122831009Y-108711904D01*
X122831009Y-108711904D02*
X122878628Y-108807142D01*
X122878628Y-108807142D02*
X122878628Y-109188094D01*
X122354819Y-107759523D02*
X122354819Y-107949999D01*
X122354819Y-107949999D02*
X122402438Y-108045237D01*
X122402438Y-108045237D02*
X122450057Y-108092856D01*
X122450057Y-108092856D02*
X122592914Y-108188094D01*
X122592914Y-108188094D02*
X122783390Y-108235713D01*
X122783390Y-108235713D02*
X123164342Y-108235713D01*
X123164342Y-108235713D02*
X123259580Y-108188094D01*
X123259580Y-108188094D02*
X123307200Y-108140475D01*
X123307200Y-108140475D02*
X123354819Y-108045237D01*
X123354819Y-108045237D02*
X123354819Y-107854761D01*
X123354819Y-107854761D02*
X123307200Y-107759523D01*
X123307200Y-107759523D02*
X123259580Y-107711904D01*
X123259580Y-107711904D02*
X123164342Y-107664285D01*
X123164342Y-107664285D02*
X122926247Y-107664285D01*
X122926247Y-107664285D02*
X122831009Y-107711904D01*
X122831009Y-107711904D02*
X122783390Y-107759523D01*
X122783390Y-107759523D02*
X122735771Y-107854761D01*
X122735771Y-107854761D02*
X122735771Y-108045237D01*
X122735771Y-108045237D02*
X122783390Y-108140475D01*
X122783390Y-108140475D02*
X122831009Y-108188094D01*
X122831009Y-108188094D02*
X122926247Y-108235713D01*
X180067261Y-105450057D02*
X179972023Y-105402438D01*
X179972023Y-105402438D02*
X179876785Y-105307200D01*
X179876785Y-105307200D02*
X179733928Y-105164342D01*
X179733928Y-105164342D02*
X179638690Y-105116723D01*
X179638690Y-105116723D02*
X179543452Y-105116723D01*
X179591071Y-105354819D02*
X179495833Y-105307200D01*
X179495833Y-105307200D02*
X179400595Y-105211961D01*
X179400595Y-105211961D02*
X179352976Y-105021485D01*
X179352976Y-105021485D02*
X179352976Y-104688152D01*
X179352976Y-104688152D02*
X179400595Y-104497676D01*
X179400595Y-104497676D02*
X179495833Y-104402438D01*
X179495833Y-104402438D02*
X179591071Y-104354819D01*
X179591071Y-104354819D02*
X179781547Y-104354819D01*
X179781547Y-104354819D02*
X179876785Y-104402438D01*
X179876785Y-104402438D02*
X179972023Y-104497676D01*
X179972023Y-104497676D02*
X180019642Y-104688152D01*
X180019642Y-104688152D02*
X180019642Y-105021485D01*
X180019642Y-105021485D02*
X179972023Y-105211961D01*
X179972023Y-105211961D02*
X179876785Y-105307200D01*
X179876785Y-105307200D02*
X179781547Y-105354819D01*
X179781547Y-105354819D02*
X179591071Y-105354819D01*
X180352976Y-104354819D02*
X180972023Y-104354819D01*
X180972023Y-104354819D02*
X180638690Y-104735771D01*
X180638690Y-104735771D02*
X180781547Y-104735771D01*
X180781547Y-104735771D02*
X180876785Y-104783390D01*
X180876785Y-104783390D02*
X180924404Y-104831009D01*
X180924404Y-104831009D02*
X180972023Y-104926247D01*
X180972023Y-104926247D02*
X180972023Y-105164342D01*
X180972023Y-105164342D02*
X180924404Y-105259580D01*
X180924404Y-105259580D02*
X180876785Y-105307200D01*
X180876785Y-105307200D02*
X180781547Y-105354819D01*
X180781547Y-105354819D02*
X180495833Y-105354819D01*
X180495833Y-105354819D02*
X180400595Y-105307200D01*
X180400595Y-105307200D02*
X180352976Y-105259580D01*
X185254819Y-109516666D02*
X184778628Y-109849999D01*
X185254819Y-110088094D02*
X184254819Y-110088094D01*
X184254819Y-110088094D02*
X184254819Y-109707142D01*
X184254819Y-109707142D02*
X184302438Y-109611904D01*
X184302438Y-109611904D02*
X184350057Y-109564285D01*
X184350057Y-109564285D02*
X184445295Y-109516666D01*
X184445295Y-109516666D02*
X184588152Y-109516666D01*
X184588152Y-109516666D02*
X184683390Y-109564285D01*
X184683390Y-109564285D02*
X184731009Y-109611904D01*
X184731009Y-109611904D02*
X184778628Y-109707142D01*
X184778628Y-109707142D02*
X184778628Y-110088094D01*
X184683390Y-108945237D02*
X184635771Y-109040475D01*
X184635771Y-109040475D02*
X184588152Y-109088094D01*
X184588152Y-109088094D02*
X184492914Y-109135713D01*
X184492914Y-109135713D02*
X184445295Y-109135713D01*
X184445295Y-109135713D02*
X184350057Y-109088094D01*
X184350057Y-109088094D02*
X184302438Y-109040475D01*
X184302438Y-109040475D02*
X184254819Y-108945237D01*
X184254819Y-108945237D02*
X184254819Y-108754761D01*
X184254819Y-108754761D02*
X184302438Y-108659523D01*
X184302438Y-108659523D02*
X184350057Y-108611904D01*
X184350057Y-108611904D02*
X184445295Y-108564285D01*
X184445295Y-108564285D02*
X184492914Y-108564285D01*
X184492914Y-108564285D02*
X184588152Y-108611904D01*
X184588152Y-108611904D02*
X184635771Y-108659523D01*
X184635771Y-108659523D02*
X184683390Y-108754761D01*
X184683390Y-108754761D02*
X184683390Y-108945237D01*
X184683390Y-108945237D02*
X184731009Y-109040475D01*
X184731009Y-109040475D02*
X184778628Y-109088094D01*
X184778628Y-109088094D02*
X184873866Y-109135713D01*
X184873866Y-109135713D02*
X185064342Y-109135713D01*
X185064342Y-109135713D02*
X185159580Y-109088094D01*
X185159580Y-109088094D02*
X185207200Y-109040475D01*
X185207200Y-109040475D02*
X185254819Y-108945237D01*
X185254819Y-108945237D02*
X185254819Y-108754761D01*
X185254819Y-108754761D02*
X185207200Y-108659523D01*
X185207200Y-108659523D02*
X185159580Y-108611904D01*
X185159580Y-108611904D02*
X185064342Y-108564285D01*
X185064342Y-108564285D02*
X184873866Y-108564285D01*
X184873866Y-108564285D02*
X184778628Y-108611904D01*
X184778628Y-108611904D02*
X184731009Y-108659523D01*
X184731009Y-108659523D02*
X184683390Y-108754761D01*
X176254819Y-110366666D02*
X175778628Y-110699999D01*
X176254819Y-110938094D02*
X175254819Y-110938094D01*
X175254819Y-110938094D02*
X175254819Y-110557142D01*
X175254819Y-110557142D02*
X175302438Y-110461904D01*
X175302438Y-110461904D02*
X175350057Y-110414285D01*
X175350057Y-110414285D02*
X175445295Y-110366666D01*
X175445295Y-110366666D02*
X175588152Y-110366666D01*
X175588152Y-110366666D02*
X175683390Y-110414285D01*
X175683390Y-110414285D02*
X175731009Y-110461904D01*
X175731009Y-110461904D02*
X175778628Y-110557142D01*
X175778628Y-110557142D02*
X175778628Y-110938094D01*
X175254819Y-110033332D02*
X175254819Y-109366666D01*
X175254819Y-109366666D02*
X176254819Y-109795237D01*
X123954819Y-63342857D02*
X123478628Y-63676190D01*
X123954819Y-63914285D02*
X122954819Y-63914285D01*
X122954819Y-63914285D02*
X122954819Y-63533333D01*
X122954819Y-63533333D02*
X123002438Y-63438095D01*
X123002438Y-63438095D02*
X123050057Y-63390476D01*
X123050057Y-63390476D02*
X123145295Y-63342857D01*
X123145295Y-63342857D02*
X123288152Y-63342857D01*
X123288152Y-63342857D02*
X123383390Y-63390476D01*
X123383390Y-63390476D02*
X123431009Y-63438095D01*
X123431009Y-63438095D02*
X123478628Y-63533333D01*
X123478628Y-63533333D02*
X123478628Y-63914285D01*
X123954819Y-62390476D02*
X123954819Y-62961904D01*
X123954819Y-62676190D02*
X122954819Y-62676190D01*
X122954819Y-62676190D02*
X123097676Y-62771428D01*
X123097676Y-62771428D02*
X123192914Y-62866666D01*
X123192914Y-62866666D02*
X123240533Y-62961904D01*
X123050057Y-62009523D02*
X123002438Y-61961904D01*
X123002438Y-61961904D02*
X122954819Y-61866666D01*
X122954819Y-61866666D02*
X122954819Y-61628571D01*
X122954819Y-61628571D02*
X123002438Y-61533333D01*
X123002438Y-61533333D02*
X123050057Y-61485714D01*
X123050057Y-61485714D02*
X123145295Y-61438095D01*
X123145295Y-61438095D02*
X123240533Y-61438095D01*
X123240533Y-61438095D02*
X123383390Y-61485714D01*
X123383390Y-61485714D02*
X123954819Y-62057142D01*
X123954819Y-62057142D02*
X123954819Y-61438095D01*
X115657142Y-65954819D02*
X115323809Y-65478628D01*
X115085714Y-65954819D02*
X115085714Y-64954819D01*
X115085714Y-64954819D02*
X115466666Y-64954819D01*
X115466666Y-64954819D02*
X115561904Y-65002438D01*
X115561904Y-65002438D02*
X115609523Y-65050057D01*
X115609523Y-65050057D02*
X115657142Y-65145295D01*
X115657142Y-65145295D02*
X115657142Y-65288152D01*
X115657142Y-65288152D02*
X115609523Y-65383390D01*
X115609523Y-65383390D02*
X115561904Y-65431009D01*
X115561904Y-65431009D02*
X115466666Y-65478628D01*
X115466666Y-65478628D02*
X115085714Y-65478628D01*
X116609523Y-65954819D02*
X116038095Y-65954819D01*
X116323809Y-65954819D02*
X116323809Y-64954819D01*
X116323809Y-64954819D02*
X116228571Y-65097676D01*
X116228571Y-65097676D02*
X116133333Y-65192914D01*
X116133333Y-65192914D02*
X116038095Y-65240533D01*
X117561904Y-65954819D02*
X116990476Y-65954819D01*
X117276190Y-65954819D02*
X117276190Y-64954819D01*
X117276190Y-64954819D02*
X117180952Y-65097676D01*
X117180952Y-65097676D02*
X117085714Y-65192914D01*
X117085714Y-65192914D02*
X116990476Y-65240533D01*
X184854819Y-64416666D02*
X184378628Y-64749999D01*
X184854819Y-64988094D02*
X183854819Y-64988094D01*
X183854819Y-64988094D02*
X183854819Y-64607142D01*
X183854819Y-64607142D02*
X183902438Y-64511904D01*
X183902438Y-64511904D02*
X183950057Y-64464285D01*
X183950057Y-64464285D02*
X184045295Y-64416666D01*
X184045295Y-64416666D02*
X184188152Y-64416666D01*
X184188152Y-64416666D02*
X184283390Y-64464285D01*
X184283390Y-64464285D02*
X184331009Y-64511904D01*
X184331009Y-64511904D02*
X184378628Y-64607142D01*
X184378628Y-64607142D02*
X184378628Y-64988094D01*
X184188152Y-63559523D02*
X184854819Y-63559523D01*
X183807200Y-63797618D02*
X184521485Y-64035713D01*
X184521485Y-64035713D02*
X184521485Y-63416666D01*
X176633333Y-67054819D02*
X176300000Y-66578628D01*
X176061905Y-67054819D02*
X176061905Y-66054819D01*
X176061905Y-66054819D02*
X176442857Y-66054819D01*
X176442857Y-66054819D02*
X176538095Y-66102438D01*
X176538095Y-66102438D02*
X176585714Y-66150057D01*
X176585714Y-66150057D02*
X176633333Y-66245295D01*
X176633333Y-66245295D02*
X176633333Y-66388152D01*
X176633333Y-66388152D02*
X176585714Y-66483390D01*
X176585714Y-66483390D02*
X176538095Y-66531009D01*
X176538095Y-66531009D02*
X176442857Y-66578628D01*
X176442857Y-66578628D02*
X176061905Y-66578628D01*
X176966667Y-66054819D02*
X177585714Y-66054819D01*
X177585714Y-66054819D02*
X177252381Y-66435771D01*
X177252381Y-66435771D02*
X177395238Y-66435771D01*
X177395238Y-66435771D02*
X177490476Y-66483390D01*
X177490476Y-66483390D02*
X177538095Y-66531009D01*
X177538095Y-66531009D02*
X177585714Y-66626247D01*
X177585714Y-66626247D02*
X177585714Y-66864342D01*
X177585714Y-66864342D02*
X177538095Y-66959580D01*
X177538095Y-66959580D02*
X177490476Y-67007200D01*
X177490476Y-67007200D02*
X177395238Y-67054819D01*
X177395238Y-67054819D02*
X177109524Y-67054819D01*
X177109524Y-67054819D02*
X177014286Y-67007200D01*
X177014286Y-67007200D02*
X176966667Y-66959580D01*
X118754761Y-59250057D02*
X118659523Y-59202438D01*
X118659523Y-59202438D02*
X118564285Y-59107200D01*
X118564285Y-59107200D02*
X118421428Y-58964342D01*
X118421428Y-58964342D02*
X118326190Y-58916723D01*
X118326190Y-58916723D02*
X118230952Y-58916723D01*
X118278571Y-59154819D02*
X118183333Y-59107200D01*
X118183333Y-59107200D02*
X118088095Y-59011961D01*
X118088095Y-59011961D02*
X118040476Y-58821485D01*
X118040476Y-58821485D02*
X118040476Y-58488152D01*
X118040476Y-58488152D02*
X118088095Y-58297676D01*
X118088095Y-58297676D02*
X118183333Y-58202438D01*
X118183333Y-58202438D02*
X118278571Y-58154819D01*
X118278571Y-58154819D02*
X118469047Y-58154819D01*
X118469047Y-58154819D02*
X118564285Y-58202438D01*
X118564285Y-58202438D02*
X118659523Y-58297676D01*
X118659523Y-58297676D02*
X118707142Y-58488152D01*
X118707142Y-58488152D02*
X118707142Y-58821485D01*
X118707142Y-58821485D02*
X118659523Y-59011961D01*
X118659523Y-59011961D02*
X118564285Y-59107200D01*
X118564285Y-59107200D02*
X118469047Y-59154819D01*
X118469047Y-59154819D02*
X118278571Y-59154819D01*
X119611904Y-58154819D02*
X119135714Y-58154819D01*
X119135714Y-58154819D02*
X119088095Y-58631009D01*
X119088095Y-58631009D02*
X119135714Y-58583390D01*
X119135714Y-58583390D02*
X119230952Y-58535771D01*
X119230952Y-58535771D02*
X119469047Y-58535771D01*
X119469047Y-58535771D02*
X119564285Y-58583390D01*
X119564285Y-58583390D02*
X119611904Y-58631009D01*
X119611904Y-58631009D02*
X119659523Y-58726247D01*
X119659523Y-58726247D02*
X119659523Y-58964342D01*
X119659523Y-58964342D02*
X119611904Y-59059580D01*
X119611904Y-59059580D02*
X119564285Y-59107200D01*
X119564285Y-59107200D02*
X119469047Y-59154819D01*
X119469047Y-59154819D02*
X119230952Y-59154819D01*
X119230952Y-59154819D02*
X119135714Y-59107200D01*
X119135714Y-59107200D02*
X119088095Y-59059580D01*
X179692261Y-60350057D02*
X179597023Y-60302438D01*
X179597023Y-60302438D02*
X179501785Y-60207200D01*
X179501785Y-60207200D02*
X179358928Y-60064342D01*
X179358928Y-60064342D02*
X179263690Y-60016723D01*
X179263690Y-60016723D02*
X179168452Y-60016723D01*
X179216071Y-60254819D02*
X179120833Y-60207200D01*
X179120833Y-60207200D02*
X179025595Y-60111961D01*
X179025595Y-60111961D02*
X178977976Y-59921485D01*
X178977976Y-59921485D02*
X178977976Y-59588152D01*
X178977976Y-59588152D02*
X179025595Y-59397676D01*
X179025595Y-59397676D02*
X179120833Y-59302438D01*
X179120833Y-59302438D02*
X179216071Y-59254819D01*
X179216071Y-59254819D02*
X179406547Y-59254819D01*
X179406547Y-59254819D02*
X179501785Y-59302438D01*
X179501785Y-59302438D02*
X179597023Y-59397676D01*
X179597023Y-59397676D02*
X179644642Y-59588152D01*
X179644642Y-59588152D02*
X179644642Y-59921485D01*
X179644642Y-59921485D02*
X179597023Y-60111961D01*
X179597023Y-60111961D02*
X179501785Y-60207200D01*
X179501785Y-60207200D02*
X179406547Y-60254819D01*
X179406547Y-60254819D02*
X179216071Y-60254819D01*
X180597023Y-60254819D02*
X180025595Y-60254819D01*
X180311309Y-60254819D02*
X180311309Y-59254819D01*
X180311309Y-59254819D02*
X180216071Y-59397676D01*
X180216071Y-59397676D02*
X180120833Y-59492914D01*
X180120833Y-59492914D02*
X180025595Y-59540533D01*
X140089819Y-62168154D02*
X140899342Y-62168154D01*
X140899342Y-62168154D02*
X140994580Y-62120535D01*
X140994580Y-62120535D02*
X141042200Y-62072916D01*
X141042200Y-62072916D02*
X141089819Y-61977678D01*
X141089819Y-61977678D02*
X141089819Y-61787202D01*
X141089819Y-61787202D02*
X141042200Y-61691964D01*
X141042200Y-61691964D02*
X140994580Y-61644345D01*
X140994580Y-61644345D02*
X140899342Y-61596726D01*
X140899342Y-61596726D02*
X140089819Y-61596726D01*
X140185057Y-61168154D02*
X140137438Y-61120535D01*
X140137438Y-61120535D02*
X140089819Y-61025297D01*
X140089819Y-61025297D02*
X140089819Y-60787202D01*
X140089819Y-60787202D02*
X140137438Y-60691964D01*
X140137438Y-60691964D02*
X140185057Y-60644345D01*
X140185057Y-60644345D02*
X140280295Y-60596726D01*
X140280295Y-60596726D02*
X140375533Y-60596726D01*
X140375533Y-60596726D02*
X140518390Y-60644345D01*
X140518390Y-60644345D02*
X141089819Y-61215773D01*
X141089819Y-61215773D02*
X141089819Y-60596726D01*
X138559580Y-130166666D02*
X138607200Y-130214285D01*
X138607200Y-130214285D02*
X138654819Y-130357142D01*
X138654819Y-130357142D02*
X138654819Y-130452380D01*
X138654819Y-130452380D02*
X138607200Y-130595237D01*
X138607200Y-130595237D02*
X138511961Y-130690475D01*
X138511961Y-130690475D02*
X138416723Y-130738094D01*
X138416723Y-130738094D02*
X138226247Y-130785713D01*
X138226247Y-130785713D02*
X138083390Y-130785713D01*
X138083390Y-130785713D02*
X137892914Y-130738094D01*
X137892914Y-130738094D02*
X137797676Y-130690475D01*
X137797676Y-130690475D02*
X137702438Y-130595237D01*
X137702438Y-130595237D02*
X137654819Y-130452380D01*
X137654819Y-130452380D02*
X137654819Y-130357142D01*
X137654819Y-130357142D02*
X137702438Y-130214285D01*
X137702438Y-130214285D02*
X137750057Y-130166666D01*
X137654819Y-129309523D02*
X137654819Y-129499999D01*
X137654819Y-129499999D02*
X137702438Y-129595237D01*
X137702438Y-129595237D02*
X137750057Y-129642856D01*
X137750057Y-129642856D02*
X137892914Y-129738094D01*
X137892914Y-129738094D02*
X138083390Y-129785713D01*
X138083390Y-129785713D02*
X138464342Y-129785713D01*
X138464342Y-129785713D02*
X138559580Y-129738094D01*
X138559580Y-129738094D02*
X138607200Y-129690475D01*
X138607200Y-129690475D02*
X138654819Y-129595237D01*
X138654819Y-129595237D02*
X138654819Y-129404761D01*
X138654819Y-129404761D02*
X138607200Y-129309523D01*
X138607200Y-129309523D02*
X138559580Y-129261904D01*
X138559580Y-129261904D02*
X138464342Y-129214285D01*
X138464342Y-129214285D02*
X138226247Y-129214285D01*
X138226247Y-129214285D02*
X138131009Y-129261904D01*
X138131009Y-129261904D02*
X138083390Y-129309523D01*
X138083390Y-129309523D02*
X138035771Y-129404761D01*
X138035771Y-129404761D02*
X138035771Y-129595237D01*
X138035771Y-129595237D02*
X138083390Y-129690475D01*
X138083390Y-129690475D02*
X138131009Y-129738094D01*
X138131009Y-129738094D02*
X138226247Y-129785713D01*
X136983333Y-55609580D02*
X136935714Y-55657200D01*
X136935714Y-55657200D02*
X136792857Y-55704819D01*
X136792857Y-55704819D02*
X136697619Y-55704819D01*
X136697619Y-55704819D02*
X136554762Y-55657200D01*
X136554762Y-55657200D02*
X136459524Y-55561961D01*
X136459524Y-55561961D02*
X136411905Y-55466723D01*
X136411905Y-55466723D02*
X136364286Y-55276247D01*
X136364286Y-55276247D02*
X136364286Y-55133390D01*
X136364286Y-55133390D02*
X136411905Y-54942914D01*
X136411905Y-54942914D02*
X136459524Y-54847676D01*
X136459524Y-54847676D02*
X136554762Y-54752438D01*
X136554762Y-54752438D02*
X136697619Y-54704819D01*
X136697619Y-54704819D02*
X136792857Y-54704819D01*
X136792857Y-54704819D02*
X136935714Y-54752438D01*
X136935714Y-54752438D02*
X136983333Y-54800057D01*
X137364286Y-54800057D02*
X137411905Y-54752438D01*
X137411905Y-54752438D02*
X137507143Y-54704819D01*
X137507143Y-54704819D02*
X137745238Y-54704819D01*
X137745238Y-54704819D02*
X137840476Y-54752438D01*
X137840476Y-54752438D02*
X137888095Y-54800057D01*
X137888095Y-54800057D02*
X137935714Y-54895295D01*
X137935714Y-54895295D02*
X137935714Y-54990533D01*
X137935714Y-54990533D02*
X137888095Y-55133390D01*
X137888095Y-55133390D02*
X137316667Y-55704819D01*
X137316667Y-55704819D02*
X137935714Y-55704819D01*
X140983333Y-55704819D02*
X140650000Y-55228628D01*
X140411905Y-55704819D02*
X140411905Y-54704819D01*
X140411905Y-54704819D02*
X140792857Y-54704819D01*
X140792857Y-54704819D02*
X140888095Y-54752438D01*
X140888095Y-54752438D02*
X140935714Y-54800057D01*
X140935714Y-54800057D02*
X140983333Y-54895295D01*
X140983333Y-54895295D02*
X140983333Y-55038152D01*
X140983333Y-55038152D02*
X140935714Y-55133390D01*
X140935714Y-55133390D02*
X140888095Y-55181009D01*
X140888095Y-55181009D02*
X140792857Y-55228628D01*
X140792857Y-55228628D02*
X140411905Y-55228628D01*
X141935714Y-55704819D02*
X141364286Y-55704819D01*
X141650000Y-55704819D02*
X141650000Y-54704819D01*
X141650000Y-54704819D02*
X141554762Y-54847676D01*
X141554762Y-54847676D02*
X141459524Y-54942914D01*
X141459524Y-54942914D02*
X141364286Y-54990533D01*
X149509580Y-50366666D02*
X149557200Y-50414285D01*
X149557200Y-50414285D02*
X149604819Y-50557142D01*
X149604819Y-50557142D02*
X149604819Y-50652380D01*
X149604819Y-50652380D02*
X149557200Y-50795237D01*
X149557200Y-50795237D02*
X149461961Y-50890475D01*
X149461961Y-50890475D02*
X149366723Y-50938094D01*
X149366723Y-50938094D02*
X149176247Y-50985713D01*
X149176247Y-50985713D02*
X149033390Y-50985713D01*
X149033390Y-50985713D02*
X148842914Y-50938094D01*
X148842914Y-50938094D02*
X148747676Y-50890475D01*
X148747676Y-50890475D02*
X148652438Y-50795237D01*
X148652438Y-50795237D02*
X148604819Y-50652380D01*
X148604819Y-50652380D02*
X148604819Y-50557142D01*
X148604819Y-50557142D02*
X148652438Y-50414285D01*
X148652438Y-50414285D02*
X148700057Y-50366666D01*
X148938152Y-49509523D02*
X149604819Y-49509523D01*
X148557200Y-49747618D02*
X149271485Y-49985713D01*
X149271485Y-49985713D02*
X149271485Y-49366666D01*
X148854819Y-53916666D02*
X148378628Y-54249999D01*
X148854819Y-54488094D02*
X147854819Y-54488094D01*
X147854819Y-54488094D02*
X147854819Y-54107142D01*
X147854819Y-54107142D02*
X147902438Y-54011904D01*
X147902438Y-54011904D02*
X147950057Y-53964285D01*
X147950057Y-53964285D02*
X148045295Y-53916666D01*
X148045295Y-53916666D02*
X148188152Y-53916666D01*
X148188152Y-53916666D02*
X148283390Y-53964285D01*
X148283390Y-53964285D02*
X148331009Y-54011904D01*
X148331009Y-54011904D02*
X148378628Y-54107142D01*
X148378628Y-54107142D02*
X148378628Y-54488094D01*
X147950057Y-53535713D02*
X147902438Y-53488094D01*
X147902438Y-53488094D02*
X147854819Y-53392856D01*
X147854819Y-53392856D02*
X147854819Y-53154761D01*
X147854819Y-53154761D02*
X147902438Y-53059523D01*
X147902438Y-53059523D02*
X147950057Y-53011904D01*
X147950057Y-53011904D02*
X148045295Y-52964285D01*
X148045295Y-52964285D02*
X148140533Y-52964285D01*
X148140533Y-52964285D02*
X148283390Y-53011904D01*
X148283390Y-53011904D02*
X148854819Y-53583332D01*
X148854819Y-53583332D02*
X148854819Y-52964285D01*
X159138095Y-54604819D02*
X159138095Y-55414342D01*
X159138095Y-55414342D02*
X159185714Y-55509580D01*
X159185714Y-55509580D02*
X159233333Y-55557200D01*
X159233333Y-55557200D02*
X159328571Y-55604819D01*
X159328571Y-55604819D02*
X159519047Y-55604819D01*
X159519047Y-55604819D02*
X159614285Y-55557200D01*
X159614285Y-55557200D02*
X159661904Y-55509580D01*
X159661904Y-55509580D02*
X159709523Y-55414342D01*
X159709523Y-55414342D02*
X159709523Y-54604819D01*
X160090476Y-54604819D02*
X160709523Y-54604819D01*
X160709523Y-54604819D02*
X160376190Y-54985771D01*
X160376190Y-54985771D02*
X160519047Y-54985771D01*
X160519047Y-54985771D02*
X160614285Y-55033390D01*
X160614285Y-55033390D02*
X160661904Y-55081009D01*
X160661904Y-55081009D02*
X160709523Y-55176247D01*
X160709523Y-55176247D02*
X160709523Y-55414342D01*
X160709523Y-55414342D02*
X160661904Y-55509580D01*
X160661904Y-55509580D02*
X160614285Y-55557200D01*
X160614285Y-55557200D02*
X160519047Y-55604819D01*
X160519047Y-55604819D02*
X160233333Y-55604819D01*
X160233333Y-55604819D02*
X160138095Y-55557200D01*
X160138095Y-55557200D02*
X160090476Y-55509580D01*
X147661905Y-47154819D02*
X147661905Y-46154819D01*
X147661905Y-46154819D02*
X147900000Y-46154819D01*
X147900000Y-46154819D02*
X148042857Y-46202438D01*
X148042857Y-46202438D02*
X148138095Y-46297676D01*
X148138095Y-46297676D02*
X148185714Y-46392914D01*
X148185714Y-46392914D02*
X148233333Y-46583390D01*
X148233333Y-46583390D02*
X148233333Y-46726247D01*
X148233333Y-46726247D02*
X148185714Y-46916723D01*
X148185714Y-46916723D02*
X148138095Y-47011961D01*
X148138095Y-47011961D02*
X148042857Y-47107200D01*
X148042857Y-47107200D02*
X147900000Y-47154819D01*
X147900000Y-47154819D02*
X147661905Y-47154819D01*
X149185714Y-47154819D02*
X148614286Y-47154819D01*
X148900000Y-47154819D02*
X148900000Y-46154819D01*
X148900000Y-46154819D02*
X148804762Y-46297676D01*
X148804762Y-46297676D02*
X148709524Y-46392914D01*
X148709524Y-46392914D02*
X148614286Y-46440533D01*
X150266666Y-43854819D02*
X150266666Y-44569104D01*
X150266666Y-44569104D02*
X150219047Y-44711961D01*
X150219047Y-44711961D02*
X150123809Y-44807200D01*
X150123809Y-44807200D02*
X149980952Y-44854819D01*
X149980952Y-44854819D02*
X149885714Y-44854819D01*
X150695238Y-43950057D02*
X150742857Y-43902438D01*
X150742857Y-43902438D02*
X150838095Y-43854819D01*
X150838095Y-43854819D02*
X151076190Y-43854819D01*
X151076190Y-43854819D02*
X151171428Y-43902438D01*
X151171428Y-43902438D02*
X151219047Y-43950057D01*
X151219047Y-43950057D02*
X151266666Y-44045295D01*
X151266666Y-44045295D02*
X151266666Y-44140533D01*
X151266666Y-44140533D02*
X151219047Y-44283390D01*
X151219047Y-44283390D02*
X150647619Y-44854819D01*
X150647619Y-44854819D02*
X151266666Y-44854819D01*
X148108571Y-40994700D02*
X149251429Y-40994700D01*
X148680000Y-41566128D02*
X148680000Y-40423271D01*
X161214700Y-41451428D02*
X161214700Y-40308571D01*
X152259580Y-57116666D02*
X152307200Y-57164285D01*
X152307200Y-57164285D02*
X152354819Y-57307142D01*
X152354819Y-57307142D02*
X152354819Y-57402380D01*
X152354819Y-57402380D02*
X152307200Y-57545237D01*
X152307200Y-57545237D02*
X152211961Y-57640475D01*
X152211961Y-57640475D02*
X152116723Y-57688094D01*
X152116723Y-57688094D02*
X151926247Y-57735713D01*
X151926247Y-57735713D02*
X151783390Y-57735713D01*
X151783390Y-57735713D02*
X151592914Y-57688094D01*
X151592914Y-57688094D02*
X151497676Y-57640475D01*
X151497676Y-57640475D02*
X151402438Y-57545237D01*
X151402438Y-57545237D02*
X151354819Y-57402380D01*
X151354819Y-57402380D02*
X151354819Y-57307142D01*
X151354819Y-57307142D02*
X151402438Y-57164285D01*
X151402438Y-57164285D02*
X151450057Y-57116666D01*
X151354819Y-56783332D02*
X151354819Y-56164285D01*
X151354819Y-56164285D02*
X151735771Y-56497618D01*
X151735771Y-56497618D02*
X151735771Y-56354761D01*
X151735771Y-56354761D02*
X151783390Y-56259523D01*
X151783390Y-56259523D02*
X151831009Y-56211904D01*
X151831009Y-56211904D02*
X151926247Y-56164285D01*
X151926247Y-56164285D02*
X152164342Y-56164285D01*
X152164342Y-56164285D02*
X152259580Y-56211904D01*
X152259580Y-56211904D02*
X152307200Y-56259523D01*
X152307200Y-56259523D02*
X152354819Y-56354761D01*
X152354819Y-56354761D02*
X152354819Y-56640475D01*
X152354819Y-56640475D02*
X152307200Y-56735713D01*
X152307200Y-56735713D02*
X152259580Y-56783332D01*
X148709580Y-66366666D02*
X148757200Y-66414285D01*
X148757200Y-66414285D02*
X148804819Y-66557142D01*
X148804819Y-66557142D02*
X148804819Y-66652380D01*
X148804819Y-66652380D02*
X148757200Y-66795237D01*
X148757200Y-66795237D02*
X148661961Y-66890475D01*
X148661961Y-66890475D02*
X148566723Y-66938094D01*
X148566723Y-66938094D02*
X148376247Y-66985713D01*
X148376247Y-66985713D02*
X148233390Y-66985713D01*
X148233390Y-66985713D02*
X148042914Y-66938094D01*
X148042914Y-66938094D02*
X147947676Y-66890475D01*
X147947676Y-66890475D02*
X147852438Y-66795237D01*
X147852438Y-66795237D02*
X147804819Y-66652380D01*
X147804819Y-66652380D02*
X147804819Y-66557142D01*
X147804819Y-66557142D02*
X147852438Y-66414285D01*
X147852438Y-66414285D02*
X147900057Y-66366666D01*
X148804819Y-65414285D02*
X148804819Y-65985713D01*
X148804819Y-65699999D02*
X147804819Y-65699999D01*
X147804819Y-65699999D02*
X147947676Y-65795237D01*
X147947676Y-65795237D02*
X148042914Y-65890475D01*
X148042914Y-65890475D02*
X148090533Y-65985713D01*
X116866666Y-111254819D02*
X116866666Y-111969104D01*
X116866666Y-111969104D02*
X116819047Y-112111961D01*
X116819047Y-112111961D02*
X116723809Y-112207200D01*
X116723809Y-112207200D02*
X116580952Y-112254819D01*
X116580952Y-112254819D02*
X116485714Y-112254819D01*
X117819047Y-111254819D02*
X117342857Y-111254819D01*
X117342857Y-111254819D02*
X117295238Y-111731009D01*
X117295238Y-111731009D02*
X117342857Y-111683390D01*
X117342857Y-111683390D02*
X117438095Y-111635771D01*
X117438095Y-111635771D02*
X117676190Y-111635771D01*
X117676190Y-111635771D02*
X117771428Y-111683390D01*
X117771428Y-111683390D02*
X117819047Y-111731009D01*
X117819047Y-111731009D02*
X117866666Y-111826247D01*
X117866666Y-111826247D02*
X117866666Y-112064342D01*
X117866666Y-112064342D02*
X117819047Y-112159580D01*
X117819047Y-112159580D02*
X117771428Y-112207200D01*
X117771428Y-112207200D02*
X117676190Y-112254819D01*
X117676190Y-112254819D02*
X117438095Y-112254819D01*
X117438095Y-112254819D02*
X117342857Y-112207200D01*
X117342857Y-112207200D02*
X117295238Y-112159580D01*
D13*
%TO.C,J10*%
X187710000Y-112260000D02*
X186460000Y-112260000D01*
X186100000Y-112560000D02*
X186100000Y-113170000D01*
X184800000Y-112560000D02*
X184800000Y-113170000D01*
X186800000Y-113170000D02*
X183300000Y-113170000D01*
X183300000Y-113170000D02*
X183300000Y-128070000D01*
X187710000Y-113510000D02*
X187710000Y-112260000D01*
X187610000Y-114020000D02*
X187410000Y-114020000D01*
X187610000Y-114320000D02*
X187610000Y-114020000D01*
X187510000Y-114320000D02*
X187510000Y-114020000D01*
X187410000Y-114320000D02*
X187610000Y-114320000D01*
X187410000Y-115120000D02*
X186800000Y-115120000D01*
X186800000Y-115120000D02*
X186800000Y-113170000D01*
X183800000Y-115520000D02*
X183800000Y-115720000D01*
X183300000Y-115520000D02*
X183800000Y-115520000D01*
X183300000Y-115620000D02*
X183800000Y-115620000D01*
X183800000Y-115720000D02*
X183300000Y-115720000D01*
X183800000Y-117520000D02*
X183800000Y-117720000D01*
X183300000Y-117520000D02*
X183800000Y-117520000D01*
X183300000Y-117620000D02*
X183800000Y-117620000D01*
X183800000Y-117720000D02*
X183300000Y-117720000D01*
X183800000Y-119520000D02*
X183800000Y-119720000D01*
X183300000Y-119520000D02*
X183800000Y-119520000D01*
X183300000Y-119620000D02*
X183800000Y-119620000D01*
X183800000Y-119720000D02*
X183300000Y-119720000D01*
X183800000Y-121520000D02*
X183800000Y-121720000D01*
X183300000Y-121520000D02*
X183800000Y-121520000D01*
X183300000Y-121620000D02*
X183800000Y-121620000D01*
X183800000Y-121720000D02*
X183300000Y-121720000D01*
X183800000Y-123520000D02*
X183800000Y-123720000D01*
X183300000Y-123520000D02*
X183800000Y-123520000D01*
X183300000Y-123620000D02*
X183800000Y-123620000D01*
X183800000Y-123720000D02*
X183300000Y-123720000D01*
X183800000Y-125520000D02*
X183800000Y-125720000D01*
X183300000Y-125520000D02*
X183800000Y-125520000D01*
X183300000Y-125620000D02*
X183800000Y-125620000D01*
X183800000Y-125720000D02*
X183300000Y-125720000D01*
X186800000Y-126120000D02*
X187410000Y-126120000D01*
X186800000Y-128070000D02*
X186800000Y-126120000D01*
X183300000Y-128070000D02*
X186800000Y-128070000D01*
X186100000Y-128680000D02*
X186100000Y-128070000D01*
X184800000Y-128680000D02*
X184800000Y-128070000D01*
X187410000Y-112560000D02*
X182690000Y-112560000D01*
X182690000Y-128680000D01*
X187410000Y-128680000D01*
X187410000Y-112560000D01*
%TO.C,J9*%
X187710000Y-68290000D02*
X186460000Y-68290000D01*
X186100000Y-68590000D02*
X186100000Y-69200000D01*
X184800000Y-68590000D02*
X184800000Y-69200000D01*
X186800000Y-69200000D02*
X183300000Y-69200000D01*
X183300000Y-69200000D02*
X183300000Y-84100000D01*
X187710000Y-69540000D02*
X187710000Y-68290000D01*
X187610000Y-70050000D02*
X187410000Y-70050000D01*
X187610000Y-70350000D02*
X187610000Y-70050000D01*
X187510000Y-70350000D02*
X187510000Y-70050000D01*
X187410000Y-70350000D02*
X187610000Y-70350000D01*
X187410000Y-71150000D02*
X186800000Y-71150000D01*
X186800000Y-71150000D02*
X186800000Y-69200000D01*
X183800000Y-71550000D02*
X183800000Y-71750000D01*
X183300000Y-71550000D02*
X183800000Y-71550000D01*
X183300000Y-71650000D02*
X183800000Y-71650000D01*
X183800000Y-71750000D02*
X183300000Y-71750000D01*
X183800000Y-73550000D02*
X183800000Y-73750000D01*
X183300000Y-73550000D02*
X183800000Y-73550000D01*
X183300000Y-73650000D02*
X183800000Y-73650000D01*
X183800000Y-73750000D02*
X183300000Y-73750000D01*
X183800000Y-75550000D02*
X183800000Y-75750000D01*
X183300000Y-75550000D02*
X183800000Y-75550000D01*
X183300000Y-75650000D02*
X183800000Y-75650000D01*
X183800000Y-75750000D02*
X183300000Y-75750000D01*
X183800000Y-77550000D02*
X183800000Y-77750000D01*
X183300000Y-77550000D02*
X183800000Y-77550000D01*
X183300000Y-77650000D02*
X183800000Y-77650000D01*
X183800000Y-77750000D02*
X183300000Y-77750000D01*
X183800000Y-79550000D02*
X183800000Y-79750000D01*
X183300000Y-79550000D02*
X183800000Y-79550000D01*
X183300000Y-79650000D02*
X183800000Y-79650000D01*
X183800000Y-79750000D02*
X183300000Y-79750000D01*
X183800000Y-81550000D02*
X183800000Y-81750000D01*
X183300000Y-81550000D02*
X183800000Y-81550000D01*
X183300000Y-81650000D02*
X183800000Y-81650000D01*
X183800000Y-81750000D02*
X183300000Y-81750000D01*
X186800000Y-82150000D02*
X187410000Y-82150000D01*
X186800000Y-84100000D02*
X186800000Y-82150000D01*
X183300000Y-84100000D02*
X186800000Y-84100000D01*
X186100000Y-84710000D02*
X186100000Y-84100000D01*
X184800000Y-84710000D02*
X184800000Y-84100000D01*
X187410000Y-68590000D02*
X182690000Y-68590000D01*
X182690000Y-84710000D01*
X187410000Y-84710000D01*
X187410000Y-68590000D01*
%TO.C,J8*%
X126060000Y-112260000D02*
X124810000Y-112260000D01*
X124450000Y-112560000D02*
X124450000Y-113170000D01*
X123150000Y-112560000D02*
X123150000Y-113170000D01*
X125150000Y-113170000D02*
X121650000Y-113170000D01*
X121650000Y-113170000D02*
X121650000Y-128070000D01*
X126060000Y-113510000D02*
X126060000Y-112260000D01*
X125960000Y-114020000D02*
X125760000Y-114020000D01*
X125960000Y-114320000D02*
X125960000Y-114020000D01*
X125860000Y-114320000D02*
X125860000Y-114020000D01*
X125760000Y-114320000D02*
X125960000Y-114320000D01*
X125760000Y-115120000D02*
X125150000Y-115120000D01*
X125150000Y-115120000D02*
X125150000Y-113170000D01*
X122150000Y-115520000D02*
X122150000Y-115720000D01*
X121650000Y-115520000D02*
X122150000Y-115520000D01*
X121650000Y-115620000D02*
X122150000Y-115620000D01*
X122150000Y-115720000D02*
X121650000Y-115720000D01*
X122150000Y-117520000D02*
X122150000Y-117720000D01*
X121650000Y-117520000D02*
X122150000Y-117520000D01*
X121650000Y-117620000D02*
X122150000Y-117620000D01*
X122150000Y-117720000D02*
X121650000Y-117720000D01*
X122150000Y-119520000D02*
X122150000Y-119720000D01*
X121650000Y-119520000D02*
X122150000Y-119520000D01*
X121650000Y-119620000D02*
X122150000Y-119620000D01*
X122150000Y-119720000D02*
X121650000Y-119720000D01*
X122150000Y-121520000D02*
X122150000Y-121720000D01*
X121650000Y-121520000D02*
X122150000Y-121520000D01*
X121650000Y-121620000D02*
X122150000Y-121620000D01*
X122150000Y-121720000D02*
X121650000Y-121720000D01*
X122150000Y-123520000D02*
X122150000Y-123720000D01*
X121650000Y-123520000D02*
X122150000Y-123520000D01*
X121650000Y-123620000D02*
X122150000Y-123620000D01*
X122150000Y-123720000D02*
X121650000Y-123720000D01*
X122150000Y-125520000D02*
X122150000Y-125720000D01*
X121650000Y-125520000D02*
X122150000Y-125520000D01*
X121650000Y-125620000D02*
X122150000Y-125620000D01*
X122150000Y-125720000D02*
X121650000Y-125720000D01*
X125150000Y-126120000D02*
X125760000Y-126120000D01*
X125150000Y-128070000D02*
X125150000Y-126120000D01*
X121650000Y-128070000D02*
X125150000Y-128070000D01*
X124450000Y-128680000D02*
X124450000Y-128070000D01*
X123150000Y-128680000D02*
X123150000Y-128070000D01*
X125760000Y-112560000D02*
X121040000Y-112560000D01*
X121040000Y-128680000D01*
X125760000Y-128680000D01*
X125760000Y-112560000D01*
%TO.C,J7*%
X126060000Y-68290000D02*
X124810000Y-68290000D01*
X124450000Y-68590000D02*
X124450000Y-69200000D01*
X123150000Y-68590000D02*
X123150000Y-69200000D01*
X125150000Y-69200000D02*
X121650000Y-69200000D01*
X121650000Y-69200000D02*
X121650000Y-84100000D01*
X126060000Y-69540000D02*
X126060000Y-68290000D01*
X125960000Y-70050000D02*
X125760000Y-70050000D01*
X125960000Y-70350000D02*
X125960000Y-70050000D01*
X125860000Y-70350000D02*
X125860000Y-70050000D01*
X125760000Y-70350000D02*
X125960000Y-70350000D01*
X125760000Y-71150000D02*
X125150000Y-71150000D01*
X125150000Y-71150000D02*
X125150000Y-69200000D01*
X122150000Y-71550000D02*
X122150000Y-71750000D01*
X121650000Y-71550000D02*
X122150000Y-71550000D01*
X121650000Y-71650000D02*
X122150000Y-71650000D01*
X122150000Y-71750000D02*
X121650000Y-71750000D01*
X122150000Y-73550000D02*
X122150000Y-73750000D01*
X121650000Y-73550000D02*
X122150000Y-73550000D01*
X121650000Y-73650000D02*
X122150000Y-73650000D01*
X122150000Y-73750000D02*
X121650000Y-73750000D01*
X122150000Y-75550000D02*
X122150000Y-75750000D01*
X121650000Y-75550000D02*
X122150000Y-75550000D01*
X121650000Y-75650000D02*
X122150000Y-75650000D01*
X122150000Y-75750000D02*
X121650000Y-75750000D01*
X122150000Y-77550000D02*
X122150000Y-77750000D01*
X121650000Y-77550000D02*
X122150000Y-77550000D01*
X121650000Y-77650000D02*
X122150000Y-77650000D01*
X122150000Y-77750000D02*
X121650000Y-77750000D01*
X122150000Y-79550000D02*
X122150000Y-79750000D01*
X121650000Y-79550000D02*
X122150000Y-79550000D01*
X121650000Y-79650000D02*
X122150000Y-79650000D01*
X122150000Y-79750000D02*
X121650000Y-79750000D01*
X122150000Y-81550000D02*
X122150000Y-81750000D01*
X121650000Y-81550000D02*
X122150000Y-81550000D01*
X121650000Y-81650000D02*
X122150000Y-81650000D01*
X122150000Y-81750000D02*
X121650000Y-81750000D01*
X125150000Y-82150000D02*
X125760000Y-82150000D01*
X125150000Y-84100000D02*
X125150000Y-82150000D01*
X121650000Y-84100000D02*
X125150000Y-84100000D01*
X124450000Y-84710000D02*
X124450000Y-84100000D01*
X123150000Y-84710000D02*
X123150000Y-84100000D01*
X125760000Y-68590000D02*
X121040000Y-68590000D01*
X121040000Y-84710000D01*
X125760000Y-84710000D01*
X125760000Y-68590000D01*
%TO.C,J6*%
X181910000Y-112260000D02*
X180660000Y-112260000D01*
X180300000Y-112560000D02*
X180300000Y-113170000D01*
X179000000Y-112560000D02*
X179000000Y-113170000D01*
X181000000Y-113170000D02*
X177500000Y-113170000D01*
X177500000Y-113170000D02*
X177500000Y-128070000D01*
X181910000Y-113510000D02*
X181910000Y-112260000D01*
X181810000Y-114020000D02*
X181610000Y-114020000D01*
X181810000Y-114320000D02*
X181810000Y-114020000D01*
X181710000Y-114320000D02*
X181710000Y-114020000D01*
X181610000Y-114320000D02*
X181810000Y-114320000D01*
X181610000Y-115120000D02*
X181000000Y-115120000D01*
X181000000Y-115120000D02*
X181000000Y-113170000D01*
X178000000Y-115520000D02*
X178000000Y-115720000D01*
X177500000Y-115520000D02*
X178000000Y-115520000D01*
X177500000Y-115620000D02*
X178000000Y-115620000D01*
X178000000Y-115720000D02*
X177500000Y-115720000D01*
X178000000Y-117520000D02*
X178000000Y-117720000D01*
X177500000Y-117520000D02*
X178000000Y-117520000D01*
X177500000Y-117620000D02*
X178000000Y-117620000D01*
X178000000Y-117720000D02*
X177500000Y-117720000D01*
X178000000Y-119520000D02*
X178000000Y-119720000D01*
X177500000Y-119520000D02*
X178000000Y-119520000D01*
X177500000Y-119620000D02*
X178000000Y-119620000D01*
X178000000Y-119720000D02*
X177500000Y-119720000D01*
X178000000Y-121520000D02*
X178000000Y-121720000D01*
X177500000Y-121520000D02*
X178000000Y-121520000D01*
X177500000Y-121620000D02*
X178000000Y-121620000D01*
X178000000Y-121720000D02*
X177500000Y-121720000D01*
X178000000Y-123520000D02*
X178000000Y-123720000D01*
X177500000Y-123520000D02*
X178000000Y-123520000D01*
X177500000Y-123620000D02*
X178000000Y-123620000D01*
X178000000Y-123720000D02*
X177500000Y-123720000D01*
X178000000Y-125520000D02*
X178000000Y-125720000D01*
X177500000Y-125520000D02*
X178000000Y-125520000D01*
X177500000Y-125620000D02*
X178000000Y-125620000D01*
X178000000Y-125720000D02*
X177500000Y-125720000D01*
X181000000Y-126120000D02*
X181610000Y-126120000D01*
X181000000Y-128070000D02*
X181000000Y-126120000D01*
X177500000Y-128070000D02*
X181000000Y-128070000D01*
X180300000Y-128680000D02*
X180300000Y-128070000D01*
X179000000Y-128680000D02*
X179000000Y-128070000D01*
X181610000Y-112560000D02*
X176890000Y-112560000D01*
X176890000Y-128680000D01*
X181610000Y-128680000D01*
X181610000Y-112560000D01*
%TO.C,J4*%
X181910000Y-68290000D02*
X180660000Y-68290000D01*
X180300000Y-68590000D02*
X180300000Y-69200000D01*
X179000000Y-68590000D02*
X179000000Y-69200000D01*
X181000000Y-69200000D02*
X177500000Y-69200000D01*
X177500000Y-69200000D02*
X177500000Y-84100000D01*
X181910000Y-69540000D02*
X181910000Y-68290000D01*
X181810000Y-70050000D02*
X181610000Y-70050000D01*
X181810000Y-70350000D02*
X181810000Y-70050000D01*
X181710000Y-70350000D02*
X181710000Y-70050000D01*
X181610000Y-70350000D02*
X181810000Y-70350000D01*
X181610000Y-71150000D02*
X181000000Y-71150000D01*
X181000000Y-71150000D02*
X181000000Y-69200000D01*
X178000000Y-71550000D02*
X178000000Y-71750000D01*
X177500000Y-71550000D02*
X178000000Y-71550000D01*
X177500000Y-71650000D02*
X178000000Y-71650000D01*
X178000000Y-71750000D02*
X177500000Y-71750000D01*
X178000000Y-73550000D02*
X178000000Y-73750000D01*
X177500000Y-73550000D02*
X178000000Y-73550000D01*
X177500000Y-73650000D02*
X178000000Y-73650000D01*
X178000000Y-73750000D02*
X177500000Y-73750000D01*
X178000000Y-75550000D02*
X178000000Y-75750000D01*
X177500000Y-75550000D02*
X178000000Y-75550000D01*
X177500000Y-75650000D02*
X178000000Y-75650000D01*
X178000000Y-75750000D02*
X177500000Y-75750000D01*
X178000000Y-77550000D02*
X178000000Y-77750000D01*
X177500000Y-77550000D02*
X178000000Y-77550000D01*
X177500000Y-77650000D02*
X178000000Y-77650000D01*
X178000000Y-77750000D02*
X177500000Y-77750000D01*
X178000000Y-79550000D02*
X178000000Y-79750000D01*
X177500000Y-79550000D02*
X178000000Y-79550000D01*
X177500000Y-79650000D02*
X178000000Y-79650000D01*
X178000000Y-79750000D02*
X177500000Y-79750000D01*
X178000000Y-81550000D02*
X178000000Y-81750000D01*
X177500000Y-81550000D02*
X178000000Y-81550000D01*
X177500000Y-81650000D02*
X178000000Y-81650000D01*
X178000000Y-81750000D02*
X177500000Y-81750000D01*
X181000000Y-82150000D02*
X181610000Y-82150000D01*
X181000000Y-84100000D02*
X181000000Y-82150000D01*
X177500000Y-84100000D02*
X181000000Y-84100000D01*
X180300000Y-84710000D02*
X180300000Y-84100000D01*
X179000000Y-84710000D02*
X179000000Y-84100000D01*
X181610000Y-68590000D02*
X176890000Y-68590000D01*
X176890000Y-84710000D01*
X181610000Y-84710000D01*
X181610000Y-68590000D01*
%TO.C,J3*%
X120410000Y-68290000D02*
X119160000Y-68290000D01*
X118800000Y-68590000D02*
X118800000Y-69200000D01*
X117500000Y-68590000D02*
X117500000Y-69200000D01*
X119500000Y-69200000D02*
X116000000Y-69200000D01*
X116000000Y-69200000D02*
X116000000Y-84100000D01*
X120410000Y-69540000D02*
X120410000Y-68290000D01*
X120310000Y-70050000D02*
X120110000Y-70050000D01*
X120310000Y-70350000D02*
X120310000Y-70050000D01*
X120210000Y-70350000D02*
X120210000Y-70050000D01*
X120110000Y-70350000D02*
X120310000Y-70350000D01*
X120110000Y-71150000D02*
X119500000Y-71150000D01*
X119500000Y-71150000D02*
X119500000Y-69200000D01*
X116500000Y-71550000D02*
X116500000Y-71750000D01*
X116000000Y-71550000D02*
X116500000Y-71550000D01*
X116000000Y-71650000D02*
X116500000Y-71650000D01*
X116500000Y-71750000D02*
X116000000Y-71750000D01*
X116500000Y-73550000D02*
X116500000Y-73750000D01*
X116000000Y-73550000D02*
X116500000Y-73550000D01*
X116000000Y-73650000D02*
X116500000Y-73650000D01*
X116500000Y-73750000D02*
X116000000Y-73750000D01*
X116500000Y-75550000D02*
X116500000Y-75750000D01*
X116000000Y-75550000D02*
X116500000Y-75550000D01*
X116000000Y-75650000D02*
X116500000Y-75650000D01*
X116500000Y-75750000D02*
X116000000Y-75750000D01*
X116500000Y-77550000D02*
X116500000Y-77750000D01*
X116000000Y-77550000D02*
X116500000Y-77550000D01*
X116000000Y-77650000D02*
X116500000Y-77650000D01*
X116500000Y-77750000D02*
X116000000Y-77750000D01*
X116500000Y-79550000D02*
X116500000Y-79750000D01*
X116000000Y-79550000D02*
X116500000Y-79550000D01*
X116000000Y-79650000D02*
X116500000Y-79650000D01*
X116500000Y-79750000D02*
X116000000Y-79750000D01*
X116500000Y-81550000D02*
X116500000Y-81750000D01*
X116000000Y-81550000D02*
X116500000Y-81550000D01*
X116000000Y-81650000D02*
X116500000Y-81650000D01*
X116500000Y-81750000D02*
X116000000Y-81750000D01*
X119500000Y-82150000D02*
X120110000Y-82150000D01*
X119500000Y-84100000D02*
X119500000Y-82150000D01*
X116000000Y-84100000D02*
X119500000Y-84100000D01*
X118800000Y-84710000D02*
X118800000Y-84100000D01*
X117500000Y-84710000D02*
X117500000Y-84100000D01*
X120110000Y-68590000D02*
X115390000Y-68590000D01*
X115390000Y-84710000D01*
X120110000Y-84710000D01*
X120110000Y-68590000D01*
%TO.C,J11*%
X148380000Y-63930000D02*
X148380000Y-62550000D01*
X149760000Y-63930000D02*
X148380000Y-63930000D01*
X151030000Y-63930000D02*
X153680000Y-63930000D01*
X151030000Y-63930000D02*
X151030000Y-61280000D01*
X153680000Y-63930000D02*
X153680000Y-58630000D01*
X148380000Y-61280000D02*
X148380000Y-58630000D01*
X151030000Y-61280000D02*
X148380000Y-61280000D01*
X148380000Y-58630000D02*
X153680000Y-58630000D01*
%TO.C,J1*%
X147410000Y-43960000D02*
X147410000Y-42710000D01*
X147110000Y-43660000D02*
X147110000Y-38940000D01*
X147110000Y-42350000D02*
X146500000Y-42350000D01*
X147110000Y-41050000D02*
X146500000Y-41050000D01*
X147110000Y-38940000D02*
X140990000Y-38940000D01*
X146500000Y-43050000D02*
X146500000Y-39550000D01*
X146500000Y-39550000D02*
X141600000Y-39550000D01*
X146160000Y-43960000D02*
X147410000Y-43960000D01*
X145650000Y-43860000D02*
X145650000Y-43660000D01*
X145350000Y-43860000D02*
X145650000Y-43860000D01*
X145350000Y-43760000D02*
X145650000Y-43760000D01*
X145350000Y-43660000D02*
X145350000Y-43860000D01*
X144550000Y-43660000D02*
X144550000Y-43050000D01*
X144550000Y-43050000D02*
X146500000Y-43050000D01*
X144150000Y-40050000D02*
X143950000Y-40050000D01*
X144150000Y-39550000D02*
X144150000Y-40050000D01*
X144050000Y-39550000D02*
X144050000Y-40050000D01*
X143950000Y-40050000D02*
X143950000Y-39550000D01*
X143550000Y-43050000D02*
X143550000Y-43660000D01*
X141600000Y-43050000D02*
X143550000Y-43050000D01*
X141600000Y-39550000D02*
X141600000Y-43050000D01*
X140990000Y-43660000D02*
X147110000Y-43660000D01*
X140990000Y-42350000D02*
X141600000Y-42350000D01*
X140990000Y-41050000D02*
X141600000Y-41050000D01*
X140990000Y-38940000D02*
X140990000Y-43660000D01*
%TO.C,D4*%
X142464000Y-49451010D02*
X142464000Y-47601010D01*
X143354000Y-49451010D02*
X142464000Y-49451010D01*
X145584000Y-49466010D02*
X144694000Y-49466010D01*
X145584000Y-49466010D02*
X145584000Y-47616010D01*
X145904000Y-47466010D02*
X145574000Y-47226010D01*
X145904000Y-46986010D01*
X145904000Y-47466010D01*
G36*
X145904000Y-47466010D02*
G01*
X145574000Y-47226010D01*
X145904000Y-46986010D01*
X145904000Y-47466010D01*
G37*
%TO.C,R5*%
X116122936Y-109885000D02*
X116577064Y-109885000D01*
X116122936Y-108415000D02*
X116577064Y-108415000D01*
%TO.C,Q2*%
X117202500Y-106350000D02*
X116722500Y-106350000D01*
X116962500Y-106020000D01*
X117202500Y-106350000D01*
G36*
X117202500Y-106350000D02*
G01*
X116722500Y-106350000D01*
X116962500Y-106020000D01*
X117202500Y-106350000D01*
G37*
X119022500Y-107960000D02*
X117502500Y-107960000D01*
X119022500Y-106960000D02*
X119022500Y-107960000D01*
X119022500Y-104840000D02*
X119022500Y-105840000D01*
X117502500Y-107960000D02*
X117502500Y-107910000D01*
X117502500Y-106790000D02*
X117502500Y-106010000D01*
X117502500Y-104890000D02*
X117502500Y-104840000D01*
X117502500Y-104840000D02*
X119022500Y-104840000D01*
%TO.C,R6*%
X121985000Y-107627064D02*
X121985000Y-107172936D01*
X120515000Y-107627064D02*
X120515000Y-107172936D01*
%TO.C,Q3*%
X179102500Y-107250000D02*
X178622500Y-107250000D01*
X178862500Y-106920000D01*
X179102500Y-107250000D01*
G36*
X179102500Y-107250000D02*
G01*
X178622500Y-107250000D01*
X178862500Y-106920000D01*
X179102500Y-107250000D01*
G37*
X180922500Y-108860000D02*
X179402500Y-108860000D01*
X180922500Y-107860000D02*
X180922500Y-108860000D01*
X180922500Y-105740000D02*
X180922500Y-106740000D01*
X179402500Y-108860000D02*
X179402500Y-108810000D01*
X179402500Y-107690000D02*
X179402500Y-106910000D01*
X179402500Y-105790000D02*
X179402500Y-105740000D01*
X179402500Y-105740000D02*
X180922500Y-105740000D01*
%TO.C,R8*%
X182415000Y-108527064D02*
X182415000Y-108072936D01*
X183885000Y-108527064D02*
X183885000Y-108072936D01*
%TO.C,R7*%
X178022936Y-109315000D02*
X178477064Y-109315000D01*
X178022936Y-110785000D02*
X178477064Y-110785000D01*
%TO.C,R12*%
X121115000Y-62327064D02*
X121115000Y-61872936D01*
X122585000Y-62327064D02*
X122585000Y-61872936D01*
%TO.C,R11*%
X116672936Y-63115000D02*
X117127064Y-63115000D01*
X116672936Y-64585000D02*
X117127064Y-64585000D01*
%TO.C,R4*%
X182015000Y-63427064D02*
X182015000Y-62972936D01*
X183485000Y-63427064D02*
X183485000Y-62972936D01*
%TO.C,R3*%
X177622936Y-64215000D02*
X178077064Y-64215000D01*
X177622936Y-65685000D02*
X178077064Y-65685000D01*
%TO.C,Q5*%
X118090000Y-59540000D02*
X119610000Y-59540000D01*
X118090000Y-59590000D02*
X118090000Y-59540000D01*
X118090000Y-61490000D02*
X118090000Y-60710000D01*
X118090000Y-62660000D02*
X118090000Y-62610000D01*
X119610000Y-59540000D02*
X119610000Y-60540000D01*
X119610000Y-61660000D02*
X119610000Y-62660000D01*
X119610000Y-62660000D02*
X118090000Y-62660000D01*
X117790000Y-61050000D02*
X117310000Y-61050000D01*
X117550000Y-60720000D01*
X117790000Y-61050000D01*
G36*
X117790000Y-61050000D02*
G01*
X117310000Y-61050000D01*
X117550000Y-60720000D01*
X117790000Y-61050000D01*
G37*
%TO.C,Q1*%
X179027500Y-60640000D02*
X180547500Y-60640000D01*
X179027500Y-60690000D02*
X179027500Y-60640000D01*
X179027500Y-62590000D02*
X179027500Y-61810000D01*
X179027500Y-63760000D02*
X179027500Y-63710000D01*
X180547500Y-60640000D02*
X180547500Y-61640000D01*
X180547500Y-62760000D02*
X180547500Y-63760000D01*
X180547500Y-63760000D02*
X179027500Y-63760000D01*
X178727500Y-62150000D02*
X178247500Y-62150000D01*
X178487500Y-61820000D01*
X178727500Y-62150000D01*
G36*
X178727500Y-62150000D02*
G01*
X178247500Y-62150000D01*
X178487500Y-61820000D01*
X178727500Y-62150000D01*
G37*
%TO.C,U2*%
X141475000Y-59346250D02*
X141570000Y-59346250D01*
X141475000Y-63466250D02*
X141475000Y-59346250D01*
X141570000Y-63466250D02*
X141475000Y-63466250D01*
X146500000Y-59346250D02*
X146595000Y-59346250D01*
X146595000Y-59346250D02*
X146595000Y-63466250D01*
X146595000Y-63466250D02*
X146500000Y-63466250D01*
X141565000Y-64006250D02*
X141235000Y-64246250D01*
X141235000Y-63766250D01*
X141565000Y-64006250D01*
G36*
X141565000Y-64006250D02*
G01*
X141235000Y-64246250D01*
X141235000Y-63766250D01*
X141565000Y-64006250D01*
G37*
%TO.C,C6*%
X139065000Y-128638748D02*
X139065000Y-129161252D01*
X140535000Y-128638748D02*
X140535000Y-129161252D01*
%TO.C,TP2*%
X165550000Y-45600000D02*
G75*
G02*
X162550000Y-45600000I-1500000J0D01*
G01*
X162550000Y-45600000D02*
G75*
G02*
X165550000Y-45600000I1500000J0D01*
G01*
%TO.C,C2*%
X138001248Y-52865000D02*
X138523752Y-52865000D01*
X138001248Y-54335000D02*
X138523752Y-54335000D01*
%TO.C,R1*%
X142389564Y-52865000D02*
X141935436Y-52865000D01*
X142389564Y-54335000D02*
X141935436Y-54335000D01*
%TO.C,TP4*%
X163100000Y-64900000D02*
G75*
G02*
X160100000Y-64900000I-1500000J0D01*
G01*
X160100000Y-64900000D02*
G75*
G02*
X163100000Y-64900000I1500000J0D01*
G01*
%TO.C,TP14*%
X165570000Y-50000000D02*
G75*
G02*
X162570000Y-50000000I-1500000J0D01*
G01*
X162570000Y-50000000D02*
G75*
G02*
X165570000Y-50000000I1500000J0D01*
G01*
%TO.C,C4*%
X149965000Y-51038748D02*
X149965000Y-51561252D01*
X151435000Y-51038748D02*
X151435000Y-51561252D01*
D14*
%TO.C,U8*%
X141290000Y-68170000D02*
X159070000Y-68170000D01*
X141290000Y-129130000D02*
X141290000Y-68170000D01*
X141290000Y-129130000D02*
X146150000Y-129130000D01*
X146150000Y-129130000D02*
X146150000Y-129830000D01*
X154210000Y-129130000D02*
X154210000Y-129830000D01*
X154210000Y-129830000D02*
X146150000Y-129830000D01*
X159070000Y-68170000D02*
X159070000Y-129130000D01*
X159070000Y-129130000D02*
X154210000Y-129130000D01*
D15*
X159780000Y-122780000D02*
G75*
G02*
X159580000Y-122780000I-100000J0D01*
G01*
X159580000Y-122780000D02*
G75*
G02*
X159780000Y-122780000I100000J0D01*
G01*
D13*
%TO.C,TP13*%
X160100000Y-35900000D02*
G75*
G02*
X157100000Y-35900000I-1500000J0D01*
G01*
X157100000Y-35900000D02*
G75*
G02*
X160100000Y-35900000I1500000J0D01*
G01*
%TO.C,R2*%
X146089564Y-52865000D02*
X145635436Y-52865000D01*
X146089564Y-54335000D02*
X145635436Y-54335000D01*
%TO.C,U3*%
X152070000Y-49480000D02*
X152070000Y-53240000D01*
X152070000Y-53240000D02*
X153330000Y-53240000D01*
X158890000Y-49480000D02*
X158890000Y-53240000D01*
X158890000Y-53240000D02*
X157630000Y-53240000D01*
X159120000Y-48440000D02*
X158790000Y-48200000D01*
X159120000Y-47960000D01*
X159120000Y-48440000D01*
G36*
X159120000Y-48440000D02*
G01*
X158790000Y-48200000D01*
X159120000Y-47960000D01*
X159120000Y-48440000D01*
G37*
%TO.C,D1*%
X151510000Y-47450000D02*
X148250000Y-47450000D01*
X151510000Y-49150000D02*
X148250000Y-49150000D01*
X151510000Y-49150000D02*
X151510000Y-47450000D01*
%TO.C,J2*%
X149970000Y-43590000D02*
X149970000Y-38170000D01*
X158690000Y-38170000D02*
X149970000Y-38170000D01*
X158690000Y-43590000D02*
X149970000Y-43590000D01*
X160390000Y-39470000D02*
X158690000Y-38170000D01*
X160390000Y-42290000D02*
X158690000Y-43590000D01*
X160390000Y-42290000D02*
X160390000Y-39470000D01*
%TO.C,TP3*%
X163050000Y-57400000D02*
G75*
G02*
X160050000Y-57400000I-1500000J0D01*
G01*
X160050000Y-57400000D02*
G75*
G02*
X163050000Y-57400000I1500000J0D01*
G01*
%TO.C,C3*%
X154661252Y-56115000D02*
X154138748Y-56115000D01*
X154661252Y-57585000D02*
X154138748Y-57585000D01*
%TO.C,C1*%
X146011252Y-65465000D02*
X145488748Y-65465000D01*
X146011252Y-66935000D02*
X145488748Y-66935000D01*
%TO.C,TP15*%
X163050000Y-61150000D02*
G75*
G02*
X160050000Y-61150000I-1500000J0D01*
G01*
X160050000Y-61150000D02*
G75*
G02*
X163050000Y-61150000I1500000J0D01*
G01*
%TO.C,TP1*%
X153980000Y-35900000D02*
G75*
G02*
X150980000Y-35900000I-1500000J0D01*
G01*
X150980000Y-35900000D02*
G75*
G02*
X153980000Y-35900000I1500000J0D01*
G01*
%TO.C,J5*%
X120110000Y-112560000D02*
X115390000Y-112560000D01*
X115390000Y-128680000D01*
X120110000Y-128680000D01*
X120110000Y-112560000D01*
X117500000Y-128680000D02*
X117500000Y-128070000D01*
X118800000Y-128680000D02*
X118800000Y-128070000D01*
X116000000Y-128070000D02*
X119500000Y-128070000D01*
X119500000Y-128070000D02*
X119500000Y-126120000D01*
X119500000Y-126120000D02*
X120110000Y-126120000D01*
X116500000Y-125720000D02*
X116000000Y-125720000D01*
X116000000Y-125620000D02*
X116500000Y-125620000D01*
X116000000Y-125520000D02*
X116500000Y-125520000D01*
X116500000Y-125520000D02*
X116500000Y-125720000D01*
X116500000Y-123720000D02*
X116000000Y-123720000D01*
X116000000Y-123620000D02*
X116500000Y-123620000D01*
X116000000Y-123520000D02*
X116500000Y-123520000D01*
X116500000Y-123520000D02*
X116500000Y-123720000D01*
X116500000Y-121720000D02*
X116000000Y-121720000D01*
X116000000Y-121620000D02*
X116500000Y-121620000D01*
X116000000Y-121520000D02*
X116500000Y-121520000D01*
X116500000Y-121520000D02*
X116500000Y-121720000D01*
X116500000Y-119720000D02*
X116000000Y-119720000D01*
X116000000Y-119620000D02*
X116500000Y-119620000D01*
X116000000Y-119520000D02*
X116500000Y-119520000D01*
X116500000Y-119520000D02*
X116500000Y-119720000D01*
X116500000Y-117720000D02*
X116000000Y-117720000D01*
X116000000Y-117620000D02*
X116500000Y-117620000D01*
X116000000Y-117520000D02*
X116500000Y-117520000D01*
X116500000Y-117520000D02*
X116500000Y-117720000D01*
X116500000Y-115720000D02*
X116000000Y-115720000D01*
X116000000Y-115620000D02*
X116500000Y-115620000D01*
X116000000Y-115520000D02*
X116500000Y-115520000D01*
X116500000Y-115520000D02*
X116500000Y-115720000D01*
X119500000Y-115120000D02*
X119500000Y-113170000D01*
X120110000Y-115120000D02*
X119500000Y-115120000D01*
X120110000Y-114320000D02*
X120310000Y-114320000D01*
X120210000Y-114320000D02*
X120210000Y-114020000D01*
X120310000Y-114320000D02*
X120310000Y-114020000D01*
X120310000Y-114020000D02*
X120110000Y-114020000D01*
X120410000Y-113510000D02*
X120410000Y-112260000D01*
X116000000Y-113170000D02*
X116000000Y-128070000D01*
X119500000Y-113170000D02*
X116000000Y-113170000D01*
X117500000Y-112560000D02*
X117500000Y-113170000D01*
X118800000Y-112560000D02*
X118800000Y-113170000D01*
X120410000Y-112260000D02*
X119160000Y-112260000D01*
%TD*%
%LPC*%
D16*
%TO.C,He2*%
X186900000Y-139800000D03*
%TD*%
%TO.C,H4*%
X112900000Y-139800000D03*
%TD*%
D17*
%TO.C,J10*%
X185600000Y-114620000D03*
D18*
X185600000Y-116620000D03*
X185600000Y-118620000D03*
X185600000Y-120620000D03*
X185600000Y-122620000D03*
X185600000Y-124620000D03*
X185600000Y-126620000D03*
%TD*%
D17*
%TO.C,J9*%
X185600000Y-70650000D03*
D18*
X185600000Y-72650000D03*
X185600000Y-74650000D03*
X185600000Y-76650000D03*
X185600000Y-78650000D03*
X185600000Y-80650000D03*
X185600000Y-82650000D03*
%TD*%
D17*
%TO.C,J8*%
X123950000Y-114620000D03*
D18*
X123950000Y-116620000D03*
X123950000Y-118620000D03*
X123950000Y-120620000D03*
X123950000Y-122620000D03*
X123950000Y-124620000D03*
X123950000Y-126620000D03*
%TD*%
D17*
%TO.C,J7*%
X123950000Y-70650000D03*
D18*
X123950000Y-72650000D03*
X123950000Y-74650000D03*
X123950000Y-76650000D03*
X123950000Y-78650000D03*
X123950000Y-80650000D03*
X123950000Y-82650000D03*
%TD*%
D17*
%TO.C,J6*%
X179800000Y-114620000D03*
D18*
X179800000Y-116620000D03*
X179800000Y-118620000D03*
X179800000Y-120620000D03*
X179800000Y-122620000D03*
X179800000Y-124620000D03*
X179800000Y-126620000D03*
%TD*%
D17*
%TO.C,J4*%
X179800000Y-70650000D03*
D18*
X179800000Y-72650000D03*
X179800000Y-74650000D03*
X179800000Y-76650000D03*
X179800000Y-78650000D03*
X179800000Y-80650000D03*
X179800000Y-82650000D03*
%TD*%
D17*
%TO.C,J3*%
X118300000Y-70650000D03*
D18*
X118300000Y-72650000D03*
X118300000Y-74650000D03*
X118300000Y-76650000D03*
X118300000Y-78650000D03*
X118300000Y-80650000D03*
X118300000Y-82650000D03*
%TD*%
D16*
%TO.C,He1*%
X187600000Y-38400000D03*
%TD*%
D19*
%TO.C,J11*%
X149760000Y-62550000D03*
D20*
X149760000Y-60010000D03*
X152300000Y-62550000D03*
X152300000Y-60010000D03*
%TD*%
D21*
%TO.C,J1*%
X143050000Y-41850000D03*
D22*
X145050000Y-41850000D03*
%TD*%
D23*
%TO.C,D4*%
X144974000Y-46796010D03*
X143074000Y-46796010D03*
X144024000Y-50216010D03*
%TD*%
D24*
%TO.C,R5*%
X117350000Y-109150000D03*
X115350000Y-109150000D03*
%TD*%
D25*
%TO.C,Q2*%
X119200000Y-106400000D03*
X117325000Y-107350000D03*
X117325000Y-105450000D03*
%TD*%
D26*
%TO.C,R6*%
X121250000Y-106400000D03*
X121250000Y-108400000D03*
%TD*%
D25*
%TO.C,Q3*%
X181100000Y-107300000D03*
X179225000Y-108250000D03*
X179225000Y-106350000D03*
%TD*%
D26*
%TO.C,R8*%
X183150000Y-109300000D03*
X183150000Y-107300000D03*
%TD*%
D24*
%TO.C,R7*%
X177250000Y-110050000D03*
X179250000Y-110050000D03*
%TD*%
D26*
%TO.C,R12*%
X121850000Y-63100000D03*
X121850000Y-61100000D03*
%TD*%
D24*
%TO.C,R11*%
X115900000Y-63850000D03*
X117900000Y-63850000D03*
%TD*%
D26*
%TO.C,R4*%
X182750000Y-64200000D03*
X182750000Y-62200000D03*
%TD*%
D24*
%TO.C,R3*%
X176850000Y-64950000D03*
X178850000Y-64950000D03*
%TD*%
D25*
%TO.C,Q5*%
X117912500Y-60150000D03*
X117912500Y-62050000D03*
X119787500Y-61100000D03*
%TD*%
%TO.C,Q1*%
X178850000Y-61250000D03*
X178850000Y-63150000D03*
X180725000Y-62200000D03*
%TD*%
D27*
%TO.C,U2*%
X142130000Y-63881250D03*
X143400000Y-63881250D03*
X144670000Y-63881250D03*
X145940000Y-63881250D03*
X145940000Y-58931250D03*
X144670000Y-58931250D03*
X143400000Y-58931250D03*
X142130000Y-58931250D03*
%TD*%
D28*
%TO.C,C6*%
X139800000Y-127862500D03*
X139800000Y-129937500D03*
%TD*%
D29*
%TO.C,TP2*%
X164050000Y-45600000D03*
%TD*%
D30*
%TO.C,C2*%
X137225000Y-53600000D03*
X139300000Y-53600000D03*
%TD*%
D31*
%TO.C,R1*%
X143162500Y-53600000D03*
X141162500Y-53600000D03*
%TD*%
D29*
%TO.C,TP4*%
X161600000Y-64900000D03*
%TD*%
%TO.C,TP14*%
X164070000Y-50000000D03*
%TD*%
D28*
%TO.C,C4*%
X150700000Y-50262500D03*
X150700000Y-52337500D03*
%TD*%
D32*
%TO.C,U8*%
X157800000Y-125320000D03*
X157800000Y-122780000D03*
X157800000Y-120240000D03*
X157800000Y-117700000D03*
X157800000Y-92300000D03*
X152720000Y-82140000D03*
X142560000Y-122780000D03*
X157800000Y-115160000D03*
X157800000Y-112620000D03*
D33*
X154750000Y-121510000D03*
D32*
X157800000Y-110080000D03*
X157800000Y-107540000D03*
X157800000Y-105000000D03*
X157800000Y-102460000D03*
X157800000Y-99920000D03*
X157800000Y-97380000D03*
X157800000Y-94840000D03*
X142560000Y-94840000D03*
X142560000Y-97380000D03*
X142560000Y-99920000D03*
X142560000Y-102460000D03*
X142560000Y-105000000D03*
X142560000Y-107540000D03*
X142560000Y-110080000D03*
X142560000Y-112620000D03*
X142560000Y-115160000D03*
X142560000Y-117700000D03*
X142560000Y-120240000D03*
X157800000Y-89760000D03*
X157800000Y-87220000D03*
X157800000Y-84680000D03*
X157800000Y-82140000D03*
X157800000Y-79600000D03*
X157800000Y-77060000D03*
X157800000Y-74520000D03*
X157800000Y-71980000D03*
X157800000Y-69440000D03*
X142560000Y-69440000D03*
X142560000Y-71980000D03*
X142560000Y-74520000D03*
X142560000Y-77060000D03*
X142560000Y-79600000D03*
X142560000Y-82140000D03*
X142560000Y-84680000D03*
X142560000Y-87220000D03*
X142560000Y-89760000D03*
D33*
X154750000Y-116430000D03*
X154750000Y-118970000D03*
D32*
X157800000Y-127860000D03*
X142560000Y-125320000D03*
D34*
X147010000Y-112890000D03*
D32*
X142560000Y-92300000D03*
X150180000Y-82140000D03*
D34*
X147010000Y-114890000D03*
D32*
X145100000Y-82140000D03*
X147640000Y-82140000D03*
D34*
X145010000Y-114890000D03*
X145010000Y-112890000D03*
X149010000Y-112890000D03*
X149010000Y-114890000D03*
D33*
X154750000Y-113890000D03*
X154750000Y-111350000D03*
D32*
X155260000Y-82140000D03*
X142560000Y-127860000D03*
X145100000Y-125320000D03*
%TD*%
D29*
%TO.C,TP13*%
X158600000Y-35900000D03*
%TD*%
D31*
%TO.C,R2*%
X146862500Y-53600000D03*
X144862500Y-53600000D03*
%TD*%
D35*
%TO.C,U3*%
X157780000Y-48180000D03*
X155480000Y-48180000D03*
D36*
X155480000Y-54480000D03*
D35*
X153180000Y-48180000D03*
%TD*%
D37*
%TO.C,D1*%
X150750000Y-48300000D03*
X148250000Y-48300000D03*
%TD*%
D38*
%TO.C,J2*%
X157680000Y-40880000D03*
D39*
X152680000Y-40880000D03*
%TD*%
D29*
%TO.C,TP3*%
X161550000Y-57400000D03*
%TD*%
D40*
%TO.C,C3*%
X155437500Y-56850000D03*
X153362500Y-56850000D03*
%TD*%
%TO.C,C1*%
X146787500Y-66200000D03*
X144712500Y-66200000D03*
%TD*%
D29*
%TO.C,TP15*%
X161550000Y-61150000D03*
%TD*%
%TO.C,TP1*%
X152480000Y-35900000D03*
%TD*%
D16*
%TO.C,H1*%
X113600000Y-38400000D03*
%TD*%
D18*
%TO.C,J5*%
X118300000Y-126620000D03*
X118300000Y-124620000D03*
X118300000Y-122620000D03*
X118300000Y-120620000D03*
X118300000Y-118620000D03*
X118300000Y-116620000D03*
D17*
X118300000Y-114620000D03*
%TD*%
%LPD*%
M02*
