%TF.GenerationSoftware,KiCad,Pcbnew,9.0.7*%
%TF.CreationDate,2026-02-28T14:07:45-05:00*%
%TF.ProjectId,igvcControlBoard,69677663-436f-46e7-9472-6f6c426f6172,1.1*%
%TF.SameCoordinates,Original*%
%TF.FileFunction,Soldermask,Top*%
%TF.FilePolarity,Negative*%
%FSLAX46Y46*%
G04 Gerber Fmt 4.6, Leading zero omitted, Abs format (unit mm)*
G04 Created by KiCad (PCBNEW 9.0.7) date 2026-02-28 14:07:45*
%MOMM*%
%LPD*%
G01*
G04 APERTURE LIST*
G04 Aperture macros list*
%AMRoundRect*
0 Rectangle with rounded corners*
0 $1 Rounding radius*
0 $2 $3 $4 $5 $6 $7 $8 $9 X,Y pos of 4 corners*
0 Add a 4 corners polygon primitive as box body*
4,1,4,$2,$3,$4,$5,$6,$7,$8,$9,$2,$3,0*
0 Add four circle primitives for the rounded corners*
1,1,$1+$1,$2,$3*
1,1,$1+$1,$4,$5*
1,1,$1+$1,$6,$7*
1,1,$1+$1,$8,$9*
0 Add four rect primitives between the rounded corners*
20,1,$1+$1,$2,$3,$4,$5,0*
20,1,$1+$1,$4,$5,$6,$7,0*
20,1,$1+$1,$6,$7,$8,$9,0*
20,1,$1+$1,$8,$9,$2,$3,0*%
G04 Aperture macros list end*
%ADD10C,4.300000*%
%ADD11RoundRect,0.250000X-0.625000X0.350000X-0.625000X-0.350000X0.625000X-0.350000X0.625000X0.350000X0*%
%ADD12O,1.750000X1.200000*%
%ADD13R,1.700000X1.700000*%
%ADD14C,1.700000*%
%ADD15O,1.200000X1.750000*%
%ADD16RoundRect,0.250000X0.350000X0.625000X-0.350000X0.625000X-0.350000X-0.625000X0.350000X-0.625000X0*%
%ADD17RoundRect,0.162500X-0.162500X0.837500X-0.162500X-0.837500X0.162500X-0.837500X0.162500X0.837500X0*%
%ADD18RoundRect,0.250000X-0.350000X-0.450000X0.350000X-0.450000X0.350000X0.450000X-0.350000X0.450000X0*%
%ADD19RoundRect,0.150000X-0.587500X-0.150000X0.587500X-0.150000X0.587500X0.150000X-0.587500X0.150000X0*%
%ADD20RoundRect,0.250000X0.450000X-0.350000X0.450000X0.350000X-0.450000X0.350000X-0.450000X-0.350000X0*%
%ADD21RoundRect,0.150000X0.150000X-0.825000X0.150000X0.825000X-0.150000X0.825000X-0.150000X-0.825000X0*%
%ADD22RoundRect,0.250000X-0.475000X0.337500X-0.475000X-0.337500X0.475000X-0.337500X0.475000X0.337500X0*%
%ADD23C,2.000000*%
%ADD24RoundRect,0.250000X-0.337500X-0.475000X0.337500X-0.475000X0.337500X0.475000X-0.337500X0.475000X0*%
%ADD25RoundRect,0.250000X0.350000X0.450000X-0.350000X0.450000X-0.350000X-0.450000X0.350000X-0.450000X0*%
%ADD26C,1.512000*%
%ADD27C,1.462000*%
%ADD28C,1.412000*%
%ADD29RoundRect,0.375000X-0.375000X0.625000X-0.375000X-0.625000X0.375000X-0.625000X0.375000X0.625000X0*%
%ADD30RoundRect,0.500000X-1.400000X0.500000X-1.400000X-0.500000X1.400000X-0.500000X1.400000X0.500000X0*%
%ADD31RoundRect,0.250000X0.250000X0.250000X-0.250000X0.250000X-0.250000X-0.250000X0.250000X-0.250000X0*%
%ADD32RoundRect,0.760000X1.140000X1.140000X-1.140000X1.140000X-1.140000X-1.140000X1.140000X-1.140000X0*%
%ADD33C,4.000000*%
%ADD34RoundRect,0.250000X0.337500X0.475000X-0.337500X0.475000X-0.337500X-0.475000X0.337500X-0.475000X0*%
G04 APERTURE END LIST*
D10*
%TO.C,He2*%
X186900000Y-139800000D03*
%TD*%
%TO.C,H4*%
X112900000Y-139800000D03*
%TD*%
D11*
%TO.C,J10*%
X185600000Y-114620000D03*
D12*
X185600000Y-116620000D03*
X185600000Y-118620000D03*
X185600000Y-120620000D03*
X185600000Y-122620000D03*
X185600000Y-124620000D03*
X185600000Y-126620000D03*
%TD*%
D11*
%TO.C,J9*%
X185600000Y-70650000D03*
D12*
X185600000Y-72650000D03*
X185600000Y-74650000D03*
X185600000Y-76650000D03*
X185600000Y-78650000D03*
X185600000Y-80650000D03*
X185600000Y-82650000D03*
%TD*%
D11*
%TO.C,J8*%
X123950000Y-114620000D03*
D12*
X123950000Y-116620000D03*
X123950000Y-118620000D03*
X123950000Y-120620000D03*
X123950000Y-122620000D03*
X123950000Y-124620000D03*
X123950000Y-126620000D03*
%TD*%
D11*
%TO.C,J7*%
X123950000Y-70650000D03*
D12*
X123950000Y-72650000D03*
X123950000Y-74650000D03*
X123950000Y-76650000D03*
X123950000Y-78650000D03*
X123950000Y-80650000D03*
X123950000Y-82650000D03*
%TD*%
D11*
%TO.C,J6*%
X179800000Y-114620000D03*
D12*
X179800000Y-116620000D03*
X179800000Y-118620000D03*
X179800000Y-120620000D03*
X179800000Y-122620000D03*
X179800000Y-124620000D03*
X179800000Y-126620000D03*
%TD*%
D11*
%TO.C,J4*%
X179800000Y-70650000D03*
D12*
X179800000Y-72650000D03*
X179800000Y-74650000D03*
X179800000Y-76650000D03*
X179800000Y-78650000D03*
X179800000Y-80650000D03*
X179800000Y-82650000D03*
%TD*%
D11*
%TO.C,J3*%
X118300000Y-70650000D03*
D12*
X118300000Y-72650000D03*
X118300000Y-74650000D03*
X118300000Y-76650000D03*
X118300000Y-78650000D03*
X118300000Y-80650000D03*
X118300000Y-82650000D03*
%TD*%
D10*
%TO.C,He1*%
X187600000Y-38400000D03*
%TD*%
D13*
%TO.C,J11*%
X149760000Y-62550000D03*
D14*
X149760000Y-60010000D03*
X152300000Y-62550000D03*
X152300000Y-60010000D03*
%TD*%
D15*
%TO.C,J1*%
X143050000Y-41850000D03*
D16*
X145050000Y-41850000D03*
%TD*%
D17*
%TO.C,D4*%
X144974000Y-46796010D03*
X143074000Y-46796010D03*
X144024000Y-50216010D03*
%TD*%
D18*
%TO.C,R5*%
X117350000Y-109150000D03*
X115350000Y-109150000D03*
%TD*%
D19*
%TO.C,Q2*%
X119200000Y-106400000D03*
X117325000Y-107350000D03*
X117325000Y-105450000D03*
%TD*%
D20*
%TO.C,R6*%
X121250000Y-106400000D03*
X121250000Y-108400000D03*
%TD*%
D19*
%TO.C,Q3*%
X181100000Y-107300000D03*
X179225000Y-108250000D03*
X179225000Y-106350000D03*
%TD*%
D20*
%TO.C,R8*%
X183150000Y-109300000D03*
X183150000Y-107300000D03*
%TD*%
D18*
%TO.C,R7*%
X177250000Y-110050000D03*
X179250000Y-110050000D03*
%TD*%
D20*
%TO.C,R12*%
X121850000Y-63100000D03*
X121850000Y-61100000D03*
%TD*%
D18*
%TO.C,R11*%
X115900000Y-63850000D03*
X117900000Y-63850000D03*
%TD*%
D20*
%TO.C,R4*%
X182750000Y-64200000D03*
X182750000Y-62200000D03*
%TD*%
D18*
%TO.C,R3*%
X176850000Y-64950000D03*
X178850000Y-64950000D03*
%TD*%
D19*
%TO.C,Q5*%
X117912500Y-60150000D03*
X117912500Y-62050000D03*
X119787500Y-61100000D03*
%TD*%
%TO.C,Q1*%
X178850000Y-61250000D03*
X178850000Y-63150000D03*
X180725000Y-62200000D03*
%TD*%
D21*
%TO.C,U2*%
X142130000Y-63881250D03*
X143400000Y-63881250D03*
X144670000Y-63881250D03*
X145940000Y-63881250D03*
X145940000Y-58931250D03*
X144670000Y-58931250D03*
X143400000Y-58931250D03*
X142130000Y-58931250D03*
%TD*%
D22*
%TO.C,C6*%
X139800000Y-127862500D03*
X139800000Y-129937500D03*
%TD*%
D23*
%TO.C,TP2*%
X164050000Y-45600000D03*
%TD*%
D24*
%TO.C,C2*%
X137225000Y-53600000D03*
X139300000Y-53600000D03*
%TD*%
D25*
%TO.C,R1*%
X143162500Y-53600000D03*
X141162500Y-53600000D03*
%TD*%
D23*
%TO.C,TP4*%
X161600000Y-64900000D03*
%TD*%
%TO.C,TP14*%
X164070000Y-50000000D03*
%TD*%
D22*
%TO.C,C4*%
X150700000Y-50262500D03*
X150700000Y-52337500D03*
%TD*%
D26*
%TO.C,U8*%
X157800000Y-125320000D03*
X157800000Y-122780000D03*
X157800000Y-120240000D03*
X157800000Y-117700000D03*
X157800000Y-92300000D03*
X152720000Y-82140000D03*
X142560000Y-122780000D03*
X157800000Y-115160000D03*
X157800000Y-112620000D03*
D27*
X154750000Y-121510000D03*
D26*
X157800000Y-110080000D03*
X157800000Y-107540000D03*
X157800000Y-105000000D03*
X157800000Y-102460000D03*
X157800000Y-99920000D03*
X157800000Y-97380000D03*
X157800000Y-94840000D03*
X142560000Y-94840000D03*
X142560000Y-97380000D03*
X142560000Y-99920000D03*
X142560000Y-102460000D03*
X142560000Y-105000000D03*
X142560000Y-107540000D03*
X142560000Y-110080000D03*
X142560000Y-112620000D03*
X142560000Y-115160000D03*
X142560000Y-117700000D03*
X142560000Y-120240000D03*
X157800000Y-89760000D03*
X157800000Y-87220000D03*
X157800000Y-84680000D03*
X157800000Y-82140000D03*
X157800000Y-79600000D03*
X157800000Y-77060000D03*
X157800000Y-74520000D03*
X157800000Y-71980000D03*
X157800000Y-69440000D03*
X142560000Y-69440000D03*
X142560000Y-71980000D03*
X142560000Y-74520000D03*
X142560000Y-77060000D03*
X142560000Y-79600000D03*
X142560000Y-82140000D03*
X142560000Y-84680000D03*
X142560000Y-87220000D03*
X142560000Y-89760000D03*
D27*
X154750000Y-116430000D03*
X154750000Y-118970000D03*
D26*
X157800000Y-127860000D03*
X142560000Y-125320000D03*
D28*
X147010000Y-112890000D03*
D26*
X142560000Y-92300000D03*
X150180000Y-82140000D03*
D28*
X147010000Y-114890000D03*
D26*
X145100000Y-82140000D03*
X147640000Y-82140000D03*
D28*
X145010000Y-114890000D03*
X145010000Y-112890000D03*
X149010000Y-112890000D03*
X149010000Y-114890000D03*
D27*
X154750000Y-113890000D03*
X154750000Y-111350000D03*
D26*
X155260000Y-82140000D03*
X142560000Y-127860000D03*
X145100000Y-125320000D03*
%TD*%
D23*
%TO.C,TP13*%
X158600000Y-35900000D03*
%TD*%
D25*
%TO.C,R2*%
X146862500Y-53600000D03*
X144862500Y-53600000D03*
%TD*%
D29*
%TO.C,U3*%
X157780000Y-48180000D03*
X155480000Y-48180000D03*
D30*
X155480000Y-54480000D03*
D29*
X153180000Y-48180000D03*
%TD*%
D31*
%TO.C,D1*%
X150750000Y-48300000D03*
X148250000Y-48300000D03*
%TD*%
D32*
%TO.C,J2*%
X157680000Y-40880000D03*
D33*
X152680000Y-40880000D03*
%TD*%
D23*
%TO.C,TP3*%
X161550000Y-57400000D03*
%TD*%
D34*
%TO.C,C3*%
X155437500Y-56850000D03*
X153362500Y-56850000D03*
%TD*%
%TO.C,C1*%
X146787500Y-66200000D03*
X144712500Y-66200000D03*
%TD*%
D23*
%TO.C,TP15*%
X161550000Y-61150000D03*
%TD*%
%TO.C,TP1*%
X152480000Y-35900000D03*
%TD*%
D10*
%TO.C,H1*%
X113600000Y-38400000D03*
%TD*%
D12*
%TO.C,J5*%
X118300000Y-126620000D03*
X118300000Y-124620000D03*
X118300000Y-122620000D03*
X118300000Y-120620000D03*
X118300000Y-118620000D03*
X118300000Y-116620000D03*
D11*
X118300000Y-114620000D03*
%TD*%
M02*
