%TF.GenerationSoftware,KiCad,Pcbnew,9.0.7*%
%TF.CreationDate,2026-02-28T14:07:45-05:00*%
%TF.ProjectId,igvcControlBoard,69677663-436f-46e7-9472-6f6c426f6172,1.1*%
%TF.SameCoordinates,Original*%
%TF.FileFunction,Paste,Top*%
%TF.FilePolarity,Positive*%
%FSLAX46Y46*%
G04 Gerber Fmt 4.6, Leading zero omitted, Abs format (unit mm)*
G04 Created by KiCad (PCBNEW 9.0.7) date 2026-02-28 14:07:45*
%MOMM*%
%LPD*%
G01*
G04 APERTURE LIST*
G04 Aperture macros list*
%AMRoundRect*
0 Rectangle with rounded corners*
0 $1 Rounding radius*
0 $2 $3 $4 $5 $6 $7 $8 $9 X,Y pos of 4 corners*
0 Add a 4 corners polygon primitive as box body*
4,1,4,$2,$3,$4,$5,$6,$7,$8,$9,$2,$3,0*
0 Add four circle primitives for the rounded corners*
1,1,$1+$1,$2,$3*
1,1,$1+$1,$4,$5*
1,1,$1+$1,$6,$7*
1,1,$1+$1,$8,$9*
0 Add four rect primitives between the rounded corners*
20,1,$1+$1,$2,$3,$4,$5,0*
20,1,$1+$1,$4,$5,$6,$7,0*
20,1,$1+$1,$6,$7,$8,$9,0*
20,1,$1+$1,$8,$9,$2,$3,0*%
G04 Aperture macros list end*
%ADD10RoundRect,0.162500X-0.162500X0.837500X-0.162500X-0.837500X0.162500X-0.837500X0.162500X0.837500X0*%
%ADD11RoundRect,0.250000X-0.350000X-0.450000X0.350000X-0.450000X0.350000X0.450000X-0.350000X0.450000X0*%
%ADD12RoundRect,0.150000X-0.587500X-0.150000X0.587500X-0.150000X0.587500X0.150000X-0.587500X0.150000X0*%
%ADD13RoundRect,0.250000X0.450000X-0.350000X0.450000X0.350000X-0.450000X0.350000X-0.450000X-0.350000X0*%
%ADD14RoundRect,0.150000X0.150000X-0.825000X0.150000X0.825000X-0.150000X0.825000X-0.150000X-0.825000X0*%
%ADD15RoundRect,0.250000X-0.475000X0.337500X-0.475000X-0.337500X0.475000X-0.337500X0.475000X0.337500X0*%
%ADD16RoundRect,0.250000X-0.337500X-0.475000X0.337500X-0.475000X0.337500X0.475000X-0.337500X0.475000X0*%
%ADD17RoundRect,0.250000X0.350000X0.450000X-0.350000X0.450000X-0.350000X-0.450000X0.350000X-0.450000X0*%
%ADD18RoundRect,0.375000X-0.375000X0.625000X-0.375000X-0.625000X0.375000X-0.625000X0.375000X0.625000X0*%
%ADD19RoundRect,0.500000X-1.400000X0.500000X-1.400000X-0.500000X1.400000X-0.500000X1.400000X0.500000X0*%
%ADD20RoundRect,0.250000X0.250000X0.250000X-0.250000X0.250000X-0.250000X-0.250000X0.250000X-0.250000X0*%
%ADD21RoundRect,0.250000X0.337500X0.475000X-0.337500X0.475000X-0.337500X-0.475000X0.337500X-0.475000X0*%
G04 APERTURE END LIST*
D10*
%TO.C,D4*%
X144974000Y-46796010D03*
X143074000Y-46796010D03*
X144024000Y-50216010D03*
%TD*%
D11*
%TO.C,R5*%
X117350000Y-109150000D03*
X115350000Y-109150000D03*
%TD*%
D12*
%TO.C,Q2*%
X119200000Y-106400000D03*
X117325000Y-107350000D03*
X117325000Y-105450000D03*
%TD*%
D13*
%TO.C,R6*%
X121250000Y-106400000D03*
X121250000Y-108400000D03*
%TD*%
D12*
%TO.C,Q3*%
X181100000Y-107300000D03*
X179225000Y-108250000D03*
X179225000Y-106350000D03*
%TD*%
D13*
%TO.C,R8*%
X183150000Y-109300000D03*
X183150000Y-107300000D03*
%TD*%
D11*
%TO.C,R7*%
X177250000Y-110050000D03*
X179250000Y-110050000D03*
%TD*%
D13*
%TO.C,R12*%
X121850000Y-63100000D03*
X121850000Y-61100000D03*
%TD*%
D11*
%TO.C,R11*%
X115900000Y-63850000D03*
X117900000Y-63850000D03*
%TD*%
D13*
%TO.C,R4*%
X182750000Y-64200000D03*
X182750000Y-62200000D03*
%TD*%
D11*
%TO.C,R3*%
X176850000Y-64950000D03*
X178850000Y-64950000D03*
%TD*%
D12*
%TO.C,Q5*%
X117912500Y-60150000D03*
X117912500Y-62050000D03*
X119787500Y-61100000D03*
%TD*%
%TO.C,Q1*%
X178850000Y-61250000D03*
X178850000Y-63150000D03*
X180725000Y-62200000D03*
%TD*%
D14*
%TO.C,U2*%
X142130000Y-63881250D03*
X143400000Y-63881250D03*
X144670000Y-63881250D03*
X145940000Y-63881250D03*
X145940000Y-58931250D03*
X144670000Y-58931250D03*
X143400000Y-58931250D03*
X142130000Y-58931250D03*
%TD*%
D15*
%TO.C,C6*%
X139800000Y-127862500D03*
X139800000Y-129937500D03*
%TD*%
D16*
%TO.C,C2*%
X137225000Y-53600000D03*
X139300000Y-53600000D03*
%TD*%
D17*
%TO.C,R1*%
X143162500Y-53600000D03*
X141162500Y-53600000D03*
%TD*%
D15*
%TO.C,C4*%
X150700000Y-50262500D03*
X150700000Y-52337500D03*
%TD*%
D17*
%TO.C,R2*%
X146862500Y-53600000D03*
X144862500Y-53600000D03*
%TD*%
D18*
%TO.C,U3*%
X157780000Y-48180000D03*
X155480000Y-48180000D03*
D19*
X155480000Y-54480000D03*
D18*
X153180000Y-48180000D03*
%TD*%
D20*
%TO.C,D1*%
X150750000Y-48300000D03*
X148250000Y-48300000D03*
%TD*%
D21*
%TO.C,C3*%
X155437500Y-56850000D03*
X153362500Y-56850000D03*
%TD*%
%TO.C,C1*%
X146787500Y-66200000D03*
X144712500Y-66200000D03*
%TD*%
M02*
