%TF.GenerationSoftware,KiCad,Pcbnew,9.0.4*%
%TF.CreationDate,2025-09-30T20:07:29-04:00*%
%TF.ProjectId,motorDriverDaughter,6d6f746f-7244-4726-9976-657244617567,1*%
%TF.SameCoordinates,Original*%
%TF.FileFunction,Soldermask,Top*%
%TF.FilePolarity,Negative*%
%FSLAX46Y46*%
G04 Gerber Fmt 4.6, Leading zero omitted, Abs format (unit mm)*
G04 Created by KiCad (PCBNEW 9.0.4) date 2025-09-30 20:07:29*
%MOMM*%
%LPD*%
G01*
G04 APERTURE LIST*
G04 Aperture macros list*
%AMRoundRect*
0 Rectangle with rounded corners*
0 $1 Rounding radius*
0 $2 $3 $4 $5 $6 $7 $8 $9 X,Y pos of 4 corners*
0 Add a 4 corners polygon primitive as box body*
4,1,4,$2,$3,$4,$5,$6,$7,$8,$9,$2,$3,0*
0 Add four circle primitives for the rounded corners*
1,1,$1+$1,$2,$3*
1,1,$1+$1,$4,$5*
1,1,$1+$1,$6,$7*
1,1,$1+$1,$8,$9*
0 Add four rect primitives between the rounded corners*
20,1,$1+$1,$2,$3,$4,$5,0*
20,1,$1+$1,$4,$5,$6,$7,0*
20,1,$1+$1,$6,$7,$8,$9,0*
20,1,$1+$1,$8,$9,$2,$3,0*%
G04 Aperture macros list end*
%ADD10C,1.700000*%
%ADD11R,1.700000X1.700000*%
%ADD12O,1.700000X1.700000*%
%ADD13C,1.600000*%
%ADD14RoundRect,0.250000X-0.350000X-0.450000X0.350000X-0.450000X0.350000X0.450000X-0.350000X0.450000X0*%
%ADD15RoundRect,0.250000X-1.050000X1.050000X-1.050000X-1.050000X1.050000X-1.050000X1.050000X1.050000X0*%
%ADD16C,2.600000*%
%ADD17RoundRect,0.250000X1.050000X-1.050000X1.050000X1.050000X-1.050000X1.050000X-1.050000X-1.050000X0*%
%ADD18RoundRect,0.760000X1.140000X-1.140000X1.140000X1.140000X-1.140000X1.140000X-1.140000X-1.140000X0*%
%ADD19C,3.800000*%
%ADD20RoundRect,0.250000X0.337500X0.475000X-0.337500X0.475000X-0.337500X-0.475000X0.337500X-0.475000X0*%
%ADD21RoundRect,0.250000X-0.550000X0.550000X-0.550000X-0.550000X0.550000X-0.550000X0.550000X0.550000X0*%
%ADD22RoundRect,0.250000X0.550000X-0.550000X0.550000X0.550000X-0.550000X0.550000X-0.550000X-0.550000X0*%
G04 APERTURE END LIST*
D10*
%TO.C,J1*%
X53500000Y-49040000D03*
X53500000Y-46500000D03*
X53500000Y-43960000D03*
X53500000Y-41420000D03*
X53500000Y-38880000D03*
X53500000Y-36340000D03*
X53500000Y-33800000D03*
D11*
X53500000Y-31260000D03*
%TD*%
D12*
%TO.C,U1*%
X35740000Y-31250000D03*
D11*
X33200000Y-31250000D03*
D12*
X58580000Y-49040000D03*
X58580000Y-46500000D03*
X58580000Y-43960000D03*
X58580000Y-41420000D03*
X58580000Y-38880000D03*
X58580000Y-36340000D03*
X30660000Y-49040000D03*
X30660000Y-46500000D03*
X30660000Y-43960000D03*
X30660000Y-41420000D03*
X30660000Y-38880000D03*
X30660000Y-36340000D03*
X30660000Y-33800000D03*
X58580000Y-33800000D03*
D11*
X58580000Y-31260000D03*
X30660000Y-31260000D03*
%TD*%
D13*
%TO.C,R2*%
X35675000Y-27540000D03*
X30595000Y-27540000D03*
%TD*%
D14*
%TO.C,R1*%
X25460000Y-41040000D03*
X27460000Y-41040000D03*
%TD*%
D15*
%TO.C,J9*%
X22887500Y-45140000D03*
D16*
X22887500Y-50140000D03*
%TD*%
D11*
%TO.C,J8*%
X40560000Y-22340000D03*
%TD*%
D17*
%TO.C,J7*%
X75232500Y-28340000D03*
D16*
X75232500Y-23340000D03*
%TD*%
D17*
%TO.C,J6*%
X75232500Y-39340000D03*
D16*
X75232500Y-34340000D03*
%TD*%
D11*
%TO.C,J5*%
X19120000Y-22340000D03*
D10*
X21660000Y-22340000D03*
X24200000Y-22340000D03*
X26740000Y-22340000D03*
X29280000Y-22340000D03*
X31820000Y-22340000D03*
X34360000Y-22340000D03*
X36900000Y-22340000D03*
%TD*%
D11*
%TO.C,J4*%
X66550000Y-22340000D03*
D10*
X64010000Y-22340000D03*
X61470000Y-22340000D03*
X58930000Y-22340000D03*
X56390000Y-22340000D03*
X53850000Y-22340000D03*
X51310000Y-22340000D03*
X48770000Y-22340000D03*
%TD*%
D18*
%TO.C,J3*%
X75860000Y-51040000D03*
D19*
X75860000Y-46040000D03*
%TD*%
D11*
%TO.C,J2*%
X40820000Y-31260000D03*
D10*
X40820000Y-33800000D03*
X40820000Y-36340000D03*
X40820000Y-38880000D03*
X40820000Y-41420000D03*
X40820000Y-43960000D03*
X40820000Y-46500000D03*
X40820000Y-49040000D03*
%TD*%
D20*
%TO.C,C4*%
X50697500Y-47340000D03*
X48622500Y-47340000D03*
%TD*%
%TO.C,C3*%
X50697500Y-49340000D03*
X48622500Y-49340000D03*
%TD*%
D21*
%TO.C,C2*%
X65660000Y-49940000D03*
D13*
X65660000Y-52440000D03*
%TD*%
D22*
%TO.C,C1*%
X65660000Y-45440000D03*
D13*
X65660000Y-42940000D03*
%TD*%
M02*
