%TF.GenerationSoftware,KiCad,Pcbnew,9.0.4*%
%TF.CreationDate,2025-09-30T20:07:29-04:00*%
%TF.ProjectId,motorDriverDaughter,6d6f746f-7244-4726-9976-657244617567,1*%
%TF.SameCoordinates,Original*%
%TF.FileFunction,Legend,Top*%
%TF.FilePolarity,Positive*%
%FSLAX46Y46*%
G04 Gerber Fmt 4.6, Leading zero omitted, Abs format (unit mm)*
G04 Created by KiCad (PCBNEW 9.0.4) date 2025-09-30 20:07:29*
%MOMM*%
%LPD*%
G01*
G04 APERTURE LIST*
%ADD10C,0.200000*%
%ADD11C,0.150000*%
%ADD12C,0.100000*%
%ADD13C,0.120000*%
G04 APERTURE END LIST*
D10*
X22127219Y-20370326D02*
X21127219Y-20370326D01*
X21127219Y-20370326D02*
X21127219Y-20132231D01*
X21127219Y-20132231D02*
X21174838Y-19989374D01*
X21174838Y-19989374D02*
X21270076Y-19894136D01*
X21270076Y-19894136D02*
X21365314Y-19846517D01*
X21365314Y-19846517D02*
X21555790Y-19798898D01*
X21555790Y-19798898D02*
X21698647Y-19798898D01*
X21698647Y-19798898D02*
X21889123Y-19846517D01*
X21889123Y-19846517D02*
X21984361Y-19894136D01*
X21984361Y-19894136D02*
X22079600Y-19989374D01*
X22079600Y-19989374D02*
X22127219Y-20132231D01*
X22127219Y-20132231D02*
X22127219Y-20370326D01*
X22127219Y-19370326D02*
X21127219Y-19370326D01*
X22127219Y-18322708D02*
X21651028Y-18656041D01*
X22127219Y-18894136D02*
X21127219Y-18894136D01*
X21127219Y-18894136D02*
X21127219Y-18513184D01*
X21127219Y-18513184D02*
X21174838Y-18417946D01*
X21174838Y-18417946D02*
X21222457Y-18370327D01*
X21222457Y-18370327D02*
X21317695Y-18322708D01*
X21317695Y-18322708D02*
X21460552Y-18322708D01*
X21460552Y-18322708D02*
X21555790Y-18370327D01*
X21555790Y-18370327D02*
X21603409Y-18417946D01*
X21603409Y-18417946D02*
X21651028Y-18513184D01*
X21651028Y-18513184D02*
X21651028Y-18894136D01*
X24727219Y-20370326D02*
X23727219Y-20370326D01*
X23727219Y-20370326D02*
X23727219Y-19989374D01*
X23727219Y-19989374D02*
X23774838Y-19894136D01*
X23774838Y-19894136D02*
X23822457Y-19846517D01*
X23822457Y-19846517D02*
X23917695Y-19798898D01*
X23917695Y-19798898D02*
X24060552Y-19798898D01*
X24060552Y-19798898D02*
X24155790Y-19846517D01*
X24155790Y-19846517D02*
X24203409Y-19894136D01*
X24203409Y-19894136D02*
X24251028Y-19989374D01*
X24251028Y-19989374D02*
X24251028Y-20370326D01*
X23727219Y-19465564D02*
X24727219Y-19227469D01*
X24727219Y-19227469D02*
X24012933Y-19036993D01*
X24012933Y-19036993D02*
X24727219Y-18846517D01*
X24727219Y-18846517D02*
X23727219Y-18608422D01*
X24727219Y-18227469D02*
X23727219Y-18227469D01*
X23727219Y-18227469D02*
X24441504Y-17894136D01*
X24441504Y-17894136D02*
X23727219Y-17560803D01*
X23727219Y-17560803D02*
X24727219Y-17560803D01*
X27179600Y-20417945D02*
X27227219Y-20275088D01*
X27227219Y-20275088D02*
X27227219Y-20036993D01*
X27227219Y-20036993D02*
X27179600Y-19941755D01*
X27179600Y-19941755D02*
X27131980Y-19894136D01*
X27131980Y-19894136D02*
X27036742Y-19846517D01*
X27036742Y-19846517D02*
X26941504Y-19846517D01*
X26941504Y-19846517D02*
X26846266Y-19894136D01*
X26846266Y-19894136D02*
X26798647Y-19941755D01*
X26798647Y-19941755D02*
X26751028Y-20036993D01*
X26751028Y-20036993D02*
X26703409Y-20227469D01*
X26703409Y-20227469D02*
X26655790Y-20322707D01*
X26655790Y-20322707D02*
X26608171Y-20370326D01*
X26608171Y-20370326D02*
X26512933Y-20417945D01*
X26512933Y-20417945D02*
X26417695Y-20417945D01*
X26417695Y-20417945D02*
X26322457Y-20370326D01*
X26322457Y-20370326D02*
X26274838Y-20322707D01*
X26274838Y-20322707D02*
X26227219Y-20227469D01*
X26227219Y-20227469D02*
X26227219Y-19989374D01*
X26227219Y-19989374D02*
X26274838Y-19846517D01*
X27227219Y-18941755D02*
X27227219Y-19417945D01*
X27227219Y-19417945D02*
X26227219Y-19417945D01*
X27227219Y-18608421D02*
X26227219Y-18608421D01*
X26227219Y-18608421D02*
X26227219Y-18227469D01*
X26227219Y-18227469D02*
X26274838Y-18132231D01*
X26274838Y-18132231D02*
X26322457Y-18084612D01*
X26322457Y-18084612D02*
X26417695Y-18036993D01*
X26417695Y-18036993D02*
X26560552Y-18036993D01*
X26560552Y-18036993D02*
X26655790Y-18084612D01*
X26655790Y-18084612D02*
X26703409Y-18132231D01*
X26703409Y-18132231D02*
X26751028Y-18227469D01*
X26751028Y-18227469D02*
X26751028Y-18608421D01*
X29303409Y-20036993D02*
X29303409Y-20370326D01*
X29827219Y-20370326D02*
X28827219Y-20370326D01*
X28827219Y-20370326D02*
X28827219Y-19894136D01*
X29827219Y-19036993D02*
X29827219Y-19513183D01*
X29827219Y-19513183D02*
X28827219Y-19513183D01*
X28827219Y-18846516D02*
X28827219Y-18275088D01*
X29827219Y-18560802D02*
X28827219Y-18560802D01*
X32231980Y-19798898D02*
X32279600Y-19846517D01*
X32279600Y-19846517D02*
X32327219Y-19989374D01*
X32327219Y-19989374D02*
X32327219Y-20084612D01*
X32327219Y-20084612D02*
X32279600Y-20227469D01*
X32279600Y-20227469D02*
X32184361Y-20322707D01*
X32184361Y-20322707D02*
X32089123Y-20370326D01*
X32089123Y-20370326D02*
X31898647Y-20417945D01*
X31898647Y-20417945D02*
X31755790Y-20417945D01*
X31755790Y-20417945D02*
X31565314Y-20370326D01*
X31565314Y-20370326D02*
X31470076Y-20322707D01*
X31470076Y-20322707D02*
X31374838Y-20227469D01*
X31374838Y-20227469D02*
X31327219Y-20084612D01*
X31327219Y-20084612D02*
X31327219Y-19989374D01*
X31327219Y-19989374D02*
X31374838Y-19846517D01*
X31374838Y-19846517D02*
X31422457Y-19798898D01*
X32279600Y-19417945D02*
X32327219Y-19275088D01*
X32327219Y-19275088D02*
X32327219Y-19036993D01*
X32327219Y-19036993D02*
X32279600Y-18941755D01*
X32279600Y-18941755D02*
X32231980Y-18894136D01*
X32231980Y-18894136D02*
X32136742Y-18846517D01*
X32136742Y-18846517D02*
X32041504Y-18846517D01*
X32041504Y-18846517D02*
X31946266Y-18894136D01*
X31946266Y-18894136D02*
X31898647Y-18941755D01*
X31898647Y-18941755D02*
X31851028Y-19036993D01*
X31851028Y-19036993D02*
X31803409Y-19227469D01*
X31803409Y-19227469D02*
X31755790Y-19322707D01*
X31755790Y-19322707D02*
X31708171Y-19370326D01*
X31708171Y-19370326D02*
X31612933Y-19417945D01*
X31612933Y-19417945D02*
X31517695Y-19417945D01*
X31517695Y-19417945D02*
X31422457Y-19370326D01*
X31422457Y-19370326D02*
X31374838Y-19322707D01*
X31374838Y-19322707D02*
X31327219Y-19227469D01*
X31327219Y-19227469D02*
X31327219Y-18989374D01*
X31327219Y-18989374D02*
X31374838Y-18846517D01*
X38586816Y-19307219D02*
X38920149Y-20307219D01*
X38920149Y-20307219D02*
X39253482Y-19307219D01*
X39348721Y-20402457D02*
X40110625Y-20402457D01*
X40301102Y-20259600D02*
X40443959Y-20307219D01*
X40443959Y-20307219D02*
X40682054Y-20307219D01*
X40682054Y-20307219D02*
X40777292Y-20259600D01*
X40777292Y-20259600D02*
X40824911Y-20211980D01*
X40824911Y-20211980D02*
X40872530Y-20116742D01*
X40872530Y-20116742D02*
X40872530Y-20021504D01*
X40872530Y-20021504D02*
X40824911Y-19926266D01*
X40824911Y-19926266D02*
X40777292Y-19878647D01*
X40777292Y-19878647D02*
X40682054Y-19831028D01*
X40682054Y-19831028D02*
X40491578Y-19783409D01*
X40491578Y-19783409D02*
X40396340Y-19735790D01*
X40396340Y-19735790D02*
X40348721Y-19688171D01*
X40348721Y-19688171D02*
X40301102Y-19592933D01*
X40301102Y-19592933D02*
X40301102Y-19497695D01*
X40301102Y-19497695D02*
X40348721Y-19402457D01*
X40348721Y-19402457D02*
X40396340Y-19354838D01*
X40396340Y-19354838D02*
X40491578Y-19307219D01*
X40491578Y-19307219D02*
X40729673Y-19307219D01*
X40729673Y-19307219D02*
X40872530Y-19354838D01*
X41301102Y-20307219D02*
X41301102Y-19307219D01*
X42301101Y-19354838D02*
X42205863Y-19307219D01*
X42205863Y-19307219D02*
X42063006Y-19307219D01*
X42063006Y-19307219D02*
X41920149Y-19354838D01*
X41920149Y-19354838D02*
X41824911Y-19450076D01*
X41824911Y-19450076D02*
X41777292Y-19545314D01*
X41777292Y-19545314D02*
X41729673Y-19735790D01*
X41729673Y-19735790D02*
X41729673Y-19878647D01*
X41729673Y-19878647D02*
X41777292Y-20069123D01*
X41777292Y-20069123D02*
X41824911Y-20164361D01*
X41824911Y-20164361D02*
X41920149Y-20259600D01*
X41920149Y-20259600D02*
X42063006Y-20307219D01*
X42063006Y-20307219D02*
X42158244Y-20307219D01*
X42158244Y-20307219D02*
X42301101Y-20259600D01*
X42301101Y-20259600D02*
X42348720Y-20211980D01*
X42348720Y-20211980D02*
X42348720Y-19878647D01*
X42348720Y-19878647D02*
X42158244Y-19878647D01*
X36427219Y-20413183D02*
X37427219Y-20079850D01*
X37427219Y-20079850D02*
X36427219Y-19746517D01*
X37331980Y-18841755D02*
X37379600Y-18889374D01*
X37379600Y-18889374D02*
X37427219Y-19032231D01*
X37427219Y-19032231D02*
X37427219Y-19127469D01*
X37427219Y-19127469D02*
X37379600Y-19270326D01*
X37379600Y-19270326D02*
X37284361Y-19365564D01*
X37284361Y-19365564D02*
X37189123Y-19413183D01*
X37189123Y-19413183D02*
X36998647Y-19460802D01*
X36998647Y-19460802D02*
X36855790Y-19460802D01*
X36855790Y-19460802D02*
X36665314Y-19413183D01*
X36665314Y-19413183D02*
X36570076Y-19365564D01*
X36570076Y-19365564D02*
X36474838Y-19270326D01*
X36474838Y-19270326D02*
X36427219Y-19127469D01*
X36427219Y-19127469D02*
X36427219Y-19032231D01*
X36427219Y-19032231D02*
X36474838Y-18889374D01*
X36474838Y-18889374D02*
X36522457Y-18841755D01*
X37331980Y-17841755D02*
X37379600Y-17889374D01*
X37379600Y-17889374D02*
X37427219Y-18032231D01*
X37427219Y-18032231D02*
X37427219Y-18127469D01*
X37427219Y-18127469D02*
X37379600Y-18270326D01*
X37379600Y-18270326D02*
X37284361Y-18365564D01*
X37284361Y-18365564D02*
X37189123Y-18413183D01*
X37189123Y-18413183D02*
X36998647Y-18460802D01*
X36998647Y-18460802D02*
X36855790Y-18460802D01*
X36855790Y-18460802D02*
X36665314Y-18413183D01*
X36665314Y-18413183D02*
X36570076Y-18365564D01*
X36570076Y-18365564D02*
X36474838Y-18270326D01*
X36474838Y-18270326D02*
X36427219Y-18127469D01*
X36427219Y-18127469D02*
X36427219Y-18032231D01*
X36427219Y-18032231D02*
X36474838Y-17889374D01*
X36474838Y-17889374D02*
X36522457Y-17841755D01*
X33927219Y-20413183D02*
X34927219Y-20079850D01*
X34927219Y-20079850D02*
X33927219Y-19746517D01*
X34831980Y-18841755D02*
X34879600Y-18889374D01*
X34879600Y-18889374D02*
X34927219Y-19032231D01*
X34927219Y-19032231D02*
X34927219Y-19127469D01*
X34927219Y-19127469D02*
X34879600Y-19270326D01*
X34879600Y-19270326D02*
X34784361Y-19365564D01*
X34784361Y-19365564D02*
X34689123Y-19413183D01*
X34689123Y-19413183D02*
X34498647Y-19460802D01*
X34498647Y-19460802D02*
X34355790Y-19460802D01*
X34355790Y-19460802D02*
X34165314Y-19413183D01*
X34165314Y-19413183D02*
X34070076Y-19365564D01*
X34070076Y-19365564D02*
X33974838Y-19270326D01*
X33974838Y-19270326D02*
X33927219Y-19127469D01*
X33927219Y-19127469D02*
X33927219Y-19032231D01*
X33927219Y-19032231D02*
X33974838Y-18889374D01*
X33974838Y-18889374D02*
X34022457Y-18841755D01*
X34831980Y-17841755D02*
X34879600Y-17889374D01*
X34879600Y-17889374D02*
X34927219Y-18032231D01*
X34927219Y-18032231D02*
X34927219Y-18127469D01*
X34927219Y-18127469D02*
X34879600Y-18270326D01*
X34879600Y-18270326D02*
X34784361Y-18365564D01*
X34784361Y-18365564D02*
X34689123Y-18413183D01*
X34689123Y-18413183D02*
X34498647Y-18460802D01*
X34498647Y-18460802D02*
X34355790Y-18460802D01*
X34355790Y-18460802D02*
X34165314Y-18413183D01*
X34165314Y-18413183D02*
X34070076Y-18365564D01*
X34070076Y-18365564D02*
X33974838Y-18270326D01*
X33974838Y-18270326D02*
X33927219Y-18127469D01*
X33927219Y-18127469D02*
X33927219Y-18032231D01*
X33927219Y-18032231D02*
X33974838Y-17889374D01*
X33974838Y-17889374D02*
X34022457Y-17841755D01*
X18674838Y-19846517D02*
X18627219Y-19941755D01*
X18627219Y-19941755D02*
X18627219Y-20084612D01*
X18627219Y-20084612D02*
X18674838Y-20227469D01*
X18674838Y-20227469D02*
X18770076Y-20322707D01*
X18770076Y-20322707D02*
X18865314Y-20370326D01*
X18865314Y-20370326D02*
X19055790Y-20417945D01*
X19055790Y-20417945D02*
X19198647Y-20417945D01*
X19198647Y-20417945D02*
X19389123Y-20370326D01*
X19389123Y-20370326D02*
X19484361Y-20322707D01*
X19484361Y-20322707D02*
X19579600Y-20227469D01*
X19579600Y-20227469D02*
X19627219Y-20084612D01*
X19627219Y-20084612D02*
X19627219Y-19989374D01*
X19627219Y-19989374D02*
X19579600Y-19846517D01*
X19579600Y-19846517D02*
X19531980Y-19798898D01*
X19531980Y-19798898D02*
X19198647Y-19798898D01*
X19198647Y-19798898D02*
X19198647Y-19989374D01*
X19627219Y-19370326D02*
X18627219Y-19370326D01*
X18627219Y-19370326D02*
X19627219Y-18798898D01*
X19627219Y-18798898D02*
X18627219Y-18798898D01*
X19627219Y-18322707D02*
X18627219Y-18322707D01*
X18627219Y-18322707D02*
X18627219Y-18084612D01*
X18627219Y-18084612D02*
X18674838Y-17941755D01*
X18674838Y-17941755D02*
X18770076Y-17846517D01*
X18770076Y-17846517D02*
X18865314Y-17798898D01*
X18865314Y-17798898D02*
X19055790Y-17751279D01*
X19055790Y-17751279D02*
X19198647Y-17751279D01*
X19198647Y-17751279D02*
X19389123Y-17798898D01*
X19389123Y-17798898D02*
X19484361Y-17846517D01*
X19484361Y-17846517D02*
X19579600Y-17941755D01*
X19579600Y-17941755D02*
X19627219Y-18084612D01*
X19627219Y-18084612D02*
X19627219Y-18322707D01*
X49327219Y-19746517D02*
X49327219Y-20317945D01*
X49327219Y-20032231D02*
X48327219Y-20032231D01*
X48327219Y-20032231D02*
X48470076Y-20127469D01*
X48470076Y-20127469D02*
X48565314Y-20222707D01*
X48565314Y-20222707D02*
X48612933Y-20317945D01*
X48422457Y-19365564D02*
X48374838Y-19317945D01*
X48374838Y-19317945D02*
X48327219Y-19222707D01*
X48327219Y-19222707D02*
X48327219Y-18984612D01*
X48327219Y-18984612D02*
X48374838Y-18889374D01*
X48374838Y-18889374D02*
X48422457Y-18841755D01*
X48422457Y-18841755D02*
X48517695Y-18794136D01*
X48517695Y-18794136D02*
X48612933Y-18794136D01*
X48612933Y-18794136D02*
X48755790Y-18841755D01*
X48755790Y-18841755D02*
X49327219Y-19413183D01*
X49327219Y-19413183D02*
X49327219Y-18794136D01*
X48327219Y-18508421D02*
X49327219Y-18175088D01*
X49327219Y-18175088D02*
X48327219Y-17841755D01*
X51727219Y-19746517D02*
X51727219Y-20317945D01*
X51727219Y-20032231D02*
X50727219Y-20032231D01*
X50727219Y-20032231D02*
X50870076Y-20127469D01*
X50870076Y-20127469D02*
X50965314Y-20222707D01*
X50965314Y-20222707D02*
X51012933Y-20317945D01*
X50822457Y-19365564D02*
X50774838Y-19317945D01*
X50774838Y-19317945D02*
X50727219Y-19222707D01*
X50727219Y-19222707D02*
X50727219Y-18984612D01*
X50727219Y-18984612D02*
X50774838Y-18889374D01*
X50774838Y-18889374D02*
X50822457Y-18841755D01*
X50822457Y-18841755D02*
X50917695Y-18794136D01*
X50917695Y-18794136D02*
X51012933Y-18794136D01*
X51012933Y-18794136D02*
X51155790Y-18841755D01*
X51155790Y-18841755D02*
X51727219Y-19413183D01*
X51727219Y-19413183D02*
X51727219Y-18794136D01*
X50727219Y-18508421D02*
X51727219Y-18175088D01*
X51727219Y-18175088D02*
X50727219Y-17841755D01*
X53427219Y-20179850D02*
X53427219Y-19989374D01*
X53427219Y-19989374D02*
X53474838Y-19894136D01*
X53474838Y-19894136D02*
X53570076Y-19798898D01*
X53570076Y-19798898D02*
X53760552Y-19751279D01*
X53760552Y-19751279D02*
X54093885Y-19751279D01*
X54093885Y-19751279D02*
X54284361Y-19798898D01*
X54284361Y-19798898D02*
X54379600Y-19894136D01*
X54379600Y-19894136D02*
X54427219Y-19989374D01*
X54427219Y-19989374D02*
X54427219Y-20179850D01*
X54427219Y-20179850D02*
X54379600Y-20275088D01*
X54379600Y-20275088D02*
X54284361Y-20370326D01*
X54284361Y-20370326D02*
X54093885Y-20417945D01*
X54093885Y-20417945D02*
X53760552Y-20417945D01*
X53760552Y-20417945D02*
X53570076Y-20370326D01*
X53570076Y-20370326D02*
X53474838Y-20275088D01*
X53474838Y-20275088D02*
X53427219Y-20179850D01*
X53427219Y-19322707D02*
X54236742Y-19322707D01*
X54236742Y-19322707D02*
X54331980Y-19275088D01*
X54331980Y-19275088D02*
X54379600Y-19227469D01*
X54379600Y-19227469D02*
X54427219Y-19132231D01*
X54427219Y-19132231D02*
X54427219Y-18941755D01*
X54427219Y-18941755D02*
X54379600Y-18846517D01*
X54379600Y-18846517D02*
X54331980Y-18798898D01*
X54331980Y-18798898D02*
X54236742Y-18751279D01*
X54236742Y-18751279D02*
X53427219Y-18751279D01*
X53427219Y-18417945D02*
X53427219Y-17846517D01*
X54427219Y-18132231D02*
X53427219Y-18132231D01*
X54141504Y-17560802D02*
X54141504Y-17084612D01*
X54427219Y-17656040D02*
X53427219Y-17322707D01*
X53427219Y-17322707D02*
X54427219Y-16989374D01*
X55827219Y-20179850D02*
X55827219Y-19989374D01*
X55827219Y-19989374D02*
X55874838Y-19894136D01*
X55874838Y-19894136D02*
X55970076Y-19798898D01*
X55970076Y-19798898D02*
X56160552Y-19751279D01*
X56160552Y-19751279D02*
X56493885Y-19751279D01*
X56493885Y-19751279D02*
X56684361Y-19798898D01*
X56684361Y-19798898D02*
X56779600Y-19894136D01*
X56779600Y-19894136D02*
X56827219Y-19989374D01*
X56827219Y-19989374D02*
X56827219Y-20179850D01*
X56827219Y-20179850D02*
X56779600Y-20275088D01*
X56779600Y-20275088D02*
X56684361Y-20370326D01*
X56684361Y-20370326D02*
X56493885Y-20417945D01*
X56493885Y-20417945D02*
X56160552Y-20417945D01*
X56160552Y-20417945D02*
X55970076Y-20370326D01*
X55970076Y-20370326D02*
X55874838Y-20275088D01*
X55874838Y-20275088D02*
X55827219Y-20179850D01*
X55827219Y-19322707D02*
X56636742Y-19322707D01*
X56636742Y-19322707D02*
X56731980Y-19275088D01*
X56731980Y-19275088D02*
X56779600Y-19227469D01*
X56779600Y-19227469D02*
X56827219Y-19132231D01*
X56827219Y-19132231D02*
X56827219Y-18941755D01*
X56827219Y-18941755D02*
X56779600Y-18846517D01*
X56779600Y-18846517D02*
X56731980Y-18798898D01*
X56731980Y-18798898D02*
X56636742Y-18751279D01*
X56636742Y-18751279D02*
X55827219Y-18751279D01*
X55827219Y-18417945D02*
X55827219Y-17846517D01*
X56827219Y-18132231D02*
X55827219Y-18132231D01*
X56541504Y-17560802D02*
X56541504Y-17084612D01*
X56827219Y-17656040D02*
X55827219Y-17322707D01*
X55827219Y-17322707D02*
X56827219Y-16989374D01*
X58427219Y-20179850D02*
X58427219Y-19989374D01*
X58427219Y-19989374D02*
X58474838Y-19894136D01*
X58474838Y-19894136D02*
X58570076Y-19798898D01*
X58570076Y-19798898D02*
X58760552Y-19751279D01*
X58760552Y-19751279D02*
X59093885Y-19751279D01*
X59093885Y-19751279D02*
X59284361Y-19798898D01*
X59284361Y-19798898D02*
X59379600Y-19894136D01*
X59379600Y-19894136D02*
X59427219Y-19989374D01*
X59427219Y-19989374D02*
X59427219Y-20179850D01*
X59427219Y-20179850D02*
X59379600Y-20275088D01*
X59379600Y-20275088D02*
X59284361Y-20370326D01*
X59284361Y-20370326D02*
X59093885Y-20417945D01*
X59093885Y-20417945D02*
X58760552Y-20417945D01*
X58760552Y-20417945D02*
X58570076Y-20370326D01*
X58570076Y-20370326D02*
X58474838Y-20275088D01*
X58474838Y-20275088D02*
X58427219Y-20179850D01*
X58427219Y-19322707D02*
X59236742Y-19322707D01*
X59236742Y-19322707D02*
X59331980Y-19275088D01*
X59331980Y-19275088D02*
X59379600Y-19227469D01*
X59379600Y-19227469D02*
X59427219Y-19132231D01*
X59427219Y-19132231D02*
X59427219Y-18941755D01*
X59427219Y-18941755D02*
X59379600Y-18846517D01*
X59379600Y-18846517D02*
X59331980Y-18798898D01*
X59331980Y-18798898D02*
X59236742Y-18751279D01*
X59236742Y-18751279D02*
X58427219Y-18751279D01*
X58427219Y-18417945D02*
X58427219Y-17846517D01*
X59427219Y-18132231D02*
X58427219Y-18132231D01*
X58903409Y-17179850D02*
X58951028Y-17036993D01*
X58951028Y-17036993D02*
X58998647Y-16989374D01*
X58998647Y-16989374D02*
X59093885Y-16941755D01*
X59093885Y-16941755D02*
X59236742Y-16941755D01*
X59236742Y-16941755D02*
X59331980Y-16989374D01*
X59331980Y-16989374D02*
X59379600Y-17036993D01*
X59379600Y-17036993D02*
X59427219Y-17132231D01*
X59427219Y-17132231D02*
X59427219Y-17513183D01*
X59427219Y-17513183D02*
X58427219Y-17513183D01*
X58427219Y-17513183D02*
X58427219Y-17179850D01*
X58427219Y-17179850D02*
X58474838Y-17084612D01*
X58474838Y-17084612D02*
X58522457Y-17036993D01*
X58522457Y-17036993D02*
X58617695Y-16989374D01*
X58617695Y-16989374D02*
X58712933Y-16989374D01*
X58712933Y-16989374D02*
X58808171Y-17036993D01*
X58808171Y-17036993D02*
X58855790Y-17084612D01*
X58855790Y-17084612D02*
X58903409Y-17179850D01*
X58903409Y-17179850D02*
X58903409Y-17513183D01*
X61027219Y-20179850D02*
X61027219Y-19989374D01*
X61027219Y-19989374D02*
X61074838Y-19894136D01*
X61074838Y-19894136D02*
X61170076Y-19798898D01*
X61170076Y-19798898D02*
X61360552Y-19751279D01*
X61360552Y-19751279D02*
X61693885Y-19751279D01*
X61693885Y-19751279D02*
X61884361Y-19798898D01*
X61884361Y-19798898D02*
X61979600Y-19894136D01*
X61979600Y-19894136D02*
X62027219Y-19989374D01*
X62027219Y-19989374D02*
X62027219Y-20179850D01*
X62027219Y-20179850D02*
X61979600Y-20275088D01*
X61979600Y-20275088D02*
X61884361Y-20370326D01*
X61884361Y-20370326D02*
X61693885Y-20417945D01*
X61693885Y-20417945D02*
X61360552Y-20417945D01*
X61360552Y-20417945D02*
X61170076Y-20370326D01*
X61170076Y-20370326D02*
X61074838Y-20275088D01*
X61074838Y-20275088D02*
X61027219Y-20179850D01*
X61027219Y-19322707D02*
X61836742Y-19322707D01*
X61836742Y-19322707D02*
X61931980Y-19275088D01*
X61931980Y-19275088D02*
X61979600Y-19227469D01*
X61979600Y-19227469D02*
X62027219Y-19132231D01*
X62027219Y-19132231D02*
X62027219Y-18941755D01*
X62027219Y-18941755D02*
X61979600Y-18846517D01*
X61979600Y-18846517D02*
X61931980Y-18798898D01*
X61931980Y-18798898D02*
X61836742Y-18751279D01*
X61836742Y-18751279D02*
X61027219Y-18751279D01*
X61027219Y-18417945D02*
X61027219Y-17846517D01*
X62027219Y-18132231D02*
X61027219Y-18132231D01*
X61503409Y-17179850D02*
X61551028Y-17036993D01*
X61551028Y-17036993D02*
X61598647Y-16989374D01*
X61598647Y-16989374D02*
X61693885Y-16941755D01*
X61693885Y-16941755D02*
X61836742Y-16941755D01*
X61836742Y-16941755D02*
X61931980Y-16989374D01*
X61931980Y-16989374D02*
X61979600Y-17036993D01*
X61979600Y-17036993D02*
X62027219Y-17132231D01*
X62027219Y-17132231D02*
X62027219Y-17513183D01*
X62027219Y-17513183D02*
X61027219Y-17513183D01*
X61027219Y-17513183D02*
X61027219Y-17179850D01*
X61027219Y-17179850D02*
X61074838Y-17084612D01*
X61074838Y-17084612D02*
X61122457Y-17036993D01*
X61122457Y-17036993D02*
X61217695Y-16989374D01*
X61217695Y-16989374D02*
X61312933Y-16989374D01*
X61312933Y-16989374D02*
X61408171Y-17036993D01*
X61408171Y-17036993D02*
X61455790Y-17084612D01*
X61455790Y-17084612D02*
X61503409Y-17179850D01*
X61503409Y-17179850D02*
X61503409Y-17513183D01*
X66154838Y-19846517D02*
X66107219Y-19941755D01*
X66107219Y-19941755D02*
X66107219Y-20084612D01*
X66107219Y-20084612D02*
X66154838Y-20227469D01*
X66154838Y-20227469D02*
X66250076Y-20322707D01*
X66250076Y-20322707D02*
X66345314Y-20370326D01*
X66345314Y-20370326D02*
X66535790Y-20417945D01*
X66535790Y-20417945D02*
X66678647Y-20417945D01*
X66678647Y-20417945D02*
X66869123Y-20370326D01*
X66869123Y-20370326D02*
X66964361Y-20322707D01*
X66964361Y-20322707D02*
X67059600Y-20227469D01*
X67059600Y-20227469D02*
X67107219Y-20084612D01*
X67107219Y-20084612D02*
X67107219Y-19989374D01*
X67107219Y-19989374D02*
X67059600Y-19846517D01*
X67059600Y-19846517D02*
X67011980Y-19798898D01*
X67011980Y-19798898D02*
X66678647Y-19798898D01*
X66678647Y-19798898D02*
X66678647Y-19989374D01*
X67107219Y-19370326D02*
X66107219Y-19370326D01*
X66107219Y-19370326D02*
X67107219Y-18798898D01*
X67107219Y-18798898D02*
X66107219Y-18798898D01*
X67107219Y-18322707D02*
X66107219Y-18322707D01*
X66107219Y-18322707D02*
X66107219Y-18084612D01*
X66107219Y-18084612D02*
X66154838Y-17941755D01*
X66154838Y-17941755D02*
X66250076Y-17846517D01*
X66250076Y-17846517D02*
X66345314Y-17798898D01*
X66345314Y-17798898D02*
X66535790Y-17751279D01*
X66535790Y-17751279D02*
X66678647Y-17751279D01*
X66678647Y-17751279D02*
X66869123Y-17798898D01*
X66869123Y-17798898D02*
X66964361Y-17846517D01*
X66964361Y-17846517D02*
X67059600Y-17941755D01*
X67059600Y-17941755D02*
X67107219Y-18084612D01*
X67107219Y-18084612D02*
X67107219Y-18322707D01*
X63574838Y-19846517D02*
X63527219Y-19941755D01*
X63527219Y-19941755D02*
X63527219Y-20084612D01*
X63527219Y-20084612D02*
X63574838Y-20227469D01*
X63574838Y-20227469D02*
X63670076Y-20322707D01*
X63670076Y-20322707D02*
X63765314Y-20370326D01*
X63765314Y-20370326D02*
X63955790Y-20417945D01*
X63955790Y-20417945D02*
X64098647Y-20417945D01*
X64098647Y-20417945D02*
X64289123Y-20370326D01*
X64289123Y-20370326D02*
X64384361Y-20322707D01*
X64384361Y-20322707D02*
X64479600Y-20227469D01*
X64479600Y-20227469D02*
X64527219Y-20084612D01*
X64527219Y-20084612D02*
X64527219Y-19989374D01*
X64527219Y-19989374D02*
X64479600Y-19846517D01*
X64479600Y-19846517D02*
X64431980Y-19798898D01*
X64431980Y-19798898D02*
X64098647Y-19798898D01*
X64098647Y-19798898D02*
X64098647Y-19989374D01*
X64527219Y-19370326D02*
X63527219Y-19370326D01*
X63527219Y-19370326D02*
X64527219Y-18798898D01*
X64527219Y-18798898D02*
X63527219Y-18798898D01*
X64527219Y-18322707D02*
X63527219Y-18322707D01*
X63527219Y-18322707D02*
X63527219Y-18084612D01*
X63527219Y-18084612D02*
X63574838Y-17941755D01*
X63574838Y-17941755D02*
X63670076Y-17846517D01*
X63670076Y-17846517D02*
X63765314Y-17798898D01*
X63765314Y-17798898D02*
X63955790Y-17751279D01*
X63955790Y-17751279D02*
X64098647Y-17751279D01*
X64098647Y-17751279D02*
X64289123Y-17798898D01*
X64289123Y-17798898D02*
X64384361Y-17846517D01*
X64384361Y-17846517D02*
X64479600Y-17941755D01*
X64479600Y-17941755D02*
X64527219Y-18084612D01*
X64527219Y-18084612D02*
X64527219Y-18322707D01*
X80799719Y-29779850D02*
X80799719Y-29589374D01*
X80799719Y-29589374D02*
X80847338Y-29494136D01*
X80847338Y-29494136D02*
X80942576Y-29398898D01*
X80942576Y-29398898D02*
X81133052Y-29351279D01*
X81133052Y-29351279D02*
X81466385Y-29351279D01*
X81466385Y-29351279D02*
X81656861Y-29398898D01*
X81656861Y-29398898D02*
X81752100Y-29494136D01*
X81752100Y-29494136D02*
X81799719Y-29589374D01*
X81799719Y-29589374D02*
X81799719Y-29779850D01*
X81799719Y-29779850D02*
X81752100Y-29875088D01*
X81752100Y-29875088D02*
X81656861Y-29970326D01*
X81656861Y-29970326D02*
X81466385Y-30017945D01*
X81466385Y-30017945D02*
X81133052Y-30017945D01*
X81133052Y-30017945D02*
X80942576Y-29970326D01*
X80942576Y-29970326D02*
X80847338Y-29875088D01*
X80847338Y-29875088D02*
X80799719Y-29779850D01*
X80799719Y-28922707D02*
X81609242Y-28922707D01*
X81609242Y-28922707D02*
X81704480Y-28875088D01*
X81704480Y-28875088D02*
X81752100Y-28827469D01*
X81752100Y-28827469D02*
X81799719Y-28732231D01*
X81799719Y-28732231D02*
X81799719Y-28541755D01*
X81799719Y-28541755D02*
X81752100Y-28446517D01*
X81752100Y-28446517D02*
X81704480Y-28398898D01*
X81704480Y-28398898D02*
X81609242Y-28351279D01*
X81609242Y-28351279D02*
X80799719Y-28351279D01*
X80799719Y-28017945D02*
X80799719Y-27446517D01*
X81799719Y-27732231D02*
X80799719Y-27732231D01*
X81514004Y-27160802D02*
X81514004Y-26684612D01*
X81799719Y-27256040D02*
X80799719Y-26922707D01*
X80799719Y-26922707D02*
X81799719Y-26589374D01*
X80799719Y-24479850D02*
X80799719Y-24289374D01*
X80799719Y-24289374D02*
X80847338Y-24194136D01*
X80847338Y-24194136D02*
X80942576Y-24098898D01*
X80942576Y-24098898D02*
X81133052Y-24051279D01*
X81133052Y-24051279D02*
X81466385Y-24051279D01*
X81466385Y-24051279D02*
X81656861Y-24098898D01*
X81656861Y-24098898D02*
X81752100Y-24194136D01*
X81752100Y-24194136D02*
X81799719Y-24289374D01*
X81799719Y-24289374D02*
X81799719Y-24479850D01*
X81799719Y-24479850D02*
X81752100Y-24575088D01*
X81752100Y-24575088D02*
X81656861Y-24670326D01*
X81656861Y-24670326D02*
X81466385Y-24717945D01*
X81466385Y-24717945D02*
X81133052Y-24717945D01*
X81133052Y-24717945D02*
X80942576Y-24670326D01*
X80942576Y-24670326D02*
X80847338Y-24575088D01*
X80847338Y-24575088D02*
X80799719Y-24479850D01*
X80799719Y-23622707D02*
X81609242Y-23622707D01*
X81609242Y-23622707D02*
X81704480Y-23575088D01*
X81704480Y-23575088D02*
X81752100Y-23527469D01*
X81752100Y-23527469D02*
X81799719Y-23432231D01*
X81799719Y-23432231D02*
X81799719Y-23241755D01*
X81799719Y-23241755D02*
X81752100Y-23146517D01*
X81752100Y-23146517D02*
X81704480Y-23098898D01*
X81704480Y-23098898D02*
X81609242Y-23051279D01*
X81609242Y-23051279D02*
X80799719Y-23051279D01*
X80799719Y-22717945D02*
X80799719Y-22146517D01*
X81799719Y-22432231D02*
X80799719Y-22432231D01*
X81275909Y-21479850D02*
X81323528Y-21336993D01*
X81323528Y-21336993D02*
X81371147Y-21289374D01*
X81371147Y-21289374D02*
X81466385Y-21241755D01*
X81466385Y-21241755D02*
X81609242Y-21241755D01*
X81609242Y-21241755D02*
X81704480Y-21289374D01*
X81704480Y-21289374D02*
X81752100Y-21336993D01*
X81752100Y-21336993D02*
X81799719Y-21432231D01*
X81799719Y-21432231D02*
X81799719Y-21813183D01*
X81799719Y-21813183D02*
X80799719Y-21813183D01*
X80799719Y-21813183D02*
X80799719Y-21479850D01*
X80799719Y-21479850D02*
X80847338Y-21384612D01*
X80847338Y-21384612D02*
X80894957Y-21336993D01*
X80894957Y-21336993D02*
X80990195Y-21289374D01*
X80990195Y-21289374D02*
X81085433Y-21289374D01*
X81085433Y-21289374D02*
X81180671Y-21336993D01*
X81180671Y-21336993D02*
X81228290Y-21384612D01*
X81228290Y-21384612D02*
X81275909Y-21479850D01*
X81275909Y-21479850D02*
X81275909Y-21813183D01*
X81327219Y-41846517D02*
X81327219Y-42417945D01*
X81327219Y-42132231D02*
X80327219Y-42132231D01*
X80327219Y-42132231D02*
X80470076Y-42227469D01*
X80470076Y-42227469D02*
X80565314Y-42322707D01*
X80565314Y-42322707D02*
X80612933Y-42417945D01*
X80422457Y-41465564D02*
X80374838Y-41417945D01*
X80374838Y-41417945D02*
X80327219Y-41322707D01*
X80327219Y-41322707D02*
X80327219Y-41084612D01*
X80327219Y-41084612D02*
X80374838Y-40989374D01*
X80374838Y-40989374D02*
X80422457Y-40941755D01*
X80422457Y-40941755D02*
X80517695Y-40894136D01*
X80517695Y-40894136D02*
X80612933Y-40894136D01*
X80612933Y-40894136D02*
X80755790Y-40941755D01*
X80755790Y-40941755D02*
X81327219Y-41513183D01*
X81327219Y-41513183D02*
X81327219Y-40894136D01*
X80327219Y-40608421D02*
X81327219Y-40275088D01*
X81327219Y-40275088D02*
X80327219Y-39941755D01*
X80747338Y-34846517D02*
X80699719Y-34941755D01*
X80699719Y-34941755D02*
X80699719Y-35084612D01*
X80699719Y-35084612D02*
X80747338Y-35227469D01*
X80747338Y-35227469D02*
X80842576Y-35322707D01*
X80842576Y-35322707D02*
X80937814Y-35370326D01*
X80937814Y-35370326D02*
X81128290Y-35417945D01*
X81128290Y-35417945D02*
X81271147Y-35417945D01*
X81271147Y-35417945D02*
X81461623Y-35370326D01*
X81461623Y-35370326D02*
X81556861Y-35322707D01*
X81556861Y-35322707D02*
X81652100Y-35227469D01*
X81652100Y-35227469D02*
X81699719Y-35084612D01*
X81699719Y-35084612D02*
X81699719Y-34989374D01*
X81699719Y-34989374D02*
X81652100Y-34846517D01*
X81652100Y-34846517D02*
X81604480Y-34798898D01*
X81604480Y-34798898D02*
X81271147Y-34798898D01*
X81271147Y-34798898D02*
X81271147Y-34989374D01*
X81699719Y-34370326D02*
X80699719Y-34370326D01*
X80699719Y-34370326D02*
X81699719Y-33798898D01*
X81699719Y-33798898D02*
X80699719Y-33798898D01*
X81699719Y-33322707D02*
X80699719Y-33322707D01*
X80699719Y-33322707D02*
X80699719Y-33084612D01*
X80699719Y-33084612D02*
X80747338Y-32941755D01*
X80747338Y-32941755D02*
X80842576Y-32846517D01*
X80842576Y-32846517D02*
X80937814Y-32798898D01*
X80937814Y-32798898D02*
X81128290Y-32751279D01*
X81128290Y-32751279D02*
X81271147Y-32751279D01*
X81271147Y-32751279D02*
X81461623Y-32798898D01*
X81461623Y-32798898D02*
X81556861Y-32846517D01*
X81556861Y-32846517D02*
X81652100Y-32941755D01*
X81652100Y-32941755D02*
X81699719Y-33084612D01*
X81699719Y-33084612D02*
X81699719Y-33322707D01*
X17745161Y-42333482D02*
X17792780Y-42238244D01*
X17792780Y-42238244D02*
X17792780Y-42095387D01*
X17792780Y-42095387D02*
X17745161Y-41952530D01*
X17745161Y-41952530D02*
X17649923Y-41857292D01*
X17649923Y-41857292D02*
X17554685Y-41809673D01*
X17554685Y-41809673D02*
X17364209Y-41762054D01*
X17364209Y-41762054D02*
X17221352Y-41762054D01*
X17221352Y-41762054D02*
X17030876Y-41809673D01*
X17030876Y-41809673D02*
X16935638Y-41857292D01*
X16935638Y-41857292D02*
X16840400Y-41952530D01*
X16840400Y-41952530D02*
X16792780Y-42095387D01*
X16792780Y-42095387D02*
X16792780Y-42190625D01*
X16792780Y-42190625D02*
X16840400Y-42333482D01*
X16840400Y-42333482D02*
X16888019Y-42381101D01*
X16888019Y-42381101D02*
X17221352Y-42381101D01*
X17221352Y-42381101D02*
X17221352Y-42190625D01*
X16792780Y-42809673D02*
X17792780Y-42809673D01*
X17792780Y-42809673D02*
X16792780Y-43381101D01*
X16792780Y-43381101D02*
X17792780Y-43381101D01*
X16792780Y-43857292D02*
X17792780Y-43857292D01*
X17792780Y-43857292D02*
X17792780Y-44095387D01*
X17792780Y-44095387D02*
X17745161Y-44238244D01*
X17745161Y-44238244D02*
X17649923Y-44333482D01*
X17649923Y-44333482D02*
X17554685Y-44381101D01*
X17554685Y-44381101D02*
X17364209Y-44428720D01*
X17364209Y-44428720D02*
X17221352Y-44428720D01*
X17221352Y-44428720D02*
X17030876Y-44381101D01*
X17030876Y-44381101D02*
X16935638Y-44333482D01*
X16935638Y-44333482D02*
X16840400Y-44238244D01*
X16840400Y-44238244D02*
X16792780Y-44095387D01*
X16792780Y-44095387D02*
X16792780Y-43857292D01*
X17792780Y-48766816D02*
X16792780Y-49100149D01*
X16792780Y-49100149D02*
X17792780Y-49433482D01*
X16888019Y-50338244D02*
X16840400Y-50290625D01*
X16840400Y-50290625D02*
X16792780Y-50147768D01*
X16792780Y-50147768D02*
X16792780Y-50052530D01*
X16792780Y-50052530D02*
X16840400Y-49909673D01*
X16840400Y-49909673D02*
X16935638Y-49814435D01*
X16935638Y-49814435D02*
X17030876Y-49766816D01*
X17030876Y-49766816D02*
X17221352Y-49719197D01*
X17221352Y-49719197D02*
X17364209Y-49719197D01*
X17364209Y-49719197D02*
X17554685Y-49766816D01*
X17554685Y-49766816D02*
X17649923Y-49814435D01*
X17649923Y-49814435D02*
X17745161Y-49909673D01*
X17745161Y-49909673D02*
X17792780Y-50052530D01*
X17792780Y-50052530D02*
X17792780Y-50147768D01*
X17792780Y-50147768D02*
X17745161Y-50290625D01*
X17745161Y-50290625D02*
X17697542Y-50338244D01*
X16888019Y-51338244D02*
X16840400Y-51290625D01*
X16840400Y-51290625D02*
X16792780Y-51147768D01*
X16792780Y-51147768D02*
X16792780Y-51052530D01*
X16792780Y-51052530D02*
X16840400Y-50909673D01*
X16840400Y-50909673D02*
X16935638Y-50814435D01*
X16935638Y-50814435D02*
X17030876Y-50766816D01*
X17030876Y-50766816D02*
X17221352Y-50719197D01*
X17221352Y-50719197D02*
X17364209Y-50719197D01*
X17364209Y-50719197D02*
X17554685Y-50766816D01*
X17554685Y-50766816D02*
X17649923Y-50814435D01*
X17649923Y-50814435D02*
X17745161Y-50909673D01*
X17745161Y-50909673D02*
X17792780Y-51052530D01*
X17792780Y-51052530D02*
X17792780Y-51147768D01*
X17792780Y-51147768D02*
X17745161Y-51290625D01*
X17745161Y-51290625D02*
X17697542Y-51338244D01*
D11*
X53166666Y-28334819D02*
X53166666Y-29049104D01*
X53166666Y-29049104D02*
X53119047Y-29191961D01*
X53119047Y-29191961D02*
X53023809Y-29287200D01*
X53023809Y-29287200D02*
X52880952Y-29334819D01*
X52880952Y-29334819D02*
X52785714Y-29334819D01*
X54166666Y-29334819D02*
X53595238Y-29334819D01*
X53880952Y-29334819D02*
X53880952Y-28334819D01*
X53880952Y-28334819D02*
X53785714Y-28477676D01*
X53785714Y-28477676D02*
X53690476Y-28572914D01*
X53690476Y-28572914D02*
X53595238Y-28620533D01*
D12*
X43568095Y-37407419D02*
X43568095Y-38216942D01*
X43568095Y-38216942D02*
X43615714Y-38312180D01*
X43615714Y-38312180D02*
X43663333Y-38359800D01*
X43663333Y-38359800D02*
X43758571Y-38407419D01*
X43758571Y-38407419D02*
X43949047Y-38407419D01*
X43949047Y-38407419D02*
X44044285Y-38359800D01*
X44044285Y-38359800D02*
X44091904Y-38312180D01*
X44091904Y-38312180D02*
X44139523Y-38216942D01*
X44139523Y-38216942D02*
X44139523Y-37407419D01*
X45139523Y-38407419D02*
X44568095Y-38407419D01*
X44853809Y-38407419D02*
X44853809Y-37407419D01*
X44853809Y-37407419D02*
X44758571Y-37550276D01*
X44758571Y-37550276D02*
X44663333Y-37645514D01*
X44663333Y-37645514D02*
X44568095Y-37693133D01*
D11*
X30193333Y-25894819D02*
X29860000Y-25418628D01*
X29621905Y-25894819D02*
X29621905Y-24894819D01*
X29621905Y-24894819D02*
X30002857Y-24894819D01*
X30002857Y-24894819D02*
X30098095Y-24942438D01*
X30098095Y-24942438D02*
X30145714Y-24990057D01*
X30145714Y-24990057D02*
X30193333Y-25085295D01*
X30193333Y-25085295D02*
X30193333Y-25228152D01*
X30193333Y-25228152D02*
X30145714Y-25323390D01*
X30145714Y-25323390D02*
X30098095Y-25371009D01*
X30098095Y-25371009D02*
X30002857Y-25418628D01*
X30002857Y-25418628D02*
X29621905Y-25418628D01*
X30574286Y-24990057D02*
X30621905Y-24942438D01*
X30621905Y-24942438D02*
X30717143Y-24894819D01*
X30717143Y-24894819D02*
X30955238Y-24894819D01*
X30955238Y-24894819D02*
X31050476Y-24942438D01*
X31050476Y-24942438D02*
X31098095Y-24990057D01*
X31098095Y-24990057D02*
X31145714Y-25085295D01*
X31145714Y-25085295D02*
X31145714Y-25180533D01*
X31145714Y-25180533D02*
X31098095Y-25323390D01*
X31098095Y-25323390D02*
X30526667Y-25894819D01*
X30526667Y-25894819D02*
X31145714Y-25894819D01*
X24514819Y-41306666D02*
X24038628Y-41639999D01*
X24514819Y-41878094D02*
X23514819Y-41878094D01*
X23514819Y-41878094D02*
X23514819Y-41497142D01*
X23514819Y-41497142D02*
X23562438Y-41401904D01*
X23562438Y-41401904D02*
X23610057Y-41354285D01*
X23610057Y-41354285D02*
X23705295Y-41306666D01*
X23705295Y-41306666D02*
X23848152Y-41306666D01*
X23848152Y-41306666D02*
X23943390Y-41354285D01*
X23943390Y-41354285D02*
X23991009Y-41401904D01*
X23991009Y-41401904D02*
X24038628Y-41497142D01*
X24038628Y-41497142D02*
X24038628Y-41878094D01*
X24514819Y-40354285D02*
X24514819Y-40925713D01*
X24514819Y-40639999D02*
X23514819Y-40639999D01*
X23514819Y-40639999D02*
X23657676Y-40735237D01*
X23657676Y-40735237D02*
X23752914Y-40830475D01*
X23752914Y-40830475D02*
X23800533Y-40925713D01*
X18526666Y-41294819D02*
X18526666Y-42009104D01*
X18526666Y-42009104D02*
X18479047Y-42151961D01*
X18479047Y-42151961D02*
X18383809Y-42247200D01*
X18383809Y-42247200D02*
X18240952Y-42294819D01*
X18240952Y-42294819D02*
X18145714Y-42294819D01*
X19050476Y-42294819D02*
X19240952Y-42294819D01*
X19240952Y-42294819D02*
X19336190Y-42247200D01*
X19336190Y-42247200D02*
X19383809Y-42199580D01*
X19383809Y-42199580D02*
X19479047Y-42056723D01*
X19479047Y-42056723D02*
X19526666Y-41866247D01*
X19526666Y-41866247D02*
X19526666Y-41485295D01*
X19526666Y-41485295D02*
X19479047Y-41390057D01*
X19479047Y-41390057D02*
X19431428Y-41342438D01*
X19431428Y-41342438D02*
X19336190Y-41294819D01*
X19336190Y-41294819D02*
X19145714Y-41294819D01*
X19145714Y-41294819D02*
X19050476Y-41342438D01*
X19050476Y-41342438D02*
X19002857Y-41390057D01*
X19002857Y-41390057D02*
X18955238Y-41485295D01*
X18955238Y-41485295D02*
X18955238Y-41723390D01*
X18955238Y-41723390D02*
X19002857Y-41818628D01*
X19002857Y-41818628D02*
X19050476Y-41866247D01*
X19050476Y-41866247D02*
X19145714Y-41913866D01*
X19145714Y-41913866D02*
X19336190Y-41913866D01*
X19336190Y-41913866D02*
X19431428Y-41866247D01*
X19431428Y-41866247D02*
X19479047Y-41818628D01*
X19479047Y-41818628D02*
X19526666Y-41723390D01*
X39226666Y-24294819D02*
X39226666Y-25009104D01*
X39226666Y-25009104D02*
X39179047Y-25151961D01*
X39179047Y-25151961D02*
X39083809Y-25247200D01*
X39083809Y-25247200D02*
X38940952Y-25294819D01*
X38940952Y-25294819D02*
X38845714Y-25294819D01*
X39845714Y-24723390D02*
X39750476Y-24675771D01*
X39750476Y-24675771D02*
X39702857Y-24628152D01*
X39702857Y-24628152D02*
X39655238Y-24532914D01*
X39655238Y-24532914D02*
X39655238Y-24485295D01*
X39655238Y-24485295D02*
X39702857Y-24390057D01*
X39702857Y-24390057D02*
X39750476Y-24342438D01*
X39750476Y-24342438D02*
X39845714Y-24294819D01*
X39845714Y-24294819D02*
X40036190Y-24294819D01*
X40036190Y-24294819D02*
X40131428Y-24342438D01*
X40131428Y-24342438D02*
X40179047Y-24390057D01*
X40179047Y-24390057D02*
X40226666Y-24485295D01*
X40226666Y-24485295D02*
X40226666Y-24532914D01*
X40226666Y-24532914D02*
X40179047Y-24628152D01*
X40179047Y-24628152D02*
X40131428Y-24675771D01*
X40131428Y-24675771D02*
X40036190Y-24723390D01*
X40036190Y-24723390D02*
X39845714Y-24723390D01*
X39845714Y-24723390D02*
X39750476Y-24771009D01*
X39750476Y-24771009D02*
X39702857Y-24818628D01*
X39702857Y-24818628D02*
X39655238Y-24913866D01*
X39655238Y-24913866D02*
X39655238Y-25104342D01*
X39655238Y-25104342D02*
X39702857Y-25199580D01*
X39702857Y-25199580D02*
X39750476Y-25247200D01*
X39750476Y-25247200D02*
X39845714Y-25294819D01*
X39845714Y-25294819D02*
X40036190Y-25294819D01*
X40036190Y-25294819D02*
X40131428Y-25247200D01*
X40131428Y-25247200D02*
X40179047Y-25199580D01*
X40179047Y-25199580D02*
X40226666Y-25104342D01*
X40226666Y-25104342D02*
X40226666Y-24913866D01*
X40226666Y-24913866D02*
X40179047Y-24818628D01*
X40179047Y-24818628D02*
X40131428Y-24771009D01*
X40131428Y-24771009D02*
X40036190Y-24723390D01*
X68587319Y-30573333D02*
X69301604Y-30573333D01*
X69301604Y-30573333D02*
X69444461Y-30620952D01*
X69444461Y-30620952D02*
X69539700Y-30716190D01*
X69539700Y-30716190D02*
X69587319Y-30859047D01*
X69587319Y-30859047D02*
X69587319Y-30954285D01*
X68587319Y-30192380D02*
X68587319Y-29525714D01*
X68587319Y-29525714D02*
X69587319Y-29954285D01*
X70126666Y-42794819D02*
X70126666Y-43509104D01*
X70126666Y-43509104D02*
X70079047Y-43651961D01*
X70079047Y-43651961D02*
X69983809Y-43747200D01*
X69983809Y-43747200D02*
X69840952Y-43794819D01*
X69840952Y-43794819D02*
X69745714Y-43794819D01*
X71031428Y-42794819D02*
X70840952Y-42794819D01*
X70840952Y-42794819D02*
X70745714Y-42842438D01*
X70745714Y-42842438D02*
X70698095Y-42890057D01*
X70698095Y-42890057D02*
X70602857Y-43032914D01*
X70602857Y-43032914D02*
X70555238Y-43223390D01*
X70555238Y-43223390D02*
X70555238Y-43604342D01*
X70555238Y-43604342D02*
X70602857Y-43699580D01*
X70602857Y-43699580D02*
X70650476Y-43747200D01*
X70650476Y-43747200D02*
X70745714Y-43794819D01*
X70745714Y-43794819D02*
X70936190Y-43794819D01*
X70936190Y-43794819D02*
X71031428Y-43747200D01*
X71031428Y-43747200D02*
X71079047Y-43699580D01*
X71079047Y-43699580D02*
X71126666Y-43604342D01*
X71126666Y-43604342D02*
X71126666Y-43366247D01*
X71126666Y-43366247D02*
X71079047Y-43271009D01*
X71079047Y-43271009D02*
X71031428Y-43223390D01*
X71031428Y-43223390D02*
X70936190Y-43175771D01*
X70936190Y-43175771D02*
X70745714Y-43175771D01*
X70745714Y-43175771D02*
X70650476Y-43223390D01*
X70650476Y-43223390D02*
X70602857Y-43271009D01*
X70602857Y-43271009D02*
X70555238Y-43366247D01*
X16514819Y-23273333D02*
X17229104Y-23273333D01*
X17229104Y-23273333D02*
X17371961Y-23320952D01*
X17371961Y-23320952D02*
X17467200Y-23416190D01*
X17467200Y-23416190D02*
X17514819Y-23559047D01*
X17514819Y-23559047D02*
X17514819Y-23654285D01*
X16514819Y-22320952D02*
X16514819Y-22797142D01*
X16514819Y-22797142D02*
X16991009Y-22844761D01*
X16991009Y-22844761D02*
X16943390Y-22797142D01*
X16943390Y-22797142D02*
X16895771Y-22701904D01*
X16895771Y-22701904D02*
X16895771Y-22463809D01*
X16895771Y-22463809D02*
X16943390Y-22368571D01*
X16943390Y-22368571D02*
X16991009Y-22320952D01*
X16991009Y-22320952D02*
X17086247Y-22273333D01*
X17086247Y-22273333D02*
X17324342Y-22273333D01*
X17324342Y-22273333D02*
X17419580Y-22320952D01*
X17419580Y-22320952D02*
X17467200Y-22368571D01*
X17467200Y-22368571D02*
X17514819Y-22463809D01*
X17514819Y-22463809D02*
X17514819Y-22701904D01*
X17514819Y-22701904D02*
X17467200Y-22797142D01*
X17467200Y-22797142D02*
X17419580Y-22844761D01*
X46214819Y-21873333D02*
X46929104Y-21873333D01*
X46929104Y-21873333D02*
X47071961Y-21920952D01*
X47071961Y-21920952D02*
X47167200Y-22016190D01*
X47167200Y-22016190D02*
X47214819Y-22159047D01*
X47214819Y-22159047D02*
X47214819Y-22254285D01*
X46548152Y-20968571D02*
X47214819Y-20968571D01*
X46167200Y-21206666D02*
X46881485Y-21444761D01*
X46881485Y-21444761D02*
X46881485Y-20825714D01*
X71814819Y-44273333D02*
X72529104Y-44273333D01*
X72529104Y-44273333D02*
X72671961Y-44320952D01*
X72671961Y-44320952D02*
X72767200Y-44416190D01*
X72767200Y-44416190D02*
X72814819Y-44559047D01*
X72814819Y-44559047D02*
X72814819Y-44654285D01*
X71814819Y-43892380D02*
X71814819Y-43273333D01*
X71814819Y-43273333D02*
X72195771Y-43606666D01*
X72195771Y-43606666D02*
X72195771Y-43463809D01*
X72195771Y-43463809D02*
X72243390Y-43368571D01*
X72243390Y-43368571D02*
X72291009Y-43320952D01*
X72291009Y-43320952D02*
X72386247Y-43273333D01*
X72386247Y-43273333D02*
X72624342Y-43273333D01*
X72624342Y-43273333D02*
X72719580Y-43320952D01*
X72719580Y-43320952D02*
X72767200Y-43368571D01*
X72767200Y-43368571D02*
X72814819Y-43463809D01*
X72814819Y-43463809D02*
X72814819Y-43749523D01*
X72814819Y-43749523D02*
X72767200Y-43844761D01*
X72767200Y-43844761D02*
X72719580Y-43892380D01*
X79374700Y-46411428D02*
X79374700Y-45268571D01*
X79946128Y-45839999D02*
X78803271Y-45839999D01*
X78788571Y-50954700D02*
X79931429Y-50954700D01*
X40486666Y-28334819D02*
X40486666Y-29049104D01*
X40486666Y-29049104D02*
X40439047Y-29191961D01*
X40439047Y-29191961D02*
X40343809Y-29287200D01*
X40343809Y-29287200D02*
X40200952Y-29334819D01*
X40200952Y-29334819D02*
X40105714Y-29334819D01*
X40915238Y-28430057D02*
X40962857Y-28382438D01*
X40962857Y-28382438D02*
X41058095Y-28334819D01*
X41058095Y-28334819D02*
X41296190Y-28334819D01*
X41296190Y-28334819D02*
X41391428Y-28382438D01*
X41391428Y-28382438D02*
X41439047Y-28430057D01*
X41439047Y-28430057D02*
X41486666Y-28525295D01*
X41486666Y-28525295D02*
X41486666Y-28620533D01*
X41486666Y-28620533D02*
X41439047Y-28763390D01*
X41439047Y-28763390D02*
X40867619Y-29334819D01*
X40867619Y-29334819D02*
X41486666Y-29334819D01*
X48493333Y-45699580D02*
X48445714Y-45747200D01*
X48445714Y-45747200D02*
X48302857Y-45794819D01*
X48302857Y-45794819D02*
X48207619Y-45794819D01*
X48207619Y-45794819D02*
X48064762Y-45747200D01*
X48064762Y-45747200D02*
X47969524Y-45651961D01*
X47969524Y-45651961D02*
X47921905Y-45556723D01*
X47921905Y-45556723D02*
X47874286Y-45366247D01*
X47874286Y-45366247D02*
X47874286Y-45223390D01*
X47874286Y-45223390D02*
X47921905Y-45032914D01*
X47921905Y-45032914D02*
X47969524Y-44937676D01*
X47969524Y-44937676D02*
X48064762Y-44842438D01*
X48064762Y-44842438D02*
X48207619Y-44794819D01*
X48207619Y-44794819D02*
X48302857Y-44794819D01*
X48302857Y-44794819D02*
X48445714Y-44842438D01*
X48445714Y-44842438D02*
X48493333Y-44890057D01*
X49350476Y-45128152D02*
X49350476Y-45794819D01*
X49112381Y-44747200D02*
X48874286Y-45461485D01*
X48874286Y-45461485D02*
X49493333Y-45461485D01*
X48493333Y-51379580D02*
X48445714Y-51427200D01*
X48445714Y-51427200D02*
X48302857Y-51474819D01*
X48302857Y-51474819D02*
X48207619Y-51474819D01*
X48207619Y-51474819D02*
X48064762Y-51427200D01*
X48064762Y-51427200D02*
X47969524Y-51331961D01*
X47969524Y-51331961D02*
X47921905Y-51236723D01*
X47921905Y-51236723D02*
X47874286Y-51046247D01*
X47874286Y-51046247D02*
X47874286Y-50903390D01*
X47874286Y-50903390D02*
X47921905Y-50712914D01*
X47921905Y-50712914D02*
X47969524Y-50617676D01*
X47969524Y-50617676D02*
X48064762Y-50522438D01*
X48064762Y-50522438D02*
X48207619Y-50474819D01*
X48207619Y-50474819D02*
X48302857Y-50474819D01*
X48302857Y-50474819D02*
X48445714Y-50522438D01*
X48445714Y-50522438D02*
X48493333Y-50570057D01*
X48826667Y-50474819D02*
X49445714Y-50474819D01*
X49445714Y-50474819D02*
X49112381Y-50855771D01*
X49112381Y-50855771D02*
X49255238Y-50855771D01*
X49255238Y-50855771D02*
X49350476Y-50903390D01*
X49350476Y-50903390D02*
X49398095Y-50951009D01*
X49398095Y-50951009D02*
X49445714Y-51046247D01*
X49445714Y-51046247D02*
X49445714Y-51284342D01*
X49445714Y-51284342D02*
X49398095Y-51379580D01*
X49398095Y-51379580D02*
X49350476Y-51427200D01*
X49350476Y-51427200D02*
X49255238Y-51474819D01*
X49255238Y-51474819D02*
X48969524Y-51474819D01*
X48969524Y-51474819D02*
X48874286Y-51427200D01*
X48874286Y-51427200D02*
X48826667Y-51379580D01*
X69393333Y-49199580D02*
X69345714Y-49247200D01*
X69345714Y-49247200D02*
X69202857Y-49294819D01*
X69202857Y-49294819D02*
X69107619Y-49294819D01*
X69107619Y-49294819D02*
X68964762Y-49247200D01*
X68964762Y-49247200D02*
X68869524Y-49151961D01*
X68869524Y-49151961D02*
X68821905Y-49056723D01*
X68821905Y-49056723D02*
X68774286Y-48866247D01*
X68774286Y-48866247D02*
X68774286Y-48723390D01*
X68774286Y-48723390D02*
X68821905Y-48532914D01*
X68821905Y-48532914D02*
X68869524Y-48437676D01*
X68869524Y-48437676D02*
X68964762Y-48342438D01*
X68964762Y-48342438D02*
X69107619Y-48294819D01*
X69107619Y-48294819D02*
X69202857Y-48294819D01*
X69202857Y-48294819D02*
X69345714Y-48342438D01*
X69345714Y-48342438D02*
X69393333Y-48390057D01*
X69774286Y-48390057D02*
X69821905Y-48342438D01*
X69821905Y-48342438D02*
X69917143Y-48294819D01*
X69917143Y-48294819D02*
X70155238Y-48294819D01*
X70155238Y-48294819D02*
X70250476Y-48342438D01*
X70250476Y-48342438D02*
X70298095Y-48390057D01*
X70298095Y-48390057D02*
X70345714Y-48485295D01*
X70345714Y-48485295D02*
X70345714Y-48580533D01*
X70345714Y-48580533D02*
X70298095Y-48723390D01*
X70298095Y-48723390D02*
X69726667Y-49294819D01*
X69726667Y-49294819D02*
X70345714Y-49294819D01*
X68993333Y-47199580D02*
X68945714Y-47247200D01*
X68945714Y-47247200D02*
X68802857Y-47294819D01*
X68802857Y-47294819D02*
X68707619Y-47294819D01*
X68707619Y-47294819D02*
X68564762Y-47247200D01*
X68564762Y-47247200D02*
X68469524Y-47151961D01*
X68469524Y-47151961D02*
X68421905Y-47056723D01*
X68421905Y-47056723D02*
X68374286Y-46866247D01*
X68374286Y-46866247D02*
X68374286Y-46723390D01*
X68374286Y-46723390D02*
X68421905Y-46532914D01*
X68421905Y-46532914D02*
X68469524Y-46437676D01*
X68469524Y-46437676D02*
X68564762Y-46342438D01*
X68564762Y-46342438D02*
X68707619Y-46294819D01*
X68707619Y-46294819D02*
X68802857Y-46294819D01*
X68802857Y-46294819D02*
X68945714Y-46342438D01*
X68945714Y-46342438D02*
X68993333Y-46390057D01*
X69945714Y-47294819D02*
X69374286Y-47294819D01*
X69660000Y-47294819D02*
X69660000Y-46294819D01*
X69660000Y-46294819D02*
X69564762Y-46437676D01*
X69564762Y-46437676D02*
X69469524Y-46532914D01*
X69469524Y-46532914D02*
X69374286Y-46580533D01*
D13*
%TO.C,J1*%
X54880000Y-32530000D02*
X54880000Y-50420000D01*
X52120000Y-50420000D02*
X54880000Y-50420000D01*
X52120000Y-32530000D02*
X54880000Y-32530000D01*
X52120000Y-32530000D02*
X52120000Y-50420000D01*
X52120000Y-31260000D02*
X52120000Y-29880000D01*
X52120000Y-29880000D02*
X53500000Y-29880000D01*
%TO.C,U1*%
X59910000Y-32530000D02*
X59910000Y-50370000D01*
X57250000Y-50370000D02*
X59910000Y-50370000D01*
X57250000Y-32530000D02*
X59910000Y-32530000D01*
X57250000Y-32530000D02*
X57250000Y-50370000D01*
X57250000Y-31260000D02*
X57250000Y-29930000D01*
X57250000Y-29930000D02*
X58580000Y-29930000D01*
X37030000Y-32530000D02*
X37030000Y-29950000D01*
X31990000Y-32530000D02*
X31990000Y-50370000D01*
X29330000Y-50370000D02*
X31990000Y-50370000D01*
X29330000Y-32530000D02*
X37030000Y-32530000D01*
X29330000Y-32530000D02*
X29330000Y-50370000D01*
X29330000Y-31260000D02*
X29330000Y-29930000D01*
X29330000Y-29930000D02*
X37030000Y-29950000D01*
%TO.C,R2*%
X34305000Y-27540000D02*
X31695000Y-27540000D01*
X37045000Y-27540000D02*
G75*
G02*
X34305000Y-27540000I-1370000J0D01*
G01*
X34305000Y-27540000D02*
G75*
G02*
X37045000Y-27540000I1370000J0D01*
G01*
%TO.C,R1*%
X26232936Y-40305000D02*
X26687064Y-40305000D01*
X26232936Y-41775000D02*
X26687064Y-41775000D01*
%TO.C,J9*%
X28207500Y-42520000D02*
X28207500Y-52760000D01*
X25187500Y-42520000D02*
X25187500Y-52760000D01*
X20287500Y-42520000D02*
X20287500Y-52760000D01*
X18787500Y-42520000D02*
X18787500Y-52760000D01*
X18167500Y-42520000D02*
X28207500Y-42520000D01*
X18167500Y-44840000D02*
X18167500Y-42520000D01*
X28207500Y-52760000D02*
X18167500Y-52760000D01*
X18167500Y-52760000D02*
X18167500Y-45440000D01*
X18167500Y-45140000D02*
X17557500Y-45580000D01*
X17557500Y-44700000D01*
X18167500Y-45140000D01*
G36*
X18167500Y-45140000D02*
G01*
X17557500Y-45580000D01*
X17557500Y-44700000D01*
X18167500Y-45140000D01*
G37*
%TO.C,J8*%
X39180000Y-20960000D02*
X40560000Y-20960000D01*
X39180000Y-22340000D02*
X39180000Y-20960000D01*
X39180000Y-23610000D02*
X39180000Y-23720000D01*
X39180000Y-23610000D02*
X41940000Y-23610000D01*
X39180000Y-23720000D02*
X41940000Y-23720000D01*
X41940000Y-23610000D02*
X41940000Y-23720000D01*
%TO.C,J7*%
X69912500Y-30960000D02*
X69912500Y-20720000D01*
X72932500Y-30960000D02*
X72932500Y-20720000D01*
X77832500Y-30960000D02*
X77832500Y-20720000D01*
X79332500Y-30960000D02*
X79332500Y-20720000D01*
X79952500Y-30960000D02*
X69912500Y-30960000D01*
X79952500Y-28640000D02*
X79952500Y-30960000D01*
X69912500Y-20720000D02*
X79952500Y-20720000D01*
X79952500Y-20720000D02*
X79952500Y-28040000D01*
X80562500Y-28780000D02*
X79952500Y-28340000D01*
X80562500Y-27900000D01*
X80562500Y-28780000D01*
G36*
X80562500Y-28780000D02*
G01*
X79952500Y-28340000D01*
X80562500Y-27900000D01*
X80562500Y-28780000D01*
G37*
%TO.C,J6*%
X69912500Y-41960000D02*
X69912500Y-31720000D01*
X72932500Y-41960000D02*
X72932500Y-31720000D01*
X77832500Y-41960000D02*
X77832500Y-31720000D01*
X79332500Y-41960000D02*
X79332500Y-31720000D01*
X79952500Y-41960000D02*
X69912500Y-41960000D01*
X79952500Y-39640000D02*
X79952500Y-41960000D01*
X69912500Y-31720000D02*
X79952500Y-31720000D01*
X79952500Y-31720000D02*
X79952500Y-39040000D01*
X80562500Y-39780000D02*
X79952500Y-39340000D01*
X80562500Y-38900000D01*
X80562500Y-39780000D01*
G36*
X80562500Y-39780000D02*
G01*
X79952500Y-39340000D01*
X80562500Y-38900000D01*
X80562500Y-39780000D01*
G37*
%TO.C,J5*%
X17740000Y-23720000D02*
X17740000Y-22340000D01*
X19120000Y-23720000D02*
X17740000Y-23720000D01*
X20390000Y-23720000D02*
X38280000Y-23720000D01*
X20390000Y-23720000D02*
X20390000Y-20960000D01*
X38280000Y-23720000D02*
X38280000Y-20960000D01*
X20390000Y-20960000D02*
X38280000Y-20960000D01*
%TO.C,J4*%
X67930000Y-20960000D02*
X67930000Y-22340000D01*
X66550000Y-20960000D02*
X67930000Y-20960000D01*
X65280000Y-20960000D02*
X47390000Y-20960000D01*
X65280000Y-20960000D02*
X65280000Y-23720000D01*
X47390000Y-20960000D02*
X47390000Y-23720000D01*
X65280000Y-23720000D02*
X47390000Y-23720000D01*
%TO.C,J3*%
X74450000Y-53750000D02*
X77270000Y-53750000D01*
X74450000Y-53750000D02*
X73150000Y-52050000D01*
X77270000Y-53750000D02*
X78570000Y-52050000D01*
X73150000Y-52050000D02*
X73150000Y-43330000D01*
X78570000Y-52050000D02*
X78570000Y-43330000D01*
X73150000Y-43330000D02*
X78570000Y-43330000D01*
%TO.C,J2*%
X39440000Y-29880000D02*
X40820000Y-29880000D01*
X39440000Y-31260000D02*
X39440000Y-29880000D01*
X39440000Y-32530000D02*
X39440000Y-50420000D01*
X39440000Y-32530000D02*
X42200000Y-32530000D01*
X39440000Y-50420000D02*
X42200000Y-50420000D01*
X42200000Y-32530000D02*
X42200000Y-50420000D01*
%TO.C,C4*%
X49921252Y-48075000D02*
X49398748Y-48075000D01*
X49921252Y-46605000D02*
X49398748Y-46605000D01*
%TO.C,C3*%
X49921252Y-50075000D02*
X49398748Y-50075000D01*
X49921252Y-48605000D02*
X49398748Y-48605000D01*
%TO.C,C2*%
X67499000Y-47689759D02*
X67499000Y-48319759D01*
X67814000Y-48004759D02*
X67184000Y-48004759D01*
X68890000Y-51190000D02*
X62430000Y-51190000D01*
X68890000Y-51230000D02*
X62430000Y-51230000D01*
X68889000Y-51270000D02*
X62431000Y-51270000D01*
X68888000Y-51310000D02*
X62432000Y-51310000D01*
X68886000Y-51350000D02*
X62434000Y-51350000D01*
X68884000Y-51390000D02*
X62436000Y-51390000D01*
X68881000Y-51430000D02*
X66700000Y-51430000D01*
X64620000Y-51430000D02*
X62439000Y-51430000D01*
X68878000Y-51470000D02*
X66700000Y-51470000D01*
X64620000Y-51470000D02*
X62442000Y-51470000D01*
X68874000Y-51510000D02*
X66700000Y-51510000D01*
X64620000Y-51510000D02*
X62446000Y-51510000D01*
X68870000Y-51550000D02*
X66700000Y-51550000D01*
X64620000Y-51550000D02*
X62450000Y-51550000D01*
X68865000Y-51590000D02*
X66700000Y-51590000D01*
X64620000Y-51590000D02*
X62455000Y-51590000D01*
X68860000Y-51630000D02*
X66700000Y-51630000D01*
X64620000Y-51630000D02*
X62460000Y-51630000D01*
X68855000Y-51670000D02*
X66700000Y-51670000D01*
X64620000Y-51670000D02*
X62465000Y-51670000D01*
X68848000Y-51710000D02*
X66700000Y-51710000D01*
X64620000Y-51710000D02*
X62472000Y-51710000D01*
X68842000Y-51750000D02*
X66700000Y-51750000D01*
X64620000Y-51750000D02*
X62478000Y-51750000D01*
X68834000Y-51790000D02*
X66700000Y-51790000D01*
X64620000Y-51790000D02*
X62486000Y-51790000D01*
X68827000Y-51830000D02*
X66700000Y-51830000D01*
X64620000Y-51830000D02*
X62493000Y-51830000D01*
X68819000Y-51870000D02*
X66700000Y-51870000D01*
X64620000Y-51870000D02*
X62501000Y-51870000D01*
X68810000Y-51910000D02*
X66700000Y-51910000D01*
X64620000Y-51910000D02*
X62510000Y-51910000D01*
X68800000Y-51950000D02*
X66700000Y-51950000D01*
X64620000Y-51950000D02*
X62520000Y-51950000D01*
X68791000Y-51990000D02*
X66700000Y-51990000D01*
X64620000Y-51990000D02*
X62529000Y-51990000D01*
X68780000Y-52030000D02*
X66700000Y-52030000D01*
X64620000Y-52030000D02*
X62540000Y-52030000D01*
X68769000Y-52070000D02*
X66700000Y-52070000D01*
X64620000Y-52070000D02*
X62551000Y-52070000D01*
X68758000Y-52110000D02*
X66700000Y-52110000D01*
X64620000Y-52110000D02*
X62562000Y-52110000D01*
X68746000Y-52150000D02*
X66700000Y-52150000D01*
X64620000Y-52150000D02*
X62574000Y-52150000D01*
X68733000Y-52190000D02*
X66700000Y-52190000D01*
X64620000Y-52190000D02*
X62587000Y-52190000D01*
X68720000Y-52230000D02*
X66700000Y-52230000D01*
X64620000Y-52230000D02*
X62600000Y-52230000D01*
X68707000Y-52270000D02*
X66700000Y-52270000D01*
X64620000Y-52270000D02*
X62613000Y-52270000D01*
X68692000Y-52310000D02*
X66700000Y-52310000D01*
X64620000Y-52310000D02*
X62628000Y-52310000D01*
X68677000Y-52350000D02*
X66700000Y-52350000D01*
X64620000Y-52350000D02*
X62643000Y-52350000D01*
X68662000Y-52390000D02*
X66700000Y-52390000D01*
X64620000Y-52390000D02*
X62658000Y-52390000D01*
X68646000Y-52430000D02*
X66700000Y-52430000D01*
X64620000Y-52430000D02*
X62674000Y-52430000D01*
X68629000Y-52470000D02*
X66700000Y-52470000D01*
X64620000Y-52470000D02*
X62691000Y-52470000D01*
X68612000Y-52510000D02*
X66700000Y-52510000D01*
X64620000Y-52510000D02*
X62708000Y-52510000D01*
X68594000Y-52550000D02*
X66700000Y-52550000D01*
X64620000Y-52550000D02*
X62726000Y-52550000D01*
X68575000Y-52590000D02*
X66700000Y-52590000D01*
X64620000Y-52590000D02*
X62745000Y-52590000D01*
X68556000Y-52630000D02*
X66700000Y-52630000D01*
X64620000Y-52630000D02*
X62764000Y-52630000D01*
X68536000Y-52670000D02*
X66700000Y-52670000D01*
X64620000Y-52670000D02*
X62784000Y-52670000D01*
X68515000Y-52710000D02*
X66700000Y-52710000D01*
X64620000Y-52710000D02*
X62805000Y-52710000D01*
X68494000Y-52750000D02*
X66700000Y-52750000D01*
X64620000Y-52750000D02*
X62826000Y-52750000D01*
X68472000Y-52790000D02*
X66700000Y-52790000D01*
X64620000Y-52790000D02*
X62848000Y-52790000D01*
X68449000Y-52830000D02*
X66700000Y-52830000D01*
X64620000Y-52830000D02*
X62871000Y-52830000D01*
X68425000Y-52870000D02*
X66700000Y-52870000D01*
X64620000Y-52870000D02*
X62895000Y-52870000D01*
X68401000Y-52910000D02*
X66700000Y-52910000D01*
X64620000Y-52910000D02*
X62919000Y-52910000D01*
X68376000Y-52950000D02*
X66700000Y-52950000D01*
X64620000Y-52950000D02*
X62944000Y-52950000D01*
X68350000Y-52990000D02*
X66700000Y-52990000D01*
X64620000Y-52990000D02*
X62970000Y-52990000D01*
X68323000Y-53030000D02*
X66700000Y-53030000D01*
X64620000Y-53030000D02*
X62997000Y-53030000D01*
X68296000Y-53070000D02*
X66700000Y-53070000D01*
X64620000Y-53070000D02*
X63024000Y-53070000D01*
X68267000Y-53110000D02*
X66700000Y-53110000D01*
X64620000Y-53110000D02*
X63053000Y-53110000D01*
X68237000Y-53150000D02*
X66700000Y-53150000D01*
X64620000Y-53150000D02*
X63083000Y-53150000D01*
X68207000Y-53190000D02*
X66700000Y-53190000D01*
X64620000Y-53190000D02*
X63113000Y-53190000D01*
X68176000Y-53230000D02*
X66700000Y-53230000D01*
X64620000Y-53230000D02*
X63144000Y-53230000D01*
X68143000Y-53270000D02*
X66700000Y-53270000D01*
X64620000Y-53270000D02*
X63177000Y-53270000D01*
X68110000Y-53310000D02*
X66700000Y-53310000D01*
X64620000Y-53310000D02*
X63210000Y-53310000D01*
X68075000Y-53350000D02*
X66700000Y-53350000D01*
X64620000Y-53350000D02*
X63245000Y-53350000D01*
X68039000Y-53390000D02*
X66700000Y-53390000D01*
X64620000Y-53390000D02*
X63281000Y-53390000D01*
X68002000Y-53430000D02*
X66700000Y-53430000D01*
X64620000Y-53430000D02*
X63318000Y-53430000D01*
X67964000Y-53470000D02*
X66700000Y-53470000D01*
X64620000Y-53470000D02*
X63356000Y-53470000D01*
X67924000Y-53510000D02*
X63396000Y-53510000D01*
X67883000Y-53550000D02*
X63437000Y-53550000D01*
X67841000Y-53590000D02*
X63479000Y-53590000D01*
X67797000Y-53630000D02*
X63523000Y-53630000D01*
X67751000Y-53670000D02*
X63569000Y-53670000D01*
X67704000Y-53710000D02*
X63616000Y-53710000D01*
X67655000Y-53750000D02*
X63665000Y-53750000D01*
X67603000Y-53790000D02*
X63717000Y-53790000D01*
X67550000Y-53830000D02*
X63770000Y-53830000D01*
X67494000Y-53870000D02*
X63826000Y-53870000D01*
X67435000Y-53910000D02*
X63885000Y-53910000D01*
X67374000Y-53950000D02*
X63946000Y-53950000D01*
X67309000Y-53990000D02*
X64011000Y-53990000D01*
X67241000Y-54030000D02*
X64079000Y-54030000D01*
X67169000Y-54070000D02*
X64151000Y-54070000D01*
X67092000Y-54110000D02*
X64228000Y-54110000D01*
X67010000Y-54150000D02*
X64310000Y-54150000D01*
X66921000Y-54190000D02*
X64399000Y-54190000D01*
X66825000Y-54230000D02*
X64495000Y-54230000D01*
X66718000Y-54270000D02*
X64602000Y-54270000D01*
X66599000Y-54310000D02*
X64721000Y-54310000D01*
X66461000Y-54350000D02*
X64859000Y-54350000D01*
X66293000Y-54390000D02*
X65027000Y-54390000D01*
X66062000Y-54430000D02*
X65258000Y-54430000D01*
X68930000Y-51190000D02*
G75*
G02*
X62390000Y-51190000I-3270000J0D01*
G01*
X62390000Y-51190000D02*
G75*
G02*
X68930000Y-51190000I3270000J0D01*
G01*
%TO.C,C1*%
X63821000Y-47690241D02*
X63821000Y-47060241D01*
X63506000Y-47375241D02*
X64136000Y-47375241D01*
X62430000Y-44190000D02*
X68890000Y-44190000D01*
X62430000Y-44150000D02*
X68890000Y-44150000D01*
X62431000Y-44110000D02*
X68889000Y-44110000D01*
X62432000Y-44070000D02*
X68888000Y-44070000D01*
X62434000Y-44030000D02*
X68886000Y-44030000D01*
X62436000Y-43990000D02*
X68884000Y-43990000D01*
X62439000Y-43950000D02*
X64620000Y-43950000D01*
X66700000Y-43950000D02*
X68881000Y-43950000D01*
X62442000Y-43910000D02*
X64620000Y-43910000D01*
X66700000Y-43910000D02*
X68878000Y-43910000D01*
X62446000Y-43870000D02*
X64620000Y-43870000D01*
X66700000Y-43870000D02*
X68874000Y-43870000D01*
X62450000Y-43830000D02*
X64620000Y-43830000D01*
X66700000Y-43830000D02*
X68870000Y-43830000D01*
X62455000Y-43790000D02*
X64620000Y-43790000D01*
X66700000Y-43790000D02*
X68865000Y-43790000D01*
X62460000Y-43750000D02*
X64620000Y-43750000D01*
X66700000Y-43750000D02*
X68860000Y-43750000D01*
X62465000Y-43710000D02*
X64620000Y-43710000D01*
X66700000Y-43710000D02*
X68855000Y-43710000D01*
X62472000Y-43670000D02*
X64620000Y-43670000D01*
X66700000Y-43670000D02*
X68848000Y-43670000D01*
X62478000Y-43630000D02*
X64620000Y-43630000D01*
X66700000Y-43630000D02*
X68842000Y-43630000D01*
X62486000Y-43590000D02*
X64620000Y-43590000D01*
X66700000Y-43590000D02*
X68834000Y-43590000D01*
X62493000Y-43550000D02*
X64620000Y-43550000D01*
X66700000Y-43550000D02*
X68827000Y-43550000D01*
X62501000Y-43510000D02*
X64620000Y-43510000D01*
X66700000Y-43510000D02*
X68819000Y-43510000D01*
X62510000Y-43470000D02*
X64620000Y-43470000D01*
X66700000Y-43470000D02*
X68810000Y-43470000D01*
X62520000Y-43430000D02*
X64620000Y-43430000D01*
X66700000Y-43430000D02*
X68800000Y-43430000D01*
X62529000Y-43390000D02*
X64620000Y-43390000D01*
X66700000Y-43390000D02*
X68791000Y-43390000D01*
X62540000Y-43350000D02*
X64620000Y-43350000D01*
X66700000Y-43350000D02*
X68780000Y-43350000D01*
X62551000Y-43310000D02*
X64620000Y-43310000D01*
X66700000Y-43310000D02*
X68769000Y-43310000D01*
X62562000Y-43270000D02*
X64620000Y-43270000D01*
X66700000Y-43270000D02*
X68758000Y-43270000D01*
X62574000Y-43230000D02*
X64620000Y-43230000D01*
X66700000Y-43230000D02*
X68746000Y-43230000D01*
X62587000Y-43190000D02*
X64620000Y-43190000D01*
X66700000Y-43190000D02*
X68733000Y-43190000D01*
X62600000Y-43150000D02*
X64620000Y-43150000D01*
X66700000Y-43150000D02*
X68720000Y-43150000D01*
X62613000Y-43110000D02*
X64620000Y-43110000D01*
X66700000Y-43110000D02*
X68707000Y-43110000D01*
X62628000Y-43070000D02*
X64620000Y-43070000D01*
X66700000Y-43070000D02*
X68692000Y-43070000D01*
X62643000Y-43030000D02*
X64620000Y-43030000D01*
X66700000Y-43030000D02*
X68677000Y-43030000D01*
X62658000Y-42990000D02*
X64620000Y-42990000D01*
X66700000Y-42990000D02*
X68662000Y-42990000D01*
X62674000Y-42950000D02*
X64620000Y-42950000D01*
X66700000Y-42950000D02*
X68646000Y-42950000D01*
X62691000Y-42910000D02*
X64620000Y-42910000D01*
X66700000Y-42910000D02*
X68629000Y-42910000D01*
X62708000Y-42870000D02*
X64620000Y-42870000D01*
X66700000Y-42870000D02*
X68612000Y-42870000D01*
X62726000Y-42830000D02*
X64620000Y-42830000D01*
X66700000Y-42830000D02*
X68594000Y-42830000D01*
X62745000Y-42790000D02*
X64620000Y-42790000D01*
X66700000Y-42790000D02*
X68575000Y-42790000D01*
X62764000Y-42750000D02*
X64620000Y-42750000D01*
X66700000Y-42750000D02*
X68556000Y-42750000D01*
X62784000Y-42710000D02*
X64620000Y-42710000D01*
X66700000Y-42710000D02*
X68536000Y-42710000D01*
X62805000Y-42670000D02*
X64620000Y-42670000D01*
X66700000Y-42670000D02*
X68515000Y-42670000D01*
X62826000Y-42630000D02*
X64620000Y-42630000D01*
X66700000Y-42630000D02*
X68494000Y-42630000D01*
X62848000Y-42590000D02*
X64620000Y-42590000D01*
X66700000Y-42590000D02*
X68472000Y-42590000D01*
X62871000Y-42550000D02*
X64620000Y-42550000D01*
X66700000Y-42550000D02*
X68449000Y-42550000D01*
X62895000Y-42510000D02*
X64620000Y-42510000D01*
X66700000Y-42510000D02*
X68425000Y-42510000D01*
X62919000Y-42470000D02*
X64620000Y-42470000D01*
X66700000Y-42470000D02*
X68401000Y-42470000D01*
X62944000Y-42430000D02*
X64620000Y-42430000D01*
X66700000Y-42430000D02*
X68376000Y-42430000D01*
X62970000Y-42390000D02*
X64620000Y-42390000D01*
X66700000Y-42390000D02*
X68350000Y-42390000D01*
X62997000Y-42350000D02*
X64620000Y-42350000D01*
X66700000Y-42350000D02*
X68323000Y-42350000D01*
X63024000Y-42310000D02*
X64620000Y-42310000D01*
X66700000Y-42310000D02*
X68296000Y-42310000D01*
X63053000Y-42270000D02*
X64620000Y-42270000D01*
X66700000Y-42270000D02*
X68267000Y-42270000D01*
X63083000Y-42230000D02*
X64620000Y-42230000D01*
X66700000Y-42230000D02*
X68237000Y-42230000D01*
X63113000Y-42190000D02*
X64620000Y-42190000D01*
X66700000Y-42190000D02*
X68207000Y-42190000D01*
X63144000Y-42150000D02*
X64620000Y-42150000D01*
X66700000Y-42150000D02*
X68176000Y-42150000D01*
X63177000Y-42110000D02*
X64620000Y-42110000D01*
X66700000Y-42110000D02*
X68143000Y-42110000D01*
X63210000Y-42070000D02*
X64620000Y-42070000D01*
X66700000Y-42070000D02*
X68110000Y-42070000D01*
X63245000Y-42030000D02*
X64620000Y-42030000D01*
X66700000Y-42030000D02*
X68075000Y-42030000D01*
X63281000Y-41990000D02*
X64620000Y-41990000D01*
X66700000Y-41990000D02*
X68039000Y-41990000D01*
X63318000Y-41950000D02*
X64620000Y-41950000D01*
X66700000Y-41950000D02*
X68002000Y-41950000D01*
X63356000Y-41910000D02*
X64620000Y-41910000D01*
X66700000Y-41910000D02*
X67964000Y-41910000D01*
X63396000Y-41870000D02*
X67924000Y-41870000D01*
X63437000Y-41830000D02*
X67883000Y-41830000D01*
X63479000Y-41790000D02*
X67841000Y-41790000D01*
X63523000Y-41750000D02*
X67797000Y-41750000D01*
X63569000Y-41710000D02*
X67751000Y-41710000D01*
X63616000Y-41670000D02*
X67704000Y-41670000D01*
X63665000Y-41630000D02*
X67655000Y-41630000D01*
X63717000Y-41590000D02*
X67603000Y-41590000D01*
X63770000Y-41550000D02*
X67550000Y-41550000D01*
X63826000Y-41510000D02*
X67494000Y-41510000D01*
X63885000Y-41470000D02*
X67435000Y-41470000D01*
X63946000Y-41430000D02*
X67374000Y-41430000D01*
X64011000Y-41390000D02*
X67309000Y-41390000D01*
X64079000Y-41350000D02*
X67241000Y-41350000D01*
X64151000Y-41310000D02*
X67169000Y-41310000D01*
X64228000Y-41270000D02*
X67092000Y-41270000D01*
X64310000Y-41230000D02*
X67010000Y-41230000D01*
X64399000Y-41190000D02*
X66921000Y-41190000D01*
X64495000Y-41150000D02*
X66825000Y-41150000D01*
X64602000Y-41110000D02*
X66718000Y-41110000D01*
X64721000Y-41070000D02*
X66599000Y-41070000D01*
X64859000Y-41030000D02*
X66461000Y-41030000D01*
X65027000Y-40990000D02*
X66293000Y-40990000D01*
X65258000Y-40950000D02*
X66062000Y-40950000D01*
X68930000Y-44190000D02*
G75*
G02*
X62390000Y-44190000I-3270000J0D01*
G01*
X62390000Y-44190000D02*
G75*
G02*
X68930000Y-44190000I3270000J0D01*
G01*
%TD*%
M02*
