M48
; DRILL file {KiCad 9.0.4} date 2025-09-30T20:07:50-0400
; FORMAT={-:-/ absolute / metric / decimal}
; #@! TF.CreationDate,2025-09-30T20:07:50-04:00
; #@! TF.GenerationSoftware,Kicad,Pcbnew,9.0.4
; #@! TF.FileFunction,Plated,1,2,PTH
FMAT,2
METRIC
; #@! TA.AperFunction,Plated,PTH,ViaDrill
T1C0.300
; #@! TA.AperFunction,Plated,PTH,ComponentDrill
T2C0.800
; #@! TA.AperFunction,Plated,PTH,ComponentDrill
T3C1.000
; #@! TA.AperFunction,Plated,PTH,ComponentDrill
T4C1.300
; #@! TA.AperFunction,Plated,PTH,ComponentDrill
T5C2.700
%
G90
G05
T1
X17.46Y-38.74
X18.26Y-29.94
X18.46Y-33.34
X18.56Y-27.04
X18.76Y-25.24
X18.76Y-50.34
X19.26Y-44.34
X20.66Y-41.44
X21.26Y-31.84
X21.76Y-33.84
X22.56Y-35.44
X22.76Y-27.24
X22.96Y-24.64
X24.16Y-36.34
X24.16Y-38.84
X24.2Y-28.64
X25.26Y-37.54
X25.36Y-34.44
X25.46Y-24.34
X25.46Y-27.64
X25.96Y-49.54
X26.06Y-45.24
X26.66Y-30.64
X26.66Y-38.34
X27.36Y-35.04
X27.56Y-52.54
X30.26Y-24.54
X31.66Y-51.74
X33.36Y-25.34
X33.76Y-47.54
X34.56Y-40.24
X34.56Y-42.54
X34.66Y-37.64
X34.76Y-35.24
X34.96Y-25.24
X35.26Y-51.44
X37.56Y-48.94
X39.26Y-51.14
X41.76Y-25.84
X41.86Y-28.14
X42.06Y-18.04
X43.36Y-21.64
X43.56Y-43.84
X45.16Y-52.74
X46.76Y-18.54
X47.26Y-27.94
X47.46Y-42.24
X48.16Y-43.94
X48.46Y-25.64
X50.06Y-18.84
X50.56Y-24.74
X50.76Y-36.54
X51.06Y-32.94
X51.06Y-38.74
X51.06Y-43.54
X52.26Y-18.94
X54.96Y-18.84
X55.16Y-28.74
X55.76Y-53.24
X55.96Y-39.24
X55.96Y-46.94
X56.06Y-42.74
X56.16Y-31.94
X56.16Y-35.94
X56.26Y-49.74
X56.46Y-25.24
X57.46Y-18.74
X59.36Y-53.44
X59.46Y-26.54
X59.96Y-18.74
X61.36Y-34.44
X61.36Y-46.94
X61.46Y-29.44
X61.46Y-49.64
X61.76Y-43.14
X61.86Y-53.14
X62.86Y-18.74
X63.16Y-36.44
X64.06Y-39.64
X64.76Y-18.74
X65.06Y-31.04
X65.06Y-34.34
X65.86Y-28.24
X68.16Y-40.24
X68.56Y-18.64
X69.46Y-28.04
X69.46Y-32.34
X69.66Y-35.24
X69.66Y-37.84
X69.76Y-21.94
X69.96Y-52.84
X70.06Y-45.34
X70.36Y-50.44
X70.96Y-23.74
X71.36Y-50.94
X71.66Y-30.14
X71.96Y-27.14
X72.06Y-18.64
X72.06Y-53.34
X72.36Y-22.44
X74.66Y-18.94
X78.06Y-21.84
X78.06Y-27.24
X78.06Y-33.24
X78.06Y-41.34
X78.16Y-24.24
X78.26Y-29.54
X78.56Y-18.54
X79.86Y-35.14
X80.16Y-53.64
X80.86Y-18.84
X81.06Y-25.84
X81.06Y-38.84
X81.06Y-43.94
X81.16Y-36.84
X81.16Y-45.74
X81.26Y-31.44
X81.26Y-49.54
T2
X30.595Y-27.54
X35.675Y-27.54
X65.66Y-42.94
X65.66Y-45.44
X65.66Y-49.94
X65.66Y-52.44
T3
X19.12Y-22.34
X21.66Y-22.34
X24.2Y-22.34
X26.74Y-22.34
X29.28Y-22.34
X30.66Y-31.26
X30.66Y-33.8
X30.66Y-36.34
X30.66Y-38.88
X30.66Y-41.42
X30.66Y-43.96
X30.66Y-46.5
X30.66Y-49.04
X31.82Y-22.34
X33.2Y-31.25
X34.36Y-22.34
X35.74Y-31.25
X36.9Y-22.34
X40.56Y-22.34
X40.82Y-31.26
X40.82Y-33.8
X40.82Y-36.34
X40.82Y-38.88
X40.82Y-41.42
X40.82Y-43.96
X40.82Y-46.5
X40.82Y-49.04
X48.77Y-22.34
X51.31Y-22.34
X53.5Y-31.26
X53.5Y-33.8
X53.5Y-36.34
X53.5Y-38.88
X53.5Y-41.42
X53.5Y-43.96
X53.5Y-46.5
X53.5Y-49.04
X53.85Y-22.34
X56.39Y-22.34
X58.58Y-31.26
X58.58Y-33.8
X58.58Y-36.34
X58.58Y-38.88
X58.58Y-41.42
X58.58Y-43.96
X58.58Y-46.5
X58.58Y-49.04
X58.93Y-22.34
X61.47Y-22.34
X64.01Y-22.34
X66.55Y-22.34
T4
X22.887Y-45.14
X22.887Y-50.14
X75.233Y-23.34
X75.233Y-28.34
X75.233Y-34.34
X75.233Y-39.34
T5
X75.86Y-46.04
X75.86Y-51.04
M30
