%TF.GenerationSoftware,KiCad,Pcbnew,9.0.4*%
%TF.CreationDate,2025-09-30T20:07:28-04:00*%
%TF.ProjectId,motorDriverDaughter,6d6f746f-7244-4726-9976-657244617567,1*%
%TF.SameCoordinates,Original*%
%TF.FileFunction,Copper,L2,Bot*%
%TF.FilePolarity,Positive*%
%FSLAX46Y46*%
G04 Gerber Fmt 4.6, Leading zero omitted, Abs format (unit mm)*
G04 Created by KiCad (PCBNEW 9.0.4) date 2025-09-30 20:07:28*
%MOMM*%
%LPD*%
G01*
G04 APERTURE LIST*
G04 Aperture macros list*
%AMRoundRect*
0 Rectangle with rounded corners*
0 $1 Rounding radius*
0 $2 $3 $4 $5 $6 $7 $8 $9 X,Y pos of 4 corners*
0 Add a 4 corners polygon primitive as box body*
4,1,4,$2,$3,$4,$5,$6,$7,$8,$9,$2,$3,0*
0 Add four circle primitives for the rounded corners*
1,1,$1+$1,$2,$3*
1,1,$1+$1,$4,$5*
1,1,$1+$1,$6,$7*
1,1,$1+$1,$8,$9*
0 Add four rect primitives between the rounded corners*
20,1,$1+$1,$2,$3,$4,$5,0*
20,1,$1+$1,$4,$5,$6,$7,0*
20,1,$1+$1,$6,$7,$8,$9,0*
20,1,$1+$1,$8,$9,$2,$3,0*%
G04 Aperture macros list end*
%TA.AperFunction,ComponentPad*%
%ADD10C,1.700000*%
%TD*%
%TA.AperFunction,ComponentPad*%
%ADD11R,1.700000X1.700000*%
%TD*%
%TA.AperFunction,ComponentPad*%
%ADD12O,1.700000X1.700000*%
%TD*%
%TA.AperFunction,ComponentPad*%
%ADD13C,1.600000*%
%TD*%
%TA.AperFunction,ComponentPad*%
%ADD14RoundRect,0.250000X-1.050000X1.050000X-1.050000X-1.050000X1.050000X-1.050000X1.050000X1.050000X0*%
%TD*%
%TA.AperFunction,ComponentPad*%
%ADD15C,2.600000*%
%TD*%
%TA.AperFunction,ComponentPad*%
%ADD16RoundRect,0.250000X1.050000X-1.050000X1.050000X1.050000X-1.050000X1.050000X-1.050000X-1.050000X0*%
%TD*%
%TA.AperFunction,ComponentPad*%
%ADD17RoundRect,0.760000X1.140000X-1.140000X1.140000X1.140000X-1.140000X1.140000X-1.140000X-1.140000X0*%
%TD*%
%TA.AperFunction,ComponentPad*%
%ADD18C,3.800000*%
%TD*%
%TA.AperFunction,ComponentPad*%
%ADD19RoundRect,0.250000X-0.550000X0.550000X-0.550000X-0.550000X0.550000X-0.550000X0.550000X0.550000X0*%
%TD*%
%TA.AperFunction,ComponentPad*%
%ADD20RoundRect,0.250000X0.550000X-0.550000X0.550000X0.550000X-0.550000X0.550000X-0.550000X-0.550000X0*%
%TD*%
%TA.AperFunction,ViaPad*%
%ADD21C,0.600000*%
%TD*%
%TA.AperFunction,Conductor*%
%ADD22C,0.200000*%
%TD*%
%TA.AperFunction,Conductor*%
%ADD23C,1.200000*%
%TD*%
G04 APERTURE END LIST*
D10*
%TO.P,J1,8,Pin_8*%
%TO.N,+12V*%
X53500000Y-49040000D03*
%TO.P,J1,7,Pin_7*%
X53500000Y-46500000D03*
%TO.P,J1,6,Pin_6*%
%TO.N,OUTA*%
X53500000Y-43960000D03*
%TO.P,J1,5,Pin_5*%
X53500000Y-41420000D03*
%TO.P,J1,4,Pin_4*%
%TO.N,OUTB*%
X53500000Y-38880000D03*
%TO.P,J1,3,Pin_3*%
X53500000Y-36340000D03*
%TO.P,J1,2,Pin_2*%
%TO.N,GND*%
X53500000Y-33800000D03*
D11*
%TO.P,J1,1,Pin_1*%
X53500000Y-31260000D03*
%TD*%
D12*
%TO.P,U1,13,VREF*%
%TO.N,Net-(U1-VREF)*%
X35740000Y-31250000D03*
D11*
%TO.P,U1,12,VREFGND*%
%TO.N,Net-(U1-VREFGND)*%
X33200000Y-31250000D03*
D12*
%TO.P,U1,11,VIN*%
%TO.N,+12V*%
X58580000Y-49040000D03*
X58580000Y-46500000D03*
%TO.P,U1,10,OUTA*%
%TO.N,OUTA*%
X58580000Y-43960000D03*
X58580000Y-41420000D03*
%TO.P,U1,9,OUTB*%
%TO.N,OUTB*%
X58580000Y-38880000D03*
X58580000Y-36340000D03*
%TO.P,U1,8,VM*%
%TO.N,VCC*%
X30660000Y-49040000D03*
%TO.P,U1,7,3V3*%
%TO.N,unconnected-(U1-3V3-Pad7)*%
X30660000Y-46500000D03*
%TO.P,U1,6,CS*%
%TO.N,CS*%
X30660000Y-43960000D03*
%TO.P,U1,5,~{FLT}*%
%TO.N,FLT*%
X30660000Y-41420000D03*
%TO.P,U1,4,~{SLP}*%
%TO.N,SLP*%
X30660000Y-38880000D03*
%TO.P,U1,3,PWM*%
%TO.N,PWM*%
X30660000Y-36340000D03*
%TO.P,U1,2,DIR*%
%TO.N,DIR*%
X30660000Y-33800000D03*
%TO.P,U1,1,GND*%
%TO.N,GND*%
X58580000Y-33800000D03*
D11*
X58580000Y-31260000D03*
X30660000Y-31260000D03*
%TD*%
D13*
%TO.P,R2,1*%
%TO.N,Net-(U1-VREF)*%
X35675000Y-27540000D03*
%TO.P,R2,2*%
%TO.N,Net-(U1-VREFGND)*%
X30595000Y-27540000D03*
%TD*%
D14*
%TO.P,J9,1,Pin_1*%
%TO.N,GND*%
X22887500Y-45140000D03*
D15*
%TO.P,J9,2,Pin_2*%
%TO.N,VCC*%
X22887500Y-50140000D03*
%TD*%
D11*
%TO.P,J8,1,Pin_1*%
%TO.N,V_SIG*%
X40560000Y-22340000D03*
%TD*%
D16*
%TO.P,J7,1,Pin_1*%
%TO.N,OUTA*%
X75232500Y-28340000D03*
D15*
%TO.P,J7,2,Pin_2*%
%TO.N,OUTB*%
X75232500Y-23340000D03*
%TD*%
D16*
%TO.P,J6,1,Pin_1*%
%TO.N,+12V*%
X75232500Y-39340000D03*
D15*
%TO.P,J6,2,Pin_2*%
%TO.N,GND*%
X75232500Y-34340000D03*
%TD*%
D11*
%TO.P,J5,1,Pin_1*%
%TO.N,GND*%
X19120000Y-22340000D03*
D10*
%TO.P,J5,2,Pin_2*%
%TO.N,DIR*%
X21660000Y-22340000D03*
%TO.P,J5,3,Pin_3*%
%TO.N,PWM*%
X24200000Y-22340000D03*
%TO.P,J5,4,Pin_4*%
%TO.N,SLP*%
X26740000Y-22340000D03*
%TO.P,J5,5,Pin_5*%
%TO.N,FLT*%
X29280000Y-22340000D03*
%TO.P,J5,6,Pin_6*%
%TO.N,CS*%
X31820000Y-22340000D03*
%TO.P,J5,7,Pin_7*%
%TO.N,VCC*%
X34360000Y-22340000D03*
%TO.P,J5,8,Pin_8*%
X36900000Y-22340000D03*
%TD*%
D11*
%TO.P,J4,1,Pin_1*%
%TO.N,GND*%
X66550000Y-22340000D03*
D10*
%TO.P,J4,2,Pin_2*%
X64010000Y-22340000D03*
%TO.P,J4,3,Pin_3*%
%TO.N,OUTB*%
X61470000Y-22340000D03*
%TO.P,J4,4,Pin_4*%
X58930000Y-22340000D03*
%TO.P,J4,5,Pin_5*%
%TO.N,OUTA*%
X56390000Y-22340000D03*
%TO.P,J4,6,Pin_6*%
X53850000Y-22340000D03*
%TO.P,J4,7,Pin_7*%
%TO.N,+12V*%
X51310000Y-22340000D03*
%TO.P,J4,8,Pin_8*%
X48770000Y-22340000D03*
%TD*%
D17*
%TO.P,J3,1,Pin_1*%
%TO.N,GND*%
X75860000Y-51040000D03*
D18*
%TO.P,J3,2,Pin_2*%
%TO.N,+12V*%
X75860000Y-46040000D03*
%TD*%
D11*
%TO.P,J2,1,Pin_1*%
%TO.N,GND*%
X40820000Y-31260000D03*
D10*
%TO.P,J2,2,Pin_2*%
%TO.N,DIR*%
X40820000Y-33800000D03*
%TO.P,J2,3,Pin_3*%
%TO.N,PWM*%
X40820000Y-36340000D03*
%TO.P,J2,4,Pin_4*%
%TO.N,SLP*%
X40820000Y-38880000D03*
%TO.P,J2,5,Pin_5*%
%TO.N,FLT*%
X40820000Y-41420000D03*
%TO.P,J2,6,Pin_6*%
%TO.N,CS*%
X40820000Y-43960000D03*
%TO.P,J2,7,Pin_7*%
%TO.N,VCC*%
X40820000Y-46500000D03*
%TO.P,J2,8,Pin_8*%
X40820000Y-49040000D03*
%TD*%
D19*
%TO.P,C2,1*%
%TO.N,+12V*%
X65660000Y-49940000D03*
D13*
%TO.P,C2,2*%
%TO.N,GND*%
X65660000Y-52440000D03*
%TD*%
D20*
%TO.P,C1,1*%
%TO.N,+12V*%
X65660000Y-45440000D03*
D13*
%TO.P,C1,2*%
%TO.N,GND*%
X65660000Y-42940000D03*
%TD*%
D21*
%TO.N,GND*%
X81060000Y-43940000D03*
%TO.N,+12V*%
X78060000Y-41340000D03*
X70060000Y-45340000D03*
X56260000Y-49740000D03*
X55960000Y-46940000D03*
X61460000Y-49640000D03*
X61360000Y-46940000D03*
%TO.N,OUTA*%
X64060000Y-39640000D03*
X68160000Y-40240000D03*
%TO.N,GND*%
X79860000Y-35140000D03*
X78060000Y-33240000D03*
%TO.N,OUTA*%
X69660000Y-37840000D03*
X69660000Y-35240000D03*
X69460000Y-32340000D03*
X69460000Y-28040000D03*
X71660000Y-30140000D03*
X71960000Y-27140000D03*
X78260000Y-29540000D03*
X78060000Y-27240000D03*
%TO.N,OUTB*%
X78160000Y-24240000D03*
X78060000Y-21840000D03*
X70960000Y-23740000D03*
X72360000Y-22440000D03*
X69760000Y-21940000D03*
X65860000Y-28240000D03*
X65060000Y-31040000D03*
X63160000Y-36440000D03*
X65060000Y-34340000D03*
X61360000Y-34440000D03*
X55960000Y-39240000D03*
X56160000Y-35940000D03*
X51060000Y-38740000D03*
X50760000Y-36540000D03*
%TO.N,GND*%
X51060000Y-32940000D03*
X56160000Y-31940000D03*
X61460000Y-29440000D03*
X55160000Y-28740000D03*
X59460000Y-26540000D03*
X56460000Y-25240000D03*
X50560000Y-24740000D03*
X50060000Y-18840000D03*
X52260000Y-18940000D03*
X54960000Y-18840000D03*
X57460000Y-18740000D03*
X59960000Y-18740000D03*
X62860000Y-18740000D03*
X64760000Y-18740000D03*
X68560000Y-18640000D03*
X72060000Y-18640000D03*
X74660000Y-18940000D03*
X78560000Y-18540000D03*
X80860000Y-18840000D03*
X81060000Y-25840000D03*
X81260000Y-31440000D03*
X81160000Y-36840000D03*
X81060000Y-38840000D03*
X81160000Y-45740000D03*
X81260000Y-49540000D03*
X80160000Y-53640000D03*
X72060000Y-53340000D03*
X69960000Y-52840000D03*
X71360000Y-50940000D03*
X70360000Y-50440000D03*
X61860000Y-53140000D03*
X59360000Y-53440000D03*
X55760000Y-53240000D03*
%TO.N,OUTA*%
X61760000Y-43140000D03*
X56060000Y-42740000D03*
X51060000Y-43540000D03*
%TO.N,GND*%
X48160000Y-43940000D03*
X47460000Y-42240000D03*
X47260000Y-27940000D03*
X48460000Y-25640000D03*
X46760000Y-18540000D03*
X42060000Y-18040000D03*
X43360000Y-21640000D03*
X34560000Y-42540000D03*
X34560000Y-40240000D03*
X34660000Y-37640000D03*
X34760000Y-35240000D03*
X43560000Y-43840000D03*
X45160000Y-52740000D03*
%TO.N,VCC*%
X39260000Y-51140000D03*
X37560000Y-48940000D03*
X35260000Y-51440000D03*
X33760000Y-47540000D03*
X31660000Y-51740000D03*
X27560000Y-52540000D03*
X25960000Y-49540000D03*
%TO.N,GND*%
X18760000Y-50340000D03*
X19260000Y-44340000D03*
X26060000Y-45240000D03*
X20660000Y-41440000D03*
X17460000Y-38740000D03*
X25260000Y-37540000D03*
X22560000Y-35440000D03*
X18460000Y-33340000D03*
X18260000Y-29940000D03*
X18560000Y-27040000D03*
X18760000Y-25240000D03*
X27360000Y-35040000D03*
X25360000Y-34440000D03*
X21760000Y-33840000D03*
X21260000Y-31840000D03*
X25460000Y-27640000D03*
X22760000Y-27240000D03*
X22960000Y-24640000D03*
X25460000Y-24340000D03*
X30260000Y-24540000D03*
X33360000Y-25340000D03*
X34960000Y-25240000D03*
X41760000Y-25840000D03*
X41860000Y-28140000D03*
%TO.N,FLT*%
X24160000Y-38840000D03*
%TO.N,SLP*%
X26660000Y-38340000D03*
X26660000Y-30640000D03*
%TO.N,PWM*%
X24160000Y-36340000D03*
X24200000Y-28640000D03*
%TD*%
D22*
%TO.N,FLT*%
X24160000Y-38840000D02*
X23760000Y-38840000D01*
X19660000Y-26840000D02*
X20660000Y-25840000D01*
X23760000Y-38840000D02*
X19660000Y-34740000D01*
X27460000Y-25840000D02*
X29280000Y-24020000D01*
X19660000Y-34740000D02*
X19660000Y-26840000D01*
X20660000Y-25840000D02*
X27460000Y-25840000D01*
X29280000Y-24020000D02*
X29280000Y-22340000D01*
%TO.N,PWM*%
X24200000Y-28640000D02*
X24160000Y-28680000D01*
X24160000Y-28680000D02*
X24160000Y-36340000D01*
%TO.N,SLP*%
X26660000Y-38340000D02*
X26660000Y-30640000D01*
%TO.N,CS*%
X31820000Y-22340000D02*
X31820000Y-24980000D01*
X28160000Y-26640000D02*
X28160000Y-43040000D01*
X31820000Y-24980000D02*
X31060000Y-25740000D01*
X28160000Y-43040000D02*
X29080000Y-43960000D01*
X31060000Y-25740000D02*
X29060000Y-25740000D01*
X29060000Y-25740000D02*
X28160000Y-26640000D01*
X29080000Y-43960000D02*
X30660000Y-43960000D01*
D23*
%TO.N,VCC*%
X36900000Y-22340000D02*
X34360000Y-22340000D01*
X36900000Y-22340000D02*
X36900000Y-24680000D01*
X36900000Y-24680000D02*
X38260000Y-26040000D01*
X38260000Y-45940000D02*
X38820000Y-46500000D01*
X38260000Y-26040000D02*
X38260000Y-45940000D01*
X38820000Y-46500000D02*
X40820000Y-46500000D01*
%TD*%
%TA.AperFunction,Conductor*%
%TO.N,GND*%
G36*
X33161444Y-22993999D02*
G01*
X33200486Y-23039056D01*
X33204951Y-23047820D01*
X33329890Y-23219786D01*
X33480213Y-23370109D01*
X33652179Y-23495048D01*
X33652181Y-23495049D01*
X33652184Y-23495051D01*
X33841588Y-23591557D01*
X34043757Y-23657246D01*
X34253713Y-23690500D01*
X34253714Y-23690500D01*
X34466286Y-23690500D01*
X34466287Y-23690500D01*
X34676243Y-23657246D01*
X34878412Y-23591557D01*
X35067816Y-23495051D01*
X35101937Y-23470261D01*
X35110306Y-23464181D01*
X35176113Y-23440702D01*
X35183190Y-23440500D01*
X35675500Y-23440500D01*
X35742539Y-23460185D01*
X35788294Y-23512989D01*
X35799500Y-23564500D01*
X35799500Y-24593389D01*
X35799500Y-24766611D01*
X35826598Y-24937701D01*
X35880127Y-25102445D01*
X35958768Y-25256788D01*
X36060586Y-25396928D01*
X36060588Y-25396930D01*
X37123181Y-26459523D01*
X37156666Y-26520846D01*
X37159500Y-26547204D01*
X37159500Y-27117410D01*
X37139815Y-27184449D01*
X37087011Y-27230204D01*
X37017853Y-27240148D01*
X36954297Y-27211123D01*
X36917569Y-27155729D01*
X36880218Y-27040776D01*
X36828919Y-26940097D01*
X36787287Y-26858390D01*
X36760372Y-26821344D01*
X36666971Y-26692786D01*
X36522213Y-26548028D01*
X36356613Y-26427715D01*
X36356612Y-26427714D01*
X36356610Y-26427713D01*
X36299653Y-26398691D01*
X36174223Y-26334781D01*
X35979534Y-26271522D01*
X35804995Y-26243878D01*
X35777352Y-26239500D01*
X35572648Y-26239500D01*
X35548329Y-26243351D01*
X35370465Y-26271522D01*
X35175776Y-26334781D01*
X34993386Y-26427715D01*
X34827786Y-26548028D01*
X34683028Y-26692786D01*
X34562715Y-26858386D01*
X34469781Y-27040776D01*
X34406522Y-27235465D01*
X34374500Y-27437648D01*
X34374500Y-27642351D01*
X34406522Y-27844534D01*
X34469781Y-28039223D01*
X34562715Y-28221613D01*
X34683028Y-28387213D01*
X34827786Y-28531971D01*
X34982749Y-28644556D01*
X34993390Y-28652287D01*
X35109607Y-28711503D01*
X35175776Y-28745218D01*
X35175778Y-28745218D01*
X35175781Y-28745220D01*
X35280137Y-28779127D01*
X35370465Y-28808477D01*
X35471557Y-28824488D01*
X35572648Y-28840500D01*
X35572649Y-28840500D01*
X35777351Y-28840500D01*
X35777352Y-28840500D01*
X35979534Y-28808477D01*
X36174219Y-28745220D01*
X36356610Y-28652287D01*
X36449590Y-28584732D01*
X36522213Y-28531971D01*
X36522215Y-28531968D01*
X36522219Y-28531966D01*
X36666966Y-28387219D01*
X36666968Y-28387215D01*
X36666971Y-28387213D01*
X36758794Y-28260827D01*
X36787287Y-28221610D01*
X36880220Y-28039219D01*
X36917569Y-27924269D01*
X36957007Y-27866595D01*
X37021365Y-27839397D01*
X37090212Y-27851312D01*
X37141687Y-27898556D01*
X37159500Y-27962589D01*
X37159500Y-30544696D01*
X37139815Y-30611735D01*
X37087011Y-30657490D01*
X37017853Y-30667434D01*
X36954297Y-30638409D01*
X36925016Y-30600991D01*
X36895052Y-30542185D01*
X36895051Y-30542184D01*
X36770109Y-30370213D01*
X36619786Y-30219890D01*
X36447820Y-30094951D01*
X36258414Y-29998444D01*
X36258413Y-29998443D01*
X36258412Y-29998443D01*
X36056243Y-29932754D01*
X36056241Y-29932753D01*
X36056240Y-29932753D01*
X35890470Y-29906498D01*
X35846287Y-29899500D01*
X35633713Y-29899500D01*
X35589530Y-29906498D01*
X35423760Y-29932753D01*
X35221585Y-29998444D01*
X35032179Y-30094951D01*
X34860215Y-30219889D01*
X34746673Y-30333431D01*
X34685350Y-30366915D01*
X34615658Y-30361931D01*
X34559725Y-30320059D01*
X34542810Y-30289082D01*
X34493797Y-30157671D01*
X34493793Y-30157664D01*
X34407547Y-30042455D01*
X34407544Y-30042452D01*
X34292335Y-29956206D01*
X34292328Y-29956202D01*
X34157482Y-29905908D01*
X34157483Y-29905908D01*
X34097883Y-29899501D01*
X34097881Y-29899500D01*
X34097873Y-29899500D01*
X34097864Y-29899500D01*
X32302129Y-29899500D01*
X32302123Y-29899501D01*
X32242516Y-29905908D01*
X32107671Y-29956202D01*
X32107669Y-29956203D01*
X31997215Y-30038890D01*
X31931751Y-30063307D01*
X31863478Y-30048456D01*
X31848593Y-30038890D01*
X31752088Y-29966647D01*
X31752086Y-29966645D01*
X31617379Y-29916403D01*
X31617372Y-29916401D01*
X31557844Y-29910000D01*
X30910000Y-29910000D01*
X30910000Y-30826988D01*
X30852993Y-30794075D01*
X30725826Y-30760000D01*
X30594174Y-30760000D01*
X30467007Y-30794075D01*
X30410000Y-30826988D01*
X30410000Y-29910000D01*
X29762155Y-29910000D01*
X29702627Y-29916401D01*
X29702620Y-29916403D01*
X29567913Y-29966645D01*
X29567906Y-29966649D01*
X29452812Y-30052809D01*
X29452809Y-30052812D01*
X29366649Y-30167906D01*
X29366645Y-30167913D01*
X29316403Y-30302620D01*
X29316401Y-30302627D01*
X29310000Y-30362155D01*
X29310000Y-31010000D01*
X30226988Y-31010000D01*
X30194075Y-31067007D01*
X30160000Y-31194174D01*
X30160000Y-31325826D01*
X30194075Y-31452993D01*
X30226988Y-31510000D01*
X29310000Y-31510000D01*
X29310000Y-32157844D01*
X29316401Y-32217372D01*
X29316403Y-32217379D01*
X29366645Y-32352086D01*
X29366649Y-32352093D01*
X29452809Y-32467187D01*
X29452812Y-32467190D01*
X29567906Y-32553350D01*
X29567913Y-32553354D01*
X29699470Y-32602422D01*
X29755404Y-32644293D01*
X29779821Y-32709758D01*
X29764969Y-32778031D01*
X29743819Y-32806285D01*
X29629889Y-32920215D01*
X29504951Y-33092179D01*
X29408444Y-33281585D01*
X29342753Y-33483760D01*
X29309500Y-33693713D01*
X29309500Y-33906286D01*
X29342735Y-34116127D01*
X29342754Y-34116243D01*
X29394656Y-34275981D01*
X29408444Y-34318414D01*
X29504951Y-34507820D01*
X29629890Y-34679786D01*
X29780213Y-34830109D01*
X29952182Y-34955050D01*
X29960946Y-34959516D01*
X30011742Y-35007491D01*
X30028536Y-35075312D01*
X30005998Y-35141447D01*
X29960946Y-35180484D01*
X29952182Y-35184949D01*
X29780213Y-35309890D01*
X29629890Y-35460213D01*
X29504951Y-35632179D01*
X29408444Y-35821585D01*
X29408443Y-35821587D01*
X29408443Y-35821588D01*
X29395587Y-35861155D01*
X29342753Y-36023760D01*
X29309500Y-36233713D01*
X29309500Y-36446286D01*
X29341669Y-36649397D01*
X29342754Y-36656243D01*
X29405803Y-36850288D01*
X29408444Y-36858414D01*
X29504951Y-37047820D01*
X29629890Y-37219786D01*
X29780213Y-37370109D01*
X29952182Y-37495050D01*
X29960946Y-37499516D01*
X30011742Y-37547491D01*
X30028536Y-37615312D01*
X30005998Y-37681447D01*
X29960946Y-37720484D01*
X29952182Y-37724949D01*
X29780213Y-37849890D01*
X29629890Y-38000213D01*
X29504951Y-38172179D01*
X29408444Y-38361585D01*
X29342753Y-38563760D01*
X29309500Y-38773713D01*
X29309500Y-38986286D01*
X29337196Y-39161155D01*
X29342754Y-39196243D01*
X29396543Y-39361789D01*
X29408444Y-39398414D01*
X29504951Y-39587820D01*
X29629890Y-39759786D01*
X29780213Y-39910109D01*
X29952182Y-40035050D01*
X29960946Y-40039516D01*
X30011742Y-40087491D01*
X30028536Y-40155312D01*
X30005998Y-40221447D01*
X29960946Y-40260484D01*
X29952182Y-40264949D01*
X29780213Y-40389890D01*
X29629890Y-40540213D01*
X29504951Y-40712179D01*
X29408444Y-40901585D01*
X29342753Y-41103760D01*
X29309500Y-41313713D01*
X29309500Y-41526286D01*
X29342595Y-41735244D01*
X29342754Y-41736243D01*
X29405523Y-41929426D01*
X29408444Y-41938414D01*
X29504951Y-42127820D01*
X29629890Y-42299786D01*
X29780213Y-42450109D01*
X29952182Y-42575050D01*
X29960946Y-42579516D01*
X30011742Y-42627491D01*
X30028536Y-42695312D01*
X30005998Y-42761447D01*
X29960946Y-42800484D01*
X29952182Y-42804949D01*
X29780213Y-42929890D01*
X29629890Y-43080213D01*
X29504949Y-43252182D01*
X29486728Y-43287943D01*
X29438753Y-43338738D01*
X29370932Y-43355533D01*
X29304797Y-43332995D01*
X29288563Y-43319328D01*
X28796819Y-42827584D01*
X28763334Y-42766261D01*
X28760500Y-42739903D01*
X28760500Y-26940097D01*
X28780185Y-26873058D01*
X28796819Y-26852416D01*
X29272416Y-26376819D01*
X29333739Y-26343334D01*
X29360097Y-26340500D01*
X29655953Y-26340500D01*
X29722992Y-26360185D01*
X29768747Y-26412989D01*
X29778691Y-26482147D01*
X29749666Y-26545703D01*
X29743634Y-26552181D01*
X29603032Y-26692782D01*
X29603028Y-26692786D01*
X29482715Y-26858386D01*
X29389781Y-27040776D01*
X29326522Y-27235465D01*
X29294500Y-27437648D01*
X29294500Y-27642351D01*
X29326522Y-27844534D01*
X29389781Y-28039223D01*
X29482715Y-28221613D01*
X29603028Y-28387213D01*
X29747786Y-28531971D01*
X29902749Y-28644556D01*
X29913390Y-28652287D01*
X30029607Y-28711503D01*
X30095776Y-28745218D01*
X30095778Y-28745218D01*
X30095781Y-28745220D01*
X30200137Y-28779127D01*
X30290465Y-28808477D01*
X30391557Y-28824488D01*
X30492648Y-28840500D01*
X30492649Y-28840500D01*
X30697351Y-28840500D01*
X30697352Y-28840500D01*
X30899534Y-28808477D01*
X31094219Y-28745220D01*
X31276610Y-28652287D01*
X31369590Y-28584732D01*
X31442213Y-28531971D01*
X31442215Y-28531968D01*
X31442219Y-28531966D01*
X31586966Y-28387219D01*
X31586968Y-28387215D01*
X31586971Y-28387213D01*
X31678794Y-28260827D01*
X31707287Y-28221610D01*
X31800220Y-28039219D01*
X31863477Y-27844534D01*
X31895500Y-27642352D01*
X31895500Y-27437648D01*
X31868989Y-27270264D01*
X31863477Y-27235465D01*
X31800218Y-27040776D01*
X31748919Y-26940097D01*
X31707287Y-26858390D01*
X31680372Y-26821344D01*
X31586971Y-26692786D01*
X31442213Y-26548028D01*
X31339533Y-26473428D01*
X31296867Y-26418099D01*
X31290888Y-26348485D01*
X31323493Y-26286690D01*
X31350417Y-26265723D01*
X31428716Y-26220520D01*
X31540520Y-26108716D01*
X31540520Y-26108714D01*
X31550728Y-26098507D01*
X31550730Y-26098504D01*
X32178506Y-25470728D01*
X32178511Y-25470724D01*
X32188714Y-25460520D01*
X32188716Y-25460520D01*
X32300520Y-25348716D01*
X32353594Y-25256788D01*
X32379577Y-25211785D01*
X32420500Y-25059058D01*
X32420500Y-24900943D01*
X32420500Y-23625718D01*
X32440185Y-23558679D01*
X32488207Y-23515233D01*
X32527815Y-23495052D01*
X32527815Y-23495051D01*
X32527816Y-23495051D01*
X32619193Y-23428661D01*
X32699786Y-23370109D01*
X32699788Y-23370106D01*
X32699792Y-23370104D01*
X32850104Y-23219792D01*
X32850106Y-23219788D01*
X32850109Y-23219786D01*
X32975048Y-23047820D01*
X32975047Y-23047820D01*
X32975051Y-23047816D01*
X32979514Y-23039054D01*
X33027488Y-22988259D01*
X33095308Y-22971463D01*
X33161444Y-22993999D01*
G37*
%TD.AperFunction*%
%TA.AperFunction,Conductor*%
G36*
X27518363Y-31051191D02*
G01*
X27555082Y-31110634D01*
X27559500Y-31143439D01*
X27559500Y-37836560D01*
X27539815Y-37903599D01*
X27487011Y-37949354D01*
X27417853Y-37959298D01*
X27354297Y-37930273D01*
X27332398Y-37905451D01*
X27281398Y-37829125D01*
X27260520Y-37762448D01*
X27260500Y-37760234D01*
X27260500Y-31219765D01*
X27265828Y-31201619D01*
X27266166Y-31182711D01*
X27279665Y-31154495D01*
X27280185Y-31152726D01*
X27281398Y-31150874D01*
X27332398Y-31074548D01*
X27386011Y-31029743D01*
X27455336Y-31021036D01*
X27518363Y-31051191D01*
G37*
%TD.AperFunction*%
%TA.AperFunction,Conductor*%
G36*
X30621444Y-22993999D02*
G01*
X30660486Y-23039056D01*
X30664951Y-23047820D01*
X30789890Y-23219786D01*
X30940213Y-23370109D01*
X31112184Y-23495051D01*
X31112184Y-23495052D01*
X31151793Y-23515233D01*
X31202590Y-23563206D01*
X31219500Y-23625718D01*
X31219500Y-24679903D01*
X31199815Y-24746942D01*
X31183181Y-24767584D01*
X30847584Y-25103181D01*
X30786261Y-25136666D01*
X30759903Y-25139500D01*
X29309098Y-25139500D01*
X29242059Y-25119815D01*
X29196304Y-25067011D01*
X29186360Y-24997853D01*
X29215385Y-24934297D01*
X29221417Y-24927819D01*
X29469333Y-24679903D01*
X29760520Y-24388716D01*
X29839577Y-24251784D01*
X29880501Y-24099057D01*
X29880501Y-23940942D01*
X29880501Y-23933347D01*
X29880500Y-23933329D01*
X29880500Y-23625718D01*
X29900185Y-23558679D01*
X29948207Y-23515233D01*
X29987815Y-23495052D01*
X29987815Y-23495051D01*
X29987816Y-23495051D01*
X30079193Y-23428661D01*
X30159786Y-23370109D01*
X30159788Y-23370106D01*
X30159792Y-23370104D01*
X30310104Y-23219792D01*
X30310106Y-23219788D01*
X30310109Y-23219786D01*
X30435048Y-23047820D01*
X30435047Y-23047820D01*
X30435051Y-23047816D01*
X30439514Y-23039054D01*
X30487488Y-22988259D01*
X30555308Y-22971463D01*
X30621444Y-22993999D01*
G37*
%TD.AperFunction*%
%TA.AperFunction,Conductor*%
G36*
X58830000Y-33366988D02*
G01*
X58772993Y-33334075D01*
X58645826Y-33300000D01*
X58514174Y-33300000D01*
X58387007Y-33334075D01*
X58330000Y-33366988D01*
X58330000Y-31693012D01*
X58387007Y-31725925D01*
X58514174Y-31760000D01*
X58645826Y-31760000D01*
X58772993Y-31725925D01*
X58830000Y-31693012D01*
X58830000Y-33366988D01*
G37*
%TD.AperFunction*%
%TA.AperFunction,Conductor*%
G36*
X81702539Y-17060185D02*
G01*
X81748294Y-17112989D01*
X81759500Y-17164500D01*
X81759500Y-54215500D01*
X81739815Y-54282539D01*
X81687011Y-54328294D01*
X81635500Y-54339500D01*
X16784500Y-54339500D01*
X16717461Y-54319815D01*
X16671706Y-54267011D01*
X16660500Y-54215500D01*
X16660500Y-52461153D01*
X26759500Y-52461153D01*
X26759500Y-52618846D01*
X26790261Y-52773489D01*
X26790264Y-52773501D01*
X26850602Y-52919172D01*
X26850609Y-52919185D01*
X26938210Y-53050288D01*
X26938213Y-53050292D01*
X27049707Y-53161786D01*
X27049711Y-53161789D01*
X27180814Y-53249390D01*
X27180827Y-53249397D01*
X27326498Y-53309735D01*
X27326503Y-53309737D01*
X27481153Y-53340499D01*
X27481156Y-53340500D01*
X27481158Y-53340500D01*
X27638844Y-53340500D01*
X27638845Y-53340499D01*
X27793497Y-53309737D01*
X27939179Y-53249394D01*
X28070289Y-53161789D01*
X28181789Y-53050289D01*
X28269394Y-52919179D01*
X28329737Y-52773497D01*
X28360500Y-52618842D01*
X28360500Y-52461158D01*
X28360500Y-52461155D01*
X28360499Y-52461153D01*
X28340734Y-52361789D01*
X28329737Y-52306503D01*
X28329735Y-52306498D01*
X28269397Y-52160827D01*
X28269390Y-52160814D01*
X28181789Y-52029711D01*
X28181786Y-52029707D01*
X28070292Y-51918213D01*
X28070288Y-51918210D01*
X27939185Y-51830609D01*
X27939172Y-51830602D01*
X27793501Y-51770264D01*
X27793489Y-51770261D01*
X27638845Y-51739500D01*
X27638842Y-51739500D01*
X27481158Y-51739500D01*
X27481155Y-51739500D01*
X27326510Y-51770261D01*
X27326498Y-51770264D01*
X27180827Y-51830602D01*
X27180814Y-51830609D01*
X27049711Y-51918210D01*
X27049707Y-51918213D01*
X26938213Y-52029707D01*
X26938210Y-52029711D01*
X26850609Y-52160814D01*
X26850602Y-52160827D01*
X26790264Y-52306498D01*
X26790261Y-52306510D01*
X26759500Y-52461153D01*
X16660500Y-52461153D01*
X16660500Y-50021995D01*
X21087000Y-50021995D01*
X21087000Y-50258004D01*
X21087001Y-50258020D01*
X21109722Y-50430606D01*
X21117807Y-50492014D01*
X21124827Y-50518213D01*
X21178894Y-50719993D01*
X21269214Y-50938045D01*
X21269219Y-50938056D01*
X21340094Y-51060814D01*
X21387227Y-51142450D01*
X21387229Y-51142453D01*
X21387230Y-51142454D01*
X21530906Y-51329697D01*
X21530912Y-51329704D01*
X21697795Y-51496587D01*
X21697801Y-51496592D01*
X21885050Y-51640273D01*
X22012881Y-51714076D01*
X22089443Y-51758280D01*
X22089448Y-51758282D01*
X22089451Y-51758284D01*
X22307507Y-51848606D01*
X22535486Y-51909693D01*
X22769489Y-51940500D01*
X22769496Y-51940500D01*
X23005504Y-51940500D01*
X23005511Y-51940500D01*
X23239514Y-51909693D01*
X23467493Y-51848606D01*
X23685549Y-51758284D01*
X23853785Y-51661153D01*
X30859500Y-51661153D01*
X30859500Y-51818846D01*
X30890261Y-51973489D01*
X30890264Y-51973501D01*
X30950602Y-52119172D01*
X30950609Y-52119185D01*
X31038210Y-52250288D01*
X31038213Y-52250292D01*
X31149707Y-52361786D01*
X31149711Y-52361789D01*
X31280814Y-52449390D01*
X31280827Y-52449397D01*
X31426498Y-52509735D01*
X31426503Y-52509737D01*
X31581153Y-52540499D01*
X31581156Y-52540500D01*
X31581158Y-52540500D01*
X31738844Y-52540500D01*
X31738845Y-52540499D01*
X31893497Y-52509737D01*
X32039179Y-52449394D01*
X32170289Y-52361789D01*
X32281789Y-52250289D01*
X32369394Y-52119179D01*
X32429737Y-51973497D01*
X32460500Y-51818842D01*
X32460500Y-51661158D01*
X32460500Y-51661155D01*
X32460499Y-51661153D01*
X32440024Y-51558220D01*
X32429737Y-51506503D01*
X32425630Y-51496587D01*
X32386666Y-51402518D01*
X32369532Y-51361153D01*
X34459500Y-51361153D01*
X34459500Y-51518846D01*
X34490261Y-51673489D01*
X34490264Y-51673501D01*
X34550602Y-51819172D01*
X34550609Y-51819185D01*
X34638210Y-51950288D01*
X34638213Y-51950292D01*
X34749707Y-52061786D01*
X34749711Y-52061789D01*
X34880814Y-52149390D01*
X34880827Y-52149397D01*
X34989461Y-52194394D01*
X35026503Y-52209737D01*
X35181153Y-52240499D01*
X35181156Y-52240500D01*
X35181158Y-52240500D01*
X35338844Y-52240500D01*
X35338845Y-52240499D01*
X35389704Y-52230382D01*
X35486144Y-52211200D01*
X35486149Y-52211199D01*
X35491022Y-52210229D01*
X35493497Y-52209737D01*
X35611592Y-52160821D01*
X35639172Y-52149397D01*
X35639172Y-52149396D01*
X35639179Y-52149394D01*
X35770289Y-52061789D01*
X35881789Y-51950289D01*
X35969394Y-51819179D01*
X36029737Y-51673497D01*
X36060500Y-51518842D01*
X36060500Y-51361158D01*
X36060500Y-51361155D01*
X36060499Y-51361153D01*
X36052854Y-51322719D01*
X36029737Y-51206503D01*
X36016611Y-51174814D01*
X35986666Y-51102518D01*
X35969532Y-51061153D01*
X38459500Y-51061153D01*
X38459500Y-51218846D01*
X38490261Y-51373489D01*
X38490264Y-51373501D01*
X38550602Y-51519172D01*
X38550609Y-51519185D01*
X38638210Y-51650288D01*
X38638213Y-51650292D01*
X38749707Y-51761786D01*
X38749711Y-51761789D01*
X38880814Y-51849390D01*
X38880827Y-51849397D01*
X39026397Y-51909693D01*
X39026503Y-51909737D01*
X39181148Y-51940498D01*
X39181153Y-51940499D01*
X39181156Y-51940500D01*
X39181158Y-51940500D01*
X39338844Y-51940500D01*
X39338845Y-51940499D01*
X39493497Y-51909737D01*
X39639179Y-51849394D01*
X39770289Y-51761789D01*
X39881789Y-51650289D01*
X39969394Y-51519179D01*
X40029737Y-51373497D01*
X40060500Y-51218842D01*
X40060500Y-51061158D01*
X40060500Y-51061155D01*
X40060499Y-51061153D01*
X40040111Y-50958656D01*
X40029737Y-50906503D01*
X40029735Y-50906498D01*
X39969397Y-50760827D01*
X39969390Y-50760814D01*
X39881789Y-50629711D01*
X39881786Y-50629707D01*
X39770292Y-50518213D01*
X39770288Y-50518210D01*
X39639185Y-50430609D01*
X39639172Y-50430602D01*
X39493501Y-50370264D01*
X39493489Y-50370261D01*
X39338845Y-50339500D01*
X39338842Y-50339500D01*
X39181158Y-50339500D01*
X39181155Y-50339500D01*
X39026510Y-50370261D01*
X39026498Y-50370264D01*
X38880827Y-50430602D01*
X38880814Y-50430609D01*
X38749711Y-50518210D01*
X38749707Y-50518213D01*
X38638213Y-50629707D01*
X38638210Y-50629711D01*
X38550609Y-50760814D01*
X38550602Y-50760827D01*
X38490264Y-50906498D01*
X38490261Y-50906510D01*
X38459500Y-51061153D01*
X35969532Y-51061153D01*
X35969395Y-51060823D01*
X35969390Y-51060814D01*
X35881789Y-50929711D01*
X35881786Y-50929707D01*
X35770292Y-50818213D01*
X35770288Y-50818210D01*
X35639185Y-50730609D01*
X35639172Y-50730602D01*
X35493501Y-50670264D01*
X35493489Y-50670261D01*
X35338845Y-50639500D01*
X35338842Y-50639500D01*
X35181158Y-50639500D01*
X35181155Y-50639500D01*
X35026510Y-50670261D01*
X35026498Y-50670264D01*
X34880827Y-50730602D01*
X34880814Y-50730609D01*
X34749711Y-50818210D01*
X34749707Y-50818213D01*
X34638213Y-50929707D01*
X34638210Y-50929711D01*
X34550609Y-51060814D01*
X34550602Y-51060827D01*
X34490264Y-51206498D01*
X34490261Y-51206510D01*
X34459500Y-51361153D01*
X32369532Y-51361153D01*
X32369395Y-51360823D01*
X32369390Y-51360814D01*
X32281789Y-51229711D01*
X32281786Y-51229707D01*
X32170292Y-51118213D01*
X32170288Y-51118210D01*
X32039185Y-51030609D01*
X32039172Y-51030602D01*
X31893501Y-50970264D01*
X31893489Y-50970261D01*
X31738845Y-50939500D01*
X31738842Y-50939500D01*
X31581158Y-50939500D01*
X31581155Y-50939500D01*
X31426510Y-50970261D01*
X31426498Y-50970264D01*
X31280827Y-51030602D01*
X31280814Y-51030609D01*
X31149711Y-51118210D01*
X31149707Y-51118213D01*
X31038213Y-51229707D01*
X31038210Y-51229711D01*
X30950609Y-51360814D01*
X30950602Y-51360827D01*
X30890264Y-51506498D01*
X30890261Y-51506510D01*
X30859500Y-51661153D01*
X23853785Y-51661153D01*
X23889950Y-51640273D01*
X24077199Y-51496592D01*
X24244092Y-51329699D01*
X24387773Y-51142450D01*
X24505784Y-50938049D01*
X24596106Y-50719993D01*
X24657193Y-50492014D01*
X24688000Y-50258011D01*
X24688000Y-50021989D01*
X24657193Y-49787986D01*
X24596106Y-49560007D01*
X24555159Y-49461153D01*
X25159500Y-49461153D01*
X25159500Y-49618846D01*
X25190261Y-49773489D01*
X25190264Y-49773501D01*
X25250602Y-49919172D01*
X25250609Y-49919185D01*
X25338210Y-50050288D01*
X25338213Y-50050292D01*
X25449707Y-50161786D01*
X25449711Y-50161789D01*
X25580814Y-50249390D01*
X25580827Y-50249397D01*
X25682607Y-50291555D01*
X25726503Y-50309737D01*
X25876131Y-50339500D01*
X25881153Y-50340499D01*
X25881156Y-50340500D01*
X25881158Y-50340500D01*
X26038844Y-50340500D01*
X26038845Y-50340499D01*
X26193497Y-50309737D01*
X26318376Y-50258011D01*
X26339172Y-50249397D01*
X26339172Y-50249396D01*
X26339179Y-50249394D01*
X26470289Y-50161789D01*
X26581789Y-50050289D01*
X26669394Y-49919179D01*
X26729737Y-49773497D01*
X26760500Y-49618842D01*
X26760500Y-49461158D01*
X26760500Y-49461155D01*
X26760499Y-49461153D01*
X26745209Y-49384285D01*
X26729737Y-49306503D01*
X26701033Y-49237204D01*
X26669397Y-49160827D01*
X26669390Y-49160814D01*
X26581789Y-49029711D01*
X26581786Y-49029707D01*
X26470292Y-48918213D01*
X26470288Y-48918210D01*
X26339185Y-48830609D01*
X26339172Y-48830602D01*
X26193501Y-48770264D01*
X26193489Y-48770261D01*
X26038845Y-48739500D01*
X26038842Y-48739500D01*
X25881158Y-48739500D01*
X25881155Y-48739500D01*
X25726510Y-48770261D01*
X25726498Y-48770264D01*
X25580827Y-48830602D01*
X25580814Y-48830609D01*
X25449711Y-48918210D01*
X25449707Y-48918213D01*
X25338213Y-49029707D01*
X25338210Y-49029711D01*
X25250609Y-49160814D01*
X25250602Y-49160827D01*
X25190264Y-49306498D01*
X25190261Y-49306510D01*
X25159500Y-49461153D01*
X24555159Y-49461153D01*
X24532520Y-49406498D01*
X24505788Y-49341959D01*
X24505780Y-49341943D01*
X24458947Y-49260827D01*
X24387773Y-49137550D01*
X24259410Y-48970264D01*
X24244093Y-48950302D01*
X24244087Y-48950295D01*
X24077204Y-48783412D01*
X24077197Y-48783406D01*
X23889954Y-48639730D01*
X23889953Y-48639729D01*
X23889950Y-48639727D01*
X23808457Y-48592677D01*
X23685556Y-48521719D01*
X23685545Y-48521714D01*
X23467493Y-48431394D01*
X23239510Y-48370306D01*
X23005520Y-48339501D01*
X23005517Y-48339500D01*
X23005511Y-48339500D01*
X22769489Y-48339500D01*
X22769483Y-48339500D01*
X22769479Y-48339501D01*
X22535489Y-48370306D01*
X22307506Y-48431394D01*
X22089454Y-48521714D01*
X22089443Y-48521719D01*
X21898409Y-48632014D01*
X21885442Y-48639501D01*
X21885045Y-48639730D01*
X21697802Y-48783406D01*
X21697795Y-48783412D01*
X21530912Y-48950295D01*
X21530906Y-48950302D01*
X21387230Y-49137545D01*
X21269219Y-49341943D01*
X21269214Y-49341954D01*
X21178894Y-49560006D01*
X21117806Y-49787989D01*
X21087001Y-50021979D01*
X21087000Y-50021995D01*
X16660500Y-50021995D01*
X16660500Y-44040013D01*
X21087500Y-44040013D01*
X21087500Y-44890000D01*
X22287499Y-44890000D01*
X22262479Y-44950402D01*
X22237500Y-45075981D01*
X22237500Y-45204019D01*
X22262479Y-45329598D01*
X22287499Y-45390000D01*
X21087501Y-45390000D01*
X21087501Y-46239986D01*
X21097994Y-46342697D01*
X21153141Y-46509119D01*
X21153143Y-46509124D01*
X21245184Y-46658345D01*
X21369154Y-46782315D01*
X21518375Y-46874356D01*
X21518380Y-46874358D01*
X21684802Y-46929505D01*
X21684809Y-46929506D01*
X21787519Y-46939999D01*
X22637499Y-46939999D01*
X22637500Y-46939998D01*
X22637500Y-45740001D01*
X22697902Y-45765021D01*
X22823481Y-45790000D01*
X22951519Y-45790000D01*
X23077098Y-45765021D01*
X23137500Y-45740001D01*
X23137500Y-46939999D01*
X23987472Y-46939999D01*
X23987486Y-46939998D01*
X24090197Y-46929505D01*
X24256619Y-46874358D01*
X24256624Y-46874356D01*
X24405845Y-46782315D01*
X24529815Y-46658345D01*
X24621856Y-46509124D01*
X24621858Y-46509119D01*
X24677005Y-46342697D01*
X24677006Y-46342690D01*
X24687499Y-46239986D01*
X24687500Y-46239973D01*
X24687500Y-45390000D01*
X23487501Y-45390000D01*
X23512521Y-45329598D01*
X23537500Y-45204019D01*
X23537500Y-45075981D01*
X23512521Y-44950402D01*
X23487501Y-44890000D01*
X24687499Y-44890000D01*
X24687499Y-44040028D01*
X24687498Y-44040013D01*
X24677005Y-43937302D01*
X24621858Y-43770880D01*
X24621856Y-43770875D01*
X24529815Y-43621654D01*
X24405845Y-43497684D01*
X24256624Y-43405643D01*
X24256619Y-43405641D01*
X24090197Y-43350494D01*
X24090190Y-43350493D01*
X23987486Y-43340000D01*
X23137500Y-43340000D01*
X23137500Y-44539998D01*
X23077098Y-44514979D01*
X22951519Y-44490000D01*
X22823481Y-44490000D01*
X22697902Y-44514979D01*
X22637500Y-44539998D01*
X22637500Y-43340000D01*
X21787528Y-43340000D01*
X21787512Y-43340001D01*
X21684802Y-43350494D01*
X21518380Y-43405641D01*
X21518375Y-43405643D01*
X21369154Y-43497684D01*
X21245184Y-43621654D01*
X21153143Y-43770875D01*
X21153141Y-43770880D01*
X21097994Y-43937302D01*
X21097993Y-43937309D01*
X21087500Y-44040013D01*
X16660500Y-44040013D01*
X16660500Y-21442155D01*
X17770000Y-21442155D01*
X17770000Y-22090000D01*
X18686988Y-22090000D01*
X18654075Y-22147007D01*
X18620000Y-22274174D01*
X18620000Y-22405826D01*
X18654075Y-22532993D01*
X18686988Y-22590000D01*
X17770000Y-22590000D01*
X17770000Y-23237844D01*
X17776401Y-23297372D01*
X17776403Y-23297379D01*
X17826645Y-23432086D01*
X17826649Y-23432093D01*
X17912809Y-23547187D01*
X17912812Y-23547190D01*
X18027906Y-23633350D01*
X18027913Y-23633354D01*
X18162620Y-23683596D01*
X18162627Y-23683598D01*
X18222155Y-23689999D01*
X18222172Y-23690000D01*
X18870000Y-23690000D01*
X18870000Y-22773012D01*
X18927007Y-22805925D01*
X19054174Y-22840000D01*
X19185826Y-22840000D01*
X19312993Y-22805925D01*
X19370000Y-22773012D01*
X19370000Y-23690000D01*
X20017828Y-23690000D01*
X20017844Y-23689999D01*
X20077372Y-23683598D01*
X20077379Y-23683596D01*
X20212086Y-23633354D01*
X20212093Y-23633350D01*
X20327187Y-23547190D01*
X20327190Y-23547187D01*
X20413350Y-23432093D01*
X20413354Y-23432086D01*
X20462422Y-23300529D01*
X20504293Y-23244595D01*
X20569757Y-23220178D01*
X20638030Y-23235030D01*
X20666285Y-23256181D01*
X20780213Y-23370109D01*
X20952179Y-23495048D01*
X20952181Y-23495049D01*
X20952184Y-23495051D01*
X21141588Y-23591557D01*
X21343757Y-23657246D01*
X21553713Y-23690500D01*
X21553714Y-23690500D01*
X21766286Y-23690500D01*
X21766287Y-23690500D01*
X21976243Y-23657246D01*
X22178412Y-23591557D01*
X22367816Y-23495051D01*
X22454138Y-23432335D01*
X22539786Y-23370109D01*
X22539788Y-23370106D01*
X22539792Y-23370104D01*
X22690104Y-23219792D01*
X22690106Y-23219788D01*
X22690109Y-23219786D01*
X22815048Y-23047820D01*
X22815047Y-23047820D01*
X22815051Y-23047816D01*
X22819514Y-23039054D01*
X22867488Y-22988259D01*
X22935308Y-22971463D01*
X23001444Y-22993999D01*
X23040486Y-23039056D01*
X23044951Y-23047820D01*
X23169890Y-23219786D01*
X23320213Y-23370109D01*
X23492179Y-23495048D01*
X23492181Y-23495049D01*
X23492184Y-23495051D01*
X23681588Y-23591557D01*
X23883757Y-23657246D01*
X24093713Y-23690500D01*
X24093714Y-23690500D01*
X24306286Y-23690500D01*
X24306287Y-23690500D01*
X24516243Y-23657246D01*
X24718412Y-23591557D01*
X24907816Y-23495051D01*
X24994138Y-23432335D01*
X25079786Y-23370109D01*
X25079788Y-23370106D01*
X25079792Y-23370104D01*
X25230104Y-23219792D01*
X25230106Y-23219788D01*
X25230109Y-23219786D01*
X25355048Y-23047820D01*
X25355047Y-23047820D01*
X25355051Y-23047816D01*
X25359514Y-23039054D01*
X25407488Y-22988259D01*
X25475308Y-22971463D01*
X25541444Y-22993999D01*
X25580486Y-23039056D01*
X25584951Y-23047820D01*
X25709890Y-23219786D01*
X25860213Y-23370109D01*
X26032179Y-23495048D01*
X26032181Y-23495049D01*
X26032184Y-23495051D01*
X26221588Y-23591557D01*
X26423757Y-23657246D01*
X26633713Y-23690500D01*
X26633714Y-23690500D01*
X26846286Y-23690500D01*
X26846287Y-23690500D01*
X27056243Y-23657246D01*
X27258412Y-23591557D01*
X27447816Y-23495051D01*
X27534138Y-23432335D01*
X27619786Y-23370109D01*
X27619788Y-23370106D01*
X27619792Y-23370104D01*
X27770104Y-23219792D01*
X27770106Y-23219788D01*
X27770109Y-23219786D01*
X27895048Y-23047820D01*
X27895047Y-23047820D01*
X27895051Y-23047816D01*
X27899514Y-23039054D01*
X27947488Y-22988259D01*
X28015308Y-22971463D01*
X28081444Y-22993999D01*
X28120486Y-23039056D01*
X28124951Y-23047820D01*
X28249890Y-23219786D01*
X28400213Y-23370109D01*
X28572184Y-23495051D01*
X28572184Y-23495052D01*
X28611793Y-23515233D01*
X28622856Y-23525681D01*
X28636703Y-23532005D01*
X28647744Y-23549185D01*
X28662590Y-23563206D01*
X28666831Y-23578886D01*
X28674477Y-23590783D01*
X28679500Y-23625718D01*
X28679500Y-23719902D01*
X28659815Y-23786941D01*
X28643181Y-23807583D01*
X27247584Y-25203181D01*
X27186261Y-25236666D01*
X27159903Y-25239500D01*
X20746670Y-25239500D01*
X20746654Y-25239499D01*
X20739058Y-25239499D01*
X20580943Y-25239499D01*
X20516421Y-25256788D01*
X20428214Y-25280423D01*
X20428209Y-25280426D01*
X20291290Y-25359475D01*
X20291282Y-25359481D01*
X19179479Y-26471284D01*
X19160436Y-26504268D01*
X19152387Y-26518211D01*
X19100423Y-26608215D01*
X19059499Y-26760943D01*
X19059499Y-26919057D01*
X19059499Y-26919059D01*
X19059500Y-26929053D01*
X19059500Y-34653330D01*
X19059499Y-34653348D01*
X19059499Y-34819054D01*
X19059498Y-34819054D01*
X19070688Y-34860814D01*
X19100423Y-34971785D01*
X19120468Y-35006503D01*
X19145228Y-35049389D01*
X19179479Y-35108715D01*
X19298349Y-35227585D01*
X19298354Y-35227589D01*
X23391284Y-39320520D01*
X23391286Y-39320521D01*
X23391290Y-39320524D01*
X23518563Y-39394004D01*
X23528216Y-39399577D01*
X23577105Y-39412676D01*
X23632691Y-39444770D01*
X23649707Y-39461786D01*
X23649711Y-39461789D01*
X23780814Y-39549390D01*
X23780827Y-39549397D01*
X23873590Y-39587820D01*
X23926503Y-39609737D01*
X24081153Y-39640499D01*
X24081156Y-39640500D01*
X24081158Y-39640500D01*
X24238844Y-39640500D01*
X24238845Y-39640499D01*
X24393497Y-39609737D01*
X24539179Y-39549394D01*
X24670289Y-39461789D01*
X24781789Y-39350289D01*
X24869394Y-39219179D01*
X24929737Y-39073497D01*
X24960500Y-38918842D01*
X24960500Y-38761158D01*
X24960500Y-38761155D01*
X24960499Y-38761153D01*
X24943255Y-38674463D01*
X24929737Y-38606503D01*
X24912033Y-38563761D01*
X24869397Y-38460827D01*
X24869390Y-38460814D01*
X24781789Y-38329711D01*
X24781786Y-38329707D01*
X24670292Y-38218213D01*
X24670288Y-38218210D01*
X24539185Y-38130609D01*
X24539172Y-38130602D01*
X24393501Y-38070264D01*
X24393489Y-38070261D01*
X24238845Y-38039500D01*
X24238842Y-38039500D01*
X24081158Y-38039500D01*
X24081156Y-38039500D01*
X23920530Y-38071451D01*
X23920051Y-38069046D01*
X23860944Y-38069544D01*
X23807194Y-38037958D01*
X22030389Y-36261153D01*
X23359500Y-36261153D01*
X23359500Y-36418846D01*
X23390261Y-36573489D01*
X23390264Y-36573501D01*
X23450602Y-36719172D01*
X23450609Y-36719185D01*
X23538210Y-36850288D01*
X23538213Y-36850292D01*
X23649707Y-36961786D01*
X23649711Y-36961789D01*
X23780814Y-37049390D01*
X23780827Y-37049397D01*
X23926498Y-37109735D01*
X23926503Y-37109737D01*
X24081153Y-37140499D01*
X24081156Y-37140500D01*
X24081158Y-37140500D01*
X24238844Y-37140500D01*
X24238845Y-37140499D01*
X24393497Y-37109737D01*
X24539179Y-37049394D01*
X24670289Y-36961789D01*
X24781789Y-36850289D01*
X24869394Y-36719179D01*
X24929737Y-36573497D01*
X24960500Y-36418842D01*
X24960500Y-36261158D01*
X24960500Y-36261155D01*
X24960499Y-36261153D01*
X24944633Y-36181389D01*
X24929737Y-36106503D01*
X24902398Y-36040500D01*
X24869397Y-35960827D01*
X24869390Y-35960814D01*
X24781398Y-35829125D01*
X24760520Y-35762447D01*
X24760500Y-35760234D01*
X24760500Y-29262940D01*
X24780185Y-29195901D01*
X24796815Y-29175262D01*
X24821789Y-29150289D01*
X24909394Y-29019179D01*
X24969737Y-28873497D01*
X25000500Y-28718842D01*
X25000500Y-28561158D01*
X25000500Y-28561155D01*
X25000499Y-28561153D01*
X24983061Y-28473489D01*
X24969737Y-28406503D01*
X24933427Y-28318842D01*
X24909397Y-28260827D01*
X24909390Y-28260814D01*
X24821789Y-28129711D01*
X24821786Y-28129707D01*
X24710292Y-28018213D01*
X24710288Y-28018210D01*
X24579185Y-27930609D01*
X24579172Y-27930602D01*
X24433501Y-27870264D01*
X24433489Y-27870261D01*
X24278845Y-27839500D01*
X24278842Y-27839500D01*
X24121158Y-27839500D01*
X24121155Y-27839500D01*
X23966510Y-27870261D01*
X23966498Y-27870264D01*
X23820827Y-27930602D01*
X23820814Y-27930609D01*
X23689711Y-28018210D01*
X23689707Y-28018213D01*
X23578213Y-28129707D01*
X23578210Y-28129711D01*
X23490609Y-28260814D01*
X23490602Y-28260827D01*
X23430264Y-28406498D01*
X23430261Y-28406510D01*
X23399500Y-28561153D01*
X23399500Y-28718846D01*
X23430261Y-28873489D01*
X23430264Y-28873501D01*
X23490602Y-29019172D01*
X23490609Y-29019184D01*
X23538602Y-29091010D01*
X23559480Y-29157687D01*
X23559500Y-29159901D01*
X23559500Y-35760234D01*
X23539815Y-35827273D01*
X23538602Y-35829125D01*
X23450609Y-35960814D01*
X23450602Y-35960827D01*
X23390264Y-36106498D01*
X23390261Y-36106510D01*
X23359500Y-36261153D01*
X22030389Y-36261153D01*
X20296819Y-34527583D01*
X20263334Y-34466260D01*
X20260500Y-34439902D01*
X20260500Y-27140097D01*
X20280185Y-27073058D01*
X20296819Y-27052416D01*
X20872417Y-26476819D01*
X20933740Y-26443334D01*
X20960098Y-26440500D01*
X27373333Y-26440500D01*
X27380939Y-26440500D01*
X27380943Y-26440501D01*
X27435501Y-26440501D01*
X27469821Y-26450579D01*
X27502538Y-26460186D01*
X27502540Y-26460187D01*
X27548294Y-26512991D01*
X27548295Y-26513001D01*
X27559499Y-26564501D01*
X27559499Y-26729046D01*
X27559500Y-26729059D01*
X27559500Y-30136560D01*
X27539815Y-30203599D01*
X27487011Y-30249354D01*
X27417853Y-30259298D01*
X27354297Y-30230273D01*
X27332398Y-30205451D01*
X27281789Y-30129711D01*
X27281786Y-30129707D01*
X27170292Y-30018213D01*
X27170288Y-30018210D01*
X27039185Y-29930609D01*
X27039172Y-29930602D01*
X26893501Y-29870264D01*
X26893489Y-29870261D01*
X26738845Y-29839500D01*
X26738842Y-29839500D01*
X26581158Y-29839500D01*
X26581155Y-29839500D01*
X26426510Y-29870261D01*
X26426498Y-29870264D01*
X26280827Y-29930602D01*
X26280814Y-29930609D01*
X26149711Y-30018210D01*
X26149707Y-30018213D01*
X26038213Y-30129707D01*
X26038210Y-30129711D01*
X25950609Y-30260814D01*
X25950602Y-30260827D01*
X25890264Y-30406498D01*
X25890261Y-30406510D01*
X25859500Y-30561153D01*
X25859500Y-30718846D01*
X25890261Y-30873489D01*
X25890264Y-30873501D01*
X25950602Y-31019172D01*
X25950609Y-31019185D01*
X26038602Y-31150874D01*
X26059480Y-31217551D01*
X26059500Y-31219765D01*
X26059500Y-37760234D01*
X26039815Y-37827273D01*
X26038602Y-37829125D01*
X25950609Y-37960814D01*
X25950602Y-37960827D01*
X25890264Y-38106498D01*
X25890261Y-38106510D01*
X25859500Y-38261153D01*
X25859500Y-38418846D01*
X25890261Y-38573489D01*
X25890264Y-38573501D01*
X25950602Y-38719172D01*
X25950609Y-38719185D01*
X26038210Y-38850288D01*
X26038213Y-38850292D01*
X26149707Y-38961786D01*
X26149711Y-38961789D01*
X26280814Y-39049390D01*
X26280827Y-39049397D01*
X26426498Y-39109735D01*
X26426503Y-39109737D01*
X26556866Y-39135668D01*
X26581153Y-39140499D01*
X26581156Y-39140500D01*
X26581158Y-39140500D01*
X26738844Y-39140500D01*
X26738845Y-39140499D01*
X26893497Y-39109737D01*
X27039179Y-39049394D01*
X27170289Y-38961789D01*
X27281789Y-38850289D01*
X27332398Y-38774548D01*
X27386010Y-38729743D01*
X27455335Y-38721036D01*
X27518363Y-38751190D01*
X27555082Y-38810634D01*
X27559500Y-38843439D01*
X27559500Y-42953330D01*
X27559499Y-42953348D01*
X27559499Y-43119054D01*
X27559498Y-43119054D01*
X27595170Y-43252180D01*
X27600423Y-43271785D01*
X27620468Y-43306503D01*
X27652385Y-43361786D01*
X27679479Y-43408715D01*
X27798349Y-43527585D01*
X27798355Y-43527590D01*
X28595139Y-44324374D01*
X28595149Y-44324385D01*
X28599479Y-44328715D01*
X28599480Y-44328716D01*
X28711284Y-44440520D01*
X28711286Y-44440521D01*
X28711290Y-44440524D01*
X28802330Y-44493085D01*
X28848216Y-44519577D01*
X28960019Y-44549534D01*
X29000942Y-44560500D01*
X29000943Y-44560500D01*
X29374281Y-44560500D01*
X29441320Y-44580185D01*
X29484765Y-44628205D01*
X29504947Y-44667814D01*
X29504948Y-44667815D01*
X29629890Y-44839786D01*
X29780213Y-44990109D01*
X29952182Y-45115050D01*
X29960946Y-45119516D01*
X30011742Y-45167491D01*
X30028536Y-45235312D01*
X30005998Y-45301447D01*
X29960946Y-45340484D01*
X29952182Y-45344949D01*
X29780213Y-45469890D01*
X29629890Y-45620213D01*
X29504951Y-45792179D01*
X29408444Y-45981585D01*
X29342753Y-46183760D01*
X29309500Y-46393713D01*
X29309500Y-46606286D01*
X29342753Y-46816239D01*
X29342753Y-46816241D01*
X29342754Y-46816243D01*
X29389490Y-46960082D01*
X29408444Y-47018414D01*
X29504951Y-47207820D01*
X29629890Y-47379786D01*
X29780213Y-47530109D01*
X29952182Y-47655050D01*
X29960946Y-47659516D01*
X30011742Y-47707491D01*
X30028536Y-47775312D01*
X30005998Y-47841447D01*
X29960946Y-47880484D01*
X29952182Y-47884949D01*
X29780213Y-48009890D01*
X29629890Y-48160213D01*
X29504951Y-48332179D01*
X29408444Y-48521585D01*
X29342753Y-48723760D01*
X29309500Y-48933713D01*
X29309500Y-49146286D01*
X29340491Y-49341959D01*
X29342754Y-49356243D01*
X29394905Y-49516748D01*
X29408444Y-49558414D01*
X29504951Y-49747820D01*
X29629890Y-49919786D01*
X29780213Y-50070109D01*
X29952179Y-50195048D01*
X29952181Y-50195049D01*
X29952184Y-50195051D01*
X30141588Y-50291557D01*
X30343757Y-50357246D01*
X30553713Y-50390500D01*
X30553714Y-50390500D01*
X30766286Y-50390500D01*
X30766287Y-50390500D01*
X30976243Y-50357246D01*
X31178412Y-50291557D01*
X31367816Y-50195051D01*
X31429426Y-50150289D01*
X31539786Y-50070109D01*
X31539788Y-50070106D01*
X31539792Y-50070104D01*
X31690104Y-49919792D01*
X31690106Y-49919788D01*
X31690109Y-49919786D01*
X31815048Y-49747820D01*
X31815047Y-49747820D01*
X31815051Y-49747816D01*
X31911557Y-49558412D01*
X31977246Y-49356243D01*
X32010500Y-49146287D01*
X32010500Y-48933713D01*
X32010500Y-48933712D01*
X32001116Y-48874463D01*
X31999008Y-48861153D01*
X36759500Y-48861153D01*
X36759500Y-49018846D01*
X36790261Y-49173489D01*
X36790264Y-49173501D01*
X36850602Y-49319172D01*
X36850609Y-49319185D01*
X36938210Y-49450288D01*
X36938213Y-49450292D01*
X37049707Y-49561786D01*
X37049711Y-49561789D01*
X37180814Y-49649390D01*
X37180827Y-49649397D01*
X37326498Y-49709735D01*
X37326503Y-49709737D01*
X37481153Y-49740499D01*
X37481156Y-49740500D01*
X37481158Y-49740500D01*
X37638844Y-49740500D01*
X37638845Y-49740499D01*
X37793497Y-49709737D01*
X37939179Y-49649394D01*
X38070289Y-49561789D01*
X38181789Y-49450289D01*
X38269394Y-49319179D01*
X38329737Y-49173497D01*
X38360500Y-49018842D01*
X38360500Y-48861158D01*
X38360500Y-48861155D01*
X38360499Y-48861153D01*
X38348274Y-48799695D01*
X38329737Y-48706503D01*
X38329192Y-48705187D01*
X38269397Y-48560827D01*
X38269390Y-48560814D01*
X38181789Y-48429711D01*
X38181786Y-48429707D01*
X38070292Y-48318213D01*
X38070288Y-48318210D01*
X37939185Y-48230609D01*
X37939172Y-48230602D01*
X37793501Y-48170264D01*
X37793489Y-48170261D01*
X37638845Y-48139500D01*
X37638842Y-48139500D01*
X37481158Y-48139500D01*
X37481155Y-48139500D01*
X37326510Y-48170261D01*
X37326498Y-48170264D01*
X37180827Y-48230602D01*
X37180814Y-48230609D01*
X37049711Y-48318210D01*
X37049707Y-48318213D01*
X36938213Y-48429707D01*
X36938210Y-48429711D01*
X36850609Y-48560814D01*
X36850602Y-48560827D01*
X36790264Y-48706498D01*
X36790261Y-48706510D01*
X36759500Y-48861153D01*
X31999008Y-48861153D01*
X31986694Y-48783408D01*
X31977246Y-48723757D01*
X31911557Y-48521588D01*
X31815051Y-48332184D01*
X31815049Y-48332181D01*
X31815048Y-48332179D01*
X31690109Y-48160213D01*
X31539786Y-48009890D01*
X31367820Y-47884951D01*
X31367115Y-47884591D01*
X31359054Y-47880485D01*
X31308259Y-47832512D01*
X31291463Y-47764692D01*
X31313999Y-47698556D01*
X31359054Y-47659515D01*
X31367816Y-47655051D01*
X31447999Y-47596795D01*
X31539786Y-47530109D01*
X31539788Y-47530106D01*
X31539792Y-47530104D01*
X31608743Y-47461153D01*
X32959500Y-47461153D01*
X32959500Y-47618846D01*
X32990261Y-47773489D01*
X32990264Y-47773501D01*
X33050602Y-47919172D01*
X33050609Y-47919185D01*
X33138210Y-48050288D01*
X33138213Y-48050292D01*
X33249707Y-48161786D01*
X33249711Y-48161789D01*
X33380814Y-48249390D01*
X33380827Y-48249397D01*
X33526498Y-48309735D01*
X33526503Y-48309737D01*
X33639326Y-48332179D01*
X33681153Y-48340499D01*
X33681156Y-48340500D01*
X33681158Y-48340500D01*
X33838844Y-48340500D01*
X33838845Y-48340499D01*
X33993497Y-48309737D01*
X34139179Y-48249394D01*
X34270289Y-48161789D01*
X34381789Y-48050289D01*
X34469394Y-47919179D01*
X34529737Y-47773497D01*
X34560500Y-47618842D01*
X34560500Y-47461158D01*
X34560500Y-47461155D01*
X34560499Y-47461153D01*
X34544315Y-47379792D01*
X34529737Y-47306503D01*
X34529735Y-47306498D01*
X34469397Y-47160827D01*
X34469390Y-47160814D01*
X34381789Y-47029711D01*
X34381786Y-47029707D01*
X34270292Y-46918213D01*
X34270288Y-46918210D01*
X34139185Y-46830609D01*
X34139172Y-46830602D01*
X33993501Y-46770264D01*
X33993489Y-46770261D01*
X33838845Y-46739500D01*
X33838842Y-46739500D01*
X33681158Y-46739500D01*
X33681155Y-46739500D01*
X33526510Y-46770261D01*
X33526498Y-46770264D01*
X33380827Y-46830602D01*
X33380814Y-46830609D01*
X33249711Y-46918210D01*
X33249707Y-46918213D01*
X33138213Y-47029707D01*
X33138210Y-47029711D01*
X33050609Y-47160814D01*
X33050602Y-47160827D01*
X32990264Y-47306498D01*
X32990261Y-47306510D01*
X32959500Y-47461153D01*
X31608743Y-47461153D01*
X31690104Y-47379792D01*
X31815051Y-47207816D01*
X31911557Y-47018412D01*
X31977246Y-46816243D01*
X32010500Y-46606287D01*
X32010500Y-46393713D01*
X31977246Y-46183757D01*
X31911557Y-45981588D01*
X31815051Y-45792184D01*
X31815049Y-45792181D01*
X31815048Y-45792179D01*
X31690109Y-45620213D01*
X31539786Y-45469890D01*
X31367820Y-45344951D01*
X31367115Y-45344591D01*
X31359054Y-45340485D01*
X31308259Y-45292512D01*
X31291463Y-45224692D01*
X31313999Y-45158556D01*
X31359054Y-45119515D01*
X31367816Y-45115051D01*
X31421592Y-45075981D01*
X31539786Y-44990109D01*
X31539788Y-44990106D01*
X31539792Y-44990104D01*
X31690104Y-44839792D01*
X31690106Y-44839788D01*
X31690109Y-44839786D01*
X31815048Y-44667820D01*
X31815047Y-44667820D01*
X31815051Y-44667816D01*
X31911557Y-44478412D01*
X31977246Y-44276243D01*
X32010500Y-44066287D01*
X32010500Y-43853713D01*
X31977246Y-43643757D01*
X31911557Y-43441588D01*
X31815051Y-43252184D01*
X31815049Y-43252181D01*
X31815048Y-43252179D01*
X31690109Y-43080213D01*
X31539786Y-42929890D01*
X31367820Y-42804951D01*
X31367115Y-42804591D01*
X31359054Y-42800485D01*
X31308259Y-42752512D01*
X31291463Y-42684692D01*
X31313999Y-42618556D01*
X31359054Y-42579515D01*
X31367816Y-42575051D01*
X31416060Y-42540000D01*
X31539786Y-42450109D01*
X31539788Y-42450106D01*
X31539792Y-42450104D01*
X31690104Y-42299792D01*
X31690106Y-42299788D01*
X31690109Y-42299786D01*
X31815048Y-42127820D01*
X31815047Y-42127820D01*
X31815051Y-42127816D01*
X31911557Y-41938412D01*
X31977246Y-41736243D01*
X32010500Y-41526287D01*
X32010500Y-41313713D01*
X31977246Y-41103757D01*
X31911557Y-40901588D01*
X31815051Y-40712184D01*
X31815049Y-40712181D01*
X31815048Y-40712179D01*
X31690109Y-40540213D01*
X31539786Y-40389890D01*
X31367820Y-40264951D01*
X31361608Y-40261786D01*
X31359054Y-40260485D01*
X31308259Y-40212512D01*
X31291463Y-40144692D01*
X31313999Y-40078556D01*
X31359054Y-40039515D01*
X31367816Y-40035051D01*
X31407116Y-40006498D01*
X31539786Y-39910109D01*
X31539788Y-39910106D01*
X31539792Y-39910104D01*
X31690104Y-39759792D01*
X31690106Y-39759788D01*
X31690109Y-39759786D01*
X31815048Y-39587820D01*
X31815049Y-39587819D01*
X31815051Y-39587816D01*
X31911557Y-39398412D01*
X31977246Y-39196243D01*
X32010500Y-38986287D01*
X32010500Y-38773713D01*
X31977246Y-38563757D01*
X31911557Y-38361588D01*
X31815051Y-38172184D01*
X31815049Y-38172181D01*
X31815048Y-38172179D01*
X31690109Y-38000213D01*
X31539786Y-37849890D01*
X31367820Y-37724951D01*
X31367115Y-37724591D01*
X31359054Y-37720485D01*
X31308259Y-37672512D01*
X31291463Y-37604692D01*
X31313999Y-37538556D01*
X31359054Y-37499515D01*
X31367816Y-37495051D01*
X31414940Y-37460814D01*
X31539786Y-37370109D01*
X31539788Y-37370106D01*
X31539792Y-37370104D01*
X31690104Y-37219792D01*
X31690106Y-37219788D01*
X31690109Y-37219786D01*
X31813902Y-37049397D01*
X31815051Y-37047816D01*
X31911557Y-36858412D01*
X31977246Y-36656243D01*
X32010500Y-36446287D01*
X32010500Y-36233713D01*
X31977246Y-36023757D01*
X31911557Y-35821588D01*
X31815051Y-35632184D01*
X31815049Y-35632181D01*
X31815048Y-35632179D01*
X31690109Y-35460213D01*
X31539786Y-35309890D01*
X31367820Y-35184951D01*
X31367115Y-35184591D01*
X31359054Y-35180485D01*
X31308259Y-35132512D01*
X31291463Y-35064692D01*
X31313999Y-34998556D01*
X31359054Y-34959515D01*
X31367816Y-34955051D01*
X31422572Y-34915269D01*
X31539786Y-34830109D01*
X31539788Y-34830106D01*
X31539792Y-34830104D01*
X31690104Y-34679792D01*
X31690106Y-34679788D01*
X31690109Y-34679786D01*
X31815048Y-34507820D01*
X31815047Y-34507820D01*
X31815051Y-34507816D01*
X31911557Y-34318412D01*
X31977246Y-34116243D01*
X32010500Y-33906287D01*
X32010500Y-33693713D01*
X31977246Y-33483757D01*
X31911557Y-33281588D01*
X31815051Y-33092184D01*
X31815049Y-33092181D01*
X31815048Y-33092179D01*
X31690109Y-32920213D01*
X31576181Y-32806285D01*
X31542696Y-32744962D01*
X31547680Y-32675270D01*
X31589552Y-32619337D01*
X31620529Y-32602422D01*
X31752086Y-32553354D01*
X31752089Y-32553352D01*
X31861950Y-32471110D01*
X31927414Y-32446692D01*
X31995687Y-32461543D01*
X32010567Y-32471106D01*
X32107665Y-32543793D01*
X32107668Y-32543795D01*
X32107671Y-32543797D01*
X32242517Y-32594091D01*
X32242516Y-32594091D01*
X32249444Y-32594835D01*
X32302127Y-32600500D01*
X34097872Y-32600499D01*
X34157483Y-32594091D01*
X34292331Y-32543796D01*
X34407546Y-32457546D01*
X34493796Y-32342331D01*
X34542810Y-32210916D01*
X34584681Y-32154984D01*
X34650145Y-32130566D01*
X34718418Y-32145417D01*
X34746673Y-32166569D01*
X34860213Y-32280109D01*
X35032179Y-32405048D01*
X35032181Y-32405049D01*
X35032184Y-32405051D01*
X35221588Y-32501557D01*
X35423757Y-32567246D01*
X35633713Y-32600500D01*
X35633714Y-32600500D01*
X35846286Y-32600500D01*
X35846287Y-32600500D01*
X36056243Y-32567246D01*
X36258412Y-32501557D01*
X36447816Y-32405051D01*
X36534138Y-32342335D01*
X36619786Y-32280109D01*
X36619788Y-32280106D01*
X36619792Y-32280104D01*
X36770104Y-32129792D01*
X36770106Y-32129788D01*
X36770109Y-32129786D01*
X36895048Y-31957820D01*
X36895047Y-31957820D01*
X36895051Y-31957816D01*
X36925015Y-31899007D01*
X36972990Y-31848212D01*
X37040810Y-31831417D01*
X37106945Y-31853954D01*
X37150397Y-31908669D01*
X37159500Y-31955303D01*
X37159500Y-45853389D01*
X37159500Y-46026611D01*
X37163109Y-46049397D01*
X37182972Y-46174811D01*
X37186598Y-46197701D01*
X37240127Y-46362445D01*
X37318768Y-46516788D01*
X37420586Y-46656928D01*
X37420588Y-46656930D01*
X38103070Y-47339413D01*
X38103076Y-47339418D01*
X38158642Y-47379789D01*
X38158644Y-47379790D01*
X38158647Y-47379792D01*
X38203846Y-47412631D01*
X38243207Y-47441229D01*
X38243208Y-47441229D01*
X38243212Y-47441232D01*
X38359533Y-47500500D01*
X38359535Y-47500501D01*
X38397548Y-47519870D01*
X38397551Y-47519870D01*
X38397555Y-47519873D01*
X38562299Y-47573403D01*
X38709996Y-47596795D01*
X38733389Y-47600500D01*
X38733390Y-47600500D01*
X38906611Y-47600500D01*
X39996810Y-47600500D01*
X40015055Y-47605857D01*
X40034069Y-47606230D01*
X40058851Y-47618717D01*
X40063849Y-47620185D01*
X40065880Y-47621518D01*
X40067821Y-47622819D01*
X40112184Y-47655051D01*
X40127553Y-47662882D01*
X40133720Y-47667018D01*
X40151519Y-47688391D01*
X40171742Y-47707491D01*
X40173568Y-47714868D01*
X40178432Y-47720708D01*
X40181850Y-47748314D01*
X40188536Y-47775312D01*
X40186084Y-47782504D01*
X40187019Y-47790048D01*
X40174970Y-47815118D01*
X40165998Y-47841447D01*
X40159690Y-47846912D01*
X40156754Y-47853023D01*
X40142554Y-47861760D01*
X40120946Y-47880484D01*
X40112182Y-47884949D01*
X39940213Y-48009890D01*
X39789890Y-48160213D01*
X39664951Y-48332179D01*
X39568444Y-48521585D01*
X39502753Y-48723760D01*
X39469500Y-48933713D01*
X39469500Y-49146286D01*
X39500491Y-49341959D01*
X39502754Y-49356243D01*
X39554905Y-49516748D01*
X39568444Y-49558414D01*
X39664951Y-49747820D01*
X39789890Y-49919786D01*
X39940213Y-50070109D01*
X40112179Y-50195048D01*
X40112181Y-50195049D01*
X40112184Y-50195051D01*
X40301588Y-50291557D01*
X40503757Y-50357246D01*
X40713713Y-50390500D01*
X40713714Y-50390500D01*
X40926286Y-50390500D01*
X40926287Y-50390500D01*
X41136243Y-50357246D01*
X41338412Y-50291557D01*
X41527816Y-50195051D01*
X41589426Y-50150289D01*
X41699786Y-50070109D01*
X41699788Y-50070106D01*
X41699792Y-50070104D01*
X41850104Y-49919792D01*
X41850106Y-49919788D01*
X41850109Y-49919786D01*
X41975048Y-49747820D01*
X41975047Y-49747820D01*
X41975051Y-49747816D01*
X42071557Y-49558412D01*
X42137246Y-49356243D01*
X42170500Y-49146287D01*
X42170500Y-48933713D01*
X42137246Y-48723757D01*
X42071557Y-48521588D01*
X41975051Y-48332184D01*
X41975049Y-48332181D01*
X41975048Y-48332179D01*
X41850109Y-48160213D01*
X41699786Y-48009890D01*
X41527820Y-47884951D01*
X41527115Y-47884591D01*
X41519054Y-47880485D01*
X41468259Y-47832512D01*
X41451463Y-47764692D01*
X41473999Y-47698556D01*
X41519054Y-47659515D01*
X41527816Y-47655051D01*
X41607999Y-47596795D01*
X41699786Y-47530109D01*
X41699788Y-47530106D01*
X41699792Y-47530104D01*
X41850104Y-47379792D01*
X41850106Y-47379788D01*
X41850109Y-47379786D01*
X41975048Y-47207820D01*
X41975049Y-47207819D01*
X41975051Y-47207816D01*
X42071557Y-47018412D01*
X42137246Y-46816243D01*
X42170500Y-46606287D01*
X42170500Y-46393713D01*
X42137246Y-46183757D01*
X42071557Y-45981588D01*
X41975051Y-45792184D01*
X41975049Y-45792181D01*
X41975048Y-45792179D01*
X41850109Y-45620213D01*
X41699786Y-45469890D01*
X41527820Y-45344951D01*
X41527115Y-45344591D01*
X41519054Y-45340485D01*
X41468259Y-45292512D01*
X41451463Y-45224692D01*
X41473999Y-45158556D01*
X41519054Y-45119515D01*
X41527816Y-45115051D01*
X41581592Y-45075981D01*
X41699786Y-44990109D01*
X41699788Y-44990106D01*
X41699792Y-44990104D01*
X41850104Y-44839792D01*
X41850106Y-44839788D01*
X41850109Y-44839786D01*
X41975048Y-44667820D01*
X41975047Y-44667820D01*
X41975051Y-44667816D01*
X42071557Y-44478412D01*
X42137246Y-44276243D01*
X42170500Y-44066287D01*
X42170500Y-43853713D01*
X42137246Y-43643757D01*
X42077914Y-43461153D01*
X50259500Y-43461153D01*
X50259500Y-43618846D01*
X50290261Y-43773489D01*
X50290264Y-43773501D01*
X50350602Y-43919172D01*
X50350609Y-43919185D01*
X50438210Y-44050288D01*
X50438213Y-44050292D01*
X50549707Y-44161786D01*
X50549711Y-44161789D01*
X50680814Y-44249390D01*
X50680827Y-44249397D01*
X50826498Y-44309735D01*
X50826503Y-44309737D01*
X50981153Y-44340499D01*
X50981156Y-44340500D01*
X50981158Y-44340500D01*
X51138844Y-44340500D01*
X51138845Y-44340499D01*
X51293497Y-44309737D01*
X51439179Y-44249394D01*
X51570289Y-44161789D01*
X51681789Y-44050289D01*
X51769394Y-43919179D01*
X51829737Y-43773497D01*
X51860500Y-43618842D01*
X51860500Y-43461158D01*
X51860500Y-43461155D01*
X51860499Y-43461153D01*
X51855207Y-43434550D01*
X51829737Y-43306503D01*
X51822049Y-43287943D01*
X51769397Y-43160827D01*
X51769390Y-43160814D01*
X51681789Y-43029711D01*
X51681786Y-43029707D01*
X51570292Y-42918213D01*
X51570288Y-42918210D01*
X51439185Y-42830609D01*
X51439172Y-42830602D01*
X51293501Y-42770264D01*
X51293489Y-42770261D01*
X51138845Y-42739500D01*
X51138842Y-42739500D01*
X50981158Y-42739500D01*
X50981155Y-42739500D01*
X50826510Y-42770261D01*
X50826498Y-42770264D01*
X50680827Y-42830602D01*
X50680814Y-42830609D01*
X50549711Y-42918210D01*
X50549707Y-42918213D01*
X50438213Y-43029707D01*
X50438210Y-43029711D01*
X50350609Y-43160814D01*
X50350602Y-43160827D01*
X50290264Y-43306498D01*
X50290261Y-43306510D01*
X50259500Y-43461153D01*
X42077914Y-43461153D01*
X42071557Y-43441588D01*
X41975051Y-43252184D01*
X41975049Y-43252181D01*
X41975048Y-43252179D01*
X41850109Y-43080213D01*
X41699786Y-42929890D01*
X41527820Y-42804951D01*
X41527115Y-42804591D01*
X41519054Y-42800485D01*
X41468259Y-42752512D01*
X41451463Y-42684692D01*
X41473999Y-42618556D01*
X41519054Y-42579515D01*
X41527816Y-42575051D01*
X41576060Y-42540000D01*
X41699786Y-42450109D01*
X41699788Y-42450106D01*
X41699792Y-42450104D01*
X41850104Y-42299792D01*
X41850106Y-42299788D01*
X41850109Y-42299786D01*
X41975048Y-42127820D01*
X41975047Y-42127820D01*
X41975051Y-42127816D01*
X42071557Y-41938412D01*
X42137246Y-41736243D01*
X42170500Y-41526287D01*
X42170500Y-41313713D01*
X42137246Y-41103757D01*
X42071557Y-40901588D01*
X41975051Y-40712184D01*
X41975049Y-40712181D01*
X41975048Y-40712179D01*
X41850109Y-40540213D01*
X41699786Y-40389890D01*
X41527820Y-40264951D01*
X41521608Y-40261786D01*
X41519054Y-40260485D01*
X41468259Y-40212512D01*
X41451463Y-40144692D01*
X41473999Y-40078556D01*
X41519054Y-40039515D01*
X41527816Y-40035051D01*
X41567116Y-40006498D01*
X41699786Y-39910109D01*
X41699788Y-39910106D01*
X41699792Y-39910104D01*
X41850104Y-39759792D01*
X41850106Y-39759788D01*
X41850109Y-39759786D01*
X41975048Y-39587820D01*
X41975049Y-39587819D01*
X41975051Y-39587816D01*
X42071557Y-39398412D01*
X42137246Y-39196243D01*
X42170500Y-38986287D01*
X42170500Y-38773713D01*
X42152672Y-38661153D01*
X50259500Y-38661153D01*
X50259500Y-38818846D01*
X50290261Y-38973489D01*
X50290264Y-38973501D01*
X50350602Y-39119172D01*
X50350609Y-39119185D01*
X50438210Y-39250288D01*
X50438213Y-39250292D01*
X50549707Y-39361786D01*
X50549711Y-39361789D01*
X50680814Y-39449390D01*
X50680827Y-39449397D01*
X50826498Y-39509735D01*
X50826503Y-39509737D01*
X50981153Y-39540499D01*
X50981156Y-39540500D01*
X50981158Y-39540500D01*
X51138844Y-39540500D01*
X51138845Y-39540499D01*
X51293497Y-39509737D01*
X51439179Y-39449394D01*
X51570289Y-39361789D01*
X51681789Y-39250289D01*
X51769394Y-39119179D01*
X51829737Y-38973497D01*
X51860500Y-38818842D01*
X51860500Y-38661158D01*
X51860500Y-38661155D01*
X51860499Y-38661153D01*
X51841126Y-38563760D01*
X51829737Y-38506503D01*
X51829735Y-38506498D01*
X51769397Y-38360827D01*
X51769390Y-38360814D01*
X51681789Y-38229711D01*
X51681786Y-38229707D01*
X51570292Y-38118213D01*
X51570288Y-38118210D01*
X51439185Y-38030609D01*
X51439172Y-38030602D01*
X51293501Y-37970264D01*
X51293489Y-37970261D01*
X51138845Y-37939500D01*
X51138842Y-37939500D01*
X50981158Y-37939500D01*
X50981155Y-37939500D01*
X50826510Y-37970261D01*
X50826498Y-37970264D01*
X50680827Y-38030602D01*
X50680814Y-38030609D01*
X50549711Y-38118210D01*
X50549707Y-38118213D01*
X50438213Y-38229707D01*
X50438210Y-38229711D01*
X50350609Y-38360814D01*
X50350602Y-38360827D01*
X50290264Y-38506498D01*
X50290261Y-38506510D01*
X50259500Y-38661153D01*
X42152672Y-38661153D01*
X42144528Y-38609735D01*
X42137247Y-38563761D01*
X42137246Y-38563760D01*
X42137246Y-38563757D01*
X42071557Y-38361588D01*
X41975051Y-38172184D01*
X41975049Y-38172181D01*
X41975048Y-38172179D01*
X41850109Y-38000213D01*
X41699786Y-37849890D01*
X41527820Y-37724951D01*
X41527115Y-37724591D01*
X41519054Y-37720485D01*
X41468259Y-37672512D01*
X41451463Y-37604692D01*
X41473999Y-37538556D01*
X41519054Y-37499515D01*
X41527816Y-37495051D01*
X41574940Y-37460814D01*
X41699786Y-37370109D01*
X41699788Y-37370106D01*
X41699792Y-37370104D01*
X41850104Y-37219792D01*
X41850106Y-37219788D01*
X41850109Y-37219786D01*
X41973902Y-37049397D01*
X41975051Y-37047816D01*
X42071557Y-36858412D01*
X42137246Y-36656243D01*
X42168145Y-36461153D01*
X49959500Y-36461153D01*
X49959500Y-36618846D01*
X49990261Y-36773489D01*
X49990264Y-36773501D01*
X50050602Y-36919172D01*
X50050609Y-36919185D01*
X50138210Y-37050288D01*
X50138213Y-37050292D01*
X50249707Y-37161786D01*
X50249711Y-37161789D01*
X50380814Y-37249390D01*
X50380827Y-37249397D01*
X50526498Y-37309735D01*
X50526503Y-37309737D01*
X50681153Y-37340499D01*
X50681156Y-37340500D01*
X50681158Y-37340500D01*
X50838844Y-37340500D01*
X50838845Y-37340499D01*
X50993497Y-37309737D01*
X51139179Y-37249394D01*
X51270289Y-37161789D01*
X51381789Y-37050289D01*
X51469394Y-36919179D01*
X51529737Y-36773497D01*
X51560500Y-36618842D01*
X51560500Y-36461158D01*
X51560500Y-36461155D01*
X51560499Y-36461153D01*
X51557540Y-36446278D01*
X51529737Y-36306503D01*
X51510955Y-36261158D01*
X51499587Y-36233713D01*
X52149500Y-36233713D01*
X52149500Y-36446286D01*
X52181669Y-36649397D01*
X52182754Y-36656243D01*
X52245803Y-36850288D01*
X52248444Y-36858414D01*
X52344951Y-37047820D01*
X52469890Y-37219786D01*
X52620213Y-37370109D01*
X52792182Y-37495050D01*
X52800946Y-37499516D01*
X52851742Y-37547491D01*
X52868536Y-37615312D01*
X52845998Y-37681447D01*
X52800946Y-37720484D01*
X52792182Y-37724949D01*
X52620213Y-37849890D01*
X52469890Y-38000213D01*
X52344951Y-38172179D01*
X52248444Y-38361585D01*
X52182753Y-38563760D01*
X52149500Y-38773713D01*
X52149500Y-38986286D01*
X52177196Y-39161155D01*
X52182754Y-39196243D01*
X52236543Y-39361789D01*
X52248444Y-39398414D01*
X52344951Y-39587820D01*
X52469890Y-39759786D01*
X52620213Y-39910109D01*
X52792182Y-40035050D01*
X52800946Y-40039516D01*
X52851742Y-40087491D01*
X52868536Y-40155312D01*
X52845998Y-40221447D01*
X52800946Y-40260484D01*
X52792182Y-40264949D01*
X52620213Y-40389890D01*
X52469890Y-40540213D01*
X52344951Y-40712179D01*
X52248444Y-40901585D01*
X52182753Y-41103760D01*
X52149500Y-41313713D01*
X52149500Y-41526286D01*
X52182595Y-41735244D01*
X52182754Y-41736243D01*
X52245523Y-41929426D01*
X52248444Y-41938414D01*
X52344951Y-42127820D01*
X52469890Y-42299786D01*
X52620213Y-42450109D01*
X52792182Y-42575050D01*
X52800946Y-42579516D01*
X52851742Y-42627491D01*
X52868536Y-42695312D01*
X52845998Y-42761447D01*
X52800946Y-42800484D01*
X52792182Y-42804949D01*
X52620213Y-42929890D01*
X52469890Y-43080213D01*
X52344951Y-43252179D01*
X52248444Y-43441585D01*
X52182753Y-43643760D01*
X52149500Y-43853713D01*
X52149500Y-44066286D01*
X52178501Y-44249394D01*
X52182754Y-44276243D01*
X52236132Y-44440524D01*
X52248444Y-44478414D01*
X52344951Y-44667820D01*
X52469890Y-44839786D01*
X52620213Y-44990109D01*
X52792182Y-45115050D01*
X52800946Y-45119516D01*
X52851742Y-45167491D01*
X52868536Y-45235312D01*
X52845998Y-45301447D01*
X52800946Y-45340484D01*
X52792182Y-45344949D01*
X52620213Y-45469890D01*
X52469890Y-45620213D01*
X52344951Y-45792179D01*
X52248444Y-45981585D01*
X52182753Y-46183760D01*
X52149500Y-46393713D01*
X52149500Y-46606286D01*
X52182753Y-46816239D01*
X52182753Y-46816241D01*
X52182754Y-46816243D01*
X52229490Y-46960082D01*
X52248444Y-47018414D01*
X52344951Y-47207820D01*
X52469890Y-47379786D01*
X52620213Y-47530109D01*
X52792182Y-47655050D01*
X52800946Y-47659516D01*
X52851742Y-47707491D01*
X52868536Y-47775312D01*
X52845998Y-47841447D01*
X52800946Y-47880484D01*
X52792182Y-47884949D01*
X52620213Y-48009890D01*
X52469890Y-48160213D01*
X52344951Y-48332179D01*
X52248444Y-48521585D01*
X52182753Y-48723760D01*
X52149500Y-48933713D01*
X52149500Y-49146286D01*
X52180491Y-49341959D01*
X52182754Y-49356243D01*
X52234905Y-49516748D01*
X52248444Y-49558414D01*
X52344951Y-49747820D01*
X52469890Y-49919786D01*
X52620213Y-50070109D01*
X52792179Y-50195048D01*
X52792181Y-50195049D01*
X52792184Y-50195051D01*
X52981588Y-50291557D01*
X53183757Y-50357246D01*
X53393713Y-50390500D01*
X53393714Y-50390500D01*
X53606286Y-50390500D01*
X53606287Y-50390500D01*
X53816243Y-50357246D01*
X54018412Y-50291557D01*
X54207816Y-50195051D01*
X54269426Y-50150289D01*
X54379786Y-50070109D01*
X54379788Y-50070106D01*
X54379792Y-50070104D01*
X54530104Y-49919792D01*
X54530106Y-49919788D01*
X54530109Y-49919786D01*
X54655048Y-49747820D01*
X54655047Y-49747820D01*
X54655051Y-49747816D01*
X54699208Y-49661153D01*
X55459500Y-49661153D01*
X55459500Y-49818846D01*
X55490261Y-49973489D01*
X55490264Y-49973501D01*
X55550602Y-50119172D01*
X55550609Y-50119185D01*
X55638210Y-50250288D01*
X55638213Y-50250292D01*
X55749707Y-50361786D01*
X55749711Y-50361789D01*
X55880814Y-50449390D01*
X55880827Y-50449397D01*
X56026498Y-50509735D01*
X56026503Y-50509737D01*
X56178649Y-50540001D01*
X56181153Y-50540499D01*
X56181156Y-50540500D01*
X56181158Y-50540500D01*
X56338844Y-50540500D01*
X56338845Y-50540499D01*
X56493497Y-50509737D01*
X56639179Y-50449394D01*
X56770289Y-50361789D01*
X56881789Y-50250289D01*
X56969394Y-50119179D01*
X57029737Y-49973497D01*
X57060500Y-49818842D01*
X57060500Y-49661158D01*
X57060500Y-49661155D01*
X57060499Y-49661153D01*
X57058159Y-49649390D01*
X57029737Y-49506503D01*
X57010955Y-49461158D01*
X56969397Y-49360827D01*
X56969390Y-49360814D01*
X56881789Y-49229711D01*
X56881786Y-49229707D01*
X56770292Y-49118213D01*
X56770288Y-49118210D01*
X56639185Y-49030609D01*
X56639172Y-49030602D01*
X56493501Y-48970264D01*
X56493489Y-48970261D01*
X56338845Y-48939500D01*
X56338842Y-48939500D01*
X56181158Y-48939500D01*
X56181155Y-48939500D01*
X56026510Y-48970261D01*
X56026498Y-48970264D01*
X55880827Y-49030602D01*
X55880814Y-49030609D01*
X55749711Y-49118210D01*
X55749707Y-49118213D01*
X55638213Y-49229707D01*
X55638210Y-49229711D01*
X55550609Y-49360814D01*
X55550602Y-49360827D01*
X55490264Y-49506498D01*
X55490261Y-49506510D01*
X55459500Y-49661153D01*
X54699208Y-49661153D01*
X54751557Y-49558412D01*
X54817246Y-49356243D01*
X54850500Y-49146287D01*
X54850500Y-48933713D01*
X54817246Y-48723757D01*
X54751557Y-48521588D01*
X54655051Y-48332184D01*
X54655049Y-48332181D01*
X54655048Y-48332179D01*
X54530109Y-48160213D01*
X54379786Y-48009890D01*
X54207820Y-47884951D01*
X54207115Y-47884591D01*
X54199054Y-47880485D01*
X54148259Y-47832512D01*
X54131463Y-47764692D01*
X54153999Y-47698556D01*
X54199054Y-47659515D01*
X54207816Y-47655051D01*
X54287999Y-47596795D01*
X54379786Y-47530109D01*
X54379788Y-47530106D01*
X54379792Y-47530104D01*
X54530104Y-47379792D01*
X54530106Y-47379788D01*
X54530109Y-47379786D01*
X54655048Y-47207820D01*
X54655049Y-47207819D01*
X54655051Y-47207816D01*
X54751557Y-47018412D01*
X54802654Y-46861153D01*
X55159500Y-46861153D01*
X55159500Y-47018846D01*
X55190261Y-47173489D01*
X55190264Y-47173501D01*
X55250602Y-47319172D01*
X55250609Y-47319185D01*
X55338210Y-47450288D01*
X55338213Y-47450292D01*
X55449707Y-47561786D01*
X55449711Y-47561789D01*
X55580814Y-47649390D01*
X55580827Y-47649397D01*
X55726498Y-47709735D01*
X55726503Y-47709737D01*
X55881153Y-47740499D01*
X55881156Y-47740500D01*
X55881158Y-47740500D01*
X56038844Y-47740500D01*
X56038845Y-47740499D01*
X56193497Y-47709737D01*
X56339179Y-47649394D01*
X56470289Y-47561789D01*
X56581789Y-47450289D01*
X56669394Y-47319179D01*
X56729737Y-47173497D01*
X56760500Y-47018842D01*
X56760500Y-46861158D01*
X56760500Y-46861155D01*
X56760499Y-46861153D01*
X56736499Y-46740498D01*
X56729737Y-46706503D01*
X56729364Y-46705602D01*
X56669397Y-46560827D01*
X56669390Y-46560814D01*
X56581789Y-46429711D01*
X56581786Y-46429707D01*
X56470292Y-46318213D01*
X56470288Y-46318210D01*
X56339185Y-46230609D01*
X56339172Y-46230602D01*
X56193501Y-46170264D01*
X56193489Y-46170261D01*
X56038845Y-46139500D01*
X56038842Y-46139500D01*
X55881158Y-46139500D01*
X55881155Y-46139500D01*
X55726510Y-46170261D01*
X55726498Y-46170264D01*
X55580827Y-46230602D01*
X55580814Y-46230609D01*
X55449711Y-46318210D01*
X55449707Y-46318213D01*
X55338213Y-46429707D01*
X55338210Y-46429711D01*
X55250609Y-46560814D01*
X55250602Y-46560827D01*
X55190264Y-46706498D01*
X55190261Y-46706510D01*
X55159500Y-46861153D01*
X54802654Y-46861153D01*
X54817246Y-46816243D01*
X54850500Y-46606287D01*
X54850500Y-46393713D01*
X54817246Y-46183757D01*
X54751557Y-45981588D01*
X54655051Y-45792184D01*
X54655049Y-45792181D01*
X54655048Y-45792179D01*
X54530109Y-45620213D01*
X54379786Y-45469890D01*
X54207820Y-45344951D01*
X54207115Y-45344591D01*
X54199054Y-45340485D01*
X54148259Y-45292512D01*
X54131463Y-45224692D01*
X54153999Y-45158556D01*
X54199054Y-45119515D01*
X54207816Y-45115051D01*
X54261592Y-45075981D01*
X54379786Y-44990109D01*
X54379788Y-44990106D01*
X54379792Y-44990104D01*
X54530104Y-44839792D01*
X54530106Y-44839788D01*
X54530109Y-44839786D01*
X54655048Y-44667820D01*
X54655047Y-44667820D01*
X54655051Y-44667816D01*
X54751557Y-44478412D01*
X54817246Y-44276243D01*
X54850500Y-44066287D01*
X54850500Y-43853713D01*
X54817246Y-43643757D01*
X54751557Y-43441588D01*
X54655051Y-43252184D01*
X54655049Y-43252181D01*
X54655048Y-43252179D01*
X54530109Y-43080213D01*
X54379786Y-42929890D01*
X54207820Y-42804951D01*
X54207115Y-42804591D01*
X54199054Y-42800485D01*
X54194834Y-42796499D01*
X54189251Y-42794914D01*
X54169723Y-42772783D01*
X54148259Y-42752512D01*
X54146863Y-42746876D01*
X54143023Y-42742524D01*
X54138559Y-42713345D01*
X54131463Y-42684692D01*
X54133335Y-42679197D01*
X54132457Y-42673458D01*
X54137943Y-42661153D01*
X55259500Y-42661153D01*
X55259500Y-42818846D01*
X55290261Y-42973489D01*
X55290264Y-42973501D01*
X55350602Y-43119172D01*
X55350609Y-43119185D01*
X55438210Y-43250288D01*
X55438213Y-43250292D01*
X55549707Y-43361786D01*
X55549711Y-43361789D01*
X55680814Y-43449390D01*
X55680827Y-43449397D01*
X55787023Y-43493384D01*
X55826503Y-43509737D01*
X55981153Y-43540499D01*
X55981156Y-43540500D01*
X55981158Y-43540500D01*
X56138844Y-43540500D01*
X56138845Y-43540499D01*
X56293497Y-43509737D01*
X56439179Y-43449394D01*
X56570289Y-43361789D01*
X56681789Y-43250289D01*
X56769394Y-43119179D01*
X56829737Y-42973497D01*
X56860500Y-42818842D01*
X56860500Y-42661158D01*
X56860500Y-42661155D01*
X56860499Y-42661153D01*
X56843372Y-42575050D01*
X56829737Y-42506503D01*
X56806378Y-42450109D01*
X56769397Y-42360827D01*
X56769390Y-42360814D01*
X56681789Y-42229711D01*
X56681786Y-42229707D01*
X56570292Y-42118213D01*
X56570288Y-42118210D01*
X56439185Y-42030609D01*
X56439172Y-42030602D01*
X56293501Y-41970264D01*
X56293489Y-41970261D01*
X56138845Y-41939500D01*
X56138842Y-41939500D01*
X55981158Y-41939500D01*
X55981155Y-41939500D01*
X55826510Y-41970261D01*
X55826498Y-41970264D01*
X55680827Y-42030602D01*
X55680814Y-42030609D01*
X55549711Y-42118210D01*
X55549707Y-42118213D01*
X55438213Y-42229707D01*
X55438210Y-42229711D01*
X55350609Y-42360814D01*
X55350602Y-42360827D01*
X55290264Y-42506498D01*
X55290261Y-42506510D01*
X55259500Y-42661153D01*
X54137943Y-42661153D01*
X54144478Y-42646494D01*
X54153999Y-42618556D01*
X54159159Y-42613566D01*
X54160909Y-42609644D01*
X54173528Y-42599676D01*
X54187374Y-42586292D01*
X54193029Y-42582585D01*
X54207816Y-42575051D01*
X54286052Y-42518210D01*
X54379785Y-42450109D01*
X54379783Y-42450109D01*
X54379792Y-42450104D01*
X54530104Y-42299792D01*
X54530106Y-42299788D01*
X54530109Y-42299786D01*
X54655048Y-42127820D01*
X54655047Y-42127820D01*
X54655051Y-42127816D01*
X54751557Y-41938412D01*
X54817246Y-41736243D01*
X54850500Y-41526287D01*
X54850500Y-41313713D01*
X54817246Y-41103757D01*
X54751557Y-40901588D01*
X54655051Y-40712184D01*
X54655049Y-40712181D01*
X54655048Y-40712179D01*
X54530109Y-40540213D01*
X54379786Y-40389890D01*
X54207820Y-40264951D01*
X54201608Y-40261786D01*
X54199054Y-40260485D01*
X54148259Y-40212512D01*
X54131463Y-40144692D01*
X54153999Y-40078556D01*
X54199054Y-40039515D01*
X54207816Y-40035051D01*
X54247116Y-40006498D01*
X54379786Y-39910109D01*
X54379788Y-39910106D01*
X54379792Y-39910104D01*
X54530104Y-39759792D01*
X54530106Y-39759788D01*
X54530109Y-39759786D01*
X54655048Y-39587820D01*
X54655049Y-39587819D01*
X54655051Y-39587816D01*
X54751557Y-39398412D01*
X54817246Y-39196243D01*
X54822804Y-39161153D01*
X55159500Y-39161153D01*
X55159500Y-39318846D01*
X55190261Y-39473489D01*
X55190264Y-39473501D01*
X55250602Y-39619172D01*
X55250609Y-39619185D01*
X55338210Y-39750288D01*
X55338213Y-39750292D01*
X55449707Y-39861786D01*
X55449711Y-39861789D01*
X55580814Y-39949390D01*
X55580827Y-39949397D01*
X55718683Y-40006498D01*
X55726503Y-40009737D01*
X55876201Y-40039514D01*
X55881153Y-40040499D01*
X55881156Y-40040500D01*
X55881158Y-40040500D01*
X56038844Y-40040500D01*
X56038845Y-40040499D01*
X56193497Y-40009737D01*
X56339179Y-39949394D01*
X56470289Y-39861789D01*
X56581789Y-39750289D01*
X56669394Y-39619179D01*
X56729737Y-39473497D01*
X56760500Y-39318842D01*
X56760500Y-39161158D01*
X56760500Y-39161155D01*
X56760499Y-39161153D01*
X56738269Y-39049397D01*
X56729737Y-39006503D01*
X56693427Y-38918842D01*
X56669397Y-38860827D01*
X56669390Y-38860814D01*
X56581789Y-38729711D01*
X56581786Y-38729707D01*
X56470292Y-38618213D01*
X56470288Y-38618210D01*
X56339185Y-38530609D01*
X56339172Y-38530602D01*
X56193501Y-38470264D01*
X56193489Y-38470261D01*
X56038845Y-38439500D01*
X56038842Y-38439500D01*
X55881158Y-38439500D01*
X55881155Y-38439500D01*
X55726510Y-38470261D01*
X55726498Y-38470264D01*
X55580827Y-38530602D01*
X55580814Y-38530609D01*
X55449711Y-38618210D01*
X55449707Y-38618213D01*
X55338213Y-38729707D01*
X55338210Y-38729711D01*
X55250609Y-38860814D01*
X55250602Y-38860827D01*
X55190264Y-39006498D01*
X55190261Y-39006510D01*
X55159500Y-39161153D01*
X54822804Y-39161153D01*
X54850500Y-38986287D01*
X54850500Y-38773713D01*
X54817246Y-38563757D01*
X54751557Y-38361588D01*
X54655051Y-38172184D01*
X54655049Y-38172181D01*
X54655048Y-38172179D01*
X54530109Y-38000213D01*
X54379786Y-37849890D01*
X54207820Y-37724951D01*
X54207115Y-37724591D01*
X54199054Y-37720485D01*
X54148259Y-37672512D01*
X54131463Y-37604692D01*
X54153999Y-37538556D01*
X54199054Y-37499515D01*
X54207816Y-37495051D01*
X54254940Y-37460814D01*
X54379786Y-37370109D01*
X54379788Y-37370106D01*
X54379792Y-37370104D01*
X54530104Y-37219792D01*
X54530106Y-37219788D01*
X54530109Y-37219786D01*
X54653902Y-37049397D01*
X54655051Y-37047816D01*
X54751557Y-36858412D01*
X54817246Y-36656243D01*
X54850500Y-36446287D01*
X54850500Y-36233713D01*
X54817246Y-36023757D01*
X54764413Y-35861153D01*
X55359500Y-35861153D01*
X55359500Y-36018846D01*
X55390261Y-36173489D01*
X55390264Y-36173501D01*
X55450602Y-36319172D01*
X55450609Y-36319185D01*
X55538210Y-36450288D01*
X55538213Y-36450292D01*
X55649707Y-36561786D01*
X55649711Y-36561789D01*
X55780814Y-36649390D01*
X55780827Y-36649397D01*
X55926498Y-36709735D01*
X55926503Y-36709737D01*
X56081153Y-36740499D01*
X56081156Y-36740500D01*
X56081158Y-36740500D01*
X56238844Y-36740500D01*
X56238845Y-36740499D01*
X56393497Y-36709737D01*
X56539179Y-36649394D01*
X56670289Y-36561789D01*
X56781789Y-36450289D01*
X56869394Y-36319179D01*
X56904795Y-36233713D01*
X57229500Y-36233713D01*
X57229500Y-36446286D01*
X57261669Y-36649397D01*
X57262754Y-36656243D01*
X57325803Y-36850288D01*
X57328444Y-36858414D01*
X57424951Y-37047820D01*
X57549890Y-37219786D01*
X57700213Y-37370109D01*
X57872182Y-37495050D01*
X57880946Y-37499516D01*
X57931742Y-37547491D01*
X57948536Y-37615312D01*
X57925998Y-37681447D01*
X57880946Y-37720484D01*
X57872182Y-37724949D01*
X57700213Y-37849890D01*
X57549890Y-38000213D01*
X57424951Y-38172179D01*
X57328444Y-38361585D01*
X57262753Y-38563760D01*
X57229500Y-38773713D01*
X57229500Y-38986286D01*
X57257196Y-39161155D01*
X57262754Y-39196243D01*
X57316543Y-39361789D01*
X57328444Y-39398414D01*
X57424951Y-39587820D01*
X57549890Y-39759786D01*
X57700213Y-39910109D01*
X57872182Y-40035050D01*
X57880946Y-40039516D01*
X57931742Y-40087491D01*
X57948536Y-40155312D01*
X57925998Y-40221447D01*
X57880946Y-40260484D01*
X57872182Y-40264949D01*
X57700213Y-40389890D01*
X57549890Y-40540213D01*
X57424951Y-40712179D01*
X57328444Y-40901585D01*
X57262753Y-41103760D01*
X57229500Y-41313713D01*
X57229500Y-41526286D01*
X57262595Y-41735244D01*
X57262754Y-41736243D01*
X57325523Y-41929426D01*
X57328444Y-41938414D01*
X57424951Y-42127820D01*
X57549890Y-42299786D01*
X57700213Y-42450109D01*
X57872182Y-42575050D01*
X57880946Y-42579516D01*
X57931742Y-42627491D01*
X57948536Y-42695312D01*
X57925998Y-42761447D01*
X57880946Y-42800484D01*
X57872182Y-42804949D01*
X57700213Y-42929890D01*
X57549890Y-43080213D01*
X57424951Y-43252179D01*
X57328444Y-43441585D01*
X57262753Y-43643760D01*
X57229500Y-43853713D01*
X57229500Y-44066286D01*
X57258501Y-44249394D01*
X57262754Y-44276243D01*
X57316132Y-44440524D01*
X57328444Y-44478414D01*
X57424951Y-44667820D01*
X57549890Y-44839786D01*
X57700213Y-44990109D01*
X57872182Y-45115050D01*
X57880946Y-45119516D01*
X57931742Y-45167491D01*
X57948536Y-45235312D01*
X57925998Y-45301447D01*
X57880946Y-45340484D01*
X57872182Y-45344949D01*
X57700213Y-45469890D01*
X57549890Y-45620213D01*
X57424951Y-45792179D01*
X57328444Y-45981585D01*
X57262753Y-46183760D01*
X57229500Y-46393713D01*
X57229500Y-46606286D01*
X57262753Y-46816239D01*
X57262753Y-46816241D01*
X57262754Y-46816243D01*
X57309490Y-46960082D01*
X57328444Y-47018414D01*
X57424951Y-47207820D01*
X57549890Y-47379786D01*
X57700213Y-47530109D01*
X57872182Y-47655050D01*
X57880946Y-47659516D01*
X57931742Y-47707491D01*
X57948536Y-47775312D01*
X57925998Y-47841447D01*
X57880946Y-47880484D01*
X57872182Y-47884949D01*
X57700213Y-48009890D01*
X57549890Y-48160213D01*
X57424951Y-48332179D01*
X57328444Y-48521585D01*
X57262753Y-48723760D01*
X57229500Y-48933713D01*
X57229500Y-49146286D01*
X57260491Y-49341959D01*
X57262754Y-49356243D01*
X57314905Y-49516748D01*
X57328444Y-49558414D01*
X57424951Y-49747820D01*
X57549890Y-49919786D01*
X57700213Y-50070109D01*
X57872179Y-50195048D01*
X57872181Y-50195049D01*
X57872184Y-50195051D01*
X58061588Y-50291557D01*
X58263757Y-50357246D01*
X58473713Y-50390500D01*
X58473714Y-50390500D01*
X58686286Y-50390500D01*
X58686287Y-50390500D01*
X58896243Y-50357246D01*
X59098412Y-50291557D01*
X59287816Y-50195051D01*
X59349426Y-50150289D01*
X59459786Y-50070109D01*
X59459788Y-50070106D01*
X59459792Y-50070104D01*
X59610104Y-49919792D01*
X59610106Y-49919788D01*
X59610109Y-49919786D01*
X59735048Y-49747820D01*
X59735047Y-49747820D01*
X59735051Y-49747816D01*
X59830160Y-49561153D01*
X60659500Y-49561153D01*
X60659500Y-49718846D01*
X60690261Y-49873489D01*
X60690264Y-49873501D01*
X60750602Y-50019172D01*
X60750609Y-50019185D01*
X60838210Y-50150288D01*
X60838213Y-50150292D01*
X60949707Y-50261786D01*
X60949711Y-50261789D01*
X61080814Y-50349390D01*
X61080827Y-50349397D01*
X61180060Y-50390500D01*
X61226503Y-50409737D01*
X61381153Y-50440499D01*
X61381156Y-50440500D01*
X61381158Y-50440500D01*
X61538844Y-50440500D01*
X61538845Y-50440499D01*
X61693497Y-50409737D01*
X61809262Y-50361786D01*
X61839172Y-50349397D01*
X61839172Y-50349396D01*
X61839179Y-50349394D01*
X61970289Y-50261789D01*
X62081789Y-50150289D01*
X62169394Y-50019179D01*
X62229737Y-49873497D01*
X62260500Y-49718842D01*
X62260500Y-49561158D01*
X62260500Y-49561155D01*
X62260499Y-49561153D01*
X62248836Y-49502519D01*
X62229737Y-49406503D01*
X62202184Y-49339983D01*
X64359500Y-49339983D01*
X64359500Y-50540001D01*
X64359501Y-50540018D01*
X64370000Y-50642796D01*
X64370001Y-50642799D01*
X64425185Y-50809331D01*
X64425187Y-50809336D01*
X64460069Y-50865888D01*
X64517288Y-50958656D01*
X64641344Y-51082712D01*
X64790666Y-51174814D01*
X64852440Y-51195284D01*
X64909884Y-51235055D01*
X64936707Y-51299571D01*
X64937053Y-51322719D01*
X64934077Y-51360524D01*
X65613554Y-52040000D01*
X65607339Y-52040000D01*
X65505606Y-52067259D01*
X65414394Y-52119920D01*
X65339920Y-52194394D01*
X65287259Y-52285606D01*
X65260000Y-52387339D01*
X65260000Y-52393553D01*
X64580524Y-51714077D01*
X64580523Y-51714077D01*
X64548143Y-51758644D01*
X64455244Y-51940968D01*
X64392009Y-52135582D01*
X64360000Y-52337682D01*
X64360000Y-52542317D01*
X64392009Y-52744417D01*
X64455244Y-52939031D01*
X64548141Y-53121350D01*
X64548147Y-53121359D01*
X64580523Y-53165921D01*
X64580524Y-53165922D01*
X65260000Y-52486446D01*
X65260000Y-52492661D01*
X65287259Y-52594394D01*
X65339920Y-52685606D01*
X65414394Y-52760080D01*
X65505606Y-52812741D01*
X65607339Y-52840000D01*
X65613553Y-52840000D01*
X64934076Y-53519474D01*
X64978650Y-53551859D01*
X65160968Y-53644755D01*
X65355582Y-53707990D01*
X65557683Y-53740000D01*
X65762317Y-53740000D01*
X65964417Y-53707990D01*
X66159031Y-53644755D01*
X66341349Y-53551859D01*
X66385921Y-53519474D01*
X65706447Y-52840000D01*
X65712661Y-52840000D01*
X65814394Y-52812741D01*
X65905606Y-52760080D01*
X65980080Y-52685606D01*
X66032741Y-52594394D01*
X66060000Y-52492661D01*
X66060000Y-52486447D01*
X66739474Y-53165921D01*
X66771859Y-53121349D01*
X66864755Y-52939031D01*
X66927990Y-52744417D01*
X66960000Y-52542317D01*
X66960000Y-52337682D01*
X66927990Y-52135582D01*
X66864755Y-51940968D01*
X66771859Y-51758650D01*
X66739474Y-51714077D01*
X66739474Y-51714076D01*
X66060000Y-52393551D01*
X66060000Y-52387339D01*
X66032741Y-52285606D01*
X65980080Y-52194394D01*
X65905606Y-52119920D01*
X65814394Y-52067259D01*
X65712661Y-52040000D01*
X65706446Y-52040000D01*
X66385921Y-51360525D01*
X66382946Y-51322719D01*
X66387369Y-51301663D01*
X66386990Y-51280155D01*
X66394408Y-51268151D01*
X66397310Y-51254341D01*
X66412412Y-51239020D01*
X66423723Y-51220721D01*
X66439448Y-51211595D01*
X66446361Y-51204584D01*
X66453074Y-51201120D01*
X66460131Y-51197745D01*
X66529334Y-51174814D01*
X66678656Y-51082712D01*
X66802712Y-50958656D01*
X66894814Y-50809334D01*
X66949999Y-50642797D01*
X66960500Y-50540009D01*
X66960499Y-49339992D01*
X66949999Y-49237203D01*
X66894814Y-49070666D01*
X66802712Y-48921344D01*
X66678656Y-48797288D01*
X66584966Y-48739500D01*
X66529336Y-48705187D01*
X66529331Y-48705185D01*
X66527862Y-48704698D01*
X66362797Y-48650001D01*
X66362795Y-48650000D01*
X66260010Y-48639500D01*
X65059998Y-48639500D01*
X65059981Y-48639501D01*
X64957203Y-48650000D01*
X64957200Y-48650001D01*
X64790668Y-48705185D01*
X64790663Y-48705187D01*
X64641342Y-48797289D01*
X64517289Y-48921342D01*
X64425187Y-49070663D01*
X64425186Y-49070666D01*
X64370001Y-49237203D01*
X64370001Y-49237204D01*
X64370000Y-49237204D01*
X64359500Y-49339983D01*
X62202184Y-49339983D01*
X62193569Y-49319185D01*
X62169397Y-49260827D01*
X62169390Y-49260814D01*
X62081789Y-49129711D01*
X62081786Y-49129707D01*
X61970292Y-49018213D01*
X61970288Y-49018210D01*
X61839185Y-48930609D01*
X61839172Y-48930602D01*
X61693501Y-48870264D01*
X61693489Y-48870261D01*
X61538845Y-48839500D01*
X61538842Y-48839500D01*
X61381158Y-48839500D01*
X61381155Y-48839500D01*
X61226510Y-48870261D01*
X61226498Y-48870264D01*
X61080827Y-48930602D01*
X61080814Y-48930609D01*
X60949711Y-49018210D01*
X60949707Y-49018213D01*
X60838213Y-49129707D01*
X60838210Y-49129711D01*
X60750609Y-49260814D01*
X60750602Y-49260827D01*
X60690264Y-49406498D01*
X60690261Y-49406510D01*
X60659500Y-49561153D01*
X59830160Y-49561153D01*
X59831557Y-49558412D01*
X59897246Y-49356243D01*
X59930500Y-49146287D01*
X59930500Y-48933713D01*
X59897246Y-48723757D01*
X59831557Y-48521588D01*
X59735051Y-48332184D01*
X59735049Y-48332181D01*
X59735048Y-48332179D01*
X59610109Y-48160213D01*
X59459786Y-48009890D01*
X59287820Y-47884951D01*
X59287115Y-47884591D01*
X59279054Y-47880485D01*
X59228259Y-47832512D01*
X59211463Y-47764692D01*
X59233999Y-47698556D01*
X59279054Y-47659515D01*
X59287816Y-47655051D01*
X59367999Y-47596795D01*
X59459786Y-47530109D01*
X59459788Y-47530106D01*
X59459792Y-47530104D01*
X59610104Y-47379792D01*
X59610106Y-47379788D01*
X59610109Y-47379786D01*
X59735048Y-47207820D01*
X59735049Y-47207819D01*
X59735051Y-47207816D01*
X59831557Y-47018412D01*
X59882654Y-46861153D01*
X60559500Y-46861153D01*
X60559500Y-47018846D01*
X60590261Y-47173489D01*
X60590264Y-47173501D01*
X60650602Y-47319172D01*
X60650609Y-47319185D01*
X60738210Y-47450288D01*
X60738213Y-47450292D01*
X60849707Y-47561786D01*
X60849711Y-47561789D01*
X60980814Y-47649390D01*
X60980827Y-47649397D01*
X61126498Y-47709735D01*
X61126503Y-47709737D01*
X61281153Y-47740499D01*
X61281156Y-47740500D01*
X61281158Y-47740500D01*
X61438844Y-47740500D01*
X61438845Y-47740499D01*
X61593497Y-47709737D01*
X61739179Y-47649394D01*
X61870289Y-47561789D01*
X61981789Y-47450289D01*
X62069394Y-47319179D01*
X62129737Y-47173497D01*
X62160500Y-47018842D01*
X62160500Y-46861158D01*
X62160500Y-46861155D01*
X62160499Y-46861153D01*
X62136499Y-46740498D01*
X62129737Y-46706503D01*
X62129364Y-46705602D01*
X62069397Y-46560827D01*
X62069390Y-46560814D01*
X61981789Y-46429711D01*
X61981786Y-46429707D01*
X61870292Y-46318213D01*
X61870288Y-46318210D01*
X61739185Y-46230609D01*
X61739172Y-46230602D01*
X61593501Y-46170264D01*
X61593489Y-46170261D01*
X61438845Y-46139500D01*
X61438842Y-46139500D01*
X61281158Y-46139500D01*
X61281155Y-46139500D01*
X61126510Y-46170261D01*
X61126498Y-46170264D01*
X60980827Y-46230602D01*
X60980814Y-46230609D01*
X60849711Y-46318210D01*
X60849707Y-46318213D01*
X60738213Y-46429707D01*
X60738210Y-46429711D01*
X60650609Y-46560814D01*
X60650602Y-46560827D01*
X60590264Y-46706498D01*
X60590261Y-46706510D01*
X60559500Y-46861153D01*
X59882654Y-46861153D01*
X59897246Y-46816243D01*
X59930500Y-46606287D01*
X59930500Y-46393713D01*
X59897246Y-46183757D01*
X59831557Y-45981588D01*
X59735051Y-45792184D01*
X59735049Y-45792181D01*
X59735048Y-45792179D01*
X59610109Y-45620213D01*
X59459786Y-45469890D01*
X59287820Y-45344951D01*
X59287115Y-45344591D01*
X59279054Y-45340485D01*
X59228259Y-45292512D01*
X59211463Y-45224692D01*
X59233999Y-45158556D01*
X59279054Y-45119515D01*
X59287816Y-45115051D01*
X59341592Y-45075981D01*
X59459786Y-44990109D01*
X59459788Y-44990106D01*
X59459792Y-44990104D01*
X59609913Y-44839983D01*
X64359500Y-44839983D01*
X64359500Y-46040001D01*
X64359501Y-46040018D01*
X64370000Y-46142796D01*
X64370001Y-46142799D01*
X64425185Y-46309331D01*
X64425187Y-46309336D01*
X64445760Y-46342690D01*
X64517288Y-46458656D01*
X64641344Y-46582712D01*
X64790666Y-46674814D01*
X64957203Y-46729999D01*
X65059991Y-46740500D01*
X66260008Y-46740499D01*
X66362797Y-46729999D01*
X66529334Y-46674814D01*
X66678656Y-46582712D01*
X66802712Y-46458656D01*
X66894814Y-46309334D01*
X66949999Y-46142797D01*
X66960500Y-46040009D01*
X66960499Y-45261153D01*
X69259500Y-45261153D01*
X69259500Y-45418846D01*
X69290261Y-45573489D01*
X69290264Y-45573501D01*
X69350602Y-45719172D01*
X69350609Y-45719185D01*
X69438210Y-45850288D01*
X69438213Y-45850292D01*
X69549707Y-45961786D01*
X69549711Y-45961789D01*
X69680814Y-46049390D01*
X69680827Y-46049397D01*
X69826498Y-46109735D01*
X69826503Y-46109737D01*
X69976131Y-46139500D01*
X69981153Y-46140499D01*
X69981156Y-46140500D01*
X69981158Y-46140500D01*
X70138844Y-46140500D01*
X70138845Y-46140499D01*
X70293497Y-46109737D01*
X70439179Y-46049394D01*
X70570289Y-45961789D01*
X70626892Y-45905186D01*
X73459500Y-45905186D01*
X73459500Y-46174813D01*
X73489686Y-46442719D01*
X73489688Y-46442731D01*
X73549684Y-46705594D01*
X73549687Y-46705602D01*
X73638734Y-46960082D01*
X73755714Y-47202994D01*
X73800087Y-47273613D01*
X73899162Y-47431289D01*
X73977964Y-47530104D01*
X74048733Y-47618846D01*
X74067266Y-47642085D01*
X74257915Y-47832734D01*
X74468711Y-48000838D01*
X74697003Y-48144284D01*
X74939921Y-48261267D01*
X75102655Y-48318210D01*
X75194397Y-48350312D01*
X75194405Y-48350315D01*
X75194408Y-48350315D01*
X75194409Y-48350316D01*
X75390660Y-48395109D01*
X75451638Y-48429218D01*
X75484496Y-48490879D01*
X75478801Y-48560516D01*
X75436361Y-48616020D01*
X75370651Y-48639768D01*
X75363067Y-48640000D01*
X74655280Y-48640000D01*
X74522093Y-48650482D01*
X74522087Y-48650483D01*
X74302170Y-48705898D01*
X74302167Y-48705899D01*
X74095669Y-48799695D01*
X74095663Y-48799698D01*
X73909241Y-48928851D01*
X73909229Y-48928861D01*
X73748861Y-49089229D01*
X73748851Y-49089241D01*
X73619698Y-49275663D01*
X73619695Y-49275669D01*
X73525899Y-49482167D01*
X73525898Y-49482170D01*
X73470483Y-49702087D01*
X73470482Y-49702093D01*
X73460000Y-49835280D01*
X73460000Y-50790000D01*
X74532769Y-50790000D01*
X74510000Y-50933753D01*
X74510000Y-51146247D01*
X74532769Y-51290000D01*
X73460000Y-51290000D01*
X73460000Y-52244719D01*
X73470482Y-52377906D01*
X73470483Y-52377912D01*
X73525898Y-52597829D01*
X73525899Y-52597832D01*
X73619695Y-52804330D01*
X73619698Y-52804336D01*
X73748851Y-52990758D01*
X73748861Y-52990770D01*
X73909229Y-53151138D01*
X73909241Y-53151148D01*
X74095663Y-53280301D01*
X74095669Y-53280304D01*
X74302167Y-53374100D01*
X74302170Y-53374101D01*
X74522087Y-53429516D01*
X74522093Y-53429517D01*
X74655280Y-53439999D01*
X74655294Y-53440000D01*
X75610000Y-53440000D01*
X75610000Y-52367231D01*
X75753753Y-52390000D01*
X75966247Y-52390000D01*
X76110000Y-52367231D01*
X76110000Y-53440000D01*
X77064706Y-53440000D01*
X77064719Y-53439999D01*
X77197906Y-53429517D01*
X77197912Y-53429516D01*
X77417829Y-53374101D01*
X77417832Y-53374100D01*
X77624330Y-53280304D01*
X77624336Y-53280301D01*
X77810758Y-53151148D01*
X77810770Y-53151138D01*
X77971138Y-52990770D01*
X77971148Y-52990758D01*
X78100301Y-52804336D01*
X78100304Y-52804330D01*
X78194100Y-52597832D01*
X78194101Y-52597829D01*
X78249516Y-52377912D01*
X78249517Y-52377906D01*
X78259999Y-52244719D01*
X78260000Y-52244706D01*
X78260000Y-51290000D01*
X77187231Y-51290000D01*
X77210000Y-51146247D01*
X77210000Y-50933753D01*
X77187231Y-50790000D01*
X78260000Y-50790000D01*
X78260000Y-49835293D01*
X78259999Y-49835280D01*
X78249517Y-49702093D01*
X78249516Y-49702087D01*
X78194101Y-49482170D01*
X78194100Y-49482167D01*
X78100304Y-49275669D01*
X78100301Y-49275663D01*
X77971148Y-49089241D01*
X77971138Y-49089229D01*
X77810770Y-48928861D01*
X77810758Y-48928851D01*
X77624336Y-48799698D01*
X77624330Y-48799695D01*
X77417832Y-48705899D01*
X77417829Y-48705898D01*
X77197912Y-48650483D01*
X77197906Y-48650482D01*
X77064719Y-48640000D01*
X76356933Y-48640000D01*
X76289894Y-48620315D01*
X76244139Y-48567511D01*
X76234195Y-48498353D01*
X76263220Y-48434797D01*
X76321998Y-48397023D01*
X76329336Y-48395109D01*
X76525591Y-48350316D01*
X76780079Y-48261267D01*
X77022997Y-48144284D01*
X77251289Y-48000838D01*
X77462085Y-47832734D01*
X77652734Y-47642085D01*
X77820838Y-47431289D01*
X77964284Y-47202997D01*
X78081267Y-46960079D01*
X78170316Y-46705591D01*
X78230312Y-46442732D01*
X78260500Y-46174809D01*
X78260500Y-45905191D01*
X78230312Y-45637268D01*
X78170316Y-45374409D01*
X78081267Y-45119921D01*
X77964284Y-44877003D01*
X77820838Y-44648711D01*
X77652734Y-44437915D01*
X77462085Y-44247266D01*
X77251289Y-44079162D01*
X77022997Y-43935716D01*
X77022994Y-43935714D01*
X76780082Y-43818734D01*
X76525602Y-43729687D01*
X76525594Y-43729684D01*
X76328446Y-43684687D01*
X76262732Y-43669688D01*
X76262728Y-43669687D01*
X76262719Y-43669686D01*
X75994813Y-43639500D01*
X75994809Y-43639500D01*
X75725191Y-43639500D01*
X75725186Y-43639500D01*
X75457280Y-43669686D01*
X75457268Y-43669688D01*
X75194405Y-43729684D01*
X75194397Y-43729687D01*
X74939917Y-43818734D01*
X74697005Y-43935714D01*
X74468712Y-44079161D01*
X74257915Y-44247265D01*
X74067265Y-44437915D01*
X73899161Y-44648712D01*
X73755714Y-44877005D01*
X73638734Y-45119917D01*
X73549687Y-45374397D01*
X73549684Y-45374405D01*
X73489688Y-45637268D01*
X73489686Y-45637280D01*
X73459500Y-45905186D01*
X70626892Y-45905186D01*
X70681789Y-45850289D01*
X70684970Y-45845527D01*
X70693461Y-45832822D01*
X70693461Y-45832821D01*
X70769390Y-45719185D01*
X70769390Y-45719184D01*
X70769394Y-45719179D01*
X70829737Y-45573497D01*
X70860500Y-45418842D01*
X70860500Y-45261158D01*
X70860500Y-45261155D01*
X70860499Y-45261153D01*
X70833295Y-45124391D01*
X70829737Y-45106503D01*
X70829735Y-45106498D01*
X70769397Y-44960827D01*
X70769390Y-44960814D01*
X70681789Y-44829711D01*
X70681786Y-44829707D01*
X70570292Y-44718213D01*
X70570288Y-44718210D01*
X70439185Y-44630609D01*
X70439172Y-44630602D01*
X70293501Y-44570264D01*
X70293489Y-44570261D01*
X70138845Y-44539500D01*
X70138842Y-44539500D01*
X69981158Y-44539500D01*
X69981155Y-44539500D01*
X69826510Y-44570261D01*
X69826498Y-44570264D01*
X69680827Y-44630602D01*
X69680814Y-44630609D01*
X69549711Y-44718210D01*
X69549707Y-44718213D01*
X69438213Y-44829707D01*
X69438210Y-44829711D01*
X69350609Y-44960814D01*
X69350602Y-44960827D01*
X69290264Y-45106498D01*
X69290261Y-45106510D01*
X69259500Y-45261153D01*
X66960499Y-45261153D01*
X66960499Y-44839992D01*
X66949999Y-44737203D01*
X66894814Y-44570666D01*
X66802712Y-44421344D01*
X66678656Y-44297288D01*
X66529334Y-44205186D01*
X66467558Y-44184715D01*
X66410115Y-44144943D01*
X66383292Y-44080427D01*
X66382946Y-44057280D01*
X66385921Y-44019473D01*
X65706447Y-43340000D01*
X65712661Y-43340000D01*
X65814394Y-43312741D01*
X65905606Y-43260080D01*
X65980080Y-43185606D01*
X66032741Y-43094394D01*
X66060000Y-42992661D01*
X66060000Y-42986447D01*
X66739474Y-43665921D01*
X66771859Y-43621349D01*
X66864755Y-43439031D01*
X66927990Y-43244417D01*
X66960000Y-43042317D01*
X66960000Y-42837682D01*
X66927990Y-42635582D01*
X66864755Y-42440968D01*
X66771859Y-42258650D01*
X66739474Y-42214077D01*
X66739474Y-42214076D01*
X66060000Y-42893551D01*
X66060000Y-42887339D01*
X66032741Y-42785606D01*
X65980080Y-42694394D01*
X65905606Y-42619920D01*
X65814394Y-42567259D01*
X65712661Y-42540000D01*
X65706446Y-42540000D01*
X66385922Y-41860524D01*
X66385921Y-41860523D01*
X66341359Y-41828147D01*
X66341350Y-41828141D01*
X66159031Y-41735244D01*
X65964417Y-41672009D01*
X65762317Y-41640000D01*
X65557683Y-41640000D01*
X65355582Y-41672009D01*
X65160968Y-41735244D01*
X64978644Y-41828143D01*
X64934077Y-41860523D01*
X64934077Y-41860524D01*
X65613554Y-42540000D01*
X65607339Y-42540000D01*
X65505606Y-42567259D01*
X65414394Y-42619920D01*
X65339920Y-42694394D01*
X65287259Y-42785606D01*
X65260000Y-42887339D01*
X65260000Y-42893553D01*
X64580524Y-42214077D01*
X64580523Y-42214077D01*
X64548143Y-42258644D01*
X64455244Y-42440968D01*
X64392009Y-42635582D01*
X64360000Y-42837682D01*
X64360000Y-43042317D01*
X64392009Y-43244417D01*
X64455244Y-43439031D01*
X64548141Y-43621350D01*
X64548147Y-43621359D01*
X64580523Y-43665921D01*
X64580524Y-43665922D01*
X65260000Y-42986446D01*
X65260000Y-42992661D01*
X65287259Y-43094394D01*
X65339920Y-43185606D01*
X65414394Y-43260080D01*
X65505606Y-43312741D01*
X65607339Y-43340000D01*
X65613553Y-43340000D01*
X64934076Y-44019474D01*
X64937052Y-44057282D01*
X64922687Y-44125659D01*
X64873636Y-44175415D01*
X64852440Y-44184715D01*
X64790672Y-44205184D01*
X64790663Y-44205187D01*
X64641342Y-44297289D01*
X64517289Y-44421342D01*
X64425187Y-44570663D01*
X64425185Y-44570668D01*
X64419840Y-44586798D01*
X64370001Y-44737203D01*
X64370001Y-44737204D01*
X64370000Y-44737204D01*
X64359500Y-44839983D01*
X59609913Y-44839983D01*
X59610104Y-44839792D01*
X59735051Y-44667816D01*
X59831557Y-44478412D01*
X59897246Y-44276243D01*
X59930500Y-44066287D01*
X59930500Y-43853713D01*
X59897246Y-43643757D01*
X59831557Y-43441588D01*
X59735051Y-43252184D01*
X59735049Y-43252181D01*
X59735048Y-43252179D01*
X59644792Y-43127951D01*
X59610109Y-43080213D01*
X59591049Y-43061153D01*
X60959500Y-43061153D01*
X60959500Y-43218846D01*
X60990261Y-43373489D01*
X60990264Y-43373501D01*
X61050602Y-43519172D01*
X61050609Y-43519185D01*
X61138210Y-43650288D01*
X61138213Y-43650292D01*
X61249707Y-43761786D01*
X61249711Y-43761789D01*
X61380814Y-43849390D01*
X61380827Y-43849397D01*
X61526498Y-43909735D01*
X61526503Y-43909737D01*
X61665081Y-43937302D01*
X61681153Y-43940499D01*
X61681156Y-43940500D01*
X61681158Y-43940500D01*
X61838844Y-43940500D01*
X61838845Y-43940499D01*
X61993497Y-43909737D01*
X62139179Y-43849394D01*
X62270289Y-43761789D01*
X62381789Y-43650289D01*
X62469394Y-43519179D01*
X62529737Y-43373497D01*
X62560500Y-43218842D01*
X62560500Y-43061158D01*
X62560500Y-43061155D01*
X62560499Y-43061153D01*
X62539055Y-42953348D01*
X62529737Y-42906503D01*
X62487673Y-42804951D01*
X62469397Y-42760826D01*
X62469390Y-42760814D01*
X62381789Y-42629711D01*
X62381786Y-42629707D01*
X62270292Y-42518213D01*
X62270288Y-42518210D01*
X62139185Y-42430609D01*
X62139172Y-42430602D01*
X61993501Y-42370264D01*
X61993489Y-42370261D01*
X61838845Y-42339500D01*
X61838842Y-42339500D01*
X61681158Y-42339500D01*
X61681155Y-42339500D01*
X61526510Y-42370261D01*
X61526498Y-42370264D01*
X61380827Y-42430602D01*
X61380814Y-42430609D01*
X61249711Y-42518210D01*
X61249707Y-42518213D01*
X61138213Y-42629707D01*
X61138210Y-42629711D01*
X61050609Y-42760814D01*
X61050602Y-42760827D01*
X60990264Y-42906498D01*
X60990261Y-42906510D01*
X60959500Y-43061153D01*
X59591049Y-43061153D01*
X59459786Y-42929890D01*
X59287820Y-42804951D01*
X59287115Y-42804591D01*
X59279054Y-42800485D01*
X59228259Y-42752512D01*
X59211463Y-42684692D01*
X59233999Y-42618556D01*
X59279054Y-42579515D01*
X59287816Y-42575051D01*
X59336060Y-42540000D01*
X59459786Y-42450109D01*
X59459788Y-42450106D01*
X59459792Y-42450104D01*
X59610104Y-42299792D01*
X59610106Y-42299788D01*
X59610109Y-42299786D01*
X59735048Y-42127820D01*
X59735047Y-42127820D01*
X59735051Y-42127816D01*
X59831557Y-41938412D01*
X59897246Y-41736243D01*
X59930500Y-41526287D01*
X59930500Y-41313713D01*
X59922175Y-41261153D01*
X77259500Y-41261153D01*
X77259500Y-41418846D01*
X77290261Y-41573489D01*
X77290264Y-41573501D01*
X77350602Y-41719172D01*
X77350609Y-41719185D01*
X77438210Y-41850288D01*
X77438213Y-41850292D01*
X77549707Y-41961786D01*
X77549711Y-41961789D01*
X77680814Y-42049390D01*
X77680827Y-42049397D01*
X77826498Y-42109735D01*
X77826503Y-42109737D01*
X77981153Y-42140499D01*
X77981156Y-42140500D01*
X77981158Y-42140500D01*
X78138844Y-42140500D01*
X78138845Y-42140499D01*
X78293497Y-42109737D01*
X78439179Y-42049394D01*
X78570289Y-41961789D01*
X78681789Y-41850289D01*
X78769394Y-41719179D01*
X78829737Y-41573497D01*
X78860500Y-41418842D01*
X78860500Y-41261158D01*
X78860500Y-41261155D01*
X78860499Y-41261153D01*
X78836499Y-41140498D01*
X78829737Y-41106503D01*
X78802398Y-41040500D01*
X78769397Y-40960827D01*
X78769390Y-40960814D01*
X78681789Y-40829711D01*
X78681786Y-40829707D01*
X78570292Y-40718213D01*
X78570288Y-40718210D01*
X78439185Y-40630609D01*
X78439172Y-40630602D01*
X78293501Y-40570264D01*
X78293489Y-40570261D01*
X78138845Y-40539500D01*
X78138842Y-40539500D01*
X77981158Y-40539500D01*
X77981155Y-40539500D01*
X77826510Y-40570261D01*
X77826498Y-40570264D01*
X77680827Y-40630602D01*
X77680814Y-40630609D01*
X77549711Y-40718210D01*
X77549707Y-40718213D01*
X77438213Y-40829707D01*
X77438210Y-40829711D01*
X77350609Y-40960814D01*
X77350602Y-40960827D01*
X77290264Y-41106498D01*
X77290261Y-41106510D01*
X77259500Y-41261153D01*
X59922175Y-41261153D01*
X59897246Y-41103757D01*
X59831557Y-40901588D01*
X59735051Y-40712184D01*
X59735049Y-40712181D01*
X59735048Y-40712179D01*
X59610109Y-40540213D01*
X59459786Y-40389890D01*
X59287820Y-40264951D01*
X59281608Y-40261786D01*
X59279054Y-40260485D01*
X59228259Y-40212512D01*
X59211463Y-40144692D01*
X59233999Y-40078556D01*
X59279054Y-40039515D01*
X59287816Y-40035051D01*
X59327116Y-40006498D01*
X59459786Y-39910109D01*
X59459788Y-39910106D01*
X59459792Y-39910104D01*
X59610104Y-39759792D01*
X59610106Y-39759788D01*
X59610109Y-39759786D01*
X59696774Y-39640500D01*
X59735051Y-39587816D01*
X59748636Y-39561153D01*
X63259500Y-39561153D01*
X63259500Y-39718846D01*
X63290261Y-39873489D01*
X63290264Y-39873501D01*
X63350602Y-40019172D01*
X63350609Y-40019185D01*
X63438210Y-40150288D01*
X63438213Y-40150292D01*
X63549707Y-40261786D01*
X63549711Y-40261789D01*
X63680814Y-40349390D01*
X63680827Y-40349397D01*
X63778602Y-40389896D01*
X63826503Y-40409737D01*
X63978649Y-40440001D01*
X63981153Y-40440499D01*
X63981156Y-40440500D01*
X63981158Y-40440500D01*
X64138844Y-40440500D01*
X64138845Y-40440499D01*
X64293497Y-40409737D01*
X64439179Y-40349394D01*
X64570289Y-40261789D01*
X64670925Y-40161153D01*
X67359500Y-40161153D01*
X67359500Y-40318846D01*
X67390261Y-40473489D01*
X67390264Y-40473501D01*
X67450602Y-40619172D01*
X67450609Y-40619185D01*
X67538210Y-40750288D01*
X67538213Y-40750292D01*
X67649707Y-40861786D01*
X67649711Y-40861789D01*
X67780814Y-40949390D01*
X67780827Y-40949397D01*
X67861258Y-40982712D01*
X67926503Y-41009737D01*
X68081153Y-41040499D01*
X68081156Y-41040500D01*
X68081158Y-41040500D01*
X68238844Y-41040500D01*
X68238845Y-41040499D01*
X68393497Y-41009737D01*
X68511592Y-40960821D01*
X68539172Y-40949397D01*
X68539172Y-40949396D01*
X68539179Y-40949394D01*
X68670289Y-40861789D01*
X68781789Y-40750289D01*
X68869394Y-40619179D01*
X68929737Y-40473497D01*
X68960500Y-40318842D01*
X68960500Y-40161158D01*
X68960500Y-40161155D01*
X68960499Y-40161153D01*
X68958338Y-40150288D01*
X68929737Y-40006503D01*
X68889808Y-39910104D01*
X68869397Y-39860827D01*
X68869390Y-39860814D01*
X68781789Y-39729711D01*
X68781786Y-39729707D01*
X68670292Y-39618213D01*
X68670288Y-39618210D01*
X68539185Y-39530609D01*
X68539172Y-39530602D01*
X68393501Y-39470264D01*
X68393489Y-39470261D01*
X68238845Y-39439500D01*
X68238842Y-39439500D01*
X68081158Y-39439500D01*
X68081155Y-39439500D01*
X67926510Y-39470261D01*
X67926498Y-39470264D01*
X67780827Y-39530602D01*
X67780814Y-39530609D01*
X67649711Y-39618210D01*
X67649707Y-39618213D01*
X67538213Y-39729707D01*
X67538210Y-39729711D01*
X67450609Y-39860814D01*
X67450602Y-39860827D01*
X67390264Y-40006498D01*
X67390261Y-40006510D01*
X67359500Y-40161153D01*
X64670925Y-40161153D01*
X64681789Y-40150289D01*
X64709999Y-40108068D01*
X64724629Y-40086175D01*
X64769390Y-40019185D01*
X64769390Y-40019184D01*
X64769394Y-40019179D01*
X64829737Y-39873497D01*
X64860500Y-39718842D01*
X64860500Y-39561158D01*
X64860500Y-39561155D01*
X64860499Y-39561153D01*
X64840734Y-39461789D01*
X64829737Y-39406503D01*
X64826867Y-39399573D01*
X64769397Y-39260827D01*
X64769390Y-39260814D01*
X64681789Y-39129711D01*
X64681786Y-39129707D01*
X64570292Y-39018213D01*
X64570288Y-39018210D01*
X64439185Y-38930609D01*
X64439172Y-38930602D01*
X64293501Y-38870264D01*
X64293489Y-38870261D01*
X64138845Y-38839500D01*
X64138842Y-38839500D01*
X63981158Y-38839500D01*
X63981155Y-38839500D01*
X63826510Y-38870261D01*
X63826498Y-38870264D01*
X63680827Y-38930602D01*
X63680814Y-38930609D01*
X63549711Y-39018210D01*
X63549707Y-39018213D01*
X63438213Y-39129707D01*
X63438210Y-39129711D01*
X63350609Y-39260814D01*
X63350602Y-39260827D01*
X63290264Y-39406498D01*
X63290261Y-39406510D01*
X63259500Y-39561153D01*
X59748636Y-39561153D01*
X59831557Y-39398412D01*
X59897246Y-39196243D01*
X59930500Y-38986287D01*
X59930500Y-38773713D01*
X59897246Y-38563757D01*
X59831557Y-38361588D01*
X59735051Y-38172184D01*
X59735049Y-38172181D01*
X59735048Y-38172179D01*
X59610109Y-38000213D01*
X59459786Y-37849890D01*
X59337648Y-37761153D01*
X68859500Y-37761153D01*
X68859500Y-37918846D01*
X68890261Y-38073489D01*
X68890264Y-38073501D01*
X68950602Y-38219172D01*
X68950609Y-38219185D01*
X69038210Y-38350288D01*
X69038213Y-38350292D01*
X69149707Y-38461786D01*
X69149711Y-38461789D01*
X69280814Y-38549390D01*
X69280827Y-38549397D01*
X69418683Y-38606498D01*
X69426503Y-38609737D01*
X69581153Y-38640499D01*
X69581156Y-38640500D01*
X69581158Y-38640500D01*
X69738844Y-38640500D01*
X69738845Y-38640499D01*
X69893497Y-38609737D01*
X70039179Y-38549394D01*
X70170289Y-38461789D01*
X70281789Y-38350289D01*
X70355493Y-38239983D01*
X73432000Y-38239983D01*
X73432000Y-40440001D01*
X73432001Y-40440018D01*
X73442500Y-40542796D01*
X73442501Y-40542799D01*
X73497685Y-40709331D01*
X73497687Y-40709336D01*
X73522946Y-40750288D01*
X73589788Y-40858656D01*
X73713844Y-40982712D01*
X73863166Y-41074814D01*
X74029703Y-41129999D01*
X74132491Y-41140500D01*
X76332508Y-41140499D01*
X76435297Y-41129999D01*
X76601834Y-41074814D01*
X76751156Y-40982712D01*
X76875212Y-40858656D01*
X76967314Y-40709334D01*
X77022499Y-40542797D01*
X77033000Y-40440009D01*
X77032999Y-38239992D01*
X77022499Y-38137203D01*
X76967314Y-37970666D01*
X76875212Y-37821344D01*
X76751156Y-37697288D01*
X76603981Y-37606510D01*
X76601836Y-37605187D01*
X76601831Y-37605185D01*
X76560704Y-37591557D01*
X76435297Y-37550001D01*
X76435295Y-37550000D01*
X76332510Y-37539500D01*
X74132498Y-37539500D01*
X74132481Y-37539501D01*
X74029703Y-37550000D01*
X74029700Y-37550001D01*
X73863168Y-37605185D01*
X73863163Y-37605187D01*
X73713842Y-37697289D01*
X73589789Y-37821342D01*
X73497687Y-37970663D01*
X73497686Y-37970666D01*
X73442501Y-38137203D01*
X73442501Y-38137204D01*
X73442500Y-38137204D01*
X73432000Y-38239983D01*
X70355493Y-38239983D01*
X70369394Y-38219179D01*
X70429737Y-38073497D01*
X70460500Y-37918842D01*
X70460500Y-37761158D01*
X70460500Y-37761155D01*
X70460499Y-37761153D01*
X70453298Y-37724951D01*
X70429737Y-37606503D01*
X70429192Y-37605187D01*
X70369397Y-37460827D01*
X70369390Y-37460814D01*
X70281789Y-37329711D01*
X70281786Y-37329707D01*
X70170292Y-37218213D01*
X70170288Y-37218210D01*
X70039185Y-37130609D01*
X70039172Y-37130602D01*
X69893501Y-37070264D01*
X69893489Y-37070261D01*
X69738845Y-37039500D01*
X69738842Y-37039500D01*
X69581158Y-37039500D01*
X69581155Y-37039500D01*
X69426510Y-37070261D01*
X69426498Y-37070264D01*
X69280827Y-37130602D01*
X69280814Y-37130609D01*
X69149711Y-37218210D01*
X69149707Y-37218213D01*
X69038213Y-37329707D01*
X69038210Y-37329711D01*
X68950609Y-37460814D01*
X68950602Y-37460827D01*
X68890264Y-37606498D01*
X68890261Y-37606510D01*
X68859500Y-37761153D01*
X59337648Y-37761153D01*
X59287820Y-37724951D01*
X59287115Y-37724591D01*
X59279054Y-37720485D01*
X59228259Y-37672512D01*
X59211463Y-37604692D01*
X59233999Y-37538556D01*
X59279054Y-37499515D01*
X59287816Y-37495051D01*
X59334940Y-37460814D01*
X59459786Y-37370109D01*
X59459788Y-37370106D01*
X59459792Y-37370104D01*
X59610104Y-37219792D01*
X59610106Y-37219788D01*
X59610109Y-37219786D01*
X59733902Y-37049397D01*
X59735051Y-37047816D01*
X59831557Y-36858412D01*
X59897246Y-36656243D01*
X59930500Y-36446287D01*
X59930500Y-36361153D01*
X62359500Y-36361153D01*
X62359500Y-36518846D01*
X62390261Y-36673489D01*
X62390264Y-36673501D01*
X62450602Y-36819172D01*
X62450609Y-36819185D01*
X62538210Y-36950288D01*
X62538213Y-36950292D01*
X62649707Y-37061786D01*
X62649711Y-37061789D01*
X62780814Y-37149390D01*
X62780827Y-37149397D01*
X62926498Y-37209735D01*
X62926503Y-37209737D01*
X63081153Y-37240499D01*
X63081156Y-37240500D01*
X63081158Y-37240500D01*
X63238844Y-37240500D01*
X63238845Y-37240499D01*
X63393497Y-37209737D01*
X63539179Y-37149394D01*
X63670289Y-37061789D01*
X63781789Y-36950289D01*
X63869394Y-36819179D01*
X63929737Y-36673497D01*
X63960500Y-36518842D01*
X63960500Y-36361158D01*
X63960500Y-36361155D01*
X63960499Y-36361153D01*
X63943619Y-36276293D01*
X63929737Y-36206503D01*
X63902191Y-36140000D01*
X63869397Y-36060827D01*
X63869390Y-36060814D01*
X63781789Y-35929711D01*
X63781786Y-35929707D01*
X63670292Y-35818213D01*
X63670288Y-35818210D01*
X63539185Y-35730609D01*
X63539172Y-35730602D01*
X63393501Y-35670264D01*
X63393489Y-35670261D01*
X63238845Y-35639500D01*
X63238842Y-35639500D01*
X63081158Y-35639500D01*
X63081155Y-35639500D01*
X62926510Y-35670261D01*
X62926498Y-35670264D01*
X62780827Y-35730602D01*
X62780814Y-35730609D01*
X62649711Y-35818210D01*
X62649707Y-35818213D01*
X62538213Y-35929707D01*
X62538210Y-35929711D01*
X62450609Y-36060814D01*
X62450602Y-36060827D01*
X62390264Y-36206498D01*
X62390261Y-36206510D01*
X62359500Y-36361153D01*
X59930500Y-36361153D01*
X59930500Y-36233713D01*
X59897246Y-36023757D01*
X59831557Y-35821588D01*
X59735051Y-35632184D01*
X59735049Y-35632181D01*
X59735048Y-35632179D01*
X59610109Y-35460213D01*
X59459786Y-35309890D01*
X59287817Y-35184949D01*
X59278504Y-35180204D01*
X59227707Y-35132230D01*
X59210912Y-35064409D01*
X59233449Y-34998274D01*
X59278507Y-34959232D01*
X59287558Y-34954620D01*
X59459459Y-34829727D01*
X59459464Y-34829723D01*
X59609723Y-34679464D01*
X59609727Y-34679459D01*
X59734620Y-34507557D01*
X59809217Y-34361153D01*
X60559500Y-34361153D01*
X60559500Y-34518846D01*
X60590261Y-34673489D01*
X60590264Y-34673501D01*
X60650602Y-34819172D01*
X60650609Y-34819185D01*
X60738210Y-34950288D01*
X60738213Y-34950292D01*
X60849707Y-35061786D01*
X60849711Y-35061789D01*
X60980814Y-35149390D01*
X60980827Y-35149397D01*
X61126498Y-35209735D01*
X61126503Y-35209737D01*
X61281153Y-35240499D01*
X61281156Y-35240500D01*
X61281158Y-35240500D01*
X61438844Y-35240500D01*
X61438845Y-35240499D01*
X61593497Y-35209737D01*
X61710790Y-35161153D01*
X68859500Y-35161153D01*
X68859500Y-35318846D01*
X68890261Y-35473489D01*
X68890264Y-35473501D01*
X68950602Y-35619172D01*
X68950609Y-35619185D01*
X69038210Y-35750288D01*
X69038213Y-35750292D01*
X69149707Y-35861786D01*
X69149711Y-35861789D01*
X69280814Y-35949390D01*
X69280827Y-35949397D01*
X69426498Y-36009735D01*
X69426503Y-36009737D01*
X69581153Y-36040499D01*
X69581156Y-36040500D01*
X69581158Y-36040500D01*
X69738844Y-36040500D01*
X69738845Y-36040499D01*
X69893497Y-36009737D01*
X70011592Y-35960821D01*
X70039172Y-35949397D01*
X70039172Y-35949396D01*
X70039179Y-35949394D01*
X70170289Y-35861789D01*
X70281789Y-35750289D01*
X70311049Y-35706498D01*
X70341829Y-35660434D01*
X70369390Y-35619185D01*
X70369390Y-35619184D01*
X70369394Y-35619179D01*
X70429737Y-35473497D01*
X70460500Y-35318842D01*
X70460500Y-35161158D01*
X70460500Y-35161155D01*
X70460499Y-35161153D01*
X70455859Y-35137828D01*
X70429737Y-35006503D01*
X70426445Y-34998556D01*
X70369397Y-34860827D01*
X70369390Y-34860814D01*
X70281789Y-34729711D01*
X70281786Y-34729707D01*
X70170292Y-34618213D01*
X70170288Y-34618210D01*
X70039185Y-34530609D01*
X70039172Y-34530602D01*
X69893501Y-34470264D01*
X69893489Y-34470261D01*
X69738845Y-34439500D01*
X69738842Y-34439500D01*
X69581158Y-34439500D01*
X69581155Y-34439500D01*
X69426510Y-34470261D01*
X69426498Y-34470264D01*
X69280827Y-34530602D01*
X69280814Y-34530609D01*
X69149711Y-34618210D01*
X69149707Y-34618213D01*
X69038213Y-34729707D01*
X69038210Y-34729711D01*
X68950609Y-34860814D01*
X68950602Y-34860827D01*
X68890264Y-35006498D01*
X68890261Y-35006510D01*
X68859500Y-35161153D01*
X61710790Y-35161153D01*
X61739179Y-35149394D01*
X61870289Y-35061789D01*
X61981789Y-34950289D01*
X62069394Y-34819179D01*
X62129737Y-34673497D01*
X62160500Y-34518842D01*
X62160500Y-34361158D01*
X62160500Y-34361155D01*
X62144209Y-34279258D01*
X62144209Y-34279257D01*
X62140608Y-34261153D01*
X64259500Y-34261153D01*
X64259500Y-34418846D01*
X64290261Y-34573489D01*
X64290264Y-34573501D01*
X64350602Y-34719172D01*
X64350609Y-34719185D01*
X64438210Y-34850288D01*
X64438213Y-34850292D01*
X64549707Y-34961786D01*
X64549711Y-34961789D01*
X64680814Y-35049390D01*
X64680827Y-35049397D01*
X64824038Y-35108716D01*
X64826503Y-35109737D01*
X64941000Y-35132512D01*
X64981153Y-35140499D01*
X64981156Y-35140500D01*
X64981158Y-35140500D01*
X65138844Y-35140500D01*
X65138845Y-35140499D01*
X65293497Y-35109737D01*
X65439179Y-35049394D01*
X65570289Y-34961789D01*
X65681789Y-34850289D01*
X65769394Y-34719179D01*
X65829737Y-34573497D01*
X65860500Y-34418842D01*
X65860500Y-34261158D01*
X65860499Y-34261153D01*
X65856720Y-34242152D01*
X65856720Y-34242150D01*
X65852715Y-34222014D01*
X73432500Y-34222014D01*
X73432500Y-34457985D01*
X73463299Y-34691914D01*
X73524370Y-34919837D01*
X73614660Y-35137819D01*
X73614665Y-35137828D01*
X73732644Y-35342171D01*
X73732645Y-35342172D01*
X73795221Y-35423723D01*
X74631458Y-34587487D01*
X74656478Y-34647890D01*
X74727612Y-34754351D01*
X74818149Y-34844888D01*
X74924610Y-34916022D01*
X74985011Y-34941041D01*
X74148775Y-35777277D01*
X74230327Y-35839854D01*
X74230328Y-35839855D01*
X74434671Y-35957834D01*
X74434680Y-35957839D01*
X74652663Y-36048129D01*
X74652661Y-36048129D01*
X74880585Y-36109200D01*
X75114514Y-36139999D01*
X75114529Y-36140000D01*
X75350471Y-36140000D01*
X75350485Y-36139999D01*
X75584414Y-36109200D01*
X75812337Y-36048129D01*
X76030319Y-35957839D01*
X76030328Y-35957834D01*
X76234681Y-35839850D01*
X76316223Y-35777279D01*
X76316223Y-35777276D01*
X75479987Y-34941041D01*
X75540390Y-34916022D01*
X75646851Y-34844888D01*
X75737388Y-34754351D01*
X75808522Y-34647890D01*
X75833541Y-34587487D01*
X76669776Y-35423723D01*
X76669779Y-35423723D01*
X76732350Y-35342181D01*
X76850334Y-35137828D01*
X76850339Y-35137819D01*
X76940629Y-34919837D01*
X77001700Y-34691914D01*
X77032499Y-34457985D01*
X77032500Y-34457971D01*
X77032500Y-34222028D01*
X77032499Y-34222014D01*
X77001700Y-33988085D01*
X76940629Y-33760162D01*
X76850339Y-33542180D01*
X76850334Y-33542171D01*
X76732355Y-33337828D01*
X76732354Y-33337827D01*
X76669777Y-33256275D01*
X75833541Y-34092511D01*
X75808522Y-34032110D01*
X75737388Y-33925649D01*
X75646851Y-33835112D01*
X75540390Y-33763978D01*
X75479988Y-33738958D01*
X76316223Y-32902721D01*
X76234672Y-32840145D01*
X76234671Y-32840144D01*
X76030328Y-32722165D01*
X76030319Y-32722160D01*
X75812336Y-32631870D01*
X75812338Y-32631870D01*
X75584414Y-32570799D01*
X75350485Y-32540000D01*
X75114514Y-32540000D01*
X74880585Y-32570799D01*
X74652662Y-32631870D01*
X74434680Y-32722160D01*
X74434671Y-32722165D01*
X74230328Y-32840144D01*
X74230318Y-32840150D01*
X74148775Y-32902720D01*
X74148775Y-32902721D01*
X74985012Y-33738958D01*
X74924610Y-33763978D01*
X74818149Y-33835112D01*
X74727612Y-33925649D01*
X74656478Y-34032110D01*
X74631458Y-34092511D01*
X73795221Y-33256275D01*
X73795220Y-33256275D01*
X73732650Y-33337818D01*
X73732644Y-33337828D01*
X73614665Y-33542171D01*
X73614660Y-33542180D01*
X73524370Y-33760162D01*
X73463299Y-33988085D01*
X73432500Y-34222014D01*
X65852715Y-34222014D01*
X65829738Y-34106508D01*
X65829737Y-34106507D01*
X65829737Y-34106503D01*
X65780687Y-33988085D01*
X65769397Y-33960827D01*
X65769390Y-33960814D01*
X65681789Y-33829711D01*
X65681786Y-33829707D01*
X65570292Y-33718213D01*
X65570288Y-33718210D01*
X65439185Y-33630609D01*
X65439172Y-33630602D01*
X65293501Y-33570264D01*
X65293489Y-33570261D01*
X65138845Y-33539500D01*
X65138842Y-33539500D01*
X64981158Y-33539500D01*
X64981155Y-33539500D01*
X64826510Y-33570261D01*
X64826498Y-33570264D01*
X64680827Y-33630602D01*
X64680814Y-33630609D01*
X64549711Y-33718210D01*
X64549707Y-33718213D01*
X64438213Y-33829707D01*
X64438210Y-33829711D01*
X64350609Y-33960814D01*
X64350602Y-33960827D01*
X64290264Y-34106498D01*
X64290261Y-34106510D01*
X64259500Y-34261153D01*
X62140608Y-34261153D01*
X62129738Y-34206510D01*
X62129737Y-34206503D01*
X62107805Y-34153554D01*
X62069397Y-34060827D01*
X62069390Y-34060814D01*
X61981789Y-33929711D01*
X61981786Y-33929707D01*
X61870292Y-33818213D01*
X61870288Y-33818210D01*
X61739185Y-33730609D01*
X61739172Y-33730602D01*
X61593501Y-33670264D01*
X61593489Y-33670261D01*
X61438845Y-33639500D01*
X61438842Y-33639500D01*
X61281158Y-33639500D01*
X61281155Y-33639500D01*
X61126510Y-33670261D01*
X61126498Y-33670264D01*
X60980827Y-33730602D01*
X60980814Y-33730609D01*
X60849711Y-33818210D01*
X60849707Y-33818213D01*
X60738213Y-33929707D01*
X60738210Y-33929711D01*
X60650609Y-34060814D01*
X60650602Y-34060827D01*
X60590264Y-34206498D01*
X60590261Y-34206510D01*
X60559500Y-34361153D01*
X59809217Y-34361153D01*
X59831094Y-34318218D01*
X59831573Y-34316747D01*
X59831573Y-34316746D01*
X59896757Y-34116129D01*
X59896757Y-34116126D01*
X59907231Y-34050000D01*
X59013012Y-34050000D01*
X59045925Y-33992993D01*
X59080000Y-33865826D01*
X59080000Y-33734174D01*
X59045925Y-33607007D01*
X59013012Y-33550000D01*
X59907231Y-33550000D01*
X59896757Y-33483873D01*
X59896757Y-33483870D01*
X59831095Y-33281782D01*
X59734620Y-33092442D01*
X59609727Y-32920540D01*
X59609723Y-32920535D01*
X59495665Y-32806477D01*
X59462180Y-32745154D01*
X59467164Y-32675462D01*
X59509036Y-32619529D01*
X59540013Y-32602614D01*
X59672086Y-32553354D01*
X59672093Y-32553350D01*
X59787187Y-32467190D01*
X59787190Y-32467187D01*
X59873350Y-32352093D01*
X59873354Y-32352086D01*
X59907270Y-32261153D01*
X68659500Y-32261153D01*
X68659500Y-32418846D01*
X68690261Y-32573489D01*
X68690264Y-32573501D01*
X68750602Y-32719172D01*
X68750609Y-32719185D01*
X68838210Y-32850288D01*
X68838213Y-32850292D01*
X68949707Y-32961786D01*
X68949711Y-32961789D01*
X69080814Y-33049390D01*
X69080827Y-33049397D01*
X69226498Y-33109735D01*
X69226503Y-33109737D01*
X69381153Y-33140499D01*
X69381156Y-33140500D01*
X69381158Y-33140500D01*
X69538844Y-33140500D01*
X69538845Y-33140499D01*
X69693497Y-33109737D01*
X69839179Y-33049394D01*
X69970289Y-32961789D01*
X70011870Y-32920208D01*
X70069086Y-32862993D01*
X70081786Y-32850292D01*
X70081789Y-32850289D01*
X70169394Y-32719179D01*
X70229737Y-32573497D01*
X70260500Y-32418842D01*
X70260500Y-32261158D01*
X70260500Y-32261155D01*
X70260499Y-32261153D01*
X70239946Y-32157827D01*
X70229737Y-32106503D01*
X70229735Y-32106498D01*
X70169397Y-31960827D01*
X70169390Y-31960814D01*
X70081789Y-31829711D01*
X70081786Y-31829707D01*
X69970292Y-31718213D01*
X69970288Y-31718210D01*
X69839185Y-31630609D01*
X69839172Y-31630602D01*
X69693501Y-31570264D01*
X69693489Y-31570261D01*
X69538845Y-31539500D01*
X69538842Y-31539500D01*
X69381158Y-31539500D01*
X69381155Y-31539500D01*
X69226510Y-31570261D01*
X69226498Y-31570264D01*
X69080827Y-31630602D01*
X69080814Y-31630609D01*
X68949711Y-31718210D01*
X68949707Y-31718213D01*
X68838213Y-31829707D01*
X68838210Y-31829711D01*
X68750609Y-31960814D01*
X68750602Y-31960827D01*
X68690264Y-32106498D01*
X68690261Y-32106510D01*
X68659500Y-32261153D01*
X59907270Y-32261153D01*
X59923596Y-32217380D01*
X59923598Y-32217372D01*
X59929999Y-32157844D01*
X59930000Y-32157827D01*
X59930000Y-31510000D01*
X59013012Y-31510000D01*
X59045925Y-31452993D01*
X59080000Y-31325826D01*
X59080000Y-31194174D01*
X59045925Y-31067007D01*
X59013012Y-31010000D01*
X59930000Y-31010000D01*
X59930000Y-30961153D01*
X64259500Y-30961153D01*
X64259500Y-31118846D01*
X64290261Y-31273489D01*
X64290264Y-31273501D01*
X64350602Y-31419172D01*
X64350609Y-31419185D01*
X64438210Y-31550288D01*
X64438213Y-31550292D01*
X64549707Y-31661786D01*
X64549711Y-31661789D01*
X64680814Y-31749390D01*
X64680827Y-31749397D01*
X64826498Y-31809735D01*
X64826503Y-31809737D01*
X64981153Y-31840499D01*
X64981156Y-31840500D01*
X64981158Y-31840500D01*
X65138844Y-31840500D01*
X65138845Y-31840499D01*
X65293497Y-31809737D01*
X65439179Y-31749394D01*
X65570289Y-31661789D01*
X65681789Y-31550289D01*
X65769394Y-31419179D01*
X65829737Y-31273497D01*
X65860500Y-31118842D01*
X65860500Y-30961158D01*
X65860500Y-30961155D01*
X65860499Y-30961153D01*
X65856391Y-30940499D01*
X65829737Y-30806503D01*
X65810475Y-30760000D01*
X65769397Y-30660827D01*
X65769390Y-30660814D01*
X65681789Y-30529711D01*
X65681786Y-30529707D01*
X65570292Y-30418213D01*
X65570288Y-30418210D01*
X65439185Y-30330609D01*
X65439172Y-30330602D01*
X65293501Y-30270264D01*
X65293489Y-30270261D01*
X65138845Y-30239500D01*
X65138842Y-30239500D01*
X64981158Y-30239500D01*
X64981155Y-30239500D01*
X64826510Y-30270261D01*
X64826498Y-30270264D01*
X64680827Y-30330602D01*
X64680814Y-30330609D01*
X64549711Y-30418210D01*
X64549707Y-30418213D01*
X64438213Y-30529707D01*
X64438210Y-30529711D01*
X64350609Y-30660814D01*
X64350602Y-30660827D01*
X64290264Y-30806498D01*
X64290261Y-30806510D01*
X64259500Y-30961153D01*
X59930000Y-30961153D01*
X59930000Y-30362172D01*
X59929999Y-30362155D01*
X59923598Y-30302627D01*
X59923596Y-30302620D01*
X59873354Y-30167913D01*
X59873352Y-30167910D01*
X59844507Y-30129378D01*
X59844506Y-30129376D01*
X59793434Y-30061153D01*
X70859500Y-30061153D01*
X70859500Y-30218846D01*
X70890261Y-30373489D01*
X70890264Y-30373501D01*
X70950602Y-30519172D01*
X70950609Y-30519185D01*
X71038210Y-30650288D01*
X71038213Y-30650292D01*
X71149707Y-30761786D01*
X71149711Y-30761789D01*
X71280814Y-30849390D01*
X71280827Y-30849397D01*
X71426498Y-30909735D01*
X71426503Y-30909737D01*
X71547259Y-30933757D01*
X71581153Y-30940499D01*
X71581156Y-30940500D01*
X71581158Y-30940500D01*
X71738844Y-30940500D01*
X71738845Y-30940499D01*
X71893497Y-30909737D01*
X72039179Y-30849394D01*
X72170289Y-30761789D01*
X72281789Y-30650289D01*
X72369394Y-30519179D01*
X72429737Y-30373497D01*
X72460500Y-30218842D01*
X72460500Y-30061158D01*
X72460500Y-30061155D01*
X72460499Y-30061153D01*
X72456780Y-30042455D01*
X72429737Y-29906503D01*
X72426836Y-29899500D01*
X72369397Y-29760827D01*
X72369390Y-29760814D01*
X72281789Y-29629711D01*
X72281786Y-29629707D01*
X72170292Y-29518213D01*
X72170288Y-29518210D01*
X72039185Y-29430609D01*
X72039172Y-29430602D01*
X71893501Y-29370264D01*
X71893489Y-29370261D01*
X71738845Y-29339500D01*
X71738842Y-29339500D01*
X71581158Y-29339500D01*
X71581155Y-29339500D01*
X71426510Y-29370261D01*
X71426498Y-29370264D01*
X71280827Y-29430602D01*
X71280814Y-29430609D01*
X71149711Y-29518210D01*
X71149707Y-29518213D01*
X71038213Y-29629707D01*
X71038210Y-29629711D01*
X70950609Y-29760814D01*
X70950602Y-29760827D01*
X70890264Y-29906498D01*
X70890261Y-29906510D01*
X70859500Y-30061153D01*
X59793434Y-30061153D01*
X59787190Y-30052812D01*
X59787187Y-30052809D01*
X59672093Y-29966649D01*
X59672086Y-29966645D01*
X59537379Y-29916403D01*
X59537372Y-29916401D01*
X59477844Y-29910000D01*
X58830000Y-29910000D01*
X58830000Y-30826988D01*
X58772993Y-30794075D01*
X58645826Y-30760000D01*
X58514174Y-30760000D01*
X58387007Y-30794075D01*
X58330000Y-30826988D01*
X58330000Y-29910000D01*
X57682155Y-29910000D01*
X57622627Y-29916401D01*
X57622620Y-29916403D01*
X57487913Y-29966645D01*
X57487906Y-29966649D01*
X57372812Y-30052809D01*
X57372809Y-30052812D01*
X57286649Y-30167906D01*
X57286645Y-30167913D01*
X57236403Y-30302620D01*
X57236401Y-30302627D01*
X57230000Y-30362155D01*
X57230000Y-31010000D01*
X58146988Y-31010000D01*
X58114075Y-31067007D01*
X58080000Y-31194174D01*
X58080000Y-31325826D01*
X58114075Y-31452993D01*
X58146988Y-31510000D01*
X57230000Y-31510000D01*
X57230000Y-32157844D01*
X57236401Y-32217372D01*
X57236403Y-32217379D01*
X57286645Y-32352086D01*
X57286649Y-32352093D01*
X57372809Y-32467187D01*
X57372812Y-32467190D01*
X57487906Y-32553350D01*
X57487913Y-32553354D01*
X57619986Y-32602614D01*
X57675920Y-32644485D01*
X57700337Y-32709949D01*
X57685486Y-32778222D01*
X57664335Y-32806477D01*
X57550271Y-32920541D01*
X57425379Y-33092442D01*
X57328904Y-33281782D01*
X57263242Y-33483870D01*
X57263242Y-33483873D01*
X57252769Y-33550000D01*
X58146988Y-33550000D01*
X58114075Y-33607007D01*
X58080000Y-33734174D01*
X58080000Y-33865826D01*
X58114075Y-33992993D01*
X58146988Y-34050000D01*
X57252769Y-34050000D01*
X57263242Y-34116126D01*
X57263242Y-34116129D01*
X57328904Y-34318217D01*
X57425379Y-34507557D01*
X57550272Y-34679459D01*
X57550276Y-34679464D01*
X57700535Y-34829723D01*
X57700540Y-34829727D01*
X57872444Y-34954622D01*
X57881495Y-34959234D01*
X57932292Y-35007208D01*
X57949087Y-35075029D01*
X57926550Y-35141164D01*
X57881499Y-35180202D01*
X57872182Y-35184949D01*
X57700213Y-35309890D01*
X57549890Y-35460213D01*
X57424951Y-35632179D01*
X57328444Y-35821585D01*
X57328443Y-35821587D01*
X57328443Y-35821588D01*
X57315587Y-35861155D01*
X57262753Y-36023760D01*
X57229500Y-36233713D01*
X56904795Y-36233713D01*
X56929737Y-36173497D01*
X56960500Y-36018842D01*
X56960500Y-35861158D01*
X56960500Y-35861155D01*
X56960499Y-35861153D01*
X56929737Y-35706503D01*
X56929735Y-35706498D01*
X56869397Y-35560827D01*
X56869390Y-35560814D01*
X56781789Y-35429711D01*
X56781786Y-35429707D01*
X56670292Y-35318213D01*
X56670288Y-35318210D01*
X56539185Y-35230609D01*
X56539172Y-35230602D01*
X56393501Y-35170264D01*
X56393489Y-35170261D01*
X56238845Y-35139500D01*
X56238842Y-35139500D01*
X56081158Y-35139500D01*
X56081155Y-35139500D01*
X55926510Y-35170261D01*
X55926498Y-35170264D01*
X55780827Y-35230602D01*
X55780814Y-35230609D01*
X55649711Y-35318210D01*
X55649707Y-35318213D01*
X55538213Y-35429707D01*
X55538210Y-35429711D01*
X55450609Y-35560814D01*
X55450602Y-35560827D01*
X55390264Y-35706498D01*
X55390261Y-35706510D01*
X55359500Y-35861153D01*
X54764413Y-35861153D01*
X54751557Y-35821588D01*
X54751555Y-35821585D01*
X54751555Y-35821583D01*
X54692916Y-35706498D01*
X54655051Y-35632184D01*
X54655049Y-35632181D01*
X54655048Y-35632179D01*
X54530109Y-35460213D01*
X54379786Y-35309890D01*
X54207817Y-35184949D01*
X54198504Y-35180204D01*
X54147707Y-35132230D01*
X54130912Y-35064409D01*
X54153449Y-34998274D01*
X54198507Y-34959232D01*
X54207555Y-34954622D01*
X54261716Y-34915270D01*
X54261717Y-34915270D01*
X53629408Y-34282962D01*
X53692993Y-34265925D01*
X53807007Y-34200099D01*
X53900099Y-34107007D01*
X53965925Y-33992993D01*
X53982962Y-33929408D01*
X54615270Y-34561717D01*
X54615270Y-34561716D01*
X54654622Y-34507554D01*
X54751095Y-34318217D01*
X54816757Y-34116130D01*
X54816757Y-34116127D01*
X54850000Y-33906246D01*
X54850000Y-33693753D01*
X54816757Y-33483872D01*
X54816757Y-33483869D01*
X54751095Y-33281782D01*
X54654624Y-33092449D01*
X54615270Y-33038282D01*
X54615269Y-33038282D01*
X53982962Y-33670590D01*
X53965925Y-33607007D01*
X53900099Y-33492993D01*
X53807007Y-33399901D01*
X53692993Y-33334075D01*
X53629409Y-33317037D01*
X54298802Y-32647642D01*
X54360125Y-32614157D01*
X54374833Y-32615078D01*
X54374556Y-32612501D01*
X54457375Y-32603598D01*
X54592086Y-32553354D01*
X54592093Y-32553350D01*
X54707187Y-32467190D01*
X54707190Y-32467187D01*
X54793350Y-32352093D01*
X54793354Y-32352086D01*
X54843596Y-32217379D01*
X54843598Y-32217372D01*
X54849999Y-32157844D01*
X54850000Y-32157827D01*
X54850000Y-31510000D01*
X53933012Y-31510000D01*
X53965925Y-31452993D01*
X54000000Y-31325826D01*
X54000000Y-31194174D01*
X53965925Y-31067007D01*
X53933012Y-31010000D01*
X54850000Y-31010000D01*
X54850000Y-30362172D01*
X54849999Y-30362155D01*
X54843598Y-30302627D01*
X54843596Y-30302620D01*
X54793354Y-30167913D01*
X54793350Y-30167906D01*
X54707190Y-30052812D01*
X54707187Y-30052809D01*
X54592093Y-29966649D01*
X54592086Y-29966645D01*
X54457379Y-29916403D01*
X54457372Y-29916401D01*
X54397844Y-29910000D01*
X53750000Y-29910000D01*
X53750000Y-30826988D01*
X53692993Y-30794075D01*
X53565826Y-30760000D01*
X53434174Y-30760000D01*
X53307007Y-30794075D01*
X53250000Y-30826988D01*
X53250000Y-29910000D01*
X52602155Y-29910000D01*
X52542627Y-29916401D01*
X52542620Y-29916403D01*
X52407913Y-29966645D01*
X52407906Y-29966649D01*
X52292812Y-30052809D01*
X52292809Y-30052812D01*
X52206649Y-30167906D01*
X52206645Y-30167913D01*
X52156403Y-30302620D01*
X52156401Y-30302627D01*
X52150000Y-30362155D01*
X52150000Y-31010000D01*
X53066988Y-31010000D01*
X53034075Y-31067007D01*
X53000000Y-31194174D01*
X53000000Y-31325826D01*
X53034075Y-31452993D01*
X53066988Y-31510000D01*
X52150000Y-31510000D01*
X52150000Y-32157844D01*
X52156401Y-32217372D01*
X52156403Y-32217379D01*
X52206645Y-32352086D01*
X52206649Y-32352093D01*
X52292809Y-32467187D01*
X52292812Y-32467190D01*
X52407906Y-32553350D01*
X52407913Y-32553354D01*
X52542620Y-32603596D01*
X52542619Y-32603596D01*
X52625444Y-32612501D01*
X52625116Y-32615550D01*
X52642014Y-32614642D01*
X52701196Y-32647642D01*
X53370591Y-33317037D01*
X53307007Y-33334075D01*
X53192993Y-33399901D01*
X53099901Y-33492993D01*
X53034075Y-33607007D01*
X53017037Y-33670591D01*
X52384728Y-33038282D01*
X52384727Y-33038282D01*
X52345380Y-33092439D01*
X52248904Y-33281782D01*
X52183242Y-33483869D01*
X52183242Y-33483872D01*
X52150000Y-33693753D01*
X52150000Y-33906246D01*
X52183242Y-34116127D01*
X52183242Y-34116130D01*
X52248904Y-34318217D01*
X52345375Y-34507550D01*
X52384728Y-34561716D01*
X53017037Y-33929408D01*
X53034075Y-33992993D01*
X53099901Y-34107007D01*
X53192993Y-34200099D01*
X53307007Y-34265925D01*
X53370590Y-34282962D01*
X52738282Y-34915269D01*
X52738282Y-34915270D01*
X52792452Y-34954626D01*
X52792451Y-34954626D01*
X52801495Y-34959234D01*
X52852292Y-35007208D01*
X52869087Y-35075029D01*
X52846550Y-35141164D01*
X52801499Y-35180202D01*
X52792182Y-35184949D01*
X52620213Y-35309890D01*
X52469890Y-35460213D01*
X52344951Y-35632179D01*
X52248444Y-35821585D01*
X52248443Y-35821587D01*
X52248443Y-35821588D01*
X52235587Y-35861155D01*
X52182753Y-36023760D01*
X52149500Y-36233713D01*
X51499587Y-36233713D01*
X51469397Y-36160827D01*
X51469390Y-36160814D01*
X51381789Y-36029711D01*
X51381786Y-36029707D01*
X51270292Y-35918213D01*
X51270288Y-35918210D01*
X51139185Y-35830609D01*
X51139172Y-35830602D01*
X50993501Y-35770264D01*
X50993489Y-35770261D01*
X50838845Y-35739500D01*
X50838842Y-35739500D01*
X50681158Y-35739500D01*
X50681155Y-35739500D01*
X50526510Y-35770261D01*
X50526498Y-35770264D01*
X50380827Y-35830602D01*
X50380814Y-35830609D01*
X50249711Y-35918210D01*
X50249707Y-35918213D01*
X50138213Y-36029707D01*
X50138210Y-36029711D01*
X50050609Y-36160814D01*
X50050602Y-36160827D01*
X49990264Y-36306498D01*
X49990261Y-36306510D01*
X49959500Y-36461153D01*
X42168145Y-36461153D01*
X42170500Y-36446287D01*
X42170500Y-36233713D01*
X42137246Y-36023757D01*
X42071557Y-35821588D01*
X41975051Y-35632184D01*
X41975049Y-35632181D01*
X41975048Y-35632179D01*
X41850109Y-35460213D01*
X41699786Y-35309890D01*
X41527820Y-35184951D01*
X41527115Y-35184591D01*
X41519054Y-35180485D01*
X41468259Y-35132512D01*
X41451463Y-35064692D01*
X41473999Y-34998556D01*
X41519054Y-34959515D01*
X41527816Y-34955051D01*
X41582572Y-34915269D01*
X41699786Y-34830109D01*
X41699788Y-34830106D01*
X41699792Y-34830104D01*
X41850104Y-34679792D01*
X41850106Y-34679788D01*
X41850109Y-34679786D01*
X41975048Y-34507820D01*
X41975047Y-34507820D01*
X41975051Y-34507816D01*
X42071557Y-34318412D01*
X42137246Y-34116243D01*
X42170500Y-33906287D01*
X42170500Y-33693713D01*
X42137246Y-33483757D01*
X42071557Y-33281588D01*
X41975051Y-33092184D01*
X41975049Y-33092181D01*
X41975048Y-33092179D01*
X41850109Y-32920213D01*
X41736181Y-32806285D01*
X41702696Y-32744962D01*
X41707680Y-32675270D01*
X41749552Y-32619337D01*
X41780529Y-32602422D01*
X41912086Y-32553354D01*
X41912093Y-32553350D01*
X42027187Y-32467190D01*
X42027190Y-32467187D01*
X42113350Y-32352093D01*
X42113354Y-32352086D01*
X42163596Y-32217379D01*
X42163598Y-32217372D01*
X42169999Y-32157844D01*
X42170000Y-32157827D01*
X42170000Y-31510000D01*
X41253012Y-31510000D01*
X41285925Y-31452993D01*
X41320000Y-31325826D01*
X41320000Y-31194174D01*
X41285925Y-31067007D01*
X41253012Y-31010000D01*
X42170000Y-31010000D01*
X42170000Y-30362172D01*
X42169999Y-30362155D01*
X42163598Y-30302627D01*
X42163596Y-30302620D01*
X42113354Y-30167913D01*
X42113350Y-30167906D01*
X42027190Y-30052812D01*
X42027187Y-30052809D01*
X41912093Y-29966649D01*
X41912086Y-29966645D01*
X41777379Y-29916403D01*
X41777372Y-29916401D01*
X41717844Y-29910000D01*
X41070000Y-29910000D01*
X41070000Y-30826988D01*
X41012993Y-30794075D01*
X40885826Y-30760000D01*
X40754174Y-30760000D01*
X40627007Y-30794075D01*
X40570000Y-30826988D01*
X40570000Y-29910000D01*
X39922155Y-29910000D01*
X39862627Y-29916401D01*
X39862620Y-29916403D01*
X39727913Y-29966645D01*
X39727906Y-29966649D01*
X39612812Y-30052809D01*
X39583766Y-30091610D01*
X39527832Y-30133480D01*
X39458140Y-30138464D01*
X39396818Y-30104978D01*
X39363333Y-30043655D01*
X39360500Y-30017298D01*
X39360500Y-28161153D01*
X65059500Y-28161153D01*
X65059500Y-28318846D01*
X65090261Y-28473489D01*
X65090264Y-28473501D01*
X65150602Y-28619172D01*
X65150609Y-28619185D01*
X65238210Y-28750288D01*
X65238213Y-28750292D01*
X65349707Y-28861786D01*
X65349711Y-28861789D01*
X65480814Y-28949390D01*
X65480827Y-28949397D01*
X65626498Y-29009735D01*
X65626503Y-29009737D01*
X65781153Y-29040499D01*
X65781156Y-29040500D01*
X65781158Y-29040500D01*
X65938844Y-29040500D01*
X65938845Y-29040499D01*
X66093497Y-29009737D01*
X66239179Y-28949394D01*
X66370289Y-28861789D01*
X66481789Y-28750289D01*
X66569394Y-28619179D01*
X66629737Y-28473497D01*
X66660500Y-28318842D01*
X66660500Y-28161158D01*
X66660500Y-28161155D01*
X66660499Y-28161153D01*
X66654244Y-28129707D01*
X66629737Y-28006503D01*
X66628084Y-28002512D01*
X66610953Y-27961153D01*
X68659500Y-27961153D01*
X68659500Y-28118846D01*
X68690261Y-28273489D01*
X68690264Y-28273501D01*
X68750602Y-28419172D01*
X68750609Y-28419185D01*
X68838210Y-28550288D01*
X68838213Y-28550292D01*
X68949707Y-28661786D01*
X68949711Y-28661789D01*
X69080814Y-28749390D01*
X69080827Y-28749397D01*
X69223461Y-28808477D01*
X69226503Y-28809737D01*
X69381153Y-28840499D01*
X69381156Y-28840500D01*
X69381158Y-28840500D01*
X69538844Y-28840500D01*
X69538845Y-28840499D01*
X69693497Y-28809737D01*
X69839179Y-28749394D01*
X69970289Y-28661789D01*
X70081789Y-28550289D01*
X70169394Y-28419179D01*
X70229737Y-28273497D01*
X70260500Y-28118842D01*
X70260500Y-27961158D01*
X70260500Y-27961155D01*
X70260499Y-27961153D01*
X70250271Y-27909735D01*
X70229737Y-27806503D01*
X70197929Y-27729711D01*
X70169397Y-27660827D01*
X70169390Y-27660814D01*
X70081789Y-27529711D01*
X70081786Y-27529707D01*
X69970292Y-27418213D01*
X69970288Y-27418210D01*
X69839185Y-27330609D01*
X69839172Y-27330602D01*
X69693501Y-27270264D01*
X69693489Y-27270261D01*
X69538845Y-27239500D01*
X69538842Y-27239500D01*
X69381158Y-27239500D01*
X69381155Y-27239500D01*
X69226510Y-27270261D01*
X69226498Y-27270264D01*
X69080827Y-27330602D01*
X69080814Y-27330609D01*
X68949711Y-27418210D01*
X68949707Y-27418213D01*
X68838213Y-27529707D01*
X68838210Y-27529711D01*
X68750609Y-27660814D01*
X68750602Y-27660827D01*
X68690264Y-27806498D01*
X68690261Y-27806510D01*
X68659500Y-27961153D01*
X66610953Y-27961153D01*
X66569397Y-27860827D01*
X66569390Y-27860814D01*
X66481789Y-27729711D01*
X66481786Y-27729707D01*
X66370292Y-27618213D01*
X66370288Y-27618210D01*
X66239185Y-27530609D01*
X66239172Y-27530602D01*
X66093501Y-27470264D01*
X66093489Y-27470261D01*
X65938845Y-27439500D01*
X65938842Y-27439500D01*
X65781158Y-27439500D01*
X65781155Y-27439500D01*
X65626510Y-27470261D01*
X65626498Y-27470264D01*
X65480827Y-27530602D01*
X65480814Y-27530609D01*
X65349711Y-27618210D01*
X65349707Y-27618213D01*
X65238213Y-27729707D01*
X65238210Y-27729711D01*
X65150609Y-27860814D01*
X65150602Y-27860827D01*
X65090264Y-28006498D01*
X65090261Y-28006510D01*
X65059500Y-28161153D01*
X39360500Y-28161153D01*
X39360500Y-27061153D01*
X71159500Y-27061153D01*
X71159500Y-27218846D01*
X71190261Y-27373489D01*
X71190264Y-27373501D01*
X71250602Y-27519172D01*
X71250609Y-27519185D01*
X71338210Y-27650288D01*
X71338213Y-27650292D01*
X71449707Y-27761786D01*
X71449711Y-27761789D01*
X71580814Y-27849390D01*
X71580827Y-27849397D01*
X71699509Y-27898556D01*
X71726503Y-27909737D01*
X71881153Y-27940499D01*
X71881156Y-27940500D01*
X71881158Y-27940500D01*
X72038844Y-27940500D01*
X72038845Y-27940499D01*
X72193497Y-27909737D01*
X72311592Y-27860821D01*
X72339172Y-27849397D01*
X72339172Y-27849396D01*
X72339179Y-27849394D01*
X72470289Y-27761789D01*
X72581789Y-27650289D01*
X72669394Y-27519179D01*
X72729737Y-27373497D01*
X72748228Y-27280534D01*
X72756295Y-27239983D01*
X73432000Y-27239983D01*
X73432000Y-29440001D01*
X73432001Y-29440018D01*
X73442500Y-29542796D01*
X73442501Y-29542799D01*
X73497685Y-29709331D01*
X73497686Y-29709334D01*
X73589788Y-29858656D01*
X73713844Y-29982712D01*
X73863166Y-30074814D01*
X74029703Y-30129999D01*
X74132491Y-30140500D01*
X76332508Y-30140499D01*
X76435297Y-30129999D01*
X76601834Y-30074814D01*
X76751156Y-29982712D01*
X76875212Y-29858656D01*
X76967314Y-29709334D01*
X77022499Y-29542797D01*
X77030840Y-29461153D01*
X77459500Y-29461153D01*
X77459500Y-29618846D01*
X77490261Y-29773489D01*
X77490264Y-29773501D01*
X77550602Y-29919172D01*
X77550609Y-29919185D01*
X77638210Y-30050288D01*
X77638213Y-30050292D01*
X77749707Y-30161786D01*
X77749711Y-30161789D01*
X77880814Y-30249390D01*
X77880827Y-30249397D01*
X78009321Y-30302620D01*
X78026503Y-30309737D01*
X78145620Y-30333431D01*
X78181153Y-30340499D01*
X78181156Y-30340500D01*
X78181158Y-30340500D01*
X78338844Y-30340500D01*
X78338845Y-30340499D01*
X78493497Y-30309737D01*
X78611592Y-30260821D01*
X78639172Y-30249397D01*
X78639172Y-30249396D01*
X78639179Y-30249394D01*
X78770289Y-30161789D01*
X78881789Y-30050289D01*
X78969394Y-29919179D01*
X79029737Y-29773497D01*
X79060500Y-29618842D01*
X79060500Y-29461158D01*
X79060500Y-29461155D01*
X79060499Y-29461153D01*
X79029737Y-29306503D01*
X78975374Y-29175257D01*
X78969397Y-29160827D01*
X78969390Y-29160814D01*
X78881789Y-29029711D01*
X78881786Y-29029707D01*
X78770292Y-28918213D01*
X78770288Y-28918210D01*
X78639185Y-28830609D01*
X78639172Y-28830602D01*
X78493501Y-28770264D01*
X78493489Y-28770261D01*
X78338845Y-28739500D01*
X78338842Y-28739500D01*
X78181158Y-28739500D01*
X78181155Y-28739500D01*
X78026510Y-28770261D01*
X78026498Y-28770264D01*
X77880827Y-28830602D01*
X77880814Y-28830609D01*
X77749711Y-28918210D01*
X77749707Y-28918213D01*
X77638213Y-29029707D01*
X77638210Y-29029711D01*
X77550609Y-29160814D01*
X77550602Y-29160827D01*
X77490264Y-29306498D01*
X77490261Y-29306510D01*
X77459500Y-29461153D01*
X77030840Y-29461153D01*
X77033000Y-29440009D01*
X77032999Y-27439137D01*
X77052684Y-27372099D01*
X77105487Y-27326344D01*
X77174646Y-27316400D01*
X77238202Y-27345425D01*
X77275976Y-27404203D01*
X77278616Y-27414946D01*
X77290261Y-27473491D01*
X77290264Y-27473501D01*
X77350602Y-27619172D01*
X77350609Y-27619185D01*
X77438210Y-27750288D01*
X77438213Y-27750292D01*
X77549707Y-27861786D01*
X77549711Y-27861789D01*
X77680814Y-27949390D01*
X77680827Y-27949397D01*
X77818695Y-28006503D01*
X77826503Y-28009737D01*
X77974718Y-28039219D01*
X77981153Y-28040499D01*
X77981156Y-28040500D01*
X77981158Y-28040500D01*
X78138844Y-28040500D01*
X78138845Y-28040499D01*
X78293497Y-28009737D01*
X78439179Y-27949394D01*
X78570289Y-27861789D01*
X78681789Y-27750289D01*
X78769394Y-27619179D01*
X78829737Y-27473497D01*
X78860500Y-27318842D01*
X78860500Y-27161158D01*
X78860500Y-27161155D01*
X78860499Y-27161153D01*
X78846094Y-27088735D01*
X78829737Y-27006503D01*
X78802231Y-26940097D01*
X78769397Y-26860827D01*
X78769390Y-26860814D01*
X78681789Y-26729711D01*
X78681786Y-26729707D01*
X78570292Y-26618213D01*
X78570288Y-26618210D01*
X78439185Y-26530609D01*
X78439172Y-26530602D01*
X78293501Y-26470264D01*
X78293489Y-26470261D01*
X78138845Y-26439500D01*
X78138842Y-26439500D01*
X77981158Y-26439500D01*
X77981155Y-26439500D01*
X77826510Y-26470261D01*
X77826498Y-26470264D01*
X77680827Y-26530602D01*
X77680814Y-26530609D01*
X77549711Y-26618210D01*
X77549707Y-26618213D01*
X77438213Y-26729707D01*
X77438210Y-26729711D01*
X77350609Y-26860814D01*
X77350602Y-26860827D01*
X77290264Y-27006498D01*
X77290261Y-27006508D01*
X77264978Y-27133613D01*
X77232593Y-27195524D01*
X77171877Y-27230098D01*
X77102107Y-27226357D01*
X77045436Y-27185491D01*
X77025775Y-27143250D01*
X77024629Y-27143630D01*
X76990546Y-27040776D01*
X76967314Y-26970666D01*
X76875212Y-26821344D01*
X76751156Y-26697288D01*
X76622951Y-26618211D01*
X76601836Y-26605187D01*
X76601831Y-26605185D01*
X76600362Y-26604698D01*
X76435297Y-26550001D01*
X76435295Y-26550000D01*
X76332510Y-26539500D01*
X74132498Y-26539500D01*
X74132481Y-26539501D01*
X74029703Y-26550000D01*
X74029700Y-26550001D01*
X73863168Y-26605185D01*
X73863163Y-26605187D01*
X73713842Y-26697289D01*
X73589789Y-26821342D01*
X73497687Y-26970663D01*
X73497686Y-26970666D01*
X73442501Y-27137203D01*
X73442501Y-27137204D01*
X73442500Y-27137204D01*
X73432000Y-27239983D01*
X72756295Y-27239983D01*
X72760499Y-27218849D01*
X72760500Y-27218841D01*
X72760500Y-27061155D01*
X72760499Y-27061153D01*
X72736419Y-26940097D01*
X72729737Y-26906503D01*
X72709808Y-26858390D01*
X72669397Y-26760827D01*
X72669390Y-26760814D01*
X72581789Y-26629711D01*
X72581786Y-26629707D01*
X72470291Y-26518212D01*
X72470288Y-26518210D01*
X72339185Y-26430609D01*
X72339172Y-26430602D01*
X72193501Y-26370264D01*
X72193489Y-26370261D01*
X72038845Y-26339500D01*
X72038842Y-26339500D01*
X71881158Y-26339500D01*
X71881155Y-26339500D01*
X71726510Y-26370261D01*
X71726498Y-26370264D01*
X71580827Y-26430602D01*
X71580814Y-26430609D01*
X71449711Y-26518210D01*
X71449709Y-26518212D01*
X71338213Y-26629707D01*
X71338210Y-26629711D01*
X71250609Y-26760814D01*
X71250602Y-26760827D01*
X71190264Y-26906498D01*
X71190261Y-26906510D01*
X71159500Y-27061153D01*
X39360500Y-27061153D01*
X39360500Y-25953389D01*
X39333402Y-25782301D01*
X39333402Y-25782299D01*
X39281380Y-25622193D01*
X39280318Y-25618427D01*
X39258633Y-25575869D01*
X39201232Y-25463212D01*
X39099414Y-25323072D01*
X38036819Y-24260477D01*
X38003334Y-24199154D01*
X38000500Y-24172796D01*
X38000500Y-23163188D01*
X38020185Y-23096149D01*
X38024169Y-23090320D01*
X38055051Y-23047816D01*
X38151557Y-22858412D01*
X38217246Y-22656243D01*
X38250500Y-22446287D01*
X38250500Y-22233713D01*
X38217246Y-22023757D01*
X38151557Y-21821588D01*
X38055051Y-21632184D01*
X38010095Y-21570307D01*
X37967511Y-21511694D01*
X37967508Y-21511691D01*
X37930553Y-21460827D01*
X37930104Y-21460208D01*
X37912031Y-21442135D01*
X39209500Y-21442135D01*
X39209500Y-23237870D01*
X39209501Y-23237876D01*
X39215908Y-23297483D01*
X39266202Y-23432328D01*
X39266206Y-23432335D01*
X39352452Y-23547544D01*
X39352455Y-23547547D01*
X39467664Y-23633793D01*
X39467671Y-23633797D01*
X39602517Y-23684091D01*
X39602516Y-23684091D01*
X39609444Y-23684835D01*
X39662127Y-23690500D01*
X41457872Y-23690499D01*
X41517483Y-23684091D01*
X41652331Y-23633796D01*
X41767546Y-23547546D01*
X41853796Y-23432331D01*
X41904091Y-23297483D01*
X41910500Y-23237873D01*
X41910499Y-22233713D01*
X47419500Y-22233713D01*
X47419500Y-22446286D01*
X47451669Y-22649397D01*
X47452754Y-22656243D01*
X47505697Y-22819185D01*
X47518444Y-22858414D01*
X47614951Y-23047820D01*
X47739890Y-23219786D01*
X47890213Y-23370109D01*
X48062179Y-23495048D01*
X48062181Y-23495049D01*
X48062184Y-23495051D01*
X48251588Y-23591557D01*
X48453757Y-23657246D01*
X48663713Y-23690500D01*
X48663714Y-23690500D01*
X48876286Y-23690500D01*
X48876287Y-23690500D01*
X49086243Y-23657246D01*
X49288412Y-23591557D01*
X49477816Y-23495051D01*
X49564138Y-23432335D01*
X49649786Y-23370109D01*
X49649788Y-23370106D01*
X49649792Y-23370104D01*
X49800104Y-23219792D01*
X49800106Y-23219788D01*
X49800109Y-23219786D01*
X49925048Y-23047820D01*
X49925047Y-23047820D01*
X49925051Y-23047816D01*
X49929514Y-23039054D01*
X49977488Y-22988259D01*
X50045308Y-22971463D01*
X50111444Y-22993999D01*
X50150486Y-23039056D01*
X50154951Y-23047820D01*
X50279890Y-23219786D01*
X50430213Y-23370109D01*
X50602179Y-23495048D01*
X50602181Y-23495049D01*
X50602184Y-23495051D01*
X50791588Y-23591557D01*
X50993757Y-23657246D01*
X51203713Y-23690500D01*
X51203714Y-23690500D01*
X51416286Y-23690500D01*
X51416287Y-23690500D01*
X51626243Y-23657246D01*
X51828412Y-23591557D01*
X52017816Y-23495051D01*
X52104138Y-23432335D01*
X52189786Y-23370109D01*
X52189788Y-23370106D01*
X52189792Y-23370104D01*
X52340104Y-23219792D01*
X52340106Y-23219788D01*
X52340109Y-23219786D01*
X52465048Y-23047820D01*
X52465047Y-23047820D01*
X52465051Y-23047816D01*
X52469514Y-23039054D01*
X52517488Y-22988259D01*
X52585308Y-22971463D01*
X52651444Y-22993999D01*
X52690486Y-23039056D01*
X52694951Y-23047820D01*
X52819890Y-23219786D01*
X52970213Y-23370109D01*
X53142179Y-23495048D01*
X53142181Y-23495049D01*
X53142184Y-23495051D01*
X53331588Y-23591557D01*
X53533757Y-23657246D01*
X53743713Y-23690500D01*
X53743714Y-23690500D01*
X53956286Y-23690500D01*
X53956287Y-23690500D01*
X54166243Y-23657246D01*
X54368412Y-23591557D01*
X54557816Y-23495051D01*
X54644138Y-23432335D01*
X54729786Y-23370109D01*
X54729788Y-23370106D01*
X54729792Y-23370104D01*
X54880104Y-23219792D01*
X54880106Y-23219788D01*
X54880109Y-23219786D01*
X55005048Y-23047820D01*
X55005047Y-23047820D01*
X55005051Y-23047816D01*
X55009514Y-23039054D01*
X55057488Y-22988259D01*
X55125308Y-22971463D01*
X55191444Y-22993999D01*
X55230486Y-23039056D01*
X55234951Y-23047820D01*
X55359890Y-23219786D01*
X55510213Y-23370109D01*
X55682179Y-23495048D01*
X55682181Y-23495049D01*
X55682184Y-23495051D01*
X55871588Y-23591557D01*
X56073757Y-23657246D01*
X56283713Y-23690500D01*
X56283714Y-23690500D01*
X56496286Y-23690500D01*
X56496287Y-23690500D01*
X56706243Y-23657246D01*
X56908412Y-23591557D01*
X57097816Y-23495051D01*
X57184138Y-23432335D01*
X57269786Y-23370109D01*
X57269788Y-23370106D01*
X57269792Y-23370104D01*
X57420104Y-23219792D01*
X57420106Y-23219788D01*
X57420109Y-23219786D01*
X57545048Y-23047820D01*
X57545047Y-23047820D01*
X57545051Y-23047816D01*
X57549514Y-23039054D01*
X57597488Y-22988259D01*
X57665308Y-22971463D01*
X57731444Y-22993999D01*
X57770486Y-23039056D01*
X57774951Y-23047820D01*
X57899890Y-23219786D01*
X58050213Y-23370109D01*
X58222179Y-23495048D01*
X58222181Y-23495049D01*
X58222184Y-23495051D01*
X58411588Y-23591557D01*
X58613757Y-23657246D01*
X58823713Y-23690500D01*
X58823714Y-23690500D01*
X59036286Y-23690500D01*
X59036287Y-23690500D01*
X59246243Y-23657246D01*
X59448412Y-23591557D01*
X59637816Y-23495051D01*
X59724138Y-23432335D01*
X59809786Y-23370109D01*
X59809788Y-23370106D01*
X59809792Y-23370104D01*
X59960104Y-23219792D01*
X59960106Y-23219788D01*
X59960109Y-23219786D01*
X60085048Y-23047820D01*
X60085047Y-23047820D01*
X60085051Y-23047816D01*
X60089514Y-23039054D01*
X60137488Y-22988259D01*
X60205308Y-22971463D01*
X60271444Y-22993999D01*
X60310486Y-23039056D01*
X60314951Y-23047820D01*
X60439890Y-23219786D01*
X60590213Y-23370109D01*
X60762179Y-23495048D01*
X60762181Y-23495049D01*
X60762184Y-23495051D01*
X60951588Y-23591557D01*
X61153757Y-23657246D01*
X61363713Y-23690500D01*
X61363714Y-23690500D01*
X61576286Y-23690500D01*
X61576287Y-23690500D01*
X61786243Y-23657246D01*
X61988412Y-23591557D01*
X62177816Y-23495051D01*
X62264138Y-23432335D01*
X62349786Y-23370109D01*
X62349788Y-23370106D01*
X62349792Y-23370104D01*
X62500104Y-23219792D01*
X62500106Y-23219788D01*
X62500109Y-23219786D01*
X62576364Y-23114828D01*
X62625051Y-23047816D01*
X62629793Y-23038508D01*
X62677763Y-22987711D01*
X62745583Y-22970911D01*
X62811719Y-22993445D01*
X62850763Y-23038500D01*
X62855373Y-23047547D01*
X62894728Y-23101716D01*
X63527037Y-22469408D01*
X63544075Y-22532993D01*
X63609901Y-22647007D01*
X63702993Y-22740099D01*
X63817007Y-22805925D01*
X63880590Y-22822962D01*
X63248282Y-23455269D01*
X63248282Y-23455270D01*
X63302449Y-23494624D01*
X63491782Y-23591095D01*
X63693870Y-23656757D01*
X63903754Y-23690000D01*
X64116246Y-23690000D01*
X64326127Y-23656757D01*
X64326130Y-23656757D01*
X64528217Y-23591095D01*
X64717554Y-23494622D01*
X64771716Y-23455270D01*
X64771717Y-23455270D01*
X64139408Y-22822962D01*
X64202993Y-22805925D01*
X64317007Y-22740099D01*
X64410099Y-22647007D01*
X64475925Y-22532993D01*
X64492962Y-22469408D01*
X65162356Y-23138803D01*
X65195841Y-23200126D01*
X65194926Y-23214831D01*
X65197497Y-23214555D01*
X65206401Y-23297373D01*
X65206403Y-23297380D01*
X65256645Y-23432086D01*
X65256649Y-23432093D01*
X65342809Y-23547187D01*
X65342812Y-23547190D01*
X65457906Y-23633350D01*
X65457913Y-23633354D01*
X65592620Y-23683596D01*
X65592627Y-23683598D01*
X65652155Y-23689999D01*
X65652172Y-23690000D01*
X66300000Y-23690000D01*
X66300000Y-22773012D01*
X66357007Y-22805925D01*
X66484174Y-22840000D01*
X66615826Y-22840000D01*
X66742993Y-22805925D01*
X66800000Y-22773012D01*
X66800000Y-23690000D01*
X67447828Y-23690000D01*
X67447844Y-23689999D01*
X67507372Y-23683598D01*
X67507379Y-23683596D01*
X67567552Y-23661153D01*
X70159500Y-23661153D01*
X70159500Y-23818846D01*
X70190261Y-23973489D01*
X70190264Y-23973501D01*
X70250602Y-24119172D01*
X70250609Y-24119185D01*
X70338210Y-24250288D01*
X70338213Y-24250292D01*
X70449707Y-24361786D01*
X70449711Y-24361789D01*
X70580814Y-24449390D01*
X70580827Y-24449397D01*
X70726498Y-24509735D01*
X70726503Y-24509737D01*
X70881153Y-24540499D01*
X70881156Y-24540500D01*
X70881158Y-24540500D01*
X71038844Y-24540500D01*
X71038845Y-24540499D01*
X71193497Y-24509737D01*
X71339179Y-24449394D01*
X71470289Y-24361789D01*
X71581789Y-24250289D01*
X71669394Y-24119179D01*
X71729737Y-23973497D01*
X71760500Y-23818842D01*
X71760500Y-23661158D01*
X71760500Y-23661155D01*
X71760499Y-23661153D01*
X71759625Y-23656757D01*
X71729737Y-23506503D01*
X71724994Y-23495052D01*
X71669397Y-23360827D01*
X71669390Y-23360814D01*
X71581789Y-23229711D01*
X71581786Y-23229707D01*
X71470292Y-23118213D01*
X71470288Y-23118210D01*
X71339185Y-23030609D01*
X71339172Y-23030602D01*
X71193501Y-22970264D01*
X71193489Y-22970261D01*
X71038845Y-22939500D01*
X71038842Y-22939500D01*
X70881158Y-22939500D01*
X70881155Y-22939500D01*
X70726510Y-22970261D01*
X70726498Y-22970264D01*
X70580827Y-23030602D01*
X70580814Y-23030609D01*
X70449711Y-23118210D01*
X70449707Y-23118213D01*
X70338213Y-23229707D01*
X70338210Y-23229711D01*
X70250609Y-23360814D01*
X70250602Y-23360827D01*
X70190264Y-23506498D01*
X70190261Y-23506510D01*
X70159500Y-23661153D01*
X67567552Y-23661153D01*
X67642086Y-23633354D01*
X67642093Y-23633350D01*
X67745681Y-23555803D01*
X67745686Y-23555800D01*
X67757190Y-23547187D01*
X67843350Y-23432093D01*
X67843354Y-23432086D01*
X67893596Y-23297379D01*
X67893598Y-23297372D01*
X67899999Y-23237844D01*
X67900000Y-23237827D01*
X67900000Y-22590000D01*
X66983012Y-22590000D01*
X67015925Y-22532993D01*
X67050000Y-22405826D01*
X67050000Y-22274174D01*
X67015925Y-22147007D01*
X66983012Y-22090000D01*
X67900000Y-22090000D01*
X67900000Y-21861153D01*
X68959500Y-21861153D01*
X68959500Y-22018846D01*
X68990261Y-22173489D01*
X68990264Y-22173501D01*
X69050602Y-22319172D01*
X69050609Y-22319185D01*
X69138210Y-22450288D01*
X69138213Y-22450292D01*
X69249707Y-22561786D01*
X69249711Y-22561789D01*
X69380814Y-22649390D01*
X69380827Y-22649397D01*
X69487433Y-22693554D01*
X69526503Y-22709737D01*
X69679142Y-22740099D01*
X69681153Y-22740499D01*
X69681156Y-22740500D01*
X69681158Y-22740500D01*
X69838844Y-22740500D01*
X69838845Y-22740499D01*
X69993497Y-22709737D01*
X70139179Y-22649394D01*
X70270289Y-22561789D01*
X70381789Y-22450289D01*
X70441348Y-22361153D01*
X71559500Y-22361153D01*
X71559500Y-22518846D01*
X71590261Y-22673489D01*
X71590264Y-22673501D01*
X71650602Y-22819172D01*
X71650609Y-22819185D01*
X71738210Y-22950288D01*
X71738213Y-22950292D01*
X71849707Y-23061786D01*
X71849711Y-23061789D01*
X71980814Y-23149390D01*
X71980827Y-23149397D01*
X72126498Y-23209735D01*
X72126503Y-23209737D01*
X72268002Y-23237883D01*
X72281153Y-23240499D01*
X72281156Y-23240500D01*
X72281158Y-23240500D01*
X72438844Y-23240500D01*
X72438845Y-23240499D01*
X72531871Y-23221995D01*
X73432000Y-23221995D01*
X73432000Y-23458004D01*
X73432001Y-23458020D01*
X73462806Y-23692010D01*
X73523894Y-23919993D01*
X73614214Y-24138045D01*
X73614219Y-24138056D01*
X73679884Y-24251790D01*
X73732227Y-24342450D01*
X73732229Y-24342453D01*
X73732230Y-24342454D01*
X73875906Y-24529697D01*
X73875912Y-24529704D01*
X74042795Y-24696587D01*
X74042801Y-24696592D01*
X74230050Y-24840273D01*
X74361418Y-24916118D01*
X74434443Y-24958280D01*
X74434448Y-24958282D01*
X74434451Y-24958284D01*
X74652507Y-25048606D01*
X74880486Y-25109693D01*
X75114489Y-25140500D01*
X75114496Y-25140500D01*
X75350504Y-25140500D01*
X75350511Y-25140500D01*
X75584514Y-25109693D01*
X75812493Y-25048606D01*
X76030549Y-24958284D01*
X76234950Y-24840273D01*
X76422199Y-24696592D01*
X76589092Y-24529699D01*
X76732773Y-24342450D01*
X76837445Y-24161153D01*
X77359500Y-24161153D01*
X77359500Y-24318846D01*
X77390261Y-24473489D01*
X77390264Y-24473501D01*
X77450602Y-24619172D01*
X77450609Y-24619185D01*
X77538210Y-24750288D01*
X77538213Y-24750292D01*
X77649707Y-24861786D01*
X77649711Y-24861789D01*
X77780814Y-24949390D01*
X77780827Y-24949397D01*
X77897812Y-24997853D01*
X77926503Y-25009737D01*
X78081153Y-25040499D01*
X78081156Y-25040500D01*
X78081158Y-25040500D01*
X78238844Y-25040500D01*
X78238845Y-25040499D01*
X78393497Y-25009737D01*
X78517714Y-24958285D01*
X78539172Y-24949397D01*
X78539172Y-24949396D01*
X78539179Y-24949394D01*
X78670289Y-24861789D01*
X78781789Y-24750289D01*
X78869394Y-24619179D01*
X78880077Y-24593389D01*
X78906455Y-24529704D01*
X78929737Y-24473497D01*
X78960500Y-24318842D01*
X78960500Y-24161158D01*
X78960500Y-24161155D01*
X78960499Y-24161153D01*
X78955903Y-24138049D01*
X78929737Y-24006503D01*
X78902581Y-23940942D01*
X78869397Y-23860827D01*
X78869390Y-23860814D01*
X78781789Y-23729711D01*
X78781786Y-23729707D01*
X78670292Y-23618213D01*
X78670288Y-23618210D01*
X78539185Y-23530609D01*
X78539172Y-23530602D01*
X78393501Y-23470264D01*
X78393489Y-23470261D01*
X78238845Y-23439500D01*
X78238842Y-23439500D01*
X78081158Y-23439500D01*
X78081155Y-23439500D01*
X77926510Y-23470261D01*
X77926498Y-23470264D01*
X77780827Y-23530602D01*
X77780814Y-23530609D01*
X77649711Y-23618210D01*
X77649707Y-23618213D01*
X77538213Y-23729707D01*
X77538210Y-23729711D01*
X77450609Y-23860814D01*
X77450602Y-23860827D01*
X77390264Y-24006498D01*
X77390261Y-24006510D01*
X77359500Y-24161153D01*
X76837445Y-24161153D01*
X76850784Y-24138049D01*
X76858598Y-24119185D01*
X76863391Y-24107614D01*
X76863391Y-24107613D01*
X76905274Y-24006498D01*
X76941106Y-23919993D01*
X77002193Y-23692014D01*
X77033000Y-23458011D01*
X77033000Y-23221989D01*
X77002193Y-22987986D01*
X76941106Y-22760007D01*
X76850784Y-22541951D01*
X76850782Y-22541948D01*
X76850780Y-22541943D01*
X76804501Y-22461786D01*
X76732773Y-22337550D01*
X76653096Y-22233713D01*
X76589093Y-22150302D01*
X76589087Y-22150295D01*
X76422204Y-21983412D01*
X76422197Y-21983406D01*
X76252824Y-21853442D01*
X76234954Y-21839730D01*
X76234953Y-21839729D01*
X76234950Y-21839727D01*
X76098865Y-21761158D01*
X76098856Y-21761153D01*
X77259500Y-21761153D01*
X77259500Y-21918846D01*
X77290261Y-22073489D01*
X77290264Y-22073501D01*
X77350602Y-22219172D01*
X77350609Y-22219185D01*
X77438210Y-22350288D01*
X77438213Y-22350292D01*
X77549707Y-22461786D01*
X77549711Y-22461789D01*
X77680814Y-22549390D01*
X77680827Y-22549397D01*
X77778853Y-22590000D01*
X77826503Y-22609737D01*
X77981153Y-22640499D01*
X77981156Y-22640500D01*
X77981158Y-22640500D01*
X78138844Y-22640500D01*
X78138845Y-22640499D01*
X78293497Y-22609737D01*
X78439179Y-22549394D01*
X78570289Y-22461789D01*
X78681789Y-22350289D01*
X78769394Y-22219179D01*
X78829737Y-22073497D01*
X78860500Y-21918842D01*
X78860500Y-21761158D01*
X78860500Y-21761155D01*
X78860499Y-21761153D01*
X78849627Y-21706498D01*
X78829737Y-21606503D01*
X78790465Y-21511691D01*
X78769397Y-21460827D01*
X78769390Y-21460814D01*
X78681789Y-21329711D01*
X78681786Y-21329707D01*
X78570292Y-21218213D01*
X78570288Y-21218210D01*
X78439185Y-21130609D01*
X78439172Y-21130602D01*
X78293501Y-21070264D01*
X78293489Y-21070261D01*
X78138845Y-21039500D01*
X78138842Y-21039500D01*
X77981158Y-21039500D01*
X77981155Y-21039500D01*
X77826510Y-21070261D01*
X77826498Y-21070264D01*
X77680827Y-21130602D01*
X77680814Y-21130609D01*
X77549711Y-21218210D01*
X77549707Y-21218213D01*
X77438213Y-21329707D01*
X77438210Y-21329711D01*
X77350609Y-21460814D01*
X77350602Y-21460827D01*
X77290264Y-21606498D01*
X77290261Y-21606510D01*
X77259500Y-21761153D01*
X76098856Y-21761153D01*
X76030556Y-21721719D01*
X76030545Y-21721714D01*
X75812493Y-21631394D01*
X75584510Y-21570306D01*
X75350520Y-21539501D01*
X75350517Y-21539500D01*
X75350511Y-21539500D01*
X75114489Y-21539500D01*
X75114483Y-21539500D01*
X75114479Y-21539501D01*
X74880489Y-21570306D01*
X74652506Y-21631394D01*
X74434454Y-21721714D01*
X74434443Y-21721719D01*
X74230045Y-21839730D01*
X74042802Y-21983406D01*
X74042795Y-21983412D01*
X73875912Y-22150295D01*
X73875906Y-22150302D01*
X73732230Y-22337545D01*
X73732227Y-22337549D01*
X73732227Y-22337550D01*
X73724873Y-22350288D01*
X73614219Y-22541943D01*
X73614214Y-22541954D01*
X73523894Y-22760006D01*
X73462806Y-22987989D01*
X73432001Y-23221979D01*
X73432000Y-23221995D01*
X72531871Y-23221995D01*
X72593497Y-23209737D01*
X72739179Y-23149394D01*
X72870289Y-23061789D01*
X72981789Y-22950289D01*
X73069394Y-22819179D01*
X73129737Y-22673497D01*
X73160500Y-22518842D01*
X73160500Y-22361158D01*
X73160500Y-22361155D01*
X73160499Y-22361153D01*
X73149849Y-22307611D01*
X73129737Y-22206503D01*
X73105093Y-22147007D01*
X73069397Y-22060827D01*
X73069390Y-22060814D01*
X72981789Y-21929711D01*
X72981786Y-21929707D01*
X72870292Y-21818213D01*
X72870288Y-21818210D01*
X72739185Y-21730609D01*
X72739172Y-21730602D01*
X72593501Y-21670264D01*
X72593489Y-21670261D01*
X72438845Y-21639500D01*
X72438842Y-21639500D01*
X72281158Y-21639500D01*
X72281155Y-21639500D01*
X72126510Y-21670261D01*
X72126498Y-21670264D01*
X71980827Y-21730602D01*
X71980814Y-21730609D01*
X71849711Y-21818210D01*
X71849707Y-21818213D01*
X71738213Y-21929707D01*
X71738210Y-21929711D01*
X71650609Y-22060814D01*
X71650602Y-22060827D01*
X71590264Y-22206498D01*
X71590261Y-22206510D01*
X71559500Y-22361153D01*
X70441348Y-22361153D01*
X70469394Y-22319179D01*
X70529737Y-22173497D01*
X70560500Y-22018842D01*
X70560500Y-21861158D01*
X70560500Y-21861155D01*
X70560499Y-21861153D01*
X70551957Y-21818210D01*
X70529737Y-21706503D01*
X70521244Y-21685998D01*
X70469397Y-21560827D01*
X70469390Y-21560814D01*
X70381789Y-21429711D01*
X70381786Y-21429707D01*
X70270292Y-21318213D01*
X70270288Y-21318210D01*
X70139185Y-21230609D01*
X70139172Y-21230602D01*
X69993501Y-21170264D01*
X69993489Y-21170261D01*
X69838845Y-21139500D01*
X69838842Y-21139500D01*
X69681158Y-21139500D01*
X69681155Y-21139500D01*
X69526510Y-21170261D01*
X69526498Y-21170264D01*
X69380827Y-21230602D01*
X69380814Y-21230609D01*
X69249711Y-21318210D01*
X69249707Y-21318213D01*
X69138213Y-21429707D01*
X69138210Y-21429711D01*
X69050609Y-21560814D01*
X69050602Y-21560827D01*
X68990264Y-21706498D01*
X68990261Y-21706510D01*
X68959500Y-21861153D01*
X67900000Y-21861153D01*
X67900000Y-21442172D01*
X67899999Y-21442155D01*
X67893598Y-21382627D01*
X67893596Y-21382620D01*
X67843354Y-21247913D01*
X67843350Y-21247906D01*
X67757190Y-21132812D01*
X67757187Y-21132809D01*
X67642093Y-21046649D01*
X67642086Y-21046645D01*
X67507379Y-20996403D01*
X67507372Y-20996401D01*
X67447844Y-20990000D01*
X66800000Y-20990000D01*
X66800000Y-21906988D01*
X66742993Y-21874075D01*
X66615826Y-21840000D01*
X66484174Y-21840000D01*
X66357007Y-21874075D01*
X66300000Y-21906988D01*
X66300000Y-20990000D01*
X65652155Y-20990000D01*
X65592627Y-20996401D01*
X65592620Y-20996403D01*
X65457913Y-21046645D01*
X65457906Y-21046649D01*
X65342812Y-21132809D01*
X65342809Y-21132812D01*
X65256649Y-21247906D01*
X65256645Y-21247913D01*
X65206403Y-21382619D01*
X65206401Y-21382626D01*
X65197497Y-21465444D01*
X65194434Y-21465114D01*
X65195336Y-21482094D01*
X65162356Y-21541195D01*
X64492962Y-22210590D01*
X64475925Y-22147007D01*
X64410099Y-22032993D01*
X64317007Y-21939901D01*
X64202993Y-21874075D01*
X64139409Y-21857037D01*
X64771716Y-21224728D01*
X64717550Y-21185375D01*
X64528217Y-21088904D01*
X64326129Y-21023242D01*
X64116246Y-20990000D01*
X63903754Y-20990000D01*
X63693872Y-21023242D01*
X63693869Y-21023242D01*
X63491782Y-21088904D01*
X63302439Y-21185380D01*
X63248282Y-21224727D01*
X63248282Y-21224728D01*
X63880591Y-21857037D01*
X63817007Y-21874075D01*
X63702993Y-21939901D01*
X63609901Y-22032993D01*
X63544075Y-22147007D01*
X63527037Y-22210591D01*
X62894728Y-21578282D01*
X62894727Y-21578282D01*
X62855380Y-21632440D01*
X62855377Y-21632445D01*
X62850760Y-21641505D01*
X62802781Y-21692297D01*
X62734959Y-21709087D01*
X62668826Y-21686543D01*
X62629794Y-21641493D01*
X62625051Y-21632184D01*
X62625049Y-21632181D01*
X62625048Y-21632179D01*
X62500109Y-21460213D01*
X62349786Y-21309890D01*
X62177820Y-21184951D01*
X61988414Y-21088444D01*
X61988413Y-21088443D01*
X61988412Y-21088443D01*
X61786243Y-21022754D01*
X61786241Y-21022753D01*
X61786240Y-21022753D01*
X61624957Y-20997208D01*
X61576287Y-20989500D01*
X61363713Y-20989500D01*
X61315042Y-20997208D01*
X61153760Y-21022753D01*
X60951585Y-21088444D01*
X60762179Y-21184951D01*
X60590213Y-21309890D01*
X60439890Y-21460213D01*
X60314949Y-21632182D01*
X60310484Y-21640946D01*
X60262509Y-21691742D01*
X60194688Y-21708536D01*
X60128553Y-21685998D01*
X60089516Y-21640946D01*
X60085050Y-21632182D01*
X59960109Y-21460213D01*
X59809786Y-21309890D01*
X59637820Y-21184951D01*
X59448414Y-21088444D01*
X59448413Y-21088443D01*
X59448412Y-21088443D01*
X59246243Y-21022754D01*
X59246241Y-21022753D01*
X59246240Y-21022753D01*
X59084957Y-20997208D01*
X59036287Y-20989500D01*
X58823713Y-20989500D01*
X58775042Y-20997208D01*
X58613760Y-21022753D01*
X58411585Y-21088444D01*
X58222179Y-21184951D01*
X58050213Y-21309890D01*
X57899890Y-21460213D01*
X57774949Y-21632182D01*
X57770484Y-21640946D01*
X57722509Y-21691742D01*
X57654688Y-21708536D01*
X57588553Y-21685998D01*
X57549516Y-21640946D01*
X57545050Y-21632182D01*
X57420109Y-21460213D01*
X57269786Y-21309890D01*
X57097820Y-21184951D01*
X56908414Y-21088444D01*
X56908413Y-21088443D01*
X56908412Y-21088443D01*
X56706243Y-21022754D01*
X56706241Y-21022753D01*
X56706240Y-21022753D01*
X56544957Y-20997208D01*
X56496287Y-20989500D01*
X56283713Y-20989500D01*
X56235042Y-20997208D01*
X56073760Y-21022753D01*
X55871585Y-21088444D01*
X55682179Y-21184951D01*
X55510213Y-21309890D01*
X55359890Y-21460213D01*
X55234949Y-21632182D01*
X55230484Y-21640946D01*
X55182509Y-21691742D01*
X55114688Y-21708536D01*
X55048553Y-21685998D01*
X55009516Y-21640946D01*
X55005050Y-21632182D01*
X54880109Y-21460213D01*
X54729786Y-21309890D01*
X54557820Y-21184951D01*
X54368414Y-21088444D01*
X54368413Y-21088443D01*
X54368412Y-21088443D01*
X54166243Y-21022754D01*
X54166241Y-21022753D01*
X54166240Y-21022753D01*
X54004957Y-20997208D01*
X53956287Y-20989500D01*
X53743713Y-20989500D01*
X53695042Y-20997208D01*
X53533760Y-21022753D01*
X53331585Y-21088444D01*
X53142179Y-21184951D01*
X52970213Y-21309890D01*
X52819890Y-21460213D01*
X52694949Y-21632182D01*
X52690484Y-21640946D01*
X52642509Y-21691742D01*
X52574688Y-21708536D01*
X52508553Y-21685998D01*
X52469516Y-21640946D01*
X52465050Y-21632182D01*
X52340109Y-21460213D01*
X52189786Y-21309890D01*
X52017820Y-21184951D01*
X51828414Y-21088444D01*
X51828413Y-21088443D01*
X51828412Y-21088443D01*
X51626243Y-21022754D01*
X51626241Y-21022753D01*
X51626240Y-21022753D01*
X51464957Y-20997208D01*
X51416287Y-20989500D01*
X51203713Y-20989500D01*
X51155042Y-20997208D01*
X50993760Y-21022753D01*
X50791585Y-21088444D01*
X50602179Y-21184951D01*
X50430213Y-21309890D01*
X50279890Y-21460213D01*
X50154949Y-21632182D01*
X50150484Y-21640946D01*
X50102509Y-21691742D01*
X50034688Y-21708536D01*
X49968553Y-21685998D01*
X49929516Y-21640946D01*
X49925050Y-21632182D01*
X49800109Y-21460213D01*
X49649786Y-21309890D01*
X49477820Y-21184951D01*
X49288414Y-21088444D01*
X49288413Y-21088443D01*
X49288412Y-21088443D01*
X49086243Y-21022754D01*
X49086241Y-21022753D01*
X49086240Y-21022753D01*
X48924957Y-20997208D01*
X48876287Y-20989500D01*
X48663713Y-20989500D01*
X48615042Y-20997208D01*
X48453760Y-21022753D01*
X48251585Y-21088444D01*
X48062179Y-21184951D01*
X47890213Y-21309890D01*
X47739890Y-21460213D01*
X47614951Y-21632179D01*
X47518444Y-21821585D01*
X47518443Y-21821587D01*
X47518443Y-21821588D01*
X47505587Y-21861155D01*
X47452753Y-22023760D01*
X47419500Y-22233713D01*
X41910499Y-22233713D01*
X41910499Y-21442128D01*
X41904091Y-21382517D01*
X41880106Y-21318211D01*
X41853797Y-21247671D01*
X41853793Y-21247664D01*
X41767547Y-21132455D01*
X41767544Y-21132452D01*
X41652335Y-21046206D01*
X41652328Y-21046202D01*
X41517482Y-20995908D01*
X41517483Y-20995908D01*
X41457883Y-20989501D01*
X41457881Y-20989500D01*
X41457873Y-20989500D01*
X41457864Y-20989500D01*
X39662129Y-20989500D01*
X39662123Y-20989501D01*
X39602516Y-20995908D01*
X39467671Y-21046202D01*
X39467664Y-21046206D01*
X39352455Y-21132452D01*
X39352452Y-21132455D01*
X39266206Y-21247664D01*
X39266202Y-21247671D01*
X39215908Y-21382517D01*
X39211468Y-21423819D01*
X39209501Y-21442123D01*
X39209500Y-21442135D01*
X37912031Y-21442135D01*
X37779792Y-21309896D01*
X37779786Y-21309890D01*
X37607820Y-21184951D01*
X37418414Y-21088444D01*
X37418413Y-21088443D01*
X37418412Y-21088443D01*
X37216243Y-21022754D01*
X37216241Y-21022753D01*
X37216240Y-21022753D01*
X37054957Y-20997208D01*
X37006287Y-20989500D01*
X36793713Y-20989500D01*
X36745042Y-20997208D01*
X36583760Y-21022753D01*
X36381585Y-21088444D01*
X36192185Y-21184948D01*
X36192183Y-21184949D01*
X36149694Y-21215819D01*
X36083887Y-21239298D01*
X36076810Y-21239500D01*
X35183190Y-21239500D01*
X35116151Y-21219815D01*
X35110306Y-21215819D01*
X35067816Y-21184949D01*
X35067814Y-21184948D01*
X34878414Y-21088444D01*
X34878413Y-21088443D01*
X34878412Y-21088443D01*
X34676243Y-21022754D01*
X34676241Y-21022753D01*
X34676240Y-21022753D01*
X34514957Y-20997208D01*
X34466287Y-20989500D01*
X34253713Y-20989500D01*
X34205042Y-20997208D01*
X34043760Y-21022753D01*
X33841585Y-21088444D01*
X33652179Y-21184951D01*
X33480213Y-21309890D01*
X33329890Y-21460213D01*
X33204949Y-21632182D01*
X33200484Y-21640946D01*
X33152509Y-21691742D01*
X33084688Y-21708536D01*
X33018553Y-21685998D01*
X32979516Y-21640946D01*
X32975050Y-21632182D01*
X32850109Y-21460213D01*
X32699786Y-21309890D01*
X32527820Y-21184951D01*
X32338414Y-21088444D01*
X32338413Y-21088443D01*
X32338412Y-21088443D01*
X32136243Y-21022754D01*
X32136241Y-21022753D01*
X32136240Y-21022753D01*
X31974957Y-20997208D01*
X31926287Y-20989500D01*
X31713713Y-20989500D01*
X31665042Y-20997208D01*
X31503760Y-21022753D01*
X31301585Y-21088444D01*
X31112179Y-21184951D01*
X30940213Y-21309890D01*
X30789890Y-21460213D01*
X30664949Y-21632182D01*
X30660484Y-21640946D01*
X30612509Y-21691742D01*
X30544688Y-21708536D01*
X30478553Y-21685998D01*
X30439516Y-21640946D01*
X30435050Y-21632182D01*
X30310109Y-21460213D01*
X30159786Y-21309890D01*
X29987820Y-21184951D01*
X29798414Y-21088444D01*
X29798413Y-21088443D01*
X29798412Y-21088443D01*
X29596243Y-21022754D01*
X29596241Y-21022753D01*
X29596240Y-21022753D01*
X29434957Y-20997208D01*
X29386287Y-20989500D01*
X29173713Y-20989500D01*
X29125042Y-20997208D01*
X28963760Y-21022753D01*
X28761585Y-21088444D01*
X28572179Y-21184951D01*
X28400213Y-21309890D01*
X28249890Y-21460213D01*
X28124949Y-21632182D01*
X28120484Y-21640946D01*
X28072509Y-21691742D01*
X28004688Y-21708536D01*
X27938553Y-21685998D01*
X27899516Y-21640946D01*
X27895050Y-21632182D01*
X27770109Y-21460213D01*
X27619786Y-21309890D01*
X27447820Y-21184951D01*
X27258414Y-21088444D01*
X27258413Y-21088443D01*
X27258412Y-21088443D01*
X27056243Y-21022754D01*
X27056241Y-21022753D01*
X27056240Y-21022753D01*
X26894957Y-20997208D01*
X26846287Y-20989500D01*
X26633713Y-20989500D01*
X26585042Y-20997208D01*
X26423760Y-21022753D01*
X26221585Y-21088444D01*
X26032179Y-21184951D01*
X25860213Y-21309890D01*
X25709890Y-21460213D01*
X25584949Y-21632182D01*
X25580484Y-21640946D01*
X25532509Y-21691742D01*
X25464688Y-21708536D01*
X25398553Y-21685998D01*
X25359516Y-21640946D01*
X25355050Y-21632182D01*
X25230109Y-21460213D01*
X25079786Y-21309890D01*
X24907820Y-21184951D01*
X24718414Y-21088444D01*
X24718413Y-21088443D01*
X24718412Y-21088443D01*
X24516243Y-21022754D01*
X24516241Y-21022753D01*
X24516240Y-21022753D01*
X24354957Y-20997208D01*
X24306287Y-20989500D01*
X24093713Y-20989500D01*
X24045042Y-20997208D01*
X23883760Y-21022753D01*
X23681585Y-21088444D01*
X23492179Y-21184951D01*
X23320213Y-21309890D01*
X23169890Y-21460213D01*
X23044949Y-21632182D01*
X23040484Y-21640946D01*
X22992509Y-21691742D01*
X22924688Y-21708536D01*
X22858553Y-21685998D01*
X22819516Y-21640946D01*
X22815050Y-21632182D01*
X22690109Y-21460213D01*
X22539786Y-21309890D01*
X22367820Y-21184951D01*
X22178414Y-21088444D01*
X22178413Y-21088443D01*
X22178412Y-21088443D01*
X21976243Y-21022754D01*
X21976241Y-21022753D01*
X21976240Y-21022753D01*
X21814957Y-20997208D01*
X21766287Y-20989500D01*
X21553713Y-20989500D01*
X21505042Y-20997208D01*
X21343760Y-21022753D01*
X21141585Y-21088444D01*
X20952179Y-21184951D01*
X20780215Y-21309889D01*
X20666285Y-21423819D01*
X20604962Y-21457303D01*
X20535270Y-21452319D01*
X20479337Y-21410447D01*
X20462422Y-21379470D01*
X20413354Y-21247913D01*
X20413350Y-21247906D01*
X20327190Y-21132812D01*
X20327187Y-21132809D01*
X20212093Y-21046649D01*
X20212086Y-21046645D01*
X20077379Y-20996403D01*
X20077372Y-20996401D01*
X20017844Y-20990000D01*
X19370000Y-20990000D01*
X19370000Y-21906988D01*
X19312993Y-21874075D01*
X19185826Y-21840000D01*
X19054174Y-21840000D01*
X18927007Y-21874075D01*
X18870000Y-21906988D01*
X18870000Y-20990000D01*
X18222155Y-20990000D01*
X18162627Y-20996401D01*
X18162620Y-20996403D01*
X18027913Y-21046645D01*
X18027906Y-21046649D01*
X17912812Y-21132809D01*
X17912809Y-21132812D01*
X17826649Y-21247906D01*
X17826645Y-21247913D01*
X17776403Y-21382620D01*
X17776401Y-21382627D01*
X17770000Y-21442155D01*
X16660500Y-21442155D01*
X16660500Y-17164500D01*
X16680185Y-17097461D01*
X16732989Y-17051706D01*
X16784500Y-17040500D01*
X81635500Y-17040500D01*
X81702539Y-17060185D01*
G37*
%TD.AperFunction*%
%TD*%
M02*
