%TF.GenerationSoftware,KiCad,Pcbnew,9.0.4*%
%TF.CreationDate,2025-09-30T20:07:28-04:00*%
%TF.ProjectId,motorDriverDaughter,6d6f746f-7244-4726-9976-657244617567,1*%
%TF.SameCoordinates,Original*%
%TF.FileFunction,Copper,L1,Top*%
%TF.FilePolarity,Positive*%
%FSLAX46Y46*%
G04 Gerber Fmt 4.6, Leading zero omitted, Abs format (unit mm)*
G04 Created by KiCad (PCBNEW 9.0.4) date 2025-09-30 20:07:28*
%MOMM*%
%LPD*%
G01*
G04 APERTURE LIST*
G04 Aperture macros list*
%AMRoundRect*
0 Rectangle with rounded corners*
0 $1 Rounding radius*
0 $2 $3 $4 $5 $6 $7 $8 $9 X,Y pos of 4 corners*
0 Add a 4 corners polygon primitive as box body*
4,1,4,$2,$3,$4,$5,$6,$7,$8,$9,$2,$3,0*
0 Add four circle primitives for the rounded corners*
1,1,$1+$1,$2,$3*
1,1,$1+$1,$4,$5*
1,1,$1+$1,$6,$7*
1,1,$1+$1,$8,$9*
0 Add four rect primitives between the rounded corners*
20,1,$1+$1,$2,$3,$4,$5,0*
20,1,$1+$1,$4,$5,$6,$7,0*
20,1,$1+$1,$6,$7,$8,$9,0*
20,1,$1+$1,$8,$9,$2,$3,0*%
G04 Aperture macros list end*
%TA.AperFunction,ComponentPad*%
%ADD10C,1.700000*%
%TD*%
%TA.AperFunction,ComponentPad*%
%ADD11R,1.700000X1.700000*%
%TD*%
%TA.AperFunction,ComponentPad*%
%ADD12O,1.700000X1.700000*%
%TD*%
%TA.AperFunction,ComponentPad*%
%ADD13C,1.600000*%
%TD*%
%TA.AperFunction,SMDPad,CuDef*%
%ADD14RoundRect,0.250000X-0.350000X-0.450000X0.350000X-0.450000X0.350000X0.450000X-0.350000X0.450000X0*%
%TD*%
%TA.AperFunction,ComponentPad*%
%ADD15RoundRect,0.250000X-1.050000X1.050000X-1.050000X-1.050000X1.050000X-1.050000X1.050000X1.050000X0*%
%TD*%
%TA.AperFunction,ComponentPad*%
%ADD16C,2.600000*%
%TD*%
%TA.AperFunction,ComponentPad*%
%ADD17RoundRect,0.250000X1.050000X-1.050000X1.050000X1.050000X-1.050000X1.050000X-1.050000X-1.050000X0*%
%TD*%
%TA.AperFunction,ComponentPad*%
%ADD18RoundRect,0.760000X1.140000X-1.140000X1.140000X1.140000X-1.140000X1.140000X-1.140000X-1.140000X0*%
%TD*%
%TA.AperFunction,ComponentPad*%
%ADD19C,3.800000*%
%TD*%
%TA.AperFunction,SMDPad,CuDef*%
%ADD20RoundRect,0.250000X0.337500X0.475000X-0.337500X0.475000X-0.337500X-0.475000X0.337500X-0.475000X0*%
%TD*%
%TA.AperFunction,ComponentPad*%
%ADD21RoundRect,0.250000X-0.550000X0.550000X-0.550000X-0.550000X0.550000X-0.550000X0.550000X0.550000X0*%
%TD*%
%TA.AperFunction,ComponentPad*%
%ADD22RoundRect,0.250000X0.550000X-0.550000X0.550000X0.550000X-0.550000X0.550000X-0.550000X-0.550000X0*%
%TD*%
%TA.AperFunction,ViaPad*%
%ADD23C,0.600000*%
%TD*%
%TA.AperFunction,Conductor*%
%ADD24C,0.200000*%
%TD*%
%TA.AperFunction,Conductor*%
%ADD25C,0.400000*%
%TD*%
%TA.AperFunction,Conductor*%
%ADD26C,1.500000*%
%TD*%
G04 APERTURE END LIST*
D10*
%TO.P,J1,8,Pin_8*%
%TO.N,+12V*%
X53500000Y-49040000D03*
%TO.P,J1,7,Pin_7*%
X53500000Y-46500000D03*
%TO.P,J1,6,Pin_6*%
%TO.N,OUTA*%
X53500000Y-43960000D03*
%TO.P,J1,5,Pin_5*%
X53500000Y-41420000D03*
%TO.P,J1,4,Pin_4*%
%TO.N,OUTB*%
X53500000Y-38880000D03*
%TO.P,J1,3,Pin_3*%
X53500000Y-36340000D03*
%TO.P,J1,2,Pin_2*%
%TO.N,GND*%
X53500000Y-33800000D03*
D11*
%TO.P,J1,1,Pin_1*%
X53500000Y-31260000D03*
%TD*%
D12*
%TO.P,U1,13,VREF*%
%TO.N,Net-(U1-VREF)*%
X35740000Y-31250000D03*
D11*
%TO.P,U1,12,VREFGND*%
%TO.N,Net-(U1-VREFGND)*%
X33200000Y-31250000D03*
D12*
%TO.P,U1,11,VIN*%
%TO.N,+12V*%
X58580000Y-49040000D03*
X58580000Y-46500000D03*
%TO.P,U1,10,OUTA*%
%TO.N,OUTA*%
X58580000Y-43960000D03*
X58580000Y-41420000D03*
%TO.P,U1,9,OUTB*%
%TO.N,OUTB*%
X58580000Y-38880000D03*
X58580000Y-36340000D03*
%TO.P,U1,8,VM*%
%TO.N,VCC*%
X30660000Y-49040000D03*
%TO.P,U1,7,3V3*%
%TO.N,unconnected-(U1-3V3-Pad7)*%
X30660000Y-46500000D03*
%TO.P,U1,6,CS*%
%TO.N,CS*%
X30660000Y-43960000D03*
%TO.P,U1,5,~{FLT}*%
%TO.N,FLT*%
X30660000Y-41420000D03*
%TO.P,U1,4,~{SLP}*%
%TO.N,SLP*%
X30660000Y-38880000D03*
%TO.P,U1,3,PWM*%
%TO.N,PWM*%
X30660000Y-36340000D03*
%TO.P,U1,2,DIR*%
%TO.N,DIR*%
X30660000Y-33800000D03*
%TO.P,U1,1,GND*%
%TO.N,GND*%
X58580000Y-33800000D03*
D11*
X58580000Y-31260000D03*
X30660000Y-31260000D03*
%TD*%
D13*
%TO.P,R2,1*%
%TO.N,Net-(U1-VREF)*%
X35675000Y-27540000D03*
%TO.P,R2,2*%
%TO.N,Net-(U1-VREFGND)*%
X30595000Y-27540000D03*
%TD*%
D14*
%TO.P,R1,1*%
%TO.N,V_SIG*%
X25460000Y-41040000D03*
%TO.P,R1,2*%
%TO.N,FLT*%
X27460000Y-41040000D03*
%TD*%
D15*
%TO.P,J9,1,Pin_1*%
%TO.N,GND*%
X22887500Y-45140000D03*
D16*
%TO.P,J9,2,Pin_2*%
%TO.N,VCC*%
X22887500Y-50140000D03*
%TD*%
D11*
%TO.P,J8,1,Pin_1*%
%TO.N,V_SIG*%
X40560000Y-22340000D03*
%TD*%
D17*
%TO.P,J7,1,Pin_1*%
%TO.N,OUTA*%
X75232500Y-28340000D03*
D16*
%TO.P,J7,2,Pin_2*%
%TO.N,OUTB*%
X75232500Y-23340000D03*
%TD*%
D17*
%TO.P,J6,1,Pin_1*%
%TO.N,+12V*%
X75232500Y-39340000D03*
D16*
%TO.P,J6,2,Pin_2*%
%TO.N,GND*%
X75232500Y-34340000D03*
%TD*%
D11*
%TO.P,J5,1,Pin_1*%
%TO.N,GND*%
X19120000Y-22340000D03*
D10*
%TO.P,J5,2,Pin_2*%
%TO.N,DIR*%
X21660000Y-22340000D03*
%TO.P,J5,3,Pin_3*%
%TO.N,PWM*%
X24200000Y-22340000D03*
%TO.P,J5,4,Pin_4*%
%TO.N,SLP*%
X26740000Y-22340000D03*
%TO.P,J5,5,Pin_5*%
%TO.N,FLT*%
X29280000Y-22340000D03*
%TO.P,J5,6,Pin_6*%
%TO.N,CS*%
X31820000Y-22340000D03*
%TO.P,J5,7,Pin_7*%
%TO.N,VCC*%
X34360000Y-22340000D03*
%TO.P,J5,8,Pin_8*%
X36900000Y-22340000D03*
%TD*%
D11*
%TO.P,J4,1,Pin_1*%
%TO.N,GND*%
X66550000Y-22340000D03*
D10*
%TO.P,J4,2,Pin_2*%
X64010000Y-22340000D03*
%TO.P,J4,3,Pin_3*%
%TO.N,OUTB*%
X61470000Y-22340000D03*
%TO.P,J4,4,Pin_4*%
X58930000Y-22340000D03*
%TO.P,J4,5,Pin_5*%
%TO.N,OUTA*%
X56390000Y-22340000D03*
%TO.P,J4,6,Pin_6*%
X53850000Y-22340000D03*
%TO.P,J4,7,Pin_7*%
%TO.N,+12V*%
X51310000Y-22340000D03*
%TO.P,J4,8,Pin_8*%
X48770000Y-22340000D03*
%TD*%
D18*
%TO.P,J3,1,Pin_1*%
%TO.N,GND*%
X75860000Y-51040000D03*
D19*
%TO.P,J3,2,Pin_2*%
%TO.N,+12V*%
X75860000Y-46040000D03*
%TD*%
D11*
%TO.P,J2,1,Pin_1*%
%TO.N,GND*%
X40820000Y-31260000D03*
D10*
%TO.P,J2,2,Pin_2*%
%TO.N,DIR*%
X40820000Y-33800000D03*
%TO.P,J2,3,Pin_3*%
%TO.N,PWM*%
X40820000Y-36340000D03*
%TO.P,J2,4,Pin_4*%
%TO.N,SLP*%
X40820000Y-38880000D03*
%TO.P,J2,5,Pin_5*%
%TO.N,FLT*%
X40820000Y-41420000D03*
%TO.P,J2,6,Pin_6*%
%TO.N,CS*%
X40820000Y-43960000D03*
%TO.P,J2,7,Pin_7*%
%TO.N,VCC*%
X40820000Y-46500000D03*
%TO.P,J2,8,Pin_8*%
X40820000Y-49040000D03*
%TD*%
D20*
%TO.P,C4,1*%
%TO.N,+12V*%
X50697500Y-47340000D03*
%TO.P,C4,2*%
%TO.N,GND*%
X48622500Y-47340000D03*
%TD*%
%TO.P,C3,1*%
%TO.N,+12V*%
X50697500Y-49340000D03*
%TO.P,C3,2*%
%TO.N,GND*%
X48622500Y-49340000D03*
%TD*%
D21*
%TO.P,C2,1*%
%TO.N,+12V*%
X65660000Y-49940000D03*
D13*
%TO.P,C2,2*%
%TO.N,GND*%
X65660000Y-52440000D03*
%TD*%
D22*
%TO.P,C1,1*%
%TO.N,+12V*%
X65660000Y-45440000D03*
D13*
%TO.P,C1,2*%
%TO.N,GND*%
X65660000Y-42940000D03*
%TD*%
D23*
%TO.N,GND*%
X81060000Y-43940000D03*
%TO.N,+12V*%
X78060000Y-41340000D03*
X70060000Y-45340000D03*
X56260000Y-49740000D03*
X55960000Y-46940000D03*
X61460000Y-49640000D03*
X61360000Y-46940000D03*
%TO.N,OUTA*%
X64060000Y-39640000D03*
X68160000Y-40240000D03*
%TO.N,GND*%
X79860000Y-35140000D03*
X78060000Y-33240000D03*
%TO.N,OUTA*%
X69660000Y-37840000D03*
X69660000Y-35240000D03*
X69460000Y-32340000D03*
X69460000Y-28040000D03*
X71660000Y-30140000D03*
X71960000Y-27140000D03*
X78260000Y-29540000D03*
X78060000Y-27240000D03*
%TO.N,OUTB*%
X78160000Y-24240000D03*
X78060000Y-21840000D03*
X70960000Y-23740000D03*
X72360000Y-22440000D03*
X69760000Y-21940000D03*
X65860000Y-28240000D03*
X65060000Y-31040000D03*
X63160000Y-36440000D03*
X65060000Y-34340000D03*
X61360000Y-34440000D03*
X55960000Y-39240000D03*
X56160000Y-35940000D03*
X51060000Y-38740000D03*
X50760000Y-36540000D03*
%TO.N,GND*%
X51060000Y-32940000D03*
X56160000Y-31940000D03*
X61460000Y-29440000D03*
X55160000Y-28740000D03*
X59460000Y-26540000D03*
X56460000Y-25240000D03*
X50560000Y-24740000D03*
X50060000Y-18840000D03*
X52260000Y-18940000D03*
X54960000Y-18840000D03*
X57460000Y-18740000D03*
X59960000Y-18740000D03*
X62860000Y-18740000D03*
X64760000Y-18740000D03*
X68560000Y-18640000D03*
X72060000Y-18640000D03*
X74660000Y-18940000D03*
X78560000Y-18540000D03*
X80860000Y-18840000D03*
X81060000Y-25840000D03*
X81260000Y-31440000D03*
X81160000Y-36840000D03*
X81060000Y-38840000D03*
X81160000Y-45740000D03*
X81260000Y-49540000D03*
X80160000Y-53640000D03*
X72060000Y-53340000D03*
X69960000Y-52840000D03*
X71360000Y-50940000D03*
X70360000Y-50440000D03*
X61860000Y-53140000D03*
X59360000Y-53440000D03*
X55760000Y-53240000D03*
%TO.N,OUTA*%
X61760000Y-43140000D03*
X56060000Y-42740000D03*
X51060000Y-43540000D03*
%TO.N,GND*%
X48160000Y-43940000D03*
X47460000Y-42240000D03*
X47260000Y-27940000D03*
X48460000Y-25640000D03*
X46760000Y-18540000D03*
X42060000Y-18040000D03*
X43360000Y-21640000D03*
X34560000Y-42540000D03*
X34560000Y-40240000D03*
X34660000Y-37640000D03*
X34760000Y-35240000D03*
X43560000Y-43840000D03*
X45160000Y-52740000D03*
%TO.N,VCC*%
X39260000Y-51140000D03*
X37560000Y-48940000D03*
X35260000Y-51440000D03*
X33760000Y-47540000D03*
X31660000Y-51740000D03*
X27560000Y-52540000D03*
X25960000Y-49540000D03*
%TO.N,GND*%
X18760000Y-50340000D03*
X19260000Y-44340000D03*
X26060000Y-45240000D03*
X20660000Y-41440000D03*
X17460000Y-38740000D03*
X25260000Y-37540000D03*
X22560000Y-35440000D03*
X18460000Y-33340000D03*
X18260000Y-29940000D03*
X18560000Y-27040000D03*
X18760000Y-25240000D03*
X27360000Y-35040000D03*
X25360000Y-34440000D03*
X21760000Y-33840000D03*
X21260000Y-31840000D03*
X25460000Y-27640000D03*
X22760000Y-27240000D03*
X22960000Y-24640000D03*
X25460000Y-24340000D03*
X30260000Y-24540000D03*
X33360000Y-25340000D03*
X34960000Y-25240000D03*
X41760000Y-25840000D03*
X41860000Y-28140000D03*
%TO.N,FLT*%
X24160000Y-38840000D03*
%TO.N,SLP*%
X26660000Y-38340000D03*
X26660000Y-30640000D03*
%TO.N,PWM*%
X24160000Y-36340000D03*
X24200000Y-28640000D03*
%TD*%
D24*
%TO.N,FLT*%
X24160000Y-38840000D02*
X24260000Y-38740000D01*
X24260000Y-38740000D02*
X25160000Y-38740000D01*
X25160000Y-38740000D02*
X26060000Y-39640000D01*
X26060000Y-39640000D02*
X27160000Y-39640000D01*
X27160000Y-39640000D02*
X27460000Y-39940000D01*
X27460000Y-39940000D02*
X27460000Y-41040000D01*
%TO.N,V_SIG*%
X40560000Y-22340000D02*
X40560000Y-20240000D01*
X38460000Y-18140000D02*
X19160000Y-18140000D01*
X40560000Y-20240000D02*
X38460000Y-18140000D01*
X19160000Y-18140000D02*
X16960000Y-20340000D01*
X16960000Y-20340000D02*
X16960000Y-34940000D01*
X16960000Y-34940000D02*
X23060000Y-41040000D01*
X23060000Y-41040000D02*
X25460000Y-41040000D01*
%TO.N,PWM*%
X24200000Y-28640000D02*
X24200000Y-22340000D01*
%TO.N,SLP*%
X26660000Y-38740000D02*
X26800000Y-38880000D01*
X26660000Y-38340000D02*
X26660000Y-38740000D01*
X26800000Y-38880000D02*
X30660000Y-38880000D01*
X26740000Y-22340000D02*
X26740000Y-30560000D01*
X26740000Y-30560000D02*
X26660000Y-30640000D01*
%TO.N,PWM*%
X24160000Y-36340000D02*
X30660000Y-36340000D01*
%TO.N,DIR*%
X21660000Y-22340000D02*
X21660000Y-28340000D01*
X21660000Y-28340000D02*
X27120000Y-33800000D01*
X27120000Y-33800000D02*
X30660000Y-33800000D01*
D25*
%TO.N,FLT*%
X30660000Y-41420000D02*
X29140000Y-41420000D01*
X29140000Y-41420000D02*
X28760000Y-41040000D01*
X28760000Y-41040000D02*
X27460000Y-41040000D01*
%TO.N,CS*%
X30660000Y-43960000D02*
X40820000Y-43960000D01*
%TO.N,FLT*%
X40820000Y-41420000D02*
X30660000Y-41420000D01*
%TO.N,SLP*%
X40820000Y-38880000D02*
X30660000Y-38880000D01*
%TO.N,PWM*%
X40820000Y-36340000D02*
X30660000Y-36340000D01*
%TO.N,DIR*%
X40820000Y-33800000D02*
X30660000Y-33800000D01*
%TO.N,Net-(U1-VREFGND)*%
X30595000Y-27540000D02*
X32160000Y-27540000D01*
X32160000Y-27540000D02*
X33200000Y-28580000D01*
X33200000Y-28580000D02*
X33200000Y-31250000D01*
%TO.N,Net-(U1-VREF)*%
X35675000Y-27540000D02*
X35675000Y-31185000D01*
X35675000Y-31185000D02*
X35740000Y-31250000D01*
D26*
%TO.N,OUTA*%
X53500000Y-41420000D02*
X49540000Y-41420000D01*
X48460000Y-30270000D02*
X53850000Y-24880000D01*
X49540000Y-41420000D02*
X48460000Y-40340000D01*
X48460000Y-40340000D02*
X48460000Y-30270000D01*
X53850000Y-24880000D02*
X53850000Y-22340000D01*
%TO.N,+12V*%
X48770000Y-22340000D02*
X46710000Y-22340000D01*
X46710000Y-22340000D02*
X44910000Y-24140000D01*
X44910000Y-24140000D02*
X44910000Y-42490000D01*
X44910000Y-42490000D02*
X46160000Y-43740000D01*
X46160000Y-43740000D02*
X46160000Y-50340000D01*
X46160000Y-50340000D02*
X48410000Y-52590000D01*
X48410000Y-52590000D02*
X52460000Y-52590000D01*
X53500000Y-51550000D02*
X53500000Y-49040000D01*
X52460000Y-52590000D02*
X53500000Y-51550000D01*
X51310000Y-22340000D02*
X48770000Y-22340000D01*
%TO.N,OUTA*%
X56390000Y-22340000D02*
X53850000Y-22340000D01*
%TO.N,OUTB*%
X62060000Y-26240000D02*
X65460000Y-26240000D01*
X61470000Y-22340000D02*
X61470000Y-25650000D01*
X61470000Y-25650000D02*
X62060000Y-26240000D01*
X58930000Y-22340000D02*
X61470000Y-22340000D01*
%TD*%
%TA.AperFunction,Conductor*%
%TO.N,GND*%
G36*
X52561920Y-23155472D02*
G01*
X52596277Y-23216311D01*
X52599500Y-23244397D01*
X52599500Y-24310664D01*
X52579815Y-24377703D01*
X52563181Y-24398345D01*
X47506174Y-29455351D01*
X47506174Y-29455352D01*
X47506172Y-29455354D01*
X47462698Y-29515191D01*
X47390476Y-29614594D01*
X47301115Y-29789973D01*
X47301114Y-29789976D01*
X47259135Y-29919178D01*
X47240291Y-29977172D01*
X47240290Y-29977177D01*
X47209500Y-30171577D01*
X47209500Y-40438422D01*
X47240290Y-40632826D01*
X47301117Y-40820030D01*
X47390476Y-40995405D01*
X47506172Y-41154646D01*
X48725355Y-42373829D01*
X48884595Y-42489524D01*
X49059974Y-42578884D01*
X49068811Y-42581755D01*
X49126489Y-42621188D01*
X49153691Y-42685545D01*
X49154500Y-42699688D01*
X49154500Y-45016000D01*
X49154501Y-45016009D01*
X49166052Y-45123450D01*
X49166054Y-45123462D01*
X49177260Y-45174972D01*
X49211383Y-45277497D01*
X49211386Y-45277503D01*
X49240433Y-45322700D01*
X49260118Y-45389740D01*
X49248912Y-45441252D01*
X49194664Y-45560034D01*
X49174976Y-45627082D01*
X49154500Y-45769501D01*
X49154500Y-45992450D01*
X49134815Y-46059489D01*
X49082011Y-46105244D01*
X49017906Y-46115809D01*
X49009989Y-46115000D01*
X48872500Y-46115000D01*
X48872500Y-50564999D01*
X49009972Y-50564999D01*
X49009986Y-50564998D01*
X49017898Y-50564190D01*
X49086591Y-50576959D01*
X49137475Y-50624840D01*
X49154500Y-50687548D01*
X49154500Y-51215500D01*
X49151949Y-51224185D01*
X49153238Y-51233147D01*
X49142259Y-51257187D01*
X49134815Y-51282539D01*
X49127974Y-51288466D01*
X49124213Y-51296703D01*
X49101978Y-51310992D01*
X49082011Y-51328294D01*
X49071496Y-51330581D01*
X49065435Y-51334477D01*
X49030500Y-51339500D01*
X48979336Y-51339500D01*
X48912297Y-51319815D01*
X48891655Y-51303181D01*
X48350667Y-50762193D01*
X48317182Y-50700870D01*
X48322166Y-50631178D01*
X48350668Y-50586830D01*
X48372500Y-50564998D01*
X48372500Y-46115000D01*
X48235027Y-46115000D01*
X48235012Y-46115001D01*
X48132302Y-46125494D01*
X47965880Y-46180641D01*
X47965875Y-46180643D01*
X47816654Y-46272684D01*
X47692684Y-46396654D01*
X47640039Y-46482006D01*
X47588091Y-46528730D01*
X47519128Y-46539953D01*
X47455046Y-46512109D01*
X47416190Y-46454040D01*
X47410500Y-46416909D01*
X47410500Y-43641577D01*
X47379709Y-43447177D01*
X47379709Y-43447176D01*
X47379709Y-43447174D01*
X47344634Y-43339225D01*
X47336029Y-43312741D01*
X47318886Y-43259979D01*
X47318884Y-43259973D01*
X47260508Y-43145405D01*
X47229524Y-43084595D01*
X47113828Y-42925354D01*
X46196819Y-42008345D01*
X46163334Y-41947022D01*
X46160500Y-41920664D01*
X46160500Y-24709336D01*
X46180185Y-24642297D01*
X46196819Y-24621655D01*
X47191655Y-23626819D01*
X47252978Y-23593334D01*
X47279336Y-23590500D01*
X48228694Y-23590500D01*
X48267012Y-23596569D01*
X48312147Y-23611234D01*
X48453757Y-23657246D01*
X48663713Y-23690500D01*
X48663714Y-23690500D01*
X48876286Y-23690500D01*
X48876287Y-23690500D01*
X49086243Y-23657246D01*
X49231081Y-23610185D01*
X49272988Y-23596569D01*
X49311306Y-23590500D01*
X50768694Y-23590500D01*
X50807012Y-23596569D01*
X50852147Y-23611234D01*
X50993757Y-23657246D01*
X51203713Y-23690500D01*
X51203714Y-23690500D01*
X51416286Y-23690500D01*
X51416287Y-23690500D01*
X51626243Y-23657246D01*
X51828412Y-23591557D01*
X52017816Y-23495051D01*
X52104138Y-23432335D01*
X52189786Y-23370109D01*
X52189788Y-23370106D01*
X52189792Y-23370104D01*
X52340104Y-23219792D01*
X52375181Y-23171511D01*
X52430511Y-23128846D01*
X52500124Y-23122867D01*
X52561920Y-23155472D01*
G37*
%TD.AperFunction*%
%TA.AperFunction,Conductor*%
G36*
X57731444Y-22993999D02*
G01*
X57770486Y-23039056D01*
X57774951Y-23047820D01*
X57899890Y-23219786D01*
X58050213Y-23370109D01*
X58222179Y-23495048D01*
X58222181Y-23495049D01*
X58222184Y-23495051D01*
X58411588Y-23591557D01*
X58613757Y-23657246D01*
X58823713Y-23690500D01*
X58823714Y-23690500D01*
X59036286Y-23690500D01*
X59036287Y-23690500D01*
X59246243Y-23657246D01*
X59391081Y-23610185D01*
X59432988Y-23596569D01*
X59471306Y-23590500D01*
X60095500Y-23590500D01*
X60162539Y-23610185D01*
X60208294Y-23662989D01*
X60219500Y-23714500D01*
X60219500Y-25748422D01*
X60250290Y-25942826D01*
X60311117Y-26130030D01*
X60383212Y-26271522D01*
X60400476Y-26305405D01*
X60516172Y-26464646D01*
X61245354Y-27193828D01*
X61404595Y-27309524D01*
X61487454Y-27351742D01*
X61579969Y-27398882D01*
X61579971Y-27398882D01*
X61579974Y-27398884D01*
X61680318Y-27431487D01*
X61767173Y-27459709D01*
X61961578Y-27490500D01*
X61961583Y-27490500D01*
X62158417Y-27490500D01*
X63030500Y-27490500D01*
X63097539Y-27510185D01*
X63143294Y-27562989D01*
X63154500Y-27614500D01*
X63154500Y-32710500D01*
X63134815Y-32777539D01*
X63082011Y-32823294D01*
X63030500Y-32834500D01*
X60019644Y-32834500D01*
X60016050Y-32834513D01*
X60014153Y-32834527D01*
X60010667Y-32834565D01*
X59868568Y-32857072D01*
X59868562Y-32857073D01*
X59868558Y-32857074D01*
X59868550Y-32857076D01*
X59801818Y-32877710D01*
X59801812Y-32877712D01*
X59801811Y-32877713D01*
X59772836Y-32891449D01*
X59721434Y-32915816D01*
X59698714Y-32919414D01*
X59677164Y-32927452D01*
X59664860Y-32924775D01*
X59652424Y-32926745D01*
X59631367Y-32917489D01*
X59608891Y-32912600D01*
X59592744Y-32900512D01*
X59588461Y-32898630D01*
X59580637Y-32891449D01*
X59495665Y-32806477D01*
X59462180Y-32745154D01*
X59467164Y-32675462D01*
X59509036Y-32619529D01*
X59540013Y-32602614D01*
X59672086Y-32553354D01*
X59672093Y-32553350D01*
X59787187Y-32467190D01*
X59787190Y-32467187D01*
X59873350Y-32352093D01*
X59873354Y-32352086D01*
X59923596Y-32217379D01*
X59923598Y-32217372D01*
X59929999Y-32157844D01*
X59930000Y-32157827D01*
X59930000Y-31510000D01*
X59013012Y-31510000D01*
X59045925Y-31452993D01*
X59080000Y-31325826D01*
X59080000Y-31194174D01*
X59045925Y-31067007D01*
X59013012Y-31010000D01*
X59930000Y-31010000D01*
X59930000Y-30362172D01*
X59929999Y-30362155D01*
X59923598Y-30302627D01*
X59923596Y-30302620D01*
X59873354Y-30167913D01*
X59873350Y-30167906D01*
X59787190Y-30052812D01*
X59787187Y-30052809D01*
X59672093Y-29966649D01*
X59672086Y-29966645D01*
X59537379Y-29916403D01*
X59537372Y-29916401D01*
X59477844Y-29910000D01*
X58830000Y-29910000D01*
X58830000Y-30826988D01*
X58772993Y-30794075D01*
X58645826Y-30760000D01*
X58514174Y-30760000D01*
X58387007Y-30794075D01*
X58330000Y-30826988D01*
X58330000Y-29910000D01*
X57682155Y-29910000D01*
X57622627Y-29916401D01*
X57622620Y-29916403D01*
X57487913Y-29966645D01*
X57487906Y-29966649D01*
X57372812Y-30052809D01*
X57372809Y-30052812D01*
X57286649Y-30167906D01*
X57286645Y-30167913D01*
X57236403Y-30302620D01*
X57236401Y-30302627D01*
X57230000Y-30362155D01*
X57230000Y-31010000D01*
X58146988Y-31010000D01*
X58114075Y-31067007D01*
X58080000Y-31194174D01*
X58080000Y-31325826D01*
X58114075Y-31452993D01*
X58146988Y-31510000D01*
X57230000Y-31510000D01*
X57230000Y-32157844D01*
X57236401Y-32217372D01*
X57236403Y-32217379D01*
X57286645Y-32352086D01*
X57286649Y-32352093D01*
X57372809Y-32467187D01*
X57372812Y-32467190D01*
X57487906Y-32553350D01*
X57487913Y-32553354D01*
X57619986Y-32602614D01*
X57675920Y-32644485D01*
X57700337Y-32709949D01*
X57685486Y-32778222D01*
X57664335Y-32806477D01*
X57550271Y-32920541D01*
X57425379Y-33092442D01*
X57328904Y-33281782D01*
X57263242Y-33483870D01*
X57263242Y-33483873D01*
X57252769Y-33550000D01*
X58146988Y-33550000D01*
X58114075Y-33607007D01*
X58080000Y-33734174D01*
X58080000Y-33865826D01*
X58114075Y-33992993D01*
X58146988Y-34050000D01*
X57252769Y-34050000D01*
X57263242Y-34116126D01*
X57263242Y-34116129D01*
X57313947Y-34272182D01*
X57315942Y-34342023D01*
X57279862Y-34401856D01*
X57217161Y-34432684D01*
X57196016Y-34434500D01*
X54883984Y-34434500D01*
X54816945Y-34414815D01*
X54771190Y-34362011D01*
X54761246Y-34292853D01*
X54766053Y-34272182D01*
X54816757Y-34116130D01*
X54816757Y-34116127D01*
X54850000Y-33906246D01*
X54850000Y-33693753D01*
X54816757Y-33483872D01*
X54816757Y-33483869D01*
X54751095Y-33281782D01*
X54654624Y-33092449D01*
X54615270Y-33038282D01*
X54615269Y-33038282D01*
X53982962Y-33670589D01*
X53965925Y-33607007D01*
X53900099Y-33492993D01*
X53807007Y-33399901D01*
X53692993Y-33334075D01*
X53629409Y-33317037D01*
X54298802Y-32647642D01*
X54360125Y-32614157D01*
X54374833Y-32615078D01*
X54374556Y-32612501D01*
X54457375Y-32603598D01*
X54592086Y-32553354D01*
X54592093Y-32553350D01*
X54707187Y-32467190D01*
X54707190Y-32467187D01*
X54793350Y-32352093D01*
X54793354Y-32352086D01*
X54843596Y-32217379D01*
X54843598Y-32217372D01*
X54849999Y-32157844D01*
X54850000Y-32157827D01*
X54850000Y-31510000D01*
X53933012Y-31510000D01*
X53965925Y-31452993D01*
X54000000Y-31325826D01*
X54000000Y-31194174D01*
X53965925Y-31067007D01*
X53933012Y-31010000D01*
X54850000Y-31010000D01*
X54850000Y-30362172D01*
X54849999Y-30362155D01*
X54843598Y-30302627D01*
X54843596Y-30302620D01*
X54793354Y-30167913D01*
X54793350Y-30167906D01*
X54707190Y-30052812D01*
X54707187Y-30052809D01*
X54592093Y-29966649D01*
X54592086Y-29966645D01*
X54457379Y-29916403D01*
X54457372Y-29916401D01*
X54397844Y-29910000D01*
X53750000Y-29910000D01*
X53750000Y-30826988D01*
X53692993Y-30794075D01*
X53565826Y-30760000D01*
X53434174Y-30760000D01*
X53307007Y-30794075D01*
X53250000Y-30826988D01*
X53250000Y-29910000D01*
X52602155Y-29910000D01*
X52542627Y-29916401D01*
X52542620Y-29916403D01*
X52407913Y-29966645D01*
X52407906Y-29966649D01*
X52292812Y-30052809D01*
X52292809Y-30052812D01*
X52206649Y-30167906D01*
X52206645Y-30167913D01*
X52156403Y-30302620D01*
X52156401Y-30302627D01*
X52150000Y-30362155D01*
X52150000Y-31010000D01*
X53066988Y-31010000D01*
X53034075Y-31067007D01*
X53000000Y-31194174D01*
X53000000Y-31325826D01*
X53034075Y-31452993D01*
X53066988Y-31510000D01*
X52150000Y-31510000D01*
X52150000Y-32157844D01*
X52156401Y-32217372D01*
X52156403Y-32217379D01*
X52206645Y-32352086D01*
X52206649Y-32352093D01*
X52292809Y-32467187D01*
X52292812Y-32467190D01*
X52407906Y-32553350D01*
X52407913Y-32553354D01*
X52542620Y-32603596D01*
X52542619Y-32603596D01*
X52625444Y-32612501D01*
X52625116Y-32615550D01*
X52642014Y-32614642D01*
X52701196Y-32647642D01*
X53370591Y-33317037D01*
X53307007Y-33334075D01*
X53192993Y-33399901D01*
X53099901Y-33492993D01*
X53034075Y-33607007D01*
X53017037Y-33670591D01*
X52384728Y-33038282D01*
X52384727Y-33038282D01*
X52345380Y-33092439D01*
X52248904Y-33281782D01*
X52183242Y-33483869D01*
X52183242Y-33483872D01*
X52150000Y-33693753D01*
X52150000Y-33906246D01*
X52183242Y-34116127D01*
X52183242Y-34116130D01*
X52233947Y-34272182D01*
X52235942Y-34342023D01*
X52199862Y-34401856D01*
X52137161Y-34432684D01*
X52116016Y-34434500D01*
X49834500Y-34434500D01*
X49767461Y-34414815D01*
X49721706Y-34362011D01*
X49710500Y-34310500D01*
X49710500Y-30839336D01*
X49730185Y-30772297D01*
X49746819Y-30751655D01*
X50227304Y-30271170D01*
X52459255Y-28039219D01*
X54803828Y-25694646D01*
X54919524Y-25535405D01*
X55008884Y-25360026D01*
X55069709Y-25172826D01*
X55098745Y-24989500D01*
X55100500Y-24978422D01*
X55100500Y-23714500D01*
X55120185Y-23647461D01*
X55172989Y-23601706D01*
X55224500Y-23590500D01*
X55848694Y-23590500D01*
X55887012Y-23596569D01*
X55932147Y-23611234D01*
X56073757Y-23657246D01*
X56283713Y-23690500D01*
X56283714Y-23690500D01*
X56496286Y-23690500D01*
X56496287Y-23690500D01*
X56706243Y-23657246D01*
X56908412Y-23591557D01*
X57097816Y-23495051D01*
X57184138Y-23432335D01*
X57269786Y-23370109D01*
X57269788Y-23370106D01*
X57269792Y-23370104D01*
X57420104Y-23219792D01*
X57420106Y-23219788D01*
X57420109Y-23219786D01*
X57545048Y-23047820D01*
X57545047Y-23047820D01*
X57545051Y-23047816D01*
X57549514Y-23039054D01*
X57597488Y-22988259D01*
X57665308Y-22971463D01*
X57731444Y-22993999D01*
G37*
%TD.AperFunction*%
%TA.AperFunction,Conductor*%
G36*
X58830000Y-33366988D02*
G01*
X58772993Y-33334075D01*
X58645826Y-33300000D01*
X58514174Y-33300000D01*
X58387007Y-33334075D01*
X58330000Y-33366988D01*
X58330000Y-31693012D01*
X58387007Y-31725925D01*
X58514174Y-31760000D01*
X58645826Y-31760000D01*
X58772993Y-31725925D01*
X58830000Y-31693012D01*
X58830000Y-33366988D01*
G37*
%TD.AperFunction*%
%TA.AperFunction,Conductor*%
G36*
X63544075Y-22532993D02*
G01*
X63609901Y-22647007D01*
X63702993Y-22740099D01*
X63817007Y-22805925D01*
X63880590Y-22822962D01*
X63248282Y-23455269D01*
X63248282Y-23455270D01*
X63302449Y-23494624D01*
X63491782Y-23591095D01*
X63605272Y-23627970D01*
X63662947Y-23667407D01*
X63690146Y-23731766D01*
X63678232Y-23800612D01*
X63630988Y-23852088D01*
X63606114Y-23863555D01*
X63522500Y-23891384D01*
X63522496Y-23891386D01*
X63401462Y-23969171D01*
X63401451Y-23969179D01*
X63348659Y-24014923D01*
X63254433Y-24123664D01*
X63254430Y-24123668D01*
X63194664Y-24254534D01*
X63174976Y-24321582D01*
X63154500Y-24464001D01*
X63154500Y-24865500D01*
X63151949Y-24874185D01*
X63153238Y-24883147D01*
X63142259Y-24907187D01*
X63134815Y-24932539D01*
X63127974Y-24938466D01*
X63124213Y-24946703D01*
X63101978Y-24960992D01*
X63082011Y-24978294D01*
X63071496Y-24980581D01*
X63065435Y-24984477D01*
X63030500Y-24989500D01*
X62844500Y-24989500D01*
X62777461Y-24969815D01*
X62731706Y-24917011D01*
X62720500Y-24865500D01*
X62720500Y-23222146D01*
X62740185Y-23155107D01*
X62792989Y-23109352D01*
X62854231Y-23098528D01*
X62894729Y-23101715D01*
X63527037Y-22469408D01*
X63544075Y-22532993D01*
G37*
%TD.AperFunction*%
%TA.AperFunction,Conductor*%
G36*
X65162356Y-23138803D02*
G01*
X65195841Y-23200126D01*
X65194926Y-23214831D01*
X65197497Y-23214555D01*
X65206401Y-23297373D01*
X65206403Y-23297380D01*
X65256645Y-23432086D01*
X65256649Y-23432093D01*
X65342809Y-23547187D01*
X65342812Y-23547190D01*
X65428363Y-23611234D01*
X65470234Y-23667168D01*
X65475218Y-23736859D01*
X65441732Y-23798182D01*
X65380409Y-23831666D01*
X65354052Y-23834500D01*
X64562000Y-23834500D01*
X64494961Y-23814815D01*
X64449206Y-23762011D01*
X64439262Y-23692853D01*
X64468287Y-23629297D01*
X64523684Y-23592568D01*
X64528219Y-23591094D01*
X64717554Y-23494622D01*
X64771716Y-23455270D01*
X64771717Y-23455270D01*
X64139408Y-22822962D01*
X64202993Y-22805925D01*
X64317007Y-22740099D01*
X64410099Y-22647007D01*
X64475925Y-22532993D01*
X64492962Y-22469408D01*
X65162356Y-23138803D01*
G37*
%TD.AperFunction*%
%TA.AperFunction,Conductor*%
G36*
X81702539Y-17060185D02*
G01*
X81748294Y-17112989D01*
X81759500Y-17164500D01*
X81759500Y-54215500D01*
X81739815Y-54282539D01*
X81687011Y-54328294D01*
X81635500Y-54339500D01*
X16784500Y-54339500D01*
X16717461Y-54319815D01*
X16671706Y-54267011D01*
X16660500Y-54215500D01*
X16660500Y-44040013D01*
X21087500Y-44040013D01*
X21087500Y-44890000D01*
X22287499Y-44890000D01*
X22262479Y-44950402D01*
X22237500Y-45075981D01*
X22237500Y-45204019D01*
X22262479Y-45329598D01*
X22287499Y-45390000D01*
X21087501Y-45390000D01*
X21087501Y-46239986D01*
X21097994Y-46342697D01*
X21153141Y-46509119D01*
X21153143Y-46509124D01*
X21245184Y-46658345D01*
X21369154Y-46782315D01*
X21518375Y-46874356D01*
X21518380Y-46874358D01*
X21684802Y-46929505D01*
X21684809Y-46929506D01*
X21787519Y-46939999D01*
X22637499Y-46939999D01*
X22637500Y-46939998D01*
X22637500Y-45740001D01*
X22697902Y-45765021D01*
X22823481Y-45790000D01*
X22951519Y-45790000D01*
X23077098Y-45765021D01*
X23137500Y-45740001D01*
X23137500Y-46939999D01*
X23987472Y-46939999D01*
X23987486Y-46939998D01*
X24090197Y-46929505D01*
X24256619Y-46874358D01*
X24256624Y-46874356D01*
X24405845Y-46782315D01*
X24529815Y-46658345D01*
X24621856Y-46509124D01*
X24621858Y-46509119D01*
X24677005Y-46342697D01*
X24677006Y-46342690D01*
X24687499Y-46239986D01*
X24687500Y-46239973D01*
X24687500Y-45390000D01*
X23487501Y-45390000D01*
X23512521Y-45329598D01*
X23537500Y-45204019D01*
X23537500Y-45075981D01*
X23512521Y-44950402D01*
X23487501Y-44890000D01*
X24687499Y-44890000D01*
X24687499Y-44040028D01*
X24687498Y-44040013D01*
X24677005Y-43937302D01*
X24621858Y-43770880D01*
X24621856Y-43770875D01*
X24529815Y-43621654D01*
X24405845Y-43497684D01*
X24256624Y-43405643D01*
X24256619Y-43405641D01*
X24090197Y-43350494D01*
X24090190Y-43350493D01*
X23987486Y-43340000D01*
X23137500Y-43340000D01*
X23137500Y-44539998D01*
X23077098Y-44514979D01*
X22951519Y-44490000D01*
X22823481Y-44490000D01*
X22697902Y-44514979D01*
X22637500Y-44539998D01*
X22637500Y-43340000D01*
X21787528Y-43340000D01*
X21787512Y-43340001D01*
X21684802Y-43350494D01*
X21518380Y-43405641D01*
X21518375Y-43405643D01*
X21369154Y-43497684D01*
X21245184Y-43621654D01*
X21153143Y-43770875D01*
X21153141Y-43770880D01*
X21097994Y-43937302D01*
X21097993Y-43937309D01*
X21087500Y-44040013D01*
X16660500Y-44040013D01*
X16660500Y-35789097D01*
X16680185Y-35722058D01*
X16732989Y-35676303D01*
X16802147Y-35666359D01*
X16865703Y-35695384D01*
X16872180Y-35701415D01*
X22691284Y-41520520D01*
X22691286Y-41520521D01*
X22691290Y-41520524D01*
X22810533Y-41589368D01*
X22828216Y-41599577D01*
X22980943Y-41640501D01*
X22980945Y-41640501D01*
X23146654Y-41640501D01*
X23146670Y-41640500D01*
X24279699Y-41640500D01*
X24346738Y-41660185D01*
X24392493Y-41712989D01*
X24397403Y-41725492D01*
X24425186Y-41809334D01*
X24517288Y-41958656D01*
X24641344Y-42082712D01*
X24790666Y-42174814D01*
X24957203Y-42229999D01*
X25059991Y-42240500D01*
X25860008Y-42240499D01*
X25860016Y-42240498D01*
X25860019Y-42240498D01*
X25916302Y-42234748D01*
X25962797Y-42229999D01*
X26129334Y-42174814D01*
X26278656Y-42082712D01*
X26372319Y-41989049D01*
X26433642Y-41955564D01*
X26503334Y-41960548D01*
X26547681Y-41989049D01*
X26641344Y-42082712D01*
X26790666Y-42174814D01*
X26957203Y-42229999D01*
X27059991Y-42240500D01*
X27860008Y-42240499D01*
X27860016Y-42240498D01*
X27860019Y-42240498D01*
X27916302Y-42234748D01*
X27962797Y-42229999D01*
X28129334Y-42174814D01*
X28278656Y-42082712D01*
X28402712Y-41958656D01*
X28429220Y-41915679D01*
X28481164Y-41868957D01*
X28550126Y-41857733D01*
X28614209Y-41885575D01*
X28622438Y-41893096D01*
X28693454Y-41964112D01*
X28808190Y-42040776D01*
X28890086Y-42074698D01*
X28935671Y-42093580D01*
X28935672Y-42093580D01*
X28935677Y-42093582D01*
X28962545Y-42098925D01*
X28962551Y-42098926D01*
X28962591Y-42098934D01*
X29052937Y-42116905D01*
X29071006Y-42120500D01*
X29071007Y-42120500D01*
X29436453Y-42120500D01*
X29503492Y-42140185D01*
X29536769Y-42171614D01*
X29557589Y-42200269D01*
X29629892Y-42299788D01*
X29780213Y-42450109D01*
X29952182Y-42575050D01*
X29960946Y-42579516D01*
X30011742Y-42627491D01*
X30028536Y-42695312D01*
X30005998Y-42761447D01*
X29960946Y-42800484D01*
X29952182Y-42804949D01*
X29780213Y-42929890D01*
X29629890Y-43080213D01*
X29504951Y-43252179D01*
X29408444Y-43441585D01*
X29342753Y-43643760D01*
X29321565Y-43777539D01*
X29309500Y-43853713D01*
X29309500Y-44066287D01*
X29342754Y-44276243D01*
X29344942Y-44282978D01*
X29408444Y-44478414D01*
X29504951Y-44667820D01*
X29629890Y-44839786D01*
X29780213Y-44990109D01*
X29952182Y-45115050D01*
X29960946Y-45119516D01*
X30011742Y-45167491D01*
X30028536Y-45235312D01*
X30005998Y-45301447D01*
X29960946Y-45340484D01*
X29952182Y-45344949D01*
X29780213Y-45469890D01*
X29629890Y-45620213D01*
X29504951Y-45792179D01*
X29408444Y-45981585D01*
X29342753Y-46183760D01*
X29309500Y-46393713D01*
X29309500Y-46606286D01*
X29342555Y-46814991D01*
X29342754Y-46816243D01*
X29379555Y-46929505D01*
X29408444Y-47018414D01*
X29477633Y-47154205D01*
X29490529Y-47222874D01*
X29464253Y-47287615D01*
X29407146Y-47327872D01*
X29367148Y-47334500D01*
X19784000Y-47334500D01*
X19783991Y-47334500D01*
X19783990Y-47334501D01*
X19676549Y-47346052D01*
X19676537Y-47346054D01*
X19625027Y-47357260D01*
X19522502Y-47391383D01*
X19522496Y-47391386D01*
X19401462Y-47469171D01*
X19401451Y-47469179D01*
X19348659Y-47514923D01*
X19254433Y-47623664D01*
X19254430Y-47623668D01*
X19194664Y-47754534D01*
X19194662Y-47754541D01*
X19174977Y-47821580D01*
X19174976Y-47821584D01*
X19154500Y-47964000D01*
X19154500Y-48861928D01*
X19154500Y-50055148D01*
X19154500Y-51418070D01*
X19154500Y-53216000D01*
X19154501Y-53216009D01*
X19166052Y-53323450D01*
X19166054Y-53323462D01*
X19177260Y-53374972D01*
X19211383Y-53477497D01*
X19211386Y-53477503D01*
X19289171Y-53598537D01*
X19289179Y-53598548D01*
X19334923Y-53651340D01*
X19334926Y-53651343D01*
X19334930Y-53651347D01*
X19443664Y-53745567D01*
X19443667Y-53745568D01*
X19443668Y-53745569D01*
X19537925Y-53788616D01*
X19574541Y-53805338D01*
X19641580Y-53825023D01*
X19641584Y-53825024D01*
X19784000Y-53845500D01*
X19784003Y-53845500D01*
X43535990Y-53845500D01*
X43536000Y-53845500D01*
X43643456Y-53833947D01*
X43694967Y-53822741D01*
X43729197Y-53811347D01*
X43797497Y-53788616D01*
X43797501Y-53788613D01*
X43797504Y-53788613D01*
X43918543Y-53710825D01*
X43971347Y-53665070D01*
X44065567Y-53556336D01*
X44125338Y-53425459D01*
X44145023Y-53358420D01*
X44145024Y-53358416D01*
X44165500Y-53216000D01*
X44165500Y-45464000D01*
X44153947Y-45356544D01*
X44142741Y-45305033D01*
X44138574Y-45292512D01*
X44108616Y-45202502D01*
X44108613Y-45202496D01*
X44057816Y-45123456D01*
X44030825Y-45081457D01*
X44026080Y-45075981D01*
X43985076Y-45028659D01*
X43985072Y-45028656D01*
X43985070Y-45028653D01*
X43876336Y-44934433D01*
X43876333Y-44934431D01*
X43876331Y-44934430D01*
X43745465Y-44874664D01*
X43745460Y-44874662D01*
X43745459Y-44874662D01*
X43678420Y-44854977D01*
X43678422Y-44854977D01*
X43678417Y-44854976D01*
X43616354Y-44846053D01*
X43536000Y-44834500D01*
X43535998Y-44834500D01*
X42092471Y-44834500D01*
X42025432Y-44814815D01*
X41979677Y-44762011D01*
X41969733Y-44692853D01*
X41981986Y-44654205D01*
X41991714Y-44635112D01*
X42071557Y-44478412D01*
X42137246Y-44276243D01*
X42170500Y-44066287D01*
X42170500Y-43853713D01*
X42137246Y-43643757D01*
X42071557Y-43441588D01*
X41975051Y-43252184D01*
X41975049Y-43252181D01*
X41975048Y-43252179D01*
X41850109Y-43080213D01*
X41699786Y-42929890D01*
X41527820Y-42804951D01*
X41527115Y-42804591D01*
X41519054Y-42800485D01*
X41468259Y-42752512D01*
X41451463Y-42684692D01*
X41473999Y-42618556D01*
X41519054Y-42579515D01*
X41527816Y-42575051D01*
X41645535Y-42489524D01*
X41699786Y-42450109D01*
X41699788Y-42450106D01*
X41699792Y-42450104D01*
X41850104Y-42299792D01*
X41850106Y-42299788D01*
X41850109Y-42299786D01*
X41975048Y-42127820D01*
X41975047Y-42127820D01*
X41975051Y-42127816D01*
X42071557Y-41938412D01*
X42137246Y-41736243D01*
X42170500Y-41526287D01*
X42170500Y-41313713D01*
X42137246Y-41103757D01*
X42071557Y-40901588D01*
X41975051Y-40712184D01*
X41975049Y-40712181D01*
X41975048Y-40712179D01*
X41850109Y-40540213D01*
X41699786Y-40389890D01*
X41527820Y-40264951D01*
X41527115Y-40264591D01*
X41519054Y-40260485D01*
X41468259Y-40212512D01*
X41451463Y-40144692D01*
X41473999Y-40078556D01*
X41519054Y-40039515D01*
X41527816Y-40035051D01*
X41579793Y-39997288D01*
X41699786Y-39910109D01*
X41699788Y-39910106D01*
X41699792Y-39910104D01*
X41850104Y-39759792D01*
X41850106Y-39759788D01*
X41850109Y-39759786D01*
X41975048Y-39587820D01*
X41975047Y-39587820D01*
X41975051Y-39587816D01*
X42071557Y-39398412D01*
X42137246Y-39196243D01*
X42170500Y-38986287D01*
X42170500Y-38773713D01*
X42137246Y-38563757D01*
X42071557Y-38361588D01*
X41975051Y-38172184D01*
X41975049Y-38172181D01*
X41975048Y-38172179D01*
X41850109Y-38000213D01*
X41699786Y-37849890D01*
X41527820Y-37724951D01*
X41527115Y-37724591D01*
X41519054Y-37720485D01*
X41468259Y-37672512D01*
X41451463Y-37604692D01*
X41473999Y-37538556D01*
X41519054Y-37499515D01*
X41527816Y-37495051D01*
X41602447Y-37440829D01*
X41699786Y-37370109D01*
X41699788Y-37370106D01*
X41699792Y-37370104D01*
X41850104Y-37219792D01*
X41850106Y-37219788D01*
X41850109Y-37219786D01*
X41973902Y-37049397D01*
X41975051Y-37047816D01*
X42071557Y-36858412D01*
X42137246Y-36656243D01*
X42170500Y-36446287D01*
X42170500Y-36233713D01*
X42137246Y-36023757D01*
X42071557Y-35821588D01*
X41975051Y-35632184D01*
X41975049Y-35632181D01*
X41975048Y-35632179D01*
X41850109Y-35460213D01*
X41699786Y-35309890D01*
X41527820Y-35184951D01*
X41527115Y-35184591D01*
X41519054Y-35180485D01*
X41468259Y-35132512D01*
X41451463Y-35064692D01*
X41473999Y-34998556D01*
X41519054Y-34959515D01*
X41527816Y-34955051D01*
X41622526Y-34886241D01*
X41699786Y-34830109D01*
X41699788Y-34830106D01*
X41699792Y-34830104D01*
X41850104Y-34679792D01*
X41850106Y-34679788D01*
X41850109Y-34679786D01*
X41975048Y-34507820D01*
X41975047Y-34507820D01*
X41975051Y-34507816D01*
X42071557Y-34318412D01*
X42137246Y-34116243D01*
X42170500Y-33906287D01*
X42170500Y-33693713D01*
X42137246Y-33483757D01*
X42071557Y-33281588D01*
X41975051Y-33092184D01*
X41975049Y-33092181D01*
X41975048Y-33092179D01*
X41850109Y-32920213D01*
X41736181Y-32806285D01*
X41702696Y-32744962D01*
X41707680Y-32675270D01*
X41749552Y-32619337D01*
X41780529Y-32602422D01*
X41912086Y-32553354D01*
X41912093Y-32553350D01*
X42027187Y-32467190D01*
X42027190Y-32467187D01*
X42113350Y-32352093D01*
X42113354Y-32352086D01*
X42163596Y-32217379D01*
X42163598Y-32217372D01*
X42169999Y-32157844D01*
X42170000Y-32157827D01*
X42170000Y-31510000D01*
X41253012Y-31510000D01*
X41285925Y-31452993D01*
X41320000Y-31325826D01*
X41320000Y-31194174D01*
X41285925Y-31067007D01*
X41253012Y-31010000D01*
X42170000Y-31010000D01*
X42170000Y-30362172D01*
X42169999Y-30362155D01*
X42163598Y-30302627D01*
X42163596Y-30302620D01*
X42113354Y-30167913D01*
X42113350Y-30167906D01*
X42027190Y-30052812D01*
X42027187Y-30052809D01*
X41912093Y-29966649D01*
X41912086Y-29966645D01*
X41777379Y-29916403D01*
X41777372Y-29916401D01*
X41717844Y-29910000D01*
X41070000Y-29910000D01*
X41070000Y-30826988D01*
X41012993Y-30794075D01*
X40885826Y-30760000D01*
X40754174Y-30760000D01*
X40627007Y-30794075D01*
X40570000Y-30826988D01*
X40570000Y-29910000D01*
X39922155Y-29910000D01*
X39862627Y-29916401D01*
X39862620Y-29916403D01*
X39727913Y-29966645D01*
X39727906Y-29966649D01*
X39612812Y-30052809D01*
X39612809Y-30052812D01*
X39526649Y-30167906D01*
X39526645Y-30167913D01*
X39476403Y-30302620D01*
X39476401Y-30302627D01*
X39470000Y-30362155D01*
X39470000Y-31010000D01*
X40386988Y-31010000D01*
X40354075Y-31067007D01*
X40320000Y-31194174D01*
X40320000Y-31325826D01*
X40354075Y-31452993D01*
X40386988Y-31510000D01*
X39470000Y-31510000D01*
X39470000Y-32157844D01*
X39476401Y-32217372D01*
X39476403Y-32217379D01*
X39526645Y-32352086D01*
X39526649Y-32352093D01*
X39612809Y-32467187D01*
X39612812Y-32467190D01*
X39727906Y-32553350D01*
X39727913Y-32553354D01*
X39859470Y-32602422D01*
X39915404Y-32644293D01*
X39939821Y-32709758D01*
X39924969Y-32778031D01*
X39903819Y-32806285D01*
X39789890Y-32920214D01*
X39723507Y-33011583D01*
X39696770Y-33048385D01*
X39641442Y-33091051D01*
X39596453Y-33099500D01*
X31883547Y-33099500D01*
X31816508Y-33079815D01*
X31783230Y-33048385D01*
X31741682Y-32991200D01*
X31690107Y-32920211D01*
X31576181Y-32806285D01*
X31542696Y-32744962D01*
X31547680Y-32675270D01*
X31589552Y-32619337D01*
X31620529Y-32602422D01*
X31752086Y-32553354D01*
X31752089Y-32553352D01*
X31861950Y-32471110D01*
X31927414Y-32446692D01*
X31995687Y-32461543D01*
X32010567Y-32471106D01*
X32107665Y-32543793D01*
X32107668Y-32543795D01*
X32107671Y-32543797D01*
X32242517Y-32594091D01*
X32242516Y-32594091D01*
X32249444Y-32594835D01*
X32302127Y-32600500D01*
X34097872Y-32600499D01*
X34157483Y-32594091D01*
X34292331Y-32543796D01*
X34407546Y-32457546D01*
X34493796Y-32342331D01*
X34542810Y-32210916D01*
X34584681Y-32154984D01*
X34650145Y-32130566D01*
X34718418Y-32145417D01*
X34746673Y-32166569D01*
X34860213Y-32280109D01*
X35032179Y-32405048D01*
X35032181Y-32405049D01*
X35032184Y-32405051D01*
X35221588Y-32501557D01*
X35423757Y-32567246D01*
X35633713Y-32600500D01*
X35633714Y-32600500D01*
X35846286Y-32600500D01*
X35846287Y-32600500D01*
X36056243Y-32567246D01*
X36258412Y-32501557D01*
X36447816Y-32405051D01*
X36534138Y-32342335D01*
X36619786Y-32280109D01*
X36619788Y-32280106D01*
X36619792Y-32280104D01*
X36770104Y-32129792D01*
X36770106Y-32129788D01*
X36770109Y-32129786D01*
X36895048Y-31957820D01*
X36895047Y-31957820D01*
X36895051Y-31957816D01*
X36991557Y-31768412D01*
X37057246Y-31566243D01*
X37090500Y-31356287D01*
X37090500Y-31143713D01*
X37057246Y-30933757D01*
X36991557Y-30731588D01*
X36895051Y-30542184D01*
X36770104Y-30370208D01*
X36619792Y-30219896D01*
X36619791Y-30219895D01*
X36619786Y-30219890D01*
X36447815Y-30094948D01*
X36447816Y-30094948D01*
X36443198Y-30092595D01*
X36392405Y-30044618D01*
X36375500Y-29982114D01*
X36375500Y-28701744D01*
X36395185Y-28634705D01*
X36426615Y-28601426D01*
X36522215Y-28531969D01*
X36522215Y-28531968D01*
X36522219Y-28531966D01*
X36666966Y-28387219D01*
X36666968Y-28387215D01*
X36666971Y-28387213D01*
X36742469Y-28283297D01*
X36787287Y-28221610D01*
X36877872Y-28043827D01*
X36880218Y-28039223D01*
X36880218Y-28039222D01*
X36880220Y-28039219D01*
X36943477Y-27844534D01*
X36975500Y-27642352D01*
X36975500Y-27437648D01*
X36943477Y-27235466D01*
X36880220Y-27040781D01*
X36880218Y-27040778D01*
X36880218Y-27040776D01*
X36818284Y-26919225D01*
X36787287Y-26858390D01*
X36759261Y-26819815D01*
X36666971Y-26692786D01*
X36522213Y-26548028D01*
X36356613Y-26427715D01*
X36356612Y-26427714D01*
X36356610Y-26427713D01*
X36299653Y-26398691D01*
X36174223Y-26334781D01*
X35979534Y-26271522D01*
X35804995Y-26243878D01*
X35777352Y-26239500D01*
X35572648Y-26239500D01*
X35548329Y-26243351D01*
X35370465Y-26271522D01*
X35175776Y-26334781D01*
X34993386Y-26427715D01*
X34827786Y-26548028D01*
X34683028Y-26692786D01*
X34562715Y-26858386D01*
X34469781Y-27040776D01*
X34406522Y-27235465D01*
X34374500Y-27437648D01*
X34374500Y-27642351D01*
X34406522Y-27844534D01*
X34469781Y-28039223D01*
X34562715Y-28221613D01*
X34683028Y-28387213D01*
X34827784Y-28531969D01*
X34923385Y-28601426D01*
X34966051Y-28656755D01*
X34974500Y-28701744D01*
X34974500Y-30073677D01*
X34954815Y-30140716D01*
X34923387Y-30173993D01*
X34882413Y-30203762D01*
X34860209Y-30219895D01*
X34746673Y-30333431D01*
X34685350Y-30366915D01*
X34615658Y-30361931D01*
X34559725Y-30320059D01*
X34542810Y-30289082D01*
X34493797Y-30157671D01*
X34493793Y-30157664D01*
X34407547Y-30042455D01*
X34407544Y-30042452D01*
X34292335Y-29956206D01*
X34292328Y-29956202D01*
X34157482Y-29905908D01*
X34157483Y-29905908D01*
X34097883Y-29899501D01*
X34097881Y-29899500D01*
X34097873Y-29899500D01*
X34097865Y-29899500D01*
X34024500Y-29899500D01*
X33957461Y-29879815D01*
X33911706Y-29827011D01*
X33900500Y-29775500D01*
X33900500Y-28511007D01*
X33895227Y-28484502D01*
X33895227Y-28484498D01*
X33879714Y-28406510D01*
X33873580Y-28375672D01*
X33873578Y-28375667D01*
X33820777Y-28248192D01*
X33744112Y-28133454D01*
X32606545Y-26995887D01*
X32491807Y-26919222D01*
X32364332Y-26866421D01*
X32364322Y-26866418D01*
X32228996Y-26839500D01*
X32228994Y-26839500D01*
X32228993Y-26839500D01*
X31756744Y-26839500D01*
X31689705Y-26819815D01*
X31656425Y-26788384D01*
X31586969Y-26692784D01*
X31442213Y-26548028D01*
X31276613Y-26427715D01*
X31276612Y-26427714D01*
X31276610Y-26427713D01*
X31219653Y-26398691D01*
X31094223Y-26334781D01*
X30899534Y-26271522D01*
X30724995Y-26243878D01*
X30697352Y-26239500D01*
X30492648Y-26239500D01*
X30468329Y-26243351D01*
X30290465Y-26271522D01*
X30095776Y-26334781D01*
X29913386Y-26427715D01*
X29747786Y-26548028D01*
X29603028Y-26692786D01*
X29482715Y-26858386D01*
X29389781Y-27040776D01*
X29326522Y-27235465D01*
X29294500Y-27437648D01*
X29294500Y-27642351D01*
X29326522Y-27844534D01*
X29389781Y-28039223D01*
X29482715Y-28221613D01*
X29603028Y-28387213D01*
X29747786Y-28531971D01*
X29889190Y-28634705D01*
X29913390Y-28652287D01*
X30010455Y-28701744D01*
X30095776Y-28745218D01*
X30095778Y-28745218D01*
X30095781Y-28745220D01*
X30200137Y-28779127D01*
X30290465Y-28808477D01*
X30391557Y-28824488D01*
X30492648Y-28840500D01*
X30492649Y-28840500D01*
X30697351Y-28840500D01*
X30697352Y-28840500D01*
X30899534Y-28808477D01*
X31094219Y-28745220D01*
X31276610Y-28652287D01*
X31387411Y-28571786D01*
X31442213Y-28531971D01*
X31442215Y-28531968D01*
X31442219Y-28531966D01*
X31586966Y-28387219D01*
X31656425Y-28291615D01*
X31660757Y-28288274D01*
X31663031Y-28283297D01*
X31688130Y-28267166D01*
X31711755Y-28248949D01*
X31718428Y-28247695D01*
X31721809Y-28245523D01*
X31756744Y-28240500D01*
X31818481Y-28240500D01*
X31885520Y-28260185D01*
X31906162Y-28276819D01*
X32463181Y-28833838D01*
X32496666Y-28895161D01*
X32499500Y-28921519D01*
X32499500Y-29775500D01*
X32479815Y-29842539D01*
X32427011Y-29888294D01*
X32375502Y-29899500D01*
X32302130Y-29899500D01*
X32302123Y-29899501D01*
X32242516Y-29905908D01*
X32107671Y-29956202D01*
X32107669Y-29956203D01*
X31997215Y-30038890D01*
X31931751Y-30063307D01*
X31863478Y-30048456D01*
X31848593Y-30038890D01*
X31752088Y-29966647D01*
X31752086Y-29966645D01*
X31617379Y-29916403D01*
X31617372Y-29916401D01*
X31557844Y-29910000D01*
X30910000Y-29910000D01*
X30910000Y-30826988D01*
X30852993Y-30794075D01*
X30725826Y-30760000D01*
X30594174Y-30760000D01*
X30467007Y-30794075D01*
X30410000Y-30826988D01*
X30410000Y-29910000D01*
X29762155Y-29910000D01*
X29702627Y-29916401D01*
X29702620Y-29916403D01*
X29567913Y-29966645D01*
X29567906Y-29966649D01*
X29452812Y-30052809D01*
X29452809Y-30052812D01*
X29366649Y-30167906D01*
X29366645Y-30167913D01*
X29316403Y-30302620D01*
X29316401Y-30302627D01*
X29310000Y-30362155D01*
X29310000Y-31010000D01*
X30226988Y-31010000D01*
X30194075Y-31067007D01*
X30160000Y-31194174D01*
X30160000Y-31325826D01*
X30194075Y-31452993D01*
X30226988Y-31510000D01*
X29310000Y-31510000D01*
X29310000Y-32157844D01*
X29316401Y-32217372D01*
X29316403Y-32217379D01*
X29366645Y-32352086D01*
X29366649Y-32352093D01*
X29452809Y-32467187D01*
X29452812Y-32467190D01*
X29567906Y-32553350D01*
X29567913Y-32553354D01*
X29699470Y-32602422D01*
X29755404Y-32644293D01*
X29779821Y-32709758D01*
X29764969Y-32778031D01*
X29743819Y-32806285D01*
X29629889Y-32920215D01*
X29504948Y-33092184D01*
X29504947Y-33092185D01*
X29484765Y-33131795D01*
X29436791Y-33182591D01*
X29374281Y-33199500D01*
X27420097Y-33199500D01*
X27353058Y-33179815D01*
X27332416Y-33163181D01*
X23745749Y-29576514D01*
X23712264Y-29515191D01*
X23717248Y-29445499D01*
X23759120Y-29389566D01*
X23824584Y-29365149D01*
X23880881Y-29374271D01*
X23966503Y-29409737D01*
X24121153Y-29440499D01*
X24121156Y-29440500D01*
X24121158Y-29440500D01*
X24278844Y-29440500D01*
X24278845Y-29440499D01*
X24433497Y-29409737D01*
X24579179Y-29349394D01*
X24710289Y-29261789D01*
X24821789Y-29150289D01*
X24909394Y-29019179D01*
X24969737Y-28873497D01*
X25000500Y-28718842D01*
X25000500Y-28561158D01*
X25000500Y-28561155D01*
X25000499Y-28561153D01*
X24985252Y-28484502D01*
X24969737Y-28406503D01*
X24961747Y-28387213D01*
X24909397Y-28260827D01*
X24909390Y-28260814D01*
X24821398Y-28129125D01*
X24800520Y-28062447D01*
X24800500Y-28060234D01*
X24800500Y-23625718D01*
X24820185Y-23558679D01*
X24868207Y-23515233D01*
X24907815Y-23495052D01*
X24907815Y-23495051D01*
X24907816Y-23495051D01*
X25030651Y-23405807D01*
X25079786Y-23370109D01*
X25079788Y-23370106D01*
X25079792Y-23370104D01*
X25230104Y-23219792D01*
X25230106Y-23219788D01*
X25230109Y-23219786D01*
X25355048Y-23047820D01*
X25355047Y-23047820D01*
X25355051Y-23047816D01*
X25359514Y-23039054D01*
X25407488Y-22988259D01*
X25475308Y-22971463D01*
X25541444Y-22993999D01*
X25580486Y-23039056D01*
X25584951Y-23047820D01*
X25709890Y-23219786D01*
X25860213Y-23370109D01*
X26032184Y-23495051D01*
X26032184Y-23495052D01*
X26071793Y-23515233D01*
X26122590Y-23563206D01*
X26139500Y-23625718D01*
X26139500Y-29977059D01*
X26119815Y-30044098D01*
X26103181Y-30064740D01*
X26038213Y-30129707D01*
X26038210Y-30129711D01*
X25950609Y-30260814D01*
X25950602Y-30260827D01*
X25890264Y-30406498D01*
X25890261Y-30406510D01*
X25859500Y-30561153D01*
X25859500Y-30718846D01*
X25890261Y-30873489D01*
X25890264Y-30873501D01*
X25950602Y-31019172D01*
X25950609Y-31019185D01*
X26038210Y-31150288D01*
X26038213Y-31150292D01*
X26149707Y-31261786D01*
X26149711Y-31261789D01*
X26280814Y-31349390D01*
X26280827Y-31349397D01*
X26369196Y-31386000D01*
X26426503Y-31409737D01*
X26581153Y-31440499D01*
X26581156Y-31440500D01*
X26581158Y-31440500D01*
X26738844Y-31440500D01*
X26738845Y-31440499D01*
X26893497Y-31409737D01*
X27039179Y-31349394D01*
X27170289Y-31261789D01*
X27281789Y-31150289D01*
X27369394Y-31019179D01*
X27429737Y-30873497D01*
X27460500Y-30718842D01*
X27460500Y-30561158D01*
X27460500Y-30561155D01*
X27460499Y-30561153D01*
X27429771Y-30406673D01*
X27429770Y-30406672D01*
X27429737Y-30406503D01*
X27369394Y-30260821D01*
X27355534Y-30240078D01*
X27351237Y-30230435D01*
X27347932Y-30205849D01*
X27340520Y-30182176D01*
X27340500Y-30179963D01*
X27340500Y-24041577D01*
X43659500Y-24041577D01*
X43659500Y-42588422D01*
X43690290Y-42782826D01*
X43751117Y-42970030D01*
X43840476Y-43145405D01*
X43956172Y-43304646D01*
X43956174Y-43304648D01*
X44873181Y-44221655D01*
X44906666Y-44282978D01*
X44909500Y-44309336D01*
X44909500Y-50438422D01*
X44940290Y-50632826D01*
X45001117Y-50820030D01*
X45090476Y-50995405D01*
X45206172Y-51154646D01*
X47595355Y-53543829D01*
X47670662Y-53598543D01*
X47670661Y-53598543D01*
X47734267Y-53644755D01*
X47754595Y-53659524D01*
X47866347Y-53716464D01*
X47929970Y-53748882D01*
X47929972Y-53748882D01*
X47929975Y-53748884D01*
X48030317Y-53781487D01*
X48117173Y-53809709D01*
X48311578Y-53840500D01*
X48311583Y-53840500D01*
X52558422Y-53840500D01*
X52752826Y-53809709D01*
X52940026Y-53748884D01*
X53115405Y-53659524D01*
X53274646Y-53543828D01*
X54453828Y-52364646D01*
X54569524Y-52205405D01*
X54658884Y-52030026D01*
X54658885Y-52030023D01*
X54691001Y-51931182D01*
X54730438Y-51873506D01*
X54794797Y-51846308D01*
X54808932Y-51845500D01*
X64315593Y-51845500D01*
X64382632Y-51865185D01*
X64428387Y-51917989D01*
X64438331Y-51987147D01*
X64433524Y-52007819D01*
X64392009Y-52135582D01*
X64360000Y-52337682D01*
X64360000Y-52542317D01*
X64392009Y-52744417D01*
X64455244Y-52939031D01*
X64548141Y-53121350D01*
X64548147Y-53121359D01*
X64580523Y-53165921D01*
X64580524Y-53165922D01*
X65260000Y-52486446D01*
X65260000Y-52492661D01*
X65287259Y-52594394D01*
X65339920Y-52685606D01*
X65414394Y-52760080D01*
X65505606Y-52812741D01*
X65607339Y-52840000D01*
X65613553Y-52840000D01*
X64934076Y-53519474D01*
X64978650Y-53551859D01*
X65160968Y-53644755D01*
X65355582Y-53707990D01*
X65557683Y-53740000D01*
X65762317Y-53740000D01*
X65964417Y-53707990D01*
X66159031Y-53644755D01*
X66341349Y-53551859D01*
X66385921Y-53519474D01*
X65706447Y-52840000D01*
X65712661Y-52840000D01*
X65814394Y-52812741D01*
X65905606Y-52760080D01*
X65980080Y-52685606D01*
X66032741Y-52594394D01*
X66060000Y-52492661D01*
X66060000Y-52486447D01*
X66739474Y-53165921D01*
X66771859Y-53121349D01*
X66864755Y-52939031D01*
X66927990Y-52744417D01*
X66960000Y-52542317D01*
X66960000Y-52337682D01*
X66927990Y-52135582D01*
X66886476Y-52007819D01*
X66884481Y-51937978D01*
X66920561Y-51878145D01*
X66983261Y-51847316D01*
X67004407Y-51845500D01*
X67535990Y-51845500D01*
X67536000Y-51845500D01*
X67643456Y-51833947D01*
X67694967Y-51822741D01*
X67729197Y-51811347D01*
X67797497Y-51788616D01*
X67797501Y-51788613D01*
X67797504Y-51788613D01*
X67918543Y-51710825D01*
X67971347Y-51665070D01*
X68065567Y-51556336D01*
X68125338Y-51425459D01*
X68145023Y-51358420D01*
X68145024Y-51358416D01*
X68165500Y-51216000D01*
X68165500Y-48969500D01*
X68185185Y-48902461D01*
X68237989Y-48856706D01*
X68289500Y-48845500D01*
X73693229Y-48845500D01*
X73760268Y-48865185D01*
X73806023Y-48917989D01*
X73815967Y-48987147D01*
X73786942Y-49050703D01*
X73780910Y-49057181D01*
X73748861Y-49089229D01*
X73748851Y-49089241D01*
X73619698Y-49275663D01*
X73619695Y-49275669D01*
X73525899Y-49482167D01*
X73525898Y-49482170D01*
X73470483Y-49702087D01*
X73470482Y-49702093D01*
X73460000Y-49835280D01*
X73460000Y-50790000D01*
X74532769Y-50790000D01*
X74510000Y-50933753D01*
X74510000Y-51146247D01*
X74532769Y-51290000D01*
X73460000Y-51290000D01*
X73460000Y-52244719D01*
X73470482Y-52377906D01*
X73470483Y-52377912D01*
X73525898Y-52597829D01*
X73525899Y-52597832D01*
X73619695Y-52804330D01*
X73619698Y-52804336D01*
X73748851Y-52990758D01*
X73748861Y-52990770D01*
X73909229Y-53151138D01*
X73909241Y-53151148D01*
X74095663Y-53280301D01*
X74095669Y-53280304D01*
X74302167Y-53374100D01*
X74302170Y-53374101D01*
X74522087Y-53429516D01*
X74522093Y-53429517D01*
X74655280Y-53439999D01*
X74655294Y-53440000D01*
X75610000Y-53440000D01*
X75610000Y-52367231D01*
X75753753Y-52390000D01*
X75966247Y-52390000D01*
X76110000Y-52367231D01*
X76110000Y-53440000D01*
X77064706Y-53440000D01*
X77064719Y-53439999D01*
X77197906Y-53429517D01*
X77197912Y-53429516D01*
X77417829Y-53374101D01*
X77417832Y-53374100D01*
X77624330Y-53280304D01*
X77624336Y-53280301D01*
X77810758Y-53151148D01*
X77810770Y-53151138D01*
X77971138Y-52990770D01*
X77971148Y-52990758D01*
X78100301Y-52804336D01*
X78100304Y-52804330D01*
X78194100Y-52597832D01*
X78194101Y-52597829D01*
X78249516Y-52377912D01*
X78249517Y-52377906D01*
X78259999Y-52244719D01*
X78260000Y-52244706D01*
X78260000Y-51290000D01*
X77187231Y-51290000D01*
X77210000Y-51146247D01*
X77210000Y-50933753D01*
X77187231Y-50790000D01*
X78260000Y-50790000D01*
X78260000Y-49835293D01*
X78259999Y-49835280D01*
X78249517Y-49702093D01*
X78249516Y-49702087D01*
X78194101Y-49482170D01*
X78194100Y-49482167D01*
X78100304Y-49275669D01*
X78100301Y-49275663D01*
X77971148Y-49089241D01*
X77971138Y-49089229D01*
X77939090Y-49057181D01*
X77905605Y-48995858D01*
X77910589Y-48926166D01*
X77952461Y-48870233D01*
X78017925Y-48845816D01*
X78026771Y-48845500D01*
X79535990Y-48845500D01*
X79536000Y-48845500D01*
X79643456Y-48833947D01*
X79694967Y-48822741D01*
X79729197Y-48811347D01*
X79797497Y-48788616D01*
X79797501Y-48788613D01*
X79797504Y-48788613D01*
X79918543Y-48710825D01*
X79971347Y-48665070D01*
X80065567Y-48556336D01*
X80125338Y-48425459D01*
X80145023Y-48358420D01*
X80145024Y-48358416D01*
X80165500Y-48216000D01*
X80165500Y-36964000D01*
X80153947Y-36856544D01*
X80142741Y-36805033D01*
X80142637Y-36804722D01*
X80108616Y-36702502D01*
X80108613Y-36702496D01*
X80030828Y-36581462D01*
X80030825Y-36581457D01*
X80023921Y-36573489D01*
X79985076Y-36528659D01*
X79985072Y-36528656D01*
X79985070Y-36528653D01*
X79876336Y-36434433D01*
X79876333Y-36434431D01*
X79876331Y-36434430D01*
X79745465Y-36374664D01*
X79745460Y-36374662D01*
X79745459Y-36374662D01*
X79678420Y-36354977D01*
X79678422Y-36354977D01*
X79678417Y-36354976D01*
X79628018Y-36347730D01*
X79536000Y-36334500D01*
X75685461Y-36334500D01*
X75618422Y-36314815D01*
X75572667Y-36262011D01*
X75562723Y-36192853D01*
X75591748Y-36129297D01*
X75650526Y-36091523D01*
X75653368Y-36090725D01*
X75812337Y-36048129D01*
X76030319Y-35957839D01*
X76030328Y-35957834D01*
X76234681Y-35839850D01*
X76316223Y-35777279D01*
X76316223Y-35777276D01*
X75479987Y-34941041D01*
X75540390Y-34916022D01*
X75646851Y-34844888D01*
X75737388Y-34754351D01*
X75808522Y-34647890D01*
X75833541Y-34587487D01*
X76669776Y-35423723D01*
X76669779Y-35423723D01*
X76732350Y-35342181D01*
X76850334Y-35137828D01*
X76850339Y-35137819D01*
X76940629Y-34919837D01*
X77001700Y-34691914D01*
X77032499Y-34457985D01*
X77032500Y-34457971D01*
X77032500Y-34222028D01*
X77032499Y-34222014D01*
X77001700Y-33988085D01*
X76940629Y-33760162D01*
X76850339Y-33542180D01*
X76850334Y-33542171D01*
X76732355Y-33337828D01*
X76732354Y-33337827D01*
X76669777Y-33256275D01*
X75833541Y-34092511D01*
X75808522Y-34032110D01*
X75737388Y-33925649D01*
X75646851Y-33835112D01*
X75540390Y-33763978D01*
X75479988Y-33738958D01*
X76316223Y-32902721D01*
X76234672Y-32840145D01*
X76234671Y-32840144D01*
X76030328Y-32722165D01*
X76030319Y-32722160D01*
X75812336Y-32631870D01*
X75812338Y-32631870D01*
X75584414Y-32570799D01*
X75350485Y-32540000D01*
X75114514Y-32540000D01*
X74880585Y-32570799D01*
X74652662Y-32631870D01*
X74434680Y-32722160D01*
X74434671Y-32722165D01*
X74230328Y-32840144D01*
X74230318Y-32840150D01*
X74148775Y-32902720D01*
X74148775Y-32902721D01*
X74985012Y-33738958D01*
X74924610Y-33763978D01*
X74818149Y-33835112D01*
X74727612Y-33925649D01*
X74656478Y-34032110D01*
X74631458Y-34092511D01*
X73795221Y-33256275D01*
X73795220Y-33256275D01*
X73732650Y-33337818D01*
X73732644Y-33337828D01*
X73614665Y-33542171D01*
X73614660Y-33542180D01*
X73524370Y-33760162D01*
X73463299Y-33988085D01*
X73432500Y-34222014D01*
X73432500Y-34457985D01*
X73463299Y-34691914D01*
X73524370Y-34919837D01*
X73614660Y-35137819D01*
X73614665Y-35137828D01*
X73732644Y-35342171D01*
X73732645Y-35342172D01*
X73795221Y-35423723D01*
X74631458Y-34587487D01*
X74656478Y-34647890D01*
X74727612Y-34754351D01*
X74818149Y-34844888D01*
X74924610Y-34916022D01*
X74985011Y-34941041D01*
X74148775Y-35777277D01*
X74230327Y-35839854D01*
X74230328Y-35839855D01*
X74434671Y-35957834D01*
X74434680Y-35957839D01*
X74652663Y-36048129D01*
X74652661Y-36048129D01*
X74880587Y-36109201D01*
X74880586Y-36109201D01*
X74897030Y-36111366D01*
X74960927Y-36139631D01*
X74999399Y-36197955D01*
X75000232Y-36267820D01*
X74963161Y-36327044D01*
X74906137Y-36355699D01*
X72655620Y-36824558D01*
X72655615Y-36824559D01*
X72655607Y-36824561D01*
X72630490Y-36831274D01*
X72601146Y-36839117D01*
X72601143Y-36839118D01*
X72574954Y-36847708D01*
X72522496Y-36868216D01*
X72522495Y-36868216D01*
X72401462Y-36946000D01*
X72401451Y-36946008D01*
X72348659Y-36991752D01*
X72254433Y-37100493D01*
X72254431Y-37100495D01*
X72202294Y-37214658D01*
X72156538Y-37267461D01*
X72089499Y-37287145D01*
X72022459Y-37267460D01*
X71976705Y-37214655D01*
X71965500Y-37163145D01*
X71965500Y-31969500D01*
X71985185Y-31902461D01*
X72037989Y-31856706D01*
X72089500Y-31845500D01*
X79535990Y-31845500D01*
X79536000Y-31845500D01*
X79643456Y-31833947D01*
X79694967Y-31822741D01*
X79729197Y-31811347D01*
X79797497Y-31788616D01*
X79797501Y-31788613D01*
X79797504Y-31788613D01*
X79918543Y-31710825D01*
X79971347Y-31665070D01*
X80065567Y-31556336D01*
X80125338Y-31425459D01*
X80145023Y-31358420D01*
X80145024Y-31358416D01*
X80165500Y-31216000D01*
X80165500Y-25969500D01*
X80153947Y-25862044D01*
X80142741Y-25810533D01*
X80142637Y-25810222D01*
X80108616Y-25708002D01*
X80108613Y-25707997D01*
X80108613Y-25707996D01*
X80079565Y-25662797D01*
X80059881Y-25595760D01*
X80071087Y-25544248D01*
X80125338Y-25425459D01*
X80145023Y-25358420D01*
X80145024Y-25358416D01*
X80165500Y-25216000D01*
X80165500Y-20464000D01*
X80153947Y-20356544D01*
X80142741Y-20305033D01*
X80142637Y-20304722D01*
X80108616Y-20202502D01*
X80108613Y-20202496D01*
X80030828Y-20081462D01*
X80030825Y-20081457D01*
X80030820Y-20081451D01*
X79985076Y-20028659D01*
X79985072Y-20028656D01*
X79985070Y-20028653D01*
X79876336Y-19934433D01*
X79876333Y-19934431D01*
X79876331Y-19934430D01*
X79745465Y-19874664D01*
X79745460Y-19874662D01*
X79745459Y-19874662D01*
X79678420Y-19854977D01*
X79678422Y-19854977D01*
X79678417Y-19854976D01*
X79616347Y-19846052D01*
X79536000Y-19834500D01*
X68784000Y-19834500D01*
X68783991Y-19834500D01*
X68783990Y-19834501D01*
X68676549Y-19846052D01*
X68676537Y-19846054D01*
X68625027Y-19857260D01*
X68522502Y-19891383D01*
X68522496Y-19891386D01*
X68401462Y-19969171D01*
X68401451Y-19969179D01*
X68348659Y-20014923D01*
X68254433Y-20123664D01*
X68254430Y-20123668D01*
X68194664Y-20254534D01*
X68174976Y-20321582D01*
X68169949Y-20356549D01*
X68154502Y-20463990D01*
X68154500Y-20464001D01*
X68154500Y-23710500D01*
X68134815Y-23777539D01*
X68082011Y-23823294D01*
X68030500Y-23834500D01*
X67745948Y-23834500D01*
X67678909Y-23814815D01*
X67633154Y-23762011D01*
X67623210Y-23692853D01*
X67652235Y-23629297D01*
X67671637Y-23611234D01*
X67757187Y-23547190D01*
X67757190Y-23547187D01*
X67843350Y-23432093D01*
X67843354Y-23432086D01*
X67893596Y-23297379D01*
X67893598Y-23297372D01*
X67899999Y-23237844D01*
X67900000Y-23237827D01*
X67900000Y-22590000D01*
X66983012Y-22590000D01*
X67015925Y-22532993D01*
X67050000Y-22405826D01*
X67050000Y-22274174D01*
X67015925Y-22147007D01*
X66983012Y-22090000D01*
X67900000Y-22090000D01*
X67900000Y-21442172D01*
X67899999Y-21442155D01*
X67893598Y-21382627D01*
X67893596Y-21382620D01*
X67843354Y-21247913D01*
X67843350Y-21247906D01*
X67757190Y-21132812D01*
X67757187Y-21132809D01*
X67642093Y-21046649D01*
X67642086Y-21046645D01*
X67507379Y-20996403D01*
X67507372Y-20996401D01*
X67447844Y-20990000D01*
X66800000Y-20990000D01*
X66800000Y-21906988D01*
X66742993Y-21874075D01*
X66615826Y-21840000D01*
X66484174Y-21840000D01*
X66357007Y-21874075D01*
X66300000Y-21906988D01*
X66300000Y-20990000D01*
X65652155Y-20990000D01*
X65592627Y-20996401D01*
X65592620Y-20996403D01*
X65457913Y-21046645D01*
X65457906Y-21046649D01*
X65342812Y-21132809D01*
X65342809Y-21132812D01*
X65256649Y-21247906D01*
X65256645Y-21247913D01*
X65206403Y-21382619D01*
X65206401Y-21382626D01*
X65197497Y-21465444D01*
X65194434Y-21465114D01*
X65195336Y-21482094D01*
X65162356Y-21541195D01*
X64492962Y-22210590D01*
X64475925Y-22147007D01*
X64410099Y-22032993D01*
X64317007Y-21939901D01*
X64202993Y-21874075D01*
X64139409Y-21857037D01*
X64771716Y-21224728D01*
X64717550Y-21185375D01*
X64528217Y-21088904D01*
X64326129Y-21023242D01*
X64116246Y-20990000D01*
X63903754Y-20990000D01*
X63693872Y-21023242D01*
X63693869Y-21023242D01*
X63491782Y-21088904D01*
X63302439Y-21185380D01*
X63248282Y-21224727D01*
X63248282Y-21224728D01*
X63880591Y-21857037D01*
X63817007Y-21874075D01*
X63702993Y-21939901D01*
X63609901Y-22032993D01*
X63544075Y-22147007D01*
X63527037Y-22210591D01*
X62894728Y-21578282D01*
X62894727Y-21578282D01*
X62855380Y-21632440D01*
X62855376Y-21632446D01*
X62850760Y-21641505D01*
X62802781Y-21692297D01*
X62734959Y-21709087D01*
X62668826Y-21686543D01*
X62629794Y-21641493D01*
X62625051Y-21632184D01*
X62625049Y-21632181D01*
X62625048Y-21632179D01*
X62500109Y-21460213D01*
X62349786Y-21309890D01*
X62177820Y-21184951D01*
X61988414Y-21088444D01*
X61988413Y-21088443D01*
X61988412Y-21088443D01*
X61786243Y-21022754D01*
X61786241Y-21022753D01*
X61786240Y-21022753D01*
X61624957Y-20997208D01*
X61576287Y-20989500D01*
X61363713Y-20989500D01*
X61324202Y-20995757D01*
X61153759Y-21022753D01*
X60967012Y-21083431D01*
X60928694Y-21089500D01*
X59471306Y-21089500D01*
X59432988Y-21083431D01*
X59246240Y-21022753D01*
X59084957Y-20997208D01*
X59036287Y-20989500D01*
X58823713Y-20989500D01*
X58775042Y-20997208D01*
X58613760Y-21022753D01*
X58411585Y-21088444D01*
X58222179Y-21184951D01*
X58050213Y-21309890D01*
X57899890Y-21460213D01*
X57774949Y-21632182D01*
X57770484Y-21640946D01*
X57722509Y-21691742D01*
X57654688Y-21708536D01*
X57588553Y-21685998D01*
X57549516Y-21640946D01*
X57545050Y-21632182D01*
X57420109Y-21460213D01*
X57269786Y-21309890D01*
X57097820Y-21184951D01*
X56908414Y-21088444D01*
X56908413Y-21088443D01*
X56908412Y-21088443D01*
X56706243Y-21022754D01*
X56706241Y-21022753D01*
X56706240Y-21022753D01*
X56544957Y-20997208D01*
X56496287Y-20989500D01*
X56283713Y-20989500D01*
X56244202Y-20995757D01*
X56073759Y-21022753D01*
X55887012Y-21083431D01*
X55848694Y-21089500D01*
X54391306Y-21089500D01*
X54352988Y-21083431D01*
X54166240Y-21022753D01*
X54004957Y-20997208D01*
X53956287Y-20989500D01*
X53743713Y-20989500D01*
X53695042Y-20997208D01*
X53533760Y-21022753D01*
X53331585Y-21088444D01*
X53142179Y-21184951D01*
X52970213Y-21309890D01*
X52819890Y-21460213D01*
X52694949Y-21632182D01*
X52690484Y-21640946D01*
X52642509Y-21691742D01*
X52574688Y-21708536D01*
X52508553Y-21685998D01*
X52469516Y-21640946D01*
X52465050Y-21632182D01*
X52340109Y-21460213D01*
X52189786Y-21309890D01*
X52017820Y-21184951D01*
X51828414Y-21088444D01*
X51828413Y-21088443D01*
X51828412Y-21088443D01*
X51626243Y-21022754D01*
X51626241Y-21022753D01*
X51626240Y-21022753D01*
X51464957Y-20997208D01*
X51416287Y-20989500D01*
X51203713Y-20989500D01*
X51164202Y-20995757D01*
X50993759Y-21022753D01*
X50807012Y-21083431D01*
X50768694Y-21089500D01*
X49311306Y-21089500D01*
X49272988Y-21083431D01*
X49086240Y-21022753D01*
X48924957Y-20997208D01*
X48876287Y-20989500D01*
X48663713Y-20989500D01*
X48624202Y-20995757D01*
X48453759Y-21022753D01*
X48267012Y-21083431D01*
X48228694Y-21089500D01*
X46611578Y-21089500D01*
X46417176Y-21120290D01*
X46417171Y-21120291D01*
X46379739Y-21132453D01*
X46379740Y-21132454D01*
X46229970Y-21181117D01*
X46054594Y-21270476D01*
X45966166Y-21334724D01*
X45895352Y-21386173D01*
X43956174Y-23325351D01*
X43956174Y-23325352D01*
X43956172Y-23325354D01*
X43906485Y-23393741D01*
X43840476Y-23484594D01*
X43751116Y-23659972D01*
X43748701Y-23667407D01*
X43741199Y-23690499D01*
X43740707Y-23692012D01*
X43740706Y-23692014D01*
X43690290Y-23847177D01*
X43659500Y-24041577D01*
X27340500Y-24041577D01*
X27340500Y-23625718D01*
X27360185Y-23558679D01*
X27408207Y-23515233D01*
X27447815Y-23495052D01*
X27447815Y-23495051D01*
X27447816Y-23495051D01*
X27570651Y-23405807D01*
X27619786Y-23370109D01*
X27619788Y-23370106D01*
X27619792Y-23370104D01*
X27770104Y-23219792D01*
X27770106Y-23219788D01*
X27770109Y-23219786D01*
X27895048Y-23047820D01*
X27895047Y-23047820D01*
X27895051Y-23047816D01*
X27899514Y-23039054D01*
X27947488Y-22988259D01*
X28015308Y-22971463D01*
X28081444Y-22993999D01*
X28120486Y-23039056D01*
X28124951Y-23047820D01*
X28249890Y-23219786D01*
X28400213Y-23370109D01*
X28572179Y-23495048D01*
X28572181Y-23495049D01*
X28572184Y-23495051D01*
X28761588Y-23591557D01*
X28963757Y-23657246D01*
X29173713Y-23690500D01*
X29173714Y-23690500D01*
X29386286Y-23690500D01*
X29386287Y-23690500D01*
X29596243Y-23657246D01*
X29798412Y-23591557D01*
X29987816Y-23495051D01*
X30074138Y-23432335D01*
X30159786Y-23370109D01*
X30159788Y-23370106D01*
X30159792Y-23370104D01*
X30310104Y-23219792D01*
X30310106Y-23219788D01*
X30310109Y-23219786D01*
X30435048Y-23047820D01*
X30435047Y-23047820D01*
X30435051Y-23047816D01*
X30439514Y-23039054D01*
X30487488Y-22988259D01*
X30555308Y-22971463D01*
X30621444Y-22993999D01*
X30660486Y-23039056D01*
X30664951Y-23047820D01*
X30789890Y-23219786D01*
X30940213Y-23370109D01*
X31112179Y-23495048D01*
X31112181Y-23495049D01*
X31112184Y-23495051D01*
X31301588Y-23591557D01*
X31503757Y-23657246D01*
X31713713Y-23690500D01*
X31713714Y-23690500D01*
X31926286Y-23690500D01*
X31926287Y-23690500D01*
X32136243Y-23657246D01*
X32338412Y-23591557D01*
X32527816Y-23495051D01*
X32614138Y-23432335D01*
X32699786Y-23370109D01*
X32699788Y-23370106D01*
X32699792Y-23370104D01*
X32850104Y-23219792D01*
X32850106Y-23219788D01*
X32850109Y-23219786D01*
X32975048Y-23047820D01*
X32975047Y-23047820D01*
X32975051Y-23047816D01*
X32979514Y-23039054D01*
X33027488Y-22988259D01*
X33095308Y-22971463D01*
X33161444Y-22993999D01*
X33200486Y-23039056D01*
X33204951Y-23047820D01*
X33329890Y-23219786D01*
X33480213Y-23370109D01*
X33652179Y-23495048D01*
X33652181Y-23495049D01*
X33652184Y-23495051D01*
X33841588Y-23591557D01*
X34043757Y-23657246D01*
X34253713Y-23690500D01*
X34253714Y-23690500D01*
X34466286Y-23690500D01*
X34466287Y-23690500D01*
X34676243Y-23657246D01*
X34878412Y-23591557D01*
X35067816Y-23495051D01*
X35154138Y-23432335D01*
X35239786Y-23370109D01*
X35239788Y-23370106D01*
X35239792Y-23370104D01*
X35390104Y-23219792D01*
X35390106Y-23219788D01*
X35390109Y-23219786D01*
X35515048Y-23047820D01*
X35515047Y-23047820D01*
X35515051Y-23047816D01*
X35519514Y-23039054D01*
X35567488Y-22988259D01*
X35635308Y-22971463D01*
X35701444Y-22993999D01*
X35740486Y-23039056D01*
X35744951Y-23047820D01*
X35869890Y-23219786D01*
X36020213Y-23370109D01*
X36192179Y-23495048D01*
X36192181Y-23495049D01*
X36192184Y-23495051D01*
X36381588Y-23591557D01*
X36583757Y-23657246D01*
X36793713Y-23690500D01*
X36793714Y-23690500D01*
X37006286Y-23690500D01*
X37006287Y-23690500D01*
X37216243Y-23657246D01*
X37418412Y-23591557D01*
X37607816Y-23495051D01*
X37694138Y-23432335D01*
X37779786Y-23370109D01*
X37779788Y-23370106D01*
X37779792Y-23370104D01*
X37930104Y-23219792D01*
X37930106Y-23219788D01*
X37930109Y-23219786D01*
X38055048Y-23047820D01*
X38055047Y-23047820D01*
X38055051Y-23047816D01*
X38151557Y-22858412D01*
X38217246Y-22656243D01*
X38250500Y-22446287D01*
X38250500Y-22233713D01*
X38217246Y-22023757D01*
X38151557Y-21821588D01*
X38055051Y-21632184D01*
X38055049Y-21632181D01*
X38055048Y-21632179D01*
X37930109Y-21460213D01*
X37779786Y-21309890D01*
X37607820Y-21184951D01*
X37418414Y-21088444D01*
X37418413Y-21088443D01*
X37418412Y-21088443D01*
X37216243Y-21022754D01*
X37216241Y-21022753D01*
X37216240Y-21022753D01*
X37054957Y-20997208D01*
X37006287Y-20989500D01*
X36793713Y-20989500D01*
X36745042Y-20997208D01*
X36583760Y-21022753D01*
X36381585Y-21088444D01*
X36192179Y-21184951D01*
X36020213Y-21309890D01*
X35869890Y-21460213D01*
X35744949Y-21632182D01*
X35740484Y-21640946D01*
X35692509Y-21691742D01*
X35624688Y-21708536D01*
X35558553Y-21685998D01*
X35519516Y-21640946D01*
X35515050Y-21632182D01*
X35390109Y-21460213D01*
X35239786Y-21309890D01*
X35067820Y-21184951D01*
X34878414Y-21088444D01*
X34878413Y-21088443D01*
X34878412Y-21088443D01*
X34676243Y-21022754D01*
X34676241Y-21022753D01*
X34676240Y-21022753D01*
X34514957Y-20997208D01*
X34466287Y-20989500D01*
X34253713Y-20989500D01*
X34205042Y-20997208D01*
X34043760Y-21022753D01*
X33841585Y-21088444D01*
X33652179Y-21184951D01*
X33480213Y-21309890D01*
X33329890Y-21460213D01*
X33204949Y-21632182D01*
X33200484Y-21640946D01*
X33152509Y-21691742D01*
X33084688Y-21708536D01*
X33018553Y-21685998D01*
X32979516Y-21640946D01*
X32975050Y-21632182D01*
X32850109Y-21460213D01*
X32699786Y-21309890D01*
X32527820Y-21184951D01*
X32338414Y-21088444D01*
X32338413Y-21088443D01*
X32338412Y-21088443D01*
X32136243Y-21022754D01*
X32136241Y-21022753D01*
X32136240Y-21022753D01*
X31974957Y-20997208D01*
X31926287Y-20989500D01*
X31713713Y-20989500D01*
X31665042Y-20997208D01*
X31503760Y-21022753D01*
X31301585Y-21088444D01*
X31112179Y-21184951D01*
X30940213Y-21309890D01*
X30789890Y-21460213D01*
X30664949Y-21632182D01*
X30660484Y-21640946D01*
X30612509Y-21691742D01*
X30544688Y-21708536D01*
X30478553Y-21685998D01*
X30439516Y-21640946D01*
X30435050Y-21632182D01*
X30310109Y-21460213D01*
X30159786Y-21309890D01*
X29987820Y-21184951D01*
X29798414Y-21088444D01*
X29798413Y-21088443D01*
X29798412Y-21088443D01*
X29596243Y-21022754D01*
X29596241Y-21022753D01*
X29596240Y-21022753D01*
X29434957Y-20997208D01*
X29386287Y-20989500D01*
X29173713Y-20989500D01*
X29125042Y-20997208D01*
X28963760Y-21022753D01*
X28761585Y-21088444D01*
X28572179Y-21184951D01*
X28400213Y-21309890D01*
X28249890Y-21460213D01*
X28124949Y-21632182D01*
X28120484Y-21640946D01*
X28072509Y-21691742D01*
X28004688Y-21708536D01*
X27938553Y-21685998D01*
X27899516Y-21640946D01*
X27895050Y-21632182D01*
X27770109Y-21460213D01*
X27619786Y-21309890D01*
X27447820Y-21184951D01*
X27258414Y-21088444D01*
X27258413Y-21088443D01*
X27258412Y-21088443D01*
X27056243Y-21022754D01*
X27056241Y-21022753D01*
X27056240Y-21022753D01*
X26894957Y-20997208D01*
X26846287Y-20989500D01*
X26633713Y-20989500D01*
X26585042Y-20997208D01*
X26423760Y-21022753D01*
X26221585Y-21088444D01*
X26032179Y-21184951D01*
X25860213Y-21309890D01*
X25709890Y-21460213D01*
X25584949Y-21632182D01*
X25580484Y-21640946D01*
X25532509Y-21691742D01*
X25464688Y-21708536D01*
X25398553Y-21685998D01*
X25359516Y-21640946D01*
X25355050Y-21632182D01*
X25230109Y-21460213D01*
X25079786Y-21309890D01*
X24907820Y-21184951D01*
X24718414Y-21088444D01*
X24718413Y-21088443D01*
X24718412Y-21088443D01*
X24516243Y-21022754D01*
X24516241Y-21022753D01*
X24516240Y-21022753D01*
X24354957Y-20997208D01*
X24306287Y-20989500D01*
X24093713Y-20989500D01*
X24045042Y-20997208D01*
X23883760Y-21022753D01*
X23681585Y-21088444D01*
X23492179Y-21184951D01*
X23320213Y-21309890D01*
X23169890Y-21460213D01*
X23044949Y-21632182D01*
X23040484Y-21640946D01*
X22992509Y-21691742D01*
X22924688Y-21708536D01*
X22858553Y-21685998D01*
X22819516Y-21640946D01*
X22815050Y-21632182D01*
X22690109Y-21460213D01*
X22539786Y-21309890D01*
X22367820Y-21184951D01*
X22178414Y-21088444D01*
X22178413Y-21088443D01*
X22178412Y-21088443D01*
X21976243Y-21022754D01*
X21976241Y-21022753D01*
X21976240Y-21022753D01*
X21814957Y-20997208D01*
X21766287Y-20989500D01*
X21553713Y-20989500D01*
X21505042Y-20997208D01*
X21343760Y-21022753D01*
X21141585Y-21088444D01*
X20952179Y-21184951D01*
X20780215Y-21309889D01*
X20666285Y-21423819D01*
X20604962Y-21457303D01*
X20535270Y-21452319D01*
X20479337Y-21410447D01*
X20462422Y-21379470D01*
X20413354Y-21247913D01*
X20413350Y-21247906D01*
X20327190Y-21132812D01*
X20327187Y-21132809D01*
X20212093Y-21046649D01*
X20212086Y-21046645D01*
X20077379Y-20996403D01*
X20077372Y-20996401D01*
X20017844Y-20990000D01*
X19370000Y-20990000D01*
X19370000Y-21906988D01*
X19312993Y-21874075D01*
X19185826Y-21840000D01*
X19054174Y-21840000D01*
X18927007Y-21874075D01*
X18870000Y-21906988D01*
X18870000Y-20990000D01*
X18222155Y-20990000D01*
X18162627Y-20996401D01*
X18162620Y-20996403D01*
X18027913Y-21046645D01*
X18027906Y-21046649D01*
X17912812Y-21132809D01*
X17912809Y-21132812D01*
X17826649Y-21247906D01*
X17826645Y-21247913D01*
X17800682Y-21317525D01*
X17758811Y-21373459D01*
X17693346Y-21397876D01*
X17625073Y-21383024D01*
X17575668Y-21333619D01*
X17560500Y-21274192D01*
X17560500Y-20640097D01*
X17580185Y-20573058D01*
X17596819Y-20552416D01*
X19372416Y-18776819D01*
X19433739Y-18743334D01*
X19460097Y-18740500D01*
X38159903Y-18740500D01*
X38226942Y-18760185D01*
X38247584Y-18776819D01*
X39923181Y-20452416D01*
X39956666Y-20513739D01*
X39959500Y-20540097D01*
X39959500Y-20865500D01*
X39939815Y-20932539D01*
X39887011Y-20978294D01*
X39835501Y-20989500D01*
X39662130Y-20989500D01*
X39662123Y-20989501D01*
X39602516Y-20995908D01*
X39467671Y-21046202D01*
X39467664Y-21046206D01*
X39352455Y-21132452D01*
X39352454Y-21132454D01*
X39266206Y-21247664D01*
X39266202Y-21247671D01*
X39215908Y-21382517D01*
X39211468Y-21423819D01*
X39209501Y-21442123D01*
X39209500Y-21442135D01*
X39209500Y-23237870D01*
X39209501Y-23237876D01*
X39215908Y-23297483D01*
X39266202Y-23432328D01*
X39266206Y-23432335D01*
X39352452Y-23547544D01*
X39352455Y-23547547D01*
X39467664Y-23633793D01*
X39467671Y-23633797D01*
X39602517Y-23684091D01*
X39602516Y-23684091D01*
X39609444Y-23684835D01*
X39662127Y-23690500D01*
X41457872Y-23690499D01*
X41517483Y-23684091D01*
X41652331Y-23633796D01*
X41767546Y-23547546D01*
X41853796Y-23432331D01*
X41904091Y-23297483D01*
X41910500Y-23237873D01*
X41910499Y-21442128D01*
X41904091Y-21382517D01*
X41886265Y-21334724D01*
X41853797Y-21247671D01*
X41853793Y-21247664D01*
X41767546Y-21132454D01*
X41767544Y-21132452D01*
X41652335Y-21046206D01*
X41652328Y-21046202D01*
X41517482Y-20995908D01*
X41517483Y-20995908D01*
X41457883Y-20989501D01*
X41457881Y-20989500D01*
X41457873Y-20989500D01*
X41457865Y-20989500D01*
X41284500Y-20989500D01*
X41217461Y-20969815D01*
X41171706Y-20917011D01*
X41160500Y-20865500D01*
X41160500Y-20160945D01*
X41160500Y-20160943D01*
X41119577Y-20008216D01*
X41076977Y-19934430D01*
X41040524Y-19871290D01*
X41040521Y-19871286D01*
X41040520Y-19871284D01*
X40928716Y-19759480D01*
X40928715Y-19759479D01*
X40924385Y-19755149D01*
X40924374Y-19755139D01*
X38947590Y-17778355D01*
X38947588Y-17778352D01*
X38828717Y-17659481D01*
X38828716Y-17659480D01*
X38741904Y-17609360D01*
X38741904Y-17609359D01*
X38741900Y-17609358D01*
X38691785Y-17580423D01*
X38539057Y-17539499D01*
X38380943Y-17539499D01*
X38373347Y-17539499D01*
X38373331Y-17539500D01*
X19246669Y-17539500D01*
X19246653Y-17539499D01*
X19239057Y-17539499D01*
X19080943Y-17539499D01*
X18973587Y-17568265D01*
X18928210Y-17580424D01*
X18928209Y-17580425D01*
X18878096Y-17609359D01*
X18878095Y-17609360D01*
X18834689Y-17634420D01*
X18791285Y-17659479D01*
X18791282Y-17659481D01*
X16872181Y-19578583D01*
X16810858Y-19612068D01*
X16741166Y-19607084D01*
X16685233Y-19565212D01*
X16660816Y-19499748D01*
X16660500Y-19490902D01*
X16660500Y-17164500D01*
X16680185Y-17097461D01*
X16732989Y-17051706D01*
X16784500Y-17040500D01*
X81635500Y-17040500D01*
X81702539Y-17060185D01*
G37*
%TD.AperFunction*%
%TA.AperFunction,Conductor*%
G36*
X39601703Y-42122041D02*
G01*
X39607066Y-42120955D01*
X39634870Y-42131780D01*
X39663492Y-42140185D01*
X39668427Y-42144846D01*
X39672174Y-42146305D01*
X39696769Y-42171613D01*
X39717589Y-42200269D01*
X39789892Y-42299788D01*
X39940213Y-42450109D01*
X40112182Y-42575050D01*
X40120946Y-42579516D01*
X40171742Y-42627491D01*
X40188536Y-42695312D01*
X40165998Y-42761447D01*
X40120946Y-42800484D01*
X40112182Y-42804949D01*
X39940213Y-42929890D01*
X39789892Y-43080211D01*
X39721573Y-43174247D01*
X39696770Y-43208385D01*
X39641442Y-43251051D01*
X39596453Y-43259500D01*
X31883547Y-43259500D01*
X31816508Y-43239815D01*
X31783230Y-43208385D01*
X31700411Y-43094394D01*
X31690107Y-43080211D01*
X31539786Y-42929890D01*
X31367820Y-42804951D01*
X31367115Y-42804591D01*
X31359054Y-42800485D01*
X31308259Y-42752512D01*
X31291463Y-42684692D01*
X31313999Y-42618556D01*
X31359054Y-42579515D01*
X31367816Y-42575051D01*
X31485535Y-42489524D01*
X31539786Y-42450109D01*
X31539788Y-42450106D01*
X31539792Y-42450104D01*
X31690104Y-42299792D01*
X31783229Y-42171614D01*
X31838558Y-42128949D01*
X31883547Y-42120500D01*
X39596453Y-42120500D01*
X39601703Y-42122041D01*
G37*
%TD.AperFunction*%
%TA.AperFunction,Conductor*%
G36*
X39663492Y-39600185D02*
G01*
X39696769Y-39631614D01*
X39731842Y-39679887D01*
X39789892Y-39759788D01*
X39940213Y-39910109D01*
X40112182Y-40035050D01*
X40120946Y-40039516D01*
X40171742Y-40087491D01*
X40188536Y-40155312D01*
X40165998Y-40221447D01*
X40120946Y-40260484D01*
X40112182Y-40264949D01*
X39940213Y-40389890D01*
X39789892Y-40540211D01*
X39722606Y-40632826D01*
X39696770Y-40668385D01*
X39641442Y-40711051D01*
X39596453Y-40719500D01*
X31883547Y-40719500D01*
X31816508Y-40699815D01*
X31783230Y-40668385D01*
X31741682Y-40611200D01*
X31690107Y-40540211D01*
X31539786Y-40389890D01*
X31367820Y-40264951D01*
X31367115Y-40264591D01*
X31359054Y-40260485D01*
X31308259Y-40212512D01*
X31291463Y-40144692D01*
X31313999Y-40078556D01*
X31359054Y-40039515D01*
X31367816Y-40035051D01*
X31419793Y-39997288D01*
X31539786Y-39910109D01*
X31539788Y-39910106D01*
X31539792Y-39910104D01*
X31690104Y-39759792D01*
X31783229Y-39631614D01*
X31838558Y-39588949D01*
X31883547Y-39580500D01*
X39596453Y-39580500D01*
X39663492Y-39600185D01*
G37*
%TD.AperFunction*%
%TA.AperFunction,Conductor*%
G36*
X19370000Y-23690000D02*
G01*
X20017828Y-23690000D01*
X20017844Y-23689999D01*
X20077372Y-23683598D01*
X20077379Y-23683596D01*
X20212086Y-23633354D01*
X20212093Y-23633350D01*
X20327187Y-23547190D01*
X20327190Y-23547187D01*
X20413350Y-23432093D01*
X20413354Y-23432086D01*
X20462422Y-23300529D01*
X20504293Y-23244595D01*
X20569757Y-23220178D01*
X20638030Y-23235030D01*
X20666285Y-23256181D01*
X20780213Y-23370109D01*
X20952184Y-23495051D01*
X20952184Y-23495052D01*
X20991793Y-23515233D01*
X21042590Y-23563206D01*
X21059500Y-23625718D01*
X21059500Y-28253330D01*
X21059499Y-28253348D01*
X21059499Y-28419054D01*
X21059498Y-28419054D01*
X21059499Y-28419057D01*
X21100423Y-28571785D01*
X21126219Y-28616465D01*
X21179477Y-28708712D01*
X21179481Y-28708717D01*
X21298349Y-28827585D01*
X21298355Y-28827590D01*
X26635139Y-34164374D01*
X26635149Y-34164385D01*
X26639479Y-34168715D01*
X26639480Y-34168716D01*
X26751284Y-34280520D01*
X26816917Y-34318412D01*
X26838095Y-34330639D01*
X26838097Y-34330641D01*
X26876151Y-34352611D01*
X26888215Y-34359577D01*
X27040943Y-34400500D01*
X29374281Y-34400500D01*
X29441320Y-34420185D01*
X29484765Y-34468205D01*
X29504947Y-34507814D01*
X29504948Y-34507815D01*
X29629890Y-34679786D01*
X29780213Y-34830109D01*
X29952182Y-34955050D01*
X29960946Y-34959516D01*
X30011742Y-35007491D01*
X30028536Y-35075312D01*
X30005998Y-35141447D01*
X29960946Y-35180484D01*
X29952182Y-35184949D01*
X29780213Y-35309890D01*
X29629890Y-35460213D01*
X29504948Y-35632184D01*
X29504947Y-35632185D01*
X29484765Y-35671795D01*
X29436791Y-35722591D01*
X29374281Y-35739500D01*
X24739766Y-35739500D01*
X24672727Y-35719815D01*
X24670875Y-35718602D01*
X24539185Y-35630609D01*
X24539172Y-35630602D01*
X24393501Y-35570264D01*
X24393489Y-35570261D01*
X24238845Y-35539500D01*
X24238842Y-35539500D01*
X24081158Y-35539500D01*
X24081155Y-35539500D01*
X23926510Y-35570261D01*
X23926498Y-35570264D01*
X23780827Y-35630602D01*
X23780814Y-35630609D01*
X23649711Y-35718210D01*
X23649707Y-35718213D01*
X23538213Y-35829707D01*
X23538210Y-35829711D01*
X23450609Y-35960814D01*
X23450602Y-35960827D01*
X23390264Y-36106498D01*
X23390261Y-36106510D01*
X23359500Y-36261153D01*
X23359500Y-36418846D01*
X23390261Y-36573489D01*
X23390264Y-36573501D01*
X23450602Y-36719172D01*
X23450609Y-36719185D01*
X23538210Y-36850288D01*
X23538213Y-36850292D01*
X23649707Y-36961786D01*
X23649711Y-36961789D01*
X23780814Y-37049390D01*
X23780827Y-37049397D01*
X23926498Y-37109735D01*
X23926503Y-37109737D01*
X24081153Y-37140499D01*
X24081156Y-37140500D01*
X24081158Y-37140500D01*
X24238844Y-37140500D01*
X24238845Y-37140499D01*
X24393497Y-37109737D01*
X24539179Y-37049394D01*
X24625436Y-36991759D01*
X24670875Y-36961398D01*
X24737553Y-36940520D01*
X24739766Y-36940500D01*
X29374281Y-36940500D01*
X29441320Y-36960185D01*
X29484765Y-37008205D01*
X29504947Y-37047814D01*
X29504948Y-37047815D01*
X29629890Y-37219786D01*
X29780213Y-37370109D01*
X29952182Y-37495050D01*
X29960946Y-37499516D01*
X30011742Y-37547491D01*
X30028536Y-37615312D01*
X30005998Y-37681447D01*
X29960946Y-37720484D01*
X29952182Y-37724949D01*
X29780213Y-37849890D01*
X29629890Y-38000213D01*
X29504948Y-38172184D01*
X29504947Y-38172185D01*
X29484765Y-38211795D01*
X29436791Y-38262591D01*
X29374281Y-38279500D01*
X27565913Y-38279500D01*
X27498874Y-38259815D01*
X27453119Y-38207011D01*
X27444296Y-38179692D01*
X27429738Y-38106508D01*
X27429737Y-38106507D01*
X27429737Y-38106503D01*
X27429735Y-38106498D01*
X27369397Y-37960827D01*
X27369390Y-37960814D01*
X27281789Y-37829711D01*
X27281786Y-37829707D01*
X27170292Y-37718213D01*
X27170288Y-37718210D01*
X27039185Y-37630609D01*
X27039172Y-37630602D01*
X26893501Y-37570264D01*
X26893489Y-37570261D01*
X26738845Y-37539500D01*
X26738842Y-37539500D01*
X26581158Y-37539500D01*
X26581155Y-37539500D01*
X26426510Y-37570261D01*
X26426498Y-37570264D01*
X26280827Y-37630602D01*
X26280814Y-37630609D01*
X26149711Y-37718210D01*
X26149707Y-37718213D01*
X26038213Y-37829707D01*
X26038210Y-37829711D01*
X25950609Y-37960814D01*
X25950602Y-37960827D01*
X25890264Y-38106498D01*
X25890261Y-38106510D01*
X25859500Y-38261153D01*
X25859500Y-38290903D01*
X25853261Y-38312148D01*
X25851682Y-38334237D01*
X25843609Y-38345020D01*
X25839815Y-38357942D01*
X25823081Y-38372441D01*
X25809810Y-38390170D01*
X25797189Y-38394877D01*
X25787011Y-38403697D01*
X25765093Y-38406848D01*
X25744346Y-38414587D01*
X25731185Y-38411724D01*
X25717853Y-38413641D01*
X25697709Y-38404441D01*
X25676073Y-38399735D01*
X25658347Y-38386466D01*
X25654297Y-38384616D01*
X25647819Y-38378584D01*
X25647590Y-38378355D01*
X25647588Y-38378352D01*
X25528717Y-38259481D01*
X25528712Y-38259477D01*
X25436813Y-38206420D01*
X25391785Y-38180423D01*
X25239057Y-38139499D01*
X25080943Y-38139499D01*
X25073347Y-38139499D01*
X25073331Y-38139500D01*
X24585316Y-38139500D01*
X24537864Y-38130061D01*
X24393501Y-38070264D01*
X24393489Y-38070261D01*
X24238845Y-38039500D01*
X24238842Y-38039500D01*
X24081158Y-38039500D01*
X24081155Y-38039500D01*
X23926510Y-38070261D01*
X23926498Y-38070264D01*
X23780827Y-38130602D01*
X23780814Y-38130609D01*
X23649711Y-38218210D01*
X23649707Y-38218213D01*
X23538213Y-38329707D01*
X23538210Y-38329711D01*
X23450609Y-38460814D01*
X23450602Y-38460827D01*
X23390264Y-38606498D01*
X23390261Y-38606510D01*
X23359500Y-38761153D01*
X23359500Y-38918846D01*
X23390261Y-39073489D01*
X23390264Y-39073501D01*
X23450602Y-39219172D01*
X23450609Y-39219185D01*
X23538210Y-39350288D01*
X23538213Y-39350292D01*
X23649707Y-39461786D01*
X23649711Y-39461789D01*
X23780814Y-39549390D01*
X23780827Y-39549397D01*
X23899618Y-39598601D01*
X23926503Y-39609737D01*
X24081153Y-39640499D01*
X24081156Y-39640500D01*
X24081158Y-39640500D01*
X24238844Y-39640500D01*
X24238845Y-39640499D01*
X24393497Y-39609737D01*
X24539179Y-39549394D01*
X24670289Y-39461789D01*
X24755260Y-39376817D01*
X24782191Y-39362111D01*
X24808005Y-39345523D01*
X24814204Y-39344631D01*
X24816581Y-39343334D01*
X24842940Y-39340500D01*
X24859903Y-39340500D01*
X24926942Y-39360185D01*
X24947584Y-39376819D01*
X25198584Y-39627819D01*
X25232069Y-39689142D01*
X25227085Y-39758834D01*
X25185213Y-39814767D01*
X25119749Y-39839184D01*
X25110905Y-39839500D01*
X25059999Y-39839500D01*
X25059980Y-39839501D01*
X24957203Y-39850000D01*
X24957200Y-39850001D01*
X24790668Y-39905185D01*
X24790663Y-39905187D01*
X24641342Y-39997289D01*
X24517289Y-40121342D01*
X24425187Y-40270663D01*
X24425185Y-40270668D01*
X24397405Y-40354504D01*
X24357632Y-40411949D01*
X24293116Y-40438772D01*
X24279699Y-40439500D01*
X23360098Y-40439500D01*
X23293059Y-40419815D01*
X23272417Y-40403181D01*
X17596819Y-34727583D01*
X17563334Y-34666260D01*
X17560500Y-34639902D01*
X17560500Y-23405807D01*
X17580185Y-23338768D01*
X17632989Y-23293013D01*
X17702147Y-23283069D01*
X17765703Y-23312094D01*
X17800682Y-23362474D01*
X17826645Y-23432086D01*
X17826649Y-23432093D01*
X17912809Y-23547187D01*
X17912812Y-23547190D01*
X18027906Y-23633350D01*
X18027913Y-23633354D01*
X18162620Y-23683596D01*
X18162627Y-23683598D01*
X18222155Y-23689999D01*
X18222172Y-23690000D01*
X18870000Y-23690000D01*
X18870000Y-22773012D01*
X18927007Y-22805925D01*
X19054174Y-22840000D01*
X19185826Y-22840000D01*
X19312993Y-22805925D01*
X19370000Y-22773012D01*
X19370000Y-23690000D01*
G37*
%TD.AperFunction*%
%TA.AperFunction,Conductor*%
G36*
X39663492Y-37060185D02*
G01*
X39696769Y-37091614D01*
X39709937Y-37109737D01*
X39789892Y-37219788D01*
X39940213Y-37370109D01*
X40112182Y-37495050D01*
X40120946Y-37499516D01*
X40171742Y-37547491D01*
X40188536Y-37615312D01*
X40165998Y-37681447D01*
X40120946Y-37720484D01*
X40112182Y-37724949D01*
X39940213Y-37849890D01*
X39789892Y-38000211D01*
X39721573Y-38094247D01*
X39696770Y-38128385D01*
X39641442Y-38171051D01*
X39596453Y-38179500D01*
X31883547Y-38179500D01*
X31816508Y-38159815D01*
X31783230Y-38128385D01*
X31690108Y-38000213D01*
X31690107Y-38000211D01*
X31539786Y-37849890D01*
X31367820Y-37724951D01*
X31367115Y-37724591D01*
X31359054Y-37720485D01*
X31308259Y-37672512D01*
X31291463Y-37604692D01*
X31313999Y-37538556D01*
X31359054Y-37499515D01*
X31367816Y-37495051D01*
X31442447Y-37440829D01*
X31539786Y-37370109D01*
X31539788Y-37370106D01*
X31539792Y-37370104D01*
X31690104Y-37219792D01*
X31783229Y-37091614D01*
X31838558Y-37048949D01*
X31883547Y-37040500D01*
X39596453Y-37040500D01*
X39663492Y-37060185D01*
G37*
%TD.AperFunction*%
%TA.AperFunction,Conductor*%
G36*
X39601703Y-34502041D02*
G01*
X39607066Y-34500955D01*
X39634870Y-34511780D01*
X39663492Y-34520185D01*
X39668427Y-34524846D01*
X39672174Y-34526305D01*
X39696769Y-34551613D01*
X39726316Y-34592281D01*
X39789892Y-34679788D01*
X39940213Y-34830109D01*
X40112182Y-34955050D01*
X40120946Y-34959516D01*
X40171742Y-35007491D01*
X40188536Y-35075312D01*
X40165998Y-35141447D01*
X40120946Y-35180484D01*
X40112182Y-35184949D01*
X39940213Y-35309890D01*
X39789892Y-35460211D01*
X39732287Y-35539500D01*
X39696770Y-35588385D01*
X39641442Y-35631051D01*
X39596453Y-35639500D01*
X31883547Y-35639500D01*
X31816508Y-35619815D01*
X31783230Y-35588385D01*
X31741682Y-35531200D01*
X31690107Y-35460211D01*
X31539786Y-35309890D01*
X31367820Y-35184951D01*
X31367115Y-35184591D01*
X31359054Y-35180485D01*
X31308259Y-35132512D01*
X31291463Y-35064692D01*
X31313999Y-34998556D01*
X31359054Y-34959515D01*
X31367816Y-34955051D01*
X31462526Y-34886241D01*
X31539786Y-34830109D01*
X31539788Y-34830106D01*
X31539792Y-34830104D01*
X31690104Y-34679792D01*
X31783229Y-34551614D01*
X31838558Y-34508949D01*
X31883547Y-34500500D01*
X39596453Y-34500500D01*
X39601703Y-34502041D01*
G37*
%TD.AperFunction*%
%TA.AperFunction,Conductor*%
G36*
X23001444Y-22993999D02*
G01*
X23040486Y-23039056D01*
X23044951Y-23047820D01*
X23169890Y-23219786D01*
X23320213Y-23370109D01*
X23492184Y-23495051D01*
X23492184Y-23495052D01*
X23531793Y-23515233D01*
X23582590Y-23563206D01*
X23599500Y-23625718D01*
X23599500Y-28060234D01*
X23579815Y-28127273D01*
X23578602Y-28129125D01*
X23490609Y-28260814D01*
X23490602Y-28260827D01*
X23430264Y-28406498D01*
X23430261Y-28406510D01*
X23399500Y-28561153D01*
X23399500Y-28718846D01*
X23430261Y-28873489D01*
X23430264Y-28873501D01*
X23465727Y-28959117D01*
X23473196Y-29028586D01*
X23441920Y-29091065D01*
X23381831Y-29126717D01*
X23312006Y-29124223D01*
X23263485Y-29094250D01*
X22296819Y-28127584D01*
X22263334Y-28066261D01*
X22260500Y-28039903D01*
X22260500Y-23625718D01*
X22280185Y-23558679D01*
X22328207Y-23515233D01*
X22367815Y-23495052D01*
X22367815Y-23495051D01*
X22367816Y-23495051D01*
X22490651Y-23405807D01*
X22539786Y-23370109D01*
X22539788Y-23370106D01*
X22539792Y-23370104D01*
X22690104Y-23219792D01*
X22690106Y-23219788D01*
X22690109Y-23219786D01*
X22815048Y-23047820D01*
X22815047Y-23047820D01*
X22815051Y-23047816D01*
X22819514Y-23039054D01*
X22867488Y-22988259D01*
X22935308Y-22971463D01*
X23001444Y-22993999D01*
G37*
%TD.AperFunction*%
%TD*%
%TA.AperFunction,Conductor*%
%TO.N,+12V*%
G36*
X79603039Y-36859685D02*
G01*
X79648794Y-36912489D01*
X79660000Y-36964000D01*
X79660000Y-48216000D01*
X79640315Y-48283039D01*
X79587511Y-48328794D01*
X79536000Y-48340000D01*
X77140992Y-48340000D01*
X77073953Y-48320315D01*
X77028198Y-48267511D01*
X77018254Y-48198353D01*
X77047279Y-48134797D01*
X77075020Y-48111006D01*
X77250999Y-48000431D01*
X77371098Y-47904653D01*
X77371099Y-47904652D01*
X76621717Y-47155271D01*
X76739466Y-47069722D01*
X76889722Y-46919466D01*
X76975270Y-46801717D01*
X77724652Y-47551099D01*
X77724653Y-47551098D01*
X77820431Y-47430999D01*
X77963847Y-47202752D01*
X78080801Y-46959895D01*
X78080807Y-46959881D01*
X78169832Y-46705463D01*
X78169836Y-46705451D01*
X78229818Y-46442651D01*
X78229821Y-46442633D01*
X78259999Y-46174787D01*
X78260000Y-46174783D01*
X78260000Y-45905216D01*
X78259999Y-45905212D01*
X78229821Y-45637366D01*
X78229818Y-45637348D01*
X78169836Y-45374548D01*
X78169832Y-45374536D01*
X78080807Y-45120118D01*
X78080801Y-45120104D01*
X77963847Y-44877247D01*
X77820429Y-44648997D01*
X77820427Y-44648993D01*
X77724653Y-44528900D01*
X77724652Y-44528899D01*
X76975270Y-45278281D01*
X76889722Y-45160534D01*
X76739466Y-45010278D01*
X76621717Y-44924728D01*
X77371099Y-44175346D01*
X77250998Y-44079568D01*
X77022752Y-43936152D01*
X76779895Y-43819198D01*
X76779881Y-43819192D01*
X76525463Y-43730167D01*
X76525451Y-43730163D01*
X76262651Y-43670181D01*
X76262633Y-43670178D01*
X75994787Y-43640000D01*
X75725212Y-43640000D01*
X75457366Y-43670178D01*
X75457348Y-43670181D01*
X75194548Y-43730163D01*
X75194536Y-43730167D01*
X74940118Y-43819192D01*
X74940104Y-43819198D01*
X74697247Y-43936152D01*
X74469001Y-44079568D01*
X74348899Y-44175345D01*
X75098282Y-44924728D01*
X74980534Y-45010278D01*
X74830278Y-45160534D01*
X74744728Y-45278282D01*
X73995345Y-44528899D01*
X73899568Y-44649001D01*
X73756152Y-44877247D01*
X73639198Y-45120104D01*
X73639192Y-45120118D01*
X73550167Y-45374536D01*
X73550163Y-45374548D01*
X73490181Y-45637348D01*
X73490178Y-45637366D01*
X73460000Y-45905212D01*
X73460000Y-46174787D01*
X73490178Y-46442633D01*
X73490181Y-46442651D01*
X73550163Y-46705451D01*
X73550167Y-46705463D01*
X73639192Y-46959881D01*
X73639198Y-46959895D01*
X73756152Y-47202752D01*
X73899568Y-47430998D01*
X73995346Y-47551099D01*
X74744728Y-46801716D01*
X74830278Y-46919466D01*
X74980534Y-47069722D01*
X75098281Y-47155270D01*
X74348899Y-47904652D01*
X74348900Y-47904653D01*
X74468993Y-48000427D01*
X74468997Y-48000429D01*
X74644980Y-48111006D01*
X74691271Y-48163340D01*
X74701920Y-48232394D01*
X74673545Y-48296242D01*
X74615155Y-48334615D01*
X74579008Y-48340000D01*
X67660000Y-48340000D01*
X67660000Y-51216000D01*
X67640315Y-51283039D01*
X67587511Y-51328794D01*
X67536000Y-51340000D01*
X66697812Y-51340000D01*
X66630773Y-51320315D01*
X66585018Y-51267511D01*
X66575074Y-51198353D01*
X66604099Y-51134797D01*
X66632715Y-51110462D01*
X66678340Y-51082319D01*
X66678344Y-51082316D01*
X66802315Y-50958345D01*
X66894356Y-50809124D01*
X66894358Y-50809119D01*
X66949505Y-50642697D01*
X66949506Y-50642690D01*
X66959999Y-50539986D01*
X66960000Y-50539973D01*
X66960000Y-50190000D01*
X65975686Y-50190000D01*
X65980080Y-50185606D01*
X66032741Y-50094394D01*
X66060000Y-49992661D01*
X66060000Y-49887339D01*
X66032741Y-49785606D01*
X65980080Y-49694394D01*
X65975686Y-49690000D01*
X66959999Y-49690000D01*
X66959999Y-49340028D01*
X66959998Y-49340013D01*
X66949505Y-49237302D01*
X66894358Y-49070880D01*
X66894356Y-49070875D01*
X66802315Y-48921654D01*
X66678345Y-48797684D01*
X66529124Y-48705643D01*
X66529119Y-48705641D01*
X66362697Y-48650494D01*
X66362690Y-48650493D01*
X66259986Y-48640000D01*
X65910000Y-48640000D01*
X65910000Y-49624314D01*
X65905606Y-49619920D01*
X65814394Y-49567259D01*
X65712661Y-49540000D01*
X65607339Y-49540000D01*
X65505606Y-49567259D01*
X65414394Y-49619920D01*
X65410000Y-49624314D01*
X65410000Y-48640000D01*
X65060028Y-48640000D01*
X65060012Y-48640001D01*
X64957302Y-48650494D01*
X64790880Y-48705641D01*
X64790875Y-48705643D01*
X64641654Y-48797684D01*
X64517684Y-48921654D01*
X64425643Y-49070875D01*
X64425641Y-49070880D01*
X64370494Y-49237302D01*
X64370493Y-49237309D01*
X64360000Y-49340013D01*
X64360000Y-49690000D01*
X65344314Y-49690000D01*
X65339920Y-49694394D01*
X65287259Y-49785606D01*
X65260000Y-49887339D01*
X65260000Y-49992661D01*
X65287259Y-50094394D01*
X65339920Y-50185606D01*
X65344314Y-50190000D01*
X64360001Y-50190000D01*
X64360001Y-50539986D01*
X64370494Y-50642697D01*
X64425641Y-50809119D01*
X64425643Y-50809124D01*
X64517684Y-50958345D01*
X64641655Y-51082316D01*
X64641659Y-51082319D01*
X64687285Y-51110462D01*
X64734010Y-51162410D01*
X64745231Y-51231372D01*
X64717388Y-51295454D01*
X64659319Y-51334310D01*
X64622188Y-51340000D01*
X49784000Y-51340000D01*
X49716961Y-51320315D01*
X49671206Y-51267511D01*
X49660000Y-51216000D01*
X49660000Y-50475023D01*
X49679685Y-50407984D01*
X49732489Y-50362229D01*
X49801647Y-50352285D01*
X49865203Y-50381310D01*
X49871681Y-50387342D01*
X49891654Y-50407315D01*
X50040875Y-50499356D01*
X50040880Y-50499358D01*
X50207302Y-50554505D01*
X50207309Y-50554506D01*
X50310019Y-50564999D01*
X50447499Y-50564999D01*
X50947500Y-50564999D01*
X51084972Y-50564999D01*
X51084986Y-50564998D01*
X51187697Y-50554505D01*
X51354119Y-50499358D01*
X51354124Y-50499356D01*
X51503345Y-50407315D01*
X51627315Y-50283345D01*
X51719356Y-50134124D01*
X51719359Y-50134117D01*
X51740934Y-50069008D01*
X51740934Y-50069007D01*
X51774505Y-49967697D01*
X51774506Y-49967690D01*
X51784999Y-49864986D01*
X51785000Y-49864973D01*
X51785000Y-49590000D01*
X50947500Y-49590000D01*
X50947500Y-50564999D01*
X50447499Y-50564999D01*
X50447500Y-50564998D01*
X50447500Y-49090000D01*
X50947500Y-49090000D01*
X51784999Y-49090000D01*
X51784999Y-48815028D01*
X51784998Y-48815013D01*
X51774505Y-48712302D01*
X51719358Y-48545880D01*
X51719353Y-48545869D01*
X51632523Y-48405097D01*
X51614082Y-48337705D01*
X51632523Y-48274903D01*
X51719353Y-48134130D01*
X51719358Y-48134119D01*
X51774505Y-47967697D01*
X51774506Y-47967690D01*
X51784999Y-47864986D01*
X51785000Y-47864973D01*
X51785000Y-47590000D01*
X50947500Y-47590000D01*
X50947500Y-49090000D01*
X50447500Y-49090000D01*
X50447500Y-47090000D01*
X50947500Y-47090000D01*
X51784999Y-47090000D01*
X51784999Y-46815028D01*
X51784998Y-46815013D01*
X51774505Y-46712302D01*
X51719358Y-46545880D01*
X51719356Y-46545875D01*
X51627315Y-46396654D01*
X51503345Y-46272684D01*
X51354124Y-46180643D01*
X51354119Y-46180641D01*
X51187697Y-46125494D01*
X51187690Y-46125493D01*
X51084986Y-46115000D01*
X50947500Y-46115000D01*
X50947500Y-47090000D01*
X50447500Y-47090000D01*
X50447500Y-46115000D01*
X50310027Y-46115000D01*
X50310012Y-46115001D01*
X50207302Y-46125494D01*
X50040880Y-46180641D01*
X50040875Y-46180643D01*
X49891654Y-46272684D01*
X49871681Y-46292658D01*
X49810358Y-46326143D01*
X49740666Y-46321159D01*
X49684733Y-46279287D01*
X49660316Y-46213823D01*
X49660000Y-46204977D01*
X49660000Y-45769500D01*
X49679685Y-45702461D01*
X49732489Y-45656706D01*
X49784000Y-45645500D01*
X52217900Y-45645500D01*
X52284939Y-45665185D01*
X52330694Y-45717989D01*
X52340638Y-45787147D01*
X52328385Y-45825795D01*
X52248904Y-45981782D01*
X52183242Y-46183869D01*
X52183242Y-46183872D01*
X52150000Y-46393753D01*
X52150000Y-46606246D01*
X52183242Y-46816127D01*
X52183242Y-46816130D01*
X52248904Y-47018217D01*
X52345375Y-47207550D01*
X52384728Y-47261716D01*
X53017036Y-46629407D01*
X53034075Y-46692993D01*
X53099901Y-46807007D01*
X53192993Y-46900099D01*
X53307007Y-46965925D01*
X53370591Y-46982962D01*
X52769971Y-47583581D01*
X52848711Y-47700895D01*
X52849920Y-47704729D01*
X52852844Y-47707491D01*
X52860343Y-47737778D01*
X52869727Y-47767529D01*
X52868671Y-47771408D01*
X52869638Y-47775312D01*
X52859573Y-47804844D01*
X52851383Y-47834947D01*
X52848397Y-47837640D01*
X52847100Y-47841447D01*
X52802051Y-47880483D01*
X52792440Y-47885380D01*
X52738282Y-47924727D01*
X52738282Y-47924728D01*
X53370591Y-48557037D01*
X53307007Y-48574075D01*
X53192993Y-48639901D01*
X53099901Y-48732993D01*
X53034075Y-48847007D01*
X53017037Y-48910591D01*
X52384728Y-48278282D01*
X52384727Y-48278282D01*
X52345380Y-48332439D01*
X52248904Y-48521782D01*
X52183242Y-48723869D01*
X52183242Y-48723872D01*
X52150000Y-48933753D01*
X52150000Y-49146246D01*
X52183242Y-49356127D01*
X52183242Y-49356130D01*
X52248904Y-49558217D01*
X52345375Y-49747550D01*
X52384728Y-49801716D01*
X53017037Y-49169408D01*
X53034075Y-49232993D01*
X53099901Y-49347007D01*
X53192993Y-49440099D01*
X53307007Y-49505925D01*
X53370590Y-49522962D01*
X52738282Y-50155269D01*
X52738282Y-50155270D01*
X52792449Y-50194624D01*
X52981782Y-50291095D01*
X53183870Y-50356757D01*
X53393754Y-50390000D01*
X53606246Y-50390000D01*
X53816127Y-50356757D01*
X53816130Y-50356757D01*
X54018217Y-50291095D01*
X54207554Y-50194622D01*
X54261716Y-50155270D01*
X54261717Y-50155270D01*
X53629408Y-49522962D01*
X53692993Y-49505925D01*
X53807007Y-49440099D01*
X53900099Y-49347007D01*
X53965925Y-49232993D01*
X53982962Y-49169408D01*
X54615270Y-49801717D01*
X54615270Y-49801716D01*
X54654622Y-49747554D01*
X54751095Y-49558217D01*
X54816757Y-49356130D01*
X54816757Y-49356127D01*
X54836174Y-49233538D01*
X54850000Y-49146245D01*
X54850000Y-48933753D01*
X54816757Y-48723872D01*
X54816757Y-48723869D01*
X54751095Y-48521782D01*
X54654624Y-48332449D01*
X54615270Y-48278282D01*
X54615269Y-48278282D01*
X53982962Y-48910590D01*
X53965925Y-48847007D01*
X53900099Y-48732993D01*
X53807007Y-48639901D01*
X53692993Y-48574075D01*
X53629409Y-48557037D01*
X54261716Y-47924728D01*
X54207550Y-47885375D01*
X54197954Y-47880486D01*
X54147157Y-47832512D01*
X54130361Y-47764692D01*
X54152897Y-47698556D01*
X54197954Y-47659514D01*
X54207554Y-47654622D01*
X54261716Y-47615270D01*
X54261717Y-47615270D01*
X53629408Y-46982962D01*
X53692993Y-46965925D01*
X53807007Y-46900099D01*
X53900099Y-46807007D01*
X53965925Y-46692993D01*
X53982962Y-46629409D01*
X54615270Y-47261717D01*
X54615270Y-47261716D01*
X54654622Y-47207554D01*
X54751095Y-47018217D01*
X54816757Y-46816130D01*
X54816757Y-46816127D01*
X54836174Y-46693538D01*
X54850000Y-46606245D01*
X54850000Y-46393753D01*
X54816757Y-46183872D01*
X54816757Y-46183869D01*
X54751095Y-45981782D01*
X54671615Y-45825795D01*
X54658719Y-45757126D01*
X54684995Y-45692386D01*
X54742101Y-45652128D01*
X54782100Y-45645500D01*
X57297900Y-45645500D01*
X57364939Y-45665185D01*
X57410694Y-45717989D01*
X57420638Y-45787147D01*
X57408385Y-45825795D01*
X57328904Y-45981782D01*
X57263242Y-46183870D01*
X57263242Y-46183873D01*
X57252769Y-46250000D01*
X58146988Y-46250000D01*
X58114075Y-46307007D01*
X58080000Y-46434174D01*
X58080000Y-46565826D01*
X58114075Y-46692993D01*
X58146988Y-46750000D01*
X57252769Y-46750000D01*
X57263242Y-46816126D01*
X57263242Y-46816129D01*
X57328904Y-47018217D01*
X57425379Y-47207557D01*
X57550272Y-47379459D01*
X57550276Y-47379464D01*
X57700535Y-47529723D01*
X57700540Y-47529727D01*
X57872444Y-47654622D01*
X57882048Y-47659516D01*
X57932844Y-47707491D01*
X57949638Y-47775312D01*
X57927100Y-47841447D01*
X57882048Y-47880484D01*
X57872444Y-47885377D01*
X57700540Y-48010272D01*
X57700535Y-48010276D01*
X57550276Y-48160535D01*
X57550272Y-48160540D01*
X57425379Y-48332442D01*
X57328904Y-48521782D01*
X57263242Y-48723870D01*
X57263242Y-48723873D01*
X57252769Y-48790000D01*
X58146988Y-48790000D01*
X58114075Y-48847007D01*
X58080000Y-48974174D01*
X58080000Y-49105826D01*
X58114075Y-49232993D01*
X58146988Y-49290000D01*
X57252769Y-49290000D01*
X57263242Y-49356126D01*
X57263242Y-49356129D01*
X57328904Y-49558217D01*
X57425379Y-49747557D01*
X57550272Y-49919459D01*
X57550276Y-49919464D01*
X57700535Y-50069723D01*
X57700540Y-50069727D01*
X57872442Y-50194620D01*
X58061782Y-50291095D01*
X58263871Y-50356757D01*
X58330000Y-50367231D01*
X58330000Y-49473012D01*
X58387007Y-49505925D01*
X58514174Y-49540000D01*
X58645826Y-49540000D01*
X58772993Y-49505925D01*
X58830000Y-49473012D01*
X58830000Y-50367230D01*
X58896126Y-50356757D01*
X58896129Y-50356757D01*
X59098217Y-50291095D01*
X59287557Y-50194620D01*
X59459459Y-50069727D01*
X59459464Y-50069723D01*
X59609723Y-49919464D01*
X59609727Y-49919459D01*
X59734620Y-49747557D01*
X59831095Y-49558217D01*
X59896757Y-49356129D01*
X59896757Y-49356126D01*
X59902881Y-49317466D01*
X59907231Y-49290000D01*
X59013012Y-49290000D01*
X59045925Y-49232993D01*
X59080000Y-49105826D01*
X59080000Y-48974174D01*
X59045925Y-48847007D01*
X59013012Y-48790000D01*
X59907231Y-48790000D01*
X59896757Y-48723873D01*
X59896757Y-48723870D01*
X59831095Y-48521782D01*
X59734620Y-48332442D01*
X59609727Y-48160540D01*
X59609723Y-48160535D01*
X59459464Y-48010276D01*
X59459459Y-48010272D01*
X59287558Y-47885379D01*
X59277954Y-47880486D01*
X59227157Y-47832512D01*
X59210361Y-47764692D01*
X59232897Y-47698556D01*
X59277954Y-47659514D01*
X59287558Y-47654620D01*
X59459459Y-47529727D01*
X59459464Y-47529723D01*
X59609723Y-47379464D01*
X59609727Y-47379459D01*
X59734620Y-47207557D01*
X59831095Y-47018217D01*
X59896757Y-46816129D01*
X59896757Y-46816126D01*
X59907231Y-46750000D01*
X59013012Y-46750000D01*
X59045925Y-46692993D01*
X59080000Y-46565826D01*
X59080000Y-46434174D01*
X59045925Y-46307007D01*
X59013012Y-46250000D01*
X59907231Y-46250000D01*
X59896757Y-46183873D01*
X59896757Y-46183870D01*
X59831095Y-45981782D01*
X59751615Y-45825795D01*
X59738719Y-45757126D01*
X59764995Y-45692386D01*
X59822101Y-45652128D01*
X59862100Y-45645500D01*
X62635990Y-45645500D01*
X62636000Y-45645500D01*
X62743456Y-45633947D01*
X62794967Y-45622741D01*
X62829197Y-45611347D01*
X62897497Y-45588616D01*
X62897501Y-45588613D01*
X62897504Y-45588613D01*
X63018543Y-45510825D01*
X63071347Y-45465070D01*
X63142639Y-45382796D01*
X63201418Y-45345022D01*
X63236351Y-45340000D01*
X63660000Y-45340000D01*
X63660000Y-44464000D01*
X63679685Y-44396961D01*
X63732489Y-44351206D01*
X63784000Y-44340000D01*
X64345874Y-44340000D01*
X64412913Y-44359685D01*
X64458668Y-44412489D01*
X64468612Y-44481647D01*
X64451413Y-44529096D01*
X64425645Y-44570871D01*
X64425641Y-44570880D01*
X64370494Y-44737302D01*
X64370493Y-44737309D01*
X64360000Y-44840013D01*
X64360000Y-45190000D01*
X65344314Y-45190000D01*
X65339920Y-45194394D01*
X65287259Y-45285606D01*
X65260000Y-45387339D01*
X65260000Y-45492661D01*
X65287259Y-45594394D01*
X65339920Y-45685606D01*
X65344314Y-45690000D01*
X64360001Y-45690000D01*
X64360001Y-46039986D01*
X64370494Y-46142697D01*
X64425641Y-46309119D01*
X64425643Y-46309124D01*
X64517684Y-46458345D01*
X64641654Y-46582315D01*
X64790875Y-46674356D01*
X64790880Y-46674358D01*
X64957302Y-46729505D01*
X64957309Y-46729506D01*
X65060019Y-46739999D01*
X65409999Y-46739999D01*
X65410000Y-46739998D01*
X65410000Y-45755686D01*
X65414394Y-45760080D01*
X65505606Y-45812741D01*
X65607339Y-45840000D01*
X65712661Y-45840000D01*
X65814394Y-45812741D01*
X65905606Y-45760080D01*
X65910000Y-45755686D01*
X65910000Y-46739999D01*
X66259972Y-46739999D01*
X66259986Y-46739998D01*
X66362697Y-46729505D01*
X66529119Y-46674358D01*
X66529124Y-46674356D01*
X66678345Y-46582315D01*
X66802315Y-46458345D01*
X66894356Y-46309124D01*
X66894358Y-46309119D01*
X66949505Y-46142697D01*
X66949506Y-46142690D01*
X66959999Y-46039986D01*
X66960000Y-46039973D01*
X66960000Y-45690000D01*
X65975686Y-45690000D01*
X65980080Y-45685606D01*
X66032741Y-45594394D01*
X66060000Y-45492661D01*
X66060000Y-45387339D01*
X66032741Y-45285606D01*
X65980080Y-45194394D01*
X65975686Y-45190000D01*
X66959999Y-45190000D01*
X66959999Y-44840028D01*
X66959998Y-44840013D01*
X66949505Y-44737302D01*
X66894358Y-44570880D01*
X66894354Y-44570871D01*
X66868587Y-44529096D01*
X66850147Y-44461704D01*
X66871070Y-44395040D01*
X66924712Y-44350271D01*
X66974126Y-44340000D01*
X72660000Y-44340000D01*
X72660000Y-38240013D01*
X73432500Y-38240013D01*
X73432500Y-39090000D01*
X74632499Y-39090000D01*
X74607479Y-39150402D01*
X74582500Y-39275981D01*
X74582500Y-39404019D01*
X74607479Y-39529598D01*
X74632499Y-39590000D01*
X73432501Y-39590000D01*
X73432501Y-40439986D01*
X73442994Y-40542697D01*
X73498141Y-40709119D01*
X73498143Y-40709124D01*
X73590184Y-40858345D01*
X73714154Y-40982315D01*
X73863375Y-41074356D01*
X73863380Y-41074358D01*
X74029802Y-41129505D01*
X74029809Y-41129506D01*
X74132519Y-41139999D01*
X74982499Y-41139999D01*
X74982500Y-41139998D01*
X74982500Y-39940001D01*
X75042902Y-39965021D01*
X75168481Y-39990000D01*
X75296519Y-39990000D01*
X75422098Y-39965021D01*
X75482500Y-39940001D01*
X75482500Y-41139999D01*
X76332472Y-41139999D01*
X76332486Y-41139998D01*
X76435197Y-41129505D01*
X76601619Y-41074358D01*
X76601624Y-41074356D01*
X76750845Y-40982315D01*
X76874815Y-40858345D01*
X76966856Y-40709124D01*
X76966858Y-40709119D01*
X77022005Y-40542697D01*
X77022006Y-40542690D01*
X77032499Y-40439986D01*
X77032500Y-40439973D01*
X77032500Y-39590000D01*
X75832501Y-39590000D01*
X75857521Y-39529598D01*
X75882500Y-39404019D01*
X75882500Y-39275981D01*
X75857521Y-39150402D01*
X75832501Y-39090000D01*
X77032499Y-39090000D01*
X77032499Y-38240028D01*
X77032498Y-38240013D01*
X77022005Y-38137302D01*
X76966858Y-37970880D01*
X76966856Y-37970875D01*
X76874815Y-37821654D01*
X76750845Y-37697684D01*
X76601624Y-37605643D01*
X76601619Y-37605641D01*
X76435197Y-37550494D01*
X76435190Y-37550493D01*
X76332486Y-37540000D01*
X75482500Y-37540000D01*
X75482500Y-38739998D01*
X75422098Y-38714979D01*
X75296519Y-38690000D01*
X75168481Y-38690000D01*
X75042902Y-38714979D01*
X74982500Y-38739998D01*
X74982500Y-37540000D01*
X74132528Y-37540000D01*
X74132512Y-37540001D01*
X74029802Y-37550494D01*
X73863380Y-37605641D01*
X73863375Y-37605643D01*
X73714154Y-37697684D01*
X73590184Y-37821654D01*
X73498143Y-37970875D01*
X73498141Y-37970880D01*
X73442994Y-38137302D01*
X73442993Y-38137309D01*
X73432500Y-38240013D01*
X72660000Y-38240013D01*
X72660000Y-37440829D01*
X72679685Y-37373790D01*
X72732489Y-37328035D01*
X72758706Y-37319436D01*
X75047491Y-36842605D01*
X75072781Y-36840000D01*
X79536000Y-36840000D01*
X79603039Y-36859685D01*
G37*
%TD.AperFunction*%
%TA.AperFunction,Conductor*%
G36*
X58830000Y-48606988D02*
G01*
X58772993Y-48574075D01*
X58645826Y-48540000D01*
X58514174Y-48540000D01*
X58387007Y-48574075D01*
X58330000Y-48606988D01*
X58330000Y-46933012D01*
X58387007Y-46965925D01*
X58514174Y-47000000D01*
X58645826Y-47000000D01*
X58772993Y-46965925D01*
X58830000Y-46933012D01*
X58830000Y-48606988D01*
G37*
%TD.AperFunction*%
%TD*%
%TA.AperFunction,Conductor*%
%TO.N,OUTA*%
G36*
X52259188Y-40499384D02*
G01*
X52325836Y-40520338D01*
X52370580Y-40574001D01*
X52379207Y-40643336D01*
X52357148Y-40696242D01*
X52345379Y-40712441D01*
X52248904Y-40901782D01*
X52183242Y-41103869D01*
X52183242Y-41103872D01*
X52150000Y-41313753D01*
X52150000Y-41526246D01*
X52183242Y-41736127D01*
X52183242Y-41736130D01*
X52248904Y-41938217D01*
X52345375Y-42127550D01*
X52384728Y-42181716D01*
X53017036Y-41549407D01*
X53034075Y-41612993D01*
X53099901Y-41727007D01*
X53192993Y-41820099D01*
X53307007Y-41885925D01*
X53370591Y-41902962D01*
X52769971Y-42503581D01*
X52848711Y-42620895D01*
X52849920Y-42624729D01*
X52852844Y-42627491D01*
X52860343Y-42657778D01*
X52869727Y-42687529D01*
X52868671Y-42691408D01*
X52869638Y-42695312D01*
X52859573Y-42724844D01*
X52851383Y-42754947D01*
X52848397Y-42757640D01*
X52847100Y-42761447D01*
X52802051Y-42800483D01*
X52792440Y-42805380D01*
X52738282Y-42844727D01*
X52738282Y-42844728D01*
X53370591Y-43477037D01*
X53307007Y-43494075D01*
X53192993Y-43559901D01*
X53099901Y-43652993D01*
X53034075Y-43767007D01*
X53017037Y-43830591D01*
X52384728Y-43198282D01*
X52384727Y-43198282D01*
X52345380Y-43252439D01*
X52248904Y-43441782D01*
X52183242Y-43643869D01*
X52183242Y-43643872D01*
X52150000Y-43853753D01*
X52150000Y-44066246D01*
X52183242Y-44276127D01*
X52183242Y-44276130D01*
X52248904Y-44478217D01*
X52345375Y-44667550D01*
X52384728Y-44721716D01*
X53017037Y-44089408D01*
X53034075Y-44152993D01*
X53099901Y-44267007D01*
X53192993Y-44360099D01*
X53307007Y-44425925D01*
X53370590Y-44442962D01*
X52706777Y-45106774D01*
X52645928Y-45140000D01*
X52641832Y-45140000D01*
X52611629Y-45137840D01*
X52611629Y-45140000D01*
X49784000Y-45140000D01*
X49716961Y-45120315D01*
X49671206Y-45067511D01*
X49660000Y-45016000D01*
X49660000Y-40682690D01*
X49679685Y-40615651D01*
X49732489Y-40569896D01*
X49801647Y-40559952D01*
X49822807Y-40564919D01*
X49857597Y-40576382D01*
X49902935Y-40591322D01*
X49971731Y-40603522D01*
X50115530Y-40608228D01*
X50115530Y-40608227D01*
X50115531Y-40608228D01*
X50115534Y-40608228D01*
X50667808Y-40547187D01*
X51262341Y-40481475D01*
X51278297Y-40480747D01*
X52259188Y-40499384D01*
G37*
%TD.AperFunction*%
%TA.AperFunction,Conductor*%
G36*
X57285302Y-40594880D02*
G01*
X57351950Y-40615834D01*
X57396694Y-40669498D01*
X57405321Y-40738832D01*
X57393426Y-40775152D01*
X57328904Y-40901782D01*
X57263242Y-41103870D01*
X57263242Y-41103873D01*
X57252769Y-41170000D01*
X58146988Y-41170000D01*
X58114075Y-41227007D01*
X58080000Y-41354174D01*
X58080000Y-41485826D01*
X58114075Y-41612993D01*
X58146988Y-41670000D01*
X57252769Y-41670000D01*
X57263242Y-41736126D01*
X57263242Y-41736129D01*
X57328904Y-41938217D01*
X57425379Y-42127557D01*
X57550272Y-42299459D01*
X57550276Y-42299464D01*
X57700535Y-42449723D01*
X57700540Y-42449727D01*
X57872444Y-42574622D01*
X57882048Y-42579516D01*
X57932844Y-42627491D01*
X57949638Y-42695312D01*
X57927100Y-42761447D01*
X57882048Y-42800484D01*
X57872444Y-42805377D01*
X57700540Y-42930272D01*
X57700535Y-42930276D01*
X57550276Y-43080535D01*
X57550272Y-43080540D01*
X57425379Y-43252442D01*
X57328904Y-43441782D01*
X57263242Y-43643870D01*
X57263242Y-43643873D01*
X57252769Y-43710000D01*
X58146988Y-43710000D01*
X58114075Y-43767007D01*
X58080000Y-43894174D01*
X58080000Y-44025826D01*
X58114075Y-44152993D01*
X58146988Y-44210000D01*
X57252769Y-44210000D01*
X57263242Y-44276126D01*
X57263242Y-44276129D01*
X57328904Y-44478217D01*
X57425379Y-44667557D01*
X57550272Y-44839459D01*
X57550276Y-44839464D01*
X57639131Y-44928319D01*
X57672616Y-44989642D01*
X57667632Y-45059334D01*
X57625760Y-45115267D01*
X57560296Y-45139684D01*
X57551450Y-45140000D01*
X54388371Y-45140000D01*
X54388371Y-45137952D01*
X54369309Y-45140000D01*
X54356636Y-45140000D01*
X54296398Y-45109841D01*
X54293221Y-45106774D01*
X53629408Y-44442962D01*
X53692993Y-44425925D01*
X53807007Y-44360099D01*
X53900099Y-44267007D01*
X53965925Y-44152993D01*
X53982962Y-44089408D01*
X54615270Y-44721717D01*
X54615270Y-44721716D01*
X54654622Y-44667554D01*
X54751095Y-44478217D01*
X54816757Y-44276130D01*
X54816757Y-44276127D01*
X54850000Y-44066246D01*
X54850000Y-43853753D01*
X54816757Y-43643872D01*
X54816757Y-43643869D01*
X54751095Y-43441782D01*
X54654624Y-43252449D01*
X54615270Y-43198282D01*
X54615269Y-43198282D01*
X53982962Y-43830590D01*
X53965925Y-43767007D01*
X53900099Y-43652993D01*
X53807007Y-43559901D01*
X53692993Y-43494075D01*
X53629409Y-43477037D01*
X54261716Y-42844728D01*
X54207550Y-42805375D01*
X54197954Y-42800486D01*
X54147157Y-42752512D01*
X54130361Y-42684692D01*
X54152897Y-42618556D01*
X54197954Y-42579514D01*
X54207554Y-42574622D01*
X54261716Y-42535270D01*
X54261717Y-42535270D01*
X53629408Y-41902962D01*
X53692993Y-41885925D01*
X53807007Y-41820099D01*
X53900099Y-41727007D01*
X53965925Y-41612993D01*
X53982962Y-41549409D01*
X54615270Y-42181717D01*
X54615270Y-42181716D01*
X54654622Y-42127554D01*
X54751095Y-41938217D01*
X54816757Y-41736130D01*
X54816757Y-41736127D01*
X54836174Y-41613538D01*
X54850000Y-41526245D01*
X54850000Y-41313753D01*
X54816757Y-41103872D01*
X54816757Y-41103869D01*
X54751095Y-40901782D01*
X54662272Y-40727459D01*
X54649376Y-40658790D01*
X54675652Y-40594050D01*
X54732758Y-40553792D01*
X54775106Y-40547187D01*
X57285302Y-40594880D01*
G37*
%TD.AperFunction*%
%TA.AperFunction,Conductor*%
G36*
X75282827Y-25717166D02*
G01*
X75315223Y-25737443D01*
X75324599Y-25745567D01*
X75455476Y-25805338D01*
X75522515Y-25825023D01*
X75522519Y-25825024D01*
X75664935Y-25845500D01*
X75664938Y-25845500D01*
X79536000Y-25845500D01*
X79603039Y-25865185D01*
X79648794Y-25917989D01*
X79660000Y-25969500D01*
X79660000Y-31216000D01*
X79640315Y-31283039D01*
X79587511Y-31328794D01*
X79536000Y-31340000D01*
X71460000Y-31340000D01*
X71460000Y-41416000D01*
X71440315Y-41483039D01*
X71387511Y-41528794D01*
X71336000Y-41540000D01*
X62760000Y-41540000D01*
X62760000Y-45016000D01*
X62740315Y-45083039D01*
X62687511Y-45128794D01*
X62636000Y-45140000D01*
X59608550Y-45140000D01*
X59541511Y-45120315D01*
X59495756Y-45067511D01*
X59485812Y-44998353D01*
X59514837Y-44934797D01*
X59520869Y-44928319D01*
X59609723Y-44839464D01*
X59609727Y-44839459D01*
X59734620Y-44667557D01*
X59831095Y-44478217D01*
X59896757Y-44276129D01*
X59896757Y-44276126D01*
X59907231Y-44210000D01*
X59013012Y-44210000D01*
X59045925Y-44152993D01*
X59080000Y-44025826D01*
X59080000Y-43894174D01*
X59045925Y-43767007D01*
X59013012Y-43710000D01*
X59907231Y-43710000D01*
X59896757Y-43643873D01*
X59896757Y-43643870D01*
X59831095Y-43441782D01*
X59734620Y-43252442D01*
X59609727Y-43080540D01*
X59609723Y-43080535D01*
X59459464Y-42930276D01*
X59459459Y-42930272D01*
X59287558Y-42805379D01*
X59277954Y-42800486D01*
X59227157Y-42752512D01*
X59210361Y-42684692D01*
X59232897Y-42618556D01*
X59277954Y-42579514D01*
X59287558Y-42574620D01*
X59459459Y-42449727D01*
X59459464Y-42449723D01*
X59609723Y-42299464D01*
X59609727Y-42299459D01*
X59734620Y-42127557D01*
X59831095Y-41938217D01*
X59896757Y-41736129D01*
X59896757Y-41736126D01*
X59907231Y-41670000D01*
X59013012Y-41670000D01*
X59045925Y-41612993D01*
X59080000Y-41485826D01*
X59080000Y-41354174D01*
X59045925Y-41227007D01*
X59013012Y-41170000D01*
X59907231Y-41170000D01*
X59896757Y-41103873D01*
X59896757Y-41103870D01*
X59831095Y-40901782D01*
X59791933Y-40824923D01*
X59779037Y-40756254D01*
X59805313Y-40691514D01*
X59862419Y-40651256D01*
X59904769Y-40644650D01*
X61160000Y-40668500D01*
X61160000Y-40668499D01*
X61160000Y-38169500D01*
X61179685Y-38102461D01*
X61232489Y-38056706D01*
X61284000Y-38045500D01*
X67535990Y-38045500D01*
X67536000Y-38045500D01*
X67580543Y-38040710D01*
X67593798Y-38040000D01*
X67960000Y-38040000D01*
X67960000Y-37924414D01*
X67979685Y-37857375D01*
X67990281Y-37843219D01*
X68065567Y-37756336D01*
X68125338Y-37625459D01*
X68145023Y-37558420D01*
X68145024Y-37558416D01*
X68165500Y-37416000D01*
X68165500Y-27240013D01*
X73432500Y-27240013D01*
X73432500Y-28090000D01*
X74632499Y-28090000D01*
X74607479Y-28150402D01*
X74582500Y-28275981D01*
X74582500Y-28404019D01*
X74607479Y-28529598D01*
X74632499Y-28590000D01*
X73432501Y-28590000D01*
X73432501Y-29439986D01*
X73442994Y-29542697D01*
X73498141Y-29709119D01*
X73498143Y-29709124D01*
X73590184Y-29858345D01*
X73714154Y-29982315D01*
X73863375Y-30074356D01*
X73863380Y-30074358D01*
X74029802Y-30129505D01*
X74029809Y-30129506D01*
X74132519Y-30139999D01*
X74982499Y-30139999D01*
X74982500Y-30139998D01*
X74982500Y-28940001D01*
X75042902Y-28965021D01*
X75168481Y-28990000D01*
X75296519Y-28990000D01*
X75422098Y-28965021D01*
X75482500Y-28940001D01*
X75482500Y-30139999D01*
X76332472Y-30139999D01*
X76332486Y-30139998D01*
X76435197Y-30129505D01*
X76601619Y-30074358D01*
X76601624Y-30074356D01*
X76750845Y-29982315D01*
X76874815Y-29858345D01*
X76966856Y-29709124D01*
X76966858Y-29709119D01*
X77022005Y-29542697D01*
X77022006Y-29542690D01*
X77032499Y-29439986D01*
X77032500Y-29439973D01*
X77032500Y-28590000D01*
X75832501Y-28590000D01*
X75857521Y-28529598D01*
X75882500Y-28404019D01*
X75882500Y-28275981D01*
X75857521Y-28150402D01*
X75832501Y-28090000D01*
X77032499Y-28090000D01*
X77032499Y-27240028D01*
X77032498Y-27240013D01*
X77022005Y-27137302D01*
X76966858Y-26970880D01*
X76966856Y-26970875D01*
X76874815Y-26821654D01*
X76750845Y-26697684D01*
X76601624Y-26605643D01*
X76601619Y-26605641D01*
X76435197Y-26550494D01*
X76435190Y-26550493D01*
X76332486Y-26540000D01*
X75482500Y-26540000D01*
X75482500Y-27739998D01*
X75422098Y-27714979D01*
X75296519Y-27690000D01*
X75168481Y-27690000D01*
X75042902Y-27714979D01*
X74982500Y-27739998D01*
X74982500Y-26540000D01*
X74132528Y-26540000D01*
X74132512Y-26540001D01*
X74029802Y-26550494D01*
X73863380Y-26605641D01*
X73863375Y-26605643D01*
X73714154Y-26697684D01*
X73590184Y-26821654D01*
X73498143Y-26970875D01*
X73498141Y-26970880D01*
X73442994Y-27137302D01*
X73442993Y-27137309D01*
X73432500Y-27240013D01*
X68165500Y-27240013D01*
X68165500Y-25969500D01*
X68185185Y-25902461D01*
X68237989Y-25856706D01*
X68289500Y-25845500D01*
X74800037Y-25845500D01*
X74800065Y-25845500D01*
X74806060Y-25845464D01*
X74809011Y-25845429D01*
X74815050Y-25845322D01*
X74956938Y-25821461D01*
X75023490Y-25800186D01*
X75023496Y-25800182D01*
X75023499Y-25800182D01*
X75049016Y-25787786D01*
X75152903Y-25737321D01*
X75152908Y-25737315D01*
X75160251Y-25732348D01*
X75161460Y-25734134D01*
X75213451Y-25708875D01*
X75282827Y-25717166D01*
G37*
%TD.AperFunction*%
%TA.AperFunction,Conductor*%
G36*
X58830000Y-43526988D02*
G01*
X58772993Y-43494075D01*
X58645826Y-43460000D01*
X58514174Y-43460000D01*
X58387007Y-43494075D01*
X58330000Y-43526988D01*
X58330000Y-41853012D01*
X58387007Y-41885925D01*
X58514174Y-41920000D01*
X58645826Y-41920000D01*
X58772993Y-41885925D01*
X58830000Y-41853012D01*
X58830000Y-43526988D01*
G37*
%TD.AperFunction*%
%TD*%
%TA.AperFunction,Conductor*%
%TO.N,OUTB*%
G36*
X52745876Y-34943121D02*
G01*
X52755759Y-34942130D01*
X52789167Y-34953514D01*
X52801493Y-34959794D01*
X52852290Y-35007767D01*
X52869087Y-35075587D01*
X52846552Y-35141723D01*
X52801505Y-35180760D01*
X52792446Y-35185376D01*
X52792440Y-35185380D01*
X52738282Y-35224727D01*
X52738282Y-35224728D01*
X53370591Y-35857037D01*
X53307007Y-35874075D01*
X53192993Y-35939901D01*
X53099901Y-36032993D01*
X53034075Y-36147007D01*
X53017037Y-36210591D01*
X52384728Y-35578282D01*
X52384727Y-35578282D01*
X52345380Y-35632439D01*
X52248904Y-35821782D01*
X52183242Y-36023869D01*
X52183242Y-36023872D01*
X52150000Y-36233753D01*
X52150000Y-36446246D01*
X52183242Y-36656127D01*
X52183242Y-36656130D01*
X52248904Y-36858217D01*
X52345375Y-37047550D01*
X52384728Y-37101716D01*
X53017037Y-36469408D01*
X53034075Y-36532993D01*
X53099901Y-36647007D01*
X53192993Y-36740099D01*
X53307007Y-36805925D01*
X53370591Y-36822962D01*
X52769971Y-37423581D01*
X52848711Y-37540895D01*
X52849920Y-37544729D01*
X52852844Y-37547491D01*
X52860343Y-37577778D01*
X52869727Y-37607529D01*
X52868671Y-37611408D01*
X52869638Y-37615312D01*
X52859573Y-37644844D01*
X52851383Y-37674947D01*
X52848397Y-37677640D01*
X52847100Y-37681447D01*
X52802051Y-37720483D01*
X52792440Y-37725380D01*
X52738282Y-37764727D01*
X52738282Y-37764728D01*
X53370591Y-38397037D01*
X53307007Y-38414075D01*
X53192993Y-38479901D01*
X53099901Y-38572993D01*
X53034075Y-38687007D01*
X53017037Y-38750591D01*
X52384728Y-38118282D01*
X52384727Y-38118282D01*
X52345380Y-38172439D01*
X52248904Y-38361782D01*
X52183242Y-38563869D01*
X52183242Y-38563872D01*
X52150000Y-38773753D01*
X52150000Y-38986246D01*
X52183242Y-39196127D01*
X52183242Y-39196130D01*
X52248904Y-39398217D01*
X52345379Y-39587557D01*
X52458397Y-39743115D01*
X52481877Y-39808921D01*
X52466051Y-39876975D01*
X52415945Y-39925670D01*
X52358079Y-39940000D01*
X51559990Y-39940000D01*
X50059997Y-40105788D01*
X49991201Y-40093588D01*
X49958694Y-40070220D01*
X49746819Y-39858345D01*
X49713334Y-39797022D01*
X49710500Y-39770664D01*
X49710500Y-35064000D01*
X49730185Y-34996961D01*
X49782989Y-34951206D01*
X49834500Y-34940000D01*
X52732875Y-34940000D01*
X52745876Y-34943121D01*
G37*
%TD.AperFunction*%
%TA.AperFunction,Conductor*%
G36*
X57869167Y-34953514D02*
G01*
X57881493Y-34959794D01*
X57932290Y-35007767D01*
X57949087Y-35075587D01*
X57926552Y-35141723D01*
X57881502Y-35180762D01*
X57872443Y-35185378D01*
X57700540Y-35310272D01*
X57700535Y-35310276D01*
X57550276Y-35460535D01*
X57550272Y-35460540D01*
X57425379Y-35632442D01*
X57328904Y-35821782D01*
X57263242Y-36023870D01*
X57263242Y-36023873D01*
X57252769Y-36090000D01*
X58146988Y-36090000D01*
X58114075Y-36147007D01*
X58080000Y-36274174D01*
X58080000Y-36405826D01*
X58114075Y-36532993D01*
X58146988Y-36590000D01*
X57252769Y-36590000D01*
X57263242Y-36656126D01*
X57263242Y-36656129D01*
X57328904Y-36858217D01*
X57425379Y-37047557D01*
X57550272Y-37219459D01*
X57550276Y-37219464D01*
X57700535Y-37369723D01*
X57700540Y-37369727D01*
X57872444Y-37494622D01*
X57882048Y-37499516D01*
X57932844Y-37547491D01*
X57949638Y-37615312D01*
X57927100Y-37681447D01*
X57882048Y-37720484D01*
X57872444Y-37725377D01*
X57700540Y-37850272D01*
X57700535Y-37850276D01*
X57550276Y-38000535D01*
X57550272Y-38000540D01*
X57425379Y-38172442D01*
X57328904Y-38361782D01*
X57263242Y-38563870D01*
X57263242Y-38563873D01*
X57252769Y-38630000D01*
X58146988Y-38630000D01*
X58114075Y-38687007D01*
X58080000Y-38814174D01*
X58080000Y-38945826D01*
X58114075Y-39072993D01*
X58146988Y-39130000D01*
X57252769Y-39130000D01*
X57263242Y-39196126D01*
X57263242Y-39196129D01*
X57328904Y-39398217D01*
X57425379Y-39587557D01*
X57538397Y-39743115D01*
X57561877Y-39808921D01*
X57546051Y-39876975D01*
X57495945Y-39925670D01*
X57438079Y-39940000D01*
X54641921Y-39940000D01*
X54574882Y-39920315D01*
X54529127Y-39867511D01*
X54519183Y-39798353D01*
X54541603Y-39743115D01*
X54654620Y-39587557D01*
X54751095Y-39398217D01*
X54816757Y-39196130D01*
X54816757Y-39196127D01*
X54850000Y-38986246D01*
X54850000Y-38773753D01*
X54816757Y-38563872D01*
X54816757Y-38563869D01*
X54751095Y-38361782D01*
X54654624Y-38172449D01*
X54615270Y-38118282D01*
X54615269Y-38118282D01*
X53982962Y-38750589D01*
X53965925Y-38687007D01*
X53900099Y-38572993D01*
X53807007Y-38479901D01*
X53692993Y-38414075D01*
X53629409Y-38397037D01*
X54261716Y-37764728D01*
X54207550Y-37725375D01*
X54197954Y-37720486D01*
X54147157Y-37672512D01*
X54130361Y-37604692D01*
X54152897Y-37538556D01*
X54197954Y-37499514D01*
X54207554Y-37494622D01*
X54261716Y-37455270D01*
X54261717Y-37455270D01*
X53629408Y-36822962D01*
X53692993Y-36805925D01*
X53807007Y-36740099D01*
X53900099Y-36647007D01*
X53965925Y-36532993D01*
X53982962Y-36469408D01*
X54615270Y-37101717D01*
X54615270Y-37101716D01*
X54654622Y-37047554D01*
X54751095Y-36858217D01*
X54816757Y-36656130D01*
X54816757Y-36656127D01*
X54836174Y-36533538D01*
X54850000Y-36446245D01*
X54850000Y-36233753D01*
X54816757Y-36023872D01*
X54816757Y-36023869D01*
X54751095Y-35821782D01*
X54654624Y-35632449D01*
X54615270Y-35578282D01*
X54615269Y-35578282D01*
X53982962Y-36210590D01*
X53965925Y-36147007D01*
X53900099Y-36032993D01*
X53807007Y-35939901D01*
X53692993Y-35874075D01*
X53629409Y-35857037D01*
X54261716Y-35224728D01*
X54207547Y-35185373D01*
X54207547Y-35185372D01*
X54198500Y-35180763D01*
X54189345Y-35172116D01*
X54177677Y-35167380D01*
X54164425Y-35148579D01*
X54147706Y-35132788D01*
X54144679Y-35120564D01*
X54137424Y-35110271D01*
X54136440Y-35087292D01*
X54130912Y-35064966D01*
X54134974Y-35053045D01*
X54134436Y-35040465D01*
X54146030Y-35020603D01*
X54153451Y-34998832D01*
X54164156Y-34989556D01*
X54169662Y-34980126D01*
X54198506Y-34959794D01*
X54207816Y-34955051D01*
X54207815Y-34955051D01*
X54210837Y-34953512D01*
X54267125Y-34940000D01*
X57812875Y-34940000D01*
X57869167Y-34953514D01*
G37*
%TD.AperFunction*%
%TA.AperFunction,Conductor*%
G36*
X79603039Y-20359685D02*
G01*
X79648794Y-20412489D01*
X79660000Y-20464000D01*
X79660000Y-25216000D01*
X79640315Y-25283039D01*
X79587511Y-25328794D01*
X79536000Y-25340000D01*
X75664935Y-25340000D01*
X75597896Y-25320315D01*
X75552141Y-25267511D01*
X75542197Y-25198353D01*
X75571222Y-25134797D01*
X75630000Y-25097023D01*
X75632841Y-25096225D01*
X75812339Y-25048128D01*
X76030319Y-24957839D01*
X76030328Y-24957834D01*
X76234681Y-24839850D01*
X76316223Y-24777279D01*
X76316223Y-24777276D01*
X75479987Y-23941041D01*
X75540390Y-23916022D01*
X75646851Y-23844888D01*
X75737388Y-23754351D01*
X75808522Y-23647890D01*
X75833541Y-23587488D01*
X76669776Y-24423723D01*
X76669779Y-24423723D01*
X76732350Y-24342181D01*
X76850334Y-24137828D01*
X76850339Y-24137819D01*
X76940629Y-23919837D01*
X77001700Y-23691914D01*
X77032499Y-23457985D01*
X77032500Y-23457971D01*
X77032500Y-23222028D01*
X77032499Y-23222014D01*
X77001700Y-22988085D01*
X76940629Y-22760162D01*
X76850339Y-22542180D01*
X76850334Y-22542171D01*
X76732355Y-22337828D01*
X76732354Y-22337827D01*
X76669777Y-22256275D01*
X75833541Y-23092511D01*
X75808522Y-23032110D01*
X75737388Y-22925649D01*
X75646851Y-22835112D01*
X75540390Y-22763978D01*
X75479988Y-22738958D01*
X76316223Y-21902721D01*
X76234672Y-21840145D01*
X76234671Y-21840144D01*
X76030328Y-21722165D01*
X76030319Y-21722160D01*
X75812336Y-21631870D01*
X75812338Y-21631870D01*
X75584414Y-21570799D01*
X75350485Y-21540000D01*
X75114514Y-21540000D01*
X74880585Y-21570799D01*
X74652662Y-21631870D01*
X74434680Y-21722160D01*
X74434671Y-21722165D01*
X74230328Y-21840144D01*
X74230318Y-21840150D01*
X74148775Y-21902720D01*
X74148775Y-21902721D01*
X74985012Y-22738958D01*
X74924610Y-22763978D01*
X74818149Y-22835112D01*
X74727612Y-22925649D01*
X74656478Y-23032110D01*
X74631458Y-23092512D01*
X73795221Y-22256275D01*
X73795220Y-22256275D01*
X73732650Y-22337818D01*
X73732644Y-22337828D01*
X73614665Y-22542171D01*
X73614660Y-22542180D01*
X73524370Y-22760162D01*
X73463299Y-22988085D01*
X73432500Y-23222014D01*
X73432500Y-23457985D01*
X73463299Y-23691914D01*
X73524370Y-23919837D01*
X73614660Y-24137819D01*
X73614665Y-24137828D01*
X73732644Y-24342171D01*
X73732645Y-24342172D01*
X73795221Y-24423723D01*
X74631458Y-23587487D01*
X74656478Y-23647890D01*
X74727612Y-23754351D01*
X74818149Y-23844888D01*
X74924610Y-23916022D01*
X74985011Y-23941041D01*
X74148775Y-24777277D01*
X74230327Y-24839854D01*
X74230328Y-24839855D01*
X74434671Y-24957834D01*
X74434680Y-24957839D01*
X74652660Y-25048128D01*
X74832159Y-25096225D01*
X74891819Y-25132590D01*
X74922348Y-25195437D01*
X74914053Y-25264813D01*
X74869568Y-25318690D01*
X74803016Y-25339965D01*
X74800065Y-25340000D01*
X67660000Y-25340000D01*
X67660000Y-37416000D01*
X67640315Y-37483039D01*
X67587511Y-37528794D01*
X67536000Y-37540000D01*
X60260000Y-37540000D01*
X60260000Y-39816000D01*
X60240315Y-39883039D01*
X60187511Y-39928794D01*
X60136000Y-39940000D01*
X59721921Y-39940000D01*
X59654882Y-39920315D01*
X59609127Y-39867511D01*
X59599183Y-39798353D01*
X59621603Y-39743115D01*
X59734620Y-39587557D01*
X59831095Y-39398217D01*
X59896757Y-39196129D01*
X59896757Y-39196126D01*
X59907231Y-39130000D01*
X59013012Y-39130000D01*
X59045925Y-39072993D01*
X59080000Y-38945826D01*
X59080000Y-38814174D01*
X59045925Y-38687007D01*
X59013012Y-38630000D01*
X59907231Y-38630000D01*
X59896757Y-38563873D01*
X59896757Y-38563870D01*
X59831095Y-38361782D01*
X59734620Y-38172442D01*
X59609727Y-38000540D01*
X59609723Y-38000535D01*
X59459464Y-37850276D01*
X59459459Y-37850272D01*
X59287558Y-37725379D01*
X59277954Y-37720486D01*
X59227157Y-37672512D01*
X59210361Y-37604692D01*
X59232897Y-37538556D01*
X59277954Y-37499514D01*
X59287558Y-37494620D01*
X59459459Y-37369727D01*
X59459464Y-37369723D01*
X59609723Y-37219464D01*
X59609727Y-37219459D01*
X59734620Y-37047557D01*
X59831095Y-36858217D01*
X59896757Y-36656129D01*
X59896757Y-36656126D01*
X59907231Y-36590000D01*
X59013012Y-36590000D01*
X59045925Y-36532993D01*
X59080000Y-36405826D01*
X59080000Y-36274174D01*
X59045925Y-36147007D01*
X59013012Y-36090000D01*
X59907231Y-36090000D01*
X59896757Y-36023873D01*
X59896757Y-36023870D01*
X59831095Y-35821782D01*
X59734620Y-35632442D01*
X59609727Y-35460540D01*
X59609723Y-35460535D01*
X59459464Y-35310276D01*
X59459459Y-35310272D01*
X59287555Y-35185377D01*
X59278500Y-35180763D01*
X59269345Y-35172116D01*
X59257677Y-35167380D01*
X59244425Y-35148579D01*
X59227706Y-35132788D01*
X59224679Y-35120564D01*
X59217424Y-35110271D01*
X59216440Y-35087292D01*
X59210912Y-35064966D01*
X59214974Y-35053045D01*
X59214436Y-35040465D01*
X59226030Y-35020603D01*
X59233451Y-34998832D01*
X59244156Y-34989556D01*
X59249662Y-34980126D01*
X59278506Y-34959794D01*
X59287816Y-34955051D01*
X59287815Y-34955051D01*
X59290837Y-34953512D01*
X59347125Y-34940000D01*
X59660000Y-34940000D01*
X59660000Y-34651404D01*
X59679685Y-34584365D01*
X59683683Y-34578518D01*
X59735048Y-34507820D01*
X59735047Y-34507820D01*
X59735051Y-34507816D01*
X59831557Y-34318412D01*
X59897246Y-34116243D01*
X59930500Y-33906287D01*
X59930500Y-33693713D01*
X59897246Y-33483757D01*
X59897245Y-33483756D01*
X59897189Y-33483398D01*
X59906144Y-33414105D01*
X59951140Y-33360653D01*
X60017891Y-33340013D01*
X60019662Y-33340000D01*
X63660000Y-33340000D01*
X63660000Y-24464000D01*
X63679685Y-24396961D01*
X63732489Y-24351206D01*
X63784000Y-24340000D01*
X68660000Y-24340000D01*
X68660000Y-20464000D01*
X68679685Y-20396961D01*
X68732489Y-20351206D01*
X68784000Y-20340000D01*
X79536000Y-20340000D01*
X79603039Y-20359685D01*
G37*
%TD.AperFunction*%
%TA.AperFunction,Conductor*%
G36*
X58830000Y-38446988D02*
G01*
X58772993Y-38414075D01*
X58645826Y-38380000D01*
X58514174Y-38380000D01*
X58387007Y-38414075D01*
X58330000Y-38446988D01*
X58330000Y-36773012D01*
X58387007Y-36805925D01*
X58514174Y-36840000D01*
X58645826Y-36840000D01*
X58772993Y-36805925D01*
X58830000Y-36773012D01*
X58830000Y-38446988D01*
G37*
%TD.AperFunction*%
%TD*%
%TA.AperFunction,Conductor*%
%TO.N,VCC*%
G36*
X40031876Y-45358434D02*
G01*
X40035063Y-45361509D01*
X40690591Y-46017037D01*
X40627007Y-46034075D01*
X40512993Y-46099901D01*
X40419901Y-46192993D01*
X40354075Y-46307007D01*
X40337037Y-46370591D01*
X39704728Y-45738282D01*
X39704727Y-45738282D01*
X39665380Y-45792439D01*
X39568904Y-45981782D01*
X39503242Y-46183869D01*
X39503242Y-46183872D01*
X39470000Y-46393753D01*
X39470000Y-46606246D01*
X39503242Y-46816127D01*
X39503242Y-46816130D01*
X39568904Y-47018217D01*
X39665375Y-47207550D01*
X39704728Y-47261716D01*
X40337037Y-46629408D01*
X40354075Y-46692993D01*
X40419901Y-46807007D01*
X40512993Y-46900099D01*
X40627007Y-46965925D01*
X40690591Y-46982962D01*
X40089971Y-47583581D01*
X40168711Y-47700895D01*
X40169920Y-47704729D01*
X40172844Y-47707491D01*
X40180343Y-47737778D01*
X40189727Y-47767529D01*
X40188671Y-47771408D01*
X40189638Y-47775312D01*
X40179573Y-47804844D01*
X40171383Y-47834947D01*
X40168397Y-47837640D01*
X40167100Y-47841447D01*
X40122051Y-47880483D01*
X40112440Y-47885380D01*
X40058282Y-47924727D01*
X40058282Y-47924728D01*
X40690591Y-48557037D01*
X40627007Y-48574075D01*
X40512993Y-48639901D01*
X40419901Y-48732993D01*
X40354075Y-48847007D01*
X40337037Y-48910591D01*
X39704728Y-48278282D01*
X39704727Y-48278282D01*
X39665380Y-48332439D01*
X39568904Y-48521782D01*
X39503242Y-48723869D01*
X39503242Y-48723872D01*
X39470000Y-48933753D01*
X39470000Y-49146246D01*
X39503242Y-49356127D01*
X39503242Y-49356130D01*
X39568904Y-49558217D01*
X39665375Y-49747550D01*
X39704728Y-49801716D01*
X40337037Y-49169408D01*
X40354075Y-49232993D01*
X40419901Y-49347007D01*
X40512993Y-49440099D01*
X40627007Y-49505925D01*
X40690590Y-49522962D01*
X40058282Y-50155269D01*
X40058282Y-50155270D01*
X40112449Y-50194624D01*
X40301782Y-50291095D01*
X40503870Y-50356757D01*
X40713754Y-50390000D01*
X40926246Y-50390000D01*
X41136127Y-50356757D01*
X41136130Y-50356757D01*
X41338217Y-50291095D01*
X41527554Y-50194622D01*
X41581716Y-50155270D01*
X41581717Y-50155270D01*
X40949408Y-49522962D01*
X41012993Y-49505925D01*
X41127007Y-49440099D01*
X41220099Y-49347007D01*
X41285925Y-49232993D01*
X41302962Y-49169409D01*
X41935270Y-49801717D01*
X41935270Y-49801716D01*
X41974622Y-49747554D01*
X42071095Y-49558217D01*
X42136757Y-49356130D01*
X42136757Y-49356127D01*
X42170000Y-49146246D01*
X42170000Y-48933753D01*
X42136757Y-48723872D01*
X42136757Y-48723869D01*
X42071095Y-48521782D01*
X41974624Y-48332449D01*
X41935270Y-48278282D01*
X41935269Y-48278282D01*
X41302962Y-48910590D01*
X41285925Y-48847007D01*
X41220099Y-48732993D01*
X41127007Y-48639901D01*
X41012993Y-48574075D01*
X40949409Y-48557037D01*
X41581716Y-47924728D01*
X41527550Y-47885375D01*
X41517954Y-47880486D01*
X41467157Y-47832512D01*
X41450361Y-47764692D01*
X41472897Y-47698556D01*
X41517954Y-47659514D01*
X41527554Y-47654622D01*
X41581716Y-47615270D01*
X41581717Y-47615270D01*
X40949408Y-46982962D01*
X41012993Y-46965925D01*
X41127007Y-46900099D01*
X41220099Y-46807007D01*
X41285925Y-46692993D01*
X41302962Y-46629409D01*
X41935270Y-47261717D01*
X41935270Y-47261716D01*
X41974622Y-47207554D01*
X42071095Y-47018217D01*
X42136757Y-46816130D01*
X42136757Y-46816127D01*
X42170000Y-46606246D01*
X42170000Y-46393753D01*
X42136757Y-46183872D01*
X42136757Y-46183869D01*
X42071095Y-45981782D01*
X41974624Y-45792449D01*
X41935270Y-45738282D01*
X41935269Y-45738282D01*
X41302962Y-46370590D01*
X41285925Y-46307007D01*
X41220099Y-46192993D01*
X41127007Y-46099901D01*
X41012993Y-46034075D01*
X40949409Y-46017037D01*
X41604936Y-45361509D01*
X41644327Y-45340000D01*
X41753037Y-45340000D01*
X43536000Y-45340000D01*
X43603039Y-45359685D01*
X43648794Y-45412489D01*
X43660000Y-45464000D01*
X43660000Y-53216000D01*
X43640315Y-53283039D01*
X43587511Y-53328794D01*
X43536000Y-53340000D01*
X19784000Y-53340000D01*
X19716961Y-53320315D01*
X19671206Y-53267511D01*
X19660000Y-53216000D01*
X19660000Y-50022014D01*
X21087500Y-50022014D01*
X21087500Y-50257985D01*
X21118299Y-50491914D01*
X21179370Y-50719837D01*
X21269660Y-50937819D01*
X21269665Y-50937828D01*
X21387644Y-51142171D01*
X21387645Y-51142172D01*
X21450221Y-51223723D01*
X22286458Y-50387487D01*
X22311478Y-50447890D01*
X22382612Y-50554351D01*
X22473149Y-50644888D01*
X22579610Y-50716022D01*
X22640011Y-50741041D01*
X21803775Y-51577277D01*
X21885327Y-51639854D01*
X21885328Y-51639855D01*
X22089671Y-51757834D01*
X22089680Y-51757839D01*
X22307663Y-51848129D01*
X22307661Y-51848129D01*
X22535585Y-51909200D01*
X22769514Y-51939999D01*
X22769529Y-51940000D01*
X23005471Y-51940000D01*
X23005485Y-51939999D01*
X23239414Y-51909200D01*
X23467337Y-51848129D01*
X23685319Y-51757839D01*
X23685328Y-51757834D01*
X23889681Y-51639850D01*
X23971223Y-51577279D01*
X23971223Y-51577276D01*
X23134987Y-50741041D01*
X23195390Y-50716022D01*
X23301851Y-50644888D01*
X23392388Y-50554351D01*
X23463522Y-50447890D01*
X23488541Y-50387487D01*
X24324776Y-51223723D01*
X24324779Y-51223723D01*
X24387350Y-51142181D01*
X24505334Y-50937828D01*
X24505339Y-50937819D01*
X24595629Y-50719837D01*
X24656700Y-50491914D01*
X24687499Y-50257985D01*
X24687500Y-50257971D01*
X24687500Y-50022028D01*
X24687499Y-50022014D01*
X24656700Y-49788085D01*
X24595629Y-49560162D01*
X24505339Y-49342180D01*
X24505331Y-49342164D01*
X24489612Y-49314938D01*
X24489611Y-49314937D01*
X24387355Y-49137828D01*
X24387354Y-49137827D01*
X24324777Y-49056275D01*
X23488541Y-49892511D01*
X23463522Y-49832110D01*
X23392388Y-49725649D01*
X23301851Y-49635112D01*
X23195390Y-49563978D01*
X23134988Y-49538958D01*
X23971223Y-48702721D01*
X23889672Y-48640145D01*
X23889671Y-48640144D01*
X23685328Y-48522165D01*
X23685319Y-48522160D01*
X23467336Y-48431870D01*
X23467338Y-48431870D01*
X23239414Y-48370799D01*
X23005485Y-48340000D01*
X22769514Y-48340000D01*
X22535585Y-48370799D01*
X22307662Y-48431870D01*
X22089680Y-48522160D01*
X22089671Y-48522165D01*
X21885328Y-48640144D01*
X21885318Y-48640150D01*
X21803775Y-48702720D01*
X21803775Y-48702721D01*
X22640012Y-49538958D01*
X22579610Y-49563978D01*
X22473149Y-49635112D01*
X22382612Y-49725649D01*
X22311478Y-49832110D01*
X22286458Y-49892512D01*
X21450221Y-49056275D01*
X21450220Y-49056275D01*
X21387650Y-49137818D01*
X21387644Y-49137828D01*
X21269665Y-49342171D01*
X21269660Y-49342180D01*
X21179370Y-49560162D01*
X21118299Y-49788085D01*
X21087500Y-50022014D01*
X19660000Y-50022014D01*
X19660000Y-47964000D01*
X19679685Y-47896961D01*
X19732489Y-47851206D01*
X19784000Y-47840000D01*
X29651450Y-47840000D01*
X29718489Y-47859685D01*
X29764244Y-47912489D01*
X29774188Y-47981647D01*
X29745163Y-48045203D01*
X29739131Y-48051681D01*
X29630276Y-48160535D01*
X29630272Y-48160540D01*
X29505379Y-48332442D01*
X29408904Y-48521782D01*
X29343242Y-48723870D01*
X29343242Y-48723873D01*
X29332769Y-48790000D01*
X30226988Y-48790000D01*
X30194075Y-48847007D01*
X30160000Y-48974174D01*
X30160000Y-49105826D01*
X30194075Y-49232993D01*
X30226988Y-49290000D01*
X29332769Y-49290000D01*
X29343242Y-49356126D01*
X29343242Y-49356129D01*
X29408904Y-49558217D01*
X29505379Y-49747557D01*
X29630272Y-49919459D01*
X29630276Y-49919464D01*
X29780535Y-50069723D01*
X29780540Y-50069727D01*
X29952442Y-50194620D01*
X30141782Y-50291095D01*
X30343871Y-50356757D01*
X30410000Y-50367231D01*
X30410000Y-49473012D01*
X30467007Y-49505925D01*
X30594174Y-49540000D01*
X30725826Y-49540000D01*
X30852993Y-49505925D01*
X30910000Y-49473012D01*
X30910000Y-50367230D01*
X30976126Y-50356757D01*
X30976129Y-50356757D01*
X31178217Y-50291095D01*
X31367557Y-50194620D01*
X31539459Y-50069727D01*
X31539464Y-50069723D01*
X31588858Y-50020330D01*
X31689723Y-49919464D01*
X31689727Y-49919459D01*
X31814620Y-49747557D01*
X31911095Y-49558217D01*
X31976757Y-49356129D01*
X31976757Y-49356126D01*
X31987231Y-49290000D01*
X31093012Y-49290000D01*
X31125925Y-49232993D01*
X31160000Y-49105826D01*
X31160000Y-48974174D01*
X31125925Y-48847007D01*
X31093012Y-48790000D01*
X31987231Y-48790000D01*
X31976757Y-48723873D01*
X31976757Y-48723870D01*
X31911095Y-48521782D01*
X31814620Y-48332442D01*
X31689727Y-48160540D01*
X31689723Y-48160535D01*
X31580869Y-48051681D01*
X31547384Y-47990358D01*
X31552368Y-47920666D01*
X31594240Y-47864733D01*
X31659704Y-47840316D01*
X31668550Y-47840000D01*
X32660000Y-47840000D01*
X32660000Y-45464000D01*
X32679685Y-45396961D01*
X32732489Y-45351206D01*
X32784000Y-45340000D01*
X39886964Y-45340000D01*
X39995049Y-45340000D01*
X40031876Y-45358434D01*
G37*
%TD.AperFunction*%
%TD*%
M02*
