%TF.GenerationSoftware,KiCad,Pcbnew,9.0.4*%
%TF.CreationDate,2025-11-02T19:48:28-05:00*%
%TF.ProjectId,25-26-Solenoid-Board,32352d32-362d-4536-9f6c-656e6f69642d,1.2*%
%TF.SameCoordinates,Original*%
%TF.FileFunction,Legend,Bot*%
%TF.FilePolarity,Positive*%
%FSLAX46Y46*%
G04 Gerber Fmt 4.6, Leading zero omitted, Abs format (unit mm)*
G04 Created by KiCad (PCBNEW 9.0.4) date 2025-11-02 19:48:28*
%MOMM*%
%LPD*%
G01*
G04 APERTURE LIST*
%ADD10C,0.100000*%
%ADD11C,0.150000*%
%ADD12C,0.000000*%
%ADD13C,0.120000*%
G04 APERTURE END LIST*
D10*
X113119925Y-88147475D02*
X113596115Y-88147475D01*
X113596115Y-88147475D02*
X113596115Y-87147475D01*
X112643734Y-88147475D02*
X112738972Y-88099856D01*
X112738972Y-88099856D02*
X112786591Y-88052236D01*
X112786591Y-88052236D02*
X112834210Y-87956998D01*
X112834210Y-87956998D02*
X112834210Y-87671284D01*
X112834210Y-87671284D02*
X112786591Y-87576046D01*
X112786591Y-87576046D02*
X112738972Y-87528427D01*
X112738972Y-87528427D02*
X112643734Y-87480808D01*
X112643734Y-87480808D02*
X112500877Y-87480808D01*
X112500877Y-87480808D02*
X112405639Y-87528427D01*
X112405639Y-87528427D02*
X112358020Y-87576046D01*
X112358020Y-87576046D02*
X112310401Y-87671284D01*
X112310401Y-87671284D02*
X112310401Y-87956998D01*
X112310401Y-87956998D02*
X112358020Y-88052236D01*
X112358020Y-88052236D02*
X112405639Y-88099856D01*
X112405639Y-88099856D02*
X112500877Y-88147475D01*
X112500877Y-88147475D02*
X112643734Y-88147475D01*
X111453258Y-87480808D02*
X111453258Y-88290332D01*
X111453258Y-88290332D02*
X111500877Y-88385570D01*
X111500877Y-88385570D02*
X111548496Y-88433189D01*
X111548496Y-88433189D02*
X111643734Y-88480808D01*
X111643734Y-88480808D02*
X111786591Y-88480808D01*
X111786591Y-88480808D02*
X111881829Y-88433189D01*
X111453258Y-88099856D02*
X111548496Y-88147475D01*
X111548496Y-88147475D02*
X111738972Y-88147475D01*
X111738972Y-88147475D02*
X111834210Y-88099856D01*
X111834210Y-88099856D02*
X111881829Y-88052236D01*
X111881829Y-88052236D02*
X111929448Y-87956998D01*
X111929448Y-87956998D02*
X111929448Y-87671284D01*
X111929448Y-87671284D02*
X111881829Y-87576046D01*
X111881829Y-87576046D02*
X111834210Y-87528427D01*
X111834210Y-87528427D02*
X111738972Y-87480808D01*
X111738972Y-87480808D02*
X111548496Y-87480808D01*
X111548496Y-87480808D02*
X111453258Y-87528427D01*
X110548496Y-88147475D02*
X110548496Y-87623665D01*
X110548496Y-87623665D02*
X110596115Y-87528427D01*
X110596115Y-87528427D02*
X110691353Y-87480808D01*
X110691353Y-87480808D02*
X110881829Y-87480808D01*
X110881829Y-87480808D02*
X110977067Y-87528427D01*
X110548496Y-88099856D02*
X110643734Y-88147475D01*
X110643734Y-88147475D02*
X110881829Y-88147475D01*
X110881829Y-88147475D02*
X110977067Y-88099856D01*
X110977067Y-88099856D02*
X111024686Y-88004617D01*
X111024686Y-88004617D02*
X111024686Y-87909379D01*
X111024686Y-87909379D02*
X110977067Y-87814141D01*
X110977067Y-87814141D02*
X110881829Y-87766522D01*
X110881829Y-87766522D02*
X110643734Y-87766522D01*
X110643734Y-87766522D02*
X110548496Y-87718903D01*
X110072305Y-87480808D02*
X110072305Y-88147475D01*
X110072305Y-87576046D02*
X110024686Y-87528427D01*
X110024686Y-87528427D02*
X109929448Y-87480808D01*
X109929448Y-87480808D02*
X109786591Y-87480808D01*
X109786591Y-87480808D02*
X109691353Y-87528427D01*
X109691353Y-87528427D02*
X109643734Y-87623665D01*
X109643734Y-87623665D02*
X109643734Y-88147475D01*
X107834210Y-88147475D02*
X108167543Y-87671284D01*
X108405638Y-88147475D02*
X108405638Y-87147475D01*
X108405638Y-87147475D02*
X108024686Y-87147475D01*
X108024686Y-87147475D02*
X107929448Y-87195094D01*
X107929448Y-87195094D02*
X107881829Y-87242713D01*
X107881829Y-87242713D02*
X107834210Y-87337951D01*
X107834210Y-87337951D02*
X107834210Y-87480808D01*
X107834210Y-87480808D02*
X107881829Y-87576046D01*
X107881829Y-87576046D02*
X107929448Y-87623665D01*
X107929448Y-87623665D02*
X108024686Y-87671284D01*
X108024686Y-87671284D02*
X108405638Y-87671284D01*
X107262781Y-88147475D02*
X107358019Y-88099856D01*
X107358019Y-88099856D02*
X107405638Y-88052236D01*
X107405638Y-88052236D02*
X107453257Y-87956998D01*
X107453257Y-87956998D02*
X107453257Y-87671284D01*
X107453257Y-87671284D02*
X107405638Y-87576046D01*
X107405638Y-87576046D02*
X107358019Y-87528427D01*
X107358019Y-87528427D02*
X107262781Y-87480808D01*
X107262781Y-87480808D02*
X107119924Y-87480808D01*
X107119924Y-87480808D02*
X107024686Y-87528427D01*
X107024686Y-87528427D02*
X106977067Y-87576046D01*
X106977067Y-87576046D02*
X106929448Y-87671284D01*
X106929448Y-87671284D02*
X106929448Y-87956998D01*
X106929448Y-87956998D02*
X106977067Y-88052236D01*
X106977067Y-88052236D02*
X107024686Y-88099856D01*
X107024686Y-88099856D02*
X107119924Y-88147475D01*
X107119924Y-88147475D02*
X107262781Y-88147475D01*
X106500876Y-88147475D02*
X106500876Y-87147475D01*
X106500876Y-87528427D02*
X106405638Y-87480808D01*
X106405638Y-87480808D02*
X106215162Y-87480808D01*
X106215162Y-87480808D02*
X106119924Y-87528427D01*
X106119924Y-87528427D02*
X106072305Y-87576046D01*
X106072305Y-87576046D02*
X106024686Y-87671284D01*
X106024686Y-87671284D02*
X106024686Y-87956998D01*
X106024686Y-87956998D02*
X106072305Y-88052236D01*
X106072305Y-88052236D02*
X106119924Y-88099856D01*
X106119924Y-88099856D02*
X106215162Y-88147475D01*
X106215162Y-88147475D02*
X106405638Y-88147475D01*
X106405638Y-88147475D02*
X106500876Y-88099856D01*
X105215162Y-88099856D02*
X105310400Y-88147475D01*
X105310400Y-88147475D02*
X105500876Y-88147475D01*
X105500876Y-88147475D02*
X105596114Y-88099856D01*
X105596114Y-88099856D02*
X105643733Y-88004617D01*
X105643733Y-88004617D02*
X105643733Y-87623665D01*
X105643733Y-87623665D02*
X105596114Y-87528427D01*
X105596114Y-87528427D02*
X105500876Y-87480808D01*
X105500876Y-87480808D02*
X105310400Y-87480808D01*
X105310400Y-87480808D02*
X105215162Y-87528427D01*
X105215162Y-87528427D02*
X105167543Y-87623665D01*
X105167543Y-87623665D02*
X105167543Y-87718903D01*
X105167543Y-87718903D02*
X105643733Y-87814141D01*
X104738971Y-88147475D02*
X104738971Y-87480808D01*
X104738971Y-87671284D02*
X104691352Y-87576046D01*
X104691352Y-87576046D02*
X104643733Y-87528427D01*
X104643733Y-87528427D02*
X104548495Y-87480808D01*
X104548495Y-87480808D02*
X104453257Y-87480808D01*
X104262780Y-87480808D02*
X103881828Y-87480808D01*
X104119923Y-87147475D02*
X104119923Y-88004617D01*
X104119923Y-88004617D02*
X104072304Y-88099856D01*
X104072304Y-88099856D02*
X103977066Y-88147475D01*
X103977066Y-88147475D02*
X103881828Y-88147475D01*
X103596113Y-88099856D02*
X103500875Y-88147475D01*
X103500875Y-88147475D02*
X103310399Y-88147475D01*
X103310399Y-88147475D02*
X103215161Y-88099856D01*
X103215161Y-88099856D02*
X103167542Y-88004617D01*
X103167542Y-88004617D02*
X103167542Y-87956998D01*
X103167542Y-87956998D02*
X103215161Y-87861760D01*
X103215161Y-87861760D02*
X103310399Y-87814141D01*
X103310399Y-87814141D02*
X103453256Y-87814141D01*
X103453256Y-87814141D02*
X103548494Y-87766522D01*
X103548494Y-87766522D02*
X103596113Y-87671284D01*
X103596113Y-87671284D02*
X103596113Y-87623665D01*
X103596113Y-87623665D02*
X103548494Y-87528427D01*
X103548494Y-87528427D02*
X103453256Y-87480808D01*
X103453256Y-87480808D02*
X103310399Y-87480808D01*
X103310399Y-87480808D02*
X103215161Y-87528427D01*
X102596113Y-88147475D02*
X102691351Y-88099856D01*
X102691351Y-88099856D02*
X102738970Y-88052236D01*
X102738970Y-88052236D02*
X102786589Y-87956998D01*
X102786589Y-87956998D02*
X102786589Y-87671284D01*
X102786589Y-87671284D02*
X102738970Y-87576046D01*
X102738970Y-87576046D02*
X102691351Y-87528427D01*
X102691351Y-87528427D02*
X102596113Y-87480808D01*
X102596113Y-87480808D02*
X102453256Y-87480808D01*
X102453256Y-87480808D02*
X102358018Y-87528427D01*
X102358018Y-87528427D02*
X102310399Y-87576046D01*
X102310399Y-87576046D02*
X102262780Y-87671284D01*
X102262780Y-87671284D02*
X102262780Y-87956998D01*
X102262780Y-87956998D02*
X102310399Y-88052236D01*
X102310399Y-88052236D02*
X102358018Y-88099856D01*
X102358018Y-88099856D02*
X102453256Y-88147475D01*
X102453256Y-88147475D02*
X102596113Y-88147475D01*
X101834208Y-87480808D02*
X101834208Y-88147475D01*
X101834208Y-87576046D02*
X101786589Y-87528427D01*
X101786589Y-87528427D02*
X101691351Y-87480808D01*
X101691351Y-87480808D02*
X101548494Y-87480808D01*
X101548494Y-87480808D02*
X101453256Y-87528427D01*
X101453256Y-87528427D02*
X101405637Y-87623665D01*
X101405637Y-87623665D02*
X101405637Y-88147475D01*
X113643734Y-88852657D02*
X113596115Y-88805038D01*
X113596115Y-88805038D02*
X113500877Y-88757419D01*
X113500877Y-88757419D02*
X113262782Y-88757419D01*
X113262782Y-88757419D02*
X113167544Y-88805038D01*
X113167544Y-88805038D02*
X113119925Y-88852657D01*
X113119925Y-88852657D02*
X113072306Y-88947895D01*
X113072306Y-88947895D02*
X113072306Y-89043133D01*
X113072306Y-89043133D02*
X113119925Y-89185990D01*
X113119925Y-89185990D02*
X113691353Y-89757419D01*
X113691353Y-89757419D02*
X113072306Y-89757419D01*
X112167544Y-88757419D02*
X112643734Y-88757419D01*
X112643734Y-88757419D02*
X112691353Y-89233609D01*
X112691353Y-89233609D02*
X112643734Y-89185990D01*
X112643734Y-89185990D02*
X112548496Y-89138371D01*
X112548496Y-89138371D02*
X112310401Y-89138371D01*
X112310401Y-89138371D02*
X112215163Y-89185990D01*
X112215163Y-89185990D02*
X112167544Y-89233609D01*
X112167544Y-89233609D02*
X112119925Y-89328847D01*
X112119925Y-89328847D02*
X112119925Y-89566942D01*
X112119925Y-89566942D02*
X112167544Y-89662180D01*
X112167544Y-89662180D02*
X112215163Y-89709800D01*
X112215163Y-89709800D02*
X112310401Y-89757419D01*
X112310401Y-89757419D02*
X112548496Y-89757419D01*
X112548496Y-89757419D02*
X112643734Y-89709800D01*
X112643734Y-89709800D02*
X112691353Y-89662180D01*
X111691353Y-89376466D02*
X110929449Y-89376466D01*
X110500877Y-88852657D02*
X110453258Y-88805038D01*
X110453258Y-88805038D02*
X110358020Y-88757419D01*
X110358020Y-88757419D02*
X110119925Y-88757419D01*
X110119925Y-88757419D02*
X110024687Y-88805038D01*
X110024687Y-88805038D02*
X109977068Y-88852657D01*
X109977068Y-88852657D02*
X109929449Y-88947895D01*
X109929449Y-88947895D02*
X109929449Y-89043133D01*
X109929449Y-89043133D02*
X109977068Y-89185990D01*
X109977068Y-89185990D02*
X110548496Y-89757419D01*
X110548496Y-89757419D02*
X109929449Y-89757419D01*
X109072306Y-88757419D02*
X109262782Y-88757419D01*
X109262782Y-88757419D02*
X109358020Y-88805038D01*
X109358020Y-88805038D02*
X109405639Y-88852657D01*
X109405639Y-88852657D02*
X109500877Y-88995514D01*
X109500877Y-88995514D02*
X109548496Y-89185990D01*
X109548496Y-89185990D02*
X109548496Y-89566942D01*
X109548496Y-89566942D02*
X109500877Y-89662180D01*
X109500877Y-89662180D02*
X109453258Y-89709800D01*
X109453258Y-89709800D02*
X109358020Y-89757419D01*
X109358020Y-89757419D02*
X109167544Y-89757419D01*
X109167544Y-89757419D02*
X109072306Y-89709800D01*
X109072306Y-89709800D02*
X109024687Y-89662180D01*
X109024687Y-89662180D02*
X108977068Y-89566942D01*
X108977068Y-89566942D02*
X108977068Y-89328847D01*
X108977068Y-89328847D02*
X109024687Y-89233609D01*
X109024687Y-89233609D02*
X109072306Y-89185990D01*
X109072306Y-89185990D02*
X109167544Y-89138371D01*
X109167544Y-89138371D02*
X109358020Y-89138371D01*
X109358020Y-89138371D02*
X109453258Y-89185990D01*
X109453258Y-89185990D02*
X109500877Y-89233609D01*
X109500877Y-89233609D02*
X109548496Y-89328847D01*
X107834210Y-89709800D02*
X107691353Y-89757419D01*
X107691353Y-89757419D02*
X107453258Y-89757419D01*
X107453258Y-89757419D02*
X107358020Y-89709800D01*
X107358020Y-89709800D02*
X107310401Y-89662180D01*
X107310401Y-89662180D02*
X107262782Y-89566942D01*
X107262782Y-89566942D02*
X107262782Y-89471704D01*
X107262782Y-89471704D02*
X107310401Y-89376466D01*
X107310401Y-89376466D02*
X107358020Y-89328847D01*
X107358020Y-89328847D02*
X107453258Y-89281228D01*
X107453258Y-89281228D02*
X107643734Y-89233609D01*
X107643734Y-89233609D02*
X107738972Y-89185990D01*
X107738972Y-89185990D02*
X107786591Y-89138371D01*
X107786591Y-89138371D02*
X107834210Y-89043133D01*
X107834210Y-89043133D02*
X107834210Y-88947895D01*
X107834210Y-88947895D02*
X107786591Y-88852657D01*
X107786591Y-88852657D02*
X107738972Y-88805038D01*
X107738972Y-88805038D02*
X107643734Y-88757419D01*
X107643734Y-88757419D02*
X107405639Y-88757419D01*
X107405639Y-88757419D02*
X107262782Y-88805038D01*
X106691353Y-89757419D02*
X106786591Y-89709800D01*
X106786591Y-89709800D02*
X106834210Y-89662180D01*
X106834210Y-89662180D02*
X106881829Y-89566942D01*
X106881829Y-89566942D02*
X106881829Y-89281228D01*
X106881829Y-89281228D02*
X106834210Y-89185990D01*
X106834210Y-89185990D02*
X106786591Y-89138371D01*
X106786591Y-89138371D02*
X106691353Y-89090752D01*
X106691353Y-89090752D02*
X106548496Y-89090752D01*
X106548496Y-89090752D02*
X106453258Y-89138371D01*
X106453258Y-89138371D02*
X106405639Y-89185990D01*
X106405639Y-89185990D02*
X106358020Y-89281228D01*
X106358020Y-89281228D02*
X106358020Y-89566942D01*
X106358020Y-89566942D02*
X106405639Y-89662180D01*
X106405639Y-89662180D02*
X106453258Y-89709800D01*
X106453258Y-89709800D02*
X106548496Y-89757419D01*
X106548496Y-89757419D02*
X106691353Y-89757419D01*
X105786591Y-89757419D02*
X105881829Y-89709800D01*
X105881829Y-89709800D02*
X105929448Y-89614561D01*
X105929448Y-89614561D02*
X105929448Y-88757419D01*
X105024686Y-89709800D02*
X105119924Y-89757419D01*
X105119924Y-89757419D02*
X105310400Y-89757419D01*
X105310400Y-89757419D02*
X105405638Y-89709800D01*
X105405638Y-89709800D02*
X105453257Y-89614561D01*
X105453257Y-89614561D02*
X105453257Y-89233609D01*
X105453257Y-89233609D02*
X105405638Y-89138371D01*
X105405638Y-89138371D02*
X105310400Y-89090752D01*
X105310400Y-89090752D02*
X105119924Y-89090752D01*
X105119924Y-89090752D02*
X105024686Y-89138371D01*
X105024686Y-89138371D02*
X104977067Y-89233609D01*
X104977067Y-89233609D02*
X104977067Y-89328847D01*
X104977067Y-89328847D02*
X105453257Y-89424085D01*
X104548495Y-89090752D02*
X104548495Y-89757419D01*
X104548495Y-89185990D02*
X104500876Y-89138371D01*
X104500876Y-89138371D02*
X104405638Y-89090752D01*
X104405638Y-89090752D02*
X104262781Y-89090752D01*
X104262781Y-89090752D02*
X104167543Y-89138371D01*
X104167543Y-89138371D02*
X104119924Y-89233609D01*
X104119924Y-89233609D02*
X104119924Y-89757419D01*
X103500876Y-89757419D02*
X103596114Y-89709800D01*
X103596114Y-89709800D02*
X103643733Y-89662180D01*
X103643733Y-89662180D02*
X103691352Y-89566942D01*
X103691352Y-89566942D02*
X103691352Y-89281228D01*
X103691352Y-89281228D02*
X103643733Y-89185990D01*
X103643733Y-89185990D02*
X103596114Y-89138371D01*
X103596114Y-89138371D02*
X103500876Y-89090752D01*
X103500876Y-89090752D02*
X103358019Y-89090752D01*
X103358019Y-89090752D02*
X103262781Y-89138371D01*
X103262781Y-89138371D02*
X103215162Y-89185990D01*
X103215162Y-89185990D02*
X103167543Y-89281228D01*
X103167543Y-89281228D02*
X103167543Y-89566942D01*
X103167543Y-89566942D02*
X103215162Y-89662180D01*
X103215162Y-89662180D02*
X103262781Y-89709800D01*
X103262781Y-89709800D02*
X103358019Y-89757419D01*
X103358019Y-89757419D02*
X103500876Y-89757419D01*
X102738971Y-89757419D02*
X102738971Y-89090752D01*
X102738971Y-88757419D02*
X102786590Y-88805038D01*
X102786590Y-88805038D02*
X102738971Y-88852657D01*
X102738971Y-88852657D02*
X102691352Y-88805038D01*
X102691352Y-88805038D02*
X102738971Y-88757419D01*
X102738971Y-88757419D02*
X102738971Y-88852657D01*
X101834210Y-89757419D02*
X101834210Y-88757419D01*
X101834210Y-89709800D02*
X101929448Y-89757419D01*
X101929448Y-89757419D02*
X102119924Y-89757419D01*
X102119924Y-89757419D02*
X102215162Y-89709800D01*
X102215162Y-89709800D02*
X102262781Y-89662180D01*
X102262781Y-89662180D02*
X102310400Y-89566942D01*
X102310400Y-89566942D02*
X102310400Y-89281228D01*
X102310400Y-89281228D02*
X102262781Y-89185990D01*
X102262781Y-89185990D02*
X102215162Y-89138371D01*
X102215162Y-89138371D02*
X102119924Y-89090752D01*
X102119924Y-89090752D02*
X101929448Y-89090752D01*
X101929448Y-89090752D02*
X101834210Y-89138371D01*
X100596114Y-89757419D02*
X100596114Y-88757419D01*
X100596114Y-88757419D02*
X100358019Y-88757419D01*
X100358019Y-88757419D02*
X100215162Y-88805038D01*
X100215162Y-88805038D02*
X100119924Y-88900276D01*
X100119924Y-88900276D02*
X100072305Y-88995514D01*
X100072305Y-88995514D02*
X100024686Y-89185990D01*
X100024686Y-89185990D02*
X100024686Y-89328847D01*
X100024686Y-89328847D02*
X100072305Y-89519323D01*
X100072305Y-89519323D02*
X100119924Y-89614561D01*
X100119924Y-89614561D02*
X100215162Y-89709800D01*
X100215162Y-89709800D02*
X100358019Y-89757419D01*
X100358019Y-89757419D02*
X100596114Y-89757419D01*
X99596114Y-89757419D02*
X99596114Y-89090752D01*
X99596114Y-89281228D02*
X99548495Y-89185990D01*
X99548495Y-89185990D02*
X99500876Y-89138371D01*
X99500876Y-89138371D02*
X99405638Y-89090752D01*
X99405638Y-89090752D02*
X99310400Y-89090752D01*
X98977066Y-89757419D02*
X98977066Y-89090752D01*
X98977066Y-88757419D02*
X99024685Y-88805038D01*
X99024685Y-88805038D02*
X98977066Y-88852657D01*
X98977066Y-88852657D02*
X98929447Y-88805038D01*
X98929447Y-88805038D02*
X98977066Y-88757419D01*
X98977066Y-88757419D02*
X98977066Y-88852657D01*
X98596114Y-89090752D02*
X98358019Y-89757419D01*
X98358019Y-89757419D02*
X98119924Y-89090752D01*
X97358019Y-89709800D02*
X97453257Y-89757419D01*
X97453257Y-89757419D02*
X97643733Y-89757419D01*
X97643733Y-89757419D02*
X97738971Y-89709800D01*
X97738971Y-89709800D02*
X97786590Y-89614561D01*
X97786590Y-89614561D02*
X97786590Y-89233609D01*
X97786590Y-89233609D02*
X97738971Y-89138371D01*
X97738971Y-89138371D02*
X97643733Y-89090752D01*
X97643733Y-89090752D02*
X97453257Y-89090752D01*
X97453257Y-89090752D02*
X97358019Y-89138371D01*
X97358019Y-89138371D02*
X97310400Y-89233609D01*
X97310400Y-89233609D02*
X97310400Y-89328847D01*
X97310400Y-89328847D02*
X97786590Y-89424085D01*
X96881828Y-89757419D02*
X96881828Y-89090752D01*
X96881828Y-89281228D02*
X96834209Y-89185990D01*
X96834209Y-89185990D02*
X96786590Y-89138371D01*
X96786590Y-89138371D02*
X96691352Y-89090752D01*
X96691352Y-89090752D02*
X96596114Y-89090752D01*
X113072306Y-90414982D02*
X113167544Y-90367363D01*
X113167544Y-90367363D02*
X113310401Y-90367363D01*
X113310401Y-90367363D02*
X113453258Y-90414982D01*
X113453258Y-90414982D02*
X113548496Y-90510220D01*
X113548496Y-90510220D02*
X113596115Y-90605458D01*
X113596115Y-90605458D02*
X113643734Y-90795934D01*
X113643734Y-90795934D02*
X113643734Y-90938791D01*
X113643734Y-90938791D02*
X113596115Y-91129267D01*
X113596115Y-91129267D02*
X113548496Y-91224505D01*
X113548496Y-91224505D02*
X113453258Y-91319744D01*
X113453258Y-91319744D02*
X113310401Y-91367363D01*
X113310401Y-91367363D02*
X113215163Y-91367363D01*
X113215163Y-91367363D02*
X113072306Y-91319744D01*
X113072306Y-91319744D02*
X113024687Y-91272124D01*
X113024687Y-91272124D02*
X113024687Y-90938791D01*
X113024687Y-90938791D02*
X113215163Y-90938791D01*
X112453258Y-91367363D02*
X112548496Y-91319744D01*
X112548496Y-91319744D02*
X112596115Y-91272124D01*
X112596115Y-91272124D02*
X112643734Y-91176886D01*
X112643734Y-91176886D02*
X112643734Y-90891172D01*
X112643734Y-90891172D02*
X112596115Y-90795934D01*
X112596115Y-90795934D02*
X112548496Y-90748315D01*
X112548496Y-90748315D02*
X112453258Y-90700696D01*
X112453258Y-90700696D02*
X112310401Y-90700696D01*
X112310401Y-90700696D02*
X112215163Y-90748315D01*
X112215163Y-90748315D02*
X112167544Y-90795934D01*
X112167544Y-90795934D02*
X112119925Y-90891172D01*
X112119925Y-90891172D02*
X112119925Y-91176886D01*
X112119925Y-91176886D02*
X112167544Y-91272124D01*
X112167544Y-91272124D02*
X112215163Y-91319744D01*
X112215163Y-91319744D02*
X112310401Y-91367363D01*
X112310401Y-91367363D02*
X112453258Y-91367363D01*
X111548496Y-91367363D02*
X111643734Y-91319744D01*
X111643734Y-91319744D02*
X111691353Y-91224505D01*
X111691353Y-91224505D02*
X111691353Y-90367363D01*
X110738972Y-91367363D02*
X110738972Y-90367363D01*
X110738972Y-91319744D02*
X110834210Y-91367363D01*
X110834210Y-91367363D02*
X111024686Y-91367363D01*
X111024686Y-91367363D02*
X111119924Y-91319744D01*
X111119924Y-91319744D02*
X111167543Y-91272124D01*
X111167543Y-91272124D02*
X111215162Y-91176886D01*
X111215162Y-91176886D02*
X111215162Y-90891172D01*
X111215162Y-90891172D02*
X111167543Y-90795934D01*
X111167543Y-90795934D02*
X111119924Y-90748315D01*
X111119924Y-90748315D02*
X111024686Y-90700696D01*
X111024686Y-90700696D02*
X110834210Y-90700696D01*
X110834210Y-90700696D02*
X110738972Y-90748315D01*
X108929448Y-91367363D02*
X109262781Y-90891172D01*
X109500876Y-91367363D02*
X109500876Y-90367363D01*
X109500876Y-90367363D02*
X109119924Y-90367363D01*
X109119924Y-90367363D02*
X109024686Y-90414982D01*
X109024686Y-90414982D02*
X108977067Y-90462601D01*
X108977067Y-90462601D02*
X108929448Y-90557839D01*
X108929448Y-90557839D02*
X108929448Y-90700696D01*
X108929448Y-90700696D02*
X108977067Y-90795934D01*
X108977067Y-90795934D02*
X109024686Y-90843553D01*
X109024686Y-90843553D02*
X109119924Y-90891172D01*
X109119924Y-90891172D02*
X109500876Y-90891172D01*
X108072305Y-90700696D02*
X108072305Y-91367363D01*
X108500876Y-90700696D02*
X108500876Y-91224505D01*
X108500876Y-91224505D02*
X108453257Y-91319744D01*
X108453257Y-91319744D02*
X108358019Y-91367363D01*
X108358019Y-91367363D02*
X108215162Y-91367363D01*
X108215162Y-91367363D02*
X108119924Y-91319744D01*
X108119924Y-91319744D02*
X108072305Y-91272124D01*
X107643733Y-91319744D02*
X107548495Y-91367363D01*
X107548495Y-91367363D02*
X107358019Y-91367363D01*
X107358019Y-91367363D02*
X107262781Y-91319744D01*
X107262781Y-91319744D02*
X107215162Y-91224505D01*
X107215162Y-91224505D02*
X107215162Y-91176886D01*
X107215162Y-91176886D02*
X107262781Y-91081648D01*
X107262781Y-91081648D02*
X107358019Y-91034029D01*
X107358019Y-91034029D02*
X107500876Y-91034029D01*
X107500876Y-91034029D02*
X107596114Y-90986410D01*
X107596114Y-90986410D02*
X107643733Y-90891172D01*
X107643733Y-90891172D02*
X107643733Y-90843553D01*
X107643733Y-90843553D02*
X107596114Y-90748315D01*
X107596114Y-90748315D02*
X107500876Y-90700696D01*
X107500876Y-90700696D02*
X107358019Y-90700696D01*
X107358019Y-90700696D02*
X107262781Y-90748315D01*
X106786590Y-91367363D02*
X106786590Y-90367363D01*
X106358019Y-91367363D02*
X106358019Y-90843553D01*
X106358019Y-90843553D02*
X106405638Y-90748315D01*
X106405638Y-90748315D02*
X106500876Y-90700696D01*
X106500876Y-90700696D02*
X106643733Y-90700696D01*
X106643733Y-90700696D02*
X106738971Y-90748315D01*
X106738971Y-90748315D02*
X106786590Y-90795934D01*
X104548495Y-91367363D02*
X104881828Y-90891172D01*
X105119923Y-91367363D02*
X105119923Y-90367363D01*
X105119923Y-90367363D02*
X104738971Y-90367363D01*
X104738971Y-90367363D02*
X104643733Y-90414982D01*
X104643733Y-90414982D02*
X104596114Y-90462601D01*
X104596114Y-90462601D02*
X104548495Y-90557839D01*
X104548495Y-90557839D02*
X104548495Y-90700696D01*
X104548495Y-90700696D02*
X104596114Y-90795934D01*
X104596114Y-90795934D02*
X104643733Y-90843553D01*
X104643733Y-90843553D02*
X104738971Y-90891172D01*
X104738971Y-90891172D02*
X105119923Y-90891172D01*
X103977066Y-91367363D02*
X104072304Y-91319744D01*
X104072304Y-91319744D02*
X104119923Y-91272124D01*
X104119923Y-91272124D02*
X104167542Y-91176886D01*
X104167542Y-91176886D02*
X104167542Y-90891172D01*
X104167542Y-90891172D02*
X104119923Y-90795934D01*
X104119923Y-90795934D02*
X104072304Y-90748315D01*
X104072304Y-90748315D02*
X103977066Y-90700696D01*
X103977066Y-90700696D02*
X103834209Y-90700696D01*
X103834209Y-90700696D02*
X103738971Y-90748315D01*
X103738971Y-90748315D02*
X103691352Y-90795934D01*
X103691352Y-90795934D02*
X103643733Y-90891172D01*
X103643733Y-90891172D02*
X103643733Y-91176886D01*
X103643733Y-91176886D02*
X103691352Y-91272124D01*
X103691352Y-91272124D02*
X103738971Y-91319744D01*
X103738971Y-91319744D02*
X103834209Y-91367363D01*
X103834209Y-91367363D02*
X103977066Y-91367363D01*
X103215161Y-91367363D02*
X103215161Y-90367363D01*
X103215161Y-90748315D02*
X103119923Y-90700696D01*
X103119923Y-90700696D02*
X102929447Y-90700696D01*
X102929447Y-90700696D02*
X102834209Y-90748315D01*
X102834209Y-90748315D02*
X102786590Y-90795934D01*
X102786590Y-90795934D02*
X102738971Y-90891172D01*
X102738971Y-90891172D02*
X102738971Y-91176886D01*
X102738971Y-91176886D02*
X102786590Y-91272124D01*
X102786590Y-91272124D02*
X102834209Y-91319744D01*
X102834209Y-91319744D02*
X102929447Y-91367363D01*
X102929447Y-91367363D02*
X103119923Y-91367363D01*
X103119923Y-91367363D02*
X103215161Y-91319744D01*
X102167542Y-91367363D02*
X102262780Y-91319744D01*
X102262780Y-91319744D02*
X102310399Y-91272124D01*
X102310399Y-91272124D02*
X102358018Y-91176886D01*
X102358018Y-91176886D02*
X102358018Y-90891172D01*
X102358018Y-90891172D02*
X102310399Y-90795934D01*
X102310399Y-90795934D02*
X102262780Y-90748315D01*
X102262780Y-90748315D02*
X102167542Y-90700696D01*
X102167542Y-90700696D02*
X102024685Y-90700696D01*
X102024685Y-90700696D02*
X101929447Y-90748315D01*
X101929447Y-90748315D02*
X101881828Y-90795934D01*
X101881828Y-90795934D02*
X101834209Y-90891172D01*
X101834209Y-90891172D02*
X101834209Y-91176886D01*
X101834209Y-91176886D02*
X101881828Y-91272124D01*
X101881828Y-91272124D02*
X101929447Y-91319744D01*
X101929447Y-91319744D02*
X102024685Y-91367363D01*
X102024685Y-91367363D02*
X102167542Y-91367363D01*
X101548494Y-90700696D02*
X101167542Y-90700696D01*
X101405637Y-90367363D02*
X101405637Y-91224505D01*
X101405637Y-91224505D02*
X101358018Y-91319744D01*
X101358018Y-91319744D02*
X101262780Y-91367363D01*
X101262780Y-91367363D02*
X101167542Y-91367363D01*
X100834208Y-91367363D02*
X100834208Y-90700696D01*
X100834208Y-90367363D02*
X100881827Y-90414982D01*
X100881827Y-90414982D02*
X100834208Y-90462601D01*
X100834208Y-90462601D02*
X100786589Y-90414982D01*
X100786589Y-90414982D02*
X100834208Y-90367363D01*
X100834208Y-90367363D02*
X100834208Y-90462601D01*
X99929447Y-91319744D02*
X100024685Y-91367363D01*
X100024685Y-91367363D02*
X100215161Y-91367363D01*
X100215161Y-91367363D02*
X100310399Y-91319744D01*
X100310399Y-91319744D02*
X100358018Y-91272124D01*
X100358018Y-91272124D02*
X100405637Y-91176886D01*
X100405637Y-91176886D02*
X100405637Y-90891172D01*
X100405637Y-90891172D02*
X100358018Y-90795934D01*
X100358018Y-90795934D02*
X100310399Y-90748315D01*
X100310399Y-90748315D02*
X100215161Y-90700696D01*
X100215161Y-90700696D02*
X100024685Y-90700696D01*
X100024685Y-90700696D02*
X99929447Y-90748315D01*
X99548494Y-91319744D02*
X99453256Y-91367363D01*
X99453256Y-91367363D02*
X99262780Y-91367363D01*
X99262780Y-91367363D02*
X99167542Y-91319744D01*
X99167542Y-91319744D02*
X99119923Y-91224505D01*
X99119923Y-91224505D02*
X99119923Y-91176886D01*
X99119923Y-91176886D02*
X99167542Y-91081648D01*
X99167542Y-91081648D02*
X99262780Y-91034029D01*
X99262780Y-91034029D02*
X99405637Y-91034029D01*
X99405637Y-91034029D02*
X99500875Y-90986410D01*
X99500875Y-90986410D02*
X99548494Y-90891172D01*
X99548494Y-90891172D02*
X99548494Y-90843553D01*
X99548494Y-90843553D02*
X99500875Y-90748315D01*
X99500875Y-90748315D02*
X99405637Y-90700696D01*
X99405637Y-90700696D02*
X99262780Y-90700696D01*
X99262780Y-90700696D02*
X99167542Y-90748315D01*
D11*
X74616517Y-86034580D02*
X74664136Y-86082200D01*
X74664136Y-86082200D02*
X74806993Y-86129819D01*
X74806993Y-86129819D02*
X74902231Y-86129819D01*
X74902231Y-86129819D02*
X75045088Y-86082200D01*
X75045088Y-86082200D02*
X75140326Y-85986961D01*
X75140326Y-85986961D02*
X75187945Y-85891723D01*
X75187945Y-85891723D02*
X75235564Y-85701247D01*
X75235564Y-85701247D02*
X75235564Y-85558390D01*
X75235564Y-85558390D02*
X75187945Y-85367914D01*
X75187945Y-85367914D02*
X75140326Y-85272676D01*
X75140326Y-85272676D02*
X75045088Y-85177438D01*
X75045088Y-85177438D02*
X74902231Y-85129819D01*
X74902231Y-85129819D02*
X74806993Y-85129819D01*
X74806993Y-85129819D02*
X74664136Y-85177438D01*
X74664136Y-85177438D02*
X74616517Y-85225057D01*
X73711755Y-85129819D02*
X74187945Y-85129819D01*
X74187945Y-85129819D02*
X74235564Y-85606009D01*
X74235564Y-85606009D02*
X74187945Y-85558390D01*
X74187945Y-85558390D02*
X74092707Y-85510771D01*
X74092707Y-85510771D02*
X73854612Y-85510771D01*
X73854612Y-85510771D02*
X73759374Y-85558390D01*
X73759374Y-85558390D02*
X73711755Y-85606009D01*
X73711755Y-85606009D02*
X73664136Y-85701247D01*
X73664136Y-85701247D02*
X73664136Y-85939342D01*
X73664136Y-85939342D02*
X73711755Y-86034580D01*
X73711755Y-86034580D02*
X73759374Y-86082200D01*
X73759374Y-86082200D02*
X73854612Y-86129819D01*
X73854612Y-86129819D02*
X74092707Y-86129819D01*
X74092707Y-86129819D02*
X74187945Y-86082200D01*
X74187945Y-86082200D02*
X74235564Y-86034580D01*
X93066666Y-82959580D02*
X93114285Y-83007200D01*
X93114285Y-83007200D02*
X93257142Y-83054819D01*
X93257142Y-83054819D02*
X93352380Y-83054819D01*
X93352380Y-83054819D02*
X93495237Y-83007200D01*
X93495237Y-83007200D02*
X93590475Y-82911961D01*
X93590475Y-82911961D02*
X93638094Y-82816723D01*
X93638094Y-82816723D02*
X93685713Y-82626247D01*
X93685713Y-82626247D02*
X93685713Y-82483390D01*
X93685713Y-82483390D02*
X93638094Y-82292914D01*
X93638094Y-82292914D02*
X93590475Y-82197676D01*
X93590475Y-82197676D02*
X93495237Y-82102438D01*
X93495237Y-82102438D02*
X93352380Y-82054819D01*
X93352380Y-82054819D02*
X93257142Y-82054819D01*
X93257142Y-82054819D02*
X93114285Y-82102438D01*
X93114285Y-82102438D02*
X93066666Y-82150057D01*
X92209523Y-82388152D02*
X92209523Y-83054819D01*
X92447618Y-82007200D02*
X92685713Y-82721485D01*
X92685713Y-82721485D02*
X92066666Y-82721485D01*
X66466666Y-82554819D02*
X66799999Y-82078628D01*
X67038094Y-82554819D02*
X67038094Y-81554819D01*
X67038094Y-81554819D02*
X66657142Y-81554819D01*
X66657142Y-81554819D02*
X66561904Y-81602438D01*
X66561904Y-81602438D02*
X66514285Y-81650057D01*
X66514285Y-81650057D02*
X66466666Y-81745295D01*
X66466666Y-81745295D02*
X66466666Y-81888152D01*
X66466666Y-81888152D02*
X66514285Y-81983390D01*
X66514285Y-81983390D02*
X66561904Y-82031009D01*
X66561904Y-82031009D02*
X66657142Y-82078628D01*
X66657142Y-82078628D02*
X67038094Y-82078628D01*
X65514285Y-82554819D02*
X66085713Y-82554819D01*
X65799999Y-82554819D02*
X65799999Y-81554819D01*
X65799999Y-81554819D02*
X65895237Y-81697676D01*
X65895237Y-81697676D02*
X65990475Y-81792914D01*
X65990475Y-81792914D02*
X66085713Y-81840533D01*
X66466666Y-89154819D02*
X66799999Y-88678628D01*
X67038094Y-89154819D02*
X67038094Y-88154819D01*
X67038094Y-88154819D02*
X66657142Y-88154819D01*
X66657142Y-88154819D02*
X66561904Y-88202438D01*
X66561904Y-88202438D02*
X66514285Y-88250057D01*
X66514285Y-88250057D02*
X66466666Y-88345295D01*
X66466666Y-88345295D02*
X66466666Y-88488152D01*
X66466666Y-88488152D02*
X66514285Y-88583390D01*
X66514285Y-88583390D02*
X66561904Y-88631009D01*
X66561904Y-88631009D02*
X66657142Y-88678628D01*
X66657142Y-88678628D02*
X67038094Y-88678628D01*
X66085713Y-88250057D02*
X66038094Y-88202438D01*
X66038094Y-88202438D02*
X65942856Y-88154819D01*
X65942856Y-88154819D02*
X65704761Y-88154819D01*
X65704761Y-88154819D02*
X65609523Y-88202438D01*
X65609523Y-88202438D02*
X65561904Y-88250057D01*
X65561904Y-88250057D02*
X65514285Y-88345295D01*
X65514285Y-88345295D02*
X65514285Y-88440533D01*
X65514285Y-88440533D02*
X65561904Y-88583390D01*
X65561904Y-88583390D02*
X66133332Y-89154819D01*
X66133332Y-89154819D02*
X65514285Y-89154819D01*
X65566666Y-70159580D02*
X65614285Y-70207200D01*
X65614285Y-70207200D02*
X65757142Y-70254819D01*
X65757142Y-70254819D02*
X65852380Y-70254819D01*
X65852380Y-70254819D02*
X65995237Y-70207200D01*
X65995237Y-70207200D02*
X66090475Y-70111961D01*
X66090475Y-70111961D02*
X66138094Y-70016723D01*
X66138094Y-70016723D02*
X66185713Y-69826247D01*
X66185713Y-69826247D02*
X66185713Y-69683390D01*
X66185713Y-69683390D02*
X66138094Y-69492914D01*
X66138094Y-69492914D02*
X66090475Y-69397676D01*
X66090475Y-69397676D02*
X65995237Y-69302438D01*
X65995237Y-69302438D02*
X65852380Y-69254819D01*
X65852380Y-69254819D02*
X65757142Y-69254819D01*
X65757142Y-69254819D02*
X65614285Y-69302438D01*
X65614285Y-69302438D02*
X65566666Y-69350057D01*
X65185713Y-69350057D02*
X65138094Y-69302438D01*
X65138094Y-69302438D02*
X65042856Y-69254819D01*
X65042856Y-69254819D02*
X64804761Y-69254819D01*
X64804761Y-69254819D02*
X64709523Y-69302438D01*
X64709523Y-69302438D02*
X64661904Y-69350057D01*
X64661904Y-69350057D02*
X64614285Y-69445295D01*
X64614285Y-69445295D02*
X64614285Y-69540533D01*
X64614285Y-69540533D02*
X64661904Y-69683390D01*
X64661904Y-69683390D02*
X65233332Y-70254819D01*
X65233332Y-70254819D02*
X64614285Y-70254819D01*
D12*
%TO.C,G\u002A\u002A\u002A*%
G36*
X94991603Y-91796183D02*
G01*
X94943130Y-91844656D01*
X94894657Y-91796183D01*
X94943130Y-91747710D01*
X94991603Y-91796183D01*
G37*
G36*
X95961069Y-92862595D02*
G01*
X95912595Y-92911069D01*
X95864122Y-92862595D01*
X95912595Y-92814122D01*
X95961069Y-92862595D01*
G37*
G36*
X98481679Y-96061832D02*
G01*
X98433206Y-96110305D01*
X98384733Y-96061832D01*
X98433206Y-96013359D01*
X98481679Y-96061832D01*
G37*
G36*
X98772519Y-96352672D02*
G01*
X98724046Y-96401145D01*
X98675573Y-96352672D01*
X98724046Y-96304198D01*
X98772519Y-96352672D01*
G37*
G36*
X98966412Y-96643511D02*
G01*
X98917939Y-96691985D01*
X98869466Y-96643511D01*
X98917939Y-96595038D01*
X98966412Y-96643511D01*
G37*
G36*
X99548092Y-97419084D02*
G01*
X99499618Y-97467557D01*
X99451145Y-97419084D01*
X99499618Y-97370611D01*
X99548092Y-97419084D01*
G37*
G36*
X99741985Y-97709924D02*
G01*
X99693511Y-97758397D01*
X99645038Y-97709924D01*
X99693511Y-97661450D01*
X99741985Y-97709924D01*
G37*
G36*
X100420611Y-99648855D02*
G01*
X100372137Y-99697328D01*
X100323664Y-99648855D01*
X100372137Y-99600382D01*
X100420611Y-99648855D01*
G37*
G36*
X93343511Y-88257634D02*
G01*
X93336515Y-88308957D01*
X93278880Y-88322265D01*
X93267278Y-88308055D01*
X93278880Y-88193002D01*
X93308040Y-88177836D01*
X93343511Y-88257634D01*
G37*
G36*
X96314295Y-93442562D02*
G01*
X96391095Y-93561277D01*
X96397997Y-93579669D01*
X96418338Y-93676812D01*
X96336825Y-93615547D01*
X96281506Y-93544265D01*
X96270632Y-93441709D01*
X96314295Y-93442562D01*
G37*
G36*
X93494533Y-88552836D02*
G01*
X93585878Y-88645420D01*
X93603935Y-88679744D01*
X93597321Y-88742366D01*
X93580276Y-88738004D01*
X93488931Y-88645420D01*
X93470874Y-88611096D01*
X93477488Y-88548473D01*
X93494533Y-88552836D01*
G37*
G36*
X93789601Y-90491866D02*
G01*
X93876718Y-90584351D01*
X93891866Y-90621905D01*
X93833966Y-90681298D01*
X93805826Y-90677572D01*
X93731298Y-90584351D01*
X93732409Y-90562411D01*
X93774050Y-90487405D01*
X93789601Y-90491866D01*
G37*
G36*
X95209733Y-91929237D02*
G01*
X95313139Y-92017968D01*
X95379389Y-92098893D01*
X95377798Y-92115905D01*
X95314634Y-92116560D01*
X95173130Y-91965840D01*
X95118974Y-91895596D01*
X95094900Y-91845393D01*
X95209733Y-91929237D01*
G37*
G36*
X96084215Y-93076300D02*
G01*
X96154962Y-93213351D01*
X96147493Y-93245950D01*
X96058015Y-93250382D01*
X96031816Y-93230570D01*
X95961069Y-93093519D01*
X95968538Y-93060920D01*
X96058015Y-93056489D01*
X96084215Y-93076300D01*
G37*
G36*
X99281489Y-97067405D02*
G01*
X99384894Y-97156136D01*
X99451145Y-97237061D01*
X99449553Y-97254073D01*
X99386390Y-97254728D01*
X99244886Y-97104008D01*
X99190729Y-97033764D01*
X99166656Y-96983561D01*
X99281489Y-97067405D01*
G37*
G36*
X100692551Y-100812214D02*
G01*
X100692684Y-100835172D01*
X100679686Y-100986938D01*
X100647860Y-100983715D01*
X100630075Y-100904055D01*
X100644267Y-100692876D01*
X100649065Y-100676207D01*
X100678571Y-100661854D01*
X100692551Y-100812214D01*
G37*
G36*
X100517557Y-99939695D02*
G01*
X100561463Y-100072840D01*
X100598026Y-100327481D01*
X100595345Y-100394758D01*
X100573189Y-100426738D01*
X100517557Y-100279008D01*
X100458314Y-100053761D01*
X100437940Y-99893282D01*
X100457688Y-99841812D01*
X100517557Y-99939695D01*
G37*
G36*
X93766648Y-88936398D02*
G01*
X93845204Y-89013764D01*
X93972570Y-89190562D01*
X93989923Y-89217608D01*
X94060889Y-89357328D01*
X94032715Y-89379056D01*
X93947199Y-89297029D01*
X93838504Y-89144494D01*
X93763375Y-89000291D01*
X93765210Y-88936259D01*
X93766648Y-88936398D01*
G37*
G36*
X95208648Y-102512160D02*
G01*
X95201641Y-102514406D01*
X94947002Y-102641022D01*
X94772707Y-102803628D01*
X94685115Y-102903051D01*
X94617120Y-102888000D01*
X94610724Y-102861155D01*
X94672661Y-102695127D01*
X94878798Y-102551807D01*
X95186795Y-102462798D01*
X95524809Y-102412489D01*
X95208648Y-102512160D01*
G37*
G36*
X90689060Y-94184172D02*
G01*
X90919847Y-94279381D01*
X91030310Y-94334391D01*
X91228940Y-94444413D01*
X91307634Y-94506182D01*
X91304099Y-94511698D01*
X91198290Y-94505097D01*
X91000817Y-94456804D01*
X90787002Y-94387720D01*
X90632165Y-94318745D01*
X90602266Y-94296489D01*
X90532061Y-94174450D01*
X90550223Y-94158345D01*
X90689060Y-94184172D01*
G37*
G36*
X92470992Y-94017383D02*
G01*
X92466402Y-94043272D01*
X92359688Y-94191386D01*
X92155916Y-94354114D01*
X92106943Y-94384896D01*
X91874974Y-94510748D01*
X91746002Y-94548180D01*
X91743094Y-94496956D01*
X91889313Y-94356840D01*
X92100121Y-94185892D01*
X92301336Y-94021701D01*
X92345715Y-93986202D01*
X92447448Y-93933841D01*
X92470992Y-94017383D01*
G37*
G36*
X96154962Y-94769059D02*
G01*
X96163682Y-94772295D01*
X96269572Y-94918659D01*
X96312469Y-95245321D01*
X96313974Y-95301141D01*
X96315978Y-95495737D01*
X96305576Y-95504778D01*
X96280312Y-95335122D01*
X96277519Y-95314986D01*
X96212706Y-95046190D01*
X96122804Y-94858860D01*
X96119877Y-94855301D01*
X96062128Y-94758543D01*
X96154962Y-94769059D01*
G37*
G36*
X94580069Y-102140140D02*
G01*
X94526260Y-102237328D01*
X94523662Y-102240005D01*
X94443244Y-102416694D01*
X94409924Y-102673588D01*
X94409554Y-102701544D01*
X94378568Y-102908652D01*
X94312977Y-102993511D01*
X94304506Y-102992292D01*
X94241746Y-102890038D01*
X94216031Y-102673588D01*
X94244654Y-102439595D01*
X94362338Y-102208348D01*
X94545649Y-102120992D01*
X94580069Y-102140140D01*
G37*
G36*
X87182470Y-94409942D02*
G01*
X86991616Y-94636101D01*
X86988426Y-94639544D01*
X86784187Y-94915711D01*
X86633709Y-95211113D01*
X86573765Y-95358789D01*
X86496031Y-95475017D01*
X86467940Y-95407751D01*
X86504033Y-95162448D01*
X86532641Y-95075494D01*
X86683878Y-94811838D01*
X86901044Y-94554819D01*
X86930788Y-94526257D01*
X87141702Y-94345728D01*
X87229047Y-94310053D01*
X87182470Y-94409942D01*
G37*
G36*
X93918607Y-91494076D02*
G01*
X94207991Y-91613938D01*
X94422784Y-91789221D01*
X94503799Y-91982739D01*
X94500624Y-91996101D01*
X94430934Y-91967303D01*
X94299473Y-91817198D01*
X94122565Y-91638874D01*
X93928808Y-91601142D01*
X93771257Y-91614215D01*
X93527218Y-91562035D01*
X93493553Y-91548388D01*
X93392818Y-91495905D01*
X93447399Y-91471708D01*
X93676576Y-91463015D01*
X93918607Y-91494076D01*
G37*
G36*
X100796477Y-101318602D02*
G01*
X100818955Y-101620392D01*
X100836248Y-102108497D01*
X100839204Y-102314862D01*
X100834269Y-102663330D01*
X100817058Y-102903863D01*
X100789821Y-102993559D01*
X100772162Y-102960362D01*
X100747158Y-102774468D01*
X100730351Y-102461688D01*
X100724679Y-102063929D01*
X100724881Y-102002622D01*
X100733017Y-101545137D01*
X100750000Y-101279573D01*
X100772322Y-101204528D01*
X100796477Y-101318602D01*
G37*
G36*
X87581783Y-93799386D02*
G01*
X87669667Y-93818484D01*
X87575191Y-93852872D01*
X87401224Y-93902925D01*
X86894055Y-94166139D01*
X86515527Y-94566351D01*
X86432654Y-94683996D01*
X86271266Y-94872552D01*
X86161600Y-94946947D01*
X86154133Y-94888950D01*
X86248352Y-94732630D01*
X86413173Y-94518567D01*
X86615030Y-94287424D01*
X86820357Y-94079867D01*
X86995590Y-93936561D01*
X87209670Y-93840745D01*
X87499070Y-93794834D01*
X87581783Y-93799386D01*
G37*
G36*
X88112029Y-95451047D02*
G01*
X88252915Y-95527166D01*
X88223915Y-95581897D01*
X88040506Y-95568669D01*
X87904385Y-95554909D01*
X87707764Y-95616818D01*
X87484343Y-95812495D01*
X87411262Y-95887341D01*
X87242184Y-96046777D01*
X87152368Y-96110305D01*
X87154523Y-96086407D01*
X87239203Y-95967129D01*
X87384485Y-95795004D01*
X87544190Y-95623657D01*
X87672137Y-95506714D01*
X87691869Y-95493678D01*
X87890460Y-95438667D01*
X88112029Y-95451047D01*
G37*
G36*
X99836664Y-98025561D02*
G01*
X99896292Y-98207453D01*
X99966296Y-98440137D01*
X100082622Y-98727863D01*
X100171707Y-98929299D01*
X100273805Y-99212595D01*
X100281050Y-99237677D01*
X100303255Y-99378431D01*
X100240787Y-99356341D01*
X100230582Y-99345082D01*
X100146576Y-99189767D01*
X100041396Y-98929182D01*
X99933840Y-98620320D01*
X99842704Y-98320175D01*
X99786787Y-98085744D01*
X99784886Y-97974020D01*
X99785685Y-97973274D01*
X99836664Y-98025561D01*
G37*
G36*
X89410133Y-101978453D02*
G01*
X89607241Y-102107885D01*
X89705677Y-102283927D01*
X89661051Y-102458487D01*
X89457873Y-102571833D01*
X89157094Y-102589878D01*
X88835496Y-102506245D01*
X88775552Y-102473752D01*
X88816151Y-102452793D01*
X89041450Y-102475029D01*
X89122784Y-102484176D01*
X89373188Y-102482485D01*
X89502261Y-102431024D01*
X89532372Y-102263459D01*
X89420339Y-102092918D01*
X89190841Y-101995746D01*
X88932443Y-101956151D01*
X89184020Y-101941625D01*
X89410133Y-101978453D01*
G37*
G36*
X94480344Y-93445845D02*
G01*
X94637562Y-93563652D01*
X94879651Y-93774272D01*
X95174905Y-94051037D01*
X95309135Y-94181063D01*
X95577221Y-94449127D01*
X95739940Y-94641896D01*
X95822367Y-94802099D01*
X95849578Y-94972466D01*
X95846648Y-95195725D01*
X95829173Y-95674046D01*
X95793149Y-95220551D01*
X95769785Y-95021704D01*
X95713360Y-94837262D01*
X95597705Y-94655095D01*
X95394225Y-94431542D01*
X95074327Y-94122941D01*
X94891187Y-93946746D01*
X94644252Y-93695414D01*
X94483984Y-93513518D01*
X94438609Y-93431747D01*
X94480344Y-93445845D01*
G37*
G36*
X96766337Y-94034539D02*
G01*
X96904851Y-94135438D01*
X97130703Y-94334531D01*
X97415267Y-94607634D01*
X97598809Y-94793954D01*
X97853753Y-95069428D01*
X98028832Y-95280733D01*
X98093893Y-95392972D01*
X98116700Y-95471885D01*
X98239313Y-95625572D01*
X98317524Y-95707176D01*
X98384733Y-95851911D01*
X98368654Y-95871223D01*
X98274996Y-95808167D01*
X98132113Y-95659549D01*
X97979893Y-95472402D01*
X97858224Y-95293762D01*
X97806993Y-95170663D01*
X97806145Y-95164366D01*
X97723201Y-95038824D01*
X97531735Y-94835328D01*
X97269847Y-94594730D01*
X97241651Y-94570248D01*
X96986148Y-94334355D01*
X96805283Y-94142537D01*
X96736641Y-94034301D01*
X96766337Y-94034539D01*
G37*
G36*
X84295427Y-96503382D02*
G01*
X84245477Y-96728476D01*
X84138846Y-97047325D01*
X83993582Y-97414977D01*
X83827732Y-97786478D01*
X83659346Y-98116874D01*
X83506470Y-98361212D01*
X83191130Y-98896771D01*
X82954118Y-99539730D01*
X82948726Y-99559468D01*
X82843426Y-99926604D01*
X82746028Y-100236690D01*
X82676987Y-100424427D01*
X82609190Y-100595849D01*
X82502945Y-100896104D01*
X82386204Y-101248473D01*
X82276826Y-101575276D01*
X82169241Y-101869474D01*
X82094361Y-102044048D01*
X82078359Y-102077409D01*
X82003853Y-102308041D01*
X81941722Y-102601491D01*
X81924983Y-102693609D01*
X81865670Y-102907892D01*
X81807458Y-102993511D01*
X81800832Y-102991709D01*
X81785881Y-102886100D01*
X81818548Y-102653229D01*
X81886773Y-102342759D01*
X81978493Y-102004350D01*
X82081649Y-101687666D01*
X82184178Y-101442366D01*
X82290063Y-101192661D01*
X82418418Y-100821254D01*
X82534092Y-100424427D01*
X82540760Y-100399024D01*
X82637365Y-100054538D01*
X82723475Y-99785714D01*
X82781154Y-99648855D01*
X82849393Y-99491368D01*
X82915802Y-99248044D01*
X82999273Y-99018008D01*
X83160472Y-98695826D01*
X83363256Y-98355454D01*
X83382461Y-98325802D01*
X83566338Y-98031262D01*
X83696700Y-97803559D01*
X83746399Y-97689853D01*
X83784649Y-97563967D01*
X83881207Y-97355746D01*
X83889851Y-97338923D01*
X84015654Y-97056968D01*
X84132639Y-96743334D01*
X84157768Y-96670261D01*
X84236051Y-96481529D01*
X84284655Y-96422950D01*
X84295427Y-96503382D01*
G37*
G36*
X91791959Y-87773743D02*
G01*
X92295674Y-87784425D01*
X92646891Y-87809654D01*
X92875130Y-87852302D01*
X93009906Y-87915237D01*
X93106381Y-88011967D01*
X93082630Y-88060657D01*
X93048546Y-88057752D01*
X92907252Y-87966794D01*
X92906237Y-87965342D01*
X92782089Y-87926783D01*
X92495170Y-87896583D01*
X92075471Y-87876889D01*
X91552984Y-87869847D01*
X90258633Y-87869847D01*
X89788854Y-88241185D01*
X89692415Y-88319753D01*
X89248499Y-88728939D01*
X88770329Y-89233131D01*
X88287647Y-89794892D01*
X87830197Y-90376785D01*
X87427721Y-90941374D01*
X87109962Y-91451222D01*
X86906665Y-91868893D01*
X86814348Y-92055202D01*
X86729891Y-92135496D01*
X86713413Y-92137771D01*
X86654199Y-92230172D01*
X86651541Y-92247903D01*
X86592134Y-92410856D01*
X86470022Y-92689092D01*
X86305665Y-93040943D01*
X86119521Y-93424742D01*
X85932047Y-93798820D01*
X85763702Y-94121510D01*
X85634944Y-94351145D01*
X85566232Y-94446056D01*
X85540688Y-94464304D01*
X85490840Y-94601167D01*
X85472512Y-94669221D01*
X85367162Y-94872157D01*
X85199392Y-95126294D01*
X85093229Y-95280749D01*
X84990551Y-95459758D01*
X84981262Y-95530110D01*
X85002588Y-95538292D01*
X84946924Y-95602820D01*
X84934404Y-95612310D01*
X84813757Y-95759771D01*
X84677832Y-95989122D01*
X84654064Y-96033598D01*
X84522899Y-96226060D01*
X84418527Y-96304198D01*
X84378077Y-96275767D01*
X84418452Y-96129617D01*
X84579680Y-95852735D01*
X84865522Y-95437832D01*
X84913898Y-95365810D01*
X85082131Y-95085769D01*
X85311713Y-94677642D01*
X85585151Y-94173472D01*
X85884949Y-93605306D01*
X86193614Y-93005186D01*
X86515298Y-92387257D01*
X87189914Y-91200926D01*
X87854880Y-90187207D01*
X88520229Y-89332648D01*
X89195997Y-88623798D01*
X89892218Y-88047205D01*
X89912984Y-88032168D01*
X90070759Y-87925028D01*
X90220427Y-87852393D01*
X90402387Y-87807564D01*
X90657039Y-87783839D01*
X91024782Y-87774519D01*
X91546016Y-87772901D01*
X91791959Y-87773743D01*
G37*
G36*
X89174809Y-89893855D02*
G01*
X89197827Y-90009549D01*
X89290026Y-90148092D01*
X89324818Y-90200373D01*
X89363348Y-90245038D01*
X89398214Y-90285456D01*
X89396500Y-90341985D01*
X89395289Y-90381900D01*
X89393471Y-90383240D01*
X89287559Y-90502704D01*
X89162979Y-90681298D01*
X89146499Y-90704923D01*
X89135371Y-90722131D01*
X89001005Y-90891340D01*
X88906372Y-90948475D01*
X88856169Y-90943962D01*
X88672699Y-90991084D01*
X88460933Y-91091083D01*
X88291865Y-91206653D01*
X88236489Y-91300489D01*
X88251045Y-91321009D01*
X88402590Y-91376904D01*
X88652165Y-91390397D01*
X88703944Y-91388011D01*
X88898990Y-91385110D01*
X88921511Y-91408448D01*
X88789302Y-91468106D01*
X88592990Y-91516808D01*
X88345542Y-91512696D01*
X88278608Y-91504349D01*
X88073822Y-91574848D01*
X87815276Y-91798537D01*
X87704451Y-91908282D01*
X87517122Y-92071343D01*
X87407342Y-92135496D01*
X87392903Y-92134075D01*
X87368711Y-92064092D01*
X87441374Y-91930193D01*
X87570145Y-91790028D01*
X87714277Y-91701247D01*
X87839859Y-91630023D01*
X87945941Y-91414061D01*
X87906381Y-91111779D01*
X87888508Y-91018908D01*
X87930314Y-90724272D01*
X87969265Y-90630876D01*
X88904682Y-90630876D01*
X88916285Y-90745929D01*
X88945445Y-90761096D01*
X88980916Y-90681298D01*
X88973920Y-90629974D01*
X88916285Y-90616667D01*
X88904682Y-90630876D01*
X87969265Y-90630876D01*
X88068921Y-90391926D01*
X88102327Y-90341985D01*
X88883969Y-90341985D01*
X88932443Y-90390458D01*
X88980916Y-90341985D01*
X88932443Y-90293511D01*
X88883969Y-90341985D01*
X88102327Y-90341985D01*
X88167176Y-90245038D01*
X88399237Y-90245038D01*
X88447710Y-90293511D01*
X88496183Y-90245038D01*
X88447710Y-90196565D01*
X88399237Y-90245038D01*
X88167176Y-90245038D01*
X88232024Y-90148092D01*
X88980916Y-90148092D01*
X89029389Y-90196565D01*
X89077863Y-90148092D01*
X89029389Y-90099618D01*
X88980916Y-90148092D01*
X88232024Y-90148092D01*
X88271741Y-90088717D01*
X88478766Y-89905725D01*
X88690076Y-89905725D01*
X88691188Y-89927665D01*
X88732828Y-90002672D01*
X88748379Y-89998211D01*
X88835496Y-89905725D01*
X88850644Y-89868172D01*
X88792744Y-89808779D01*
X88764604Y-89812504D01*
X88690076Y-89905725D01*
X88478766Y-89905725D01*
X88506185Y-89881489D01*
X88617550Y-89822314D01*
X88909994Y-89721964D01*
X89104319Y-89745969D01*
X89162567Y-89868172D01*
X89174809Y-89893855D01*
G37*
G36*
X94216031Y-90151246D02*
G01*
X94243146Y-90297165D01*
X94365422Y-90490701D01*
X94400194Y-90525836D01*
X94479384Y-90731616D01*
X94483183Y-90917134D01*
X94486605Y-91084232D01*
X94474572Y-91244859D01*
X94447042Y-91466740D01*
X94419075Y-91553798D01*
X94397787Y-91545286D01*
X94260234Y-91456310D01*
X94049303Y-91301771D01*
X94042624Y-91296703D01*
X93751919Y-91129371D01*
X93523524Y-91100804D01*
X93402405Y-91113109D01*
X93373008Y-91035104D01*
X93362024Y-90932986D01*
X93269960Y-90751770D01*
X93133151Y-90564642D01*
X92996194Y-90430984D01*
X92903688Y-90410180D01*
X92889875Y-90494191D01*
X92951282Y-90672995D01*
X93010998Y-90828370D01*
X92950715Y-90875191D01*
X92945856Y-90874914D01*
X92838478Y-90785504D01*
X92732157Y-90584351D01*
X92726649Y-90570004D01*
X92629364Y-90374245D01*
X92546685Y-90293511D01*
X92545304Y-90293463D01*
X92516353Y-90245038D01*
X92858779Y-90245038D01*
X92907252Y-90293511D01*
X92955725Y-90245038D01*
X92943266Y-90232579D01*
X93372128Y-90232579D01*
X93373668Y-90245038D01*
X93379273Y-90290401D01*
X93519445Y-90357671D01*
X93664507Y-90428320D01*
X93635199Y-90534856D01*
X93608540Y-90587278D01*
X93641206Y-90733214D01*
X93764851Y-90839654D01*
X93912664Y-90834460D01*
X93957082Y-90821673D01*
X94054677Y-90898823D01*
X94077758Y-90946558D01*
X94111430Y-90952462D01*
X94112636Y-90917134D01*
X94046889Y-90710623D01*
X93894221Y-90494369D01*
X93700375Y-90312916D01*
X93511096Y-90210805D01*
X93372128Y-90232579D01*
X92943266Y-90232579D01*
X92907252Y-90196565D01*
X92858779Y-90245038D01*
X92516353Y-90245038D01*
X92492773Y-90205598D01*
X92470992Y-90000272D01*
X92471482Y-89966002D01*
X92524020Y-89760305D01*
X93537405Y-89760305D01*
X93585878Y-89808779D01*
X93634351Y-89760305D01*
X93604973Y-89730927D01*
X93776834Y-89730927D01*
X93784485Y-89760305D01*
X93797512Y-89810329D01*
X93924597Y-89953661D01*
X94060143Y-90047844D01*
X94119084Y-90029568D01*
X94108488Y-89982516D01*
X94012466Y-89847925D01*
X93876973Y-89742298D01*
X93776834Y-89730927D01*
X93604973Y-89730927D01*
X93585878Y-89711832D01*
X93537405Y-89760305D01*
X92524020Y-89760305D01*
X92528999Y-89740813D01*
X92713359Y-89614885D01*
X92875475Y-89527594D01*
X92955725Y-89423392D01*
X93015912Y-89358047D01*
X93198092Y-89324046D01*
X93357454Y-89346481D01*
X93440458Y-89414459D01*
X93489372Y-89486256D01*
X93658588Y-89571346D01*
X93883564Y-89669889D01*
X94126002Y-89887871D01*
X94174438Y-90029568D01*
X94216031Y-90151246D01*
G37*
G36*
X94656644Y-95558179D02*
G01*
X94660902Y-95652597D01*
X94533939Y-95660741D01*
X94492450Y-95656559D01*
X94340810Y-95721193D01*
X94129016Y-95914750D01*
X93836031Y-96255146D01*
X93547784Y-96587938D01*
X93314974Y-96796942D01*
X93170633Y-96840282D01*
X93081119Y-96822175D01*
X93126687Y-96907895D01*
X93146212Y-97015067D01*
X93040530Y-97174084D01*
X92790287Y-97411005D01*
X92720475Y-97467557D01*
X92587003Y-97575677D01*
X92359257Y-97730806D01*
X92236898Y-97782634D01*
X92217827Y-97790712D01*
X92161769Y-97795885D01*
X92130173Y-97837679D01*
X92123311Y-97893659D01*
X92008989Y-98012331D01*
X91783080Y-98117162D01*
X91443597Y-98113006D01*
X91113740Y-97952290D01*
X91090268Y-97933530D01*
X90968097Y-97811585D01*
X90973168Y-97760553D01*
X91034565Y-97773211D01*
X91191298Y-97874733D01*
X91216704Y-97898446D01*
X91288700Y-97910707D01*
X91308701Y-97753550D01*
X91309081Y-97729222D01*
X91314008Y-97663578D01*
X91468181Y-97663578D01*
X91473656Y-97825602D01*
X91546161Y-97916467D01*
X91694070Y-97957463D01*
X91823945Y-97909793D01*
X91854455Y-97782634D01*
X91840422Y-97726901D01*
X91790518Y-97482208D01*
X91787995Y-97467557D01*
X91937786Y-97467557D01*
X91957684Y-97496570D01*
X92040454Y-97564504D01*
X92050129Y-97561983D01*
X92083206Y-97467557D01*
X92079261Y-97440985D01*
X91980538Y-97370611D01*
X91945473Y-97378223D01*
X91937786Y-97467557D01*
X91787995Y-97467557D01*
X91737921Y-97176718D01*
X91669311Y-96740458D01*
X91547176Y-97219686D01*
X91508304Y-97391503D01*
X91468181Y-97663578D01*
X91314008Y-97663578D01*
X91329484Y-97457398D01*
X91371066Y-97145041D01*
X91371133Y-97144632D01*
X91399229Y-96906324D01*
X91365283Y-96809124D01*
X91252812Y-96805728D01*
X91237568Y-96808217D01*
X91134237Y-96794405D01*
X91094814Y-96680381D01*
X91101280Y-96420312D01*
X91110708Y-96279962D01*
X91220351Y-96279962D01*
X91224145Y-96481113D01*
X91262452Y-96593354D01*
X91335114Y-96522328D01*
X91342933Y-96415508D01*
X91321069Y-96304198D01*
X91501527Y-96304198D01*
X91501534Y-96307817D01*
X91516851Y-96415508D01*
X91530404Y-96510795D01*
X91598473Y-96595038D01*
X91599679Y-96595016D01*
X91667339Y-96508406D01*
X91672002Y-96474496D01*
X91792366Y-96474496D01*
X91800159Y-96677131D01*
X91872593Y-97014945D01*
X92017050Y-97184961D01*
X92228626Y-97179259D01*
X92404632Y-97084212D01*
X92665620Y-96791382D01*
X92782986Y-96396918D01*
X92810305Y-96061832D01*
X92301336Y-96032529D01*
X91792366Y-96003226D01*
X91792366Y-96304198D01*
X91792366Y-96474496D01*
X91672002Y-96474496D01*
X91695420Y-96304198D01*
X91695412Y-96300580D01*
X91666543Y-96097602D01*
X91598473Y-96013359D01*
X91597267Y-96013381D01*
X91529608Y-96099990D01*
X91501527Y-96304198D01*
X91321069Y-96304198D01*
X91302026Y-96207252D01*
X91253064Y-96060213D01*
X91230608Y-96079681D01*
X91220351Y-96279962D01*
X91110708Y-96279962D01*
X91129299Y-96003218D01*
X90564077Y-96032525D01*
X90359955Y-96045649D01*
X90125808Y-96081252D01*
X90011453Y-96148696D01*
X89969628Y-96266592D01*
X89975259Y-96376624D01*
X90077310Y-96615241D01*
X90257218Y-96844221D01*
X90465213Y-97006695D01*
X90651527Y-97045792D01*
X90777392Y-97037658D01*
X90785128Y-97135318D01*
X90772331Y-97175847D01*
X90793364Y-97266409D01*
X90891028Y-97239838D01*
X91009029Y-97104008D01*
X91053892Y-97032951D01*
X91098796Y-97021668D01*
X91110792Y-97185929D01*
X91073063Y-97378737D01*
X90943701Y-97584677D01*
X90933929Y-97600234D01*
X90864023Y-97656989D01*
X90761734Y-97693777D01*
X90618662Y-97668499D01*
X90391558Y-97571085D01*
X90037173Y-97391467D01*
X89975278Y-97359266D01*
X89587512Y-97152473D01*
X89232713Y-96955775D01*
X88980916Y-96807868D01*
X88914103Y-96768020D01*
X88658572Y-96645095D01*
X88468904Y-96595401D01*
X88373218Y-96574849D01*
X88240402Y-96449618D01*
X88200379Y-96382171D01*
X88061422Y-96304198D01*
X87966855Y-96275264D01*
X87941092Y-96254374D01*
X88265223Y-96254374D01*
X88451422Y-96405891D01*
X88826717Y-96598103D01*
X88863960Y-96615116D01*
X89168512Y-96764736D01*
X89383935Y-96888987D01*
X89465649Y-96962448D01*
X89507204Y-97008467D01*
X89686189Y-97110046D01*
X89958484Y-97228086D01*
X90150636Y-97308579D01*
X90408772Y-97438411D01*
X90552034Y-97540267D01*
X90631447Y-97613963D01*
X90763057Y-97658541D01*
X90822901Y-97584677D01*
X90743050Y-97509574D01*
X90530971Y-97384491D01*
X90232983Y-97237125D01*
X90231090Y-97236256D01*
X89772498Y-97001294D01*
X89477026Y-96783649D01*
X89318753Y-96558027D01*
X89271756Y-96299132D01*
X89264911Y-96134663D01*
X89211802Y-96045650D01*
X89063333Y-96020308D01*
X88770407Y-96032529D01*
X88459519Y-96067427D01*
X88267972Y-96142053D01*
X88265223Y-96254374D01*
X87941092Y-96254374D01*
X87805951Y-96144794D01*
X87756290Y-96082367D01*
X87740028Y-96018710D01*
X87882869Y-96051791D01*
X88025064Y-96071138D01*
X88154433Y-96017302D01*
X88170856Y-95976328D01*
X88140120Y-95943870D01*
X93072164Y-95943870D01*
X93173531Y-96037595D01*
X93193036Y-96061832D01*
X93279401Y-96169151D01*
X93361716Y-96407643D01*
X93368339Y-96455549D01*
X93398923Y-96540553D01*
X93464785Y-96520373D01*
X93591103Y-96377036D01*
X93803055Y-96092566D01*
X93831181Y-96053826D01*
X94017589Y-95787760D01*
X94137559Y-95599837D01*
X94166253Y-95528626D01*
X94143426Y-95534566D01*
X93990466Y-95602706D01*
X93756619Y-95722519D01*
X93681060Y-95760993D01*
X93409003Y-95871844D01*
X93205235Y-95916412D01*
X93142489Y-95917363D01*
X93072164Y-95943870D01*
X88140120Y-95943870D01*
X88114118Y-95916412D01*
X88082319Y-95911038D01*
X88011450Y-95807595D01*
X88030110Y-95750839D01*
X88135239Y-95801514D01*
X88217253Y-95819375D01*
X88469004Y-95837633D01*
X88855943Y-95851335D01*
X89345421Y-95860583D01*
X89904786Y-95865477D01*
X90501388Y-95866119D01*
X91102576Y-95862609D01*
X91675701Y-95855050D01*
X92188112Y-95843542D01*
X92607158Y-95828186D01*
X92900189Y-95809084D01*
X93034554Y-95786336D01*
X93165474Y-95740286D01*
X93391985Y-95679973D01*
X93399650Y-95678120D01*
X93698621Y-95583700D01*
X94009386Y-95456180D01*
X94290712Y-95361639D01*
X94488348Y-95397873D01*
X94529542Y-95425779D01*
X94628274Y-95528626D01*
X94656644Y-95558179D01*
G37*
D13*
%TO.C,C5*%
X71438748Y-84865000D02*
X71961252Y-84865000D01*
X71438748Y-86335000D02*
X71961252Y-86335000D01*
%TO.C,C4*%
X95838748Y-81865000D02*
X96361252Y-81865000D01*
X95838748Y-83335000D02*
X96361252Y-83335000D01*
%TO.C,R1*%
X69072936Y-81365000D02*
X69527064Y-81365000D01*
X69072936Y-82835000D02*
X69527064Y-82835000D01*
%TO.C,R2*%
X69072936Y-87965000D02*
X69527064Y-87965000D01*
X69072936Y-89435000D02*
X69527064Y-89435000D01*
%TO.C,C2*%
X64765000Y-66738748D02*
X64765000Y-67261252D01*
X66235000Y-66738748D02*
X66235000Y-67261252D01*
%TD*%
M02*
