M48
; DRILL file {KiCad 9.0.4} date 2025-10-30T09:55:39-0400
; FORMAT={-:-/ absolute / metric / decimal}
; #@! TF.CreationDate,2025-10-30T09:55:39-04:00
; #@! TF.GenerationSoftware,Kicad,Pcbnew,9.0.4
; #@! TF.FileFunction,Plated,1,2,PTH
FMAT,2
METRIC
; #@! TA.AperFunction,Plated,PTH,ViaDrill
T1C0.300
; #@! TA.AperFunction,Plated,PTH,ComponentDrill
T2C0.750
; #@! TA.AperFunction,Plated,PTH,ComponentDrill
T3C1.100
; #@! TA.AperFunction,Plated,PTH,ComponentDrill
T4C2.700
%
G90
G05
T1
X65.5Y-76.1
X65.9Y-91.6
X66.5Y-101.4
X68.1Y-66.5
X69.35Y-89.9
X70.5Y-77.5
X72.4Y-82.6
X74.949Y-80.851
X74.949Y-84.6
X74.949Y-87.4
X75.6Y-101.4
X75.75Y-84.0
X78.23Y-85.0
X79.5Y-81.55
X79.6Y-88.4
X79.6Y-91.6
X80.75Y-86.75
X83.5Y-101.5
X83.8Y-68.4
X83.8Y-74.2
X92.1Y-101.4
X93.3Y-88.4
X101.0Y-66.6
X101.037Y-85.861
X101.5Y-91.1
X102.0Y-101.5
X104.7Y-68.4
X104.8Y-74.2
X108.5Y-88.1
X108.6Y-101.6
X113.855Y-92.945
X116.0Y-91.1
X121.0Y-68.3
X121.255Y-74.212
X123.9Y-91.0
T2
X67.9Y-84.4
X67.9Y-86.4
T3
X65.53Y-63.862
X65.53Y-79.102
X68.07Y-63.862
X68.07Y-79.102
X70.61Y-63.862
X70.61Y-79.102
X73.15Y-63.862
X73.15Y-79.102
X75.69Y-63.862
X75.69Y-79.102
X78.23Y-63.862
X78.23Y-79.102
X80.77Y-63.862
X80.77Y-79.102
X83.31Y-63.862
X83.31Y-79.102
X85.85Y-63.862
X85.85Y-79.102
X88.39Y-63.862
X88.39Y-79.102
X90.93Y-63.862
X90.93Y-79.102
X93.47Y-63.862
X93.47Y-79.102
X96.01Y-63.862
X96.01Y-79.102
X98.55Y-63.862
X98.55Y-79.102
X101.09Y-63.862
X101.09Y-79.102
X103.63Y-63.862
X103.63Y-79.102
X106.17Y-63.862
X106.17Y-79.102
X108.71Y-63.862
X108.71Y-79.102
X111.25Y-63.862
X111.25Y-79.102
X113.79Y-63.862
X113.79Y-79.102
X116.33Y-63.862
X116.33Y-79.102
X118.87Y-63.862
X118.87Y-79.102
X121.41Y-63.862
X121.41Y-79.102
X121.75Y-82.67
X121.75Y-85.21
X121.75Y-87.75
X121.75Y-90.29
X121.75Y-92.83
X121.75Y-95.37
X121.75Y-97.91
X121.75Y-100.45
X123.95Y-63.862
X123.95Y-79.102
T4
X68.8Y-94.5
X73.8Y-94.5
M30
