%TF.GenerationSoftware,KiCad,Pcbnew,9.0.4*%
%TF.CreationDate,2025-11-02T19:48:28-05:00*%
%TF.ProjectId,25-26-Solenoid-Board,32352d32-362d-4536-9f6c-656e6f69642d,1.2*%
%TF.SameCoordinates,Original*%
%TF.FileFunction,Copper,L2,Bot*%
%TF.FilePolarity,Positive*%
%FSLAX46Y46*%
G04 Gerber Fmt 4.6, Leading zero omitted, Abs format (unit mm)*
G04 Created by KiCad (PCBNEW 9.0.4) date 2025-11-02 19:48:28*
%MOMM*%
%LPD*%
G01*
G04 APERTURE LIST*
G04 Aperture macros list*
%AMRoundRect*
0 Rectangle with rounded corners*
0 $1 Rounding radius*
0 $2 $3 $4 $5 $6 $7 $8 $9 X,Y pos of 4 corners*
0 Add a 4 corners polygon primitive as box body*
4,1,4,$2,$3,$4,$5,$6,$7,$8,$9,$2,$3,0*
0 Add four circle primitives for the rounded corners*
1,1,$1+$1,$2,$3*
1,1,$1+$1,$4,$5*
1,1,$1+$1,$6,$7*
1,1,$1+$1,$8,$9*
0 Add four rect primitives between the rounded corners*
20,1,$1+$1,$2,$3,$4,$5,0*
20,1,$1+$1,$4,$5,$6,$7,0*
20,1,$1+$1,$6,$7,$8,$9,0*
20,1,$1+$1,$8,$9,$2,$3,0*%
G04 Aperture macros list end*
%TA.AperFunction,ComponentPad*%
%ADD10RoundRect,0.250000X-0.625000X0.350000X-0.625000X-0.350000X0.625000X-0.350000X0.625000X0.350000X0*%
%TD*%
%TA.AperFunction,ComponentPad*%
%ADD11O,1.750000X1.200000*%
%TD*%
%TA.AperFunction,ComponentPad*%
%ADD12RoundRect,0.760000X-1.140000X-1.140000X1.140000X-1.140000X1.140000X1.140000X-1.140000X1.140000X0*%
%TD*%
%TA.AperFunction,ComponentPad*%
%ADD13C,4.000000*%
%TD*%
%TA.AperFunction,ComponentPad*%
%ADD14R,1.600000X1.600000*%
%TD*%
%TA.AperFunction,ComponentPad*%
%ADD15C,1.600000*%
%TD*%
%TA.AperFunction,ComponentPad*%
%ADD16RoundRect,0.250001X-0.799999X0.799999X-0.799999X-0.799999X0.799999X-0.799999X0.799999X0.799999X0*%
%TD*%
%TA.AperFunction,ComponentPad*%
%ADD17C,2.100000*%
%TD*%
%TA.AperFunction,SMDPad,CuDef*%
%ADD18RoundRect,0.250000X-0.337500X-0.475000X0.337500X-0.475000X0.337500X0.475000X-0.337500X0.475000X0*%
%TD*%
%TA.AperFunction,SMDPad,CuDef*%
%ADD19RoundRect,0.250000X-0.350000X-0.450000X0.350000X-0.450000X0.350000X0.450000X-0.350000X0.450000X0*%
%TD*%
%TA.AperFunction,SMDPad,CuDef*%
%ADD20RoundRect,0.250000X-0.475000X0.337500X-0.475000X-0.337500X0.475000X-0.337500X0.475000X0.337500X0*%
%TD*%
%TA.AperFunction,ViaPad*%
%ADD21C,0.600000*%
%TD*%
%TA.AperFunction,Conductor*%
%ADD22C,0.500000*%
%TD*%
%TA.AperFunction,Conductor*%
%ADD23C,0.200000*%
%TD*%
%TA.AperFunction,Conductor*%
%ADD24C,0.350000*%
%TD*%
%TA.AperFunction,Conductor*%
%ADD25C,0.300000*%
%TD*%
G04 APERTURE END LIST*
D10*
%TO.P,J2,1,Pin_1*%
%TO.N,CAN N*%
X67900000Y-84400000D03*
D11*
%TO.P,J2,2,Pin_2*%
%TO.N,CAN P*%
X67900000Y-86400000D03*
%TD*%
D12*
%TO.P,J1,1,Pin_1*%
%TO.N,GND*%
X68800000Y-94500000D03*
D13*
%TO.P,J1,2,Pin_2*%
%TO.N,VCC*%
X73800000Y-94500000D03*
%TD*%
D14*
%TO.P,U1,1,GND*%
%TO.N,GND*%
X65530000Y-79101600D03*
D15*
%TO.P,U1,2,0_RX1_CRX2_CS1*%
%TO.N,unconnected-(U1-0_RX1_CRX2_CS1-Pad2)*%
X68070000Y-79101600D03*
%TO.P,U1,3,1_TX1_CTX2_MISO1*%
%TO.N,unconnected-(U1-1_TX1_CTX2_MISO1-Pad3)*%
X70610000Y-79101600D03*
%TO.P,U1,4,2_OUT2*%
%TO.N,pin1*%
X73150000Y-79101600D03*
%TO.P,U1,5,3_LRCLK2*%
%TO.N,pin2*%
X75690000Y-79101600D03*
%TO.P,U1,6,4_BCLK2*%
%TO.N,pin3*%
X78230000Y-79101600D03*
%TO.P,U1,7,5_IN2*%
%TO.N,pin4*%
X80770000Y-79101600D03*
%TO.P,U1,8,6_OUT1D*%
%TO.N,unconnected-(U1-6_OUT1D-Pad8)*%
X83310000Y-79101600D03*
%TO.P,U1,9,7_RX2_OUT1A*%
%TO.N,unconnected-(U1-7_RX2_OUT1A-Pad9)*%
X85850000Y-79101600D03*
%TO.P,U1,10,8_TX2_IN1*%
%TO.N,unconnected-(U1-8_TX2_IN1-Pad10)*%
X88390000Y-79101600D03*
%TO.P,U1,11,9_OUT1C*%
%TO.N,unconnected-(U1-9_OUT1C-Pad11)*%
X90930000Y-79101600D03*
%TO.P,U1,12,10_CS_MQSR*%
%TO.N,unconnected-(U1-10_CS_MQSR-Pad12)*%
X93470000Y-79101600D03*
%TO.P,U1,13,11_MOSI_CTX1*%
%TO.N,unconnected-(U1-11_MOSI_CTX1-Pad13)*%
X96010000Y-79101600D03*
%TO.P,U1,14,12_MISO_MQSL*%
%TO.N,unconnected-(U1-12_MISO_MQSL-Pad14)*%
X98550000Y-79101600D03*
%TO.P,U1,15,3V3*%
%TO.N,+3V3*%
X101090000Y-79101600D03*
%TO.P,U1,16,24_A10_TX6_SCL2*%
%TO.N,unconnected-(U1-24_A10_TX6_SCL2-Pad16)*%
X103630000Y-79101600D03*
%TO.P,U1,17,25_A11_RX6_SDA2*%
%TO.N,unconnected-(U1-25_A11_RX6_SDA2-Pad17)*%
X106170000Y-79101600D03*
%TO.P,U1,18,26_A12_MOSI1*%
%TO.N,unconnected-(U1-26_A12_MOSI1-Pad18)*%
X108710000Y-79101600D03*
%TO.P,U1,19,27_A13_SCK1*%
%TO.N,unconnected-(U1-27_A13_SCK1-Pad19)*%
X111250000Y-79101600D03*
%TO.P,U1,20,28_RX7*%
%TO.N,unconnected-(U1-28_RX7-Pad20)*%
X113790000Y-79101600D03*
%TO.P,U1,21,29_TX7*%
%TO.N,unconnected-(U1-29_TX7-Pad21)*%
X116330000Y-79101600D03*
%TO.P,U1,22,30_CRX3*%
%TO.N,C_RX*%
X118870000Y-79101600D03*
%TO.P,U1,23,31_CTX3*%
%TO.N,C_TX*%
X121410000Y-79101600D03*
%TO.P,U1,24,32_OUT1B*%
%TO.N,unconnected-(U1-32_OUT1B-Pad24)*%
X123950000Y-79101600D03*
%TO.P,U1,25,33_MCLK2*%
%TO.N,unconnected-(U1-33_MCLK2-Pad25)*%
X123950000Y-63861600D03*
%TO.P,U1,26,34_RX8*%
%TO.N,unconnected-(U1-34_RX8-Pad26)*%
X121410000Y-63861600D03*
%TO.P,U1,27,35_TX8*%
%TO.N,unconnected-(U1-35_TX8-Pad27)*%
X118870000Y-63861600D03*
%TO.P,U1,28,36_CS*%
%TO.N,unconnected-(U1-36_CS-Pad28)*%
X116330000Y-63861600D03*
%TO.P,U1,29,37_CS*%
%TO.N,unconnected-(U1-37_CS-Pad29)*%
X113790000Y-63861600D03*
%TO.P,U1,30,38_CS1_IN1*%
%TO.N,unconnected-(U1-38_CS1_IN1-Pad30)*%
X111250000Y-63861600D03*
%TO.P,U1,31,39_MISO1_OUT1A*%
%TO.N,unconnected-(U1-39_MISO1_OUT1A-Pad31)*%
X108710000Y-63861600D03*
%TO.P,U1,32,40_A16*%
%TO.N,unconnected-(U1-40_A16-Pad32)*%
X106170000Y-63861600D03*
%TO.P,U1,33,41_A17*%
%TO.N,unconnected-(U1-41_A17-Pad33)*%
X103630000Y-63861600D03*
%TO.P,U1,34,GND*%
%TO.N,GND*%
X101090000Y-63861600D03*
%TO.P,U1,35,13_SCK_LED*%
%TO.N,unconnected-(U1-13_SCK_LED-Pad35)*%
X98550000Y-63861600D03*
%TO.P,U1,36,14_A0_TX3_SPDIF_OUT*%
%TO.N,unconnected-(U1-14_A0_TX3_SPDIF_OUT-Pad36)*%
X96010000Y-63861600D03*
%TO.P,U1,37,15_A1_RX3_SPDIF_IN*%
%TO.N,unconnected-(U1-15_A1_RX3_SPDIF_IN-Pad37)*%
X93470000Y-63861600D03*
%TO.P,U1,38,16_A2_RX4_SCL1*%
%TO.N,unconnected-(U1-16_A2_RX4_SCL1-Pad38)*%
X90930000Y-63861600D03*
%TO.P,U1,39,17_A3_TX4_SDA1*%
%TO.N,unconnected-(U1-17_A3_TX4_SDA1-Pad39)*%
X88390000Y-63861600D03*
%TO.P,U1,40,18_A4_SDA*%
%TO.N,unconnected-(U1-18_A4_SDA-Pad40)*%
X85850000Y-63861600D03*
%TO.P,U1,41,19_A5_SCL*%
%TO.N,unconnected-(U1-19_A5_SCL-Pad41)*%
X83310000Y-63861600D03*
%TO.P,U1,42,20_A6_TX5_LRCLK1*%
%TO.N,unconnected-(U1-20_A6_TX5_LRCLK1-Pad42)*%
X80770000Y-63861600D03*
%TO.P,U1,43,21_A7_RX5_BCLK1*%
%TO.N,unconnected-(U1-21_A7_RX5_BCLK1-Pad43)*%
X78230000Y-63861600D03*
%TO.P,U1,44,22_A8_CTX1*%
%TO.N,unconnected-(U1-22_A8_CTX1-Pad44)*%
X75690000Y-63861600D03*
%TO.P,U1,45,23_A9_CRX1_MCLK1*%
%TO.N,unconnected-(U1-23_A9_CRX1_MCLK1-Pad45)*%
X73150000Y-63861600D03*
%TO.P,U1,46,3V3*%
%TO.N,+3V3*%
X70610000Y-63861600D03*
%TO.P,U1,47,GND*%
%TO.N,GND*%
X68070000Y-63861600D03*
%TO.P,U1,48,VIN*%
%TO.N,+5V*%
X65530000Y-63861600D03*
%TD*%
D16*
%TO.P,J3,1,Pin_1*%
%TO.N,S1*%
X121750000Y-82670000D03*
D17*
%TO.P,J3,2,Pin_2*%
%TO.N,VCC*%
X121750000Y-85210000D03*
%TO.P,J3,3,Pin_3*%
%TO.N,S2*%
X121750000Y-87750000D03*
%TO.P,J3,4,Pin_4*%
%TO.N,VCC*%
X121750000Y-90290000D03*
%TO.P,J3,5,Pin_5*%
%TO.N,S3*%
X121750000Y-92830000D03*
%TO.P,J3,6,Pin_6*%
%TO.N,VCC*%
X121750000Y-95370000D03*
%TO.P,J3,7,Pin_7*%
%TO.N,S4*%
X121750000Y-97910000D03*
%TO.P,J3,8,Pin_8*%
%TO.N,VCC*%
X121750000Y-100450000D03*
%TD*%
D18*
%TO.P,C5,1*%
%TO.N,Net-(C5-Pad1)*%
X70662500Y-85600000D03*
%TO.P,C5,2*%
%TO.N,GND*%
X72737500Y-85600000D03*
%TD*%
%TO.P,C4,1*%
%TO.N,GND*%
X95062500Y-82600000D03*
%TO.P,C4,2*%
%TO.N,+3V3*%
X97137500Y-82600000D03*
%TD*%
D19*
%TO.P,R1,1*%
%TO.N,CAN N*%
X68300000Y-82100000D03*
%TO.P,R1,2*%
%TO.N,Net-(C5-Pad1)*%
X70300000Y-82100000D03*
%TD*%
%TO.P,R2,1*%
%TO.N,CAN P*%
X68300000Y-88700000D03*
%TO.P,R2,2*%
%TO.N,Net-(C5-Pad1)*%
X70300000Y-88700000D03*
%TD*%
D20*
%TO.P,C2,1*%
%TO.N,+5V*%
X65500000Y-65962500D03*
%TO.P,C2,2*%
%TO.N,GND*%
X65500000Y-68037500D03*
%TD*%
D21*
%TO.N,VCC*%
X110000000Y-93000000D03*
%TO.N,GND*%
X92100000Y-101400000D03*
X104800000Y-74200000D03*
X72100000Y-85000000D03*
X116000000Y-91100000D03*
X101000000Y-66600000D03*
X102000000Y-101500000D03*
X121255183Y-74212261D03*
X75600000Y-101400000D03*
X83500000Y-101500000D03*
X108600000Y-101600000D03*
X65900000Y-91600000D03*
X65500000Y-76100000D03*
X79200000Y-87300000D03*
X83800000Y-74200000D03*
X83800000Y-68400000D03*
X104700000Y-68400000D03*
X123900000Y-91000000D03*
X90500000Y-84700000D03*
X104800000Y-88400000D03*
X94000000Y-88500000D03*
X121000000Y-68300000D03*
X68100000Y-66500000D03*
X66500000Y-101400000D03*
X79600000Y-91600000D03*
%TO.N,pin2*%
X75690000Y-83000000D03*
%TO.N,pin3*%
X78230000Y-83600000D03*
%TO.N,pin4*%
X80750000Y-86750000D03*
%TO.N,+5V*%
X69400000Y-90700000D03*
%TO.N,C_RX*%
X79200000Y-84800000D03*
X79200000Y-80800000D03*
%TO.N,+3V3*%
X70500000Y-77500000D03*
X97137500Y-85700000D03*
%TO.N,C_TX*%
X80000000Y-81600000D03*
X79200000Y-88600000D03*
%TD*%
D22*
%TO.N,VCC*%
X110000000Y-93000000D02*
X119100000Y-93000000D01*
X119100000Y-93000000D02*
X119100000Y-95671337D01*
X119100000Y-97900000D02*
X121650000Y-100450000D01*
X121750000Y-85210000D02*
X119100000Y-87860000D01*
X119401337Y-95370000D02*
X119100000Y-95671337D01*
X119100000Y-92940000D02*
X119100000Y-93200000D01*
X119100000Y-95671337D02*
X119100000Y-97900000D01*
X119100000Y-87860000D02*
X119100000Y-93200000D01*
X121750000Y-95370000D02*
X119401337Y-95370000D01*
X121650000Y-100450000D02*
X121750000Y-100450000D01*
X121750000Y-90290000D02*
X119100000Y-92940000D01*
X119100000Y-93200000D02*
X119100000Y-95671337D01*
D23*
%TO.N,CAN P*%
X68300000Y-86800000D02*
X67900000Y-86400000D01*
X68300000Y-88700000D02*
X68300000Y-86800000D01*
%TO.N,CAN N*%
X68300000Y-84000000D02*
X67900000Y-84400000D01*
X68300000Y-82100000D02*
X68300000Y-84000000D01*
%TO.N,pin2*%
X75690000Y-83000000D02*
X75690000Y-79101600D01*
%TO.N,pin3*%
X78230000Y-83600000D02*
X78230000Y-79101600D01*
%TO.N,pin4*%
X80750000Y-86500000D02*
X80770000Y-86480000D01*
X80750000Y-86750000D02*
X80750000Y-86500000D01*
X80770000Y-86480000D02*
X80770000Y-79101600D01*
D24*
%TO.N,+5V*%
X65530000Y-63861600D02*
X65530000Y-65932500D01*
X65530000Y-65932500D02*
X65500000Y-65962500D01*
X69350000Y-81357774D02*
X69350000Y-69812500D01*
X69350000Y-82842226D02*
X69324000Y-82816226D01*
X69324000Y-87983774D02*
X69350000Y-87957774D01*
X69324000Y-89416226D02*
X69324000Y-87983774D01*
X69350000Y-87957774D02*
X69350000Y-82842226D01*
X69400000Y-90700000D02*
X69350000Y-90650000D01*
X69350000Y-89442226D02*
X69324000Y-89416226D01*
X69324000Y-82816226D02*
X69324000Y-81383774D01*
X69350000Y-69812500D02*
X65500000Y-65962500D01*
X69350000Y-90650000D02*
X69350000Y-89442226D01*
X69324000Y-81383774D02*
X69350000Y-81357774D01*
D23*
%TO.N,C_RX*%
X79200000Y-84800000D02*
X79200000Y-80800000D01*
%TO.N,+3V3*%
X97591600Y-82600000D02*
X101090000Y-79101600D01*
D25*
X70610000Y-77390000D02*
X70500000Y-77500000D01*
D23*
X97137500Y-82600000D02*
X97591600Y-82600000D01*
X97137500Y-85700000D02*
X97137500Y-82600000D01*
D25*
X70610000Y-63861600D02*
X70610000Y-77390000D01*
D23*
%TO.N,C_TX*%
X80000000Y-87800000D02*
X79200000Y-88600000D01*
X80000000Y-81600000D02*
X80000000Y-87800000D01*
%TO.N,Net-(C5-Pad1)*%
X70662500Y-88337500D02*
X70300000Y-88700000D01*
X70662500Y-85600000D02*
X70662500Y-88337500D01*
X70662500Y-82462500D02*
X70300000Y-82100000D01*
X70662500Y-85600000D02*
X70662500Y-82462500D01*
%TD*%
%TA.AperFunction,Conductor*%
%TO.N,GND*%
G36*
X72363855Y-63020185D02*
G01*
X72409610Y-63072989D01*
X72419554Y-63142147D01*
X72390529Y-63205703D01*
X72384497Y-63212181D01*
X72372863Y-63223814D01*
X72372860Y-63223818D01*
X72263371Y-63387679D01*
X72263364Y-63387692D01*
X72187950Y-63569760D01*
X72187947Y-63569770D01*
X72149500Y-63763056D01*
X72149500Y-63763059D01*
X72149500Y-63960141D01*
X72149500Y-63960143D01*
X72149499Y-63960143D01*
X72187947Y-64153429D01*
X72187950Y-64153439D01*
X72263364Y-64335507D01*
X72263371Y-64335520D01*
X72372860Y-64499381D01*
X72372863Y-64499385D01*
X72512214Y-64638736D01*
X72512218Y-64638739D01*
X72676079Y-64748228D01*
X72676092Y-64748235D01*
X72858160Y-64823649D01*
X72858165Y-64823651D01*
X72858169Y-64823651D01*
X72858170Y-64823652D01*
X73051456Y-64862100D01*
X73051459Y-64862100D01*
X73248543Y-64862100D01*
X73378582Y-64836232D01*
X73441835Y-64823651D01*
X73623914Y-64748232D01*
X73787782Y-64638739D01*
X73927139Y-64499382D01*
X74036632Y-64335514D01*
X74112051Y-64153435D01*
X74150500Y-63960141D01*
X74150500Y-63763059D01*
X74150500Y-63763056D01*
X74112052Y-63569770D01*
X74112051Y-63569769D01*
X74112051Y-63569765D01*
X74093050Y-63523892D01*
X74036635Y-63387692D01*
X74036628Y-63387679D01*
X73927139Y-63223818D01*
X73927136Y-63223814D01*
X73915503Y-63212181D01*
X73882018Y-63150858D01*
X73887002Y-63081166D01*
X73928874Y-63025233D01*
X73994338Y-63000816D01*
X74003184Y-63000500D01*
X74836816Y-63000500D01*
X74903855Y-63020185D01*
X74949610Y-63072989D01*
X74959554Y-63142147D01*
X74930529Y-63205703D01*
X74924497Y-63212181D01*
X74912863Y-63223814D01*
X74912860Y-63223818D01*
X74803371Y-63387679D01*
X74803364Y-63387692D01*
X74727950Y-63569760D01*
X74727947Y-63569770D01*
X74689500Y-63763056D01*
X74689500Y-63763059D01*
X74689500Y-63960141D01*
X74689500Y-63960143D01*
X74689499Y-63960143D01*
X74727947Y-64153429D01*
X74727950Y-64153439D01*
X74803364Y-64335507D01*
X74803371Y-64335520D01*
X74912860Y-64499381D01*
X74912863Y-64499385D01*
X75052214Y-64638736D01*
X75052218Y-64638739D01*
X75216079Y-64748228D01*
X75216092Y-64748235D01*
X75398160Y-64823649D01*
X75398165Y-64823651D01*
X75398169Y-64823651D01*
X75398170Y-64823652D01*
X75591456Y-64862100D01*
X75591459Y-64862100D01*
X75788543Y-64862100D01*
X75918582Y-64836232D01*
X75981835Y-64823651D01*
X76163914Y-64748232D01*
X76327782Y-64638739D01*
X76467139Y-64499382D01*
X76576632Y-64335514D01*
X76652051Y-64153435D01*
X76690500Y-63960141D01*
X76690500Y-63763059D01*
X76690500Y-63763056D01*
X76652052Y-63569770D01*
X76652051Y-63569769D01*
X76652051Y-63569765D01*
X76633050Y-63523892D01*
X76576635Y-63387692D01*
X76576628Y-63387679D01*
X76467139Y-63223818D01*
X76467136Y-63223814D01*
X76455503Y-63212181D01*
X76422018Y-63150858D01*
X76427002Y-63081166D01*
X76468874Y-63025233D01*
X76534338Y-63000816D01*
X76543184Y-63000500D01*
X77376816Y-63000500D01*
X77443855Y-63020185D01*
X77489610Y-63072989D01*
X77499554Y-63142147D01*
X77470529Y-63205703D01*
X77464497Y-63212181D01*
X77452863Y-63223814D01*
X77452860Y-63223818D01*
X77343371Y-63387679D01*
X77343364Y-63387692D01*
X77267950Y-63569760D01*
X77267947Y-63569770D01*
X77229500Y-63763056D01*
X77229500Y-63763059D01*
X77229500Y-63960141D01*
X77229500Y-63960143D01*
X77229499Y-63960143D01*
X77267947Y-64153429D01*
X77267950Y-64153439D01*
X77343364Y-64335507D01*
X77343371Y-64335520D01*
X77452860Y-64499381D01*
X77452863Y-64499385D01*
X77592214Y-64638736D01*
X77592218Y-64638739D01*
X77756079Y-64748228D01*
X77756092Y-64748235D01*
X77938160Y-64823649D01*
X77938165Y-64823651D01*
X77938169Y-64823651D01*
X77938170Y-64823652D01*
X78131456Y-64862100D01*
X78131459Y-64862100D01*
X78328543Y-64862100D01*
X78458582Y-64836232D01*
X78521835Y-64823651D01*
X78703914Y-64748232D01*
X78867782Y-64638739D01*
X79007139Y-64499382D01*
X79116632Y-64335514D01*
X79192051Y-64153435D01*
X79230500Y-63960141D01*
X79230500Y-63763059D01*
X79230500Y-63763056D01*
X79192052Y-63569770D01*
X79192051Y-63569769D01*
X79192051Y-63569765D01*
X79173050Y-63523892D01*
X79116635Y-63387692D01*
X79116628Y-63387679D01*
X79007139Y-63223818D01*
X79007136Y-63223814D01*
X78995503Y-63212181D01*
X78962018Y-63150858D01*
X78967002Y-63081166D01*
X79008874Y-63025233D01*
X79074338Y-63000816D01*
X79083184Y-63000500D01*
X79916816Y-63000500D01*
X79983855Y-63020185D01*
X80029610Y-63072989D01*
X80039554Y-63142147D01*
X80010529Y-63205703D01*
X80004497Y-63212181D01*
X79992863Y-63223814D01*
X79992860Y-63223818D01*
X79883371Y-63387679D01*
X79883364Y-63387692D01*
X79807950Y-63569760D01*
X79807947Y-63569770D01*
X79769500Y-63763056D01*
X79769500Y-63763059D01*
X79769500Y-63960141D01*
X79769500Y-63960143D01*
X79769499Y-63960143D01*
X79807947Y-64153429D01*
X79807950Y-64153439D01*
X79883364Y-64335507D01*
X79883371Y-64335520D01*
X79992860Y-64499381D01*
X79992863Y-64499385D01*
X80132214Y-64638736D01*
X80132218Y-64638739D01*
X80296079Y-64748228D01*
X80296092Y-64748235D01*
X80478160Y-64823649D01*
X80478165Y-64823651D01*
X80478169Y-64823651D01*
X80478170Y-64823652D01*
X80671456Y-64862100D01*
X80671459Y-64862100D01*
X80868543Y-64862100D01*
X80998582Y-64836232D01*
X81061835Y-64823651D01*
X81243914Y-64748232D01*
X81407782Y-64638739D01*
X81547139Y-64499382D01*
X81656632Y-64335514D01*
X81732051Y-64153435D01*
X81770500Y-63960141D01*
X81770500Y-63763059D01*
X81770500Y-63763056D01*
X81732052Y-63569770D01*
X81732051Y-63569769D01*
X81732051Y-63569765D01*
X81713050Y-63523892D01*
X81656635Y-63387692D01*
X81656628Y-63387679D01*
X81547139Y-63223818D01*
X81547136Y-63223814D01*
X81535503Y-63212181D01*
X81502018Y-63150858D01*
X81507002Y-63081166D01*
X81548874Y-63025233D01*
X81614338Y-63000816D01*
X81623184Y-63000500D01*
X82456816Y-63000500D01*
X82523855Y-63020185D01*
X82569610Y-63072989D01*
X82579554Y-63142147D01*
X82550529Y-63205703D01*
X82544497Y-63212181D01*
X82532863Y-63223814D01*
X82532860Y-63223818D01*
X82423371Y-63387679D01*
X82423364Y-63387692D01*
X82347950Y-63569760D01*
X82347947Y-63569770D01*
X82309500Y-63763056D01*
X82309500Y-63763059D01*
X82309500Y-63960141D01*
X82309500Y-63960143D01*
X82309499Y-63960143D01*
X82347947Y-64153429D01*
X82347950Y-64153439D01*
X82423364Y-64335507D01*
X82423371Y-64335520D01*
X82532860Y-64499381D01*
X82532863Y-64499385D01*
X82672214Y-64638736D01*
X82672218Y-64638739D01*
X82836079Y-64748228D01*
X82836092Y-64748235D01*
X83018160Y-64823649D01*
X83018165Y-64823651D01*
X83018169Y-64823651D01*
X83018170Y-64823652D01*
X83211456Y-64862100D01*
X83211459Y-64862100D01*
X83408543Y-64862100D01*
X83538582Y-64836232D01*
X83601835Y-64823651D01*
X83783914Y-64748232D01*
X83947782Y-64638739D01*
X84087139Y-64499382D01*
X84196632Y-64335514D01*
X84272051Y-64153435D01*
X84310500Y-63960141D01*
X84310500Y-63763059D01*
X84310500Y-63763056D01*
X84272052Y-63569770D01*
X84272051Y-63569769D01*
X84272051Y-63569765D01*
X84253050Y-63523892D01*
X84196635Y-63387692D01*
X84196628Y-63387679D01*
X84087139Y-63223818D01*
X84087136Y-63223814D01*
X84075503Y-63212181D01*
X84042018Y-63150858D01*
X84047002Y-63081166D01*
X84088874Y-63025233D01*
X84154338Y-63000816D01*
X84163184Y-63000500D01*
X84996816Y-63000500D01*
X85063855Y-63020185D01*
X85109610Y-63072989D01*
X85119554Y-63142147D01*
X85090529Y-63205703D01*
X85084497Y-63212181D01*
X85072863Y-63223814D01*
X85072860Y-63223818D01*
X84963371Y-63387679D01*
X84963364Y-63387692D01*
X84887950Y-63569760D01*
X84887947Y-63569770D01*
X84849500Y-63763056D01*
X84849500Y-63763059D01*
X84849500Y-63960141D01*
X84849500Y-63960143D01*
X84849499Y-63960143D01*
X84887947Y-64153429D01*
X84887950Y-64153439D01*
X84963364Y-64335507D01*
X84963371Y-64335520D01*
X85072860Y-64499381D01*
X85072863Y-64499385D01*
X85212214Y-64638736D01*
X85212218Y-64638739D01*
X85376079Y-64748228D01*
X85376092Y-64748235D01*
X85558160Y-64823649D01*
X85558165Y-64823651D01*
X85558169Y-64823651D01*
X85558170Y-64823652D01*
X85751456Y-64862100D01*
X85751459Y-64862100D01*
X85948543Y-64862100D01*
X86078582Y-64836232D01*
X86141835Y-64823651D01*
X86323914Y-64748232D01*
X86487782Y-64638739D01*
X86627139Y-64499382D01*
X86736632Y-64335514D01*
X86812051Y-64153435D01*
X86850500Y-63960141D01*
X86850500Y-63763059D01*
X86850500Y-63763056D01*
X86812052Y-63569770D01*
X86812051Y-63569769D01*
X86812051Y-63569765D01*
X86793050Y-63523892D01*
X86736635Y-63387692D01*
X86736628Y-63387679D01*
X86627139Y-63223818D01*
X86627136Y-63223814D01*
X86615503Y-63212181D01*
X86582018Y-63150858D01*
X86587002Y-63081166D01*
X86628874Y-63025233D01*
X86694338Y-63000816D01*
X86703184Y-63000500D01*
X87536816Y-63000500D01*
X87603855Y-63020185D01*
X87649610Y-63072989D01*
X87659554Y-63142147D01*
X87630529Y-63205703D01*
X87624497Y-63212181D01*
X87612863Y-63223814D01*
X87612860Y-63223818D01*
X87503371Y-63387679D01*
X87503364Y-63387692D01*
X87427950Y-63569760D01*
X87427947Y-63569770D01*
X87389500Y-63763056D01*
X87389500Y-63763059D01*
X87389500Y-63960141D01*
X87389500Y-63960143D01*
X87389499Y-63960143D01*
X87427947Y-64153429D01*
X87427950Y-64153439D01*
X87503364Y-64335507D01*
X87503371Y-64335520D01*
X87612860Y-64499381D01*
X87612863Y-64499385D01*
X87752214Y-64638736D01*
X87752218Y-64638739D01*
X87916079Y-64748228D01*
X87916092Y-64748235D01*
X88098160Y-64823649D01*
X88098165Y-64823651D01*
X88098169Y-64823651D01*
X88098170Y-64823652D01*
X88291456Y-64862100D01*
X88291459Y-64862100D01*
X88488543Y-64862100D01*
X88618582Y-64836232D01*
X88681835Y-64823651D01*
X88863914Y-64748232D01*
X89027782Y-64638739D01*
X89167139Y-64499382D01*
X89276632Y-64335514D01*
X89352051Y-64153435D01*
X89390500Y-63960141D01*
X89390500Y-63763059D01*
X89390500Y-63763056D01*
X89352052Y-63569770D01*
X89352051Y-63569769D01*
X89352051Y-63569765D01*
X89333050Y-63523892D01*
X89276635Y-63387692D01*
X89276628Y-63387679D01*
X89167139Y-63223818D01*
X89167136Y-63223814D01*
X89155503Y-63212181D01*
X89122018Y-63150858D01*
X89127002Y-63081166D01*
X89168874Y-63025233D01*
X89234338Y-63000816D01*
X89243184Y-63000500D01*
X90076816Y-63000500D01*
X90143855Y-63020185D01*
X90189610Y-63072989D01*
X90199554Y-63142147D01*
X90170529Y-63205703D01*
X90164497Y-63212181D01*
X90152863Y-63223814D01*
X90152860Y-63223818D01*
X90043371Y-63387679D01*
X90043364Y-63387692D01*
X89967950Y-63569760D01*
X89967947Y-63569770D01*
X89929500Y-63763056D01*
X89929500Y-63763059D01*
X89929500Y-63960141D01*
X89929500Y-63960143D01*
X89929499Y-63960143D01*
X89967947Y-64153429D01*
X89967950Y-64153439D01*
X90043364Y-64335507D01*
X90043371Y-64335520D01*
X90152860Y-64499381D01*
X90152863Y-64499385D01*
X90292214Y-64638736D01*
X90292218Y-64638739D01*
X90456079Y-64748228D01*
X90456092Y-64748235D01*
X90638160Y-64823649D01*
X90638165Y-64823651D01*
X90638169Y-64823651D01*
X90638170Y-64823652D01*
X90831456Y-64862100D01*
X90831459Y-64862100D01*
X91028543Y-64862100D01*
X91158582Y-64836232D01*
X91221835Y-64823651D01*
X91403914Y-64748232D01*
X91567782Y-64638739D01*
X91707139Y-64499382D01*
X91816632Y-64335514D01*
X91892051Y-64153435D01*
X91930500Y-63960141D01*
X91930500Y-63763059D01*
X91930500Y-63763056D01*
X91892052Y-63569770D01*
X91892051Y-63569769D01*
X91892051Y-63569765D01*
X91873050Y-63523892D01*
X91816635Y-63387692D01*
X91816628Y-63387679D01*
X91707139Y-63223818D01*
X91707136Y-63223814D01*
X91695503Y-63212181D01*
X91662018Y-63150858D01*
X91667002Y-63081166D01*
X91708874Y-63025233D01*
X91774338Y-63000816D01*
X91783184Y-63000500D01*
X92616816Y-63000500D01*
X92683855Y-63020185D01*
X92729610Y-63072989D01*
X92739554Y-63142147D01*
X92710529Y-63205703D01*
X92704497Y-63212181D01*
X92692863Y-63223814D01*
X92692860Y-63223818D01*
X92583371Y-63387679D01*
X92583364Y-63387692D01*
X92507950Y-63569760D01*
X92507947Y-63569770D01*
X92469500Y-63763056D01*
X92469500Y-63763059D01*
X92469500Y-63960141D01*
X92469500Y-63960143D01*
X92469499Y-63960143D01*
X92507947Y-64153429D01*
X92507950Y-64153439D01*
X92583364Y-64335507D01*
X92583371Y-64335520D01*
X92692860Y-64499381D01*
X92692863Y-64499385D01*
X92832214Y-64638736D01*
X92832218Y-64638739D01*
X92996079Y-64748228D01*
X92996092Y-64748235D01*
X93178160Y-64823649D01*
X93178165Y-64823651D01*
X93178169Y-64823651D01*
X93178170Y-64823652D01*
X93371456Y-64862100D01*
X93371459Y-64862100D01*
X93568543Y-64862100D01*
X93698582Y-64836232D01*
X93761835Y-64823651D01*
X93943914Y-64748232D01*
X94107782Y-64638739D01*
X94247139Y-64499382D01*
X94356632Y-64335514D01*
X94432051Y-64153435D01*
X94470500Y-63960141D01*
X94470500Y-63763059D01*
X94470500Y-63763056D01*
X94432052Y-63569770D01*
X94432051Y-63569769D01*
X94432051Y-63569765D01*
X94413050Y-63523892D01*
X94356635Y-63387692D01*
X94356628Y-63387679D01*
X94247139Y-63223818D01*
X94247136Y-63223814D01*
X94235503Y-63212181D01*
X94202018Y-63150858D01*
X94207002Y-63081166D01*
X94248874Y-63025233D01*
X94314338Y-63000816D01*
X94323184Y-63000500D01*
X95156816Y-63000500D01*
X95223855Y-63020185D01*
X95269610Y-63072989D01*
X95279554Y-63142147D01*
X95250529Y-63205703D01*
X95244497Y-63212181D01*
X95232863Y-63223814D01*
X95232860Y-63223818D01*
X95123371Y-63387679D01*
X95123364Y-63387692D01*
X95047950Y-63569760D01*
X95047947Y-63569770D01*
X95009500Y-63763056D01*
X95009500Y-63763059D01*
X95009500Y-63960141D01*
X95009500Y-63960143D01*
X95009499Y-63960143D01*
X95047947Y-64153429D01*
X95047950Y-64153439D01*
X95123364Y-64335507D01*
X95123371Y-64335520D01*
X95232860Y-64499381D01*
X95232863Y-64499385D01*
X95372214Y-64638736D01*
X95372218Y-64638739D01*
X95536079Y-64748228D01*
X95536092Y-64748235D01*
X95718160Y-64823649D01*
X95718165Y-64823651D01*
X95718169Y-64823651D01*
X95718170Y-64823652D01*
X95911456Y-64862100D01*
X95911459Y-64862100D01*
X96108543Y-64862100D01*
X96238582Y-64836232D01*
X96301835Y-64823651D01*
X96483914Y-64748232D01*
X96647782Y-64638739D01*
X96787139Y-64499382D01*
X96896632Y-64335514D01*
X96972051Y-64153435D01*
X97010500Y-63960141D01*
X97010500Y-63763059D01*
X97010500Y-63763056D01*
X96972052Y-63569770D01*
X96972051Y-63569769D01*
X96972051Y-63569765D01*
X96953050Y-63523892D01*
X96896635Y-63387692D01*
X96896628Y-63387679D01*
X96787139Y-63223818D01*
X96787136Y-63223814D01*
X96775503Y-63212181D01*
X96742018Y-63150858D01*
X96747002Y-63081166D01*
X96788874Y-63025233D01*
X96854338Y-63000816D01*
X96863184Y-63000500D01*
X97696816Y-63000500D01*
X97763855Y-63020185D01*
X97809610Y-63072989D01*
X97819554Y-63142147D01*
X97790529Y-63205703D01*
X97784497Y-63212181D01*
X97772863Y-63223814D01*
X97772860Y-63223818D01*
X97663371Y-63387679D01*
X97663364Y-63387692D01*
X97587950Y-63569760D01*
X97587947Y-63569770D01*
X97549500Y-63763056D01*
X97549500Y-63763059D01*
X97549500Y-63960141D01*
X97549500Y-63960143D01*
X97549499Y-63960143D01*
X97587947Y-64153429D01*
X97587950Y-64153439D01*
X97663364Y-64335507D01*
X97663371Y-64335520D01*
X97772860Y-64499381D01*
X97772863Y-64499385D01*
X97912214Y-64638736D01*
X97912218Y-64638739D01*
X98076079Y-64748228D01*
X98076092Y-64748235D01*
X98258160Y-64823649D01*
X98258165Y-64823651D01*
X98258169Y-64823651D01*
X98258170Y-64823652D01*
X98451456Y-64862100D01*
X98451459Y-64862100D01*
X98648543Y-64862100D01*
X98778582Y-64836232D01*
X98841835Y-64823651D01*
X99023914Y-64748232D01*
X99187782Y-64638739D01*
X99187785Y-64638736D01*
X99236241Y-64590281D01*
X99327136Y-64499385D01*
X99327137Y-64499384D01*
X99327139Y-64499382D01*
X99436632Y-64335514D01*
X99512051Y-64153435D01*
X99550500Y-63960141D01*
X99550500Y-63763059D01*
X99550500Y-63763056D01*
X99512052Y-63569770D01*
X99512051Y-63569769D01*
X99512051Y-63569765D01*
X99493050Y-63523892D01*
X99436635Y-63387692D01*
X99436628Y-63387679D01*
X99327139Y-63223818D01*
X99327136Y-63223814D01*
X99315503Y-63212181D01*
X99282018Y-63150858D01*
X99287002Y-63081166D01*
X99328874Y-63025233D01*
X99394338Y-63000816D01*
X99403184Y-63000500D01*
X100531091Y-63000500D01*
X100598130Y-63020185D01*
X100618772Y-63036819D01*
X100919766Y-63337812D01*
X100877708Y-63349082D01*
X100752292Y-63421490D01*
X100649890Y-63523892D01*
X100577482Y-63649308D01*
X100566212Y-63691365D01*
X100227426Y-63352578D01*
X100227426Y-63352579D01*
X100203813Y-63387918D01*
X100203809Y-63387925D01*
X100128429Y-63569910D01*
X100128427Y-63569918D01*
X100090000Y-63763104D01*
X100090000Y-63960095D01*
X100128427Y-64153281D01*
X100128430Y-64153293D01*
X100203808Y-64335273D01*
X100203809Y-64335275D01*
X100227425Y-64370619D01*
X100566212Y-64031833D01*
X100577482Y-64073892D01*
X100649890Y-64199308D01*
X100752292Y-64301710D01*
X100877708Y-64374118D01*
X100919765Y-64385387D01*
X100580979Y-64724172D01*
X100616328Y-64747792D01*
X100798306Y-64823169D01*
X100798318Y-64823172D01*
X100991504Y-64861599D01*
X100991508Y-64861600D01*
X101188492Y-64861600D01*
X101188495Y-64861599D01*
X101381681Y-64823172D01*
X101381693Y-64823169D01*
X101563676Y-64747790D01*
X101563680Y-64747787D01*
X101599019Y-64724173D01*
X101599020Y-64724172D01*
X101260235Y-64385387D01*
X101302292Y-64374118D01*
X101427708Y-64301710D01*
X101530110Y-64199308D01*
X101602518Y-64073892D01*
X101613787Y-64031835D01*
X101952572Y-64370620D01*
X101952573Y-64370619D01*
X101976187Y-64335280D01*
X101976190Y-64335276D01*
X102051569Y-64153293D01*
X102051572Y-64153281D01*
X102089999Y-63960095D01*
X102090000Y-63960092D01*
X102090000Y-63763108D01*
X102089999Y-63763104D01*
X102051572Y-63569918D01*
X102051569Y-63569906D01*
X101976192Y-63387928D01*
X101952572Y-63352579D01*
X101613787Y-63691364D01*
X101602518Y-63649308D01*
X101530110Y-63523892D01*
X101427708Y-63421490D01*
X101302292Y-63349082D01*
X101260233Y-63337812D01*
X101561228Y-63036819D01*
X101622551Y-63003334D01*
X101648909Y-63000500D01*
X102776816Y-63000500D01*
X102843855Y-63020185D01*
X102889610Y-63072989D01*
X102899554Y-63142147D01*
X102870529Y-63205703D01*
X102864497Y-63212181D01*
X102852863Y-63223814D01*
X102852860Y-63223818D01*
X102743371Y-63387679D01*
X102743364Y-63387692D01*
X102667950Y-63569760D01*
X102667947Y-63569770D01*
X102629500Y-63763056D01*
X102629500Y-63763059D01*
X102629500Y-63960141D01*
X102629500Y-63960143D01*
X102629499Y-63960143D01*
X102667947Y-64153429D01*
X102667950Y-64153439D01*
X102743364Y-64335507D01*
X102743371Y-64335520D01*
X102852860Y-64499381D01*
X102852863Y-64499385D01*
X102992214Y-64638736D01*
X102992218Y-64638739D01*
X103156079Y-64748228D01*
X103156092Y-64748235D01*
X103338160Y-64823649D01*
X103338165Y-64823651D01*
X103338169Y-64823651D01*
X103338170Y-64823652D01*
X103531456Y-64862100D01*
X103531459Y-64862100D01*
X103728543Y-64862100D01*
X103858582Y-64836232D01*
X103921835Y-64823651D01*
X104103914Y-64748232D01*
X104267782Y-64638739D01*
X104407139Y-64499382D01*
X104516632Y-64335514D01*
X104592051Y-64153435D01*
X104630500Y-63960141D01*
X104630500Y-63763059D01*
X104630500Y-63763056D01*
X104592052Y-63569770D01*
X104592051Y-63569769D01*
X104592051Y-63569765D01*
X104573050Y-63523892D01*
X104516635Y-63387692D01*
X104516628Y-63387679D01*
X104407139Y-63223818D01*
X104407136Y-63223814D01*
X104395503Y-63212181D01*
X104362018Y-63150858D01*
X104367002Y-63081166D01*
X104408874Y-63025233D01*
X104474338Y-63000816D01*
X104483184Y-63000500D01*
X105316816Y-63000500D01*
X105383855Y-63020185D01*
X105429610Y-63072989D01*
X105439554Y-63142147D01*
X105410529Y-63205703D01*
X105404497Y-63212181D01*
X105392863Y-63223814D01*
X105392860Y-63223818D01*
X105283371Y-63387679D01*
X105283364Y-63387692D01*
X105207950Y-63569760D01*
X105207947Y-63569770D01*
X105169500Y-63763056D01*
X105169500Y-63763059D01*
X105169500Y-63960141D01*
X105169500Y-63960143D01*
X105169499Y-63960143D01*
X105207947Y-64153429D01*
X105207950Y-64153439D01*
X105283364Y-64335507D01*
X105283371Y-64335520D01*
X105392860Y-64499381D01*
X105392863Y-64499385D01*
X105532214Y-64638736D01*
X105532218Y-64638739D01*
X105696079Y-64748228D01*
X105696092Y-64748235D01*
X105878160Y-64823649D01*
X105878165Y-64823651D01*
X105878169Y-64823651D01*
X105878170Y-64823652D01*
X106071456Y-64862100D01*
X106071459Y-64862100D01*
X106268543Y-64862100D01*
X106398582Y-64836232D01*
X106461835Y-64823651D01*
X106643914Y-64748232D01*
X106807782Y-64638739D01*
X106947139Y-64499382D01*
X107056632Y-64335514D01*
X107132051Y-64153435D01*
X107170500Y-63960141D01*
X107170500Y-63763059D01*
X107170500Y-63763056D01*
X107132052Y-63569770D01*
X107132051Y-63569769D01*
X107132051Y-63569765D01*
X107113050Y-63523892D01*
X107056635Y-63387692D01*
X107056628Y-63387679D01*
X106947139Y-63223818D01*
X106947136Y-63223814D01*
X106935503Y-63212181D01*
X106902018Y-63150858D01*
X106907002Y-63081166D01*
X106948874Y-63025233D01*
X107014338Y-63000816D01*
X107023184Y-63000500D01*
X107856816Y-63000500D01*
X107923855Y-63020185D01*
X107969610Y-63072989D01*
X107979554Y-63142147D01*
X107950529Y-63205703D01*
X107944497Y-63212181D01*
X107932863Y-63223814D01*
X107932860Y-63223818D01*
X107823371Y-63387679D01*
X107823364Y-63387692D01*
X107747950Y-63569760D01*
X107747947Y-63569770D01*
X107709500Y-63763056D01*
X107709500Y-63763059D01*
X107709500Y-63960141D01*
X107709500Y-63960143D01*
X107709499Y-63960143D01*
X107747947Y-64153429D01*
X107747950Y-64153439D01*
X107823364Y-64335507D01*
X107823371Y-64335520D01*
X107932860Y-64499381D01*
X107932863Y-64499385D01*
X108072214Y-64638736D01*
X108072218Y-64638739D01*
X108236079Y-64748228D01*
X108236092Y-64748235D01*
X108418160Y-64823649D01*
X108418165Y-64823651D01*
X108418169Y-64823651D01*
X108418170Y-64823652D01*
X108611456Y-64862100D01*
X108611459Y-64862100D01*
X108808543Y-64862100D01*
X108938582Y-64836232D01*
X109001835Y-64823651D01*
X109183914Y-64748232D01*
X109347782Y-64638739D01*
X109487139Y-64499382D01*
X109596632Y-64335514D01*
X109672051Y-64153435D01*
X109710500Y-63960141D01*
X109710500Y-63763059D01*
X109710500Y-63763056D01*
X109672052Y-63569770D01*
X109672051Y-63569769D01*
X109672051Y-63569765D01*
X109653050Y-63523892D01*
X109596635Y-63387692D01*
X109596628Y-63387679D01*
X109487139Y-63223818D01*
X109487136Y-63223814D01*
X109475503Y-63212181D01*
X109442018Y-63150858D01*
X109447002Y-63081166D01*
X109488874Y-63025233D01*
X109554338Y-63000816D01*
X109563184Y-63000500D01*
X110396816Y-63000500D01*
X110463855Y-63020185D01*
X110509610Y-63072989D01*
X110519554Y-63142147D01*
X110490529Y-63205703D01*
X110484497Y-63212181D01*
X110472863Y-63223814D01*
X110472860Y-63223818D01*
X110363371Y-63387679D01*
X110363364Y-63387692D01*
X110287950Y-63569760D01*
X110287947Y-63569770D01*
X110249500Y-63763056D01*
X110249500Y-63763059D01*
X110249500Y-63960141D01*
X110249500Y-63960143D01*
X110249499Y-63960143D01*
X110287947Y-64153429D01*
X110287950Y-64153439D01*
X110363364Y-64335507D01*
X110363371Y-64335520D01*
X110472860Y-64499381D01*
X110472863Y-64499385D01*
X110612214Y-64638736D01*
X110612218Y-64638739D01*
X110776079Y-64748228D01*
X110776092Y-64748235D01*
X110958160Y-64823649D01*
X110958165Y-64823651D01*
X110958169Y-64823651D01*
X110958170Y-64823652D01*
X111151456Y-64862100D01*
X111151459Y-64862100D01*
X111348543Y-64862100D01*
X111478582Y-64836232D01*
X111541835Y-64823651D01*
X111723914Y-64748232D01*
X111887782Y-64638739D01*
X112027139Y-64499382D01*
X112136632Y-64335514D01*
X112212051Y-64153435D01*
X112250500Y-63960141D01*
X112250500Y-63763059D01*
X112250500Y-63763056D01*
X112212052Y-63569770D01*
X112212051Y-63569769D01*
X112212051Y-63569765D01*
X112193050Y-63523892D01*
X112136635Y-63387692D01*
X112136628Y-63387679D01*
X112027139Y-63223818D01*
X112027136Y-63223814D01*
X112015503Y-63212181D01*
X111982018Y-63150858D01*
X111987002Y-63081166D01*
X112028874Y-63025233D01*
X112094338Y-63000816D01*
X112103184Y-63000500D01*
X112936816Y-63000500D01*
X113003855Y-63020185D01*
X113049610Y-63072989D01*
X113059554Y-63142147D01*
X113030529Y-63205703D01*
X113024497Y-63212181D01*
X113012863Y-63223814D01*
X113012860Y-63223818D01*
X112903371Y-63387679D01*
X112903364Y-63387692D01*
X112827950Y-63569760D01*
X112827947Y-63569770D01*
X112789500Y-63763056D01*
X112789500Y-63763059D01*
X112789500Y-63960141D01*
X112789500Y-63960143D01*
X112789499Y-63960143D01*
X112827947Y-64153429D01*
X112827950Y-64153439D01*
X112903364Y-64335507D01*
X112903371Y-64335520D01*
X113012860Y-64499381D01*
X113012863Y-64499385D01*
X113152214Y-64638736D01*
X113152218Y-64638739D01*
X113316079Y-64748228D01*
X113316092Y-64748235D01*
X113498160Y-64823649D01*
X113498165Y-64823651D01*
X113498169Y-64823651D01*
X113498170Y-64823652D01*
X113691456Y-64862100D01*
X113691459Y-64862100D01*
X113888543Y-64862100D01*
X114018582Y-64836232D01*
X114081835Y-64823651D01*
X114263914Y-64748232D01*
X114427782Y-64638739D01*
X114567139Y-64499382D01*
X114676632Y-64335514D01*
X114752051Y-64153435D01*
X114790500Y-63960141D01*
X114790500Y-63763059D01*
X114790500Y-63763056D01*
X114752052Y-63569770D01*
X114752051Y-63569769D01*
X114752051Y-63569765D01*
X114733050Y-63523892D01*
X114676635Y-63387692D01*
X114676628Y-63387679D01*
X114567139Y-63223818D01*
X114567136Y-63223814D01*
X114555503Y-63212181D01*
X114522018Y-63150858D01*
X114527002Y-63081166D01*
X114568874Y-63025233D01*
X114634338Y-63000816D01*
X114643184Y-63000500D01*
X115476816Y-63000500D01*
X115543855Y-63020185D01*
X115589610Y-63072989D01*
X115599554Y-63142147D01*
X115570529Y-63205703D01*
X115564497Y-63212181D01*
X115552863Y-63223814D01*
X115552860Y-63223818D01*
X115443371Y-63387679D01*
X115443364Y-63387692D01*
X115367950Y-63569760D01*
X115367947Y-63569770D01*
X115329500Y-63763056D01*
X115329500Y-63763059D01*
X115329500Y-63960141D01*
X115329500Y-63960143D01*
X115329499Y-63960143D01*
X115367947Y-64153429D01*
X115367950Y-64153439D01*
X115443364Y-64335507D01*
X115443371Y-64335520D01*
X115552860Y-64499381D01*
X115552863Y-64499385D01*
X115692214Y-64638736D01*
X115692218Y-64638739D01*
X115856079Y-64748228D01*
X115856092Y-64748235D01*
X116038160Y-64823649D01*
X116038165Y-64823651D01*
X116038169Y-64823651D01*
X116038170Y-64823652D01*
X116231456Y-64862100D01*
X116231459Y-64862100D01*
X116428543Y-64862100D01*
X116558582Y-64836232D01*
X116621835Y-64823651D01*
X116803914Y-64748232D01*
X116967782Y-64638739D01*
X117107139Y-64499382D01*
X117216632Y-64335514D01*
X117292051Y-64153435D01*
X117330500Y-63960141D01*
X117330500Y-63763059D01*
X117330500Y-63763056D01*
X117292052Y-63569770D01*
X117292051Y-63569769D01*
X117292051Y-63569765D01*
X117273050Y-63523892D01*
X117216635Y-63387692D01*
X117216628Y-63387679D01*
X117107139Y-63223818D01*
X117107136Y-63223814D01*
X117095503Y-63212181D01*
X117062018Y-63150858D01*
X117067002Y-63081166D01*
X117108874Y-63025233D01*
X117174338Y-63000816D01*
X117183184Y-63000500D01*
X118016816Y-63000500D01*
X118083855Y-63020185D01*
X118129610Y-63072989D01*
X118139554Y-63142147D01*
X118110529Y-63205703D01*
X118104497Y-63212181D01*
X118092863Y-63223814D01*
X118092860Y-63223818D01*
X117983371Y-63387679D01*
X117983364Y-63387692D01*
X117907950Y-63569760D01*
X117907947Y-63569770D01*
X117869500Y-63763056D01*
X117869500Y-63763059D01*
X117869500Y-63960141D01*
X117869500Y-63960143D01*
X117869499Y-63960143D01*
X117907947Y-64153429D01*
X117907950Y-64153439D01*
X117983364Y-64335507D01*
X117983371Y-64335520D01*
X118092860Y-64499381D01*
X118092863Y-64499385D01*
X118232214Y-64638736D01*
X118232218Y-64638739D01*
X118396079Y-64748228D01*
X118396092Y-64748235D01*
X118578160Y-64823649D01*
X118578165Y-64823651D01*
X118578169Y-64823651D01*
X118578170Y-64823652D01*
X118771456Y-64862100D01*
X118771459Y-64862100D01*
X118968543Y-64862100D01*
X119098582Y-64836232D01*
X119161835Y-64823651D01*
X119343914Y-64748232D01*
X119507782Y-64638739D01*
X119647139Y-64499382D01*
X119756632Y-64335514D01*
X119832051Y-64153435D01*
X119870500Y-63960141D01*
X119870500Y-63763059D01*
X119870500Y-63763056D01*
X119832052Y-63569770D01*
X119832051Y-63569769D01*
X119832051Y-63569765D01*
X119813050Y-63523892D01*
X119756635Y-63387692D01*
X119756628Y-63387679D01*
X119647139Y-63223818D01*
X119647136Y-63223814D01*
X119635503Y-63212181D01*
X119602018Y-63150858D01*
X119607002Y-63081166D01*
X119648874Y-63025233D01*
X119714338Y-63000816D01*
X119723184Y-63000500D01*
X120556816Y-63000500D01*
X120623855Y-63020185D01*
X120669610Y-63072989D01*
X120679554Y-63142147D01*
X120650529Y-63205703D01*
X120644497Y-63212181D01*
X120632863Y-63223814D01*
X120632860Y-63223818D01*
X120523371Y-63387679D01*
X120523364Y-63387692D01*
X120447950Y-63569760D01*
X120447947Y-63569770D01*
X120409500Y-63763056D01*
X120409500Y-63763059D01*
X120409500Y-63960141D01*
X120409500Y-63960143D01*
X120409499Y-63960143D01*
X120447947Y-64153429D01*
X120447950Y-64153439D01*
X120523364Y-64335507D01*
X120523371Y-64335520D01*
X120632860Y-64499381D01*
X120632863Y-64499385D01*
X120772214Y-64638736D01*
X120772218Y-64638739D01*
X120936079Y-64748228D01*
X120936092Y-64748235D01*
X121118160Y-64823649D01*
X121118165Y-64823651D01*
X121118169Y-64823651D01*
X121118170Y-64823652D01*
X121311456Y-64862100D01*
X121311459Y-64862100D01*
X121508543Y-64862100D01*
X121638582Y-64836232D01*
X121701835Y-64823651D01*
X121883914Y-64748232D01*
X122047782Y-64638739D01*
X122187139Y-64499382D01*
X122296632Y-64335514D01*
X122372051Y-64153435D01*
X122410500Y-63960141D01*
X122410500Y-63763059D01*
X122410500Y-63763056D01*
X122372052Y-63569770D01*
X122372051Y-63569769D01*
X122372051Y-63569765D01*
X122353050Y-63523892D01*
X122296635Y-63387692D01*
X122296628Y-63387679D01*
X122187139Y-63223818D01*
X122187136Y-63223814D01*
X122175503Y-63212181D01*
X122142018Y-63150858D01*
X122147002Y-63081166D01*
X122188874Y-63025233D01*
X122254338Y-63000816D01*
X122263184Y-63000500D01*
X123096816Y-63000500D01*
X123163855Y-63020185D01*
X123209610Y-63072989D01*
X123219554Y-63142147D01*
X123190529Y-63205703D01*
X123184497Y-63212181D01*
X123172863Y-63223814D01*
X123172860Y-63223818D01*
X123063371Y-63387679D01*
X123063364Y-63387692D01*
X122987950Y-63569760D01*
X122987947Y-63569770D01*
X122949500Y-63763056D01*
X122949500Y-63763059D01*
X122949500Y-63960141D01*
X122949500Y-63960143D01*
X122949499Y-63960143D01*
X122987947Y-64153429D01*
X122987950Y-64153439D01*
X123063364Y-64335507D01*
X123063371Y-64335520D01*
X123172860Y-64499381D01*
X123172863Y-64499385D01*
X123312214Y-64638736D01*
X123312218Y-64638739D01*
X123476079Y-64748228D01*
X123476092Y-64748235D01*
X123658160Y-64823649D01*
X123658165Y-64823651D01*
X123658169Y-64823651D01*
X123658170Y-64823652D01*
X123851456Y-64862100D01*
X123851459Y-64862100D01*
X124048543Y-64862100D01*
X124178582Y-64836232D01*
X124241835Y-64823651D01*
X124423914Y-64748232D01*
X124587782Y-64638739D01*
X124587785Y-64638736D01*
X124637819Y-64588703D01*
X124699142Y-64555218D01*
X124768834Y-64560202D01*
X124824767Y-64602074D01*
X124849184Y-64667538D01*
X124849500Y-64676384D01*
X124849500Y-78286816D01*
X124829815Y-78353855D01*
X124777011Y-78399610D01*
X124707853Y-78409554D01*
X124644297Y-78380529D01*
X124637819Y-78374497D01*
X124587785Y-78324463D01*
X124587781Y-78324460D01*
X124423920Y-78214971D01*
X124423907Y-78214964D01*
X124241839Y-78139550D01*
X124241829Y-78139547D01*
X124048543Y-78101100D01*
X124048541Y-78101100D01*
X123851459Y-78101100D01*
X123851457Y-78101100D01*
X123658170Y-78139547D01*
X123658160Y-78139550D01*
X123476092Y-78214964D01*
X123476079Y-78214971D01*
X123312218Y-78324460D01*
X123312214Y-78324463D01*
X123172863Y-78463814D01*
X123172860Y-78463818D01*
X123063371Y-78627679D01*
X123063364Y-78627692D01*
X122987950Y-78809760D01*
X122987947Y-78809770D01*
X122949500Y-79003056D01*
X122949500Y-79003059D01*
X122949500Y-79200141D01*
X122949500Y-79200143D01*
X122949499Y-79200143D01*
X122987947Y-79393429D01*
X122987950Y-79393439D01*
X123063364Y-79575507D01*
X123063371Y-79575520D01*
X123172860Y-79739381D01*
X123172863Y-79739385D01*
X123312214Y-79878736D01*
X123312218Y-79878739D01*
X123476079Y-79988228D01*
X123476092Y-79988235D01*
X123626188Y-80050406D01*
X123658165Y-80063651D01*
X123658169Y-80063651D01*
X123658170Y-80063652D01*
X123851456Y-80102100D01*
X123851459Y-80102100D01*
X124048543Y-80102100D01*
X124198887Y-80072194D01*
X124241835Y-80063651D01*
X124423914Y-79988232D01*
X124587782Y-79878739D01*
X124602176Y-79864345D01*
X124637819Y-79828703D01*
X124699142Y-79795218D01*
X124768834Y-79800202D01*
X124824767Y-79842074D01*
X124849184Y-79907538D01*
X124849500Y-79916384D01*
X124849500Y-102763161D01*
X124829815Y-102830200D01*
X124777011Y-102875955D01*
X124725500Y-102887161D01*
X118124000Y-102887161D01*
X118056961Y-102867476D01*
X118011206Y-102814672D01*
X118000000Y-102763161D01*
X118000000Y-94950000D01*
X109500000Y-94950000D01*
X109500000Y-102763161D01*
X109480315Y-102830200D01*
X109427511Y-102875955D01*
X109376000Y-102887161D01*
X64624500Y-102887161D01*
X64557461Y-102867476D01*
X64511706Y-102814672D01*
X64500500Y-102763161D01*
X64500500Y-93304315D01*
X66700000Y-93304315D01*
X66700000Y-94250000D01*
X67472769Y-94250000D01*
X67450000Y-94393753D01*
X67450000Y-94606247D01*
X67472769Y-94750000D01*
X66700000Y-94750000D01*
X66700000Y-95695684D01*
X66710183Y-95810231D01*
X66710184Y-95810234D01*
X66763894Y-95997946D01*
X66854292Y-96171004D01*
X66977676Y-96322323D01*
X67128995Y-96445707D01*
X67302053Y-96536105D01*
X67489765Y-96589815D01*
X67489768Y-96589816D01*
X67604315Y-96599999D01*
X67604318Y-96600000D01*
X68550000Y-96600000D01*
X68550000Y-95827231D01*
X68693753Y-95850000D01*
X68906247Y-95850000D01*
X69050000Y-95827231D01*
X69050000Y-96600000D01*
X69995682Y-96600000D01*
X69995684Y-96599999D01*
X70110231Y-96589816D01*
X70110234Y-96589815D01*
X70297946Y-96536105D01*
X70471004Y-96445707D01*
X70622323Y-96322323D01*
X70745707Y-96171004D01*
X70836105Y-95997946D01*
X70889815Y-95810234D01*
X70889816Y-95810231D01*
X70899999Y-95695684D01*
X70900000Y-95695682D01*
X70900000Y-94750000D01*
X70127231Y-94750000D01*
X70150000Y-94606247D01*
X70150000Y-94393753D01*
X70143985Y-94355778D01*
X71599500Y-94355778D01*
X71599500Y-94644221D01*
X71599501Y-94644238D01*
X71637149Y-94930206D01*
X71637150Y-94930211D01*
X71637151Y-94930217D01*
X71676528Y-95077173D01*
X71711809Y-95208844D01*
X71711814Y-95208860D01*
X71822191Y-95475336D01*
X71822199Y-95475352D01*
X71966420Y-95725148D01*
X71966431Y-95725164D01*
X72142024Y-95954002D01*
X72142030Y-95954009D01*
X72345990Y-96157969D01*
X72345997Y-96157975D01*
X72380757Y-96184647D01*
X72574844Y-96333575D01*
X72574851Y-96333579D01*
X72824647Y-96477800D01*
X72824663Y-96477808D01*
X73091139Y-96588185D01*
X73091145Y-96588186D01*
X73091155Y-96588191D01*
X73369783Y-96662849D01*
X73655772Y-96700500D01*
X73655779Y-96700500D01*
X73944221Y-96700500D01*
X73944228Y-96700500D01*
X74230217Y-96662849D01*
X74508845Y-96588191D01*
X74508857Y-96588185D01*
X74508860Y-96588185D01*
X74775336Y-96477808D01*
X74775339Y-96477806D01*
X74775345Y-96477804D01*
X75025156Y-96333575D01*
X75254004Y-96157974D01*
X75457974Y-95954004D01*
X75633575Y-95725156D01*
X75777804Y-95475345D01*
X75862205Y-95271583D01*
X75888185Y-95208860D01*
X75888185Y-95208857D01*
X75888191Y-95208845D01*
X75962849Y-94930217D01*
X76000500Y-94644228D01*
X76000500Y-94355772D01*
X75962849Y-94069783D01*
X75888191Y-93791155D01*
X75888186Y-93791145D01*
X75888185Y-93791139D01*
X75777808Y-93524663D01*
X75777800Y-93524647D01*
X75633579Y-93274851D01*
X75633575Y-93274844D01*
X75563286Y-93183242D01*
X75457975Y-93045997D01*
X75457969Y-93045990D01*
X75346087Y-92934108D01*
X109499500Y-92934108D01*
X109499500Y-93065892D01*
X109514755Y-93122826D01*
X109533608Y-93193187D01*
X109565778Y-93248906D01*
X109599500Y-93307314D01*
X109692686Y-93400500D01*
X109791521Y-93457563D01*
X109801425Y-93463281D01*
X109806814Y-93466392D01*
X109934108Y-93500500D01*
X109934110Y-93500500D01*
X110065890Y-93500500D01*
X110065892Y-93500500D01*
X110193186Y-93466392D01*
X110193194Y-93466387D01*
X110200696Y-93463281D01*
X110201249Y-93464618D01*
X110253937Y-93450500D01*
X118525500Y-93450500D01*
X118592539Y-93470185D01*
X118638294Y-93522989D01*
X118649500Y-93574500D01*
X118649500Y-97959311D01*
X118662658Y-98008413D01*
X118662659Y-98008417D01*
X118680199Y-98073885D01*
X118715440Y-98134922D01*
X118739511Y-98176614D01*
X118739513Y-98176616D01*
X120523100Y-99960203D01*
X120556585Y-100021526D01*
X120553350Y-100086201D01*
X120530291Y-100157170D01*
X120499500Y-100351577D01*
X120499500Y-100548422D01*
X120530290Y-100742826D01*
X120591117Y-100930029D01*
X120680476Y-101105405D01*
X120796172Y-101264646D01*
X120935354Y-101403828D01*
X121094595Y-101519524D01*
X121177455Y-101561743D01*
X121269970Y-101608882D01*
X121269972Y-101608882D01*
X121269975Y-101608884D01*
X121370317Y-101641487D01*
X121457173Y-101669709D01*
X121651578Y-101700500D01*
X121651583Y-101700500D01*
X121848422Y-101700500D01*
X122042826Y-101669709D01*
X122230025Y-101608884D01*
X122405405Y-101519524D01*
X122564646Y-101403828D01*
X122703828Y-101264646D01*
X122819524Y-101105405D01*
X122908884Y-100930025D01*
X122969709Y-100742826D01*
X123000500Y-100548422D01*
X123000500Y-100351577D01*
X122969709Y-100157173D01*
X122925634Y-100021526D01*
X122908884Y-99969975D01*
X122908882Y-99969972D01*
X122908882Y-99969970D01*
X122819523Y-99794594D01*
X122703828Y-99635354D01*
X122564646Y-99496172D01*
X122485025Y-99438324D01*
X122405403Y-99380474D01*
X122228787Y-99290485D01*
X122177990Y-99242511D01*
X122161195Y-99174690D01*
X122183732Y-99108555D01*
X122228787Y-99069515D01*
X122405403Y-98979525D01*
X122405402Y-98979525D01*
X122405405Y-98979524D01*
X122564646Y-98863828D01*
X122703828Y-98724646D01*
X122819524Y-98565405D01*
X122908884Y-98390025D01*
X122969709Y-98202826D01*
X122990131Y-98073887D01*
X123000500Y-98008422D01*
X123000500Y-97811577D01*
X122969709Y-97617173D01*
X122908882Y-97429970D01*
X122819523Y-97254594D01*
X122703828Y-97095354D01*
X122564646Y-96956172D01*
X122485025Y-96898324D01*
X122405403Y-96840474D01*
X122228787Y-96750485D01*
X122177990Y-96702511D01*
X122161195Y-96634690D01*
X122183732Y-96568555D01*
X122228787Y-96529515D01*
X122405403Y-96439525D01*
X122405402Y-96439525D01*
X122405405Y-96439524D01*
X122564646Y-96323828D01*
X122703828Y-96184646D01*
X122819524Y-96025405D01*
X122908884Y-95850025D01*
X122969709Y-95662826D01*
X122977755Y-95612028D01*
X123000500Y-95468422D01*
X123000500Y-95271577D01*
X122969709Y-95077173D01*
X122908882Y-94889970D01*
X122860747Y-94795500D01*
X122819524Y-94714595D01*
X122703828Y-94555354D01*
X122564646Y-94416172D01*
X122481498Y-94355761D01*
X122405403Y-94300474D01*
X122228787Y-94210485D01*
X122177990Y-94162511D01*
X122161195Y-94094690D01*
X122183732Y-94028555D01*
X122228787Y-93989515D01*
X122405403Y-93899525D01*
X122405402Y-93899525D01*
X122405405Y-93899524D01*
X122564646Y-93783828D01*
X122703828Y-93644646D01*
X122819524Y-93485405D01*
X122908884Y-93310025D01*
X122969709Y-93122826D01*
X122974863Y-93090283D01*
X123000500Y-92928422D01*
X123000500Y-92731577D01*
X122969709Y-92537173D01*
X122908882Y-92349970D01*
X122819523Y-92174594D01*
X122703828Y-92015354D01*
X122564646Y-91876172D01*
X122485025Y-91818324D01*
X122405403Y-91760474D01*
X122228787Y-91670485D01*
X122177990Y-91622511D01*
X122161195Y-91554690D01*
X122183732Y-91488555D01*
X122228787Y-91449515D01*
X122405403Y-91359525D01*
X122405402Y-91359525D01*
X122405405Y-91359524D01*
X122564646Y-91243828D01*
X122703828Y-91104646D01*
X122819524Y-90945405D01*
X122908884Y-90770025D01*
X122969709Y-90582826D01*
X122981748Y-90506814D01*
X123000500Y-90388422D01*
X123000500Y-90191577D01*
X122969709Y-89997173D01*
X122908882Y-89809970D01*
X122834819Y-89664614D01*
X122819524Y-89634595D01*
X122703828Y-89475354D01*
X122564646Y-89336172D01*
X122424984Y-89234701D01*
X122405403Y-89220474D01*
X122228787Y-89130485D01*
X122177990Y-89082511D01*
X122161195Y-89014690D01*
X122183732Y-88948555D01*
X122228787Y-88909515D01*
X122405403Y-88819525D01*
X122405402Y-88819525D01*
X122405405Y-88819524D01*
X122564646Y-88703828D01*
X122703828Y-88564646D01*
X122819524Y-88405405D01*
X122908884Y-88230025D01*
X122969709Y-88042826D01*
X122979105Y-87983500D01*
X123000500Y-87848422D01*
X123000500Y-87651577D01*
X122969709Y-87457173D01*
X122926107Y-87322981D01*
X122908884Y-87269975D01*
X122908882Y-87269972D01*
X122908882Y-87269970D01*
X122857811Y-87169738D01*
X122819524Y-87094595D01*
X122703828Y-86935354D01*
X122564646Y-86796172D01*
X122410407Y-86684110D01*
X122405403Y-86680474D01*
X122228787Y-86590485D01*
X122177990Y-86542511D01*
X122161195Y-86474690D01*
X122183732Y-86408555D01*
X122228787Y-86369515D01*
X122405403Y-86279525D01*
X122405402Y-86279525D01*
X122405405Y-86279524D01*
X122564646Y-86163828D01*
X122703828Y-86024646D01*
X122819524Y-85865405D01*
X122908884Y-85690025D01*
X122969709Y-85502826D01*
X123000500Y-85308422D01*
X123000500Y-85111577D01*
X122969709Y-84917173D01*
X122908882Y-84729970D01*
X122846130Y-84606812D01*
X122819524Y-84554595D01*
X122703828Y-84395354D01*
X122564646Y-84256172D01*
X122411377Y-84144815D01*
X122368714Y-84089487D01*
X122362735Y-84019873D01*
X122395341Y-83958078D01*
X122456180Y-83923721D01*
X122484264Y-83920499D01*
X122604264Y-83920499D01*
X122634698Y-83917646D01*
X122762882Y-83872793D01*
X122872150Y-83792150D01*
X122952793Y-83682882D01*
X122997646Y-83554698D01*
X123000500Y-83524265D01*
X123000499Y-81815736D01*
X122997646Y-81785302D01*
X122952793Y-81657118D01*
X122872150Y-81547850D01*
X122762882Y-81467207D01*
X122762881Y-81467206D01*
X122634695Y-81422353D01*
X122634698Y-81422353D01*
X122604268Y-81419500D01*
X120895741Y-81419500D01*
X120865301Y-81422354D01*
X120865300Y-81422354D01*
X120737118Y-81467206D01*
X120627850Y-81547850D01*
X120547206Y-81657118D01*
X120502353Y-81785302D01*
X120499500Y-81815731D01*
X120499500Y-81815735D01*
X120499501Y-83524264D01*
X120500424Y-83534108D01*
X120502354Y-83554698D01*
X120502354Y-83554699D01*
X120547206Y-83682881D01*
X120551724Y-83689002D01*
X120627850Y-83792150D01*
X120737118Y-83872793D01*
X120865302Y-83917646D01*
X120865301Y-83917646D01*
X120869867Y-83918074D01*
X120895735Y-83920500D01*
X121015734Y-83920499D01*
X121082771Y-83940183D01*
X121128526Y-83992987D01*
X121138470Y-84062145D01*
X121109446Y-84125701D01*
X121088619Y-84144816D01*
X120935354Y-84256171D01*
X120796174Y-84395351D01*
X120796174Y-84395352D01*
X120796172Y-84395354D01*
X120771724Y-84429004D01*
X120680476Y-84554594D01*
X120591117Y-84729970D01*
X120530290Y-84917173D01*
X120499500Y-85111577D01*
X120499500Y-85308422D01*
X120530291Y-85502827D01*
X120530291Y-85502830D01*
X120577874Y-85649272D01*
X120579869Y-85719113D01*
X120547624Y-85775271D01*
X118739513Y-87583383D01*
X118739509Y-87583389D01*
X118680201Y-87686112D01*
X118680200Y-87686117D01*
X118649500Y-87800691D01*
X118649500Y-92425500D01*
X118629815Y-92492539D01*
X118577011Y-92538294D01*
X118525500Y-92549500D01*
X110253937Y-92549500D01*
X110201249Y-92535381D01*
X110200696Y-92536719D01*
X110193188Y-92533609D01*
X110193186Y-92533608D01*
X110065892Y-92499500D01*
X109934108Y-92499500D01*
X109806812Y-92533608D01*
X109692686Y-92599500D01*
X109692683Y-92599502D01*
X109599502Y-92692683D01*
X109599500Y-92692686D01*
X109533608Y-92806812D01*
X109524173Y-92842026D01*
X109499500Y-92934108D01*
X75346087Y-92934108D01*
X75254009Y-92842030D01*
X75254002Y-92842024D01*
X75025164Y-92666431D01*
X75025162Y-92666429D01*
X75025156Y-92666425D01*
X75025151Y-92666422D01*
X75025148Y-92666420D01*
X74775352Y-92522199D01*
X74775336Y-92522191D01*
X74508860Y-92411814D01*
X74508848Y-92411810D01*
X74508845Y-92411809D01*
X74230217Y-92337151D01*
X74230211Y-92337150D01*
X74230206Y-92337149D01*
X73944238Y-92299501D01*
X73944233Y-92299500D01*
X73944228Y-92299500D01*
X73655772Y-92299500D01*
X73655766Y-92299500D01*
X73655761Y-92299501D01*
X73369793Y-92337149D01*
X73369786Y-92337150D01*
X73369783Y-92337151D01*
X73135227Y-92400000D01*
X73091155Y-92411809D01*
X73091139Y-92411814D01*
X72824663Y-92522191D01*
X72824647Y-92522199D01*
X72574851Y-92666420D01*
X72574835Y-92666431D01*
X72345997Y-92842024D01*
X72345990Y-92842030D01*
X72142030Y-93045990D01*
X72142024Y-93045997D01*
X71966431Y-93274835D01*
X71966420Y-93274851D01*
X71822199Y-93524647D01*
X71822191Y-93524663D01*
X71711814Y-93791139D01*
X71711809Y-93791155D01*
X71637152Y-94069780D01*
X71637149Y-94069793D01*
X71599501Y-94355761D01*
X71599500Y-94355778D01*
X70143985Y-94355778D01*
X70127231Y-94250000D01*
X70900000Y-94250000D01*
X70900000Y-93304318D01*
X70899999Y-93304315D01*
X70889816Y-93189768D01*
X70889815Y-93189765D01*
X70836105Y-93002053D01*
X70745707Y-92828995D01*
X70622323Y-92677676D01*
X70471004Y-92554292D01*
X70297946Y-92463894D01*
X70110234Y-92410184D01*
X70110231Y-92410183D01*
X69995684Y-92400000D01*
X69050000Y-92400000D01*
X69050000Y-93172768D01*
X68906247Y-93150000D01*
X68693753Y-93150000D01*
X68550000Y-93172768D01*
X68550000Y-92400000D01*
X67604315Y-92400000D01*
X67489768Y-92410183D01*
X67489765Y-92410184D01*
X67302053Y-92463894D01*
X67128995Y-92554292D01*
X66977676Y-92677676D01*
X66854292Y-92828995D01*
X66763894Y-93002053D01*
X66710184Y-93189765D01*
X66710183Y-93189768D01*
X66700000Y-93304315D01*
X64500500Y-93304315D01*
X64500500Y-80210962D01*
X64520185Y-80143923D01*
X64572989Y-80098168D01*
X64642147Y-80088224D01*
X64648692Y-80089345D01*
X64710300Y-80101599D01*
X64710301Y-80101600D01*
X65280000Y-80101600D01*
X65280000Y-79592347D01*
X65317708Y-79614118D01*
X65457591Y-79651600D01*
X65602409Y-79651600D01*
X65742292Y-79614118D01*
X65780000Y-79592347D01*
X65780000Y-80101600D01*
X66349699Y-80101600D01*
X66349702Y-80101599D01*
X66408033Y-80089997D01*
X66408034Y-80089996D01*
X66474191Y-80045791D01*
X66518396Y-79979634D01*
X66518397Y-79979633D01*
X66529999Y-79921302D01*
X66530000Y-79921299D01*
X66530000Y-79351600D01*
X66020748Y-79351600D01*
X66042518Y-79313892D01*
X66080000Y-79174009D01*
X66080000Y-79029191D01*
X66042518Y-78889308D01*
X66020748Y-78851600D01*
X66530000Y-78851600D01*
X66530000Y-78281901D01*
X66529999Y-78281897D01*
X66518397Y-78223566D01*
X66518396Y-78223565D01*
X66474191Y-78157408D01*
X66408034Y-78113203D01*
X66408033Y-78113202D01*
X66349702Y-78101600D01*
X65780000Y-78101600D01*
X65780000Y-78610852D01*
X65742292Y-78589082D01*
X65602409Y-78551600D01*
X65457591Y-78551600D01*
X65317708Y-78589082D01*
X65280000Y-78610852D01*
X65280000Y-78101600D01*
X64710303Y-78101600D01*
X64648690Y-78113855D01*
X64579098Y-78107626D01*
X64523922Y-78064763D01*
X64500678Y-77998873D01*
X64500500Y-77992237D01*
X64500500Y-68792817D01*
X64520185Y-68725778D01*
X64572989Y-68680023D01*
X64642147Y-68670079D01*
X64698134Y-68693047D01*
X64812355Y-68777346D01*
X64812354Y-68777346D01*
X64940397Y-68822149D01*
X64970792Y-68824999D01*
X65249999Y-68824999D01*
X65750000Y-68824999D01*
X66029196Y-68824999D01*
X66059606Y-68822148D01*
X66187645Y-68777346D01*
X66296792Y-68696792D01*
X66377346Y-68587645D01*
X66422149Y-68459604D01*
X66422149Y-68459600D01*
X66425000Y-68429206D01*
X66425000Y-68287500D01*
X65750000Y-68287500D01*
X65750000Y-68824999D01*
X65249999Y-68824999D01*
X65250000Y-68824998D01*
X65250000Y-67250000D01*
X64970804Y-67250000D01*
X64940393Y-67252851D01*
X64812354Y-67297653D01*
X64812351Y-67297655D01*
X64698133Y-67381952D01*
X64632504Y-67405923D01*
X64564334Y-67390607D01*
X64515266Y-67340867D01*
X64500500Y-67282182D01*
X64500500Y-66718438D01*
X64520185Y-66651399D01*
X64572989Y-66605644D01*
X64642147Y-66595700D01*
X64698134Y-66618668D01*
X64702847Y-66622146D01*
X64702850Y-66622150D01*
X64812118Y-66702793D01*
X64854845Y-66717744D01*
X64940299Y-66747646D01*
X64970730Y-66750500D01*
X64970734Y-66750500D01*
X65705601Y-66750500D01*
X65772640Y-66770185D01*
X65793282Y-66786819D01*
X66044782Y-67038319D01*
X66078267Y-67099642D01*
X66073283Y-67169334D01*
X66031411Y-67225267D01*
X65965947Y-67249684D01*
X65957101Y-67250000D01*
X65750000Y-67250000D01*
X65750000Y-67787500D01*
X66424999Y-67787500D01*
X66424999Y-67717898D01*
X66444684Y-67650859D01*
X66497488Y-67605104D01*
X66566646Y-67595160D01*
X66630202Y-67624185D01*
X66636680Y-67630217D01*
X68938181Y-69931718D01*
X68971666Y-69993041D01*
X68974500Y-70019399D01*
X68974500Y-78291816D01*
X68954815Y-78358855D01*
X68902011Y-78404610D01*
X68832853Y-78414554D01*
X68769297Y-78385529D01*
X68762819Y-78379497D01*
X68707785Y-78324463D01*
X68707781Y-78324460D01*
X68543920Y-78214971D01*
X68543907Y-78214964D01*
X68361839Y-78139550D01*
X68361829Y-78139547D01*
X68168543Y-78101100D01*
X68168541Y-78101100D01*
X67971459Y-78101100D01*
X67971457Y-78101100D01*
X67778170Y-78139547D01*
X67778160Y-78139550D01*
X67596092Y-78214964D01*
X67596079Y-78214971D01*
X67432218Y-78324460D01*
X67432214Y-78324463D01*
X67292863Y-78463814D01*
X67292860Y-78463818D01*
X67183371Y-78627679D01*
X67183364Y-78627692D01*
X67107950Y-78809760D01*
X67107947Y-78809770D01*
X67069500Y-79003056D01*
X67069500Y-79003059D01*
X67069500Y-79200141D01*
X67069500Y-79200143D01*
X67069499Y-79200143D01*
X67107947Y-79393429D01*
X67107950Y-79393439D01*
X67183364Y-79575507D01*
X67183371Y-79575520D01*
X67292860Y-79739381D01*
X67292863Y-79739385D01*
X67432214Y-79878736D01*
X67432218Y-79878739D01*
X67596079Y-79988228D01*
X67596092Y-79988235D01*
X67746188Y-80050406D01*
X67778165Y-80063651D01*
X67778169Y-80063651D01*
X67778170Y-80063652D01*
X67971456Y-80102100D01*
X67971459Y-80102100D01*
X68168543Y-80102100D01*
X68318887Y-80072194D01*
X68361835Y-80063651D01*
X68543914Y-79988232D01*
X68707782Y-79878739D01*
X68722176Y-79864345D01*
X68762819Y-79823703D01*
X68824142Y-79790218D01*
X68893834Y-79795202D01*
X68949767Y-79837074D01*
X68974184Y-79902538D01*
X68974500Y-79911384D01*
X68974500Y-81111501D01*
X68954815Y-81178540D01*
X68902011Y-81224295D01*
X68832853Y-81234239D01*
X68809546Y-81228543D01*
X68734697Y-81202353D01*
X68734699Y-81202353D01*
X68704270Y-81199500D01*
X68704266Y-81199500D01*
X67895734Y-81199500D01*
X67895730Y-81199500D01*
X67865300Y-81202353D01*
X67865298Y-81202353D01*
X67737119Y-81247206D01*
X67737117Y-81247207D01*
X67627850Y-81327850D01*
X67547207Y-81437117D01*
X67547206Y-81437119D01*
X67502353Y-81565298D01*
X67502353Y-81565300D01*
X67499500Y-81595730D01*
X67499500Y-82604269D01*
X67502353Y-82634699D01*
X67502353Y-82634701D01*
X67540051Y-82742432D01*
X67547207Y-82762882D01*
X67627850Y-82872150D01*
X67737118Y-82952793D01*
X67761041Y-82961164D01*
X67865295Y-82997645D01*
X67865299Y-82997645D01*
X67865301Y-82997646D01*
X67887078Y-82999688D01*
X67951984Y-83025544D01*
X67992610Y-83082388D01*
X67999500Y-83123146D01*
X67999500Y-83475500D01*
X67979815Y-83542539D01*
X67927011Y-83588294D01*
X67875500Y-83599500D01*
X67220730Y-83599500D01*
X67190300Y-83602353D01*
X67190298Y-83602353D01*
X67062119Y-83647206D01*
X67062117Y-83647207D01*
X66952850Y-83727850D01*
X66872207Y-83837117D01*
X66872206Y-83837119D01*
X66827353Y-83965298D01*
X66827353Y-83965300D01*
X66824500Y-83995730D01*
X66824500Y-84804269D01*
X66827353Y-84834699D01*
X66827353Y-84834701D01*
X66872206Y-84962880D01*
X66872207Y-84962882D01*
X66952850Y-85072150D01*
X67062118Y-85152793D01*
X67097304Y-85165105D01*
X67190299Y-85197646D01*
X67220730Y-85200500D01*
X67220734Y-85200500D01*
X68579270Y-85200500D01*
X68609699Y-85197646D01*
X68609701Y-85197646D01*
X68673790Y-85175219D01*
X68737882Y-85152793D01*
X68776867Y-85124020D01*
X68842495Y-85100050D01*
X68910665Y-85115365D01*
X68959734Y-85165105D01*
X68974500Y-85223791D01*
X68974500Y-85768059D01*
X68954815Y-85835098D01*
X68902011Y-85880853D01*
X68832853Y-85890797D01*
X68769297Y-85861772D01*
X68762819Y-85855740D01*
X68685292Y-85778213D01*
X68685288Y-85778210D01*
X68554185Y-85690609D01*
X68554172Y-85690602D01*
X68408501Y-85630264D01*
X68408489Y-85630261D01*
X68253845Y-85599500D01*
X68253842Y-85599500D01*
X67546158Y-85599500D01*
X67546155Y-85599500D01*
X67391510Y-85630261D01*
X67391498Y-85630264D01*
X67245827Y-85690602D01*
X67245814Y-85690609D01*
X67114711Y-85778210D01*
X67114707Y-85778213D01*
X67003213Y-85889707D01*
X67003210Y-85889711D01*
X66915609Y-86020814D01*
X66915602Y-86020827D01*
X66855264Y-86166498D01*
X66855261Y-86166510D01*
X66824500Y-86321153D01*
X66824500Y-86478846D01*
X66855261Y-86633489D01*
X66855264Y-86633501D01*
X66915602Y-86779172D01*
X66915609Y-86779185D01*
X67003210Y-86910288D01*
X67003213Y-86910292D01*
X67114707Y-87021786D01*
X67114711Y-87021789D01*
X67245814Y-87109390D01*
X67245827Y-87109397D01*
X67345060Y-87150500D01*
X67391503Y-87169737D01*
X67546153Y-87200499D01*
X67546156Y-87200500D01*
X67546158Y-87200500D01*
X67875500Y-87200500D01*
X67942539Y-87220185D01*
X67988294Y-87272989D01*
X67999500Y-87324500D01*
X67999500Y-87676853D01*
X67979815Y-87743892D01*
X67927011Y-87789647D01*
X67887079Y-87800311D01*
X67865300Y-87802353D01*
X67865298Y-87802353D01*
X67737119Y-87847206D01*
X67737117Y-87847207D01*
X67627850Y-87927850D01*
X67547207Y-88037117D01*
X67547206Y-88037119D01*
X67502353Y-88165298D01*
X67502353Y-88165300D01*
X67499500Y-88195730D01*
X67499500Y-89204269D01*
X67502353Y-89234699D01*
X67502353Y-89234701D01*
X67547206Y-89362880D01*
X67547207Y-89362882D01*
X67627850Y-89472150D01*
X67737118Y-89552793D01*
X67761041Y-89561164D01*
X67865299Y-89597646D01*
X67895730Y-89600500D01*
X67895734Y-89600500D01*
X68704270Y-89600500D01*
X68728612Y-89598216D01*
X68734699Y-89597646D01*
X68809546Y-89571455D01*
X68879323Y-89567893D01*
X68939950Y-89602621D01*
X68972178Y-89664614D01*
X68974500Y-89688497D01*
X68974500Y-90402761D01*
X68957887Y-90464761D01*
X68933609Y-90506811D01*
X68933609Y-90506812D01*
X68933608Y-90506814D01*
X68899500Y-90634108D01*
X68899500Y-90765892D01*
X68916554Y-90829539D01*
X68933608Y-90893187D01*
X68963757Y-90945405D01*
X68999500Y-91007314D01*
X69092686Y-91100500D01*
X69206814Y-91166392D01*
X69334108Y-91200500D01*
X69334110Y-91200500D01*
X69465890Y-91200500D01*
X69465892Y-91200500D01*
X69593186Y-91166392D01*
X69707314Y-91100500D01*
X69800500Y-91007314D01*
X69866392Y-90893186D01*
X69900500Y-90765892D01*
X69900500Y-90634108D01*
X69866392Y-90506814D01*
X69800500Y-90392686D01*
X69761819Y-90354005D01*
X69728334Y-90292682D01*
X69725500Y-90266324D01*
X69725500Y-89720708D01*
X69745185Y-89653669D01*
X69797989Y-89607914D01*
X69861079Y-89597250D01*
X69895732Y-89600500D01*
X69895734Y-89600500D01*
X70704270Y-89600500D01*
X70734699Y-89597646D01*
X70734701Y-89597646D01*
X70809546Y-89571456D01*
X70862882Y-89552793D01*
X70972150Y-89472150D01*
X71052793Y-89362882D01*
X71075219Y-89298790D01*
X71097646Y-89234701D01*
X71097646Y-89234699D01*
X71100500Y-89204269D01*
X71100500Y-88195730D01*
X71097646Y-88165300D01*
X71097646Y-88165298D01*
X71052793Y-88037119D01*
X71052790Y-88037113D01*
X70987230Y-87948282D01*
X70963259Y-87882653D01*
X70963000Y-87874649D01*
X70963000Y-86646974D01*
X70982685Y-86579935D01*
X71035489Y-86534180D01*
X71075422Y-86523515D01*
X71084699Y-86522646D01*
X71084701Y-86522645D01*
X71084703Y-86522645D01*
X71131294Y-86506341D01*
X71212882Y-86477793D01*
X71322150Y-86397150D01*
X71402793Y-86287882D01*
X71445263Y-86166510D01*
X71447646Y-86159701D01*
X71447646Y-86159699D01*
X71450500Y-86129269D01*
X71450500Y-86129196D01*
X71950001Y-86129196D01*
X71952851Y-86159606D01*
X71997653Y-86287645D01*
X72078207Y-86396792D01*
X72187354Y-86477346D01*
X72315397Y-86522149D01*
X72345778Y-86524998D01*
X72345806Y-86524999D01*
X72487499Y-86524999D01*
X72987500Y-86524999D01*
X73129196Y-86524999D01*
X73159606Y-86522148D01*
X73287645Y-86477346D01*
X73396792Y-86396792D01*
X73477346Y-86287645D01*
X73522149Y-86159604D01*
X73522149Y-86159600D01*
X73525000Y-86129206D01*
X73525000Y-85850000D01*
X72987500Y-85850000D01*
X72987500Y-86524999D01*
X72487499Y-86524999D01*
X72487500Y-86524998D01*
X72487500Y-85850000D01*
X71950001Y-85850000D01*
X71950001Y-86129196D01*
X71450500Y-86129196D01*
X71450500Y-85070793D01*
X71950000Y-85070793D01*
X71950000Y-85350000D01*
X72487500Y-85350000D01*
X72987500Y-85350000D01*
X73524999Y-85350000D01*
X73524999Y-85070803D01*
X73522148Y-85040393D01*
X73477346Y-84912354D01*
X73396792Y-84803207D01*
X73287645Y-84722653D01*
X73159602Y-84677850D01*
X73129207Y-84675000D01*
X72987500Y-84675000D01*
X72987500Y-85350000D01*
X72487500Y-85350000D01*
X72487500Y-84675000D01*
X72345804Y-84675000D01*
X72315393Y-84677851D01*
X72187354Y-84722653D01*
X72078207Y-84803207D01*
X71997653Y-84912354D01*
X71952850Y-85040395D01*
X71952850Y-85040399D01*
X71950000Y-85070793D01*
X71450500Y-85070793D01*
X71450500Y-85070730D01*
X71447646Y-85040300D01*
X71447646Y-85040298D01*
X71404562Y-84917173D01*
X71402793Y-84912118D01*
X71322150Y-84802850D01*
X71212882Y-84722207D01*
X71212880Y-84722206D01*
X71084701Y-84677353D01*
X71075418Y-84676483D01*
X71010510Y-84650623D01*
X70969887Y-84593776D01*
X70963000Y-84553025D01*
X70963000Y-82925351D01*
X70982685Y-82858312D01*
X70987230Y-82851718D01*
X71052790Y-82762886D01*
X71052789Y-82762886D01*
X71052793Y-82762882D01*
X71090630Y-82654751D01*
X71097646Y-82634701D01*
X71097646Y-82634699D01*
X71100500Y-82604269D01*
X71100500Y-81595730D01*
X71097646Y-81565300D01*
X71097646Y-81565298D01*
X71052793Y-81437119D01*
X71052792Y-81437117D01*
X70972150Y-81327850D01*
X70862882Y-81247207D01*
X70862880Y-81247206D01*
X70734700Y-81202353D01*
X70704270Y-81199500D01*
X70704266Y-81199500D01*
X69895734Y-81199500D01*
X69878662Y-81201101D01*
X69861075Y-81202750D01*
X69792491Y-81189409D01*
X69742007Y-81141107D01*
X69725500Y-81079291D01*
X69725500Y-79931384D01*
X69745185Y-79864345D01*
X69797989Y-79818590D01*
X69867147Y-79808646D01*
X69930703Y-79837671D01*
X69937181Y-79843703D01*
X69972214Y-79878736D01*
X69972218Y-79878739D01*
X70136079Y-79988228D01*
X70136092Y-79988235D01*
X70286188Y-80050406D01*
X70318165Y-80063651D01*
X70318169Y-80063651D01*
X70318170Y-80063652D01*
X70511456Y-80102100D01*
X70511459Y-80102100D01*
X70708543Y-80102100D01*
X70858887Y-80072194D01*
X70901835Y-80063651D01*
X71083914Y-79988232D01*
X71247782Y-79878739D01*
X71387139Y-79739382D01*
X71496632Y-79575514D01*
X71572051Y-79393435D01*
X71610500Y-79200143D01*
X72149499Y-79200143D01*
X72187947Y-79393429D01*
X72187950Y-79393439D01*
X72263364Y-79575507D01*
X72263371Y-79575520D01*
X72372860Y-79739381D01*
X72372863Y-79739385D01*
X72512214Y-79878736D01*
X72512218Y-79878739D01*
X72676079Y-79988228D01*
X72676092Y-79988235D01*
X72826188Y-80050406D01*
X72858165Y-80063651D01*
X72858169Y-80063651D01*
X72858170Y-80063652D01*
X73051456Y-80102100D01*
X73051459Y-80102100D01*
X73248543Y-80102100D01*
X73398887Y-80072194D01*
X73441835Y-80063651D01*
X73623914Y-79988232D01*
X73787782Y-79878739D01*
X73927139Y-79739382D01*
X74036632Y-79575514D01*
X74112051Y-79393435D01*
X74150500Y-79200143D01*
X74689499Y-79200143D01*
X74727947Y-79393429D01*
X74727950Y-79393439D01*
X74803364Y-79575507D01*
X74803371Y-79575520D01*
X74912860Y-79739381D01*
X74912863Y-79739385D01*
X75052217Y-79878739D01*
X75203217Y-79979633D01*
X75216086Y-79988232D01*
X75312953Y-80028355D01*
X75367355Y-80072194D01*
X75389421Y-80138488D01*
X75389500Y-80142915D01*
X75389500Y-82541323D01*
X75369815Y-82608362D01*
X75353182Y-82629004D01*
X75289500Y-82692686D01*
X75223608Y-82806812D01*
X75189500Y-82934108D01*
X75189500Y-83065891D01*
X75223608Y-83193187D01*
X75256554Y-83250250D01*
X75289500Y-83307314D01*
X75382686Y-83400500D01*
X75496814Y-83466392D01*
X75624108Y-83500500D01*
X75624110Y-83500500D01*
X75755890Y-83500500D01*
X75755892Y-83500500D01*
X75883186Y-83466392D01*
X75997314Y-83400500D01*
X76090500Y-83307314D01*
X76156392Y-83193186D01*
X76190500Y-83065892D01*
X76190500Y-82934108D01*
X76156392Y-82806814D01*
X76090500Y-82692686D01*
X76026818Y-82629004D01*
X75993334Y-82567680D01*
X75990500Y-82541323D01*
X75990500Y-80142915D01*
X76010185Y-80075876D01*
X76062989Y-80030121D01*
X76067002Y-80028373D01*
X76163914Y-79988232D01*
X76327782Y-79878739D01*
X76467139Y-79739382D01*
X76576632Y-79575514D01*
X76652051Y-79393435D01*
X76690500Y-79200143D01*
X77229499Y-79200143D01*
X77267947Y-79393429D01*
X77267950Y-79393439D01*
X77343364Y-79575507D01*
X77343371Y-79575520D01*
X77452860Y-79739381D01*
X77452863Y-79739385D01*
X77592217Y-79878739D01*
X77743217Y-79979633D01*
X77756086Y-79988232D01*
X77852953Y-80028355D01*
X77907355Y-80072194D01*
X77929421Y-80138488D01*
X77929500Y-80142915D01*
X77929500Y-83141323D01*
X77909815Y-83208362D01*
X77893182Y-83229004D01*
X77829500Y-83292686D01*
X77763608Y-83406812D01*
X77732571Y-83522645D01*
X77729500Y-83534108D01*
X77729500Y-83665892D01*
X77734992Y-83686388D01*
X77763608Y-83793187D01*
X77788972Y-83837117D01*
X77829500Y-83907314D01*
X77922686Y-84000500D01*
X78036814Y-84066392D01*
X78164108Y-84100500D01*
X78164110Y-84100500D01*
X78295890Y-84100500D01*
X78295892Y-84100500D01*
X78423186Y-84066392D01*
X78537314Y-84000500D01*
X78630500Y-83907314D01*
X78668113Y-83842167D01*
X78718680Y-83793951D01*
X78787287Y-83780729D01*
X78852152Y-83806697D01*
X78892680Y-83863611D01*
X78899500Y-83904167D01*
X78899500Y-84341323D01*
X78879815Y-84408362D01*
X78863182Y-84429004D01*
X78799500Y-84492686D01*
X78733608Y-84606812D01*
X78699500Y-84734108D01*
X78699500Y-84865891D01*
X78733608Y-84993187D01*
X78766554Y-85050250D01*
X78799500Y-85107314D01*
X78892686Y-85200500D01*
X79006814Y-85266392D01*
X79134108Y-85300500D01*
X79134110Y-85300500D01*
X79265890Y-85300500D01*
X79265892Y-85300500D01*
X79393186Y-85266392D01*
X79507314Y-85200500D01*
X79507316Y-85200497D01*
X79513499Y-85196928D01*
X79581399Y-85180455D01*
X79647426Y-85203307D01*
X79690617Y-85258228D01*
X79699500Y-85304315D01*
X79699500Y-87624166D01*
X79679815Y-87691205D01*
X79663181Y-87711847D01*
X79311847Y-88063181D01*
X79250524Y-88096666D01*
X79224166Y-88099500D01*
X79134108Y-88099500D01*
X79006812Y-88133608D01*
X78892686Y-88199500D01*
X78892683Y-88199502D01*
X78799502Y-88292683D01*
X78799500Y-88292686D01*
X78733608Y-88406812D01*
X78699500Y-88534108D01*
X78699500Y-88665891D01*
X78733608Y-88793187D01*
X78748814Y-88819524D01*
X78799500Y-88907314D01*
X78892686Y-89000500D01*
X79006814Y-89066392D01*
X79134108Y-89100500D01*
X79134110Y-89100500D01*
X79265890Y-89100500D01*
X79265892Y-89100500D01*
X79393186Y-89066392D01*
X79507314Y-89000500D01*
X79600500Y-88907314D01*
X79666392Y-88793186D01*
X79700500Y-88665892D01*
X79700500Y-88575832D01*
X79720185Y-88508793D01*
X79736819Y-88488151D01*
X79932287Y-88292683D01*
X80240460Y-87984511D01*
X80241044Y-87983499D01*
X80241046Y-87983500D01*
X80241058Y-87983473D01*
X80280021Y-87915989D01*
X80300500Y-87839562D01*
X80300500Y-87283183D01*
X80320185Y-87216144D01*
X80372989Y-87170389D01*
X80442147Y-87160445D01*
X80486498Y-87175795D01*
X80556814Y-87216392D01*
X80684108Y-87250500D01*
X80684110Y-87250500D01*
X80815890Y-87250500D01*
X80815892Y-87250500D01*
X80943186Y-87216392D01*
X81057314Y-87150500D01*
X81150500Y-87057314D01*
X81216392Y-86943186D01*
X81250500Y-86815892D01*
X81250500Y-86684108D01*
X81216392Y-86556814D01*
X81150500Y-86442686D01*
X81106819Y-86399005D01*
X81073334Y-86337682D01*
X81070500Y-86311324D01*
X81070500Y-83129196D01*
X94275001Y-83129196D01*
X94277851Y-83159606D01*
X94322653Y-83287645D01*
X94403207Y-83396792D01*
X94512354Y-83477346D01*
X94640397Y-83522149D01*
X94670778Y-83524998D01*
X94670806Y-83524999D01*
X94812499Y-83524999D01*
X95312500Y-83524999D01*
X95454196Y-83524999D01*
X95484606Y-83522148D01*
X95612645Y-83477346D01*
X95721792Y-83396792D01*
X95802346Y-83287645D01*
X95847149Y-83159604D01*
X95847149Y-83159600D01*
X95850000Y-83129206D01*
X95850000Y-82850000D01*
X95312500Y-82850000D01*
X95312500Y-83524999D01*
X94812499Y-83524999D01*
X94812500Y-83524998D01*
X94812500Y-82850000D01*
X94275001Y-82850000D01*
X94275001Y-83129196D01*
X81070500Y-83129196D01*
X81070500Y-82070793D01*
X94275000Y-82070793D01*
X94275000Y-82350000D01*
X94812500Y-82350000D01*
X95312500Y-82350000D01*
X95849999Y-82350000D01*
X95849999Y-82070803D01*
X95849992Y-82070730D01*
X96349500Y-82070730D01*
X96349500Y-83129269D01*
X96352353Y-83159699D01*
X96352353Y-83159701D01*
X96397124Y-83287645D01*
X96397207Y-83287882D01*
X96477850Y-83397150D01*
X96587118Y-83477793D01*
X96627911Y-83492067D01*
X96715296Y-83522645D01*
X96715298Y-83522645D01*
X96715301Y-83522646D01*
X96724576Y-83523515D01*
X96789484Y-83549372D01*
X96830110Y-83606216D01*
X96837000Y-83646974D01*
X96837000Y-85241323D01*
X96817315Y-85308362D01*
X96800682Y-85329004D01*
X96737000Y-85392686D01*
X96671108Y-85506812D01*
X96646273Y-85599500D01*
X96637000Y-85634108D01*
X96637000Y-85765892D01*
X96654054Y-85829539D01*
X96671108Y-85893187D01*
X96704054Y-85950250D01*
X96737000Y-86007314D01*
X96830186Y-86100500D01*
X96944314Y-86166392D01*
X97071608Y-86200500D01*
X97071610Y-86200500D01*
X97203390Y-86200500D01*
X97203392Y-86200500D01*
X97330686Y-86166392D01*
X97444814Y-86100500D01*
X97538000Y-86007314D01*
X97603892Y-85893186D01*
X97638000Y-85765892D01*
X97638000Y-85634108D01*
X97603892Y-85506814D01*
X97538000Y-85392686D01*
X97474318Y-85329004D01*
X97440834Y-85267680D01*
X97438000Y-85241323D01*
X97438000Y-83646974D01*
X97457685Y-83579935D01*
X97510489Y-83534180D01*
X97550422Y-83523515D01*
X97559699Y-83522646D01*
X97559701Y-83522645D01*
X97559703Y-83522645D01*
X97606294Y-83506341D01*
X97687882Y-83477793D01*
X97797150Y-83397150D01*
X97877793Y-83287882D01*
X97910928Y-83193187D01*
X97922646Y-83159701D01*
X97922646Y-83159699D01*
X97925500Y-83129269D01*
X97925500Y-82742432D01*
X97945185Y-82675393D01*
X97961814Y-82654756D01*
X100566165Y-80050404D01*
X100627486Y-80016921D01*
X100697178Y-80021905D01*
X100701254Y-80023509D01*
X100798165Y-80063651D01*
X100798169Y-80063651D01*
X100798170Y-80063652D01*
X100991456Y-80102100D01*
X100991459Y-80102100D01*
X101188543Y-80102100D01*
X101338887Y-80072194D01*
X101381835Y-80063651D01*
X101563914Y-79988232D01*
X101727782Y-79878739D01*
X101867139Y-79739382D01*
X101976632Y-79575514D01*
X102052051Y-79393435D01*
X102090500Y-79200143D01*
X102629499Y-79200143D01*
X102667947Y-79393429D01*
X102667950Y-79393439D01*
X102743364Y-79575507D01*
X102743371Y-79575520D01*
X102852860Y-79739381D01*
X102852863Y-79739385D01*
X102992214Y-79878736D01*
X102992218Y-79878739D01*
X103156079Y-79988228D01*
X103156092Y-79988235D01*
X103306188Y-80050406D01*
X103338165Y-80063651D01*
X103338169Y-80063651D01*
X103338170Y-80063652D01*
X103531456Y-80102100D01*
X103531459Y-80102100D01*
X103728543Y-80102100D01*
X103878887Y-80072194D01*
X103921835Y-80063651D01*
X104103914Y-79988232D01*
X104267782Y-79878739D01*
X104407139Y-79739382D01*
X104516632Y-79575514D01*
X104592051Y-79393435D01*
X104630500Y-79200143D01*
X105169499Y-79200143D01*
X105207947Y-79393429D01*
X105207950Y-79393439D01*
X105283364Y-79575507D01*
X105283371Y-79575520D01*
X105392860Y-79739381D01*
X105392863Y-79739385D01*
X105532214Y-79878736D01*
X105532218Y-79878739D01*
X105696079Y-79988228D01*
X105696092Y-79988235D01*
X105846188Y-80050406D01*
X105878165Y-80063651D01*
X105878169Y-80063651D01*
X105878170Y-80063652D01*
X106071456Y-80102100D01*
X106071459Y-80102100D01*
X106268543Y-80102100D01*
X106418887Y-80072194D01*
X106461835Y-80063651D01*
X106643914Y-79988232D01*
X106807782Y-79878739D01*
X106947139Y-79739382D01*
X107056632Y-79575514D01*
X107132051Y-79393435D01*
X107170500Y-79200143D01*
X107709499Y-79200143D01*
X107747947Y-79393429D01*
X107747950Y-79393439D01*
X107823364Y-79575507D01*
X107823371Y-79575520D01*
X107932860Y-79739381D01*
X107932863Y-79739385D01*
X108072214Y-79878736D01*
X108072218Y-79878739D01*
X108236079Y-79988228D01*
X108236092Y-79988235D01*
X108386188Y-80050406D01*
X108418165Y-80063651D01*
X108418169Y-80063651D01*
X108418170Y-80063652D01*
X108611456Y-80102100D01*
X108611459Y-80102100D01*
X108808543Y-80102100D01*
X108958887Y-80072194D01*
X109001835Y-80063651D01*
X109183914Y-79988232D01*
X109347782Y-79878739D01*
X109487139Y-79739382D01*
X109596632Y-79575514D01*
X109672051Y-79393435D01*
X109710500Y-79200143D01*
X110249499Y-79200143D01*
X110287947Y-79393429D01*
X110287950Y-79393439D01*
X110363364Y-79575507D01*
X110363371Y-79575520D01*
X110472860Y-79739381D01*
X110472863Y-79739385D01*
X110612214Y-79878736D01*
X110612218Y-79878739D01*
X110776079Y-79988228D01*
X110776092Y-79988235D01*
X110926188Y-80050406D01*
X110958165Y-80063651D01*
X110958169Y-80063651D01*
X110958170Y-80063652D01*
X111151456Y-80102100D01*
X111151459Y-80102100D01*
X111348543Y-80102100D01*
X111498887Y-80072194D01*
X111541835Y-80063651D01*
X111723914Y-79988232D01*
X111887782Y-79878739D01*
X112027139Y-79739382D01*
X112136632Y-79575514D01*
X112212051Y-79393435D01*
X112250500Y-79200143D01*
X112789499Y-79200143D01*
X112827947Y-79393429D01*
X112827950Y-79393439D01*
X112903364Y-79575507D01*
X112903371Y-79575520D01*
X113012860Y-79739381D01*
X113012863Y-79739385D01*
X113152214Y-79878736D01*
X113152218Y-79878739D01*
X113316079Y-79988228D01*
X113316092Y-79988235D01*
X113466188Y-80050406D01*
X113498165Y-80063651D01*
X113498169Y-80063651D01*
X113498170Y-80063652D01*
X113691456Y-80102100D01*
X113691459Y-80102100D01*
X113888543Y-80102100D01*
X114038887Y-80072194D01*
X114081835Y-80063651D01*
X114263914Y-79988232D01*
X114427782Y-79878739D01*
X114567139Y-79739382D01*
X114676632Y-79575514D01*
X114752051Y-79393435D01*
X114790500Y-79200143D01*
X115329499Y-79200143D01*
X115367947Y-79393429D01*
X115367950Y-79393439D01*
X115443364Y-79575507D01*
X115443371Y-79575520D01*
X115552860Y-79739381D01*
X115552863Y-79739385D01*
X115692214Y-79878736D01*
X115692218Y-79878739D01*
X115856079Y-79988228D01*
X115856092Y-79988235D01*
X116006188Y-80050406D01*
X116038165Y-80063651D01*
X116038169Y-80063651D01*
X116038170Y-80063652D01*
X116231456Y-80102100D01*
X116231459Y-80102100D01*
X116428543Y-80102100D01*
X116578887Y-80072194D01*
X116621835Y-80063651D01*
X116803914Y-79988232D01*
X116967782Y-79878739D01*
X117107139Y-79739382D01*
X117216632Y-79575514D01*
X117292051Y-79393435D01*
X117330500Y-79200143D01*
X117869499Y-79200143D01*
X117907947Y-79393429D01*
X117907950Y-79393439D01*
X117983364Y-79575507D01*
X117983371Y-79575520D01*
X118092860Y-79739381D01*
X118092863Y-79739385D01*
X118232214Y-79878736D01*
X118232218Y-79878739D01*
X118396079Y-79988228D01*
X118396092Y-79988235D01*
X118546188Y-80050406D01*
X118578165Y-80063651D01*
X118578169Y-80063651D01*
X118578170Y-80063652D01*
X118771456Y-80102100D01*
X118771459Y-80102100D01*
X118968543Y-80102100D01*
X119118887Y-80072194D01*
X119161835Y-80063651D01*
X119343914Y-79988232D01*
X119507782Y-79878739D01*
X119647139Y-79739382D01*
X119756632Y-79575514D01*
X119832051Y-79393435D01*
X119870500Y-79200143D01*
X120409499Y-79200143D01*
X120447947Y-79393429D01*
X120447950Y-79393439D01*
X120523364Y-79575507D01*
X120523371Y-79575520D01*
X120632860Y-79739381D01*
X120632863Y-79739385D01*
X120772214Y-79878736D01*
X120772218Y-79878739D01*
X120936079Y-79988228D01*
X120936092Y-79988235D01*
X121086188Y-80050406D01*
X121118165Y-80063651D01*
X121118169Y-80063651D01*
X121118170Y-80063652D01*
X121311456Y-80102100D01*
X121311459Y-80102100D01*
X121508543Y-80102100D01*
X121658887Y-80072194D01*
X121701835Y-80063651D01*
X121883914Y-79988232D01*
X122047782Y-79878739D01*
X122187139Y-79739382D01*
X122296632Y-79575514D01*
X122372051Y-79393435D01*
X122410500Y-79200141D01*
X122410500Y-79003059D01*
X122410500Y-79003056D01*
X122372052Y-78809770D01*
X122372051Y-78809769D01*
X122372051Y-78809765D01*
X122309500Y-78658752D01*
X122296635Y-78627692D01*
X122296628Y-78627679D01*
X122187139Y-78463818D01*
X122187136Y-78463814D01*
X122047785Y-78324463D01*
X122047781Y-78324460D01*
X121883920Y-78214971D01*
X121883907Y-78214964D01*
X121701839Y-78139550D01*
X121701829Y-78139547D01*
X121508543Y-78101100D01*
X121508541Y-78101100D01*
X121311459Y-78101100D01*
X121311457Y-78101100D01*
X121118170Y-78139547D01*
X121118160Y-78139550D01*
X120936092Y-78214964D01*
X120936079Y-78214971D01*
X120772218Y-78324460D01*
X120772214Y-78324463D01*
X120632863Y-78463814D01*
X120632860Y-78463818D01*
X120523371Y-78627679D01*
X120523364Y-78627692D01*
X120447950Y-78809760D01*
X120447947Y-78809770D01*
X120409500Y-79003056D01*
X120409500Y-79003059D01*
X120409500Y-79200141D01*
X120409500Y-79200143D01*
X120409499Y-79200143D01*
X119870500Y-79200143D01*
X119870500Y-79200141D01*
X119870500Y-79003059D01*
X119870500Y-79003056D01*
X119832052Y-78809770D01*
X119832051Y-78809769D01*
X119832051Y-78809765D01*
X119769500Y-78658752D01*
X119756635Y-78627692D01*
X119756628Y-78627679D01*
X119647139Y-78463818D01*
X119647136Y-78463814D01*
X119507785Y-78324463D01*
X119507781Y-78324460D01*
X119343920Y-78214971D01*
X119343907Y-78214964D01*
X119161839Y-78139550D01*
X119161829Y-78139547D01*
X118968543Y-78101100D01*
X118968541Y-78101100D01*
X118771459Y-78101100D01*
X118771457Y-78101100D01*
X118578170Y-78139547D01*
X118578160Y-78139550D01*
X118396092Y-78214964D01*
X118396079Y-78214971D01*
X118232218Y-78324460D01*
X118232214Y-78324463D01*
X118092863Y-78463814D01*
X118092860Y-78463818D01*
X117983371Y-78627679D01*
X117983364Y-78627692D01*
X117907950Y-78809760D01*
X117907947Y-78809770D01*
X117869500Y-79003056D01*
X117869500Y-79003059D01*
X117869500Y-79200141D01*
X117869500Y-79200143D01*
X117869499Y-79200143D01*
X117330500Y-79200143D01*
X117330500Y-79200141D01*
X117330500Y-79003059D01*
X117330500Y-79003056D01*
X117292052Y-78809770D01*
X117292051Y-78809769D01*
X117292051Y-78809765D01*
X117229500Y-78658752D01*
X117216635Y-78627692D01*
X117216628Y-78627679D01*
X117107139Y-78463818D01*
X117107136Y-78463814D01*
X116967785Y-78324463D01*
X116967781Y-78324460D01*
X116803920Y-78214971D01*
X116803907Y-78214964D01*
X116621839Y-78139550D01*
X116621829Y-78139547D01*
X116428543Y-78101100D01*
X116428541Y-78101100D01*
X116231459Y-78101100D01*
X116231457Y-78101100D01*
X116038170Y-78139547D01*
X116038160Y-78139550D01*
X115856092Y-78214964D01*
X115856079Y-78214971D01*
X115692218Y-78324460D01*
X115692214Y-78324463D01*
X115552863Y-78463814D01*
X115552860Y-78463818D01*
X115443371Y-78627679D01*
X115443364Y-78627692D01*
X115367950Y-78809760D01*
X115367947Y-78809770D01*
X115329500Y-79003056D01*
X115329500Y-79003059D01*
X115329500Y-79200141D01*
X115329500Y-79200143D01*
X115329499Y-79200143D01*
X114790500Y-79200143D01*
X114790500Y-79200141D01*
X114790500Y-79003059D01*
X114790500Y-79003056D01*
X114752052Y-78809770D01*
X114752051Y-78809769D01*
X114752051Y-78809765D01*
X114689500Y-78658752D01*
X114676635Y-78627692D01*
X114676628Y-78627679D01*
X114567139Y-78463818D01*
X114567136Y-78463814D01*
X114427785Y-78324463D01*
X114427781Y-78324460D01*
X114263920Y-78214971D01*
X114263907Y-78214964D01*
X114081839Y-78139550D01*
X114081829Y-78139547D01*
X113888543Y-78101100D01*
X113888541Y-78101100D01*
X113691459Y-78101100D01*
X113691457Y-78101100D01*
X113498170Y-78139547D01*
X113498160Y-78139550D01*
X113316092Y-78214964D01*
X113316079Y-78214971D01*
X113152218Y-78324460D01*
X113152214Y-78324463D01*
X113012863Y-78463814D01*
X113012860Y-78463818D01*
X112903371Y-78627679D01*
X112903364Y-78627692D01*
X112827950Y-78809760D01*
X112827947Y-78809770D01*
X112789500Y-79003056D01*
X112789500Y-79003059D01*
X112789500Y-79200141D01*
X112789500Y-79200143D01*
X112789499Y-79200143D01*
X112250500Y-79200143D01*
X112250500Y-79200141D01*
X112250500Y-79003059D01*
X112250500Y-79003056D01*
X112212052Y-78809770D01*
X112212051Y-78809769D01*
X112212051Y-78809765D01*
X112149500Y-78658752D01*
X112136635Y-78627692D01*
X112136628Y-78627679D01*
X112027139Y-78463818D01*
X112027136Y-78463814D01*
X111887785Y-78324463D01*
X111887781Y-78324460D01*
X111723920Y-78214971D01*
X111723907Y-78214964D01*
X111541839Y-78139550D01*
X111541829Y-78139547D01*
X111348543Y-78101100D01*
X111348541Y-78101100D01*
X111151459Y-78101100D01*
X111151457Y-78101100D01*
X110958170Y-78139547D01*
X110958160Y-78139550D01*
X110776092Y-78214964D01*
X110776079Y-78214971D01*
X110612218Y-78324460D01*
X110612214Y-78324463D01*
X110472863Y-78463814D01*
X110472860Y-78463818D01*
X110363371Y-78627679D01*
X110363364Y-78627692D01*
X110287950Y-78809760D01*
X110287947Y-78809770D01*
X110249500Y-79003056D01*
X110249500Y-79003059D01*
X110249500Y-79200141D01*
X110249500Y-79200143D01*
X110249499Y-79200143D01*
X109710500Y-79200143D01*
X109710500Y-79200141D01*
X109710500Y-79003059D01*
X109710500Y-79003056D01*
X109672052Y-78809770D01*
X109672051Y-78809769D01*
X109672051Y-78809765D01*
X109609500Y-78658752D01*
X109596635Y-78627692D01*
X109596628Y-78627679D01*
X109487139Y-78463818D01*
X109487136Y-78463814D01*
X109347785Y-78324463D01*
X109347781Y-78324460D01*
X109183920Y-78214971D01*
X109183907Y-78214964D01*
X109001839Y-78139550D01*
X109001829Y-78139547D01*
X108808543Y-78101100D01*
X108808541Y-78101100D01*
X108611459Y-78101100D01*
X108611457Y-78101100D01*
X108418170Y-78139547D01*
X108418160Y-78139550D01*
X108236092Y-78214964D01*
X108236079Y-78214971D01*
X108072218Y-78324460D01*
X108072214Y-78324463D01*
X107932863Y-78463814D01*
X107932860Y-78463818D01*
X107823371Y-78627679D01*
X107823364Y-78627692D01*
X107747950Y-78809760D01*
X107747947Y-78809770D01*
X107709500Y-79003056D01*
X107709500Y-79003059D01*
X107709500Y-79200141D01*
X107709500Y-79200143D01*
X107709499Y-79200143D01*
X107170500Y-79200143D01*
X107170500Y-79200141D01*
X107170500Y-79003059D01*
X107170500Y-79003056D01*
X107132052Y-78809770D01*
X107132051Y-78809769D01*
X107132051Y-78809765D01*
X107069500Y-78658752D01*
X107056635Y-78627692D01*
X107056628Y-78627679D01*
X106947139Y-78463818D01*
X106947136Y-78463814D01*
X106807785Y-78324463D01*
X106807781Y-78324460D01*
X106643920Y-78214971D01*
X106643907Y-78214964D01*
X106461839Y-78139550D01*
X106461829Y-78139547D01*
X106268543Y-78101100D01*
X106268541Y-78101100D01*
X106071459Y-78101100D01*
X106071457Y-78101100D01*
X105878170Y-78139547D01*
X105878160Y-78139550D01*
X105696092Y-78214964D01*
X105696079Y-78214971D01*
X105532218Y-78324460D01*
X105532214Y-78324463D01*
X105392863Y-78463814D01*
X105392860Y-78463818D01*
X105283371Y-78627679D01*
X105283364Y-78627692D01*
X105207950Y-78809760D01*
X105207947Y-78809770D01*
X105169500Y-79003056D01*
X105169500Y-79003059D01*
X105169500Y-79200141D01*
X105169500Y-79200143D01*
X105169499Y-79200143D01*
X104630500Y-79200143D01*
X104630500Y-79200141D01*
X104630500Y-79003059D01*
X104630500Y-79003056D01*
X104592052Y-78809770D01*
X104592051Y-78809769D01*
X104592051Y-78809765D01*
X104529500Y-78658752D01*
X104516635Y-78627692D01*
X104516628Y-78627679D01*
X104407139Y-78463818D01*
X104407136Y-78463814D01*
X104267785Y-78324463D01*
X104267781Y-78324460D01*
X104103920Y-78214971D01*
X104103907Y-78214964D01*
X103921839Y-78139550D01*
X103921829Y-78139547D01*
X103728543Y-78101100D01*
X103728541Y-78101100D01*
X103531459Y-78101100D01*
X103531457Y-78101100D01*
X103338170Y-78139547D01*
X103338160Y-78139550D01*
X103156092Y-78214964D01*
X103156079Y-78214971D01*
X102992218Y-78324460D01*
X102992214Y-78324463D01*
X102852863Y-78463814D01*
X102852860Y-78463818D01*
X102743371Y-78627679D01*
X102743364Y-78627692D01*
X102667950Y-78809760D01*
X102667947Y-78809770D01*
X102629500Y-79003056D01*
X102629500Y-79003059D01*
X102629500Y-79200141D01*
X102629500Y-79200143D01*
X102629499Y-79200143D01*
X102090500Y-79200143D01*
X102090500Y-79200141D01*
X102090500Y-79003059D01*
X102090500Y-79003056D01*
X102052052Y-78809770D01*
X102052051Y-78809769D01*
X102052051Y-78809765D01*
X101989500Y-78658752D01*
X101976635Y-78627692D01*
X101976628Y-78627679D01*
X101867139Y-78463818D01*
X101867136Y-78463814D01*
X101727785Y-78324463D01*
X101727781Y-78324460D01*
X101563920Y-78214971D01*
X101563907Y-78214964D01*
X101381839Y-78139550D01*
X101381829Y-78139547D01*
X101188543Y-78101100D01*
X101188541Y-78101100D01*
X100991459Y-78101100D01*
X100991457Y-78101100D01*
X100798170Y-78139547D01*
X100798160Y-78139550D01*
X100616092Y-78214964D01*
X100616079Y-78214971D01*
X100452218Y-78324460D01*
X100452214Y-78324463D01*
X100312863Y-78463814D01*
X100312860Y-78463818D01*
X100203371Y-78627679D01*
X100203364Y-78627692D01*
X100127950Y-78809760D01*
X100127947Y-78809770D01*
X100089500Y-79003056D01*
X100089500Y-79003059D01*
X100089500Y-79200141D01*
X100089500Y-79200143D01*
X100089499Y-79200143D01*
X100127947Y-79393429D01*
X100127950Y-79393439D01*
X100168072Y-79490302D01*
X100175541Y-79559771D01*
X100144266Y-79622250D01*
X100141192Y-79625435D01*
X97968145Y-81798483D01*
X97906822Y-81831968D01*
X97837130Y-81826984D01*
X97805764Y-81806825D01*
X97804626Y-81808368D01*
X97797150Y-81802851D01*
X97797150Y-81802850D01*
X97687882Y-81722207D01*
X97687880Y-81722206D01*
X97559700Y-81677353D01*
X97529270Y-81674500D01*
X97529266Y-81674500D01*
X96745734Y-81674500D01*
X96745730Y-81674500D01*
X96715300Y-81677353D01*
X96715298Y-81677353D01*
X96587119Y-81722206D01*
X96587117Y-81722207D01*
X96477850Y-81802850D01*
X96397207Y-81912117D01*
X96397206Y-81912119D01*
X96352353Y-82040298D01*
X96352353Y-82040300D01*
X96349500Y-82070730D01*
X95849992Y-82070730D01*
X95847148Y-82040393D01*
X95802346Y-81912354D01*
X95721792Y-81803207D01*
X95612645Y-81722653D01*
X95484602Y-81677850D01*
X95454207Y-81675000D01*
X95312500Y-81675000D01*
X95312500Y-82350000D01*
X94812500Y-82350000D01*
X94812500Y-81675000D01*
X94670804Y-81675000D01*
X94640393Y-81677851D01*
X94512354Y-81722653D01*
X94403207Y-81803207D01*
X94322653Y-81912354D01*
X94277850Y-82040395D01*
X94277850Y-82040399D01*
X94275000Y-82070793D01*
X81070500Y-82070793D01*
X81070500Y-80142915D01*
X81090185Y-80075876D01*
X81142989Y-80030121D01*
X81147002Y-80028373D01*
X81243914Y-79988232D01*
X81407782Y-79878739D01*
X81547139Y-79739382D01*
X81656632Y-79575514D01*
X81732051Y-79393435D01*
X81770500Y-79200143D01*
X82309499Y-79200143D01*
X82347947Y-79393429D01*
X82347950Y-79393439D01*
X82423364Y-79575507D01*
X82423371Y-79575520D01*
X82532860Y-79739381D01*
X82532863Y-79739385D01*
X82672214Y-79878736D01*
X82672218Y-79878739D01*
X82836079Y-79988228D01*
X82836092Y-79988235D01*
X82986188Y-80050406D01*
X83018165Y-80063651D01*
X83018169Y-80063651D01*
X83018170Y-80063652D01*
X83211456Y-80102100D01*
X83211459Y-80102100D01*
X83408543Y-80102100D01*
X83558887Y-80072194D01*
X83601835Y-80063651D01*
X83783914Y-79988232D01*
X83947782Y-79878739D01*
X84087139Y-79739382D01*
X84196632Y-79575514D01*
X84272051Y-79393435D01*
X84310500Y-79200143D01*
X84849499Y-79200143D01*
X84887947Y-79393429D01*
X84887950Y-79393439D01*
X84963364Y-79575507D01*
X84963371Y-79575520D01*
X85072860Y-79739381D01*
X85072863Y-79739385D01*
X85212214Y-79878736D01*
X85212218Y-79878739D01*
X85376079Y-79988228D01*
X85376092Y-79988235D01*
X85526188Y-80050406D01*
X85558165Y-80063651D01*
X85558169Y-80063651D01*
X85558170Y-80063652D01*
X85751456Y-80102100D01*
X85751459Y-80102100D01*
X85948543Y-80102100D01*
X86098887Y-80072194D01*
X86141835Y-80063651D01*
X86323914Y-79988232D01*
X86487782Y-79878739D01*
X86627139Y-79739382D01*
X86736632Y-79575514D01*
X86812051Y-79393435D01*
X86850500Y-79200143D01*
X87389499Y-79200143D01*
X87427947Y-79393429D01*
X87427950Y-79393439D01*
X87503364Y-79575507D01*
X87503371Y-79575520D01*
X87612860Y-79739381D01*
X87612863Y-79739385D01*
X87752214Y-79878736D01*
X87752218Y-79878739D01*
X87916079Y-79988228D01*
X87916092Y-79988235D01*
X88066188Y-80050406D01*
X88098165Y-80063651D01*
X88098169Y-80063651D01*
X88098170Y-80063652D01*
X88291456Y-80102100D01*
X88291459Y-80102100D01*
X88488543Y-80102100D01*
X88638887Y-80072194D01*
X88681835Y-80063651D01*
X88863914Y-79988232D01*
X89027782Y-79878739D01*
X89167139Y-79739382D01*
X89276632Y-79575514D01*
X89352051Y-79393435D01*
X89390500Y-79200143D01*
X89929499Y-79200143D01*
X89967947Y-79393429D01*
X89967950Y-79393439D01*
X90043364Y-79575507D01*
X90043371Y-79575520D01*
X90152860Y-79739381D01*
X90152863Y-79739385D01*
X90292214Y-79878736D01*
X90292218Y-79878739D01*
X90456079Y-79988228D01*
X90456092Y-79988235D01*
X90606188Y-80050406D01*
X90638165Y-80063651D01*
X90638169Y-80063651D01*
X90638170Y-80063652D01*
X90831456Y-80102100D01*
X90831459Y-80102100D01*
X91028543Y-80102100D01*
X91178887Y-80072194D01*
X91221835Y-80063651D01*
X91403914Y-79988232D01*
X91567782Y-79878739D01*
X91707139Y-79739382D01*
X91816632Y-79575514D01*
X91892051Y-79393435D01*
X91930500Y-79200143D01*
X92469499Y-79200143D01*
X92507947Y-79393429D01*
X92507950Y-79393439D01*
X92583364Y-79575507D01*
X92583371Y-79575520D01*
X92692860Y-79739381D01*
X92692863Y-79739385D01*
X92832214Y-79878736D01*
X92832218Y-79878739D01*
X92996079Y-79988228D01*
X92996092Y-79988235D01*
X93146188Y-80050406D01*
X93178165Y-80063651D01*
X93178169Y-80063651D01*
X93178170Y-80063652D01*
X93371456Y-80102100D01*
X93371459Y-80102100D01*
X93568543Y-80102100D01*
X93718887Y-80072194D01*
X93761835Y-80063651D01*
X93943914Y-79988232D01*
X94107782Y-79878739D01*
X94247139Y-79739382D01*
X94356632Y-79575514D01*
X94432051Y-79393435D01*
X94470500Y-79200143D01*
X95009499Y-79200143D01*
X95047947Y-79393429D01*
X95047950Y-79393439D01*
X95123364Y-79575507D01*
X95123371Y-79575520D01*
X95232860Y-79739381D01*
X95232863Y-79739385D01*
X95372214Y-79878736D01*
X95372218Y-79878739D01*
X95536079Y-79988228D01*
X95536092Y-79988235D01*
X95686188Y-80050406D01*
X95718165Y-80063651D01*
X95718169Y-80063651D01*
X95718170Y-80063652D01*
X95911456Y-80102100D01*
X95911459Y-80102100D01*
X96108543Y-80102100D01*
X96258887Y-80072194D01*
X96301835Y-80063651D01*
X96483914Y-79988232D01*
X96647782Y-79878739D01*
X96787139Y-79739382D01*
X96896632Y-79575514D01*
X96972051Y-79393435D01*
X97010500Y-79200143D01*
X97549499Y-79200143D01*
X97587947Y-79393429D01*
X97587950Y-79393439D01*
X97663364Y-79575507D01*
X97663371Y-79575520D01*
X97772860Y-79739381D01*
X97772863Y-79739385D01*
X97912214Y-79878736D01*
X97912218Y-79878739D01*
X98076079Y-79988228D01*
X98076092Y-79988235D01*
X98226188Y-80050406D01*
X98258165Y-80063651D01*
X98258169Y-80063651D01*
X98258170Y-80063652D01*
X98451456Y-80102100D01*
X98451459Y-80102100D01*
X98648543Y-80102100D01*
X98798887Y-80072194D01*
X98841835Y-80063651D01*
X99023914Y-79988232D01*
X99187782Y-79878739D01*
X99327139Y-79739382D01*
X99436632Y-79575514D01*
X99512051Y-79393435D01*
X99550500Y-79200141D01*
X99550500Y-79003059D01*
X99550500Y-79003056D01*
X99512052Y-78809770D01*
X99512051Y-78809769D01*
X99512051Y-78809765D01*
X99449500Y-78658752D01*
X99436635Y-78627692D01*
X99436628Y-78627679D01*
X99327139Y-78463818D01*
X99327136Y-78463814D01*
X99187785Y-78324463D01*
X99187781Y-78324460D01*
X99023920Y-78214971D01*
X99023907Y-78214964D01*
X98841839Y-78139550D01*
X98841829Y-78139547D01*
X98648543Y-78101100D01*
X98648541Y-78101100D01*
X98451459Y-78101100D01*
X98451457Y-78101100D01*
X98258170Y-78139547D01*
X98258160Y-78139550D01*
X98076092Y-78214964D01*
X98076079Y-78214971D01*
X97912218Y-78324460D01*
X97912214Y-78324463D01*
X97772863Y-78463814D01*
X97772860Y-78463818D01*
X97663371Y-78627679D01*
X97663364Y-78627692D01*
X97587950Y-78809760D01*
X97587947Y-78809770D01*
X97549500Y-79003056D01*
X97549500Y-79003059D01*
X97549500Y-79200141D01*
X97549500Y-79200143D01*
X97549499Y-79200143D01*
X97010500Y-79200143D01*
X97010500Y-79200141D01*
X97010500Y-79003059D01*
X97010500Y-79003056D01*
X96972052Y-78809770D01*
X96972051Y-78809769D01*
X96972051Y-78809765D01*
X96909500Y-78658752D01*
X96896635Y-78627692D01*
X96896628Y-78627679D01*
X96787139Y-78463818D01*
X96787136Y-78463814D01*
X96647785Y-78324463D01*
X96647781Y-78324460D01*
X96483920Y-78214971D01*
X96483907Y-78214964D01*
X96301839Y-78139550D01*
X96301829Y-78139547D01*
X96108543Y-78101100D01*
X96108541Y-78101100D01*
X95911459Y-78101100D01*
X95911457Y-78101100D01*
X95718170Y-78139547D01*
X95718160Y-78139550D01*
X95536092Y-78214964D01*
X95536079Y-78214971D01*
X95372218Y-78324460D01*
X95372214Y-78324463D01*
X95232863Y-78463814D01*
X95232860Y-78463818D01*
X95123371Y-78627679D01*
X95123364Y-78627692D01*
X95047950Y-78809760D01*
X95047947Y-78809770D01*
X95009500Y-79003056D01*
X95009500Y-79003059D01*
X95009500Y-79200141D01*
X95009500Y-79200143D01*
X95009499Y-79200143D01*
X94470500Y-79200143D01*
X94470500Y-79200141D01*
X94470500Y-79003059D01*
X94470500Y-79003056D01*
X94432052Y-78809770D01*
X94432051Y-78809769D01*
X94432051Y-78809765D01*
X94369500Y-78658752D01*
X94356635Y-78627692D01*
X94356628Y-78627679D01*
X94247139Y-78463818D01*
X94247136Y-78463814D01*
X94107785Y-78324463D01*
X94107781Y-78324460D01*
X93943920Y-78214971D01*
X93943907Y-78214964D01*
X93761839Y-78139550D01*
X93761829Y-78139547D01*
X93568543Y-78101100D01*
X93568541Y-78101100D01*
X93371459Y-78101100D01*
X93371457Y-78101100D01*
X93178170Y-78139547D01*
X93178160Y-78139550D01*
X92996092Y-78214964D01*
X92996079Y-78214971D01*
X92832218Y-78324460D01*
X92832214Y-78324463D01*
X92692863Y-78463814D01*
X92692860Y-78463818D01*
X92583371Y-78627679D01*
X92583364Y-78627692D01*
X92507950Y-78809760D01*
X92507947Y-78809770D01*
X92469500Y-79003056D01*
X92469500Y-79003059D01*
X92469500Y-79200141D01*
X92469500Y-79200143D01*
X92469499Y-79200143D01*
X91930500Y-79200143D01*
X91930500Y-79200141D01*
X91930500Y-79003059D01*
X91930500Y-79003056D01*
X91892052Y-78809770D01*
X91892051Y-78809769D01*
X91892051Y-78809765D01*
X91829500Y-78658752D01*
X91816635Y-78627692D01*
X91816628Y-78627679D01*
X91707139Y-78463818D01*
X91707136Y-78463814D01*
X91567785Y-78324463D01*
X91567781Y-78324460D01*
X91403920Y-78214971D01*
X91403907Y-78214964D01*
X91221839Y-78139550D01*
X91221829Y-78139547D01*
X91028543Y-78101100D01*
X91028541Y-78101100D01*
X90831459Y-78101100D01*
X90831457Y-78101100D01*
X90638170Y-78139547D01*
X90638160Y-78139550D01*
X90456092Y-78214964D01*
X90456079Y-78214971D01*
X90292218Y-78324460D01*
X90292214Y-78324463D01*
X90152863Y-78463814D01*
X90152860Y-78463818D01*
X90043371Y-78627679D01*
X90043364Y-78627692D01*
X89967950Y-78809760D01*
X89967947Y-78809770D01*
X89929500Y-79003056D01*
X89929500Y-79003059D01*
X89929500Y-79200141D01*
X89929500Y-79200143D01*
X89929499Y-79200143D01*
X89390500Y-79200143D01*
X89390500Y-79200141D01*
X89390500Y-79003059D01*
X89390500Y-79003056D01*
X89352052Y-78809770D01*
X89352051Y-78809769D01*
X89352051Y-78809765D01*
X89289500Y-78658752D01*
X89276635Y-78627692D01*
X89276628Y-78627679D01*
X89167139Y-78463818D01*
X89167136Y-78463814D01*
X89027785Y-78324463D01*
X89027781Y-78324460D01*
X88863920Y-78214971D01*
X88863907Y-78214964D01*
X88681839Y-78139550D01*
X88681829Y-78139547D01*
X88488543Y-78101100D01*
X88488541Y-78101100D01*
X88291459Y-78101100D01*
X88291457Y-78101100D01*
X88098170Y-78139547D01*
X88098160Y-78139550D01*
X87916092Y-78214964D01*
X87916079Y-78214971D01*
X87752218Y-78324460D01*
X87752214Y-78324463D01*
X87612863Y-78463814D01*
X87612860Y-78463818D01*
X87503371Y-78627679D01*
X87503364Y-78627692D01*
X87427950Y-78809760D01*
X87427947Y-78809770D01*
X87389500Y-79003056D01*
X87389500Y-79003059D01*
X87389500Y-79200141D01*
X87389500Y-79200143D01*
X87389499Y-79200143D01*
X86850500Y-79200143D01*
X86850500Y-79200141D01*
X86850500Y-79003059D01*
X86850500Y-79003056D01*
X86812052Y-78809770D01*
X86812051Y-78809769D01*
X86812051Y-78809765D01*
X86749500Y-78658752D01*
X86736635Y-78627692D01*
X86736628Y-78627679D01*
X86627139Y-78463818D01*
X86627136Y-78463814D01*
X86487785Y-78324463D01*
X86487781Y-78324460D01*
X86323920Y-78214971D01*
X86323907Y-78214964D01*
X86141839Y-78139550D01*
X86141829Y-78139547D01*
X85948543Y-78101100D01*
X85948541Y-78101100D01*
X85751459Y-78101100D01*
X85751457Y-78101100D01*
X85558170Y-78139547D01*
X85558160Y-78139550D01*
X85376092Y-78214964D01*
X85376079Y-78214971D01*
X85212218Y-78324460D01*
X85212214Y-78324463D01*
X85072863Y-78463814D01*
X85072860Y-78463818D01*
X84963371Y-78627679D01*
X84963364Y-78627692D01*
X84887950Y-78809760D01*
X84887947Y-78809770D01*
X84849500Y-79003056D01*
X84849500Y-79003059D01*
X84849500Y-79200141D01*
X84849500Y-79200143D01*
X84849499Y-79200143D01*
X84310500Y-79200143D01*
X84310500Y-79200141D01*
X84310500Y-79003059D01*
X84310500Y-79003056D01*
X84272052Y-78809770D01*
X84272051Y-78809769D01*
X84272051Y-78809765D01*
X84209500Y-78658752D01*
X84196635Y-78627692D01*
X84196628Y-78627679D01*
X84087139Y-78463818D01*
X84087136Y-78463814D01*
X83947785Y-78324463D01*
X83947781Y-78324460D01*
X83783920Y-78214971D01*
X83783907Y-78214964D01*
X83601839Y-78139550D01*
X83601829Y-78139547D01*
X83408543Y-78101100D01*
X83408541Y-78101100D01*
X83211459Y-78101100D01*
X83211457Y-78101100D01*
X83018170Y-78139547D01*
X83018160Y-78139550D01*
X82836092Y-78214964D01*
X82836079Y-78214971D01*
X82672218Y-78324460D01*
X82672214Y-78324463D01*
X82532863Y-78463814D01*
X82532860Y-78463818D01*
X82423371Y-78627679D01*
X82423364Y-78627692D01*
X82347950Y-78809760D01*
X82347947Y-78809770D01*
X82309500Y-79003056D01*
X82309500Y-79003059D01*
X82309500Y-79200141D01*
X82309500Y-79200143D01*
X82309499Y-79200143D01*
X81770500Y-79200143D01*
X81770500Y-79200141D01*
X81770500Y-79003059D01*
X81770500Y-79003056D01*
X81732052Y-78809770D01*
X81732051Y-78809769D01*
X81732051Y-78809765D01*
X81669500Y-78658752D01*
X81656635Y-78627692D01*
X81656628Y-78627679D01*
X81547139Y-78463818D01*
X81547136Y-78463814D01*
X81407785Y-78324463D01*
X81407781Y-78324460D01*
X81243920Y-78214971D01*
X81243907Y-78214964D01*
X81061839Y-78139550D01*
X81061829Y-78139547D01*
X80868543Y-78101100D01*
X80868541Y-78101100D01*
X80671459Y-78101100D01*
X80671457Y-78101100D01*
X80478170Y-78139547D01*
X80478160Y-78139550D01*
X80296092Y-78214964D01*
X80296079Y-78214971D01*
X80132218Y-78324460D01*
X80132214Y-78324463D01*
X79992863Y-78463814D01*
X79992860Y-78463818D01*
X79883371Y-78627679D01*
X79883364Y-78627692D01*
X79807950Y-78809760D01*
X79807947Y-78809770D01*
X79769500Y-79003056D01*
X79769500Y-79003059D01*
X79769500Y-79200141D01*
X79769500Y-79200143D01*
X79769499Y-79200143D01*
X79807947Y-79393429D01*
X79807950Y-79393439D01*
X79883364Y-79575507D01*
X79883371Y-79575520D01*
X79992860Y-79739381D01*
X79992863Y-79739385D01*
X80132217Y-79878739D01*
X80283217Y-79979633D01*
X80296086Y-79988232D01*
X80392953Y-80028355D01*
X80447355Y-80072194D01*
X80469421Y-80138488D01*
X80469500Y-80142915D01*
X80469500Y-81078363D01*
X80449815Y-81145402D01*
X80397011Y-81191157D01*
X80327853Y-81201101D01*
X80283500Y-81185750D01*
X80193189Y-81133609D01*
X80193186Y-81133608D01*
X80065892Y-81099500D01*
X79934108Y-81099500D01*
X79904946Y-81107314D01*
X79822448Y-81129419D01*
X79752598Y-81127756D01*
X79694736Y-81088593D01*
X79667232Y-81024365D01*
X79670579Y-80977558D01*
X79700500Y-80865892D01*
X79700500Y-80734108D01*
X79666392Y-80606814D01*
X79600500Y-80492686D01*
X79507314Y-80399500D01*
X79450250Y-80366554D01*
X79393187Y-80333608D01*
X79329539Y-80316554D01*
X79265892Y-80299500D01*
X79134108Y-80299500D01*
X79006812Y-80333608D01*
X78892686Y-80399500D01*
X78892683Y-80399502D01*
X78799502Y-80492683D01*
X78799500Y-80492686D01*
X78761887Y-80557833D01*
X78711319Y-80606048D01*
X78642712Y-80619270D01*
X78577847Y-80593302D01*
X78537319Y-80536387D01*
X78530500Y-80495832D01*
X78530500Y-80142915D01*
X78550185Y-80075876D01*
X78602989Y-80030121D01*
X78607002Y-80028373D01*
X78703914Y-79988232D01*
X78867782Y-79878739D01*
X79007139Y-79739382D01*
X79116632Y-79575514D01*
X79192051Y-79393435D01*
X79230500Y-79200141D01*
X79230500Y-79003059D01*
X79230500Y-79003056D01*
X79192052Y-78809770D01*
X79192051Y-78809769D01*
X79192051Y-78809765D01*
X79129500Y-78658752D01*
X79116635Y-78627692D01*
X79116628Y-78627679D01*
X79007139Y-78463818D01*
X79007136Y-78463814D01*
X78867785Y-78324463D01*
X78867781Y-78324460D01*
X78703920Y-78214971D01*
X78703907Y-78214964D01*
X78521839Y-78139550D01*
X78521829Y-78139547D01*
X78328543Y-78101100D01*
X78328541Y-78101100D01*
X78131459Y-78101100D01*
X78131457Y-78101100D01*
X77938170Y-78139547D01*
X77938160Y-78139550D01*
X77756092Y-78214964D01*
X77756079Y-78214971D01*
X77592218Y-78324460D01*
X77592214Y-78324463D01*
X77452863Y-78463814D01*
X77452860Y-78463818D01*
X77343371Y-78627679D01*
X77343364Y-78627692D01*
X77267950Y-78809760D01*
X77267947Y-78809770D01*
X77229500Y-79003056D01*
X77229500Y-79003059D01*
X77229500Y-79200141D01*
X77229500Y-79200143D01*
X77229499Y-79200143D01*
X76690500Y-79200143D01*
X76690500Y-79200141D01*
X76690500Y-79003059D01*
X76690500Y-79003056D01*
X76652052Y-78809770D01*
X76652051Y-78809769D01*
X76652051Y-78809765D01*
X76589500Y-78658752D01*
X76576635Y-78627692D01*
X76576628Y-78627679D01*
X76467139Y-78463818D01*
X76467136Y-78463814D01*
X76327785Y-78324463D01*
X76327781Y-78324460D01*
X76163920Y-78214971D01*
X76163907Y-78214964D01*
X75981839Y-78139550D01*
X75981829Y-78139547D01*
X75788543Y-78101100D01*
X75788541Y-78101100D01*
X75591459Y-78101100D01*
X75591457Y-78101100D01*
X75398170Y-78139547D01*
X75398160Y-78139550D01*
X75216092Y-78214964D01*
X75216079Y-78214971D01*
X75052218Y-78324460D01*
X75052214Y-78324463D01*
X74912863Y-78463814D01*
X74912860Y-78463818D01*
X74803371Y-78627679D01*
X74803364Y-78627692D01*
X74727950Y-78809760D01*
X74727947Y-78809770D01*
X74689500Y-79003056D01*
X74689500Y-79003059D01*
X74689500Y-79200141D01*
X74689500Y-79200143D01*
X74689499Y-79200143D01*
X74150500Y-79200143D01*
X74150500Y-79200141D01*
X74150500Y-79003059D01*
X74150500Y-79003056D01*
X74112052Y-78809770D01*
X74112051Y-78809769D01*
X74112051Y-78809765D01*
X74049500Y-78658752D01*
X74036635Y-78627692D01*
X74036628Y-78627679D01*
X73927139Y-78463818D01*
X73927136Y-78463814D01*
X73787785Y-78324463D01*
X73787781Y-78324460D01*
X73623920Y-78214971D01*
X73623907Y-78214964D01*
X73441839Y-78139550D01*
X73441829Y-78139547D01*
X73248543Y-78101100D01*
X73248541Y-78101100D01*
X73051459Y-78101100D01*
X73051457Y-78101100D01*
X72858170Y-78139547D01*
X72858160Y-78139550D01*
X72676092Y-78214964D01*
X72676079Y-78214971D01*
X72512218Y-78324460D01*
X72512214Y-78324463D01*
X72372863Y-78463814D01*
X72372860Y-78463818D01*
X72263371Y-78627679D01*
X72263364Y-78627692D01*
X72187950Y-78809760D01*
X72187947Y-78809770D01*
X72149500Y-79003056D01*
X72149500Y-79003059D01*
X72149500Y-79200141D01*
X72149500Y-79200143D01*
X72149499Y-79200143D01*
X71610500Y-79200143D01*
X71610500Y-79200141D01*
X71610500Y-79003059D01*
X71610500Y-79003056D01*
X71572052Y-78809770D01*
X71572051Y-78809769D01*
X71572051Y-78809765D01*
X71509500Y-78658752D01*
X71496635Y-78627692D01*
X71496628Y-78627679D01*
X71387139Y-78463818D01*
X71387136Y-78463814D01*
X71247785Y-78324463D01*
X71247781Y-78324460D01*
X71083920Y-78214971D01*
X71083907Y-78214964D01*
X70901839Y-78139550D01*
X70901829Y-78139547D01*
X70846714Y-78128584D01*
X70784803Y-78096199D01*
X70750229Y-78035483D01*
X70753970Y-77965713D01*
X70794836Y-77909042D01*
X70805710Y-77901729D01*
X70807306Y-77900504D01*
X70807314Y-77900500D01*
X70900500Y-77807314D01*
X70966392Y-77693186D01*
X71000500Y-77565892D01*
X71000500Y-77434108D01*
X70966392Y-77306814D01*
X70964725Y-77300591D01*
X70960500Y-77268498D01*
X70960500Y-76100000D01*
X71800000Y-76100000D01*
X80300000Y-76100000D01*
X109500000Y-76100000D01*
X118000000Y-76100000D01*
X118000000Y-67500000D01*
X109500000Y-67500000D01*
X109500000Y-76100000D01*
X80300000Y-76100000D01*
X80300000Y-67500000D01*
X71800000Y-67500000D01*
X71800000Y-76100000D01*
X70960500Y-76100000D01*
X70960500Y-64882205D01*
X70980185Y-64815166D01*
X71032989Y-64769411D01*
X71037009Y-64767660D01*
X71083914Y-64748232D01*
X71247782Y-64638739D01*
X71387139Y-64499382D01*
X71496632Y-64335514D01*
X71572051Y-64153435D01*
X71610500Y-63960141D01*
X71610500Y-63763059D01*
X71610500Y-63763056D01*
X71572052Y-63569770D01*
X71572051Y-63569769D01*
X71572051Y-63569765D01*
X71553050Y-63523892D01*
X71496635Y-63387692D01*
X71496628Y-63387679D01*
X71387139Y-63223818D01*
X71387136Y-63223814D01*
X71375503Y-63212181D01*
X71342018Y-63150858D01*
X71347002Y-63081166D01*
X71388874Y-63025233D01*
X71454338Y-63000816D01*
X71463184Y-63000500D01*
X72296816Y-63000500D01*
X72363855Y-63020185D01*
G37*
%TD.AperFunction*%
%TA.AperFunction,Conductor*%
G36*
X67578130Y-63020185D02*
G01*
X67598772Y-63036819D01*
X67899766Y-63337812D01*
X67857708Y-63349082D01*
X67732292Y-63421490D01*
X67629890Y-63523892D01*
X67557482Y-63649308D01*
X67546212Y-63691365D01*
X67207426Y-63352578D01*
X67207426Y-63352579D01*
X67183813Y-63387918D01*
X67183809Y-63387925D01*
X67108429Y-63569910D01*
X67108427Y-63569918D01*
X67070000Y-63763104D01*
X67070000Y-63960095D01*
X67108427Y-64153281D01*
X67108430Y-64153293D01*
X67183808Y-64335273D01*
X67183809Y-64335275D01*
X67207425Y-64370619D01*
X67546212Y-64031833D01*
X67557482Y-64073892D01*
X67629890Y-64199308D01*
X67732292Y-64301710D01*
X67857708Y-64374118D01*
X67899765Y-64385387D01*
X67560979Y-64724172D01*
X67596328Y-64747792D01*
X67778306Y-64823169D01*
X67778318Y-64823172D01*
X67971504Y-64861599D01*
X67971508Y-64861600D01*
X68168492Y-64861600D01*
X68168495Y-64861599D01*
X68361681Y-64823172D01*
X68361693Y-64823169D01*
X68543676Y-64747790D01*
X68543680Y-64747787D01*
X68579019Y-64724173D01*
X68579020Y-64724172D01*
X68240235Y-64385387D01*
X68282292Y-64374118D01*
X68407708Y-64301710D01*
X68510110Y-64199308D01*
X68582518Y-64073892D01*
X68593787Y-64031835D01*
X68932572Y-64370620D01*
X68932573Y-64370619D01*
X68956187Y-64335280D01*
X68956190Y-64335276D01*
X69031569Y-64153293D01*
X69031572Y-64153281D01*
X69069999Y-63960095D01*
X69070000Y-63960092D01*
X69070000Y-63763108D01*
X69069999Y-63763104D01*
X69031572Y-63569918D01*
X69031569Y-63569906D01*
X68956192Y-63387928D01*
X68932572Y-63352579D01*
X68593787Y-63691364D01*
X68582518Y-63649308D01*
X68510110Y-63523892D01*
X68407708Y-63421490D01*
X68282292Y-63349082D01*
X68240233Y-63337812D01*
X68541228Y-63036819D01*
X68602551Y-63003334D01*
X68628909Y-63000500D01*
X69756816Y-63000500D01*
X69823855Y-63020185D01*
X69869610Y-63072989D01*
X69879554Y-63142147D01*
X69850529Y-63205703D01*
X69844497Y-63212181D01*
X69832863Y-63223814D01*
X69832860Y-63223818D01*
X69723371Y-63387679D01*
X69723364Y-63387692D01*
X69647950Y-63569760D01*
X69647947Y-63569770D01*
X69609500Y-63763056D01*
X69609500Y-63763059D01*
X69609500Y-63960141D01*
X69609500Y-63960143D01*
X69609499Y-63960143D01*
X69647947Y-64153429D01*
X69647950Y-64153439D01*
X69723364Y-64335507D01*
X69723371Y-64335520D01*
X69832860Y-64499381D01*
X69832863Y-64499385D01*
X69972217Y-64638739D01*
X70100079Y-64724173D01*
X70136086Y-64748232D01*
X70182953Y-64767644D01*
X70237355Y-64811484D01*
X70259421Y-64877778D01*
X70259500Y-64882205D01*
X70259500Y-76989333D01*
X70239815Y-77056372D01*
X70197505Y-77096717D01*
X70194264Y-77098588D01*
X70192684Y-77099501D01*
X70099500Y-77192686D01*
X70033608Y-77306812D01*
X69999500Y-77434108D01*
X69999500Y-77565891D01*
X70033608Y-77693187D01*
X70066554Y-77750250D01*
X70099500Y-77807314D01*
X70192686Y-77900500D01*
X70268425Y-77944228D01*
X70316641Y-77994795D01*
X70329864Y-78063402D01*
X70303896Y-78128267D01*
X70253878Y-78166176D01*
X70136089Y-78214966D01*
X70136079Y-78214971D01*
X69972218Y-78324460D01*
X69972214Y-78324463D01*
X69937181Y-78359497D01*
X69875858Y-78392982D01*
X69806166Y-78387998D01*
X69750233Y-78346126D01*
X69725816Y-78280662D01*
X69725500Y-78271816D01*
X69725500Y-69763065D01*
X69720851Y-69745717D01*
X69720850Y-69745713D01*
X69699910Y-69667562D01*
X69650475Y-69581938D01*
X69580562Y-69512025D01*
X66461819Y-66393282D01*
X66428334Y-66331959D01*
X66425500Y-66305601D01*
X66425500Y-65570730D01*
X66422646Y-65540300D01*
X66422646Y-65540298D01*
X66377793Y-65412119D01*
X66377792Y-65412117D01*
X66317410Y-65330302D01*
X66297150Y-65302850D01*
X66187882Y-65222207D01*
X66187880Y-65222206D01*
X66059700Y-65177353D01*
X66029263Y-65174499D01*
X66026370Y-65174364D01*
X66026406Y-65173591D01*
X66020814Y-65171949D01*
X66011853Y-65173238D01*
X65987812Y-65162259D01*
X65962461Y-65154815D01*
X65956533Y-65147974D01*
X65948297Y-65144213D01*
X65934007Y-65121978D01*
X65916706Y-65102011D01*
X65914418Y-65091496D01*
X65910523Y-65085435D01*
X65905500Y-65050500D01*
X65905500Y-64871850D01*
X65925185Y-64804811D01*
X65977989Y-64759056D01*
X65982016Y-64757302D01*
X66003914Y-64748232D01*
X66167782Y-64638739D01*
X66167785Y-64638736D01*
X66216241Y-64590281D01*
X66307136Y-64499385D01*
X66307137Y-64499384D01*
X66307139Y-64499382D01*
X66416632Y-64335514D01*
X66492051Y-64153435D01*
X66530500Y-63960141D01*
X66530500Y-63763059D01*
X66530500Y-63763056D01*
X66492052Y-63569770D01*
X66492051Y-63569769D01*
X66492051Y-63569765D01*
X66473050Y-63523892D01*
X66416635Y-63387692D01*
X66416628Y-63387679D01*
X66307139Y-63223818D01*
X66307136Y-63223814D01*
X66295503Y-63212181D01*
X66262018Y-63150858D01*
X66267002Y-63081166D01*
X66308874Y-63025233D01*
X66374338Y-63000816D01*
X66383184Y-63000500D01*
X67511091Y-63000500D01*
X67578130Y-63020185D01*
G37*
%TD.AperFunction*%
%TD*%
M02*
