%TF.GenerationSoftware,KiCad,Pcbnew,9.0.4*%
%TF.CreationDate,2025-10-30T09:55:29-04:00*%
%TF.ProjectId,25-26-Solenoid-Board,32352d32-362d-4536-9f6c-656e6f69642d,1.2*%
%TF.SameCoordinates,Original*%
%TF.FileFunction,Copper,L1,Top*%
%TF.FilePolarity,Positive*%
%FSLAX46Y46*%
G04 Gerber Fmt 4.6, Leading zero omitted, Abs format (unit mm)*
G04 Created by KiCad (PCBNEW 9.0.4) date 2025-10-30 09:55:29*
%MOMM*%
%LPD*%
G01*
G04 APERTURE LIST*
G04 Aperture macros list*
%AMRoundRect*
0 Rectangle with rounded corners*
0 $1 Rounding radius*
0 $2 $3 $4 $5 $6 $7 $8 $9 X,Y pos of 4 corners*
0 Add a 4 corners polygon primitive as box body*
4,1,4,$2,$3,$4,$5,$6,$7,$8,$9,$2,$3,0*
0 Add four circle primitives for the rounded corners*
1,1,$1+$1,$2,$3*
1,1,$1+$1,$4,$5*
1,1,$1+$1,$6,$7*
1,1,$1+$1,$8,$9*
0 Add four rect primitives between the rounded corners*
20,1,$1+$1,$2,$3,$4,$5,0*
20,1,$1+$1,$4,$5,$6,$7,0*
20,1,$1+$1,$6,$7,$8,$9,0*
20,1,$1+$1,$8,$9,$2,$3,0*%
G04 Aperture macros list end*
%TA.AperFunction,SMDPad,CuDef*%
%ADD10R,0.997699X0.456400*%
%TD*%
%TA.AperFunction,ComponentPad*%
%ADD11RoundRect,0.250000X-0.625000X0.350000X-0.625000X-0.350000X0.625000X-0.350000X0.625000X0.350000X0*%
%TD*%
%TA.AperFunction,ComponentPad*%
%ADD12O,1.750000X1.200000*%
%TD*%
%TA.AperFunction,SMDPad,CuDef*%
%ADD13RoundRect,0.375000X-0.625000X-0.375000X0.625000X-0.375000X0.625000X0.375000X-0.625000X0.375000X0*%
%TD*%
%TA.AperFunction,SMDPad,CuDef*%
%ADD14RoundRect,0.500000X-0.500000X-1.400000X0.500000X-1.400000X0.500000X1.400000X-0.500000X1.400000X0*%
%TD*%
%TA.AperFunction,ComponentPad*%
%ADD15RoundRect,0.760000X-1.140000X-1.140000X1.140000X-1.140000X1.140000X1.140000X-1.140000X1.140000X0*%
%TD*%
%TA.AperFunction,ComponentPad*%
%ADD16C,4.000000*%
%TD*%
%TA.AperFunction,SMDPad,CuDef*%
%ADD17RoundRect,0.250000X-0.475000X0.337500X-0.475000X-0.337500X0.475000X-0.337500X0.475000X0.337500X0*%
%TD*%
%TA.AperFunction,ComponentPad*%
%ADD18R,1.600000X1.600000*%
%TD*%
%TA.AperFunction,ComponentPad*%
%ADD19C,1.600000*%
%TD*%
%TA.AperFunction,ComponentPad*%
%ADD20RoundRect,0.250001X-0.799999X0.799999X-0.799999X-0.799999X0.799999X-0.799999X0.799999X0.799999X0*%
%TD*%
%TA.AperFunction,ComponentPad*%
%ADD21C,2.100000*%
%TD*%
%TA.AperFunction,SMDPad,CuDef*%
%ADD22RoundRect,0.150000X-0.800000X-0.150000X0.800000X-0.150000X0.800000X0.150000X-0.800000X0.150000X0*%
%TD*%
%TA.AperFunction,ViaPad*%
%ADD23C,0.600000*%
%TD*%
%TA.AperFunction,Conductor*%
%ADD24C,0.300000*%
%TD*%
%TA.AperFunction,Conductor*%
%ADD25C,0.800000*%
%TD*%
%TA.AperFunction,Conductor*%
%ADD26C,0.200000*%
%TD*%
%TA.AperFunction,Conductor*%
%ADD27C,0.350000*%
%TD*%
G04 APERTURE END LIST*
D10*
%TO.P,U3,1,TXD*%
%TO.N,C_TX*%
X74948702Y-86974999D03*
%TO.P,U3,2,GND*%
%TO.N,GND*%
X74948702Y-86325001D03*
%TO.P,U3,3,VCC*%
%TO.N,+3V3*%
X74948702Y-85674999D03*
%TO.P,U3,4,RXD*%
%TO.N,C_RX*%
X74948702Y-85025001D03*
%TO.P,U3,5,SHDN*%
%TO.N,GND*%
X72300000Y-85025001D03*
%TO.P,U3,6,CANL*%
%TO.N,CAN N*%
X72300000Y-85674999D03*
%TO.P,U3,7,CANH*%
%TO.N,CAN P*%
X72300000Y-86325001D03*
%TO.P,U3,8,STB*%
%TO.N,GND*%
X72300000Y-86974999D03*
%TD*%
D11*
%TO.P,J2,1,Pin_1*%
%TO.N,CAN N*%
X67900000Y-84400000D03*
D12*
%TO.P,J2,2,Pin_2*%
%TO.N,CAN P*%
X67900000Y-86400000D03*
%TD*%
D13*
%TO.P,U2,1,GND*%
%TO.N,GND*%
X86550000Y-89200000D03*
%TO.P,U2,2,VO*%
%TO.N,+5V*%
X86550000Y-91500000D03*
D14*
X92850000Y-91500000D03*
D13*
%TO.P,U2,3,VI*%
%TO.N,VCC*%
X86550000Y-93800000D03*
%TD*%
D15*
%TO.P,J1,1,Pin_1*%
%TO.N,GND*%
X68800000Y-94500000D03*
D16*
%TO.P,J1,2,Pin_2*%
%TO.N,VCC*%
X73800000Y-94500000D03*
%TD*%
D17*
%TO.P,C1,1*%
%TO.N,VCC*%
X83800000Y-93662500D03*
%TO.P,C1,2*%
%TO.N,GND*%
X83800000Y-95737500D03*
%TD*%
D18*
%TO.P,U1,1,GND*%
%TO.N,GND*%
X65530000Y-79101600D03*
D19*
%TO.P,U1,2,0_RX1_CRX2_CS1*%
%TO.N,unconnected-(U1-0_RX1_CRX2_CS1-Pad2)*%
X68070000Y-79101600D03*
%TO.P,U1,3,1_TX1_CTX2_MISO1*%
%TO.N,unconnected-(U1-1_TX1_CTX2_MISO1-Pad3)*%
X70610000Y-79101600D03*
%TO.P,U1,4,2_OUT2*%
%TO.N,pin1*%
X73150000Y-79101600D03*
%TO.P,U1,5,3_LRCLK2*%
%TO.N,pin2*%
X75690000Y-79101600D03*
%TO.P,U1,6,4_BCLK2*%
%TO.N,pin3*%
X78230000Y-79101600D03*
%TO.P,U1,7,5_IN2*%
%TO.N,pin4*%
X80770000Y-79101600D03*
%TO.P,U1,8,6_OUT1D*%
%TO.N,unconnected-(U1-6_OUT1D-Pad8)*%
X83310000Y-79101600D03*
%TO.P,U1,9,7_RX2_OUT1A*%
%TO.N,unconnected-(U1-7_RX2_OUT1A-Pad9)*%
X85850000Y-79101600D03*
%TO.P,U1,10,8_TX2_IN1*%
%TO.N,unconnected-(U1-8_TX2_IN1-Pad10)*%
X88390000Y-79101600D03*
%TO.P,U1,11,9_OUT1C*%
%TO.N,unconnected-(U1-9_OUT1C-Pad11)*%
X90930000Y-79101600D03*
%TO.P,U1,12,10_CS_MQSR*%
%TO.N,unconnected-(U1-10_CS_MQSR-Pad12)*%
X93470000Y-79101600D03*
%TO.P,U1,13,11_MOSI_CTX1*%
%TO.N,unconnected-(U1-11_MOSI_CTX1-Pad13)*%
X96010000Y-79101600D03*
%TO.P,U1,14,12_MISO_MQSL*%
%TO.N,unconnected-(U1-12_MISO_MQSL-Pad14)*%
X98550000Y-79101600D03*
%TO.P,U1,15,3V3*%
%TO.N,+3V3*%
X101090000Y-79101600D03*
%TO.P,U1,16,24_A10_TX6_SCL2*%
%TO.N,unconnected-(U1-24_A10_TX6_SCL2-Pad16)*%
X103630000Y-79101600D03*
%TO.P,U1,17,25_A11_RX6_SDA2*%
%TO.N,unconnected-(U1-25_A11_RX6_SDA2-Pad17)*%
X106170000Y-79101600D03*
%TO.P,U1,18,26_A12_MOSI1*%
%TO.N,unconnected-(U1-26_A12_MOSI1-Pad18)*%
X108710000Y-79101600D03*
%TO.P,U1,19,27_A13_SCK1*%
%TO.N,unconnected-(U1-27_A13_SCK1-Pad19)*%
X111250000Y-79101600D03*
%TO.P,U1,20,28_RX7*%
%TO.N,unconnected-(U1-28_RX7-Pad20)*%
X113790000Y-79101600D03*
%TO.P,U1,21,29_TX7*%
%TO.N,unconnected-(U1-29_TX7-Pad21)*%
X116330000Y-79101600D03*
%TO.P,U1,22,30_CRX3*%
%TO.N,C_RX*%
X118870000Y-79101600D03*
%TO.P,U1,23,31_CTX3*%
%TO.N,C_TX*%
X121410000Y-79101600D03*
%TO.P,U1,24,32_OUT1B*%
%TO.N,unconnected-(U1-32_OUT1B-Pad24)*%
X123950000Y-79101600D03*
%TO.P,U1,25,33_MCLK2*%
%TO.N,unconnected-(U1-33_MCLK2-Pad25)*%
X123950000Y-63861600D03*
%TO.P,U1,26,34_RX8*%
%TO.N,unconnected-(U1-34_RX8-Pad26)*%
X121410000Y-63861600D03*
%TO.P,U1,27,35_TX8*%
%TO.N,unconnected-(U1-35_TX8-Pad27)*%
X118870000Y-63861600D03*
%TO.P,U1,28,36_CS*%
%TO.N,unconnected-(U1-36_CS-Pad28)*%
X116330000Y-63861600D03*
%TO.P,U1,29,37_CS*%
%TO.N,unconnected-(U1-37_CS-Pad29)*%
X113790000Y-63861600D03*
%TO.P,U1,30,38_CS1_IN1*%
%TO.N,unconnected-(U1-38_CS1_IN1-Pad30)*%
X111250000Y-63861600D03*
%TO.P,U1,31,39_MISO1_OUT1A*%
%TO.N,unconnected-(U1-39_MISO1_OUT1A-Pad31)*%
X108710000Y-63861600D03*
%TO.P,U1,32,40_A16*%
%TO.N,unconnected-(U1-40_A16-Pad32)*%
X106170000Y-63861600D03*
%TO.P,U1,33,41_A17*%
%TO.N,unconnected-(U1-41_A17-Pad33)*%
X103630000Y-63861600D03*
%TO.P,U1,34,GND*%
%TO.N,GND*%
X101090000Y-63861600D03*
%TO.P,U1,35,13_SCK_LED*%
%TO.N,unconnected-(U1-13_SCK_LED-Pad35)*%
X98550000Y-63861600D03*
%TO.P,U1,36,14_A0_TX3_SPDIF_OUT*%
%TO.N,unconnected-(U1-14_A0_TX3_SPDIF_OUT-Pad36)*%
X96010000Y-63861600D03*
%TO.P,U1,37,15_A1_RX3_SPDIF_IN*%
%TO.N,unconnected-(U1-15_A1_RX3_SPDIF_IN-Pad37)*%
X93470000Y-63861600D03*
%TO.P,U1,38,16_A2_RX4_SCL1*%
%TO.N,unconnected-(U1-16_A2_RX4_SCL1-Pad38)*%
X90930000Y-63861600D03*
%TO.P,U1,39,17_A3_TX4_SDA1*%
%TO.N,unconnected-(U1-17_A3_TX4_SDA1-Pad39)*%
X88390000Y-63861600D03*
%TO.P,U1,40,18_A4_SDA*%
%TO.N,unconnected-(U1-18_A4_SDA-Pad40)*%
X85850000Y-63861600D03*
%TO.P,U1,41,19_A5_SCL*%
%TO.N,unconnected-(U1-19_A5_SCL-Pad41)*%
X83310000Y-63861600D03*
%TO.P,U1,42,20_A6_TX5_LRCLK1*%
%TO.N,unconnected-(U1-20_A6_TX5_LRCLK1-Pad42)*%
X80770000Y-63861600D03*
%TO.P,U1,43,21_A7_RX5_BCLK1*%
%TO.N,unconnected-(U1-21_A7_RX5_BCLK1-Pad43)*%
X78230000Y-63861600D03*
%TO.P,U1,44,22_A8_CTX1*%
%TO.N,unconnected-(U1-22_A8_CTX1-Pad44)*%
X75690000Y-63861600D03*
%TO.P,U1,45,23_A9_CRX1_MCLK1*%
%TO.N,unconnected-(U1-23_A9_CRX1_MCLK1-Pad45)*%
X73150000Y-63861600D03*
%TO.P,U1,46,3V3*%
%TO.N,+3V3*%
X70610000Y-63861600D03*
%TO.P,U1,47,GND*%
%TO.N,GND*%
X68070000Y-63861600D03*
%TO.P,U1,48,VIN*%
%TO.N,+5V*%
X65530000Y-63861600D03*
%TD*%
D17*
%TO.P,C3,1*%
%TO.N,GND*%
X83800000Y-89162500D03*
%TO.P,C3,2*%
%TO.N,+5V*%
X83800000Y-91237500D03*
%TD*%
D20*
%TO.P,J3,1,Pin_1*%
%TO.N,S1*%
X121750000Y-82670000D03*
D21*
%TO.P,J3,2,Pin_2*%
%TO.N,VCC*%
X121750000Y-85210000D03*
%TO.P,J3,3,Pin_3*%
%TO.N,S2*%
X121750000Y-87750000D03*
%TO.P,J3,4,Pin_4*%
%TO.N,VCC*%
X121750000Y-90290000D03*
%TO.P,J3,5,Pin_5*%
%TO.N,S3*%
X121750000Y-92830000D03*
%TO.P,J3,6,Pin_6*%
%TO.N,VCC*%
X121750000Y-95370000D03*
%TO.P,J3,7,Pin_7*%
%TO.N,S4*%
X121750000Y-97910000D03*
%TO.P,J3,8,Pin_8*%
%TO.N,VCC*%
X121750000Y-100450000D03*
%TD*%
D22*
%TO.P,U4,1,1B*%
%TO.N,pin1*%
X103500000Y-82785000D03*
%TO.P,U4,2,2B*%
%TO.N,pin2*%
X103500000Y-84055000D03*
%TO.P,U4,3,3B*%
%TO.N,pin3*%
X103500000Y-85325000D03*
%TO.P,U4,4,4B*%
%TO.N,pin4*%
X103500000Y-86595000D03*
%TO.P,U4,5,5B*%
%TO.N,GND*%
X103500000Y-87865000D03*
%TO.P,U4,6,6B*%
X103500000Y-89135000D03*
%TO.P,U4,7,7B*%
X103500000Y-90405000D03*
%TO.P,U4,8,8B*%
X103500000Y-91675000D03*
%TO.P,U4,9,GND*%
X103500000Y-92945000D03*
%TO.P,U4,10,NC*%
%TO.N,unconnected-(U4-NC-Pad10)*%
X103500000Y-94215000D03*
%TO.P,U4,11,NC*%
%TO.N,unconnected-(U4-NC-Pad11)*%
X112700000Y-94215000D03*
%TO.P,U4,12,COM*%
%TO.N,VCC*%
X112700000Y-92945000D03*
%TO.P,U4,13,8C*%
%TO.N,unconnected-(U4-8C-Pad13)*%
X112700000Y-91675000D03*
%TO.P,U4,14,7C*%
%TO.N,unconnected-(U4-7C-Pad14)*%
X112700000Y-90405000D03*
%TO.P,U4,15,6C*%
%TO.N,unconnected-(U4-6C-Pad15)*%
X112700000Y-89135000D03*
%TO.P,U4,16,5C*%
%TO.N,unconnected-(U4-5C-Pad16)*%
X112700000Y-87865000D03*
%TO.P,U4,17,4C*%
%TO.N,S4*%
X112700000Y-86595000D03*
%TO.P,U4,18,3C*%
%TO.N,S3*%
X112700000Y-85325000D03*
%TO.P,U4,19,2C*%
%TO.N,S2*%
X112700000Y-84055000D03*
%TO.P,U4,20,1C*%
%TO.N,S1*%
X112700000Y-82785000D03*
%TD*%
D23*
%TO.N,VCC*%
X113855000Y-92945000D03*
%TO.N,GND*%
X92100000Y-101400000D03*
X104800000Y-74200000D03*
X72400000Y-82600000D03*
X116000000Y-91100000D03*
X101000000Y-66600000D03*
X102000000Y-101500000D03*
X121255183Y-74212261D03*
X75600000Y-101400000D03*
X83500000Y-101500000D03*
X108600000Y-101600000D03*
X65900000Y-91600000D03*
X65500000Y-76100000D03*
X79600000Y-88400000D03*
X83800000Y-74200000D03*
X83800000Y-68400000D03*
X104700000Y-68400000D03*
X123900000Y-91000000D03*
X93300000Y-88400000D03*
X101500000Y-91100000D03*
X108500000Y-88100000D03*
X121000000Y-68300000D03*
X68100000Y-66500000D03*
X66500000Y-101400000D03*
X79600000Y-91600000D03*
%TO.N,pin2*%
X75750000Y-84000000D03*
%TO.N,pin3*%
X78230000Y-85000000D03*
%TO.N,pin4*%
X80750000Y-86750000D03*
%TO.N,+5V*%
X69350000Y-89900000D03*
%TO.N,C_RX*%
X74948702Y-80851298D03*
X74948702Y-84600000D03*
%TO.N,+3V3*%
X70500000Y-77500000D03*
X101037500Y-85861500D03*
%TO.N,C_TX*%
X79500000Y-81550000D03*
X74948702Y-87400000D03*
%TD*%
D24*
%TO.N,S1*%
X121685000Y-82785000D02*
X121750000Y-82720000D01*
X112700000Y-82785000D02*
X121685000Y-82785000D01*
D25*
%TO.N,VCC*%
X83800000Y-93662500D02*
X86412500Y-93662500D01*
X86412500Y-93662500D02*
X86550000Y-93800000D01*
X74700000Y-93600000D02*
X73800000Y-94500000D01*
X88525000Y-95775000D02*
X86550000Y-93800000D01*
X83737500Y-93600000D02*
X74700000Y-93600000D01*
X105475000Y-95775000D02*
X88525000Y-95775000D01*
X83800000Y-93662500D02*
X83737500Y-93600000D01*
X113855000Y-92945000D02*
X108305000Y-92945000D01*
X108305000Y-92945000D02*
X105475000Y-95775000D01*
D24*
%TO.N,S2*%
X118005000Y-84055000D02*
X121750000Y-87800000D01*
X112700000Y-84055000D02*
X118005000Y-84055000D01*
%TO.N,S3*%
X112700000Y-85325000D02*
X114195000Y-85325000D01*
X114195000Y-85325000D02*
X121750000Y-92880000D01*
%TO.N,S4*%
X112700000Y-86595000D02*
X113649999Y-86595000D01*
X113649999Y-86595000D02*
X119500000Y-92445001D01*
X119500000Y-92445001D02*
X119500000Y-95710000D01*
X119500000Y-95710000D02*
X121750000Y-97960000D01*
D26*
%TO.N,CAN P*%
X72300000Y-86325001D02*
X67974999Y-86325001D01*
X67974999Y-86325001D02*
X67900000Y-86400000D01*
%TO.N,CAN N*%
X69924999Y-85674999D02*
X68650000Y-84400000D01*
X72300000Y-85674999D02*
X69924999Y-85674999D01*
X68650000Y-84400000D02*
X67900000Y-84400000D01*
%TO.N,pin1*%
X73150000Y-79101600D02*
X73150000Y-81935000D01*
X74000000Y-82785000D02*
X103500000Y-82785000D01*
X73150000Y-81935000D02*
X74000000Y-82785000D01*
%TO.N,pin2*%
X75805000Y-84055000D02*
X75750000Y-84000000D01*
X103500000Y-84055000D02*
X75805000Y-84055000D01*
%TO.N,pin3*%
X78230000Y-85000000D02*
X101750000Y-85000000D01*
X101750000Y-85000000D02*
X102000000Y-85250000D01*
X102000000Y-85250000D02*
X103425000Y-85250000D01*
X103425000Y-85250000D02*
X103500000Y-85325000D01*
%TO.N,pin4*%
X103345000Y-86750000D02*
X103500000Y-86595000D01*
X80750000Y-86750000D02*
X103345000Y-86750000D01*
D27*
%TO.N,+5V*%
X83000000Y-91237500D02*
X83800000Y-91237500D01*
X84062500Y-91500000D02*
X83800000Y-91237500D01*
X92850000Y-91500000D02*
X86550000Y-91500000D01*
X81662500Y-89900000D02*
X83000000Y-91237500D01*
X86550000Y-91500000D02*
X84062500Y-91500000D01*
X69350000Y-89900000D02*
X81662500Y-89900000D01*
D26*
%TO.N,C_RX*%
X74948702Y-84600000D02*
X74948702Y-85025001D01*
X75050000Y-80750000D02*
X117221600Y-80750000D01*
X74948702Y-80851298D02*
X75050000Y-80750000D01*
X117221600Y-80750000D02*
X118870000Y-79101600D01*
D24*
%TO.N,+3V3*%
X101037500Y-85861500D02*
X101000000Y-85899000D01*
X70500000Y-77500000D02*
X99488400Y-77500000D01*
X75899000Y-85899000D02*
X75674999Y-85674999D01*
X99488400Y-77500000D02*
X101090000Y-79101600D01*
X75674999Y-85674999D02*
X74948702Y-85674999D01*
X101000000Y-85899000D02*
X75899000Y-85899000D01*
D26*
%TO.N,C_TX*%
X74948702Y-87400000D02*
X74948702Y-86974999D01*
X79500000Y-81550000D02*
X79700000Y-81550000D01*
X119011600Y-81500000D02*
X121410000Y-79101600D01*
X79750000Y-81500000D02*
X119011600Y-81500000D01*
X79700000Y-81550000D02*
X79750000Y-81500000D01*
%TD*%
%TA.AperFunction,Conductor*%
%TO.N,GND*%
G36*
X67578130Y-63020185D02*
G01*
X67598772Y-63036819D01*
X67899766Y-63337812D01*
X67857708Y-63349082D01*
X67732292Y-63421490D01*
X67629890Y-63523892D01*
X67557482Y-63649308D01*
X67546212Y-63691365D01*
X67207426Y-63352578D01*
X67207426Y-63352579D01*
X67183813Y-63387918D01*
X67183809Y-63387925D01*
X67108429Y-63569910D01*
X67108427Y-63569918D01*
X67070000Y-63763104D01*
X67070000Y-63960095D01*
X67108427Y-64153281D01*
X67108430Y-64153293D01*
X67183808Y-64335273D01*
X67183809Y-64335275D01*
X67207425Y-64370619D01*
X67546212Y-64031833D01*
X67557482Y-64073892D01*
X67629890Y-64199308D01*
X67732292Y-64301710D01*
X67857708Y-64374118D01*
X67899765Y-64385387D01*
X67560979Y-64724172D01*
X67596328Y-64747792D01*
X67778306Y-64823169D01*
X67778318Y-64823172D01*
X67971504Y-64861599D01*
X67971508Y-64861600D01*
X68168492Y-64861600D01*
X68168495Y-64861599D01*
X68361681Y-64823172D01*
X68361693Y-64823169D01*
X68543676Y-64747790D01*
X68543680Y-64747787D01*
X68579019Y-64724173D01*
X68579020Y-64724172D01*
X68240235Y-64385387D01*
X68282292Y-64374118D01*
X68407708Y-64301710D01*
X68510110Y-64199308D01*
X68582518Y-64073892D01*
X68593787Y-64031835D01*
X68932572Y-64370620D01*
X68932573Y-64370619D01*
X68956187Y-64335280D01*
X68956190Y-64335276D01*
X69031569Y-64153293D01*
X69031572Y-64153281D01*
X69069999Y-63960095D01*
X69070000Y-63960092D01*
X69070000Y-63763108D01*
X69069999Y-63763104D01*
X69031572Y-63569918D01*
X69031569Y-63569906D01*
X68956192Y-63387928D01*
X68932572Y-63352579D01*
X68593787Y-63691364D01*
X68582518Y-63649308D01*
X68510110Y-63523892D01*
X68407708Y-63421490D01*
X68282292Y-63349082D01*
X68240233Y-63337812D01*
X68541228Y-63036819D01*
X68602551Y-63003334D01*
X68628909Y-63000500D01*
X69756816Y-63000500D01*
X69823855Y-63020185D01*
X69869610Y-63072989D01*
X69879554Y-63142147D01*
X69850529Y-63205703D01*
X69844497Y-63212181D01*
X69832863Y-63223814D01*
X69832860Y-63223818D01*
X69723371Y-63387679D01*
X69723364Y-63387692D01*
X69647950Y-63569760D01*
X69647947Y-63569770D01*
X69609500Y-63763056D01*
X69609500Y-63763059D01*
X69609500Y-63960141D01*
X69609500Y-63960143D01*
X69609499Y-63960143D01*
X69647947Y-64153429D01*
X69647950Y-64153439D01*
X69723364Y-64335507D01*
X69723371Y-64335520D01*
X69832860Y-64499381D01*
X69832863Y-64499385D01*
X69972214Y-64638736D01*
X69972218Y-64638739D01*
X70136079Y-64748228D01*
X70136092Y-64748235D01*
X70318160Y-64823649D01*
X70318165Y-64823651D01*
X70318169Y-64823651D01*
X70318170Y-64823652D01*
X70511456Y-64862100D01*
X70511459Y-64862100D01*
X70708543Y-64862100D01*
X70838582Y-64836232D01*
X70901835Y-64823651D01*
X71083914Y-64748232D01*
X71247782Y-64638739D01*
X71387139Y-64499382D01*
X71496632Y-64335514D01*
X71572051Y-64153435D01*
X71610500Y-63960141D01*
X71610500Y-63763059D01*
X71610500Y-63763056D01*
X71572052Y-63569770D01*
X71572051Y-63569769D01*
X71572051Y-63569765D01*
X71553050Y-63523892D01*
X71496635Y-63387692D01*
X71496628Y-63387679D01*
X71387139Y-63223818D01*
X71387136Y-63223814D01*
X71375503Y-63212181D01*
X71342018Y-63150858D01*
X71347002Y-63081166D01*
X71388874Y-63025233D01*
X71454338Y-63000816D01*
X71463184Y-63000500D01*
X72296816Y-63000500D01*
X72363855Y-63020185D01*
X72409610Y-63072989D01*
X72419554Y-63142147D01*
X72390529Y-63205703D01*
X72384497Y-63212181D01*
X72372863Y-63223814D01*
X72372860Y-63223818D01*
X72263371Y-63387679D01*
X72263364Y-63387692D01*
X72187950Y-63569760D01*
X72187947Y-63569770D01*
X72149500Y-63763056D01*
X72149500Y-63763059D01*
X72149500Y-63960141D01*
X72149500Y-63960143D01*
X72149499Y-63960143D01*
X72187947Y-64153429D01*
X72187950Y-64153439D01*
X72263364Y-64335507D01*
X72263371Y-64335520D01*
X72372860Y-64499381D01*
X72372863Y-64499385D01*
X72512214Y-64638736D01*
X72512218Y-64638739D01*
X72676079Y-64748228D01*
X72676092Y-64748235D01*
X72858160Y-64823649D01*
X72858165Y-64823651D01*
X72858169Y-64823651D01*
X72858170Y-64823652D01*
X73051456Y-64862100D01*
X73051459Y-64862100D01*
X73248543Y-64862100D01*
X73378582Y-64836232D01*
X73441835Y-64823651D01*
X73623914Y-64748232D01*
X73787782Y-64638739D01*
X73927139Y-64499382D01*
X74036632Y-64335514D01*
X74112051Y-64153435D01*
X74150500Y-63960141D01*
X74150500Y-63763059D01*
X74150500Y-63763056D01*
X74112052Y-63569770D01*
X74112051Y-63569769D01*
X74112051Y-63569765D01*
X74093050Y-63523892D01*
X74036635Y-63387692D01*
X74036628Y-63387679D01*
X73927139Y-63223818D01*
X73927136Y-63223814D01*
X73915503Y-63212181D01*
X73882018Y-63150858D01*
X73887002Y-63081166D01*
X73928874Y-63025233D01*
X73994338Y-63000816D01*
X74003184Y-63000500D01*
X74836816Y-63000500D01*
X74903855Y-63020185D01*
X74949610Y-63072989D01*
X74959554Y-63142147D01*
X74930529Y-63205703D01*
X74924497Y-63212181D01*
X74912863Y-63223814D01*
X74912860Y-63223818D01*
X74803371Y-63387679D01*
X74803364Y-63387692D01*
X74727950Y-63569760D01*
X74727947Y-63569770D01*
X74689500Y-63763056D01*
X74689500Y-63763059D01*
X74689500Y-63960141D01*
X74689500Y-63960143D01*
X74689499Y-63960143D01*
X74727947Y-64153429D01*
X74727950Y-64153439D01*
X74803364Y-64335507D01*
X74803371Y-64335520D01*
X74912860Y-64499381D01*
X74912863Y-64499385D01*
X75052214Y-64638736D01*
X75052218Y-64638739D01*
X75216079Y-64748228D01*
X75216092Y-64748235D01*
X75398160Y-64823649D01*
X75398165Y-64823651D01*
X75398169Y-64823651D01*
X75398170Y-64823652D01*
X75591456Y-64862100D01*
X75591459Y-64862100D01*
X75788543Y-64862100D01*
X75918582Y-64836232D01*
X75981835Y-64823651D01*
X76163914Y-64748232D01*
X76327782Y-64638739D01*
X76467139Y-64499382D01*
X76576632Y-64335514D01*
X76652051Y-64153435D01*
X76690500Y-63960141D01*
X76690500Y-63763059D01*
X76690500Y-63763056D01*
X76652052Y-63569770D01*
X76652051Y-63569769D01*
X76652051Y-63569765D01*
X76633050Y-63523892D01*
X76576635Y-63387692D01*
X76576628Y-63387679D01*
X76467139Y-63223818D01*
X76467136Y-63223814D01*
X76455503Y-63212181D01*
X76422018Y-63150858D01*
X76427002Y-63081166D01*
X76468874Y-63025233D01*
X76534338Y-63000816D01*
X76543184Y-63000500D01*
X77376816Y-63000500D01*
X77443855Y-63020185D01*
X77489610Y-63072989D01*
X77499554Y-63142147D01*
X77470529Y-63205703D01*
X77464497Y-63212181D01*
X77452863Y-63223814D01*
X77452860Y-63223818D01*
X77343371Y-63387679D01*
X77343364Y-63387692D01*
X77267950Y-63569760D01*
X77267947Y-63569770D01*
X77229500Y-63763056D01*
X77229500Y-63763059D01*
X77229500Y-63960141D01*
X77229500Y-63960143D01*
X77229499Y-63960143D01*
X77267947Y-64153429D01*
X77267950Y-64153439D01*
X77343364Y-64335507D01*
X77343371Y-64335520D01*
X77452860Y-64499381D01*
X77452863Y-64499385D01*
X77592214Y-64638736D01*
X77592218Y-64638739D01*
X77756079Y-64748228D01*
X77756092Y-64748235D01*
X77938160Y-64823649D01*
X77938165Y-64823651D01*
X77938169Y-64823651D01*
X77938170Y-64823652D01*
X78131456Y-64862100D01*
X78131459Y-64862100D01*
X78328543Y-64862100D01*
X78458582Y-64836232D01*
X78521835Y-64823651D01*
X78703914Y-64748232D01*
X78867782Y-64638739D01*
X79007139Y-64499382D01*
X79116632Y-64335514D01*
X79192051Y-64153435D01*
X79230500Y-63960141D01*
X79230500Y-63763059D01*
X79230500Y-63763056D01*
X79192052Y-63569770D01*
X79192051Y-63569769D01*
X79192051Y-63569765D01*
X79173050Y-63523892D01*
X79116635Y-63387692D01*
X79116628Y-63387679D01*
X79007139Y-63223818D01*
X79007136Y-63223814D01*
X78995503Y-63212181D01*
X78962018Y-63150858D01*
X78967002Y-63081166D01*
X79008874Y-63025233D01*
X79074338Y-63000816D01*
X79083184Y-63000500D01*
X79916816Y-63000500D01*
X79983855Y-63020185D01*
X80029610Y-63072989D01*
X80039554Y-63142147D01*
X80010529Y-63205703D01*
X80004497Y-63212181D01*
X79992863Y-63223814D01*
X79992860Y-63223818D01*
X79883371Y-63387679D01*
X79883364Y-63387692D01*
X79807950Y-63569760D01*
X79807947Y-63569770D01*
X79769500Y-63763056D01*
X79769500Y-63763059D01*
X79769500Y-63960141D01*
X79769500Y-63960143D01*
X79769499Y-63960143D01*
X79807947Y-64153429D01*
X79807950Y-64153439D01*
X79883364Y-64335507D01*
X79883371Y-64335520D01*
X79992860Y-64499381D01*
X79992863Y-64499385D01*
X80132214Y-64638736D01*
X80132218Y-64638739D01*
X80296079Y-64748228D01*
X80296092Y-64748235D01*
X80478160Y-64823649D01*
X80478165Y-64823651D01*
X80478169Y-64823651D01*
X80478170Y-64823652D01*
X80671456Y-64862100D01*
X80671459Y-64862100D01*
X80868543Y-64862100D01*
X80998582Y-64836232D01*
X81061835Y-64823651D01*
X81243914Y-64748232D01*
X81407782Y-64638739D01*
X81547139Y-64499382D01*
X81656632Y-64335514D01*
X81732051Y-64153435D01*
X81770500Y-63960141D01*
X81770500Y-63763059D01*
X81770500Y-63763056D01*
X81732052Y-63569770D01*
X81732051Y-63569769D01*
X81732051Y-63569765D01*
X81713050Y-63523892D01*
X81656635Y-63387692D01*
X81656628Y-63387679D01*
X81547139Y-63223818D01*
X81547136Y-63223814D01*
X81535503Y-63212181D01*
X81502018Y-63150858D01*
X81507002Y-63081166D01*
X81548874Y-63025233D01*
X81614338Y-63000816D01*
X81623184Y-63000500D01*
X82456816Y-63000500D01*
X82523855Y-63020185D01*
X82569610Y-63072989D01*
X82579554Y-63142147D01*
X82550529Y-63205703D01*
X82544497Y-63212181D01*
X82532863Y-63223814D01*
X82532860Y-63223818D01*
X82423371Y-63387679D01*
X82423364Y-63387692D01*
X82347950Y-63569760D01*
X82347947Y-63569770D01*
X82309500Y-63763056D01*
X82309500Y-63763059D01*
X82309500Y-63960141D01*
X82309500Y-63960143D01*
X82309499Y-63960143D01*
X82347947Y-64153429D01*
X82347950Y-64153439D01*
X82423364Y-64335507D01*
X82423371Y-64335520D01*
X82532860Y-64499381D01*
X82532863Y-64499385D01*
X82672214Y-64638736D01*
X82672218Y-64638739D01*
X82836079Y-64748228D01*
X82836092Y-64748235D01*
X83018160Y-64823649D01*
X83018165Y-64823651D01*
X83018169Y-64823651D01*
X83018170Y-64823652D01*
X83211456Y-64862100D01*
X83211459Y-64862100D01*
X83408543Y-64862100D01*
X83538582Y-64836232D01*
X83601835Y-64823651D01*
X83783914Y-64748232D01*
X83947782Y-64638739D01*
X84087139Y-64499382D01*
X84196632Y-64335514D01*
X84272051Y-64153435D01*
X84310500Y-63960141D01*
X84310500Y-63763059D01*
X84310500Y-63763056D01*
X84272052Y-63569770D01*
X84272051Y-63569769D01*
X84272051Y-63569765D01*
X84253050Y-63523892D01*
X84196635Y-63387692D01*
X84196628Y-63387679D01*
X84087139Y-63223818D01*
X84087136Y-63223814D01*
X84075503Y-63212181D01*
X84042018Y-63150858D01*
X84047002Y-63081166D01*
X84088874Y-63025233D01*
X84154338Y-63000816D01*
X84163184Y-63000500D01*
X84996816Y-63000500D01*
X85063855Y-63020185D01*
X85109610Y-63072989D01*
X85119554Y-63142147D01*
X85090529Y-63205703D01*
X85084497Y-63212181D01*
X85072863Y-63223814D01*
X85072860Y-63223818D01*
X84963371Y-63387679D01*
X84963364Y-63387692D01*
X84887950Y-63569760D01*
X84887947Y-63569770D01*
X84849500Y-63763056D01*
X84849500Y-63763059D01*
X84849500Y-63960141D01*
X84849500Y-63960143D01*
X84849499Y-63960143D01*
X84887947Y-64153429D01*
X84887950Y-64153439D01*
X84963364Y-64335507D01*
X84963371Y-64335520D01*
X85072860Y-64499381D01*
X85072863Y-64499385D01*
X85212214Y-64638736D01*
X85212218Y-64638739D01*
X85376079Y-64748228D01*
X85376092Y-64748235D01*
X85558160Y-64823649D01*
X85558165Y-64823651D01*
X85558169Y-64823651D01*
X85558170Y-64823652D01*
X85751456Y-64862100D01*
X85751459Y-64862100D01*
X85948543Y-64862100D01*
X86078582Y-64836232D01*
X86141835Y-64823651D01*
X86323914Y-64748232D01*
X86487782Y-64638739D01*
X86627139Y-64499382D01*
X86736632Y-64335514D01*
X86812051Y-64153435D01*
X86850500Y-63960141D01*
X86850500Y-63763059D01*
X86850500Y-63763056D01*
X86812052Y-63569770D01*
X86812051Y-63569769D01*
X86812051Y-63569765D01*
X86793050Y-63523892D01*
X86736635Y-63387692D01*
X86736628Y-63387679D01*
X86627139Y-63223818D01*
X86627136Y-63223814D01*
X86615503Y-63212181D01*
X86582018Y-63150858D01*
X86587002Y-63081166D01*
X86628874Y-63025233D01*
X86694338Y-63000816D01*
X86703184Y-63000500D01*
X87536816Y-63000500D01*
X87603855Y-63020185D01*
X87649610Y-63072989D01*
X87659554Y-63142147D01*
X87630529Y-63205703D01*
X87624497Y-63212181D01*
X87612863Y-63223814D01*
X87612860Y-63223818D01*
X87503371Y-63387679D01*
X87503364Y-63387692D01*
X87427950Y-63569760D01*
X87427947Y-63569770D01*
X87389500Y-63763056D01*
X87389500Y-63763059D01*
X87389500Y-63960141D01*
X87389500Y-63960143D01*
X87389499Y-63960143D01*
X87427947Y-64153429D01*
X87427950Y-64153439D01*
X87503364Y-64335507D01*
X87503371Y-64335520D01*
X87612860Y-64499381D01*
X87612863Y-64499385D01*
X87752214Y-64638736D01*
X87752218Y-64638739D01*
X87916079Y-64748228D01*
X87916092Y-64748235D01*
X88098160Y-64823649D01*
X88098165Y-64823651D01*
X88098169Y-64823651D01*
X88098170Y-64823652D01*
X88291456Y-64862100D01*
X88291459Y-64862100D01*
X88488543Y-64862100D01*
X88618582Y-64836232D01*
X88681835Y-64823651D01*
X88863914Y-64748232D01*
X89027782Y-64638739D01*
X89167139Y-64499382D01*
X89276632Y-64335514D01*
X89352051Y-64153435D01*
X89390500Y-63960141D01*
X89390500Y-63763059D01*
X89390500Y-63763056D01*
X89352052Y-63569770D01*
X89352051Y-63569769D01*
X89352051Y-63569765D01*
X89333050Y-63523892D01*
X89276635Y-63387692D01*
X89276628Y-63387679D01*
X89167139Y-63223818D01*
X89167136Y-63223814D01*
X89155503Y-63212181D01*
X89122018Y-63150858D01*
X89127002Y-63081166D01*
X89168874Y-63025233D01*
X89234338Y-63000816D01*
X89243184Y-63000500D01*
X90076816Y-63000500D01*
X90143855Y-63020185D01*
X90189610Y-63072989D01*
X90199554Y-63142147D01*
X90170529Y-63205703D01*
X90164497Y-63212181D01*
X90152863Y-63223814D01*
X90152860Y-63223818D01*
X90043371Y-63387679D01*
X90043364Y-63387692D01*
X89967950Y-63569760D01*
X89967947Y-63569770D01*
X89929500Y-63763056D01*
X89929500Y-63763059D01*
X89929500Y-63960141D01*
X89929500Y-63960143D01*
X89929499Y-63960143D01*
X89967947Y-64153429D01*
X89967950Y-64153439D01*
X90043364Y-64335507D01*
X90043371Y-64335520D01*
X90152860Y-64499381D01*
X90152863Y-64499385D01*
X90292214Y-64638736D01*
X90292218Y-64638739D01*
X90456079Y-64748228D01*
X90456092Y-64748235D01*
X90638160Y-64823649D01*
X90638165Y-64823651D01*
X90638169Y-64823651D01*
X90638170Y-64823652D01*
X90831456Y-64862100D01*
X90831459Y-64862100D01*
X91028543Y-64862100D01*
X91158582Y-64836232D01*
X91221835Y-64823651D01*
X91403914Y-64748232D01*
X91567782Y-64638739D01*
X91707139Y-64499382D01*
X91816632Y-64335514D01*
X91892051Y-64153435D01*
X91930500Y-63960141D01*
X91930500Y-63763059D01*
X91930500Y-63763056D01*
X91892052Y-63569770D01*
X91892051Y-63569769D01*
X91892051Y-63569765D01*
X91873050Y-63523892D01*
X91816635Y-63387692D01*
X91816628Y-63387679D01*
X91707139Y-63223818D01*
X91707136Y-63223814D01*
X91695503Y-63212181D01*
X91662018Y-63150858D01*
X91667002Y-63081166D01*
X91708874Y-63025233D01*
X91774338Y-63000816D01*
X91783184Y-63000500D01*
X92616816Y-63000500D01*
X92683855Y-63020185D01*
X92729610Y-63072989D01*
X92739554Y-63142147D01*
X92710529Y-63205703D01*
X92704497Y-63212181D01*
X92692863Y-63223814D01*
X92692860Y-63223818D01*
X92583371Y-63387679D01*
X92583364Y-63387692D01*
X92507950Y-63569760D01*
X92507947Y-63569770D01*
X92469500Y-63763056D01*
X92469500Y-63763059D01*
X92469500Y-63960141D01*
X92469500Y-63960143D01*
X92469499Y-63960143D01*
X92507947Y-64153429D01*
X92507950Y-64153439D01*
X92583364Y-64335507D01*
X92583371Y-64335520D01*
X92692860Y-64499381D01*
X92692863Y-64499385D01*
X92832214Y-64638736D01*
X92832218Y-64638739D01*
X92996079Y-64748228D01*
X92996092Y-64748235D01*
X93178160Y-64823649D01*
X93178165Y-64823651D01*
X93178169Y-64823651D01*
X93178170Y-64823652D01*
X93371456Y-64862100D01*
X93371459Y-64862100D01*
X93568543Y-64862100D01*
X93698582Y-64836232D01*
X93761835Y-64823651D01*
X93943914Y-64748232D01*
X94107782Y-64638739D01*
X94247139Y-64499382D01*
X94356632Y-64335514D01*
X94432051Y-64153435D01*
X94470500Y-63960141D01*
X94470500Y-63763059D01*
X94470500Y-63763056D01*
X94432052Y-63569770D01*
X94432051Y-63569769D01*
X94432051Y-63569765D01*
X94413050Y-63523892D01*
X94356635Y-63387692D01*
X94356628Y-63387679D01*
X94247139Y-63223818D01*
X94247136Y-63223814D01*
X94235503Y-63212181D01*
X94202018Y-63150858D01*
X94207002Y-63081166D01*
X94248874Y-63025233D01*
X94314338Y-63000816D01*
X94323184Y-63000500D01*
X95156816Y-63000500D01*
X95223855Y-63020185D01*
X95269610Y-63072989D01*
X95279554Y-63142147D01*
X95250529Y-63205703D01*
X95244497Y-63212181D01*
X95232863Y-63223814D01*
X95232860Y-63223818D01*
X95123371Y-63387679D01*
X95123364Y-63387692D01*
X95047950Y-63569760D01*
X95047947Y-63569770D01*
X95009500Y-63763056D01*
X95009500Y-63763059D01*
X95009500Y-63960141D01*
X95009500Y-63960143D01*
X95009499Y-63960143D01*
X95047947Y-64153429D01*
X95047950Y-64153439D01*
X95123364Y-64335507D01*
X95123371Y-64335520D01*
X95232860Y-64499381D01*
X95232863Y-64499385D01*
X95372214Y-64638736D01*
X95372218Y-64638739D01*
X95536079Y-64748228D01*
X95536092Y-64748235D01*
X95718160Y-64823649D01*
X95718165Y-64823651D01*
X95718169Y-64823651D01*
X95718170Y-64823652D01*
X95911456Y-64862100D01*
X95911459Y-64862100D01*
X96108543Y-64862100D01*
X96238582Y-64836232D01*
X96301835Y-64823651D01*
X96483914Y-64748232D01*
X96647782Y-64638739D01*
X96787139Y-64499382D01*
X96896632Y-64335514D01*
X96972051Y-64153435D01*
X97010500Y-63960141D01*
X97010500Y-63763059D01*
X97010500Y-63763056D01*
X96972052Y-63569770D01*
X96972051Y-63569769D01*
X96972051Y-63569765D01*
X96953050Y-63523892D01*
X96896635Y-63387692D01*
X96896628Y-63387679D01*
X96787139Y-63223818D01*
X96787136Y-63223814D01*
X96775503Y-63212181D01*
X96742018Y-63150858D01*
X96747002Y-63081166D01*
X96788874Y-63025233D01*
X96854338Y-63000816D01*
X96863184Y-63000500D01*
X97696816Y-63000500D01*
X97763855Y-63020185D01*
X97809610Y-63072989D01*
X97819554Y-63142147D01*
X97790529Y-63205703D01*
X97784497Y-63212181D01*
X97772863Y-63223814D01*
X97772860Y-63223818D01*
X97663371Y-63387679D01*
X97663364Y-63387692D01*
X97587950Y-63569760D01*
X97587947Y-63569770D01*
X97549500Y-63763056D01*
X97549500Y-63763059D01*
X97549500Y-63960141D01*
X97549500Y-63960143D01*
X97549499Y-63960143D01*
X97587947Y-64153429D01*
X97587950Y-64153439D01*
X97663364Y-64335507D01*
X97663371Y-64335520D01*
X97772860Y-64499381D01*
X97772863Y-64499385D01*
X97912214Y-64638736D01*
X97912218Y-64638739D01*
X98076079Y-64748228D01*
X98076092Y-64748235D01*
X98258160Y-64823649D01*
X98258165Y-64823651D01*
X98258169Y-64823651D01*
X98258170Y-64823652D01*
X98451456Y-64862100D01*
X98451459Y-64862100D01*
X98648543Y-64862100D01*
X98778582Y-64836232D01*
X98841835Y-64823651D01*
X99023914Y-64748232D01*
X99187782Y-64638739D01*
X99187785Y-64638736D01*
X99236241Y-64590281D01*
X99327136Y-64499385D01*
X99327137Y-64499384D01*
X99327139Y-64499382D01*
X99436632Y-64335514D01*
X99512051Y-64153435D01*
X99550500Y-63960141D01*
X99550500Y-63763059D01*
X99550500Y-63763056D01*
X99512052Y-63569770D01*
X99512051Y-63569769D01*
X99512051Y-63569765D01*
X99493050Y-63523892D01*
X99436635Y-63387692D01*
X99436628Y-63387679D01*
X99327139Y-63223818D01*
X99327136Y-63223814D01*
X99315503Y-63212181D01*
X99282018Y-63150858D01*
X99287002Y-63081166D01*
X99328874Y-63025233D01*
X99394338Y-63000816D01*
X99403184Y-63000500D01*
X100531091Y-63000500D01*
X100598130Y-63020185D01*
X100618772Y-63036819D01*
X100919766Y-63337812D01*
X100877708Y-63349082D01*
X100752292Y-63421490D01*
X100649890Y-63523892D01*
X100577482Y-63649308D01*
X100566212Y-63691365D01*
X100227426Y-63352578D01*
X100227426Y-63352579D01*
X100203813Y-63387918D01*
X100203809Y-63387925D01*
X100128429Y-63569910D01*
X100128427Y-63569918D01*
X100090000Y-63763104D01*
X100090000Y-63960095D01*
X100128427Y-64153281D01*
X100128430Y-64153293D01*
X100203808Y-64335273D01*
X100203809Y-64335275D01*
X100227425Y-64370619D01*
X100566212Y-64031833D01*
X100577482Y-64073892D01*
X100649890Y-64199308D01*
X100752292Y-64301710D01*
X100877708Y-64374118D01*
X100919765Y-64385387D01*
X100580979Y-64724172D01*
X100616328Y-64747792D01*
X100798306Y-64823169D01*
X100798318Y-64823172D01*
X100991504Y-64861599D01*
X100991508Y-64861600D01*
X101188492Y-64861600D01*
X101188495Y-64861599D01*
X101381681Y-64823172D01*
X101381693Y-64823169D01*
X101563676Y-64747790D01*
X101563680Y-64747787D01*
X101599019Y-64724173D01*
X101599020Y-64724172D01*
X101260235Y-64385387D01*
X101302292Y-64374118D01*
X101427708Y-64301710D01*
X101530110Y-64199308D01*
X101602518Y-64073892D01*
X101613787Y-64031835D01*
X101952572Y-64370620D01*
X101952573Y-64370619D01*
X101976187Y-64335280D01*
X101976190Y-64335276D01*
X102051569Y-64153293D01*
X102051572Y-64153281D01*
X102089999Y-63960095D01*
X102090000Y-63960092D01*
X102090000Y-63763108D01*
X102089999Y-63763104D01*
X102051572Y-63569918D01*
X102051569Y-63569906D01*
X101976192Y-63387928D01*
X101952572Y-63352579D01*
X101613787Y-63691364D01*
X101602518Y-63649308D01*
X101530110Y-63523892D01*
X101427708Y-63421490D01*
X101302292Y-63349082D01*
X101260233Y-63337812D01*
X101561228Y-63036819D01*
X101622551Y-63003334D01*
X101648909Y-63000500D01*
X102776816Y-63000500D01*
X102843855Y-63020185D01*
X102889610Y-63072989D01*
X102899554Y-63142147D01*
X102870529Y-63205703D01*
X102864497Y-63212181D01*
X102852863Y-63223814D01*
X102852860Y-63223818D01*
X102743371Y-63387679D01*
X102743364Y-63387692D01*
X102667950Y-63569760D01*
X102667947Y-63569770D01*
X102629500Y-63763056D01*
X102629500Y-63763059D01*
X102629500Y-63960141D01*
X102629500Y-63960143D01*
X102629499Y-63960143D01*
X102667947Y-64153429D01*
X102667950Y-64153439D01*
X102743364Y-64335507D01*
X102743371Y-64335520D01*
X102852860Y-64499381D01*
X102852863Y-64499385D01*
X102992214Y-64638736D01*
X102992218Y-64638739D01*
X103156079Y-64748228D01*
X103156092Y-64748235D01*
X103338160Y-64823649D01*
X103338165Y-64823651D01*
X103338169Y-64823651D01*
X103338170Y-64823652D01*
X103531456Y-64862100D01*
X103531459Y-64862100D01*
X103728543Y-64862100D01*
X103858582Y-64836232D01*
X103921835Y-64823651D01*
X104103914Y-64748232D01*
X104267782Y-64638739D01*
X104407139Y-64499382D01*
X104516632Y-64335514D01*
X104592051Y-64153435D01*
X104630500Y-63960141D01*
X104630500Y-63763059D01*
X104630500Y-63763056D01*
X104592052Y-63569770D01*
X104592051Y-63569769D01*
X104592051Y-63569765D01*
X104573050Y-63523892D01*
X104516635Y-63387692D01*
X104516628Y-63387679D01*
X104407139Y-63223818D01*
X104407136Y-63223814D01*
X104395503Y-63212181D01*
X104362018Y-63150858D01*
X104367002Y-63081166D01*
X104408874Y-63025233D01*
X104474338Y-63000816D01*
X104483184Y-63000500D01*
X105316816Y-63000500D01*
X105383855Y-63020185D01*
X105429610Y-63072989D01*
X105439554Y-63142147D01*
X105410529Y-63205703D01*
X105404497Y-63212181D01*
X105392863Y-63223814D01*
X105392860Y-63223818D01*
X105283371Y-63387679D01*
X105283364Y-63387692D01*
X105207950Y-63569760D01*
X105207947Y-63569770D01*
X105169500Y-63763056D01*
X105169500Y-63763059D01*
X105169500Y-63960141D01*
X105169500Y-63960143D01*
X105169499Y-63960143D01*
X105207947Y-64153429D01*
X105207950Y-64153439D01*
X105283364Y-64335507D01*
X105283371Y-64335520D01*
X105392860Y-64499381D01*
X105392863Y-64499385D01*
X105532214Y-64638736D01*
X105532218Y-64638739D01*
X105696079Y-64748228D01*
X105696092Y-64748235D01*
X105878160Y-64823649D01*
X105878165Y-64823651D01*
X105878169Y-64823651D01*
X105878170Y-64823652D01*
X106071456Y-64862100D01*
X106071459Y-64862100D01*
X106268543Y-64862100D01*
X106398582Y-64836232D01*
X106461835Y-64823651D01*
X106643914Y-64748232D01*
X106807782Y-64638739D01*
X106947139Y-64499382D01*
X107056632Y-64335514D01*
X107132051Y-64153435D01*
X107170500Y-63960141D01*
X107170500Y-63763059D01*
X107170500Y-63763056D01*
X107132052Y-63569770D01*
X107132051Y-63569769D01*
X107132051Y-63569765D01*
X107113050Y-63523892D01*
X107056635Y-63387692D01*
X107056628Y-63387679D01*
X106947139Y-63223818D01*
X106947136Y-63223814D01*
X106935503Y-63212181D01*
X106902018Y-63150858D01*
X106907002Y-63081166D01*
X106948874Y-63025233D01*
X107014338Y-63000816D01*
X107023184Y-63000500D01*
X107856816Y-63000500D01*
X107923855Y-63020185D01*
X107969610Y-63072989D01*
X107979554Y-63142147D01*
X107950529Y-63205703D01*
X107944497Y-63212181D01*
X107932863Y-63223814D01*
X107932860Y-63223818D01*
X107823371Y-63387679D01*
X107823364Y-63387692D01*
X107747950Y-63569760D01*
X107747947Y-63569770D01*
X107709500Y-63763056D01*
X107709500Y-63763059D01*
X107709500Y-63960141D01*
X107709500Y-63960143D01*
X107709499Y-63960143D01*
X107747947Y-64153429D01*
X107747950Y-64153439D01*
X107823364Y-64335507D01*
X107823371Y-64335520D01*
X107932860Y-64499381D01*
X107932863Y-64499385D01*
X108072214Y-64638736D01*
X108072218Y-64638739D01*
X108236079Y-64748228D01*
X108236092Y-64748235D01*
X108418160Y-64823649D01*
X108418165Y-64823651D01*
X108418169Y-64823651D01*
X108418170Y-64823652D01*
X108611456Y-64862100D01*
X108611459Y-64862100D01*
X108808543Y-64862100D01*
X108938582Y-64836232D01*
X109001835Y-64823651D01*
X109183914Y-64748232D01*
X109347782Y-64638739D01*
X109487139Y-64499382D01*
X109596632Y-64335514D01*
X109672051Y-64153435D01*
X109710500Y-63960141D01*
X109710500Y-63763059D01*
X109710500Y-63763056D01*
X109672052Y-63569770D01*
X109672051Y-63569769D01*
X109672051Y-63569765D01*
X109653050Y-63523892D01*
X109596635Y-63387692D01*
X109596628Y-63387679D01*
X109487139Y-63223818D01*
X109487136Y-63223814D01*
X109475503Y-63212181D01*
X109442018Y-63150858D01*
X109447002Y-63081166D01*
X109488874Y-63025233D01*
X109554338Y-63000816D01*
X109563184Y-63000500D01*
X110396816Y-63000500D01*
X110463855Y-63020185D01*
X110509610Y-63072989D01*
X110519554Y-63142147D01*
X110490529Y-63205703D01*
X110484497Y-63212181D01*
X110472863Y-63223814D01*
X110472860Y-63223818D01*
X110363371Y-63387679D01*
X110363364Y-63387692D01*
X110287950Y-63569760D01*
X110287947Y-63569770D01*
X110249500Y-63763056D01*
X110249500Y-63763059D01*
X110249500Y-63960141D01*
X110249500Y-63960143D01*
X110249499Y-63960143D01*
X110287947Y-64153429D01*
X110287950Y-64153439D01*
X110363364Y-64335507D01*
X110363371Y-64335520D01*
X110472860Y-64499381D01*
X110472863Y-64499385D01*
X110612214Y-64638736D01*
X110612218Y-64638739D01*
X110776079Y-64748228D01*
X110776092Y-64748235D01*
X110958160Y-64823649D01*
X110958165Y-64823651D01*
X110958169Y-64823651D01*
X110958170Y-64823652D01*
X111151456Y-64862100D01*
X111151459Y-64862100D01*
X111348543Y-64862100D01*
X111478582Y-64836232D01*
X111541835Y-64823651D01*
X111723914Y-64748232D01*
X111887782Y-64638739D01*
X112027139Y-64499382D01*
X112136632Y-64335514D01*
X112212051Y-64153435D01*
X112250500Y-63960141D01*
X112250500Y-63763059D01*
X112250500Y-63763056D01*
X112212052Y-63569770D01*
X112212051Y-63569769D01*
X112212051Y-63569765D01*
X112193050Y-63523892D01*
X112136635Y-63387692D01*
X112136628Y-63387679D01*
X112027139Y-63223818D01*
X112027136Y-63223814D01*
X112015503Y-63212181D01*
X111982018Y-63150858D01*
X111987002Y-63081166D01*
X112028874Y-63025233D01*
X112094338Y-63000816D01*
X112103184Y-63000500D01*
X112936816Y-63000500D01*
X113003855Y-63020185D01*
X113049610Y-63072989D01*
X113059554Y-63142147D01*
X113030529Y-63205703D01*
X113024497Y-63212181D01*
X113012863Y-63223814D01*
X113012860Y-63223818D01*
X112903371Y-63387679D01*
X112903364Y-63387692D01*
X112827950Y-63569760D01*
X112827947Y-63569770D01*
X112789500Y-63763056D01*
X112789500Y-63763059D01*
X112789500Y-63960141D01*
X112789500Y-63960143D01*
X112789499Y-63960143D01*
X112827947Y-64153429D01*
X112827950Y-64153439D01*
X112903364Y-64335507D01*
X112903371Y-64335520D01*
X113012860Y-64499381D01*
X113012863Y-64499385D01*
X113152214Y-64638736D01*
X113152218Y-64638739D01*
X113316079Y-64748228D01*
X113316092Y-64748235D01*
X113498160Y-64823649D01*
X113498165Y-64823651D01*
X113498169Y-64823651D01*
X113498170Y-64823652D01*
X113691456Y-64862100D01*
X113691459Y-64862100D01*
X113888543Y-64862100D01*
X114018582Y-64836232D01*
X114081835Y-64823651D01*
X114263914Y-64748232D01*
X114427782Y-64638739D01*
X114567139Y-64499382D01*
X114676632Y-64335514D01*
X114752051Y-64153435D01*
X114790500Y-63960141D01*
X114790500Y-63763059D01*
X114790500Y-63763056D01*
X114752052Y-63569770D01*
X114752051Y-63569769D01*
X114752051Y-63569765D01*
X114733050Y-63523892D01*
X114676635Y-63387692D01*
X114676628Y-63387679D01*
X114567139Y-63223818D01*
X114567136Y-63223814D01*
X114555503Y-63212181D01*
X114522018Y-63150858D01*
X114527002Y-63081166D01*
X114568874Y-63025233D01*
X114634338Y-63000816D01*
X114643184Y-63000500D01*
X115476816Y-63000500D01*
X115543855Y-63020185D01*
X115589610Y-63072989D01*
X115599554Y-63142147D01*
X115570529Y-63205703D01*
X115564497Y-63212181D01*
X115552863Y-63223814D01*
X115552860Y-63223818D01*
X115443371Y-63387679D01*
X115443364Y-63387692D01*
X115367950Y-63569760D01*
X115367947Y-63569770D01*
X115329500Y-63763056D01*
X115329500Y-63763059D01*
X115329500Y-63960141D01*
X115329500Y-63960143D01*
X115329499Y-63960143D01*
X115367947Y-64153429D01*
X115367950Y-64153439D01*
X115443364Y-64335507D01*
X115443371Y-64335520D01*
X115552860Y-64499381D01*
X115552863Y-64499385D01*
X115692214Y-64638736D01*
X115692218Y-64638739D01*
X115856079Y-64748228D01*
X115856092Y-64748235D01*
X116038160Y-64823649D01*
X116038165Y-64823651D01*
X116038169Y-64823651D01*
X116038170Y-64823652D01*
X116231456Y-64862100D01*
X116231459Y-64862100D01*
X116428543Y-64862100D01*
X116558582Y-64836232D01*
X116621835Y-64823651D01*
X116803914Y-64748232D01*
X116967782Y-64638739D01*
X117107139Y-64499382D01*
X117216632Y-64335514D01*
X117292051Y-64153435D01*
X117330500Y-63960141D01*
X117330500Y-63763059D01*
X117330500Y-63763056D01*
X117292052Y-63569770D01*
X117292051Y-63569769D01*
X117292051Y-63569765D01*
X117273050Y-63523892D01*
X117216635Y-63387692D01*
X117216628Y-63387679D01*
X117107139Y-63223818D01*
X117107136Y-63223814D01*
X117095503Y-63212181D01*
X117062018Y-63150858D01*
X117067002Y-63081166D01*
X117108874Y-63025233D01*
X117174338Y-63000816D01*
X117183184Y-63000500D01*
X118016816Y-63000500D01*
X118083855Y-63020185D01*
X118129610Y-63072989D01*
X118139554Y-63142147D01*
X118110529Y-63205703D01*
X118104497Y-63212181D01*
X118092863Y-63223814D01*
X118092860Y-63223818D01*
X117983371Y-63387679D01*
X117983364Y-63387692D01*
X117907950Y-63569760D01*
X117907947Y-63569770D01*
X117869500Y-63763056D01*
X117869500Y-63763059D01*
X117869500Y-63960141D01*
X117869500Y-63960143D01*
X117869499Y-63960143D01*
X117907947Y-64153429D01*
X117907950Y-64153439D01*
X117983364Y-64335507D01*
X117983371Y-64335520D01*
X118092860Y-64499381D01*
X118092863Y-64499385D01*
X118232214Y-64638736D01*
X118232218Y-64638739D01*
X118396079Y-64748228D01*
X118396092Y-64748235D01*
X118578160Y-64823649D01*
X118578165Y-64823651D01*
X118578169Y-64823651D01*
X118578170Y-64823652D01*
X118771456Y-64862100D01*
X118771459Y-64862100D01*
X118968543Y-64862100D01*
X119098582Y-64836232D01*
X119161835Y-64823651D01*
X119343914Y-64748232D01*
X119507782Y-64638739D01*
X119647139Y-64499382D01*
X119756632Y-64335514D01*
X119832051Y-64153435D01*
X119870500Y-63960141D01*
X119870500Y-63763059D01*
X119870500Y-63763056D01*
X119832052Y-63569770D01*
X119832051Y-63569769D01*
X119832051Y-63569765D01*
X119813050Y-63523892D01*
X119756635Y-63387692D01*
X119756628Y-63387679D01*
X119647139Y-63223818D01*
X119647136Y-63223814D01*
X119635503Y-63212181D01*
X119602018Y-63150858D01*
X119607002Y-63081166D01*
X119648874Y-63025233D01*
X119714338Y-63000816D01*
X119723184Y-63000500D01*
X120556816Y-63000500D01*
X120623855Y-63020185D01*
X120669610Y-63072989D01*
X120679554Y-63142147D01*
X120650529Y-63205703D01*
X120644497Y-63212181D01*
X120632863Y-63223814D01*
X120632860Y-63223818D01*
X120523371Y-63387679D01*
X120523364Y-63387692D01*
X120447950Y-63569760D01*
X120447947Y-63569770D01*
X120409500Y-63763056D01*
X120409500Y-63763059D01*
X120409500Y-63960141D01*
X120409500Y-63960143D01*
X120409499Y-63960143D01*
X120447947Y-64153429D01*
X120447950Y-64153439D01*
X120523364Y-64335507D01*
X120523371Y-64335520D01*
X120632860Y-64499381D01*
X120632863Y-64499385D01*
X120772214Y-64638736D01*
X120772218Y-64638739D01*
X120936079Y-64748228D01*
X120936092Y-64748235D01*
X121118160Y-64823649D01*
X121118165Y-64823651D01*
X121118169Y-64823651D01*
X121118170Y-64823652D01*
X121311456Y-64862100D01*
X121311459Y-64862100D01*
X121508543Y-64862100D01*
X121638582Y-64836232D01*
X121701835Y-64823651D01*
X121883914Y-64748232D01*
X122047782Y-64638739D01*
X122187139Y-64499382D01*
X122296632Y-64335514D01*
X122372051Y-64153435D01*
X122410500Y-63960141D01*
X122410500Y-63763059D01*
X122410500Y-63763056D01*
X122372052Y-63569770D01*
X122372051Y-63569769D01*
X122372051Y-63569765D01*
X122353050Y-63523892D01*
X122296635Y-63387692D01*
X122296628Y-63387679D01*
X122187139Y-63223818D01*
X122187136Y-63223814D01*
X122175503Y-63212181D01*
X122142018Y-63150858D01*
X122147002Y-63081166D01*
X122188874Y-63025233D01*
X122254338Y-63000816D01*
X122263184Y-63000500D01*
X123096816Y-63000500D01*
X123163855Y-63020185D01*
X123209610Y-63072989D01*
X123219554Y-63142147D01*
X123190529Y-63205703D01*
X123184497Y-63212181D01*
X123172863Y-63223814D01*
X123172860Y-63223818D01*
X123063371Y-63387679D01*
X123063364Y-63387692D01*
X122987950Y-63569760D01*
X122987947Y-63569770D01*
X122949500Y-63763056D01*
X122949500Y-63763059D01*
X122949500Y-63960141D01*
X122949500Y-63960143D01*
X122949499Y-63960143D01*
X122987947Y-64153429D01*
X122987950Y-64153439D01*
X123063364Y-64335507D01*
X123063371Y-64335520D01*
X123172860Y-64499381D01*
X123172863Y-64499385D01*
X123312214Y-64638736D01*
X123312218Y-64638739D01*
X123476079Y-64748228D01*
X123476092Y-64748235D01*
X123658160Y-64823649D01*
X123658165Y-64823651D01*
X123658169Y-64823651D01*
X123658170Y-64823652D01*
X123851456Y-64862100D01*
X123851459Y-64862100D01*
X124048543Y-64862100D01*
X124178582Y-64836232D01*
X124241835Y-64823651D01*
X124423914Y-64748232D01*
X124587782Y-64638739D01*
X124587785Y-64638736D01*
X124637819Y-64588703D01*
X124699142Y-64555218D01*
X124768834Y-64560202D01*
X124824767Y-64602074D01*
X124849184Y-64667538D01*
X124849500Y-64676384D01*
X124849500Y-78286816D01*
X124829815Y-78353855D01*
X124777011Y-78399610D01*
X124707853Y-78409554D01*
X124644297Y-78380529D01*
X124637819Y-78374497D01*
X124587785Y-78324463D01*
X124587781Y-78324460D01*
X124423920Y-78214971D01*
X124423907Y-78214964D01*
X124241839Y-78139550D01*
X124241829Y-78139547D01*
X124048543Y-78101100D01*
X124048541Y-78101100D01*
X123851459Y-78101100D01*
X123851457Y-78101100D01*
X123658170Y-78139547D01*
X123658160Y-78139550D01*
X123476092Y-78214964D01*
X123476079Y-78214971D01*
X123312218Y-78324460D01*
X123312214Y-78324463D01*
X123172863Y-78463814D01*
X123172860Y-78463818D01*
X123063371Y-78627679D01*
X123063364Y-78627692D01*
X122987950Y-78809760D01*
X122987947Y-78809770D01*
X122949500Y-79003056D01*
X122949500Y-79003059D01*
X122949500Y-79200141D01*
X122949500Y-79200143D01*
X122949499Y-79200143D01*
X122987947Y-79393429D01*
X122987950Y-79393439D01*
X123063364Y-79575507D01*
X123063371Y-79575520D01*
X123172860Y-79739381D01*
X123172863Y-79739385D01*
X123312214Y-79878736D01*
X123312218Y-79878739D01*
X123476079Y-79988228D01*
X123476092Y-79988235D01*
X123626188Y-80050406D01*
X123658165Y-80063651D01*
X123658169Y-80063651D01*
X123658170Y-80063652D01*
X123851456Y-80102100D01*
X123851459Y-80102100D01*
X124048543Y-80102100D01*
X124198887Y-80072194D01*
X124241835Y-80063651D01*
X124423914Y-79988232D01*
X124587782Y-79878739D01*
X124587785Y-79878736D01*
X124637819Y-79828703D01*
X124699142Y-79795218D01*
X124768834Y-79800202D01*
X124824767Y-79842074D01*
X124849184Y-79907538D01*
X124849500Y-79916384D01*
X124849500Y-102763161D01*
X124829815Y-102830200D01*
X124777011Y-102875955D01*
X124725500Y-102887161D01*
X118124000Y-102887161D01*
X118056961Y-102867476D01*
X118011206Y-102814672D01*
X118000000Y-102763161D01*
X118000000Y-95100000D01*
X109500000Y-95100000D01*
X109500000Y-102763161D01*
X109480315Y-102830200D01*
X109427511Y-102875955D01*
X109376000Y-102887161D01*
X64624500Y-102887161D01*
X64557461Y-102867476D01*
X64511706Y-102814672D01*
X64500500Y-102763161D01*
X64500500Y-93304315D01*
X66700000Y-93304315D01*
X66700000Y-94250000D01*
X67472769Y-94250000D01*
X67450000Y-94393753D01*
X67450000Y-94606247D01*
X67472769Y-94750000D01*
X66700000Y-94750000D01*
X66700000Y-95695684D01*
X66710183Y-95810231D01*
X66710184Y-95810234D01*
X66763894Y-95997946D01*
X66854292Y-96171004D01*
X66977676Y-96322323D01*
X67128995Y-96445707D01*
X67302053Y-96536105D01*
X67489765Y-96589815D01*
X67489768Y-96589816D01*
X67604315Y-96599999D01*
X67604318Y-96600000D01*
X68550000Y-96600000D01*
X68550000Y-95827231D01*
X68693753Y-95850000D01*
X68906247Y-95850000D01*
X69050000Y-95827231D01*
X69050000Y-96600000D01*
X69995682Y-96600000D01*
X69995684Y-96599999D01*
X70110231Y-96589816D01*
X70110234Y-96589815D01*
X70297946Y-96536105D01*
X70471004Y-96445707D01*
X70622323Y-96322323D01*
X70745707Y-96171004D01*
X70836105Y-95997946D01*
X70889815Y-95810234D01*
X70889816Y-95810231D01*
X70899999Y-95695684D01*
X70900000Y-95695682D01*
X70900000Y-94750000D01*
X70127231Y-94750000D01*
X70150000Y-94606247D01*
X70150000Y-94393753D01*
X70143985Y-94355778D01*
X71599500Y-94355778D01*
X71599500Y-94644221D01*
X71599501Y-94644238D01*
X71637149Y-94930206D01*
X71637150Y-94930211D01*
X71637151Y-94930217D01*
X71706051Y-95187354D01*
X71711809Y-95208844D01*
X71711814Y-95208860D01*
X71822191Y-95475336D01*
X71822199Y-95475352D01*
X71966420Y-95725148D01*
X71966431Y-95725164D01*
X72142024Y-95954002D01*
X72142030Y-95954009D01*
X72345990Y-96157969D01*
X72345997Y-96157975D01*
X72380757Y-96184647D01*
X72574844Y-96333575D01*
X72574851Y-96333579D01*
X72824647Y-96477800D01*
X72824663Y-96477808D01*
X73091139Y-96588185D01*
X73091145Y-96588186D01*
X73091155Y-96588191D01*
X73369783Y-96662849D01*
X73655772Y-96700500D01*
X73655779Y-96700500D01*
X73944221Y-96700500D01*
X73944228Y-96700500D01*
X74230217Y-96662849D01*
X74508845Y-96588191D01*
X74508857Y-96588185D01*
X74508860Y-96588185D01*
X74775336Y-96477808D01*
X74775339Y-96477806D01*
X74775345Y-96477804D01*
X75025156Y-96333575D01*
X75254004Y-96157974D01*
X75282782Y-96129196D01*
X82875001Y-96129196D01*
X82877851Y-96159606D01*
X82922653Y-96287645D01*
X83003207Y-96396792D01*
X83112354Y-96477346D01*
X83240397Y-96522149D01*
X83270792Y-96524999D01*
X83549999Y-96524999D01*
X84050000Y-96524999D01*
X84329196Y-96524999D01*
X84359606Y-96522148D01*
X84487645Y-96477346D01*
X84596792Y-96396792D01*
X84677346Y-96287645D01*
X84722149Y-96159604D01*
X84722149Y-96159600D01*
X84725000Y-96129206D01*
X84725000Y-95987500D01*
X84050000Y-95987500D01*
X84050000Y-96524999D01*
X83549999Y-96524999D01*
X83550000Y-96524998D01*
X83550000Y-95987500D01*
X82875001Y-95987500D01*
X82875001Y-96129196D01*
X75282782Y-96129196D01*
X75457974Y-95954004D01*
X75491979Y-95909686D01*
X75529606Y-95860652D01*
X75609797Y-95756144D01*
X75633575Y-95725156D01*
X75777804Y-95475345D01*
X75831466Y-95345793D01*
X82875000Y-95345793D01*
X82875000Y-95487500D01*
X83550000Y-95487500D01*
X84050000Y-95487500D01*
X84724999Y-95487500D01*
X84724999Y-95345803D01*
X84722148Y-95315393D01*
X84677346Y-95187354D01*
X84596792Y-95078207D01*
X84487645Y-94997653D01*
X84359602Y-94952850D01*
X84329207Y-94950000D01*
X84050000Y-94950000D01*
X84050000Y-95487500D01*
X83550000Y-95487500D01*
X83550000Y-94950000D01*
X83270804Y-94950000D01*
X83240393Y-94952851D01*
X83112354Y-94997653D01*
X83003207Y-95078207D01*
X82922653Y-95187354D01*
X82877850Y-95315395D01*
X82877850Y-95315399D01*
X82875000Y-95345793D01*
X75831466Y-95345793D01*
X75852321Y-95295445D01*
X75852321Y-95295443D01*
X75888185Y-95208860D01*
X75888185Y-95208857D01*
X75888191Y-95208845D01*
X75962849Y-94930217D01*
X76000500Y-94644228D01*
X76000500Y-94355772D01*
X75998514Y-94340685D01*
X76009280Y-94271650D01*
X76055660Y-94219394D01*
X76121453Y-94200500D01*
X82850471Y-94200500D01*
X82917510Y-94220185D01*
X82950241Y-94250867D01*
X83002848Y-94322148D01*
X83002849Y-94322148D01*
X83002850Y-94322150D01*
X83112118Y-94402793D01*
X83150353Y-94416172D01*
X83240299Y-94447646D01*
X83270730Y-94450500D01*
X83270734Y-94450500D01*
X84329270Y-94450500D01*
X84359699Y-94447646D01*
X84359701Y-94447646D01*
X84423790Y-94425219D01*
X84487882Y-94402793D01*
X84597150Y-94322150D01*
X84603631Y-94313367D01*
X84659277Y-94271116D01*
X84703402Y-94263000D01*
X85255680Y-94263000D01*
X85322719Y-94282685D01*
X85368474Y-94335489D01*
X85370237Y-94339539D01*
X85422302Y-94465233D01*
X85514549Y-94585451D01*
X85634767Y-94677698D01*
X85774764Y-94735687D01*
X85887280Y-94750500D01*
X86599903Y-94750500D01*
X86666942Y-94770185D01*
X86687583Y-94786818D01*
X88156284Y-96255520D01*
X88293215Y-96334577D01*
X88445943Y-96375501D01*
X88445946Y-96375501D01*
X88611654Y-96375501D01*
X88611670Y-96375500D01*
X105388331Y-96375500D01*
X105388347Y-96375501D01*
X105395943Y-96375501D01*
X105554054Y-96375501D01*
X105554057Y-96375501D01*
X105706785Y-96334577D01*
X105756904Y-96305639D01*
X105843716Y-96255520D01*
X105955520Y-96143716D01*
X105955520Y-96143714D01*
X105965728Y-96133507D01*
X105965729Y-96133504D01*
X108517416Y-93581819D01*
X108578739Y-93548334D01*
X108605097Y-93545500D01*
X111629005Y-93545500D01*
X111696044Y-93565185D01*
X111741799Y-93617989D01*
X111751743Y-93687147D01*
X111722718Y-93750703D01*
X111701058Y-93770418D01*
X111693513Y-93775804D01*
X111610803Y-93858514D01*
X111559426Y-93963608D01*
X111549500Y-94031739D01*
X111549500Y-94398260D01*
X111559426Y-94466391D01*
X111610803Y-94571485D01*
X111693514Y-94654196D01*
X111693515Y-94654196D01*
X111693517Y-94654198D01*
X111798607Y-94705573D01*
X111832673Y-94710536D01*
X111866739Y-94715500D01*
X111866740Y-94715500D01*
X113533261Y-94715500D01*
X113555971Y-94712191D01*
X113601393Y-94705573D01*
X113706483Y-94654198D01*
X113789198Y-94571483D01*
X113840573Y-94466393D01*
X113850500Y-94398260D01*
X113850500Y-94031740D01*
X113840573Y-93963607D01*
X113789198Y-93858517D01*
X113789196Y-93858515D01*
X113789196Y-93858514D01*
X113706486Y-93775804D01*
X113698942Y-93770418D01*
X113655820Y-93715443D01*
X113649265Y-93645882D01*
X113681358Y-93583819D01*
X113741911Y-93548959D01*
X113770995Y-93545500D01*
X113934055Y-93545500D01*
X113934057Y-93545500D01*
X114086784Y-93504577D01*
X114223716Y-93425520D01*
X114335520Y-93313716D01*
X114414577Y-93176784D01*
X114455500Y-93024057D01*
X114455500Y-92865943D01*
X114414577Y-92713216D01*
X114404060Y-92694999D01*
X114335524Y-92576290D01*
X114335518Y-92576282D01*
X114223717Y-92464481D01*
X114223709Y-92464475D01*
X114086790Y-92385426D01*
X114086786Y-92385424D01*
X114086784Y-92385423D01*
X113934057Y-92344500D01*
X113770995Y-92344500D01*
X113703956Y-92324815D01*
X113658201Y-92272011D01*
X113648257Y-92202853D01*
X113677282Y-92139297D01*
X113698942Y-92119582D01*
X113706479Y-92114199D01*
X113706483Y-92114198D01*
X113789198Y-92031483D01*
X113840573Y-91926393D01*
X113850500Y-91858260D01*
X113850500Y-91491740D01*
X113840573Y-91423607D01*
X113789198Y-91318517D01*
X113789196Y-91318515D01*
X113789196Y-91318514D01*
X113706485Y-91235803D01*
X113601391Y-91184426D01*
X113533261Y-91174500D01*
X113533260Y-91174500D01*
X111866740Y-91174500D01*
X111866739Y-91174500D01*
X111798608Y-91184426D01*
X111693514Y-91235803D01*
X111610803Y-91318514D01*
X111559426Y-91423608D01*
X111549500Y-91491739D01*
X111549500Y-91858260D01*
X111559426Y-91926391D01*
X111610803Y-92031485D01*
X111693513Y-92114195D01*
X111701058Y-92119582D01*
X111744180Y-92174557D01*
X111750735Y-92244118D01*
X111718642Y-92306181D01*
X111658089Y-92341041D01*
X111629005Y-92344500D01*
X108225940Y-92344500D01*
X108185019Y-92355464D01*
X108185019Y-92355465D01*
X108147751Y-92365451D01*
X108073214Y-92385423D01*
X108073209Y-92385426D01*
X107936290Y-92464475D01*
X107936282Y-92464481D01*
X107878573Y-92522191D01*
X107824480Y-92576284D01*
X107824478Y-92576286D01*
X106542248Y-93858517D01*
X105262584Y-95138181D01*
X105201261Y-95171666D01*
X105174903Y-95174500D01*
X88825098Y-95174500D01*
X88758059Y-95154815D01*
X88737417Y-95138181D01*
X87786819Y-94187583D01*
X87772115Y-94160655D01*
X87755523Y-94134837D01*
X87754631Y-94128636D01*
X87753334Y-94126260D01*
X87750500Y-94099902D01*
X87750500Y-94031739D01*
X102349500Y-94031739D01*
X102349500Y-94398260D01*
X102359426Y-94466391D01*
X102410803Y-94571485D01*
X102493514Y-94654196D01*
X102493515Y-94654196D01*
X102493517Y-94654198D01*
X102598607Y-94705573D01*
X102632673Y-94710536D01*
X102666739Y-94715500D01*
X102666740Y-94715500D01*
X104333261Y-94715500D01*
X104355971Y-94712191D01*
X104401393Y-94705573D01*
X104506483Y-94654198D01*
X104589198Y-94571483D01*
X104640573Y-94466393D01*
X104650500Y-94398260D01*
X104650500Y-94031740D01*
X104640573Y-93963607D01*
X104589198Y-93858517D01*
X104589196Y-93858515D01*
X104589196Y-93858514D01*
X104506485Y-93775803D01*
X104401391Y-93724426D01*
X104333261Y-93714500D01*
X104333260Y-93714500D01*
X102666740Y-93714500D01*
X102666739Y-93714500D01*
X102598608Y-93724426D01*
X102493514Y-93775803D01*
X102410803Y-93858514D01*
X102359426Y-93963608D01*
X102349500Y-94031739D01*
X87750500Y-94031739D01*
X87750500Y-93387286D01*
X87750499Y-93387272D01*
X87743642Y-93335188D01*
X87735687Y-93274764D01*
X87677698Y-93134767D01*
X87585451Y-93014549D01*
X87465233Y-92922302D01*
X87465229Y-92922300D01*
X87401801Y-92896027D01*
X87325236Y-92864313D01*
X87311171Y-92862461D01*
X87212727Y-92849500D01*
X87212720Y-92849500D01*
X85887280Y-92849500D01*
X85887272Y-92849500D01*
X85774764Y-92864313D01*
X85774763Y-92864313D01*
X85634770Y-92922300D01*
X85634767Y-92922301D01*
X85634767Y-92922302D01*
X85590052Y-92956613D01*
X85514542Y-93014554D01*
X85508798Y-93020299D01*
X85507631Y-93019132D01*
X85458934Y-93054690D01*
X85416988Y-93062000D01*
X84703402Y-93062000D01*
X84636363Y-93042315D01*
X84603631Y-93011632D01*
X84597150Y-93002850D01*
X84487882Y-92922207D01*
X84487880Y-92922206D01*
X84359700Y-92877353D01*
X84329270Y-92874500D01*
X84329266Y-92874500D01*
X83270734Y-92874500D01*
X83270730Y-92874500D01*
X83240300Y-92877353D01*
X83240298Y-92877353D01*
X83112119Y-92922206D01*
X83112117Y-92922207D01*
X83080791Y-92945326D01*
X83040218Y-92975270D01*
X82974592Y-92999241D01*
X82966587Y-92999500D01*
X75462840Y-92999500D01*
X75395801Y-92979815D01*
X75375163Y-92963185D01*
X75254004Y-92842026D01*
X75254003Y-92842025D01*
X75254001Y-92842023D01*
X75025164Y-92666431D01*
X75025162Y-92666429D01*
X75025156Y-92666425D01*
X75025151Y-92666422D01*
X75025148Y-92666420D01*
X74775352Y-92522199D01*
X74775336Y-92522191D01*
X74508860Y-92411814D01*
X74508848Y-92411810D01*
X74508845Y-92411809D01*
X74230217Y-92337151D01*
X74230211Y-92337150D01*
X74230206Y-92337149D01*
X73944238Y-92299501D01*
X73944233Y-92299500D01*
X73944228Y-92299500D01*
X73655772Y-92299500D01*
X73655766Y-92299500D01*
X73655761Y-92299501D01*
X73369793Y-92337149D01*
X73369786Y-92337150D01*
X73369783Y-92337151D01*
X73218456Y-92377699D01*
X73091155Y-92411809D01*
X73091139Y-92411814D01*
X72824663Y-92522191D01*
X72824647Y-92522199D01*
X72574851Y-92666420D01*
X72574835Y-92666431D01*
X72345997Y-92842024D01*
X72345990Y-92842030D01*
X72142030Y-93045990D01*
X72142024Y-93045997D01*
X71966431Y-93274835D01*
X71966420Y-93274851D01*
X71822199Y-93524647D01*
X71822191Y-93524663D01*
X71711814Y-93791139D01*
X71711809Y-93791155D01*
X71665601Y-93963608D01*
X71637152Y-94069780D01*
X71637149Y-94069793D01*
X71599501Y-94355761D01*
X71599500Y-94355778D01*
X70143985Y-94355778D01*
X70127231Y-94250000D01*
X70900000Y-94250000D01*
X70900000Y-93304318D01*
X70899999Y-93304315D01*
X70889816Y-93189768D01*
X70889815Y-93189765D01*
X70836105Y-93002053D01*
X70745707Y-92828995D01*
X70622323Y-92677676D01*
X70471004Y-92554292D01*
X70297946Y-92463894D01*
X70110234Y-92410184D01*
X70110231Y-92410183D01*
X69995684Y-92400000D01*
X69050000Y-92400000D01*
X69050000Y-93172768D01*
X68906247Y-93150000D01*
X68693753Y-93150000D01*
X68550000Y-93172768D01*
X68550000Y-92400000D01*
X67604315Y-92400000D01*
X67489768Y-92410183D01*
X67489765Y-92410184D01*
X67302053Y-92463894D01*
X67128995Y-92554292D01*
X66977676Y-92677676D01*
X66854292Y-92828995D01*
X66763894Y-93002053D01*
X66710184Y-93189765D01*
X66710183Y-93189768D01*
X66700000Y-93304315D01*
X64500500Y-93304315D01*
X64500500Y-89834108D01*
X68849500Y-89834108D01*
X68849500Y-89965891D01*
X68883608Y-90093187D01*
X68907864Y-90135198D01*
X68949500Y-90207314D01*
X69042686Y-90300500D01*
X69156814Y-90366392D01*
X69284108Y-90400500D01*
X69284110Y-90400500D01*
X69415890Y-90400500D01*
X69415892Y-90400500D01*
X69543186Y-90366392D01*
X69657314Y-90300500D01*
X69657315Y-90300498D01*
X69664352Y-90296436D01*
X69665131Y-90297786D01*
X69721671Y-90275930D01*
X69731987Y-90275500D01*
X81455601Y-90275500D01*
X81522640Y-90295185D01*
X81543281Y-90311818D01*
X82769437Y-91537975D01*
X82815985Y-91564849D01*
X82864200Y-91615415D01*
X82875050Y-91652481D01*
X82875744Y-91652330D01*
X82877353Y-91659701D01*
X82912617Y-91760476D01*
X82922207Y-91787882D01*
X83002850Y-91897150D01*
X83112118Y-91977793D01*
X83154845Y-91992744D01*
X83240299Y-92022646D01*
X83270730Y-92025500D01*
X83270734Y-92025500D01*
X84329270Y-92025500D01*
X84359699Y-92022646D01*
X84359701Y-92022646D01*
X84425847Y-91999500D01*
X84487882Y-91977793D01*
X84557530Y-91926391D01*
X84593655Y-91899730D01*
X84659284Y-91875759D01*
X84667288Y-91875500D01*
X85235855Y-91875500D01*
X85302894Y-91895185D01*
X85348649Y-91947989D01*
X85358794Y-91983314D01*
X85364313Y-92025235D01*
X85364313Y-92025236D01*
X85422241Y-92165087D01*
X85422302Y-92165233D01*
X85514549Y-92285451D01*
X85634767Y-92377698D01*
X85774764Y-92435687D01*
X85887280Y-92450500D01*
X85887287Y-92450500D01*
X87212713Y-92450500D01*
X87212720Y-92450500D01*
X87325236Y-92435687D01*
X87465233Y-92377698D01*
X87585451Y-92285451D01*
X87677698Y-92165233D01*
X87735687Y-92025236D01*
X87741206Y-91983313D01*
X87769473Y-91919418D01*
X87827797Y-91880947D01*
X87864145Y-91875500D01*
X91525500Y-91875500D01*
X91592539Y-91895185D01*
X91638294Y-91947989D01*
X91649500Y-91999500D01*
X91649500Y-92956613D01*
X91655913Y-93027192D01*
X91655913Y-93027194D01*
X91655914Y-93027196D01*
X91706522Y-93189606D01*
X91781549Y-93313716D01*
X91794530Y-93335188D01*
X91914811Y-93455469D01*
X91914813Y-93455470D01*
X91914815Y-93455472D01*
X92060394Y-93543478D01*
X92222804Y-93594086D01*
X92293384Y-93600500D01*
X92293387Y-93600500D01*
X93406613Y-93600500D01*
X93406616Y-93600500D01*
X93477196Y-93594086D01*
X93639606Y-93543478D01*
X93785185Y-93455472D01*
X93905472Y-93335185D01*
X93990217Y-93195000D01*
X102359730Y-93195000D01*
X102359911Y-93196249D01*
X102411212Y-93301188D01*
X102493811Y-93383787D01*
X102598748Y-93435087D01*
X102598751Y-93435088D01*
X102666780Y-93444999D01*
X103249999Y-93444999D01*
X103750000Y-93444999D01*
X104333218Y-93444999D01*
X104401249Y-93435087D01*
X104506191Y-93383784D01*
X104588787Y-93301188D01*
X104640088Y-93196249D01*
X104640270Y-93195000D01*
X103750000Y-93195000D01*
X103750000Y-93444999D01*
X103249999Y-93444999D01*
X103250000Y-93444998D01*
X103250000Y-93195000D01*
X102359730Y-93195000D01*
X93990217Y-93195000D01*
X93993478Y-93189606D01*
X94044086Y-93027196D01*
X94050500Y-92956616D01*
X94050500Y-92694999D01*
X102359729Y-92694999D01*
X102359730Y-92695000D01*
X103250000Y-92695000D01*
X103750000Y-92695000D01*
X104640270Y-92695000D01*
X104640270Y-92694999D01*
X104640088Y-92693750D01*
X104588787Y-92588811D01*
X104506188Y-92506212D01*
X104401251Y-92454912D01*
X104401248Y-92454911D01*
X104333220Y-92445000D01*
X103750000Y-92445000D01*
X103750000Y-92695000D01*
X103250000Y-92695000D01*
X103250000Y-92445000D01*
X102666782Y-92445000D01*
X102598750Y-92454912D01*
X102493808Y-92506215D01*
X102411212Y-92588811D01*
X102359911Y-92693750D01*
X102359729Y-92694999D01*
X94050500Y-92694999D01*
X94050500Y-91925000D01*
X102359730Y-91925000D01*
X102359911Y-91926249D01*
X102411212Y-92031188D01*
X102493811Y-92113787D01*
X102598748Y-92165087D01*
X102598751Y-92165088D01*
X102666780Y-92174999D01*
X103249999Y-92174999D01*
X103750000Y-92174999D01*
X104333218Y-92174999D01*
X104401249Y-92165087D01*
X104506191Y-92113784D01*
X104588787Y-92031188D01*
X104640088Y-91926249D01*
X104640270Y-91925000D01*
X103750000Y-91925000D01*
X103750000Y-92174999D01*
X103249999Y-92174999D01*
X103250000Y-92174998D01*
X103250000Y-91925000D01*
X102359730Y-91925000D01*
X94050500Y-91925000D01*
X94050500Y-91424999D01*
X102359729Y-91424999D01*
X102359730Y-91425000D01*
X103250000Y-91425000D01*
X103750000Y-91425000D01*
X104640270Y-91425000D01*
X104640270Y-91424999D01*
X104640088Y-91423750D01*
X104588787Y-91318811D01*
X104506188Y-91236212D01*
X104401251Y-91184912D01*
X104401248Y-91184911D01*
X104333220Y-91175000D01*
X103750000Y-91175000D01*
X103750000Y-91425000D01*
X103250000Y-91425000D01*
X103250000Y-91175000D01*
X102666782Y-91175000D01*
X102598750Y-91184912D01*
X102493808Y-91236215D01*
X102411212Y-91318811D01*
X102359911Y-91423750D01*
X102359729Y-91424999D01*
X94050500Y-91424999D01*
X94050500Y-90655000D01*
X102359730Y-90655000D01*
X102359911Y-90656249D01*
X102411212Y-90761188D01*
X102493811Y-90843787D01*
X102598748Y-90895087D01*
X102598751Y-90895088D01*
X102666780Y-90904999D01*
X103249999Y-90904999D01*
X103750000Y-90904999D01*
X104333218Y-90904999D01*
X104401249Y-90895087D01*
X104506191Y-90843784D01*
X104588787Y-90761188D01*
X104640088Y-90656249D01*
X104640270Y-90655000D01*
X103750000Y-90655000D01*
X103750000Y-90904999D01*
X103249999Y-90904999D01*
X103250000Y-90904998D01*
X103250000Y-90655000D01*
X102359730Y-90655000D01*
X94050500Y-90655000D01*
X94050500Y-90221739D01*
X111549500Y-90221739D01*
X111549500Y-90588260D01*
X111559426Y-90656391D01*
X111610803Y-90761485D01*
X111693514Y-90844196D01*
X111693515Y-90844196D01*
X111693517Y-90844198D01*
X111798607Y-90895573D01*
X111832673Y-90900536D01*
X111866739Y-90905500D01*
X111866740Y-90905500D01*
X113533261Y-90905500D01*
X113555971Y-90902191D01*
X113601393Y-90895573D01*
X113706483Y-90844198D01*
X113789198Y-90761483D01*
X113840573Y-90656393D01*
X113850500Y-90588260D01*
X113850500Y-90221740D01*
X113848398Y-90207316D01*
X113840573Y-90153608D01*
X113840573Y-90153607D01*
X113789198Y-90048517D01*
X113789196Y-90048515D01*
X113789196Y-90048514D01*
X113706485Y-89965803D01*
X113601391Y-89914426D01*
X113533261Y-89904500D01*
X113533260Y-89904500D01*
X111866740Y-89904500D01*
X111866739Y-89904500D01*
X111798608Y-89914426D01*
X111693514Y-89965803D01*
X111610803Y-90048514D01*
X111559426Y-90153608D01*
X111549500Y-90221739D01*
X94050500Y-90221739D01*
X94050500Y-90154999D01*
X102359729Y-90154999D01*
X102359730Y-90155000D01*
X103250000Y-90155000D01*
X103750000Y-90155000D01*
X104640270Y-90155000D01*
X104640270Y-90154999D01*
X104640088Y-90153750D01*
X104588787Y-90048811D01*
X104506188Y-89966212D01*
X104401251Y-89914912D01*
X104401248Y-89914911D01*
X104333220Y-89905000D01*
X103750000Y-89905000D01*
X103750000Y-90155000D01*
X103250000Y-90155000D01*
X103250000Y-89905000D01*
X102666782Y-89905000D01*
X102598750Y-89914912D01*
X102493808Y-89966215D01*
X102411212Y-90048811D01*
X102359911Y-90153750D01*
X102359729Y-90154999D01*
X94050500Y-90154999D01*
X94050500Y-90043384D01*
X94044086Y-89972804D01*
X93993478Y-89810394D01*
X93905472Y-89664815D01*
X93905470Y-89664813D01*
X93905469Y-89664811D01*
X93785188Y-89544530D01*
X93697441Y-89491485D01*
X93639606Y-89456522D01*
X93477196Y-89405914D01*
X93477194Y-89405913D01*
X93477192Y-89405913D01*
X93427778Y-89401423D01*
X93406616Y-89399500D01*
X92293384Y-89399500D01*
X92274145Y-89401248D01*
X92222807Y-89405913D01*
X92060393Y-89456522D01*
X91914811Y-89544530D01*
X91794530Y-89664811D01*
X91706522Y-89810393D01*
X91655913Y-89972807D01*
X91649500Y-90043386D01*
X91649500Y-91000500D01*
X91629815Y-91067539D01*
X91577011Y-91113294D01*
X91525500Y-91124500D01*
X87864145Y-91124500D01*
X87797106Y-91104815D01*
X87751351Y-91052011D01*
X87741206Y-91016686D01*
X87739075Y-91000500D01*
X87735687Y-90974764D01*
X87677698Y-90834767D01*
X87585451Y-90714549D01*
X87465233Y-90622302D01*
X87465229Y-90622300D01*
X87369930Y-90582826D01*
X87325236Y-90564313D01*
X87311171Y-90562461D01*
X87212727Y-90549500D01*
X87212720Y-90549500D01*
X85887280Y-90549500D01*
X85887272Y-90549500D01*
X85774764Y-90564313D01*
X85774763Y-90564313D01*
X85634770Y-90622300D01*
X85634767Y-90622301D01*
X85634767Y-90622302D01*
X85514549Y-90714549D01*
X85471978Y-90770029D01*
X85422300Y-90834770D01*
X85364313Y-90974763D01*
X85364313Y-90974764D01*
X85358794Y-91016686D01*
X85330527Y-91080582D01*
X85272203Y-91119053D01*
X85235855Y-91124500D01*
X84849500Y-91124500D01*
X84782461Y-91104815D01*
X84736706Y-91052011D01*
X84725500Y-91000500D01*
X84725500Y-90845730D01*
X84722646Y-90815300D01*
X84722646Y-90815298D01*
X84677793Y-90687119D01*
X84677792Y-90687117D01*
X84655117Y-90656393D01*
X84597150Y-90577850D01*
X84487882Y-90497207D01*
X84487880Y-90497206D01*
X84359700Y-90452353D01*
X84329270Y-90449500D01*
X84329266Y-90449500D01*
X83270734Y-90449500D01*
X83270730Y-90449500D01*
X83240300Y-90452353D01*
X83240298Y-90452353D01*
X83112119Y-90497206D01*
X83112118Y-90497207D01*
X83013069Y-90570308D01*
X82947440Y-90594278D01*
X82879270Y-90578962D01*
X82851758Y-90558220D01*
X81893063Y-89599526D01*
X81893062Y-89599525D01*
X81814550Y-89554196D01*
X82875001Y-89554196D01*
X82877851Y-89584606D01*
X82922653Y-89712645D01*
X83003207Y-89821792D01*
X83112354Y-89902346D01*
X83240397Y-89947149D01*
X83270792Y-89949999D01*
X83549999Y-89949999D01*
X84050000Y-89949999D01*
X84329196Y-89949999D01*
X84359606Y-89947148D01*
X84487645Y-89902346D01*
X84596792Y-89821792D01*
X84677346Y-89712645D01*
X84712319Y-89612697D01*
X85350000Y-89612697D01*
X85364800Y-89725104D01*
X85364801Y-89725108D01*
X85422736Y-89864978D01*
X85514905Y-89985094D01*
X85635021Y-90077263D01*
X85774891Y-90135198D01*
X85774895Y-90135199D01*
X85887302Y-90149999D01*
X85887317Y-90150000D01*
X86300000Y-90150000D01*
X86800000Y-90150000D01*
X87212683Y-90150000D01*
X87212697Y-90149999D01*
X87325104Y-90135199D01*
X87325108Y-90135198D01*
X87464978Y-90077263D01*
X87585094Y-89985094D01*
X87677263Y-89864978D01*
X87735198Y-89725108D01*
X87735199Y-89725104D01*
X87749999Y-89612697D01*
X87750000Y-89612683D01*
X87750000Y-89450000D01*
X86800000Y-89450000D01*
X86800000Y-90150000D01*
X86300000Y-90150000D01*
X86300000Y-89450000D01*
X85350000Y-89450000D01*
X85350000Y-89612697D01*
X84712319Y-89612697D01*
X84722149Y-89584604D01*
X84722149Y-89584600D01*
X84725000Y-89554206D01*
X84725000Y-89412500D01*
X84050000Y-89412500D01*
X84050000Y-89949999D01*
X83549999Y-89949999D01*
X83550000Y-89949998D01*
X83550000Y-89412500D01*
X82875001Y-89412500D01*
X82875001Y-89554196D01*
X81814550Y-89554196D01*
X81807440Y-89550091D01*
X81807439Y-89550090D01*
X81720493Y-89526793D01*
X81720493Y-89526792D01*
X81720490Y-89526792D01*
X81711937Y-89524500D01*
X81711936Y-89524500D01*
X81711935Y-89524500D01*
X69731987Y-89524500D01*
X69716028Y-89520120D01*
X69701307Y-89520645D01*
X69679722Y-89510158D01*
X69668701Y-89507134D01*
X69659468Y-89501654D01*
X69657314Y-89499500D01*
X69569137Y-89448591D01*
X69543187Y-89433608D01*
X69464409Y-89412500D01*
X69415892Y-89399500D01*
X69284108Y-89399500D01*
X69156812Y-89433608D01*
X69042686Y-89499500D01*
X69042683Y-89499502D01*
X68949502Y-89592683D01*
X68949500Y-89592686D01*
X68883608Y-89706812D01*
X68849500Y-89834108D01*
X64500500Y-89834108D01*
X64500500Y-89385000D01*
X102359730Y-89385000D01*
X102359911Y-89386249D01*
X102411212Y-89491188D01*
X102493811Y-89573787D01*
X102598748Y-89625087D01*
X102598751Y-89625088D01*
X102666780Y-89634999D01*
X103249999Y-89634999D01*
X103750000Y-89634999D01*
X104333218Y-89634999D01*
X104401249Y-89625087D01*
X104506191Y-89573784D01*
X104588787Y-89491188D01*
X104640088Y-89386249D01*
X104640270Y-89385000D01*
X103750000Y-89385000D01*
X103750000Y-89634999D01*
X103249999Y-89634999D01*
X103250000Y-89634998D01*
X103250000Y-89385000D01*
X102359730Y-89385000D01*
X64500500Y-89385000D01*
X64500500Y-88951739D01*
X111549500Y-88951739D01*
X111549500Y-89318260D01*
X111559426Y-89386391D01*
X111610803Y-89491485D01*
X111693514Y-89574196D01*
X111693515Y-89574196D01*
X111693517Y-89574198D01*
X111798607Y-89625573D01*
X111832673Y-89630536D01*
X111866739Y-89635500D01*
X111866740Y-89635500D01*
X113533261Y-89635500D01*
X113555971Y-89632191D01*
X113601393Y-89625573D01*
X113706483Y-89574198D01*
X113789198Y-89491483D01*
X113840573Y-89386393D01*
X113850500Y-89318260D01*
X113850500Y-88951740D01*
X113850246Y-88950000D01*
X113840573Y-88883608D01*
X113809245Y-88819525D01*
X113789198Y-88778517D01*
X113789196Y-88778515D01*
X113789196Y-88778514D01*
X113706485Y-88695803D01*
X113601391Y-88644426D01*
X113533261Y-88634500D01*
X113533260Y-88634500D01*
X111866740Y-88634500D01*
X111866739Y-88634500D01*
X111798608Y-88644426D01*
X111693514Y-88695803D01*
X111610803Y-88778514D01*
X111559426Y-88883608D01*
X111549500Y-88951739D01*
X64500500Y-88951739D01*
X64500500Y-88770793D01*
X82875000Y-88770793D01*
X82875000Y-88912500D01*
X83550000Y-88912500D01*
X84050000Y-88912500D01*
X84724999Y-88912500D01*
X84724999Y-88787302D01*
X85350000Y-88787302D01*
X85350000Y-88950000D01*
X86300000Y-88950000D01*
X86800000Y-88950000D01*
X87750000Y-88950000D01*
X87750000Y-88884999D01*
X102359729Y-88884999D01*
X102359730Y-88885000D01*
X103250000Y-88885000D01*
X103750000Y-88885000D01*
X104640270Y-88885000D01*
X104640270Y-88884999D01*
X104640088Y-88883750D01*
X104588787Y-88778811D01*
X104506188Y-88696212D01*
X104401251Y-88644912D01*
X104401248Y-88644911D01*
X104333220Y-88635000D01*
X103750000Y-88635000D01*
X103750000Y-88885000D01*
X103250000Y-88885000D01*
X103250000Y-88635000D01*
X102666782Y-88635000D01*
X102598750Y-88644912D01*
X102493808Y-88696215D01*
X102411212Y-88778811D01*
X102359911Y-88883750D01*
X102359729Y-88884999D01*
X87750000Y-88884999D01*
X87750000Y-88787316D01*
X87749999Y-88787302D01*
X87735199Y-88674895D01*
X87735198Y-88674891D01*
X87677263Y-88535021D01*
X87585094Y-88414905D01*
X87464978Y-88322736D01*
X87325108Y-88264801D01*
X87325104Y-88264800D01*
X87212697Y-88250000D01*
X86800000Y-88250000D01*
X86800000Y-88950000D01*
X86300000Y-88950000D01*
X86300000Y-88250000D01*
X85887302Y-88250000D01*
X85774895Y-88264800D01*
X85774891Y-88264801D01*
X85635021Y-88322736D01*
X85514905Y-88414905D01*
X85422736Y-88535021D01*
X85364801Y-88674891D01*
X85364800Y-88674895D01*
X85350000Y-88787302D01*
X84724999Y-88787302D01*
X84724999Y-88770803D01*
X84722148Y-88740393D01*
X84677346Y-88612354D01*
X84596792Y-88503207D01*
X84487645Y-88422653D01*
X84359602Y-88377850D01*
X84329207Y-88375000D01*
X84050000Y-88375000D01*
X84050000Y-88912500D01*
X83550000Y-88912500D01*
X83550000Y-88375000D01*
X83270804Y-88375000D01*
X83240393Y-88377851D01*
X83112354Y-88422653D01*
X83003207Y-88503207D01*
X82922653Y-88612354D01*
X82877850Y-88740395D01*
X82877850Y-88740399D01*
X82875000Y-88770793D01*
X64500500Y-88770793D01*
X64500500Y-88115000D01*
X102359730Y-88115000D01*
X102359911Y-88116249D01*
X102411212Y-88221188D01*
X102493811Y-88303787D01*
X102598748Y-88355087D01*
X102598751Y-88355088D01*
X102666780Y-88364999D01*
X103249999Y-88364999D01*
X103750000Y-88364999D01*
X104333218Y-88364999D01*
X104401249Y-88355087D01*
X104506191Y-88303784D01*
X104588787Y-88221188D01*
X104640088Y-88116249D01*
X104640270Y-88115000D01*
X103750000Y-88115000D01*
X103750000Y-88364999D01*
X103249999Y-88364999D01*
X103250000Y-88364998D01*
X103250000Y-88115000D01*
X102359730Y-88115000D01*
X64500500Y-88115000D01*
X64500500Y-87222901D01*
X71601150Y-87222901D01*
X71612752Y-87281232D01*
X71612753Y-87281233D01*
X71656958Y-87347390D01*
X71723115Y-87391595D01*
X71723116Y-87391596D01*
X71781447Y-87403198D01*
X71781451Y-87403199D01*
X72071800Y-87403199D01*
X72528200Y-87403199D01*
X72818549Y-87403199D01*
X72818552Y-87403198D01*
X72876883Y-87391596D01*
X72876884Y-87391595D01*
X72943041Y-87347390D01*
X72987246Y-87281233D01*
X72987247Y-87281232D01*
X72998849Y-87222901D01*
X72998850Y-87222898D01*
X72998850Y-87203199D01*
X72528200Y-87203199D01*
X72528200Y-87403199D01*
X72071800Y-87403199D01*
X72071800Y-87203199D01*
X71601150Y-87203199D01*
X71601150Y-87222901D01*
X64500500Y-87222901D01*
X64500500Y-83995730D01*
X66824500Y-83995730D01*
X66824500Y-84804269D01*
X66827353Y-84834699D01*
X66827353Y-84834701D01*
X66867524Y-84949500D01*
X66872207Y-84962882D01*
X66952850Y-85072150D01*
X67062118Y-85152793D01*
X67104845Y-85167744D01*
X67190299Y-85197646D01*
X67220730Y-85200500D01*
X67220734Y-85200500D01*
X68579270Y-85200500D01*
X68609699Y-85197646D01*
X68609701Y-85197646D01*
X68673790Y-85175219D01*
X68737882Y-85152793D01*
X68790077Y-85114270D01*
X68855703Y-85090301D01*
X68923874Y-85105616D01*
X68951390Y-85126361D01*
X69637849Y-85812820D01*
X69671334Y-85874143D01*
X69666350Y-85943835D01*
X69624478Y-85999768D01*
X69559014Y-86024185D01*
X69550168Y-86024501D01*
X68953133Y-86024501D01*
X68886094Y-86004816D01*
X68850031Y-85969392D01*
X68796789Y-85889711D01*
X68796786Y-85889707D01*
X68685292Y-85778213D01*
X68685288Y-85778210D01*
X68554185Y-85690609D01*
X68554172Y-85690602D01*
X68408501Y-85630264D01*
X68408489Y-85630261D01*
X68253845Y-85599500D01*
X68253842Y-85599500D01*
X67546158Y-85599500D01*
X67546155Y-85599500D01*
X67391510Y-85630261D01*
X67391498Y-85630264D01*
X67245827Y-85690602D01*
X67245814Y-85690609D01*
X67114711Y-85778210D01*
X67114707Y-85778213D01*
X67003213Y-85889707D01*
X67003210Y-85889711D01*
X66915609Y-86020814D01*
X66915602Y-86020827D01*
X66855264Y-86166498D01*
X66855261Y-86166510D01*
X66824500Y-86321153D01*
X66824500Y-86478846D01*
X66855261Y-86633489D01*
X66855264Y-86633501D01*
X66915602Y-86779172D01*
X66915609Y-86779185D01*
X67003210Y-86910288D01*
X67003213Y-86910292D01*
X67114707Y-87021786D01*
X67114711Y-87021789D01*
X67245814Y-87109390D01*
X67245827Y-87109397D01*
X67345060Y-87150500D01*
X67391503Y-87169737D01*
X67546153Y-87200499D01*
X67546156Y-87200500D01*
X67546158Y-87200500D01*
X68253844Y-87200500D01*
X68253845Y-87200499D01*
X68408497Y-87169737D01*
X68554179Y-87109394D01*
X68563923Y-87102883D01*
X68644962Y-87048735D01*
X68658285Y-87039832D01*
X68685289Y-87021789D01*
X68796789Y-86910289D01*
X68884394Y-86779179D01*
X68905987Y-86727048D01*
X68916343Y-86702048D01*
X68960184Y-86647645D01*
X69026478Y-86625580D01*
X69030904Y-86625501D01*
X71477150Y-86625501D01*
X71544189Y-86645186D01*
X71589944Y-86697990D01*
X71600398Y-86746047D01*
X71601150Y-86746799D01*
X71734492Y-86746799D01*
X71758681Y-86749181D01*
X71781402Y-86753701D01*
X72818598Y-86753701D01*
X72841318Y-86749181D01*
X72865508Y-86746799D01*
X72998850Y-86746799D01*
X72998850Y-86732147D01*
X72997925Y-86727051D01*
X74249352Y-86727051D01*
X74249352Y-87222951D01*
X74260983Y-87281428D01*
X74260984Y-87281429D01*
X74305299Y-87347751D01*
X74371621Y-87392066D01*
X74379015Y-87395129D01*
X74433419Y-87438970D01*
X74451338Y-87477596D01*
X74482310Y-87593186D01*
X74548202Y-87707314D01*
X74641388Y-87800500D01*
X74755516Y-87866392D01*
X74882810Y-87900500D01*
X74882812Y-87900500D01*
X75014592Y-87900500D01*
X75014594Y-87900500D01*
X75141888Y-87866392D01*
X75256016Y-87800500D01*
X75349202Y-87707314D01*
X75402500Y-87614999D01*
X102359729Y-87614999D01*
X102359730Y-87615000D01*
X103250000Y-87615000D01*
X103750000Y-87615000D01*
X104640270Y-87615000D01*
X104640270Y-87614999D01*
X104640088Y-87613750D01*
X104588787Y-87508811D01*
X104506188Y-87426212D01*
X104401251Y-87374912D01*
X104401248Y-87374911D01*
X104333220Y-87365000D01*
X103750000Y-87365000D01*
X103750000Y-87615000D01*
X103250000Y-87615000D01*
X103250000Y-87365000D01*
X102666782Y-87365000D01*
X102598750Y-87374912D01*
X102493808Y-87426215D01*
X102411212Y-87508811D01*
X102359911Y-87613750D01*
X102359729Y-87614999D01*
X75402500Y-87614999D01*
X75403221Y-87613750D01*
X75408830Y-87604036D01*
X75408830Y-87604035D01*
X75415094Y-87593186D01*
X75446460Y-87476121D01*
X75446881Y-87474694D01*
X75464996Y-87446538D01*
X75482430Y-87417936D01*
X75484066Y-87416898D01*
X75484686Y-87415935D01*
X75487885Y-87414475D01*
X75518390Y-87395128D01*
X75525780Y-87392066D01*
X75525783Y-87392066D01*
X75592104Y-87347751D01*
X75636419Y-87281430D01*
X75636419Y-87281428D01*
X75636420Y-87281428D01*
X75648051Y-87222951D01*
X75648052Y-87222949D01*
X75648052Y-86727048D01*
X75637283Y-86672910D01*
X75637283Y-86624527D01*
X75647551Y-86572902D01*
X75647552Y-86572900D01*
X75647552Y-86553201D01*
X75514210Y-86553201D01*
X75505530Y-86550652D01*
X75496575Y-86551941D01*
X75490028Y-86550819D01*
X75467300Y-86546299D01*
X74430104Y-86546299D01*
X74407385Y-86550817D01*
X74398009Y-86549978D01*
X74383194Y-86553201D01*
X74249852Y-86553201D01*
X74249852Y-86572898D01*
X74260121Y-86624529D01*
X74260121Y-86672908D01*
X74249352Y-86727051D01*
X72997925Y-86727051D01*
X72988191Y-86673426D01*
X72988580Y-86669771D01*
X72988580Y-86627093D01*
X72999350Y-86572949D01*
X72999350Y-86077053D01*
X72988835Y-86024190D01*
X72988835Y-85975807D01*
X72988897Y-85975499D01*
X72999350Y-85922947D01*
X72999350Y-85427051D01*
X72999350Y-85427048D01*
X72988581Y-85372910D01*
X72988581Y-85324527D01*
X72998849Y-85272902D01*
X72998850Y-85272900D01*
X72998850Y-85253201D01*
X72865508Y-85253201D01*
X72841318Y-85250818D01*
X72818598Y-85246299D01*
X71781402Y-85246299D01*
X71758681Y-85250818D01*
X71734492Y-85253201D01*
X71601150Y-85253201D01*
X71600026Y-85254324D01*
X71581465Y-85317538D01*
X71528661Y-85363293D01*
X71477150Y-85374499D01*
X70100832Y-85374499D01*
X70033793Y-85354814D01*
X70013151Y-85338180D01*
X69452069Y-84777098D01*
X71601150Y-84777098D01*
X71601150Y-84796801D01*
X72071800Y-84796801D01*
X72528200Y-84796801D01*
X72998850Y-84796801D01*
X72998850Y-84777101D01*
X72998849Y-84777099D01*
X72998839Y-84777048D01*
X74249352Y-84777048D01*
X74249352Y-85272948D01*
X74259866Y-85325810D01*
X74259866Y-85374190D01*
X74249352Y-85427051D01*
X74249352Y-85922951D01*
X74260121Y-85977091D01*
X74260122Y-86025472D01*
X74249852Y-86077104D01*
X74249852Y-86096801D01*
X74383214Y-86096801D01*
X74398909Y-86098347D01*
X74400873Y-86098065D01*
X74402199Y-86098671D01*
X74407404Y-86099183D01*
X74430104Y-86103699D01*
X75467300Y-86103699D01*
X75489999Y-86099183D01*
X75514190Y-86096801D01*
X75549758Y-86096801D01*
X75616797Y-86116486D01*
X75637439Y-86133120D01*
X75683788Y-86179469D01*
X75683791Y-86179470D01*
X75683794Y-86179473D01*
X75763706Y-86225611D01*
X75763707Y-86225611D01*
X75763712Y-86225614D01*
X75852856Y-86249500D01*
X80246290Y-86249500D01*
X80313329Y-86269185D01*
X80359084Y-86321989D01*
X80369028Y-86391147D01*
X80350907Y-86434114D01*
X80353564Y-86435648D01*
X80283608Y-86556812D01*
X80249500Y-86684108D01*
X80249500Y-86815891D01*
X80283608Y-86943187D01*
X80288398Y-86951483D01*
X80349500Y-87057314D01*
X80442686Y-87150500D01*
X80556814Y-87216392D01*
X80684108Y-87250500D01*
X80684110Y-87250500D01*
X80815890Y-87250500D01*
X80815892Y-87250500D01*
X80943186Y-87216392D01*
X81057314Y-87150500D01*
X81120995Y-87086819D01*
X81182318Y-87053334D01*
X81208676Y-87050500D01*
X102498177Y-87050500D01*
X102552638Y-87063100D01*
X102598607Y-87085573D01*
X102666739Y-87095500D01*
X102666740Y-87095500D01*
X104333261Y-87095500D01*
X104355971Y-87092191D01*
X104401393Y-87085573D01*
X104506483Y-87034198D01*
X104589198Y-86951483D01*
X104640573Y-86846393D01*
X104650500Y-86778260D01*
X104650500Y-86411740D01*
X104640573Y-86343607D01*
X104589198Y-86238517D01*
X104589196Y-86238515D01*
X104589196Y-86238514D01*
X104506485Y-86155803D01*
X104401391Y-86104426D01*
X104333261Y-86094500D01*
X104333260Y-86094500D01*
X102666740Y-86094500D01*
X102666739Y-86094500D01*
X102598608Y-86104426D01*
X102493514Y-86155803D01*
X102410803Y-86238514D01*
X102359425Y-86343609D01*
X102356584Y-86352807D01*
X102355312Y-86352414D01*
X102330316Y-86406879D01*
X102271467Y-86444543D01*
X102236756Y-86449500D01*
X101456676Y-86449500D01*
X101389637Y-86429815D01*
X101343882Y-86377011D01*
X101333938Y-86307853D01*
X101362963Y-86244297D01*
X101368995Y-86237819D01*
X101391131Y-86215683D01*
X101438000Y-86168814D01*
X101503892Y-86054686D01*
X101538000Y-85927392D01*
X101538000Y-85795608D01*
X101503892Y-85668314D01*
X101438000Y-85554186D01*
X101395995Y-85512181D01*
X101385382Y-85492744D01*
X101370882Y-85476011D01*
X101368965Y-85462679D01*
X101362510Y-85450858D01*
X101364089Y-85428771D01*
X101360938Y-85406853D01*
X101366533Y-85394601D01*
X101367494Y-85381166D01*
X101380764Y-85363439D01*
X101389963Y-85343297D01*
X101401294Y-85336014D01*
X101409366Y-85325233D01*
X101430111Y-85317495D01*
X101448741Y-85305523D01*
X101470659Y-85302371D01*
X101474830Y-85300816D01*
X101483676Y-85300500D01*
X101574167Y-85300500D01*
X101641206Y-85320185D01*
X101661848Y-85336819D01*
X101759540Y-85434511D01*
X101815489Y-85490460D01*
X101815491Y-85490461D01*
X101815495Y-85490464D01*
X101881922Y-85528815D01*
X101884011Y-85530021D01*
X101960438Y-85550500D01*
X102269364Y-85550500D01*
X102336403Y-85570185D01*
X102380764Y-85620038D01*
X102385763Y-85630264D01*
X102410803Y-85681485D01*
X102493514Y-85764196D01*
X102493515Y-85764196D01*
X102493517Y-85764198D01*
X102598607Y-85815573D01*
X102632673Y-85820536D01*
X102666739Y-85825500D01*
X102666740Y-85825500D01*
X104333261Y-85825500D01*
X104355971Y-85822191D01*
X104401393Y-85815573D01*
X104506483Y-85764198D01*
X104589198Y-85681483D01*
X104640573Y-85576393D01*
X104650500Y-85508260D01*
X104650500Y-85141740D01*
X104640573Y-85073607D01*
X104589198Y-84968517D01*
X104589196Y-84968515D01*
X104589196Y-84968514D01*
X104506485Y-84885803D01*
X104401391Y-84834426D01*
X104333261Y-84824500D01*
X104333260Y-84824500D01*
X102666740Y-84824500D01*
X102666739Y-84824500D01*
X102598608Y-84834426D01*
X102493514Y-84885803D01*
X102466137Y-84913181D01*
X102439209Y-84927884D01*
X102413391Y-84944477D01*
X102407190Y-84945368D01*
X102404814Y-84946666D01*
X102378456Y-84949500D01*
X102175833Y-84949500D01*
X102108794Y-84929815D01*
X102088152Y-84913181D01*
X101934512Y-84759541D01*
X101934507Y-84759537D01*
X101925065Y-84754086D01*
X101925064Y-84754086D01*
X101865991Y-84719980D01*
X101865990Y-84719979D01*
X101840513Y-84713152D01*
X101789562Y-84699500D01*
X101789560Y-84699500D01*
X78688676Y-84699500D01*
X78663429Y-84692086D01*
X78637375Y-84688390D01*
X78627473Y-84681528D01*
X78621637Y-84679815D01*
X78607648Y-84669364D01*
X78604211Y-84666397D01*
X78537314Y-84599500D01*
X78505315Y-84581025D01*
X78496440Y-84573364D01*
X78483596Y-84553461D01*
X78467252Y-84536319D01*
X78465002Y-84524646D01*
X78458556Y-84514657D01*
X78458511Y-84490968D01*
X78454030Y-84467712D01*
X78458448Y-84456676D01*
X78458426Y-84444787D01*
X78471194Y-84424836D01*
X78479998Y-84402848D01*
X78489682Y-84395951D01*
X78496091Y-84385939D01*
X78517617Y-84376059D01*
X78536912Y-84362320D01*
X78553707Y-84359495D01*
X78559592Y-84356795D01*
X78565110Y-84357578D01*
X78577468Y-84355500D01*
X102307003Y-84355500D01*
X102374042Y-84375185D01*
X102407923Y-84407450D01*
X102410805Y-84411487D01*
X102493514Y-84494196D01*
X102493515Y-84494196D01*
X102493517Y-84494198D01*
X102598607Y-84545573D01*
X102632673Y-84550536D01*
X102666739Y-84555500D01*
X102666740Y-84555500D01*
X104333261Y-84555500D01*
X104355971Y-84552191D01*
X104401393Y-84545573D01*
X104506483Y-84494198D01*
X104589198Y-84411483D01*
X104640573Y-84306393D01*
X104650500Y-84238260D01*
X104650500Y-83871740D01*
X104640573Y-83803607D01*
X104589198Y-83698517D01*
X104589196Y-83698515D01*
X104589196Y-83698514D01*
X104506485Y-83615803D01*
X104401391Y-83564426D01*
X104333261Y-83554500D01*
X104333260Y-83554500D01*
X102666740Y-83554500D01*
X102666739Y-83554500D01*
X102598608Y-83564426D01*
X102493514Y-83615803D01*
X102410805Y-83698512D01*
X102407923Y-83702550D01*
X102352949Y-83745674D01*
X102307003Y-83754500D01*
X76257780Y-83754500D01*
X76190741Y-83734815D01*
X76156184Y-83698573D01*
X76155450Y-83699137D01*
X76150498Y-83692684D01*
X76057316Y-83599502D01*
X76057314Y-83599500D01*
X75979372Y-83554500D01*
X75943187Y-83533608D01*
X75879539Y-83516554D01*
X75815892Y-83499500D01*
X75684108Y-83499500D01*
X75556812Y-83533608D01*
X75442686Y-83599500D01*
X75442683Y-83599502D01*
X75349502Y-83692683D01*
X75349500Y-83692686D01*
X75283608Y-83806812D01*
X75249500Y-83934108D01*
X75249500Y-84000843D01*
X75229815Y-84067882D01*
X75177011Y-84113637D01*
X75107853Y-84123581D01*
X75093412Y-84120619D01*
X75014594Y-84099500D01*
X74882810Y-84099500D01*
X74755514Y-84133608D01*
X74641388Y-84199500D01*
X74641385Y-84199502D01*
X74548204Y-84292683D01*
X74548202Y-84292686D01*
X74483069Y-84405500D01*
X74482310Y-84406814D01*
X74472931Y-84441819D01*
X74451338Y-84522403D01*
X74414972Y-84582063D01*
X74379020Y-84604868D01*
X74371623Y-84607932D01*
X74305299Y-84652248D01*
X74260984Y-84718570D01*
X74260983Y-84718571D01*
X74249352Y-84777048D01*
X72998839Y-84777048D01*
X72987247Y-84718767D01*
X72987246Y-84718766D01*
X72943041Y-84652609D01*
X72876884Y-84608404D01*
X72876883Y-84608403D01*
X72818552Y-84596801D01*
X72528200Y-84596801D01*
X72528200Y-84796801D01*
X72071800Y-84796801D01*
X72071800Y-84596801D01*
X71781447Y-84596801D01*
X71723116Y-84608403D01*
X71723115Y-84608404D01*
X71656958Y-84652609D01*
X71612753Y-84718766D01*
X71612752Y-84718767D01*
X71601150Y-84777098D01*
X69452069Y-84777098D01*
X69011819Y-84336848D01*
X68978334Y-84275525D01*
X68975500Y-84249167D01*
X68975500Y-83995730D01*
X68972646Y-83965300D01*
X68972646Y-83965298D01*
X68927793Y-83837119D01*
X68927792Y-83837117D01*
X68847150Y-83727850D01*
X68737882Y-83647207D01*
X68737880Y-83647206D01*
X68609700Y-83602353D01*
X68579270Y-83599500D01*
X68579266Y-83599500D01*
X67220734Y-83599500D01*
X67220730Y-83599500D01*
X67190300Y-83602353D01*
X67190298Y-83602353D01*
X67062119Y-83647206D01*
X67062117Y-83647207D01*
X66952850Y-83727850D01*
X66872207Y-83837117D01*
X66872206Y-83837119D01*
X66827353Y-83965298D01*
X66827353Y-83965300D01*
X66824500Y-83995730D01*
X64500500Y-83995730D01*
X64500500Y-80210962D01*
X64520185Y-80143923D01*
X64572989Y-80098168D01*
X64642147Y-80088224D01*
X64648692Y-80089345D01*
X64710300Y-80101599D01*
X64710301Y-80101600D01*
X65280000Y-80101600D01*
X65280000Y-79592347D01*
X65317708Y-79614118D01*
X65457591Y-79651600D01*
X65602409Y-79651600D01*
X65742292Y-79614118D01*
X65780000Y-79592347D01*
X65780000Y-80101600D01*
X66349699Y-80101600D01*
X66349702Y-80101599D01*
X66408033Y-80089997D01*
X66408034Y-80089996D01*
X66474191Y-80045791D01*
X66518396Y-79979634D01*
X66518397Y-79979633D01*
X66529999Y-79921302D01*
X66530000Y-79921299D01*
X66530000Y-79351600D01*
X66020748Y-79351600D01*
X66042518Y-79313892D01*
X66072997Y-79200143D01*
X67069499Y-79200143D01*
X67107947Y-79393429D01*
X67107950Y-79393439D01*
X67183364Y-79575507D01*
X67183371Y-79575520D01*
X67292860Y-79739381D01*
X67292863Y-79739385D01*
X67432214Y-79878736D01*
X67432218Y-79878739D01*
X67596079Y-79988228D01*
X67596092Y-79988235D01*
X67746188Y-80050406D01*
X67778165Y-80063651D01*
X67778169Y-80063651D01*
X67778170Y-80063652D01*
X67971456Y-80102100D01*
X67971459Y-80102100D01*
X68168543Y-80102100D01*
X68318887Y-80072194D01*
X68361835Y-80063651D01*
X68543914Y-79988232D01*
X68707782Y-79878739D01*
X68847139Y-79739382D01*
X68956632Y-79575514D01*
X69032051Y-79393435D01*
X69070500Y-79200143D01*
X69609499Y-79200143D01*
X69647947Y-79393429D01*
X69647950Y-79393439D01*
X69723364Y-79575507D01*
X69723371Y-79575520D01*
X69832860Y-79739381D01*
X69832863Y-79739385D01*
X69972214Y-79878736D01*
X69972218Y-79878739D01*
X70136079Y-79988228D01*
X70136092Y-79988235D01*
X70286188Y-80050406D01*
X70318165Y-80063651D01*
X70318169Y-80063651D01*
X70318170Y-80063652D01*
X70511456Y-80102100D01*
X70511459Y-80102100D01*
X70708543Y-80102100D01*
X70858887Y-80072194D01*
X70901835Y-80063651D01*
X71083914Y-79988232D01*
X71247782Y-79878739D01*
X71387139Y-79739382D01*
X71496632Y-79575514D01*
X71572051Y-79393435D01*
X71610500Y-79200143D01*
X72149499Y-79200143D01*
X72187947Y-79393429D01*
X72187950Y-79393439D01*
X72263364Y-79575507D01*
X72263371Y-79575520D01*
X72372860Y-79739381D01*
X72372863Y-79739385D01*
X72512217Y-79878739D01*
X72663217Y-79979633D01*
X72676086Y-79988232D01*
X72772953Y-80028355D01*
X72827355Y-80072194D01*
X72849421Y-80138488D01*
X72849500Y-80142915D01*
X72849500Y-81974562D01*
X72860708Y-82016391D01*
X72869979Y-82050990D01*
X72869982Y-82050995D01*
X72909535Y-82119504D01*
X72909539Y-82119509D01*
X72909540Y-82119511D01*
X73815489Y-83025460D01*
X73884012Y-83065022D01*
X73960438Y-83085500D01*
X74039562Y-83085500D01*
X102307003Y-83085500D01*
X102374042Y-83105185D01*
X102407923Y-83137450D01*
X102410805Y-83141487D01*
X102493514Y-83224196D01*
X102493515Y-83224196D01*
X102493517Y-83224198D01*
X102598607Y-83275573D01*
X102632673Y-83280536D01*
X102666739Y-83285500D01*
X102666740Y-83285500D01*
X104333261Y-83285500D01*
X104355971Y-83282191D01*
X104401393Y-83275573D01*
X104506483Y-83224198D01*
X104589198Y-83141483D01*
X104640573Y-83036393D01*
X104650500Y-82968260D01*
X104650500Y-82601740D01*
X104650500Y-82601739D01*
X111549500Y-82601739D01*
X111549500Y-82968260D01*
X111559426Y-83036391D01*
X111610803Y-83141485D01*
X111693514Y-83224196D01*
X111693515Y-83224196D01*
X111693517Y-83224198D01*
X111798607Y-83275573D01*
X111832673Y-83280536D01*
X111866739Y-83285500D01*
X111866740Y-83285500D01*
X113533261Y-83285500D01*
X113555971Y-83282191D01*
X113601393Y-83275573D01*
X113706483Y-83224198D01*
X113758863Y-83171817D01*
X113820184Y-83138334D01*
X113846543Y-83135500D01*
X120375501Y-83135500D01*
X120442540Y-83155185D01*
X120488295Y-83207989D01*
X120499501Y-83259500D01*
X120499501Y-83524264D01*
X120500377Y-83533608D01*
X120502354Y-83554698D01*
X120502354Y-83554699D01*
X120547206Y-83682881D01*
X120563162Y-83704500D01*
X120627850Y-83792150D01*
X120737118Y-83872793D01*
X120865302Y-83917646D01*
X120865301Y-83917646D01*
X120869867Y-83918074D01*
X120895735Y-83920500D01*
X121015734Y-83920499D01*
X121082771Y-83940183D01*
X121128526Y-83992987D01*
X121138470Y-84062145D01*
X121109446Y-84125701D01*
X121088619Y-84144816D01*
X120935354Y-84256171D01*
X120796174Y-84395351D01*
X120796174Y-84395352D01*
X120796172Y-84395354D01*
X120772461Y-84427989D01*
X120680476Y-84554594D01*
X120591117Y-84729970D01*
X120530290Y-84917173D01*
X120499500Y-85111577D01*
X120499500Y-85308422D01*
X120530290Y-85502826D01*
X120591117Y-85690029D01*
X120677472Y-85859510D01*
X120680476Y-85865405D01*
X120725512Y-85927392D01*
X120735802Y-85941554D01*
X120759282Y-86007360D01*
X120743457Y-86075414D01*
X120693351Y-86124109D01*
X120624873Y-86137985D01*
X120559764Y-86112636D01*
X120547803Y-86102121D01*
X118220213Y-83774531D01*
X118220208Y-83774527D01*
X118140286Y-83728385D01*
X118140288Y-83728385D01*
X118138291Y-83727850D01*
X118138288Y-83727850D01*
X118051144Y-83704500D01*
X118051143Y-83704500D01*
X113846543Y-83704500D01*
X113779504Y-83684815D01*
X113758866Y-83668185D01*
X113706483Y-83615802D01*
X113673141Y-83599502D01*
X113601391Y-83564426D01*
X113533261Y-83554500D01*
X113533260Y-83554500D01*
X111866740Y-83554500D01*
X111866739Y-83554500D01*
X111798608Y-83564426D01*
X111693514Y-83615803D01*
X111610803Y-83698514D01*
X111559426Y-83803608D01*
X111549500Y-83871739D01*
X111549500Y-84238260D01*
X111559426Y-84306391D01*
X111559427Y-84306393D01*
X111608519Y-84406814D01*
X111610803Y-84411485D01*
X111693514Y-84494196D01*
X111693515Y-84494196D01*
X111693517Y-84494198D01*
X111798607Y-84545573D01*
X111832673Y-84550536D01*
X111866739Y-84555500D01*
X111866740Y-84555500D01*
X113533261Y-84555500D01*
X113555971Y-84552191D01*
X113601393Y-84545573D01*
X113706483Y-84494198D01*
X113758863Y-84441817D01*
X113820184Y-84408334D01*
X113846543Y-84405500D01*
X117808456Y-84405500D01*
X117875495Y-84425185D01*
X117896137Y-84441819D01*
X120572364Y-87118046D01*
X120605849Y-87179369D01*
X120600865Y-87249061D01*
X120595170Y-87262017D01*
X120591115Y-87269974D01*
X120591114Y-87269978D01*
X120530291Y-87457169D01*
X120530291Y-87457172D01*
X120499500Y-87651577D01*
X120499500Y-87848422D01*
X120530290Y-88042826D01*
X120591117Y-88230029D01*
X120680476Y-88405405D01*
X120796172Y-88564646D01*
X120935354Y-88703828D01*
X121094595Y-88819524D01*
X121217992Y-88882397D01*
X121271213Y-88909515D01*
X121322009Y-88957489D01*
X121338804Y-89025310D01*
X121316267Y-89091445D01*
X121271213Y-89130485D01*
X121094594Y-89220476D01*
X121003741Y-89286485D01*
X120935354Y-89336172D01*
X120935352Y-89336174D01*
X120935351Y-89336174D01*
X120796174Y-89475351D01*
X120796174Y-89475352D01*
X120796172Y-89475354D01*
X120763266Y-89520645D01*
X120680476Y-89634594D01*
X120591117Y-89809970D01*
X120530290Y-89997173D01*
X120499500Y-90191577D01*
X120499500Y-90388422D01*
X120530290Y-90582826D01*
X120591117Y-90770029D01*
X120680476Y-90945405D01*
X120735802Y-91021554D01*
X120759282Y-91087360D01*
X120743457Y-91155414D01*
X120693351Y-91204109D01*
X120624873Y-91217985D01*
X120559764Y-91192636D01*
X120547803Y-91182121D01*
X114410213Y-85044531D01*
X114410208Y-85044527D01*
X114330290Y-84998387D01*
X114330289Y-84998386D01*
X114330288Y-84998386D01*
X114241144Y-84974500D01*
X114241143Y-84974500D01*
X113846543Y-84974500D01*
X113779504Y-84954815D01*
X113758866Y-84938185D01*
X113706483Y-84885802D01*
X113601391Y-84834426D01*
X113533261Y-84824500D01*
X113533260Y-84824500D01*
X111866740Y-84824500D01*
X111866739Y-84824500D01*
X111798608Y-84834426D01*
X111693514Y-84885803D01*
X111610803Y-84968514D01*
X111559426Y-85073608D01*
X111549500Y-85141739D01*
X111549500Y-85508260D01*
X111559426Y-85576391D01*
X111610803Y-85681485D01*
X111693514Y-85764196D01*
X111693515Y-85764196D01*
X111693517Y-85764198D01*
X111798607Y-85815573D01*
X111832673Y-85820536D01*
X111866739Y-85825500D01*
X111866740Y-85825500D01*
X113533261Y-85825500D01*
X113555971Y-85822191D01*
X113601393Y-85815573D01*
X113706483Y-85764198D01*
X113758863Y-85711817D01*
X113785794Y-85697111D01*
X113811608Y-85680523D01*
X113817807Y-85679631D01*
X113820184Y-85678334D01*
X113846543Y-85675500D01*
X113998456Y-85675500D01*
X114065495Y-85695185D01*
X114086137Y-85711819D01*
X120572364Y-92198046D01*
X120605849Y-92259369D01*
X120600865Y-92329061D01*
X120595170Y-92342017D01*
X120591115Y-92349974D01*
X120591114Y-92349978D01*
X120530291Y-92537169D01*
X120530291Y-92537172D01*
X120499500Y-92731577D01*
X120499500Y-92928422D01*
X120530290Y-93122826D01*
X120591117Y-93310029D01*
X120659888Y-93444999D01*
X120680476Y-93485405D01*
X120796172Y-93644646D01*
X120935354Y-93783828D01*
X121094595Y-93899524D01*
X121217992Y-93962397D01*
X121271213Y-93989515D01*
X121322009Y-94037489D01*
X121338804Y-94105310D01*
X121316267Y-94171445D01*
X121271213Y-94210485D01*
X121094594Y-94300476D01*
X121039252Y-94340685D01*
X120935354Y-94416172D01*
X120935352Y-94416174D01*
X120935351Y-94416174D01*
X120796174Y-94555351D01*
X120796174Y-94555352D01*
X120796172Y-94555354D01*
X120784454Y-94571483D01*
X120680476Y-94714594D01*
X120591117Y-94889970D01*
X120530290Y-95077173D01*
X120499500Y-95271577D01*
X120499500Y-95468422D01*
X120530290Y-95662826D01*
X120591117Y-95850029D01*
X120680476Y-96025405D01*
X120735802Y-96101554D01*
X120759282Y-96167360D01*
X120743457Y-96235414D01*
X120693351Y-96284109D01*
X120624873Y-96297985D01*
X120559764Y-96272636D01*
X120547803Y-96262121D01*
X119886819Y-95601137D01*
X119853334Y-95539814D01*
X119850500Y-95513456D01*
X119850500Y-92398859D01*
X119850500Y-92398857D01*
X119826614Y-92309713D01*
X119780470Y-92229789D01*
X113865211Y-86314530D01*
X113865210Y-86314529D01*
X113865207Y-86314527D01*
X113843857Y-86302201D01*
X113795642Y-86251634D01*
X113794476Y-86249315D01*
X113789198Y-86238517D01*
X113706483Y-86155802D01*
X113601393Y-86104427D01*
X113601391Y-86104426D01*
X113533261Y-86094500D01*
X113533260Y-86094500D01*
X111866740Y-86094500D01*
X111866739Y-86094500D01*
X111798608Y-86104426D01*
X111693514Y-86155803D01*
X111610803Y-86238514D01*
X111559426Y-86343608D01*
X111549500Y-86411739D01*
X111549500Y-86778260D01*
X111559426Y-86846391D01*
X111610803Y-86951485D01*
X111693514Y-87034196D01*
X111693515Y-87034196D01*
X111693517Y-87034198D01*
X111798607Y-87085573D01*
X111832673Y-87090536D01*
X111866739Y-87095500D01*
X111866740Y-87095500D01*
X113533258Y-87095500D01*
X113533260Y-87095500D01*
X113577793Y-87089011D01*
X113582431Y-87089669D01*
X113586824Y-87088031D01*
X113616697Y-87094529D01*
X113646967Y-87098823D01*
X113651787Y-87102162D01*
X113655097Y-87102883D01*
X113683351Y-87124034D01*
X113728443Y-87169126D01*
X113761928Y-87230449D01*
X113756944Y-87300141D01*
X113715072Y-87356074D01*
X113649608Y-87380491D01*
X113604156Y-87375281D01*
X113601394Y-87374427D01*
X113601393Y-87374427D01*
X113601391Y-87374426D01*
X113601389Y-87374426D01*
X113533261Y-87364500D01*
X113533260Y-87364500D01*
X111866740Y-87364500D01*
X111866739Y-87364500D01*
X111798608Y-87374426D01*
X111693514Y-87425803D01*
X111610803Y-87508514D01*
X111559426Y-87613608D01*
X111549500Y-87681739D01*
X111549500Y-88048260D01*
X111559426Y-88116391D01*
X111610803Y-88221485D01*
X111693514Y-88304196D01*
X111693515Y-88304196D01*
X111693517Y-88304198D01*
X111798607Y-88355573D01*
X111832673Y-88360536D01*
X111866739Y-88365500D01*
X111866740Y-88365500D01*
X113533261Y-88365500D01*
X113555971Y-88362191D01*
X113601393Y-88355573D01*
X113706483Y-88304198D01*
X113789198Y-88221483D01*
X113840573Y-88116393D01*
X113850500Y-88048260D01*
X113850500Y-87681740D01*
X113840573Y-87613607D01*
X113840570Y-87613602D01*
X113839720Y-87610849D01*
X113839671Y-87607417D01*
X113839185Y-87604078D01*
X113839623Y-87604014D01*
X113838733Y-87540986D01*
X113875674Y-87481680D01*
X113938813Y-87451761D01*
X114008105Y-87460726D01*
X114045873Y-87486556D01*
X119113181Y-92553864D01*
X119146666Y-92615187D01*
X119149500Y-92641545D01*
X119149500Y-95756144D01*
X119165742Y-95816758D01*
X119173386Y-95845287D01*
X119173387Y-95845290D01*
X119219527Y-95925208D01*
X119219531Y-95925213D01*
X120572364Y-97278046D01*
X120605849Y-97339369D01*
X120600865Y-97409061D01*
X120595170Y-97422017D01*
X120591115Y-97429974D01*
X120591114Y-97429978D01*
X120530291Y-97617169D01*
X120530291Y-97617172D01*
X120499500Y-97811577D01*
X120499500Y-98008422D01*
X120530290Y-98202826D01*
X120591117Y-98390029D01*
X120680476Y-98565405D01*
X120796172Y-98724646D01*
X120935354Y-98863828D01*
X121094595Y-98979524D01*
X121217992Y-99042397D01*
X121271213Y-99069515D01*
X121322009Y-99117489D01*
X121338804Y-99185310D01*
X121316267Y-99251445D01*
X121271213Y-99290485D01*
X121094594Y-99380476D01*
X121003741Y-99446485D01*
X120935354Y-99496172D01*
X120935352Y-99496174D01*
X120935351Y-99496174D01*
X120796174Y-99635351D01*
X120796174Y-99635352D01*
X120796172Y-99635354D01*
X120746485Y-99703741D01*
X120680476Y-99794594D01*
X120591117Y-99969970D01*
X120530290Y-100157173D01*
X120499500Y-100351577D01*
X120499500Y-100548422D01*
X120530290Y-100742826D01*
X120591117Y-100930029D01*
X120680476Y-101105405D01*
X120796172Y-101264646D01*
X120935354Y-101403828D01*
X121094595Y-101519524D01*
X121177455Y-101561743D01*
X121269970Y-101608882D01*
X121269972Y-101608882D01*
X121269975Y-101608884D01*
X121370317Y-101641487D01*
X121457173Y-101669709D01*
X121651578Y-101700500D01*
X121651583Y-101700500D01*
X121848422Y-101700500D01*
X122042826Y-101669709D01*
X122230025Y-101608884D01*
X122405405Y-101519524D01*
X122564646Y-101403828D01*
X122703828Y-101264646D01*
X122819524Y-101105405D01*
X122908884Y-100930025D01*
X122969709Y-100742826D01*
X123000500Y-100548422D01*
X123000500Y-100351577D01*
X122969709Y-100157173D01*
X122908882Y-99969970D01*
X122819523Y-99794594D01*
X122703828Y-99635354D01*
X122564646Y-99496172D01*
X122485025Y-99438324D01*
X122405403Y-99380474D01*
X122228787Y-99290485D01*
X122177990Y-99242511D01*
X122161195Y-99174690D01*
X122183732Y-99108555D01*
X122228787Y-99069515D01*
X122405403Y-98979525D01*
X122405402Y-98979525D01*
X122405405Y-98979524D01*
X122564646Y-98863828D01*
X122703828Y-98724646D01*
X122819524Y-98565405D01*
X122908884Y-98390025D01*
X122969709Y-98202826D01*
X123000500Y-98008422D01*
X123000500Y-97811577D01*
X122969709Y-97617173D01*
X122908882Y-97429970D01*
X122861743Y-97337455D01*
X122819524Y-97254595D01*
X122703828Y-97095354D01*
X122564646Y-96956172D01*
X122485025Y-96898324D01*
X122405403Y-96840474D01*
X122228787Y-96750485D01*
X122177990Y-96702511D01*
X122161195Y-96634690D01*
X122183732Y-96568555D01*
X122228787Y-96529515D01*
X122405403Y-96439525D01*
X122405402Y-96439525D01*
X122405405Y-96439524D01*
X122564646Y-96323828D01*
X122703828Y-96184646D01*
X122819524Y-96025405D01*
X122908884Y-95850025D01*
X122969709Y-95662826D01*
X122971008Y-95654623D01*
X123000500Y-95468422D01*
X123000500Y-95271577D01*
X122969709Y-95077173D01*
X122908882Y-94889970D01*
X122837818Y-94750499D01*
X122819524Y-94714595D01*
X122703828Y-94555354D01*
X122564646Y-94416172D01*
X122460748Y-94340685D01*
X122405403Y-94300474D01*
X122228787Y-94210485D01*
X122177990Y-94162511D01*
X122161195Y-94094690D01*
X122183732Y-94028555D01*
X122228787Y-93989515D01*
X122405403Y-93899525D01*
X122405402Y-93899525D01*
X122405405Y-93899524D01*
X122564646Y-93783828D01*
X122703828Y-93644646D01*
X122819524Y-93485405D01*
X122908884Y-93310025D01*
X122969709Y-93122826D01*
X122980501Y-93054690D01*
X123000500Y-92928422D01*
X123000500Y-92731577D01*
X122969709Y-92537173D01*
X122917892Y-92377698D01*
X122908884Y-92349975D01*
X122908882Y-92349972D01*
X122908882Y-92349970D01*
X122861743Y-92257455D01*
X122819524Y-92174595D01*
X122703828Y-92015354D01*
X122564646Y-91876172D01*
X122443126Y-91787882D01*
X122405403Y-91760474D01*
X122228787Y-91670485D01*
X122177990Y-91622511D01*
X122161195Y-91554690D01*
X122183732Y-91488555D01*
X122228787Y-91449515D01*
X122405403Y-91359525D01*
X122405402Y-91359525D01*
X122405405Y-91359524D01*
X122564646Y-91243828D01*
X122703828Y-91104646D01*
X122819524Y-90945405D01*
X122908884Y-90770025D01*
X122969709Y-90582826D01*
X122972641Y-90564313D01*
X123000500Y-90388422D01*
X123000500Y-90191577D01*
X122969709Y-89997173D01*
X122938897Y-89902346D01*
X122908884Y-89809975D01*
X122908882Y-89809972D01*
X122908882Y-89809970D01*
X122856320Y-89706812D01*
X122819524Y-89634595D01*
X122703828Y-89475354D01*
X122564646Y-89336172D01*
X122485025Y-89278324D01*
X122405403Y-89220474D01*
X122228787Y-89130485D01*
X122177990Y-89082511D01*
X122161195Y-89014690D01*
X122183732Y-88948555D01*
X122228787Y-88909515D01*
X122405403Y-88819525D01*
X122405402Y-88819525D01*
X122405405Y-88819524D01*
X122564646Y-88703828D01*
X122703828Y-88564646D01*
X122819524Y-88405405D01*
X122908884Y-88230025D01*
X122969709Y-88042826D01*
X123000500Y-87848422D01*
X123000500Y-87651577D01*
X122969709Y-87457173D01*
X122934038Y-87347390D01*
X122908884Y-87269975D01*
X122908882Y-87269972D01*
X122908882Y-87269970D01*
X122857811Y-87169738D01*
X122819524Y-87094595D01*
X122703828Y-86935354D01*
X122564646Y-86796172D01*
X122469506Y-86727048D01*
X122405403Y-86680474D01*
X122228787Y-86590485D01*
X122177990Y-86542511D01*
X122161195Y-86474690D01*
X122183732Y-86408555D01*
X122228787Y-86369515D01*
X122405403Y-86279525D01*
X122405402Y-86279525D01*
X122405405Y-86279524D01*
X122564646Y-86163828D01*
X122703828Y-86024646D01*
X122819524Y-85865405D01*
X122908884Y-85690025D01*
X122969709Y-85502826D01*
X122981438Y-85428771D01*
X123000500Y-85308422D01*
X123000500Y-85111577D01*
X122969709Y-84917173D01*
X122924196Y-84777101D01*
X122908884Y-84729975D01*
X122908882Y-84729972D01*
X122908882Y-84729970D01*
X122835977Y-84586887D01*
X122819524Y-84554595D01*
X122703828Y-84395354D01*
X122564646Y-84256172D01*
X122411377Y-84144815D01*
X122368714Y-84089487D01*
X122362735Y-84019873D01*
X122395341Y-83958078D01*
X122456180Y-83923721D01*
X122484264Y-83920499D01*
X122604264Y-83920499D01*
X122634698Y-83917646D01*
X122762882Y-83872793D01*
X122872150Y-83792150D01*
X122952793Y-83682882D01*
X122997646Y-83554698D01*
X123000500Y-83524265D01*
X123000499Y-81815736D01*
X122997646Y-81785302D01*
X122952793Y-81657118D01*
X122872150Y-81547850D01*
X122762882Y-81467207D01*
X122762881Y-81467206D01*
X122634695Y-81422353D01*
X122634698Y-81422353D01*
X122604268Y-81419500D01*
X120895741Y-81419500D01*
X120865301Y-81422354D01*
X120865300Y-81422354D01*
X120737118Y-81467206D01*
X120627850Y-81547850D01*
X120547206Y-81657118D01*
X120502353Y-81785302D01*
X120499500Y-81815731D01*
X120499500Y-82310500D01*
X120479815Y-82377539D01*
X120427011Y-82423294D01*
X120375500Y-82434500D01*
X113846543Y-82434500D01*
X113779504Y-82414815D01*
X113758866Y-82398185D01*
X113706483Y-82345802D01*
X113601393Y-82294427D01*
X113601391Y-82294426D01*
X113533261Y-82284500D01*
X113533260Y-82284500D01*
X111866740Y-82284500D01*
X111866739Y-82284500D01*
X111798608Y-82294426D01*
X111693514Y-82345803D01*
X111610803Y-82428514D01*
X111559426Y-82533608D01*
X111549500Y-82601739D01*
X104650500Y-82601739D01*
X104640573Y-82533607D01*
X104589198Y-82428517D01*
X104589196Y-82428515D01*
X104589196Y-82428514D01*
X104506485Y-82345803D01*
X104401391Y-82294426D01*
X104333261Y-82284500D01*
X104333260Y-82284500D01*
X102666740Y-82284500D01*
X102666739Y-82284500D01*
X102598608Y-82294426D01*
X102493514Y-82345803D01*
X102410805Y-82428512D01*
X102407923Y-82432550D01*
X102352949Y-82475674D01*
X102307003Y-82484500D01*
X74175833Y-82484500D01*
X74108794Y-82464815D01*
X74088152Y-82448181D01*
X73486819Y-81846848D01*
X73453334Y-81785525D01*
X73450500Y-81759167D01*
X73450500Y-80785406D01*
X74448202Y-80785406D01*
X74448202Y-80917189D01*
X74482310Y-81044485D01*
X74504898Y-81083608D01*
X74548202Y-81158612D01*
X74641388Y-81251798D01*
X74755516Y-81317690D01*
X74882810Y-81351798D01*
X74882812Y-81351798D01*
X75014592Y-81351798D01*
X75014594Y-81351798D01*
X75141888Y-81317690D01*
X75256016Y-81251798D01*
X75349202Y-81158612D01*
X75375825Y-81112500D01*
X75426392Y-81064284D01*
X75483212Y-81050500D01*
X78995685Y-81050500D01*
X79062724Y-81070185D01*
X79108479Y-81122989D01*
X79118423Y-81192147D01*
X79103072Y-81236501D01*
X79099502Y-81242683D01*
X79099500Y-81242686D01*
X79069509Y-81294630D01*
X79033608Y-81356812D01*
X78999500Y-81484108D01*
X78999500Y-81615891D01*
X79033608Y-81743187D01*
X79057923Y-81785301D01*
X79099500Y-81857314D01*
X79192686Y-81950500D01*
X79306814Y-82016392D01*
X79434108Y-82050500D01*
X79434110Y-82050500D01*
X79565890Y-82050500D01*
X79565892Y-82050500D01*
X79693186Y-82016392D01*
X79807314Y-81950500D01*
X79900500Y-81857314D01*
X79900504Y-81857306D01*
X79905448Y-81850865D01*
X79907807Y-81852675D01*
X79948080Y-81814280D01*
X80004893Y-81800500D01*
X119051160Y-81800500D01*
X119051162Y-81800500D01*
X119127589Y-81780021D01*
X119196111Y-81740460D01*
X119252060Y-81684511D01*
X120886165Y-80050404D01*
X120947486Y-80016921D01*
X121017177Y-80021905D01*
X121021254Y-80023509D01*
X121118165Y-80063651D01*
X121118169Y-80063651D01*
X121118170Y-80063652D01*
X121311456Y-80102100D01*
X121311459Y-80102100D01*
X121508543Y-80102100D01*
X121658887Y-80072194D01*
X121701835Y-80063651D01*
X121883914Y-79988232D01*
X122047782Y-79878739D01*
X122187139Y-79739382D01*
X122296632Y-79575514D01*
X122372051Y-79393435D01*
X122410500Y-79200141D01*
X122410500Y-79003059D01*
X122410500Y-79003056D01*
X122372052Y-78809770D01*
X122372051Y-78809769D01*
X122372051Y-78809765D01*
X122322065Y-78689087D01*
X122296635Y-78627692D01*
X122296628Y-78627679D01*
X122187139Y-78463818D01*
X122187136Y-78463814D01*
X122047785Y-78324463D01*
X122047781Y-78324460D01*
X121883920Y-78214971D01*
X121883907Y-78214964D01*
X121701839Y-78139550D01*
X121701829Y-78139547D01*
X121508543Y-78101100D01*
X121508541Y-78101100D01*
X121311459Y-78101100D01*
X121311457Y-78101100D01*
X121118170Y-78139547D01*
X121118160Y-78139550D01*
X120936092Y-78214964D01*
X120936079Y-78214971D01*
X120772218Y-78324460D01*
X120772214Y-78324463D01*
X120632863Y-78463814D01*
X120632860Y-78463818D01*
X120523371Y-78627679D01*
X120523364Y-78627692D01*
X120447950Y-78809760D01*
X120447947Y-78809770D01*
X120409500Y-79003056D01*
X120409500Y-79003059D01*
X120409500Y-79200141D01*
X120409500Y-79200143D01*
X120409499Y-79200143D01*
X120447947Y-79393429D01*
X120447950Y-79393439D01*
X120488072Y-79490302D01*
X120495541Y-79559771D01*
X120464266Y-79622250D01*
X120461192Y-79625435D01*
X118923448Y-81163181D01*
X118862125Y-81196666D01*
X118835767Y-81199500D01*
X117496433Y-81199500D01*
X117429394Y-81179815D01*
X117383639Y-81127011D01*
X117373695Y-81057853D01*
X117402720Y-80994297D01*
X117408752Y-80987819D01*
X117462060Y-80934511D01*
X117611165Y-80785406D01*
X118346165Y-80050404D01*
X118407486Y-80016921D01*
X118477177Y-80021905D01*
X118481254Y-80023509D01*
X118578165Y-80063651D01*
X118578169Y-80063651D01*
X118578170Y-80063652D01*
X118771456Y-80102100D01*
X118771459Y-80102100D01*
X118968543Y-80102100D01*
X119118887Y-80072194D01*
X119161835Y-80063651D01*
X119343914Y-79988232D01*
X119507782Y-79878739D01*
X119647139Y-79739382D01*
X119756632Y-79575514D01*
X119832051Y-79393435D01*
X119870500Y-79200141D01*
X119870500Y-79003059D01*
X119870500Y-79003056D01*
X119832052Y-78809770D01*
X119832051Y-78809769D01*
X119832051Y-78809765D01*
X119782065Y-78689087D01*
X119756635Y-78627692D01*
X119756628Y-78627679D01*
X119647139Y-78463818D01*
X119647136Y-78463814D01*
X119507785Y-78324463D01*
X119507781Y-78324460D01*
X119343920Y-78214971D01*
X119343907Y-78214964D01*
X119161839Y-78139550D01*
X119161829Y-78139547D01*
X118968543Y-78101100D01*
X118968541Y-78101100D01*
X118771459Y-78101100D01*
X118771457Y-78101100D01*
X118578170Y-78139547D01*
X118578160Y-78139550D01*
X118396092Y-78214964D01*
X118396079Y-78214971D01*
X118232218Y-78324460D01*
X118232214Y-78324463D01*
X118092863Y-78463814D01*
X118092860Y-78463818D01*
X117983371Y-78627679D01*
X117983364Y-78627692D01*
X117907950Y-78809760D01*
X117907947Y-78809770D01*
X117869500Y-79003056D01*
X117869500Y-79003059D01*
X117869500Y-79200141D01*
X117869500Y-79200143D01*
X117869499Y-79200143D01*
X117907947Y-79393429D01*
X117907950Y-79393439D01*
X117948072Y-79490302D01*
X117955541Y-79559771D01*
X117924266Y-79622250D01*
X117921192Y-79625435D01*
X117133448Y-80413181D01*
X117072125Y-80446666D01*
X117045767Y-80449500D01*
X75286993Y-80449500D01*
X75224993Y-80432887D01*
X75141890Y-80384907D01*
X75141889Y-80384906D01*
X75141888Y-80384906D01*
X75014594Y-80350798D01*
X74882810Y-80350798D01*
X74755514Y-80384906D01*
X74641388Y-80450798D01*
X74641385Y-80450800D01*
X74548204Y-80543981D01*
X74548202Y-80543984D01*
X74482310Y-80658110D01*
X74448202Y-80785406D01*
X73450500Y-80785406D01*
X73450500Y-80142915D01*
X73470185Y-80075876D01*
X73522989Y-80030121D01*
X73527002Y-80028373D01*
X73623914Y-79988232D01*
X73787782Y-79878739D01*
X73927139Y-79739382D01*
X74036632Y-79575514D01*
X74112051Y-79393435D01*
X74150500Y-79200143D01*
X74689499Y-79200143D01*
X74727947Y-79393429D01*
X74727950Y-79393439D01*
X74803364Y-79575507D01*
X74803371Y-79575520D01*
X74912860Y-79739381D01*
X74912863Y-79739385D01*
X75052214Y-79878736D01*
X75052218Y-79878739D01*
X75216079Y-79988228D01*
X75216092Y-79988235D01*
X75366188Y-80050406D01*
X75398165Y-80063651D01*
X75398169Y-80063651D01*
X75398170Y-80063652D01*
X75591456Y-80102100D01*
X75591459Y-80102100D01*
X75788543Y-80102100D01*
X75938887Y-80072194D01*
X75981835Y-80063651D01*
X76163914Y-79988232D01*
X76327782Y-79878739D01*
X76467139Y-79739382D01*
X76576632Y-79575514D01*
X76652051Y-79393435D01*
X76690500Y-79200143D01*
X77229499Y-79200143D01*
X77267947Y-79393429D01*
X77267950Y-79393439D01*
X77343364Y-79575507D01*
X77343371Y-79575520D01*
X77452860Y-79739381D01*
X77452863Y-79739385D01*
X77592214Y-79878736D01*
X77592218Y-79878739D01*
X77756079Y-79988228D01*
X77756092Y-79988235D01*
X77906188Y-80050406D01*
X77938165Y-80063651D01*
X77938169Y-80063651D01*
X77938170Y-80063652D01*
X78131456Y-80102100D01*
X78131459Y-80102100D01*
X78328543Y-80102100D01*
X78478887Y-80072194D01*
X78521835Y-80063651D01*
X78703914Y-79988232D01*
X78867782Y-79878739D01*
X79007139Y-79739382D01*
X79116632Y-79575514D01*
X79192051Y-79393435D01*
X79230500Y-79200143D01*
X79769499Y-79200143D01*
X79807947Y-79393429D01*
X79807950Y-79393439D01*
X79883364Y-79575507D01*
X79883371Y-79575520D01*
X79992860Y-79739381D01*
X79992863Y-79739385D01*
X80132214Y-79878736D01*
X80132218Y-79878739D01*
X80296079Y-79988228D01*
X80296092Y-79988235D01*
X80446188Y-80050406D01*
X80478165Y-80063651D01*
X80478169Y-80063651D01*
X80478170Y-80063652D01*
X80671456Y-80102100D01*
X80671459Y-80102100D01*
X80868543Y-80102100D01*
X81018887Y-80072194D01*
X81061835Y-80063651D01*
X81243914Y-79988232D01*
X81407782Y-79878739D01*
X81547139Y-79739382D01*
X81656632Y-79575514D01*
X81732051Y-79393435D01*
X81770500Y-79200143D01*
X82309499Y-79200143D01*
X82347947Y-79393429D01*
X82347950Y-79393439D01*
X82423364Y-79575507D01*
X82423371Y-79575520D01*
X82532860Y-79739381D01*
X82532863Y-79739385D01*
X82672214Y-79878736D01*
X82672218Y-79878739D01*
X82836079Y-79988228D01*
X82836092Y-79988235D01*
X82986188Y-80050406D01*
X83018165Y-80063651D01*
X83018169Y-80063651D01*
X83018170Y-80063652D01*
X83211456Y-80102100D01*
X83211459Y-80102100D01*
X83408543Y-80102100D01*
X83558887Y-80072194D01*
X83601835Y-80063651D01*
X83783914Y-79988232D01*
X83947782Y-79878739D01*
X84087139Y-79739382D01*
X84196632Y-79575514D01*
X84272051Y-79393435D01*
X84310500Y-79200143D01*
X84849499Y-79200143D01*
X84887947Y-79393429D01*
X84887950Y-79393439D01*
X84963364Y-79575507D01*
X84963371Y-79575520D01*
X85072860Y-79739381D01*
X85072863Y-79739385D01*
X85212214Y-79878736D01*
X85212218Y-79878739D01*
X85376079Y-79988228D01*
X85376092Y-79988235D01*
X85526188Y-80050406D01*
X85558165Y-80063651D01*
X85558169Y-80063651D01*
X85558170Y-80063652D01*
X85751456Y-80102100D01*
X85751459Y-80102100D01*
X85948543Y-80102100D01*
X86098887Y-80072194D01*
X86141835Y-80063651D01*
X86323914Y-79988232D01*
X86487782Y-79878739D01*
X86627139Y-79739382D01*
X86736632Y-79575514D01*
X86812051Y-79393435D01*
X86850500Y-79200143D01*
X87389499Y-79200143D01*
X87427947Y-79393429D01*
X87427950Y-79393439D01*
X87503364Y-79575507D01*
X87503371Y-79575520D01*
X87612860Y-79739381D01*
X87612863Y-79739385D01*
X87752214Y-79878736D01*
X87752218Y-79878739D01*
X87916079Y-79988228D01*
X87916092Y-79988235D01*
X88066188Y-80050406D01*
X88098165Y-80063651D01*
X88098169Y-80063651D01*
X88098170Y-80063652D01*
X88291456Y-80102100D01*
X88291459Y-80102100D01*
X88488543Y-80102100D01*
X88638887Y-80072194D01*
X88681835Y-80063651D01*
X88863914Y-79988232D01*
X89027782Y-79878739D01*
X89167139Y-79739382D01*
X89276632Y-79575514D01*
X89352051Y-79393435D01*
X89390500Y-79200143D01*
X89929499Y-79200143D01*
X89967947Y-79393429D01*
X89967950Y-79393439D01*
X90043364Y-79575507D01*
X90043371Y-79575520D01*
X90152860Y-79739381D01*
X90152863Y-79739385D01*
X90292214Y-79878736D01*
X90292218Y-79878739D01*
X90456079Y-79988228D01*
X90456092Y-79988235D01*
X90606188Y-80050406D01*
X90638165Y-80063651D01*
X90638169Y-80063651D01*
X90638170Y-80063652D01*
X90831456Y-80102100D01*
X90831459Y-80102100D01*
X91028543Y-80102100D01*
X91178887Y-80072194D01*
X91221835Y-80063651D01*
X91403914Y-79988232D01*
X91567782Y-79878739D01*
X91707139Y-79739382D01*
X91816632Y-79575514D01*
X91892051Y-79393435D01*
X91930500Y-79200143D01*
X92469499Y-79200143D01*
X92507947Y-79393429D01*
X92507950Y-79393439D01*
X92583364Y-79575507D01*
X92583371Y-79575520D01*
X92692860Y-79739381D01*
X92692863Y-79739385D01*
X92832214Y-79878736D01*
X92832218Y-79878739D01*
X92996079Y-79988228D01*
X92996092Y-79988235D01*
X93146188Y-80050406D01*
X93178165Y-80063651D01*
X93178169Y-80063651D01*
X93178170Y-80063652D01*
X93371456Y-80102100D01*
X93371459Y-80102100D01*
X93568543Y-80102100D01*
X93718887Y-80072194D01*
X93761835Y-80063651D01*
X93943914Y-79988232D01*
X94107782Y-79878739D01*
X94247139Y-79739382D01*
X94356632Y-79575514D01*
X94432051Y-79393435D01*
X94470500Y-79200143D01*
X95009499Y-79200143D01*
X95047947Y-79393429D01*
X95047950Y-79393439D01*
X95123364Y-79575507D01*
X95123371Y-79575520D01*
X95232860Y-79739381D01*
X95232863Y-79739385D01*
X95372214Y-79878736D01*
X95372218Y-79878739D01*
X95536079Y-79988228D01*
X95536092Y-79988235D01*
X95686188Y-80050406D01*
X95718165Y-80063651D01*
X95718169Y-80063651D01*
X95718170Y-80063652D01*
X95911456Y-80102100D01*
X95911459Y-80102100D01*
X96108543Y-80102100D01*
X96258887Y-80072194D01*
X96301835Y-80063651D01*
X96483914Y-79988232D01*
X96647782Y-79878739D01*
X96787139Y-79739382D01*
X96896632Y-79575514D01*
X96972051Y-79393435D01*
X97010500Y-79200143D01*
X97549499Y-79200143D01*
X97587947Y-79393429D01*
X97587950Y-79393439D01*
X97663364Y-79575507D01*
X97663371Y-79575520D01*
X97772860Y-79739381D01*
X97772863Y-79739385D01*
X97912214Y-79878736D01*
X97912218Y-79878739D01*
X98076079Y-79988228D01*
X98076092Y-79988235D01*
X98226188Y-80050406D01*
X98258165Y-80063651D01*
X98258169Y-80063651D01*
X98258170Y-80063652D01*
X98451456Y-80102100D01*
X98451459Y-80102100D01*
X98648543Y-80102100D01*
X98798887Y-80072194D01*
X98841835Y-80063651D01*
X99023914Y-79988232D01*
X99187782Y-79878739D01*
X99327139Y-79739382D01*
X99436632Y-79575514D01*
X99512051Y-79393435D01*
X99550500Y-79200141D01*
X99550500Y-79003059D01*
X99550500Y-79003056D01*
X99512052Y-78809770D01*
X99512051Y-78809769D01*
X99512051Y-78809765D01*
X99462065Y-78689087D01*
X99436635Y-78627692D01*
X99436628Y-78627679D01*
X99327139Y-78463818D01*
X99327136Y-78463814D01*
X99187785Y-78324463D01*
X99187781Y-78324460D01*
X99023920Y-78214971D01*
X99023907Y-78214964D01*
X98841839Y-78139550D01*
X98841829Y-78139547D01*
X98648543Y-78101100D01*
X98648541Y-78101100D01*
X98451459Y-78101100D01*
X98451457Y-78101100D01*
X98258170Y-78139547D01*
X98258160Y-78139550D01*
X98076092Y-78214964D01*
X98076079Y-78214971D01*
X97912218Y-78324460D01*
X97912214Y-78324463D01*
X97772863Y-78463814D01*
X97772860Y-78463818D01*
X97663371Y-78627679D01*
X97663364Y-78627692D01*
X97587950Y-78809760D01*
X97587947Y-78809770D01*
X97549500Y-79003056D01*
X97549500Y-79003059D01*
X97549500Y-79200141D01*
X97549500Y-79200143D01*
X97549499Y-79200143D01*
X97010500Y-79200143D01*
X97010500Y-79200141D01*
X97010500Y-79003059D01*
X97010500Y-79003056D01*
X96972052Y-78809770D01*
X96972051Y-78809769D01*
X96972051Y-78809765D01*
X96922065Y-78689087D01*
X96896635Y-78627692D01*
X96896628Y-78627679D01*
X96787139Y-78463818D01*
X96787136Y-78463814D01*
X96647785Y-78324463D01*
X96647781Y-78324460D01*
X96483920Y-78214971D01*
X96483907Y-78214964D01*
X96301839Y-78139550D01*
X96301829Y-78139547D01*
X96108543Y-78101100D01*
X96108541Y-78101100D01*
X95911459Y-78101100D01*
X95911457Y-78101100D01*
X95718170Y-78139547D01*
X95718160Y-78139550D01*
X95536092Y-78214964D01*
X95536079Y-78214971D01*
X95372218Y-78324460D01*
X95372214Y-78324463D01*
X95232863Y-78463814D01*
X95232860Y-78463818D01*
X95123371Y-78627679D01*
X95123364Y-78627692D01*
X95047950Y-78809760D01*
X95047947Y-78809770D01*
X95009500Y-79003056D01*
X95009500Y-79003059D01*
X95009500Y-79200141D01*
X95009500Y-79200143D01*
X95009499Y-79200143D01*
X94470500Y-79200143D01*
X94470500Y-79200141D01*
X94470500Y-79003059D01*
X94470500Y-79003056D01*
X94432052Y-78809770D01*
X94432051Y-78809769D01*
X94432051Y-78809765D01*
X94382065Y-78689087D01*
X94356635Y-78627692D01*
X94356628Y-78627679D01*
X94247139Y-78463818D01*
X94247136Y-78463814D01*
X94107785Y-78324463D01*
X94107781Y-78324460D01*
X93943920Y-78214971D01*
X93943907Y-78214964D01*
X93761839Y-78139550D01*
X93761829Y-78139547D01*
X93568543Y-78101100D01*
X93568541Y-78101100D01*
X93371459Y-78101100D01*
X93371457Y-78101100D01*
X93178170Y-78139547D01*
X93178160Y-78139550D01*
X92996092Y-78214964D01*
X92996079Y-78214971D01*
X92832218Y-78324460D01*
X92832214Y-78324463D01*
X92692863Y-78463814D01*
X92692860Y-78463818D01*
X92583371Y-78627679D01*
X92583364Y-78627692D01*
X92507950Y-78809760D01*
X92507947Y-78809770D01*
X92469500Y-79003056D01*
X92469500Y-79003059D01*
X92469500Y-79200141D01*
X92469500Y-79200143D01*
X92469499Y-79200143D01*
X91930500Y-79200143D01*
X91930500Y-79200141D01*
X91930500Y-79003059D01*
X91930500Y-79003056D01*
X91892052Y-78809770D01*
X91892051Y-78809769D01*
X91892051Y-78809765D01*
X91842065Y-78689087D01*
X91816635Y-78627692D01*
X91816628Y-78627679D01*
X91707139Y-78463818D01*
X91707136Y-78463814D01*
X91567785Y-78324463D01*
X91567781Y-78324460D01*
X91403920Y-78214971D01*
X91403907Y-78214964D01*
X91221839Y-78139550D01*
X91221829Y-78139547D01*
X91028543Y-78101100D01*
X91028541Y-78101100D01*
X90831459Y-78101100D01*
X90831457Y-78101100D01*
X90638170Y-78139547D01*
X90638160Y-78139550D01*
X90456092Y-78214964D01*
X90456079Y-78214971D01*
X90292218Y-78324460D01*
X90292214Y-78324463D01*
X90152863Y-78463814D01*
X90152860Y-78463818D01*
X90043371Y-78627679D01*
X90043364Y-78627692D01*
X89967950Y-78809760D01*
X89967947Y-78809770D01*
X89929500Y-79003056D01*
X89929500Y-79003059D01*
X89929500Y-79200141D01*
X89929500Y-79200143D01*
X89929499Y-79200143D01*
X89390500Y-79200143D01*
X89390500Y-79200141D01*
X89390500Y-79003059D01*
X89390500Y-79003056D01*
X89352052Y-78809770D01*
X89352051Y-78809769D01*
X89352051Y-78809765D01*
X89302065Y-78689087D01*
X89276635Y-78627692D01*
X89276628Y-78627679D01*
X89167139Y-78463818D01*
X89167136Y-78463814D01*
X89027785Y-78324463D01*
X89027781Y-78324460D01*
X88863920Y-78214971D01*
X88863907Y-78214964D01*
X88681839Y-78139550D01*
X88681829Y-78139547D01*
X88488543Y-78101100D01*
X88488541Y-78101100D01*
X88291459Y-78101100D01*
X88291457Y-78101100D01*
X88098170Y-78139547D01*
X88098160Y-78139550D01*
X87916092Y-78214964D01*
X87916079Y-78214971D01*
X87752218Y-78324460D01*
X87752214Y-78324463D01*
X87612863Y-78463814D01*
X87612860Y-78463818D01*
X87503371Y-78627679D01*
X87503364Y-78627692D01*
X87427950Y-78809760D01*
X87427947Y-78809770D01*
X87389500Y-79003056D01*
X87389500Y-79003059D01*
X87389500Y-79200141D01*
X87389500Y-79200143D01*
X87389499Y-79200143D01*
X86850500Y-79200143D01*
X86850500Y-79200141D01*
X86850500Y-79003059D01*
X86850500Y-79003056D01*
X86812052Y-78809770D01*
X86812051Y-78809769D01*
X86812051Y-78809765D01*
X86762065Y-78689087D01*
X86736635Y-78627692D01*
X86736628Y-78627679D01*
X86627139Y-78463818D01*
X86627136Y-78463814D01*
X86487785Y-78324463D01*
X86487781Y-78324460D01*
X86323920Y-78214971D01*
X86323907Y-78214964D01*
X86141839Y-78139550D01*
X86141829Y-78139547D01*
X85948543Y-78101100D01*
X85948541Y-78101100D01*
X85751459Y-78101100D01*
X85751457Y-78101100D01*
X85558170Y-78139547D01*
X85558160Y-78139550D01*
X85376092Y-78214964D01*
X85376079Y-78214971D01*
X85212218Y-78324460D01*
X85212214Y-78324463D01*
X85072863Y-78463814D01*
X85072860Y-78463818D01*
X84963371Y-78627679D01*
X84963364Y-78627692D01*
X84887950Y-78809760D01*
X84887947Y-78809770D01*
X84849500Y-79003056D01*
X84849500Y-79003059D01*
X84849500Y-79200141D01*
X84849500Y-79200143D01*
X84849499Y-79200143D01*
X84310500Y-79200143D01*
X84310500Y-79200141D01*
X84310500Y-79003059D01*
X84310500Y-79003056D01*
X84272052Y-78809770D01*
X84272051Y-78809769D01*
X84272051Y-78809765D01*
X84222065Y-78689087D01*
X84196635Y-78627692D01*
X84196628Y-78627679D01*
X84087139Y-78463818D01*
X84087136Y-78463814D01*
X83947785Y-78324463D01*
X83947781Y-78324460D01*
X83783920Y-78214971D01*
X83783907Y-78214964D01*
X83601839Y-78139550D01*
X83601829Y-78139547D01*
X83408543Y-78101100D01*
X83408541Y-78101100D01*
X83211459Y-78101100D01*
X83211457Y-78101100D01*
X83018170Y-78139547D01*
X83018160Y-78139550D01*
X82836092Y-78214964D01*
X82836079Y-78214971D01*
X82672218Y-78324460D01*
X82672214Y-78324463D01*
X82532863Y-78463814D01*
X82532860Y-78463818D01*
X82423371Y-78627679D01*
X82423364Y-78627692D01*
X82347950Y-78809760D01*
X82347947Y-78809770D01*
X82309500Y-79003056D01*
X82309500Y-79003059D01*
X82309500Y-79200141D01*
X82309500Y-79200143D01*
X82309499Y-79200143D01*
X81770500Y-79200143D01*
X81770500Y-79200141D01*
X81770500Y-79003059D01*
X81770500Y-79003056D01*
X81732052Y-78809770D01*
X81732051Y-78809769D01*
X81732051Y-78809765D01*
X81682065Y-78689087D01*
X81656635Y-78627692D01*
X81656628Y-78627679D01*
X81547139Y-78463818D01*
X81547136Y-78463814D01*
X81407785Y-78324463D01*
X81407781Y-78324460D01*
X81243920Y-78214971D01*
X81243907Y-78214964D01*
X81061839Y-78139550D01*
X81061829Y-78139547D01*
X80868543Y-78101100D01*
X80868541Y-78101100D01*
X80671459Y-78101100D01*
X80671457Y-78101100D01*
X80478170Y-78139547D01*
X80478160Y-78139550D01*
X80296092Y-78214964D01*
X80296079Y-78214971D01*
X80132218Y-78324460D01*
X80132214Y-78324463D01*
X79992863Y-78463814D01*
X79992860Y-78463818D01*
X79883371Y-78627679D01*
X79883364Y-78627692D01*
X79807950Y-78809760D01*
X79807947Y-78809770D01*
X79769500Y-79003056D01*
X79769500Y-79003059D01*
X79769500Y-79200141D01*
X79769500Y-79200143D01*
X79769499Y-79200143D01*
X79230500Y-79200143D01*
X79230500Y-79200141D01*
X79230500Y-79003059D01*
X79230500Y-79003056D01*
X79192052Y-78809770D01*
X79192051Y-78809769D01*
X79192051Y-78809765D01*
X79142065Y-78689087D01*
X79116635Y-78627692D01*
X79116628Y-78627679D01*
X79007139Y-78463818D01*
X79007136Y-78463814D01*
X78867785Y-78324463D01*
X78867781Y-78324460D01*
X78703920Y-78214971D01*
X78703907Y-78214964D01*
X78521839Y-78139550D01*
X78521829Y-78139547D01*
X78328543Y-78101100D01*
X78328541Y-78101100D01*
X78131459Y-78101100D01*
X78131457Y-78101100D01*
X77938170Y-78139547D01*
X77938160Y-78139550D01*
X77756092Y-78214964D01*
X77756079Y-78214971D01*
X77592218Y-78324460D01*
X77592214Y-78324463D01*
X77452863Y-78463814D01*
X77452860Y-78463818D01*
X77343371Y-78627679D01*
X77343364Y-78627692D01*
X77267950Y-78809760D01*
X77267947Y-78809770D01*
X77229500Y-79003056D01*
X77229500Y-79003059D01*
X77229500Y-79200141D01*
X77229500Y-79200143D01*
X77229499Y-79200143D01*
X76690500Y-79200143D01*
X76690500Y-79200141D01*
X76690500Y-79003059D01*
X76690500Y-79003056D01*
X76652052Y-78809770D01*
X76652051Y-78809769D01*
X76652051Y-78809765D01*
X76602065Y-78689087D01*
X76576635Y-78627692D01*
X76576628Y-78627679D01*
X76467139Y-78463818D01*
X76467136Y-78463814D01*
X76327785Y-78324463D01*
X76327781Y-78324460D01*
X76163920Y-78214971D01*
X76163907Y-78214964D01*
X75981839Y-78139550D01*
X75981829Y-78139547D01*
X75788543Y-78101100D01*
X75788541Y-78101100D01*
X75591459Y-78101100D01*
X75591457Y-78101100D01*
X75398170Y-78139547D01*
X75398160Y-78139550D01*
X75216092Y-78214964D01*
X75216079Y-78214971D01*
X75052218Y-78324460D01*
X75052214Y-78324463D01*
X74912863Y-78463814D01*
X74912860Y-78463818D01*
X74803371Y-78627679D01*
X74803364Y-78627692D01*
X74727950Y-78809760D01*
X74727947Y-78809770D01*
X74689500Y-79003056D01*
X74689500Y-79003059D01*
X74689500Y-79200141D01*
X74689500Y-79200143D01*
X74689499Y-79200143D01*
X74150500Y-79200143D01*
X74150500Y-79200141D01*
X74150500Y-79003059D01*
X74150500Y-79003056D01*
X74112052Y-78809770D01*
X74112051Y-78809769D01*
X74112051Y-78809765D01*
X74062065Y-78689087D01*
X74036635Y-78627692D01*
X74036628Y-78627679D01*
X73927139Y-78463818D01*
X73927136Y-78463814D01*
X73787785Y-78324463D01*
X73787781Y-78324460D01*
X73623920Y-78214971D01*
X73623907Y-78214964D01*
X73441839Y-78139550D01*
X73441829Y-78139547D01*
X73248543Y-78101100D01*
X73248541Y-78101100D01*
X73051459Y-78101100D01*
X73051457Y-78101100D01*
X72858170Y-78139547D01*
X72858160Y-78139550D01*
X72676092Y-78214964D01*
X72676079Y-78214971D01*
X72512218Y-78324460D01*
X72512214Y-78324463D01*
X72372863Y-78463814D01*
X72372860Y-78463818D01*
X72263371Y-78627679D01*
X72263364Y-78627692D01*
X72187950Y-78809760D01*
X72187947Y-78809770D01*
X72149500Y-79003056D01*
X72149500Y-79003059D01*
X72149500Y-79200141D01*
X72149500Y-79200143D01*
X72149499Y-79200143D01*
X71610500Y-79200143D01*
X71610500Y-79200141D01*
X71610500Y-79003059D01*
X71610500Y-79003056D01*
X71572052Y-78809770D01*
X71572051Y-78809769D01*
X71572051Y-78809765D01*
X71522065Y-78689087D01*
X71496635Y-78627692D01*
X71496628Y-78627679D01*
X71387139Y-78463818D01*
X71387136Y-78463814D01*
X71247785Y-78324463D01*
X71247781Y-78324460D01*
X71083920Y-78214971D01*
X71083907Y-78214964D01*
X70901839Y-78139550D01*
X70901829Y-78139547D01*
X70846714Y-78128584D01*
X70784803Y-78096199D01*
X70750229Y-78035483D01*
X70753970Y-77965713D01*
X70794836Y-77909042D01*
X70805710Y-77901729D01*
X70807306Y-77900504D01*
X70807314Y-77900500D01*
X70820995Y-77886819D01*
X70882318Y-77853334D01*
X70908676Y-77850500D01*
X99291856Y-77850500D01*
X99358895Y-77870185D01*
X99379537Y-77886819D01*
X100120482Y-78627764D01*
X100153967Y-78689087D01*
X100148983Y-78758779D01*
X100147362Y-78762897D01*
X100127949Y-78809763D01*
X100127947Y-78809771D01*
X100089500Y-79003056D01*
X100089500Y-79003059D01*
X100089500Y-79200141D01*
X100089500Y-79200143D01*
X100089499Y-79200143D01*
X100127947Y-79393429D01*
X100127950Y-79393439D01*
X100203364Y-79575507D01*
X100203371Y-79575520D01*
X100312860Y-79739381D01*
X100312863Y-79739385D01*
X100452214Y-79878736D01*
X100452218Y-79878739D01*
X100616079Y-79988228D01*
X100616092Y-79988235D01*
X100766188Y-80050406D01*
X100798165Y-80063651D01*
X100798169Y-80063651D01*
X100798170Y-80063652D01*
X100991456Y-80102100D01*
X100991459Y-80102100D01*
X101188543Y-80102100D01*
X101338887Y-80072194D01*
X101381835Y-80063651D01*
X101563914Y-79988232D01*
X101727782Y-79878739D01*
X101867139Y-79739382D01*
X101976632Y-79575514D01*
X102052051Y-79393435D01*
X102090500Y-79200143D01*
X102629499Y-79200143D01*
X102667947Y-79393429D01*
X102667950Y-79393439D01*
X102743364Y-79575507D01*
X102743371Y-79575520D01*
X102852860Y-79739381D01*
X102852863Y-79739385D01*
X102992214Y-79878736D01*
X102992218Y-79878739D01*
X103156079Y-79988228D01*
X103156092Y-79988235D01*
X103306188Y-80050406D01*
X103338165Y-80063651D01*
X103338169Y-80063651D01*
X103338170Y-80063652D01*
X103531456Y-80102100D01*
X103531459Y-80102100D01*
X103728543Y-80102100D01*
X103878887Y-80072194D01*
X103921835Y-80063651D01*
X104103914Y-79988232D01*
X104267782Y-79878739D01*
X104407139Y-79739382D01*
X104516632Y-79575514D01*
X104592051Y-79393435D01*
X104630500Y-79200143D01*
X105169499Y-79200143D01*
X105207947Y-79393429D01*
X105207950Y-79393439D01*
X105283364Y-79575507D01*
X105283371Y-79575520D01*
X105392860Y-79739381D01*
X105392863Y-79739385D01*
X105532214Y-79878736D01*
X105532218Y-79878739D01*
X105696079Y-79988228D01*
X105696092Y-79988235D01*
X105846188Y-80050406D01*
X105878165Y-80063651D01*
X105878169Y-80063651D01*
X105878170Y-80063652D01*
X106071456Y-80102100D01*
X106071459Y-80102100D01*
X106268543Y-80102100D01*
X106418887Y-80072194D01*
X106461835Y-80063651D01*
X106643914Y-79988232D01*
X106807782Y-79878739D01*
X106947139Y-79739382D01*
X107056632Y-79575514D01*
X107132051Y-79393435D01*
X107170500Y-79200143D01*
X107709499Y-79200143D01*
X107747947Y-79393429D01*
X107747950Y-79393439D01*
X107823364Y-79575507D01*
X107823371Y-79575520D01*
X107932860Y-79739381D01*
X107932863Y-79739385D01*
X108072214Y-79878736D01*
X108072218Y-79878739D01*
X108236079Y-79988228D01*
X108236092Y-79988235D01*
X108386188Y-80050406D01*
X108418165Y-80063651D01*
X108418169Y-80063651D01*
X108418170Y-80063652D01*
X108611456Y-80102100D01*
X108611459Y-80102100D01*
X108808543Y-80102100D01*
X108958887Y-80072194D01*
X109001835Y-80063651D01*
X109183914Y-79988232D01*
X109347782Y-79878739D01*
X109487139Y-79739382D01*
X109596632Y-79575514D01*
X109672051Y-79393435D01*
X109710500Y-79200143D01*
X110249499Y-79200143D01*
X110287947Y-79393429D01*
X110287950Y-79393439D01*
X110363364Y-79575507D01*
X110363371Y-79575520D01*
X110472860Y-79739381D01*
X110472863Y-79739385D01*
X110612214Y-79878736D01*
X110612218Y-79878739D01*
X110776079Y-79988228D01*
X110776092Y-79988235D01*
X110926188Y-80050406D01*
X110958165Y-80063651D01*
X110958169Y-80063651D01*
X110958170Y-80063652D01*
X111151456Y-80102100D01*
X111151459Y-80102100D01*
X111348543Y-80102100D01*
X111498887Y-80072194D01*
X111541835Y-80063651D01*
X111723914Y-79988232D01*
X111887782Y-79878739D01*
X112027139Y-79739382D01*
X112136632Y-79575514D01*
X112212051Y-79393435D01*
X112250500Y-79200143D01*
X112789499Y-79200143D01*
X112827947Y-79393429D01*
X112827950Y-79393439D01*
X112903364Y-79575507D01*
X112903371Y-79575520D01*
X113012860Y-79739381D01*
X113012863Y-79739385D01*
X113152214Y-79878736D01*
X113152218Y-79878739D01*
X113316079Y-79988228D01*
X113316092Y-79988235D01*
X113466188Y-80050406D01*
X113498165Y-80063651D01*
X113498169Y-80063651D01*
X113498170Y-80063652D01*
X113691456Y-80102100D01*
X113691459Y-80102100D01*
X113888543Y-80102100D01*
X114038887Y-80072194D01*
X114081835Y-80063651D01*
X114263914Y-79988232D01*
X114427782Y-79878739D01*
X114567139Y-79739382D01*
X114676632Y-79575514D01*
X114752051Y-79393435D01*
X114790500Y-79200143D01*
X115329499Y-79200143D01*
X115367947Y-79393429D01*
X115367950Y-79393439D01*
X115443364Y-79575507D01*
X115443371Y-79575520D01*
X115552860Y-79739381D01*
X115552863Y-79739385D01*
X115692214Y-79878736D01*
X115692218Y-79878739D01*
X115856079Y-79988228D01*
X115856092Y-79988235D01*
X116006188Y-80050406D01*
X116038165Y-80063651D01*
X116038169Y-80063651D01*
X116038170Y-80063652D01*
X116231456Y-80102100D01*
X116231459Y-80102100D01*
X116428543Y-80102100D01*
X116578887Y-80072194D01*
X116621835Y-80063651D01*
X116803914Y-79988232D01*
X116967782Y-79878739D01*
X117107139Y-79739382D01*
X117216632Y-79575514D01*
X117292051Y-79393435D01*
X117330500Y-79200141D01*
X117330500Y-79003059D01*
X117330500Y-79003056D01*
X117292052Y-78809770D01*
X117292051Y-78809769D01*
X117292051Y-78809765D01*
X117242065Y-78689087D01*
X117216635Y-78627692D01*
X117216628Y-78627679D01*
X117107139Y-78463818D01*
X117107136Y-78463814D01*
X116967785Y-78324463D01*
X116967781Y-78324460D01*
X116803920Y-78214971D01*
X116803907Y-78214964D01*
X116621839Y-78139550D01*
X116621829Y-78139547D01*
X116428543Y-78101100D01*
X116428541Y-78101100D01*
X116231459Y-78101100D01*
X116231457Y-78101100D01*
X116038170Y-78139547D01*
X116038160Y-78139550D01*
X115856092Y-78214964D01*
X115856079Y-78214971D01*
X115692218Y-78324460D01*
X115692214Y-78324463D01*
X115552863Y-78463814D01*
X115552860Y-78463818D01*
X115443371Y-78627679D01*
X115443364Y-78627692D01*
X115367950Y-78809760D01*
X115367947Y-78809770D01*
X115329500Y-79003056D01*
X115329500Y-79003059D01*
X115329500Y-79200141D01*
X115329500Y-79200143D01*
X115329499Y-79200143D01*
X114790500Y-79200143D01*
X114790500Y-79200141D01*
X114790500Y-79003059D01*
X114790500Y-79003056D01*
X114752052Y-78809770D01*
X114752051Y-78809769D01*
X114752051Y-78809765D01*
X114702065Y-78689087D01*
X114676635Y-78627692D01*
X114676628Y-78627679D01*
X114567139Y-78463818D01*
X114567136Y-78463814D01*
X114427785Y-78324463D01*
X114427781Y-78324460D01*
X114263920Y-78214971D01*
X114263907Y-78214964D01*
X114081839Y-78139550D01*
X114081829Y-78139547D01*
X113888543Y-78101100D01*
X113888541Y-78101100D01*
X113691459Y-78101100D01*
X113691457Y-78101100D01*
X113498170Y-78139547D01*
X113498160Y-78139550D01*
X113316092Y-78214964D01*
X113316079Y-78214971D01*
X113152218Y-78324460D01*
X113152214Y-78324463D01*
X113012863Y-78463814D01*
X113012860Y-78463818D01*
X112903371Y-78627679D01*
X112903364Y-78627692D01*
X112827950Y-78809760D01*
X112827947Y-78809770D01*
X112789500Y-79003056D01*
X112789500Y-79003059D01*
X112789500Y-79200141D01*
X112789500Y-79200143D01*
X112789499Y-79200143D01*
X112250500Y-79200143D01*
X112250500Y-79200141D01*
X112250500Y-79003059D01*
X112250500Y-79003056D01*
X112212052Y-78809770D01*
X112212051Y-78809769D01*
X112212051Y-78809765D01*
X112162065Y-78689087D01*
X112136635Y-78627692D01*
X112136628Y-78627679D01*
X112027139Y-78463818D01*
X112027136Y-78463814D01*
X111887785Y-78324463D01*
X111887781Y-78324460D01*
X111723920Y-78214971D01*
X111723907Y-78214964D01*
X111541839Y-78139550D01*
X111541829Y-78139547D01*
X111348543Y-78101100D01*
X111348541Y-78101100D01*
X111151459Y-78101100D01*
X111151457Y-78101100D01*
X110958170Y-78139547D01*
X110958160Y-78139550D01*
X110776092Y-78214964D01*
X110776079Y-78214971D01*
X110612218Y-78324460D01*
X110612214Y-78324463D01*
X110472863Y-78463814D01*
X110472860Y-78463818D01*
X110363371Y-78627679D01*
X110363364Y-78627692D01*
X110287950Y-78809760D01*
X110287947Y-78809770D01*
X110249500Y-79003056D01*
X110249500Y-79003059D01*
X110249500Y-79200141D01*
X110249500Y-79200143D01*
X110249499Y-79200143D01*
X109710500Y-79200143D01*
X109710500Y-79200141D01*
X109710500Y-79003059D01*
X109710500Y-79003056D01*
X109672052Y-78809770D01*
X109672051Y-78809769D01*
X109672051Y-78809765D01*
X109622065Y-78689087D01*
X109596635Y-78627692D01*
X109596628Y-78627679D01*
X109487139Y-78463818D01*
X109487136Y-78463814D01*
X109347785Y-78324463D01*
X109347781Y-78324460D01*
X109183920Y-78214971D01*
X109183907Y-78214964D01*
X109001839Y-78139550D01*
X109001829Y-78139547D01*
X108808543Y-78101100D01*
X108808541Y-78101100D01*
X108611459Y-78101100D01*
X108611457Y-78101100D01*
X108418170Y-78139547D01*
X108418160Y-78139550D01*
X108236092Y-78214964D01*
X108236079Y-78214971D01*
X108072218Y-78324460D01*
X108072214Y-78324463D01*
X107932863Y-78463814D01*
X107932860Y-78463818D01*
X107823371Y-78627679D01*
X107823364Y-78627692D01*
X107747950Y-78809760D01*
X107747947Y-78809770D01*
X107709500Y-79003056D01*
X107709500Y-79003059D01*
X107709500Y-79200141D01*
X107709500Y-79200143D01*
X107709499Y-79200143D01*
X107170500Y-79200143D01*
X107170500Y-79200141D01*
X107170500Y-79003059D01*
X107170500Y-79003056D01*
X107132052Y-78809770D01*
X107132051Y-78809769D01*
X107132051Y-78809765D01*
X107082065Y-78689087D01*
X107056635Y-78627692D01*
X107056628Y-78627679D01*
X106947139Y-78463818D01*
X106947136Y-78463814D01*
X106807785Y-78324463D01*
X106807781Y-78324460D01*
X106643920Y-78214971D01*
X106643907Y-78214964D01*
X106461839Y-78139550D01*
X106461829Y-78139547D01*
X106268543Y-78101100D01*
X106268541Y-78101100D01*
X106071459Y-78101100D01*
X106071457Y-78101100D01*
X105878170Y-78139547D01*
X105878160Y-78139550D01*
X105696092Y-78214964D01*
X105696079Y-78214971D01*
X105532218Y-78324460D01*
X105532214Y-78324463D01*
X105392863Y-78463814D01*
X105392860Y-78463818D01*
X105283371Y-78627679D01*
X105283364Y-78627692D01*
X105207950Y-78809760D01*
X105207947Y-78809770D01*
X105169500Y-79003056D01*
X105169500Y-79003059D01*
X105169500Y-79200141D01*
X105169500Y-79200143D01*
X105169499Y-79200143D01*
X104630500Y-79200143D01*
X104630500Y-79200141D01*
X104630500Y-79003059D01*
X104630500Y-79003056D01*
X104592052Y-78809770D01*
X104592051Y-78809769D01*
X104592051Y-78809765D01*
X104542065Y-78689087D01*
X104516635Y-78627692D01*
X104516628Y-78627679D01*
X104407139Y-78463818D01*
X104407136Y-78463814D01*
X104267785Y-78324463D01*
X104267781Y-78324460D01*
X104103920Y-78214971D01*
X104103907Y-78214964D01*
X103921839Y-78139550D01*
X103921829Y-78139547D01*
X103728543Y-78101100D01*
X103728541Y-78101100D01*
X103531459Y-78101100D01*
X103531457Y-78101100D01*
X103338170Y-78139547D01*
X103338160Y-78139550D01*
X103156092Y-78214964D01*
X103156079Y-78214971D01*
X102992218Y-78324460D01*
X102992214Y-78324463D01*
X102852863Y-78463814D01*
X102852860Y-78463818D01*
X102743371Y-78627679D01*
X102743364Y-78627692D01*
X102667950Y-78809760D01*
X102667947Y-78809770D01*
X102629500Y-79003056D01*
X102629500Y-79003059D01*
X102629500Y-79200141D01*
X102629500Y-79200143D01*
X102629499Y-79200143D01*
X102090500Y-79200143D01*
X102090500Y-79200141D01*
X102090500Y-79003059D01*
X102090500Y-79003056D01*
X102052052Y-78809770D01*
X102052051Y-78809769D01*
X102052051Y-78809765D01*
X102002065Y-78689087D01*
X101976635Y-78627692D01*
X101976628Y-78627679D01*
X101867139Y-78463818D01*
X101867136Y-78463814D01*
X101727785Y-78324463D01*
X101727781Y-78324460D01*
X101563920Y-78214971D01*
X101563907Y-78214964D01*
X101381839Y-78139550D01*
X101381829Y-78139547D01*
X101188543Y-78101100D01*
X101188541Y-78101100D01*
X100991459Y-78101100D01*
X100991457Y-78101100D01*
X100798171Y-78139547D01*
X100798163Y-78139549D01*
X100751297Y-78158962D01*
X100681827Y-78166431D01*
X100619348Y-78135155D01*
X100616164Y-78132082D01*
X99703613Y-77219531D01*
X99703608Y-77219527D01*
X99623690Y-77173387D01*
X99623689Y-77173386D01*
X99623688Y-77173386D01*
X99534544Y-77149500D01*
X99534543Y-77149500D01*
X70908676Y-77149500D01*
X70841637Y-77129815D01*
X70820995Y-77113181D01*
X70807316Y-77099502D01*
X70807314Y-77099500D01*
X70750250Y-77066554D01*
X70693187Y-77033608D01*
X70629539Y-77016554D01*
X70565892Y-76999500D01*
X70434108Y-76999500D01*
X70306812Y-77033608D01*
X70192686Y-77099500D01*
X70192683Y-77099502D01*
X70099502Y-77192683D01*
X70099500Y-77192686D01*
X70033608Y-77306812D01*
X69999500Y-77434108D01*
X69999500Y-77565891D01*
X70033608Y-77693187D01*
X70066554Y-77750250D01*
X70099500Y-77807314D01*
X70192686Y-77900500D01*
X70268425Y-77944228D01*
X70316641Y-77994795D01*
X70329864Y-78063402D01*
X70303896Y-78128267D01*
X70253878Y-78166176D01*
X70136089Y-78214966D01*
X70136079Y-78214971D01*
X69972218Y-78324460D01*
X69972214Y-78324463D01*
X69832863Y-78463814D01*
X69832860Y-78463818D01*
X69723371Y-78627679D01*
X69723364Y-78627692D01*
X69647950Y-78809760D01*
X69647947Y-78809770D01*
X69609500Y-79003056D01*
X69609500Y-79003059D01*
X69609500Y-79200141D01*
X69609500Y-79200143D01*
X69609499Y-79200143D01*
X69070500Y-79200143D01*
X69070500Y-79200141D01*
X69070500Y-79003059D01*
X69070500Y-79003056D01*
X69032052Y-78809770D01*
X69032051Y-78809769D01*
X69032051Y-78809765D01*
X68982065Y-78689087D01*
X68956635Y-78627692D01*
X68956628Y-78627679D01*
X68847139Y-78463818D01*
X68847136Y-78463814D01*
X68707785Y-78324463D01*
X68707781Y-78324460D01*
X68543920Y-78214971D01*
X68543907Y-78214964D01*
X68361839Y-78139550D01*
X68361829Y-78139547D01*
X68168543Y-78101100D01*
X68168541Y-78101100D01*
X67971459Y-78101100D01*
X67971457Y-78101100D01*
X67778170Y-78139547D01*
X67778160Y-78139550D01*
X67596092Y-78214964D01*
X67596079Y-78214971D01*
X67432218Y-78324460D01*
X67432214Y-78324463D01*
X67292863Y-78463814D01*
X67292860Y-78463818D01*
X67183371Y-78627679D01*
X67183364Y-78627692D01*
X67107950Y-78809760D01*
X67107947Y-78809770D01*
X67069500Y-79003056D01*
X67069500Y-79003059D01*
X67069500Y-79200141D01*
X67069500Y-79200143D01*
X67069499Y-79200143D01*
X66072997Y-79200143D01*
X66080000Y-79174009D01*
X66080000Y-79029191D01*
X66042518Y-78889308D01*
X66020748Y-78851600D01*
X66530000Y-78851600D01*
X66530000Y-78281901D01*
X66529999Y-78281897D01*
X66518397Y-78223566D01*
X66518396Y-78223565D01*
X66474191Y-78157408D01*
X66408034Y-78113203D01*
X66408033Y-78113202D01*
X66349702Y-78101600D01*
X65780000Y-78101600D01*
X65780000Y-78610852D01*
X65742292Y-78589082D01*
X65602409Y-78551600D01*
X65457591Y-78551600D01*
X65317708Y-78589082D01*
X65280000Y-78610852D01*
X65280000Y-78101600D01*
X64710303Y-78101600D01*
X64648690Y-78113855D01*
X64579098Y-78107626D01*
X64523922Y-78064763D01*
X64500678Y-77998873D01*
X64500500Y-77992237D01*
X64500500Y-76100000D01*
X71800000Y-76100000D01*
X80300000Y-76100000D01*
X109500000Y-76100000D01*
X118000000Y-76100000D01*
X118000000Y-67500000D01*
X109500000Y-67500000D01*
X109500000Y-76100000D01*
X80300000Y-76100000D01*
X80300000Y-67500000D01*
X71800000Y-67500000D01*
X71800000Y-76100000D01*
X64500500Y-76100000D01*
X64500500Y-64530470D01*
X64520185Y-64463431D01*
X64572989Y-64417676D01*
X64642147Y-64407732D01*
X64705703Y-64436757D01*
X64727601Y-64461577D01*
X64742279Y-64483545D01*
X64752862Y-64499384D01*
X64892214Y-64638736D01*
X64892218Y-64638739D01*
X65056079Y-64748228D01*
X65056092Y-64748235D01*
X65238160Y-64823649D01*
X65238165Y-64823651D01*
X65238169Y-64823651D01*
X65238170Y-64823652D01*
X65431456Y-64862100D01*
X65431459Y-64862100D01*
X65628543Y-64862100D01*
X65758582Y-64836232D01*
X65821835Y-64823651D01*
X66003914Y-64748232D01*
X66167782Y-64638739D01*
X66167785Y-64638736D01*
X66216241Y-64590281D01*
X66307136Y-64499385D01*
X66307137Y-64499384D01*
X66307139Y-64499382D01*
X66416632Y-64335514D01*
X66492051Y-64153435D01*
X66530500Y-63960141D01*
X66530500Y-63763059D01*
X66530500Y-63763056D01*
X66492052Y-63569770D01*
X66492051Y-63569769D01*
X66492051Y-63569765D01*
X66473050Y-63523892D01*
X66416635Y-63387692D01*
X66416628Y-63387679D01*
X66307139Y-63223818D01*
X66307136Y-63223814D01*
X66295503Y-63212181D01*
X66262018Y-63150858D01*
X66267002Y-63081166D01*
X66308874Y-63025233D01*
X66374338Y-63000816D01*
X66383184Y-63000500D01*
X67511091Y-63000500D01*
X67578130Y-63020185D01*
G37*
%TD.AperFunction*%
%TD*%
M02*
