%TF.GenerationSoftware,KiCad,Pcbnew,9.0.4*%
%TF.CreationDate,2025-11-10T17:48:44-05:00*%
%TF.ProjectId,NEW_mecanumDriveTrain_25-26,4e45575f-6d65-4636-916e-756d44726976,rev?*%
%TF.SameCoordinates,Original*%
%TF.FileFunction,Legend,Bot*%
%TF.FilePolarity,Positive*%
%FSLAX46Y46*%
G04 Gerber Fmt 4.6, Leading zero omitted, Abs format (unit mm)*
G04 Created by KiCad (PCBNEW 9.0.4) date 2025-11-10 17:48:44*
%MOMM*%
%LPD*%
G01*
G04 APERTURE LIST*
G04 Aperture macros list*
%AMRoundRect*
0 Rectangle with rounded corners*
0 $1 Rounding radius*
0 $2 $3 $4 $5 $6 $7 $8 $9 X,Y pos of 4 corners*
0 Add a 4 corners polygon primitive as box body*
4,1,4,$2,$3,$4,$5,$6,$7,$8,$9,$2,$3,0*
0 Add four circle primitives for the rounded corners*
1,1,$1+$1,$2,$3*
1,1,$1+$1,$4,$5*
1,1,$1+$1,$6,$7*
1,1,$1+$1,$8,$9*
0 Add four rect primitives between the rounded corners*
20,1,$1+$1,$2,$3,$4,$5,0*
20,1,$1+$1,$4,$5,$6,$7,0*
20,1,$1+$1,$6,$7,$8,$9,0*
20,1,$1+$1,$8,$9,$2,$3,0*%
G04 Aperture macros list end*
%ADD10C,0.350000*%
%ADD11C,0.000000*%
%ADD12R,1.700000X1.700000*%
%ADD13C,1.700000*%
%ADD14C,2.000000*%
%ADD15C,4.300000*%
%ADD16R,1.600000X1.600000*%
%ADD17C,1.600000*%
%ADD18RoundRect,0.250000X0.350000X0.625000X-0.350000X0.625000X-0.350000X-0.625000X0.350000X-0.625000X0*%
%ADD19O,1.200000X1.750000*%
%ADD20RoundRect,0.760000X1.140000X1.140000X-1.140000X1.140000X-1.140000X-1.140000X1.140000X-1.140000X0*%
%ADD21C,4.000000*%
G04 APERTURE END LIST*
D10*
X114898308Y-98660812D02*
X115612594Y-98660812D01*
X115612594Y-98660812D02*
X115612594Y-97160812D01*
X114184022Y-98660812D02*
X114326879Y-98589384D01*
X114326879Y-98589384D02*
X114398308Y-98517955D01*
X114398308Y-98517955D02*
X114469736Y-98375098D01*
X114469736Y-98375098D02*
X114469736Y-97946526D01*
X114469736Y-97946526D02*
X114398308Y-97803669D01*
X114398308Y-97803669D02*
X114326879Y-97732241D01*
X114326879Y-97732241D02*
X114184022Y-97660812D01*
X114184022Y-97660812D02*
X113969736Y-97660812D01*
X113969736Y-97660812D02*
X113826879Y-97732241D01*
X113826879Y-97732241D02*
X113755451Y-97803669D01*
X113755451Y-97803669D02*
X113684022Y-97946526D01*
X113684022Y-97946526D02*
X113684022Y-98375098D01*
X113684022Y-98375098D02*
X113755451Y-98517955D01*
X113755451Y-98517955D02*
X113826879Y-98589384D01*
X113826879Y-98589384D02*
X113969736Y-98660812D01*
X113969736Y-98660812D02*
X114184022Y-98660812D01*
X112398308Y-97660812D02*
X112398308Y-98875098D01*
X112398308Y-98875098D02*
X112469736Y-99017955D01*
X112469736Y-99017955D02*
X112541165Y-99089384D01*
X112541165Y-99089384D02*
X112684022Y-99160812D01*
X112684022Y-99160812D02*
X112898308Y-99160812D01*
X112898308Y-99160812D02*
X113041165Y-99089384D01*
X112398308Y-98589384D02*
X112541165Y-98660812D01*
X112541165Y-98660812D02*
X112826879Y-98660812D01*
X112826879Y-98660812D02*
X112969736Y-98589384D01*
X112969736Y-98589384D02*
X113041165Y-98517955D01*
X113041165Y-98517955D02*
X113112593Y-98375098D01*
X113112593Y-98375098D02*
X113112593Y-97946526D01*
X113112593Y-97946526D02*
X113041165Y-97803669D01*
X113041165Y-97803669D02*
X112969736Y-97732241D01*
X112969736Y-97732241D02*
X112826879Y-97660812D01*
X112826879Y-97660812D02*
X112541165Y-97660812D01*
X112541165Y-97660812D02*
X112398308Y-97732241D01*
X111041165Y-98660812D02*
X111041165Y-97875098D01*
X111041165Y-97875098D02*
X111112593Y-97732241D01*
X111112593Y-97732241D02*
X111255450Y-97660812D01*
X111255450Y-97660812D02*
X111541165Y-97660812D01*
X111541165Y-97660812D02*
X111684022Y-97732241D01*
X111041165Y-98589384D02*
X111184022Y-98660812D01*
X111184022Y-98660812D02*
X111541165Y-98660812D01*
X111541165Y-98660812D02*
X111684022Y-98589384D01*
X111684022Y-98589384D02*
X111755450Y-98446526D01*
X111755450Y-98446526D02*
X111755450Y-98303669D01*
X111755450Y-98303669D02*
X111684022Y-98160812D01*
X111684022Y-98160812D02*
X111541165Y-98089384D01*
X111541165Y-98089384D02*
X111184022Y-98089384D01*
X111184022Y-98089384D02*
X111041165Y-98017955D01*
X110326879Y-97660812D02*
X110326879Y-98660812D01*
X110326879Y-97803669D02*
X110255450Y-97732241D01*
X110255450Y-97732241D02*
X110112593Y-97660812D01*
X110112593Y-97660812D02*
X109898307Y-97660812D01*
X109898307Y-97660812D02*
X109755450Y-97732241D01*
X109755450Y-97732241D02*
X109684022Y-97875098D01*
X109684022Y-97875098D02*
X109684022Y-98660812D01*
X106969736Y-98660812D02*
X107469736Y-97946526D01*
X107826879Y-98660812D02*
X107826879Y-97160812D01*
X107826879Y-97160812D02*
X107255450Y-97160812D01*
X107255450Y-97160812D02*
X107112593Y-97232241D01*
X107112593Y-97232241D02*
X107041164Y-97303669D01*
X107041164Y-97303669D02*
X106969736Y-97446526D01*
X106969736Y-97446526D02*
X106969736Y-97660812D01*
X106969736Y-97660812D02*
X107041164Y-97803669D01*
X107041164Y-97803669D02*
X107112593Y-97875098D01*
X107112593Y-97875098D02*
X107255450Y-97946526D01*
X107255450Y-97946526D02*
X107826879Y-97946526D01*
X106112593Y-98660812D02*
X106255450Y-98589384D01*
X106255450Y-98589384D02*
X106326879Y-98517955D01*
X106326879Y-98517955D02*
X106398307Y-98375098D01*
X106398307Y-98375098D02*
X106398307Y-97946526D01*
X106398307Y-97946526D02*
X106326879Y-97803669D01*
X106326879Y-97803669D02*
X106255450Y-97732241D01*
X106255450Y-97732241D02*
X106112593Y-97660812D01*
X106112593Y-97660812D02*
X105898307Y-97660812D01*
X105898307Y-97660812D02*
X105755450Y-97732241D01*
X105755450Y-97732241D02*
X105684022Y-97803669D01*
X105684022Y-97803669D02*
X105612593Y-97946526D01*
X105612593Y-97946526D02*
X105612593Y-98375098D01*
X105612593Y-98375098D02*
X105684022Y-98517955D01*
X105684022Y-98517955D02*
X105755450Y-98589384D01*
X105755450Y-98589384D02*
X105898307Y-98660812D01*
X105898307Y-98660812D02*
X106112593Y-98660812D01*
X104969736Y-98660812D02*
X104969736Y-97160812D01*
X104969736Y-97732241D02*
X104826879Y-97660812D01*
X104826879Y-97660812D02*
X104541164Y-97660812D01*
X104541164Y-97660812D02*
X104398307Y-97732241D01*
X104398307Y-97732241D02*
X104326879Y-97803669D01*
X104326879Y-97803669D02*
X104255450Y-97946526D01*
X104255450Y-97946526D02*
X104255450Y-98375098D01*
X104255450Y-98375098D02*
X104326879Y-98517955D01*
X104326879Y-98517955D02*
X104398307Y-98589384D01*
X104398307Y-98589384D02*
X104541164Y-98660812D01*
X104541164Y-98660812D02*
X104826879Y-98660812D01*
X104826879Y-98660812D02*
X104969736Y-98589384D01*
X103041164Y-98589384D02*
X103184021Y-98660812D01*
X103184021Y-98660812D02*
X103469736Y-98660812D01*
X103469736Y-98660812D02*
X103612593Y-98589384D01*
X103612593Y-98589384D02*
X103684021Y-98446526D01*
X103684021Y-98446526D02*
X103684021Y-97875098D01*
X103684021Y-97875098D02*
X103612593Y-97732241D01*
X103612593Y-97732241D02*
X103469736Y-97660812D01*
X103469736Y-97660812D02*
X103184021Y-97660812D01*
X103184021Y-97660812D02*
X103041164Y-97732241D01*
X103041164Y-97732241D02*
X102969736Y-97875098D01*
X102969736Y-97875098D02*
X102969736Y-98017955D01*
X102969736Y-98017955D02*
X103684021Y-98160812D01*
X102326879Y-98660812D02*
X102326879Y-97660812D01*
X102326879Y-97946526D02*
X102255450Y-97803669D01*
X102255450Y-97803669D02*
X102184022Y-97732241D01*
X102184022Y-97732241D02*
X102041164Y-97660812D01*
X102041164Y-97660812D02*
X101898307Y-97660812D01*
X101612593Y-97660812D02*
X101041165Y-97660812D01*
X101398308Y-97160812D02*
X101398308Y-98446526D01*
X101398308Y-98446526D02*
X101326879Y-98589384D01*
X101326879Y-98589384D02*
X101184022Y-98660812D01*
X101184022Y-98660812D02*
X101041165Y-98660812D01*
X100612593Y-98589384D02*
X100469736Y-98660812D01*
X100469736Y-98660812D02*
X100184022Y-98660812D01*
X100184022Y-98660812D02*
X100041165Y-98589384D01*
X100041165Y-98589384D02*
X99969736Y-98446526D01*
X99969736Y-98446526D02*
X99969736Y-98375098D01*
X99969736Y-98375098D02*
X100041165Y-98232241D01*
X100041165Y-98232241D02*
X100184022Y-98160812D01*
X100184022Y-98160812D02*
X100398308Y-98160812D01*
X100398308Y-98160812D02*
X100541165Y-98089384D01*
X100541165Y-98089384D02*
X100612593Y-97946526D01*
X100612593Y-97946526D02*
X100612593Y-97875098D01*
X100612593Y-97875098D02*
X100541165Y-97732241D01*
X100541165Y-97732241D02*
X100398308Y-97660812D01*
X100398308Y-97660812D02*
X100184022Y-97660812D01*
X100184022Y-97660812D02*
X100041165Y-97732241D01*
X99112593Y-98660812D02*
X99255450Y-98589384D01*
X99255450Y-98589384D02*
X99326879Y-98517955D01*
X99326879Y-98517955D02*
X99398307Y-98375098D01*
X99398307Y-98375098D02*
X99398307Y-97946526D01*
X99398307Y-97946526D02*
X99326879Y-97803669D01*
X99326879Y-97803669D02*
X99255450Y-97732241D01*
X99255450Y-97732241D02*
X99112593Y-97660812D01*
X99112593Y-97660812D02*
X98898307Y-97660812D01*
X98898307Y-97660812D02*
X98755450Y-97732241D01*
X98755450Y-97732241D02*
X98684022Y-97803669D01*
X98684022Y-97803669D02*
X98612593Y-97946526D01*
X98612593Y-97946526D02*
X98612593Y-98375098D01*
X98612593Y-98375098D02*
X98684022Y-98517955D01*
X98684022Y-98517955D02*
X98755450Y-98589384D01*
X98755450Y-98589384D02*
X98898307Y-98660812D01*
X98898307Y-98660812D02*
X99112593Y-98660812D01*
X97969736Y-97660812D02*
X97969736Y-98660812D01*
X97969736Y-97803669D02*
X97898307Y-97732241D01*
X97898307Y-97732241D02*
X97755450Y-97660812D01*
X97755450Y-97660812D02*
X97541164Y-97660812D01*
X97541164Y-97660812D02*
X97398307Y-97732241D01*
X97398307Y-97732241D02*
X97326879Y-97875098D01*
X97326879Y-97875098D02*
X97326879Y-98660812D01*
X115684022Y-99718585D02*
X115612594Y-99647157D01*
X115612594Y-99647157D02*
X115469737Y-99575728D01*
X115469737Y-99575728D02*
X115112594Y-99575728D01*
X115112594Y-99575728D02*
X114969737Y-99647157D01*
X114969737Y-99647157D02*
X114898308Y-99718585D01*
X114898308Y-99718585D02*
X114826879Y-99861442D01*
X114826879Y-99861442D02*
X114826879Y-100004300D01*
X114826879Y-100004300D02*
X114898308Y-100218585D01*
X114898308Y-100218585D02*
X115755451Y-101075728D01*
X115755451Y-101075728D02*
X114826879Y-101075728D01*
X113469737Y-99575728D02*
X114184023Y-99575728D01*
X114184023Y-99575728D02*
X114255451Y-100290014D01*
X114255451Y-100290014D02*
X114184023Y-100218585D01*
X114184023Y-100218585D02*
X114041166Y-100147157D01*
X114041166Y-100147157D02*
X113684023Y-100147157D01*
X113684023Y-100147157D02*
X113541166Y-100218585D01*
X113541166Y-100218585D02*
X113469737Y-100290014D01*
X113469737Y-100290014D02*
X113398308Y-100432871D01*
X113398308Y-100432871D02*
X113398308Y-100790014D01*
X113398308Y-100790014D02*
X113469737Y-100932871D01*
X113469737Y-100932871D02*
X113541166Y-101004300D01*
X113541166Y-101004300D02*
X113684023Y-101075728D01*
X113684023Y-101075728D02*
X114041166Y-101075728D01*
X114041166Y-101075728D02*
X114184023Y-101004300D01*
X114184023Y-101004300D02*
X114255451Y-100932871D01*
X112755452Y-100504300D02*
X111612595Y-100504300D01*
X110969737Y-99718585D02*
X110898309Y-99647157D01*
X110898309Y-99647157D02*
X110755452Y-99575728D01*
X110755452Y-99575728D02*
X110398309Y-99575728D01*
X110398309Y-99575728D02*
X110255452Y-99647157D01*
X110255452Y-99647157D02*
X110184023Y-99718585D01*
X110184023Y-99718585D02*
X110112594Y-99861442D01*
X110112594Y-99861442D02*
X110112594Y-100004300D01*
X110112594Y-100004300D02*
X110184023Y-100218585D01*
X110184023Y-100218585D02*
X111041166Y-101075728D01*
X111041166Y-101075728D02*
X110112594Y-101075728D01*
X108826881Y-99575728D02*
X109112595Y-99575728D01*
X109112595Y-99575728D02*
X109255452Y-99647157D01*
X109255452Y-99647157D02*
X109326881Y-99718585D01*
X109326881Y-99718585D02*
X109469738Y-99932871D01*
X109469738Y-99932871D02*
X109541166Y-100218585D01*
X109541166Y-100218585D02*
X109541166Y-100790014D01*
X109541166Y-100790014D02*
X109469738Y-100932871D01*
X109469738Y-100932871D02*
X109398309Y-101004300D01*
X109398309Y-101004300D02*
X109255452Y-101075728D01*
X109255452Y-101075728D02*
X108969738Y-101075728D01*
X108969738Y-101075728D02*
X108826881Y-101004300D01*
X108826881Y-101004300D02*
X108755452Y-100932871D01*
X108755452Y-100932871D02*
X108684023Y-100790014D01*
X108684023Y-100790014D02*
X108684023Y-100432871D01*
X108684023Y-100432871D02*
X108755452Y-100290014D01*
X108755452Y-100290014D02*
X108826881Y-100218585D01*
X108826881Y-100218585D02*
X108969738Y-100147157D01*
X108969738Y-100147157D02*
X109255452Y-100147157D01*
X109255452Y-100147157D02*
X109398309Y-100218585D01*
X109398309Y-100218585D02*
X109469738Y-100290014D01*
X109469738Y-100290014D02*
X109541166Y-100432871D01*
X106898310Y-101075728D02*
X106898310Y-99575728D01*
X106898310Y-99575728D02*
X106398310Y-100647157D01*
X106398310Y-100647157D02*
X105898310Y-99575728D01*
X105898310Y-99575728D02*
X105898310Y-101075728D01*
X104612595Y-101004300D02*
X104755452Y-101075728D01*
X104755452Y-101075728D02*
X105041167Y-101075728D01*
X105041167Y-101075728D02*
X105184024Y-101004300D01*
X105184024Y-101004300D02*
X105255452Y-100861442D01*
X105255452Y-100861442D02*
X105255452Y-100290014D01*
X105255452Y-100290014D02*
X105184024Y-100147157D01*
X105184024Y-100147157D02*
X105041167Y-100075728D01*
X105041167Y-100075728D02*
X104755452Y-100075728D01*
X104755452Y-100075728D02*
X104612595Y-100147157D01*
X104612595Y-100147157D02*
X104541167Y-100290014D01*
X104541167Y-100290014D02*
X104541167Y-100432871D01*
X104541167Y-100432871D02*
X105255452Y-100575728D01*
X103255453Y-101004300D02*
X103398310Y-101075728D01*
X103398310Y-101075728D02*
X103684024Y-101075728D01*
X103684024Y-101075728D02*
X103826881Y-101004300D01*
X103826881Y-101004300D02*
X103898310Y-100932871D01*
X103898310Y-100932871D02*
X103969738Y-100790014D01*
X103969738Y-100790014D02*
X103969738Y-100361442D01*
X103969738Y-100361442D02*
X103898310Y-100218585D01*
X103898310Y-100218585D02*
X103826881Y-100147157D01*
X103826881Y-100147157D02*
X103684024Y-100075728D01*
X103684024Y-100075728D02*
X103398310Y-100075728D01*
X103398310Y-100075728D02*
X103255453Y-100147157D01*
X101969739Y-101075728D02*
X101969739Y-100290014D01*
X101969739Y-100290014D02*
X102041167Y-100147157D01*
X102041167Y-100147157D02*
X102184024Y-100075728D01*
X102184024Y-100075728D02*
X102469739Y-100075728D01*
X102469739Y-100075728D02*
X102612596Y-100147157D01*
X101969739Y-101004300D02*
X102112596Y-101075728D01*
X102112596Y-101075728D02*
X102469739Y-101075728D01*
X102469739Y-101075728D02*
X102612596Y-101004300D01*
X102612596Y-101004300D02*
X102684024Y-100861442D01*
X102684024Y-100861442D02*
X102684024Y-100718585D01*
X102684024Y-100718585D02*
X102612596Y-100575728D01*
X102612596Y-100575728D02*
X102469739Y-100504300D01*
X102469739Y-100504300D02*
X102112596Y-100504300D01*
X102112596Y-100504300D02*
X101969739Y-100432871D01*
X101255453Y-100075728D02*
X101255453Y-101075728D01*
X101255453Y-100218585D02*
X101184024Y-100147157D01*
X101184024Y-100147157D02*
X101041167Y-100075728D01*
X101041167Y-100075728D02*
X100826881Y-100075728D01*
X100826881Y-100075728D02*
X100684024Y-100147157D01*
X100684024Y-100147157D02*
X100612596Y-100290014D01*
X100612596Y-100290014D02*
X100612596Y-101075728D01*
X99255453Y-100075728D02*
X99255453Y-101075728D01*
X99898310Y-100075728D02*
X99898310Y-100861442D01*
X99898310Y-100861442D02*
X99826881Y-101004300D01*
X99826881Y-101004300D02*
X99684024Y-101075728D01*
X99684024Y-101075728D02*
X99469738Y-101075728D01*
X99469738Y-101075728D02*
X99326881Y-101004300D01*
X99326881Y-101004300D02*
X99255453Y-100932871D01*
X98541167Y-101075728D02*
X98541167Y-100075728D01*
X98541167Y-100218585D02*
X98469738Y-100147157D01*
X98469738Y-100147157D02*
X98326881Y-100075728D01*
X98326881Y-100075728D02*
X98112595Y-100075728D01*
X98112595Y-100075728D02*
X97969738Y-100147157D01*
X97969738Y-100147157D02*
X97898310Y-100290014D01*
X97898310Y-100290014D02*
X97898310Y-101075728D01*
X97898310Y-100290014D02*
X97826881Y-100147157D01*
X97826881Y-100147157D02*
X97684024Y-100075728D01*
X97684024Y-100075728D02*
X97469738Y-100075728D01*
X97469738Y-100075728D02*
X97326881Y-100147157D01*
X97326881Y-100147157D02*
X97255452Y-100290014D01*
X97255452Y-100290014D02*
X97255452Y-101075728D01*
X95398310Y-101075728D02*
X95398310Y-99575728D01*
X95398310Y-99575728D02*
X95041167Y-99575728D01*
X95041167Y-99575728D02*
X94826881Y-99647157D01*
X94826881Y-99647157D02*
X94684024Y-99790014D01*
X94684024Y-99790014D02*
X94612595Y-99932871D01*
X94612595Y-99932871D02*
X94541167Y-100218585D01*
X94541167Y-100218585D02*
X94541167Y-100432871D01*
X94541167Y-100432871D02*
X94612595Y-100718585D01*
X94612595Y-100718585D02*
X94684024Y-100861442D01*
X94684024Y-100861442D02*
X94826881Y-101004300D01*
X94826881Y-101004300D02*
X95041167Y-101075728D01*
X95041167Y-101075728D02*
X95398310Y-101075728D01*
X93898310Y-101075728D02*
X93898310Y-100075728D01*
X93898310Y-100361442D02*
X93826881Y-100218585D01*
X93826881Y-100218585D02*
X93755453Y-100147157D01*
X93755453Y-100147157D02*
X93612595Y-100075728D01*
X93612595Y-100075728D02*
X93469738Y-100075728D01*
X92969739Y-101075728D02*
X92969739Y-100075728D01*
X92969739Y-99575728D02*
X93041167Y-99647157D01*
X93041167Y-99647157D02*
X92969739Y-99718585D01*
X92969739Y-99718585D02*
X92898310Y-99647157D01*
X92898310Y-99647157D02*
X92969739Y-99575728D01*
X92969739Y-99575728D02*
X92969739Y-99718585D01*
X92398310Y-100075728D02*
X92041167Y-101075728D01*
X92041167Y-101075728D02*
X91684024Y-100075728D01*
X90541167Y-101004300D02*
X90684024Y-101075728D01*
X90684024Y-101075728D02*
X90969739Y-101075728D01*
X90969739Y-101075728D02*
X91112596Y-101004300D01*
X91112596Y-101004300D02*
X91184024Y-100861442D01*
X91184024Y-100861442D02*
X91184024Y-100290014D01*
X91184024Y-100290014D02*
X91112596Y-100147157D01*
X91112596Y-100147157D02*
X90969739Y-100075728D01*
X90969739Y-100075728D02*
X90684024Y-100075728D01*
X90684024Y-100075728D02*
X90541167Y-100147157D01*
X90541167Y-100147157D02*
X90469739Y-100290014D01*
X90469739Y-100290014D02*
X90469739Y-100432871D01*
X90469739Y-100432871D02*
X91184024Y-100575728D01*
X89826882Y-101075728D02*
X89826882Y-100075728D01*
X89826882Y-100361442D02*
X89755453Y-100218585D01*
X89755453Y-100218585D02*
X89684025Y-100147157D01*
X89684025Y-100147157D02*
X89541167Y-100075728D01*
X89541167Y-100075728D02*
X89398310Y-100075728D01*
X114826879Y-102062073D02*
X114969737Y-101990644D01*
X114969737Y-101990644D02*
X115184022Y-101990644D01*
X115184022Y-101990644D02*
X115398308Y-102062073D01*
X115398308Y-102062073D02*
X115541165Y-102204930D01*
X115541165Y-102204930D02*
X115612594Y-102347787D01*
X115612594Y-102347787D02*
X115684022Y-102633501D01*
X115684022Y-102633501D02*
X115684022Y-102847787D01*
X115684022Y-102847787D02*
X115612594Y-103133501D01*
X115612594Y-103133501D02*
X115541165Y-103276358D01*
X115541165Y-103276358D02*
X115398308Y-103419216D01*
X115398308Y-103419216D02*
X115184022Y-103490644D01*
X115184022Y-103490644D02*
X115041165Y-103490644D01*
X115041165Y-103490644D02*
X114826879Y-103419216D01*
X114826879Y-103419216D02*
X114755451Y-103347787D01*
X114755451Y-103347787D02*
X114755451Y-102847787D01*
X114755451Y-102847787D02*
X115041165Y-102847787D01*
X113898308Y-103490644D02*
X114041165Y-103419216D01*
X114041165Y-103419216D02*
X114112594Y-103347787D01*
X114112594Y-103347787D02*
X114184022Y-103204930D01*
X114184022Y-103204930D02*
X114184022Y-102776358D01*
X114184022Y-102776358D02*
X114112594Y-102633501D01*
X114112594Y-102633501D02*
X114041165Y-102562073D01*
X114041165Y-102562073D02*
X113898308Y-102490644D01*
X113898308Y-102490644D02*
X113684022Y-102490644D01*
X113684022Y-102490644D02*
X113541165Y-102562073D01*
X113541165Y-102562073D02*
X113469737Y-102633501D01*
X113469737Y-102633501D02*
X113398308Y-102776358D01*
X113398308Y-102776358D02*
X113398308Y-103204930D01*
X113398308Y-103204930D02*
X113469737Y-103347787D01*
X113469737Y-103347787D02*
X113541165Y-103419216D01*
X113541165Y-103419216D02*
X113684022Y-103490644D01*
X113684022Y-103490644D02*
X113898308Y-103490644D01*
X112541165Y-103490644D02*
X112684022Y-103419216D01*
X112684022Y-103419216D02*
X112755451Y-103276358D01*
X112755451Y-103276358D02*
X112755451Y-101990644D01*
X111326880Y-103490644D02*
X111326880Y-101990644D01*
X111326880Y-103419216D02*
X111469737Y-103490644D01*
X111469737Y-103490644D02*
X111755451Y-103490644D01*
X111755451Y-103490644D02*
X111898308Y-103419216D01*
X111898308Y-103419216D02*
X111969737Y-103347787D01*
X111969737Y-103347787D02*
X112041165Y-103204930D01*
X112041165Y-103204930D02*
X112041165Y-102776358D01*
X112041165Y-102776358D02*
X111969737Y-102633501D01*
X111969737Y-102633501D02*
X111898308Y-102562073D01*
X111898308Y-102562073D02*
X111755451Y-102490644D01*
X111755451Y-102490644D02*
X111469737Y-102490644D01*
X111469737Y-102490644D02*
X111326880Y-102562073D01*
X108612594Y-103490644D02*
X109112594Y-102776358D01*
X109469737Y-103490644D02*
X109469737Y-101990644D01*
X109469737Y-101990644D02*
X108898308Y-101990644D01*
X108898308Y-101990644D02*
X108755451Y-102062073D01*
X108755451Y-102062073D02*
X108684022Y-102133501D01*
X108684022Y-102133501D02*
X108612594Y-102276358D01*
X108612594Y-102276358D02*
X108612594Y-102490644D01*
X108612594Y-102490644D02*
X108684022Y-102633501D01*
X108684022Y-102633501D02*
X108755451Y-102704930D01*
X108755451Y-102704930D02*
X108898308Y-102776358D01*
X108898308Y-102776358D02*
X109469737Y-102776358D01*
X107326880Y-102490644D02*
X107326880Y-103490644D01*
X107969737Y-102490644D02*
X107969737Y-103276358D01*
X107969737Y-103276358D02*
X107898308Y-103419216D01*
X107898308Y-103419216D02*
X107755451Y-103490644D01*
X107755451Y-103490644D02*
X107541165Y-103490644D01*
X107541165Y-103490644D02*
X107398308Y-103419216D01*
X107398308Y-103419216D02*
X107326880Y-103347787D01*
X106684022Y-103419216D02*
X106541165Y-103490644D01*
X106541165Y-103490644D02*
X106255451Y-103490644D01*
X106255451Y-103490644D02*
X106112594Y-103419216D01*
X106112594Y-103419216D02*
X106041165Y-103276358D01*
X106041165Y-103276358D02*
X106041165Y-103204930D01*
X106041165Y-103204930D02*
X106112594Y-103062073D01*
X106112594Y-103062073D02*
X106255451Y-102990644D01*
X106255451Y-102990644D02*
X106469737Y-102990644D01*
X106469737Y-102990644D02*
X106612594Y-102919216D01*
X106612594Y-102919216D02*
X106684022Y-102776358D01*
X106684022Y-102776358D02*
X106684022Y-102704930D01*
X106684022Y-102704930D02*
X106612594Y-102562073D01*
X106612594Y-102562073D02*
X106469737Y-102490644D01*
X106469737Y-102490644D02*
X106255451Y-102490644D01*
X106255451Y-102490644D02*
X106112594Y-102562073D01*
X105398308Y-103490644D02*
X105398308Y-101990644D01*
X104755451Y-103490644D02*
X104755451Y-102704930D01*
X104755451Y-102704930D02*
X104826879Y-102562073D01*
X104826879Y-102562073D02*
X104969736Y-102490644D01*
X104969736Y-102490644D02*
X105184022Y-102490644D01*
X105184022Y-102490644D02*
X105326879Y-102562073D01*
X105326879Y-102562073D02*
X105398308Y-102633501D01*
X102041165Y-103490644D02*
X102541165Y-102776358D01*
X102898308Y-103490644D02*
X102898308Y-101990644D01*
X102898308Y-101990644D02*
X102326879Y-101990644D01*
X102326879Y-101990644D02*
X102184022Y-102062073D01*
X102184022Y-102062073D02*
X102112593Y-102133501D01*
X102112593Y-102133501D02*
X102041165Y-102276358D01*
X102041165Y-102276358D02*
X102041165Y-102490644D01*
X102041165Y-102490644D02*
X102112593Y-102633501D01*
X102112593Y-102633501D02*
X102184022Y-102704930D01*
X102184022Y-102704930D02*
X102326879Y-102776358D01*
X102326879Y-102776358D02*
X102898308Y-102776358D01*
X101184022Y-103490644D02*
X101326879Y-103419216D01*
X101326879Y-103419216D02*
X101398308Y-103347787D01*
X101398308Y-103347787D02*
X101469736Y-103204930D01*
X101469736Y-103204930D02*
X101469736Y-102776358D01*
X101469736Y-102776358D02*
X101398308Y-102633501D01*
X101398308Y-102633501D02*
X101326879Y-102562073D01*
X101326879Y-102562073D02*
X101184022Y-102490644D01*
X101184022Y-102490644D02*
X100969736Y-102490644D01*
X100969736Y-102490644D02*
X100826879Y-102562073D01*
X100826879Y-102562073D02*
X100755451Y-102633501D01*
X100755451Y-102633501D02*
X100684022Y-102776358D01*
X100684022Y-102776358D02*
X100684022Y-103204930D01*
X100684022Y-103204930D02*
X100755451Y-103347787D01*
X100755451Y-103347787D02*
X100826879Y-103419216D01*
X100826879Y-103419216D02*
X100969736Y-103490644D01*
X100969736Y-103490644D02*
X101184022Y-103490644D01*
X100041165Y-103490644D02*
X100041165Y-101990644D01*
X100041165Y-102562073D02*
X99898308Y-102490644D01*
X99898308Y-102490644D02*
X99612593Y-102490644D01*
X99612593Y-102490644D02*
X99469736Y-102562073D01*
X99469736Y-102562073D02*
X99398308Y-102633501D01*
X99398308Y-102633501D02*
X99326879Y-102776358D01*
X99326879Y-102776358D02*
X99326879Y-103204930D01*
X99326879Y-103204930D02*
X99398308Y-103347787D01*
X99398308Y-103347787D02*
X99469736Y-103419216D01*
X99469736Y-103419216D02*
X99612593Y-103490644D01*
X99612593Y-103490644D02*
X99898308Y-103490644D01*
X99898308Y-103490644D02*
X100041165Y-103419216D01*
X98469736Y-103490644D02*
X98612593Y-103419216D01*
X98612593Y-103419216D02*
X98684022Y-103347787D01*
X98684022Y-103347787D02*
X98755450Y-103204930D01*
X98755450Y-103204930D02*
X98755450Y-102776358D01*
X98755450Y-102776358D02*
X98684022Y-102633501D01*
X98684022Y-102633501D02*
X98612593Y-102562073D01*
X98612593Y-102562073D02*
X98469736Y-102490644D01*
X98469736Y-102490644D02*
X98255450Y-102490644D01*
X98255450Y-102490644D02*
X98112593Y-102562073D01*
X98112593Y-102562073D02*
X98041165Y-102633501D01*
X98041165Y-102633501D02*
X97969736Y-102776358D01*
X97969736Y-102776358D02*
X97969736Y-103204930D01*
X97969736Y-103204930D02*
X98041165Y-103347787D01*
X98041165Y-103347787D02*
X98112593Y-103419216D01*
X98112593Y-103419216D02*
X98255450Y-103490644D01*
X98255450Y-103490644D02*
X98469736Y-103490644D01*
X97541164Y-102490644D02*
X96969736Y-102490644D01*
X97326879Y-101990644D02*
X97326879Y-103276358D01*
X97326879Y-103276358D02*
X97255450Y-103419216D01*
X97255450Y-103419216D02*
X97112593Y-103490644D01*
X97112593Y-103490644D02*
X96969736Y-103490644D01*
X96469736Y-103490644D02*
X96469736Y-102490644D01*
X96469736Y-101990644D02*
X96541164Y-102062073D01*
X96541164Y-102062073D02*
X96469736Y-102133501D01*
X96469736Y-102133501D02*
X96398307Y-102062073D01*
X96398307Y-102062073D02*
X96469736Y-101990644D01*
X96469736Y-101990644D02*
X96469736Y-102133501D01*
X95112593Y-103419216D02*
X95255450Y-103490644D01*
X95255450Y-103490644D02*
X95541164Y-103490644D01*
X95541164Y-103490644D02*
X95684021Y-103419216D01*
X95684021Y-103419216D02*
X95755450Y-103347787D01*
X95755450Y-103347787D02*
X95826878Y-103204930D01*
X95826878Y-103204930D02*
X95826878Y-102776358D01*
X95826878Y-102776358D02*
X95755450Y-102633501D01*
X95755450Y-102633501D02*
X95684021Y-102562073D01*
X95684021Y-102562073D02*
X95541164Y-102490644D01*
X95541164Y-102490644D02*
X95255450Y-102490644D01*
X95255450Y-102490644D02*
X95112593Y-102562073D01*
X94541164Y-103419216D02*
X94398307Y-103490644D01*
X94398307Y-103490644D02*
X94112593Y-103490644D01*
X94112593Y-103490644D02*
X93969736Y-103419216D01*
X93969736Y-103419216D02*
X93898307Y-103276358D01*
X93898307Y-103276358D02*
X93898307Y-103204930D01*
X93898307Y-103204930D02*
X93969736Y-103062073D01*
X93969736Y-103062073D02*
X94112593Y-102990644D01*
X94112593Y-102990644D02*
X94326879Y-102990644D01*
X94326879Y-102990644D02*
X94469736Y-102919216D01*
X94469736Y-102919216D02*
X94541164Y-102776358D01*
X94541164Y-102776358D02*
X94541164Y-102704930D01*
X94541164Y-102704930D02*
X94469736Y-102562073D01*
X94469736Y-102562073D02*
X94326879Y-102490644D01*
X94326879Y-102490644D02*
X94112593Y-102490644D01*
X94112593Y-102490644D02*
X93969736Y-102562073D01*
D11*
%TO.C,G\u002A\u002A\u002A*%
G36*
X150935177Y-137953891D02*
G01*
X150996523Y-138777527D01*
X151043719Y-140109647D01*
X151051787Y-140672852D01*
X151038318Y-141623881D01*
X150991346Y-142280334D01*
X150917013Y-142525130D01*
X150868818Y-142434529D01*
X150800576Y-141927195D01*
X150754708Y-141073565D01*
X150739228Y-139988014D01*
X150739781Y-139820698D01*
X150761983Y-138572145D01*
X150808333Y-137847376D01*
X150869255Y-137642566D01*
X150935177Y-137953891D01*
G37*
G36*
X135685060Y-141211312D02*
G01*
X135665936Y-141217442D01*
X134970985Y-141562997D01*
X134495305Y-142006776D01*
X134256252Y-142278117D01*
X134070681Y-142237042D01*
X134053227Y-142163775D01*
X134222263Y-141710659D01*
X134784844Y-141319516D01*
X135625419Y-141076593D01*
X136547917Y-140939292D01*
X135685060Y-141211312D01*
G37*
G36*
X133969562Y-140196006D02*
G01*
X133822709Y-140461249D01*
X133815619Y-140468556D01*
X133596144Y-140950769D01*
X133505209Y-141651874D01*
X133504200Y-141728171D01*
X133419634Y-142293403D01*
X133240625Y-142525000D01*
X133217505Y-142521671D01*
X133046223Y-142242604D01*
X132976042Y-141651874D01*
X133054160Y-141013268D01*
X133375339Y-140382159D01*
X133875625Y-140143750D01*
X133969562Y-140196006D01*
G37*
G36*
X105901061Y-124812355D02*
G01*
X105764741Y-125426673D01*
X105473727Y-126296867D01*
X105077276Y-127300250D01*
X104624645Y-128314137D01*
X104165089Y-129215842D01*
X103747866Y-129882681D01*
X102887251Y-131344313D01*
X102240407Y-133099056D01*
X102225689Y-133152922D01*
X101938310Y-134154898D01*
X101672495Y-135001175D01*
X101484068Y-135513541D01*
X101299041Y-135981379D01*
X101009081Y-136800824D01*
X100690473Y-137762500D01*
X100391962Y-138654399D01*
X100098345Y-139457314D01*
X99893987Y-139933756D01*
X99850314Y-140024804D01*
X99646975Y-140654236D01*
X99477409Y-141455111D01*
X99431725Y-141706517D01*
X99269849Y-142291329D01*
X99110980Y-142525000D01*
X99092895Y-142520079D01*
X99052091Y-142231855D01*
X99141246Y-141596313D01*
X99327443Y-140748987D01*
X99577764Y-139825414D01*
X99859292Y-138961129D01*
X100139112Y-138291666D01*
X100428089Y-137610178D01*
X100778393Y-136596548D01*
X101094084Y-135513541D01*
X101112284Y-135444210D01*
X101375934Y-134504051D01*
X101610942Y-133770386D01*
X101768357Y-133396875D01*
X101954593Y-132967067D01*
X102135834Y-132302994D01*
X102363641Y-131675189D01*
X102803580Y-130795899D01*
X103357011Y-129866967D01*
X103409426Y-129786042D01*
X103911257Y-128982194D01*
X104267036Y-128360755D01*
X104402672Y-128050431D01*
X104507065Y-127706869D01*
X104770587Y-127138597D01*
X104794178Y-127092686D01*
X105137516Y-126323184D01*
X105456785Y-125467224D01*
X105525366Y-125267795D01*
X105739015Y-124752714D01*
X105871662Y-124592842D01*
X105901061Y-124812355D01*
G37*
G36*
X119859947Y-139754736D02*
G01*
X120397889Y-140107977D01*
X120666535Y-140588426D01*
X120544744Y-141064828D01*
X119990237Y-141374169D01*
X119169361Y-141423416D01*
X118291667Y-141195169D01*
X118128071Y-141106490D01*
X118238871Y-141049288D01*
X118853749Y-141109975D01*
X119075722Y-141134937D01*
X119759117Y-141130323D01*
X120111379Y-140989878D01*
X120193557Y-140532565D01*
X119887800Y-140067130D01*
X119261462Y-139801931D01*
X118556250Y-139693869D01*
X119242848Y-139654226D01*
X119859947Y-139754736D01*
G37*
G36*
X150651545Y-136571875D02*
G01*
X150651909Y-136634532D01*
X150616434Y-137048726D01*
X150529576Y-137039931D01*
X150481038Y-136822525D01*
X150519772Y-136246181D01*
X150532864Y-136200689D01*
X150613393Y-136161518D01*
X150651545Y-136571875D01*
G37*
G36*
X150173959Y-134190625D02*
G01*
X150293785Y-134554000D01*
X150393572Y-135248958D01*
X150386253Y-135432567D01*
X150325787Y-135519846D01*
X150173959Y-135116666D01*
X150012274Y-134501932D01*
X149956671Y-134063958D01*
X150010566Y-133923487D01*
X150173959Y-134190625D01*
G37*
G36*
X149909375Y-133396875D02*
G01*
X149777084Y-133529166D01*
X149644792Y-133396875D01*
X149777084Y-133264583D01*
X149909375Y-133396875D01*
G37*
G36*
X148315687Y-128966635D02*
G01*
X148478422Y-129463050D01*
X148669476Y-130098083D01*
X148986947Y-130883333D01*
X149230075Y-131433087D01*
X149508719Y-132206250D01*
X149528492Y-132274700D01*
X149589092Y-132658842D01*
X149418607Y-132598556D01*
X149390754Y-132567827D01*
X149161488Y-132143948D01*
X148874435Y-131432766D01*
X148580896Y-130589830D01*
X148332173Y-129770687D01*
X148179565Y-129130885D01*
X148174376Y-128825972D01*
X148176557Y-128823936D01*
X148315687Y-128966635D01*
G37*
G36*
X134178550Y-122232738D02*
G01*
X134190170Y-122490420D01*
X133843668Y-122512648D01*
X133730436Y-122501232D01*
X133316587Y-122677630D01*
X132738565Y-123205880D01*
X131938959Y-124134878D01*
X131152287Y-125043121D01*
X130516908Y-125613530D01*
X130122978Y-125731812D01*
X129878679Y-125682394D01*
X130003041Y-125916338D01*
X130056328Y-126208827D01*
X129767904Y-126642813D01*
X129084951Y-127289409D01*
X128894422Y-127443749D01*
X128530154Y-127738827D01*
X127908597Y-128162200D01*
X127574666Y-128303645D01*
X127522612Y-128325694D01*
X127369620Y-128339810D01*
X127283388Y-128453873D01*
X127264662Y-128606652D01*
X126952659Y-128930528D01*
X126336114Y-129216630D01*
X125409610Y-129205286D01*
X124509376Y-128766666D01*
X124445316Y-128715467D01*
X124111891Y-128382659D01*
X124125730Y-128243383D01*
X124293294Y-128277929D01*
X124721042Y-128554999D01*
X124790380Y-128619718D01*
X124986869Y-128653180D01*
X125041454Y-128224270D01*
X125042491Y-128157876D01*
X125055939Y-127978724D01*
X125476702Y-127978724D01*
X125491646Y-128420913D01*
X125689522Y-128668900D01*
X126093191Y-128780785D01*
X126447641Y-128650685D01*
X126530908Y-128303645D01*
X126492611Y-128151541D01*
X126356415Y-127483735D01*
X126349530Y-127443749D01*
X126758334Y-127443749D01*
X126812639Y-127522930D01*
X127038532Y-127708333D01*
X127064937Y-127701454D01*
X127155209Y-127443749D01*
X127144441Y-127371230D01*
X126875011Y-127179166D01*
X126779311Y-127199940D01*
X126758334Y-127443749D01*
X126349530Y-127443749D01*
X126212867Y-126649999D01*
X126025619Y-125459374D01*
X125692294Y-126767267D01*
X125586204Y-127236185D01*
X125476702Y-127978724D01*
X125055939Y-127978724D01*
X125098176Y-127416024D01*
X125211660Y-126563549D01*
X125211844Y-126562433D01*
X125288520Y-125912051D01*
X125195878Y-125646775D01*
X124888925Y-125637507D01*
X124847322Y-125644301D01*
X124565313Y-125606605D01*
X124457722Y-125295415D01*
X124475368Y-124585641D01*
X124501100Y-124202604D01*
X124800333Y-124202604D01*
X124810688Y-124751579D01*
X124915235Y-125057904D01*
X125113540Y-124864062D01*
X125134880Y-124572533D01*
X125075208Y-124268749D01*
X125567709Y-124268749D01*
X125567729Y-124278625D01*
X125609532Y-124572533D01*
X125646520Y-124832585D01*
X125832292Y-125062499D01*
X125835584Y-125062439D01*
X126020237Y-124826067D01*
X126032964Y-124733519D01*
X126361459Y-124733519D01*
X126382725Y-125286545D01*
X126580409Y-126208495D01*
X126974657Y-126672498D01*
X127552084Y-126656936D01*
X128032432Y-126397538D01*
X128744713Y-125598354D01*
X129065025Y-124521795D01*
X129139584Y-123607291D01*
X127750521Y-123527318D01*
X126361459Y-123447345D01*
X126361459Y-124268749D01*
X126361459Y-124733519D01*
X126032964Y-124733519D01*
X126096876Y-124268749D01*
X126096855Y-124258874D01*
X126018065Y-123704914D01*
X125832292Y-123475000D01*
X125829000Y-123475060D01*
X125644347Y-123711432D01*
X125567709Y-124268749D01*
X125075208Y-124268749D01*
X125023237Y-124004166D01*
X124889613Y-123602873D01*
X124828326Y-123656004D01*
X124800333Y-124202604D01*
X124501100Y-124202604D01*
X124551838Y-123447325D01*
X123009253Y-123527308D01*
X122452170Y-123563126D01*
X121813142Y-123660291D01*
X121501048Y-123844358D01*
X121386901Y-124166116D01*
X121402271Y-124466411D01*
X121680784Y-125117636D01*
X122171782Y-125742562D01*
X122739437Y-126185980D01*
X123247919Y-126292681D01*
X123591425Y-126270483D01*
X123612537Y-126537013D01*
X123577613Y-126647623D01*
X123635016Y-126894782D01*
X123901556Y-126822267D01*
X124223599Y-126451562D01*
X124346039Y-126257636D01*
X124468590Y-126226845D01*
X124501330Y-126675138D01*
X124398359Y-127201344D01*
X124045308Y-127763389D01*
X124018639Y-127805845D01*
X123827854Y-127960742D01*
X123548692Y-128061142D01*
X123158225Y-127992152D01*
X122538420Y-127726293D01*
X121571244Y-127236088D01*
X121402321Y-127148204D01*
X120344043Y-126583831D01*
X119375739Y-126047011D01*
X118688542Y-125643349D01*
X118506198Y-125534596D01*
X117808812Y-125199112D01*
X117291176Y-125063489D01*
X117030033Y-125007401D01*
X116667556Y-124665624D01*
X116558325Y-124481550D01*
X116179090Y-124268749D01*
X115921002Y-124189784D01*
X115850689Y-124132770D01*
X116735297Y-124132770D01*
X117243465Y-124546284D01*
X118267709Y-125070864D01*
X118369349Y-125117294D01*
X119200524Y-125525634D01*
X119788448Y-125864736D01*
X120011459Y-126065221D01*
X120124870Y-126190815D01*
X120613350Y-126468043D01*
X121356487Y-126790191D01*
X121880902Y-127009871D01*
X122585399Y-127364204D01*
X122976384Y-127642187D01*
X123193117Y-127843314D01*
X123552301Y-127964977D01*
X123715626Y-127763389D01*
X123497700Y-127558420D01*
X122918901Y-127217047D01*
X122105641Y-126814863D01*
X122100475Y-126812491D01*
X120848900Y-126171238D01*
X120042509Y-125577250D01*
X119610555Y-124961491D01*
X119482292Y-124254922D01*
X119463611Y-123806059D01*
X119318667Y-123563128D01*
X118913471Y-123493966D01*
X118114027Y-123527318D01*
X117265562Y-123622562D01*
X116742799Y-123826227D01*
X116735297Y-124132770D01*
X115850689Y-124132770D01*
X115481868Y-123833710D01*
X115346333Y-123663334D01*
X115301952Y-123489603D01*
X115691788Y-123579889D01*
X116079862Y-123632689D01*
X116432932Y-123485762D01*
X116477752Y-123373936D01*
X116393869Y-123285354D01*
X129854239Y-123285354D01*
X130130886Y-123541145D01*
X130184118Y-123607291D01*
X130419824Y-123900182D01*
X130644477Y-124551066D01*
X130662550Y-124681811D01*
X130746019Y-124913799D01*
X130925767Y-124858727D01*
X131270510Y-124467536D01*
X131848963Y-123691171D01*
X131925723Y-123585442D01*
X132434462Y-122859304D01*
X132761881Y-122346431D01*
X132840191Y-122152083D01*
X132777891Y-122168296D01*
X132360439Y-122354259D01*
X131722231Y-122681250D01*
X131516020Y-122786250D01*
X130773531Y-123088781D01*
X130217412Y-123210416D01*
X130046169Y-123213010D01*
X129854239Y-123285354D01*
X116393869Y-123285354D01*
X116322907Y-123210416D01*
X116236122Y-123195750D01*
X116042709Y-122913436D01*
X116093633Y-122758541D01*
X116380550Y-122896839D01*
X116604379Y-122945587D01*
X117291449Y-122995415D01*
X118347471Y-123032810D01*
X119683336Y-123058048D01*
X121209936Y-123071405D01*
X122838163Y-123073156D01*
X124478907Y-123063579D01*
X126043060Y-123042948D01*
X127441514Y-123011541D01*
X128585161Y-122969632D01*
X129384890Y-122917499D01*
X129751595Y-122855417D01*
X130108897Y-122729737D01*
X130727084Y-122565136D01*
X130748004Y-122560077D01*
X131563945Y-122302390D01*
X132412074Y-121954367D01*
X133179861Y-121696347D01*
X133719243Y-121795235D01*
X133831666Y-121871397D01*
X134101122Y-122152083D01*
X134178550Y-122232738D01*
G37*
G36*
X148057292Y-128105208D02*
G01*
X147925000Y-128237499D01*
X147792709Y-128105208D01*
X147925000Y-127972916D01*
X148057292Y-128105208D01*
G37*
G36*
X147528125Y-127311458D02*
G01*
X147395834Y-127443749D01*
X147263542Y-127311458D01*
X147395834Y-127179166D01*
X147528125Y-127311458D01*
G37*
G36*
X146800521Y-126351667D02*
G01*
X147082733Y-126593830D01*
X147263542Y-126814688D01*
X147259198Y-126861115D01*
X147086814Y-126862904D01*
X146700626Y-126451562D01*
X146552825Y-126259856D01*
X146487124Y-126122843D01*
X146800521Y-126351667D01*
G37*
G36*
X145940626Y-125194791D02*
G01*
X145808334Y-125327083D01*
X145676042Y-125194791D01*
X145808334Y-125062499D01*
X145940626Y-125194791D01*
G37*
G36*
X145411459Y-124401041D02*
G01*
X145279167Y-124533333D01*
X145146876Y-124401041D01*
X145279167Y-124268749D01*
X145411459Y-124401041D01*
G37*
G36*
X126360347Y-100987715D02*
G01*
X127735068Y-101016868D01*
X128693600Y-101085723D01*
X129316500Y-101202115D01*
X129684327Y-101373877D01*
X129947622Y-101637869D01*
X129882803Y-101770752D01*
X129789783Y-101762822D01*
X129404167Y-101514583D01*
X129401398Y-101510619D01*
X129062577Y-101405387D01*
X128279527Y-101322967D01*
X127134100Y-101269218D01*
X125708145Y-101250000D01*
X122175643Y-101250000D01*
X120893541Y-102263443D01*
X120630340Y-102477866D01*
X119418821Y-103594604D01*
X118113815Y-104970628D01*
X116796496Y-106503767D01*
X115548037Y-108091851D01*
X114449613Y-109632708D01*
X113582398Y-111024169D01*
X113027565Y-112164062D01*
X112775616Y-112672531D01*
X112545119Y-112891666D01*
X112500150Y-112897874D01*
X112338542Y-113150052D01*
X112331290Y-113198442D01*
X112169157Y-113643169D01*
X111835894Y-114402522D01*
X111387336Y-115362782D01*
X110879317Y-116410232D01*
X110367670Y-117431154D01*
X109908229Y-118311829D01*
X109556828Y-118938540D01*
X109369300Y-119197569D01*
X109299586Y-119247370D01*
X109163542Y-119620892D01*
X109113522Y-119806624D01*
X108826005Y-120360471D01*
X108368133Y-121054052D01*
X108078395Y-121475586D01*
X107798172Y-121964132D01*
X107772820Y-122156134D01*
X107831021Y-122178464D01*
X107679106Y-122354572D01*
X107644936Y-122380471D01*
X107315671Y-122782915D01*
X106944707Y-123408854D01*
X106879843Y-123530235D01*
X106521870Y-124055496D01*
X106237022Y-124268749D01*
X106126628Y-124191156D01*
X106236818Y-123792287D01*
X106676836Y-123036630D01*
X107456946Y-121904292D01*
X107588973Y-121707731D01*
X108048108Y-120943452D01*
X108674677Y-119829605D01*
X109420933Y-118453643D01*
X110239132Y-116903021D01*
X111081529Y-115265194D01*
X111959458Y-113578763D01*
X113800599Y-110341069D01*
X115615401Y-107574460D01*
X117431251Y-105242226D01*
X119275534Y-103307656D01*
X121175636Y-101734039D01*
X121232311Y-101693001D01*
X121662905Y-101400596D01*
X122071373Y-101202364D01*
X122567972Y-101080018D01*
X123262960Y-101015270D01*
X124266593Y-100989832D01*
X125689128Y-100985416D01*
X126360347Y-100987715D01*
G37*
G36*
X144617709Y-123607291D02*
G01*
X144485417Y-123739583D01*
X144353125Y-123607291D01*
X144485417Y-123475000D01*
X144617709Y-123607291D01*
G37*
G36*
X116317205Y-121940356D02*
G01*
X116701705Y-122148099D01*
X116622560Y-122297468D01*
X116122007Y-122261368D01*
X115750511Y-122223814D01*
X115213897Y-122392773D01*
X114604145Y-122926810D01*
X114404694Y-123131076D01*
X113943252Y-123566204D01*
X113698129Y-123739583D01*
X113704011Y-123674360D01*
X113935118Y-123348832D01*
X114331617Y-122879072D01*
X114767477Y-122411437D01*
X115116667Y-122092282D01*
X115170519Y-122056703D01*
X115712505Y-121906570D01*
X116317205Y-121940356D01*
G37*
G36*
X139936253Y-118074472D02*
G01*
X140314281Y-118349841D01*
X140930668Y-118893198D01*
X141707292Y-119638541D01*
X142208209Y-120147041D01*
X142903992Y-120898856D01*
X143381813Y-121475542D01*
X143559375Y-121781861D01*
X143621620Y-121997227D01*
X143956250Y-122416666D01*
X144169702Y-122639377D01*
X144353125Y-123034381D01*
X144309242Y-123087086D01*
X144053636Y-122914997D01*
X143663685Y-122509392D01*
X143248251Y-121998639D01*
X142916195Y-121511101D01*
X142776378Y-121175143D01*
X142774063Y-121157957D01*
X142547696Y-120815333D01*
X142025151Y-120259957D01*
X141310417Y-119603326D01*
X141233464Y-119536510D01*
X140536156Y-118892718D01*
X140042543Y-118369214D01*
X139855209Y-118073820D01*
X139936253Y-118074472D01*
G37*
G36*
X138267709Y-120079099D02*
G01*
X138291509Y-120087929D01*
X138580498Y-120487380D01*
X138697573Y-121378896D01*
X138701679Y-121531238D01*
X138707148Y-122062324D01*
X138678759Y-122086998D01*
X138609809Y-121623978D01*
X138602189Y-121569025D01*
X138425303Y-120835435D01*
X138179945Y-120324181D01*
X138171956Y-120314466D01*
X138014350Y-120050399D01*
X138267709Y-120079099D01*
G37*
G36*
X133697398Y-116467827D02*
G01*
X134126471Y-116789342D01*
X134787173Y-117364159D01*
X135592970Y-118119496D01*
X135959306Y-118474358D01*
X136690958Y-119205951D01*
X137135045Y-119732050D01*
X137360003Y-120169270D01*
X137434266Y-120634229D01*
X137426268Y-121243542D01*
X137378577Y-122548958D01*
X137280260Y-121311296D01*
X137216497Y-120768607D01*
X137062505Y-120265234D01*
X136746862Y-119768071D01*
X136191532Y-119157958D01*
X135318477Y-118315735D01*
X134818656Y-117834868D01*
X134144729Y-117148941D01*
X133707332Y-116652518D01*
X133583496Y-116429351D01*
X133697398Y-116467827D01*
G37*
G36*
X113780283Y-119099007D02*
G01*
X113259412Y-119716234D01*
X113250704Y-119725631D01*
X112693301Y-120479337D01*
X112282623Y-121285537D01*
X112119026Y-121688571D01*
X111906876Y-122005775D01*
X111830213Y-121822195D01*
X111928715Y-121152722D01*
X112006793Y-120915409D01*
X112419542Y-120195848D01*
X113012226Y-119494400D01*
X113093402Y-119416451D01*
X113669021Y-118923757D01*
X113907400Y-118826395D01*
X113780283Y-119099007D01*
G37*
G36*
X114870074Y-117432699D02*
G01*
X115109924Y-117484820D01*
X114852084Y-117578671D01*
X114377299Y-117715274D01*
X112993150Y-118433629D01*
X111960085Y-119525875D01*
X111733910Y-119846947D01*
X111293455Y-120361548D01*
X110994158Y-120564583D01*
X110973781Y-120406301D01*
X111230921Y-119979678D01*
X111680744Y-119395463D01*
X112231644Y-118764637D01*
X112792016Y-118198179D01*
X113270256Y-117807072D01*
X113854517Y-117545576D01*
X114644337Y-117420275D01*
X114870074Y-117432699D01*
G37*
G36*
X128213542Y-118027648D02*
G01*
X128201015Y-118098304D01*
X127909775Y-118502532D01*
X127353646Y-118946643D01*
X127219989Y-119030654D01*
X126586909Y-119374126D01*
X126234924Y-119476284D01*
X126226985Y-119336484D01*
X126626042Y-118954084D01*
X127201373Y-118487539D01*
X127750521Y-118039435D01*
X127871640Y-117942550D01*
X128149286Y-117799650D01*
X128213542Y-118027648D01*
G37*
G36*
X123350351Y-118482845D02*
G01*
X123980209Y-118742685D01*
X124281681Y-118892817D01*
X124823774Y-119193084D01*
X125038542Y-119361664D01*
X125028897Y-119376718D01*
X124740124Y-119358702D01*
X124201189Y-119226902D01*
X123617652Y-119038360D01*
X123195077Y-118850117D01*
X123113477Y-118789375D01*
X122921876Y-118456312D01*
X122971444Y-118412358D01*
X123350351Y-118482845D01*
G37*
G36*
X138702555Y-116458866D02*
G01*
X138912156Y-116782859D01*
X138930992Y-116833056D01*
X138986506Y-117098173D01*
X138764044Y-116930972D01*
X138613069Y-116736431D01*
X138583391Y-116456540D01*
X138702555Y-116458866D01*
G37*
G36*
X138074628Y-115459277D02*
G01*
X138267709Y-115833313D01*
X138247324Y-115922280D01*
X138003126Y-115934375D01*
X137931623Y-115880305D01*
X137738542Y-115506270D01*
X137758927Y-115417303D01*
X138003126Y-115405208D01*
X138074628Y-115459277D01*
G37*
G36*
X137738542Y-114876041D02*
G01*
X137606251Y-115008333D01*
X137473959Y-114876041D01*
X137606251Y-114743749D01*
X137738542Y-114876041D01*
G37*
G36*
X135688021Y-112328750D02*
G01*
X135970233Y-112570913D01*
X136151042Y-112791771D01*
X136146698Y-112838198D01*
X135974314Y-112839988D01*
X135588126Y-112428645D01*
X135440325Y-112236939D01*
X135374624Y-112099926D01*
X135688021Y-112328750D01*
G37*
G36*
X119217709Y-106773853D02*
G01*
X119280529Y-107089602D01*
X119532153Y-107467708D01*
X119627108Y-107610393D01*
X119732263Y-107732291D01*
X119827419Y-107842597D01*
X119822739Y-107996875D01*
X119819434Y-108105811D01*
X119814473Y-108109466D01*
X119525421Y-108435505D01*
X119185423Y-108922916D01*
X119140446Y-108987393D01*
X119110075Y-109034358D01*
X118743369Y-109496157D01*
X118485099Y-109652088D01*
X118348088Y-109639771D01*
X117847367Y-109768374D01*
X117269422Y-110041289D01*
X116808007Y-110356699D01*
X116656875Y-110612792D01*
X116696603Y-110668796D01*
X117110195Y-110821341D01*
X117791327Y-110858167D01*
X117932640Y-110851655D01*
X118464953Y-110843739D01*
X118526416Y-110907429D01*
X118165595Y-111070247D01*
X117629828Y-111203163D01*
X116954501Y-111191940D01*
X116771827Y-111169160D01*
X116212930Y-111361565D01*
X115507316Y-111972048D01*
X115204857Y-112271561D01*
X114693605Y-112716582D01*
X114393997Y-112891666D01*
X114354590Y-112887788D01*
X114288565Y-112696792D01*
X114486875Y-112331359D01*
X114838314Y-111948826D01*
X115231672Y-111706528D01*
X115574408Y-111512146D01*
X115863923Y-110922750D01*
X115755958Y-110097771D01*
X115707177Y-109844310D01*
X115821273Y-109040199D01*
X115927578Y-108785307D01*
X118480488Y-108785307D01*
X118512153Y-109099305D01*
X118591735Y-109140698D01*
X118688542Y-108922916D01*
X118669448Y-108782847D01*
X118512153Y-108746527D01*
X118480488Y-108785307D01*
X115927578Y-108785307D01*
X116199556Y-108133173D01*
X116290727Y-107996875D01*
X118423959Y-107996875D01*
X118556250Y-108129166D01*
X118688542Y-107996875D01*
X118556250Y-107864583D01*
X118423959Y-107996875D01*
X116290727Y-107996875D01*
X116467710Y-107732291D01*
X117101042Y-107732291D01*
X117233334Y-107864583D01*
X117365625Y-107732291D01*
X117233334Y-107600000D01*
X117101042Y-107732291D01*
X116467710Y-107732291D01*
X116644693Y-107467708D01*
X118688542Y-107467708D01*
X118820834Y-107600000D01*
X118953125Y-107467708D01*
X118820834Y-107335416D01*
X118688542Y-107467708D01*
X116644693Y-107467708D01*
X116753086Y-107305664D01*
X117318088Y-106806250D01*
X117894792Y-106806250D01*
X117897826Y-106866127D01*
X118011469Y-107070833D01*
X118053911Y-107058658D01*
X118291667Y-106806250D01*
X118333009Y-106703760D01*
X118174990Y-106541666D01*
X118098191Y-106551834D01*
X117894792Y-106806250D01*
X117318088Y-106806250D01*
X117392921Y-106740104D01*
X117696855Y-106578607D01*
X118494984Y-106304734D01*
X119025330Y-106370248D01*
X119184299Y-106703760D01*
X119217709Y-106773853D01*
G37*
G36*
X132164323Y-111141123D02*
G01*
X132954100Y-111468246D01*
X133540306Y-111946622D01*
X133761410Y-112474766D01*
X133752744Y-112511235D01*
X133562550Y-112432640D01*
X133203770Y-112022978D01*
X132720960Y-111536301D01*
X132192165Y-111433324D01*
X131762181Y-111469003D01*
X131096159Y-111326596D01*
X131004282Y-111289350D01*
X130729358Y-111146115D01*
X130878319Y-111080077D01*
X131503781Y-111056354D01*
X132164323Y-111141123D01*
G37*
G36*
X135092709Y-111965624D02*
G01*
X134960417Y-112097916D01*
X134828125Y-111965624D01*
X134960417Y-111833333D01*
X135092709Y-111965624D01*
G37*
G36*
X132976042Y-107476318D02*
G01*
X133050044Y-107874553D01*
X133383757Y-108402746D01*
X133478655Y-108498634D01*
X133694778Y-109060244D01*
X133705147Y-109566552D01*
X133714486Y-110022591D01*
X133681644Y-110460968D01*
X133606511Y-111066519D01*
X133530183Y-111304115D01*
X133472085Y-111280883D01*
X133096680Y-111038055D01*
X132521014Y-110616290D01*
X132502786Y-110602459D01*
X131709403Y-110145783D01*
X131086077Y-110067819D01*
X130755524Y-110101402D01*
X130675294Y-109888512D01*
X130645316Y-109609816D01*
X130394057Y-109115248D01*
X130020683Y-108604544D01*
X129646906Y-108239770D01*
X129394439Y-108182991D01*
X129356743Y-108412270D01*
X129524331Y-108900256D01*
X129687308Y-109324300D01*
X129522785Y-109452083D01*
X129509525Y-109451329D01*
X129216473Y-109207313D01*
X128926303Y-108658333D01*
X128911273Y-108619176D01*
X128645765Y-108084919D01*
X128420119Y-107864583D01*
X128416350Y-107864451D01*
X128337337Y-107732291D01*
X129271875Y-107732291D01*
X129404167Y-107864583D01*
X129536459Y-107732291D01*
X129502458Y-107698290D01*
X130672891Y-107698290D01*
X130677093Y-107732291D01*
X130692391Y-107856095D01*
X131074944Y-108039686D01*
X131470841Y-108232499D01*
X131390856Y-108523254D01*
X131318098Y-108666320D01*
X131407250Y-109064604D01*
X131744697Y-109355098D01*
X132148104Y-109340921D01*
X132269329Y-109306023D01*
X132535681Y-109516580D01*
X132598674Y-109646855D01*
X132690571Y-109662970D01*
X132693861Y-109566552D01*
X132514427Y-109002949D01*
X132097770Y-108412757D01*
X131568733Y-107917541D01*
X131052158Y-107638863D01*
X130672891Y-107698290D01*
X129502458Y-107698290D01*
X129404167Y-107600000D01*
X129271875Y-107732291D01*
X128337337Y-107732291D01*
X128272985Y-107624654D01*
X128213542Y-107064284D01*
X128214879Y-106970756D01*
X128358265Y-106409374D01*
X131123959Y-106409374D01*
X131256250Y-106541666D01*
X131388542Y-106409374D01*
X131308363Y-106329196D01*
X131777401Y-106329196D01*
X131798281Y-106409374D01*
X131833834Y-106545897D01*
X132180670Y-106937073D01*
X132550600Y-107194114D01*
X132711459Y-107144237D01*
X132682540Y-107015823D01*
X132420480Y-106648503D01*
X132050697Y-106360230D01*
X131777401Y-106329196D01*
X131308363Y-106329196D01*
X131256250Y-106277083D01*
X131123959Y-106409374D01*
X128358265Y-106409374D01*
X128371853Y-106356176D01*
X128875000Y-106012499D01*
X129317442Y-105774266D01*
X129536459Y-105489881D01*
X129700719Y-105311545D01*
X130197917Y-105218749D01*
X130632844Y-105279978D01*
X130859375Y-105465503D01*
X130992870Y-105661450D01*
X131454688Y-105893673D01*
X132068685Y-106162612D01*
X132730340Y-106757522D01*
X132862529Y-107144237D01*
X132976042Y-107476318D01*
G37*
G36*
X131749602Y-104160793D02*
G01*
X131963994Y-104371938D01*
X132311598Y-104854451D01*
X132358956Y-104928264D01*
X132552635Y-105309583D01*
X132475743Y-105368882D01*
X132242356Y-105145017D01*
X131945709Y-104728723D01*
X131740669Y-104335169D01*
X131745678Y-104160416D01*
X131749602Y-104160793D01*
G37*
G36*
X131006956Y-103113988D02*
G01*
X131256250Y-103366666D01*
X131305532Y-103460342D01*
X131287480Y-103631250D01*
X131240961Y-103619344D01*
X130991667Y-103366666D01*
X130942385Y-103272990D01*
X130960437Y-103102083D01*
X131006956Y-103113988D01*
G37*
G36*
X130594792Y-102308333D02*
G01*
X130575698Y-102448402D01*
X130418403Y-102484722D01*
X130386738Y-102445942D01*
X130418403Y-102131944D01*
X130497985Y-102090551D01*
X130594792Y-102308333D01*
G37*
G36*
X131812244Y-108405925D02*
G01*
X132050000Y-108658333D01*
X132091342Y-108760822D01*
X131933324Y-108922916D01*
X131856525Y-108912749D01*
X131653125Y-108658333D01*
X131656159Y-108598455D01*
X131769802Y-108393750D01*
X131812244Y-108405925D01*
G37*
%TD*%
%LPC*%
D12*
%TO.C,U7*%
X186100000Y-118140000D03*
D13*
X186100000Y-120680000D03*
X186100000Y-123220000D03*
X186100000Y-125760000D03*
X186100000Y-128300000D03*
X186100000Y-130840000D03*
X186100000Y-133380000D03*
X186100000Y-135920000D03*
X198780000Y-135920000D03*
X198780000Y-133380000D03*
X198780000Y-130840000D03*
X198780000Y-128300000D03*
X198780000Y-125760000D03*
X198780000Y-123220000D03*
X198780000Y-120680000D03*
D12*
X198780000Y-118140000D03*
%TD*%
%TO.C,U6*%
X186100000Y-76680000D03*
D13*
X186100000Y-79220000D03*
X186100000Y-81760000D03*
X186100000Y-84300000D03*
X186100000Y-86840000D03*
X186100000Y-89380000D03*
X186100000Y-91920000D03*
X186100000Y-94460000D03*
X198780000Y-94460000D03*
X198780000Y-91920000D03*
X198780000Y-89380000D03*
X198780000Y-86840000D03*
X198780000Y-84300000D03*
X198780000Y-81760000D03*
X198780000Y-79220000D03*
D12*
X198780000Y-76680000D03*
%TD*%
%TO.C,U5*%
X113860000Y-126880000D03*
D13*
X113860000Y-124340000D03*
X113860000Y-121800000D03*
X113860000Y-119260000D03*
X113860000Y-116720000D03*
X113860000Y-114180000D03*
X113860000Y-111640000D03*
X113860000Y-109100000D03*
X101180000Y-109100000D03*
X101180000Y-111640000D03*
X101180000Y-114180000D03*
X101180000Y-116720000D03*
X101180000Y-119260000D03*
X101180000Y-121800000D03*
X101180000Y-124340000D03*
D12*
X101180000Y-126880000D03*
%TD*%
%TO.C,U4*%
X113960000Y-85480000D03*
D13*
X113960000Y-82940000D03*
X113960000Y-80400000D03*
X113960000Y-77860000D03*
X113960000Y-75320000D03*
X113960000Y-72780000D03*
X113960000Y-70240000D03*
X113960000Y-67700000D03*
X101280000Y-67700000D03*
X101280000Y-70240000D03*
X101280000Y-72780000D03*
X101280000Y-75320000D03*
X101280000Y-77860000D03*
X101280000Y-80400000D03*
X101280000Y-82940000D03*
D12*
X101280000Y-85480000D03*
%TD*%
D14*
%TO.C,TP8*%
X68780000Y-107180000D03*
%TD*%
D15*
%TO.C,H4*%
X68500000Y-138500000D03*
%TD*%
D14*
%TO.C,TP2*%
X113680000Y-60280000D03*
%TD*%
%TO.C,TP11*%
X230800000Y-129180000D03*
%TD*%
%TO.C,TP12*%
X230780000Y-124580000D03*
%TD*%
D16*
%TO.C,U1*%
X140960000Y-83360000D03*
D17*
X140960000Y-85900000D03*
X140960000Y-88440000D03*
X140960000Y-90980000D03*
X140960000Y-93520000D03*
X140960000Y-96060000D03*
X140960000Y-98600000D03*
X140960000Y-101140000D03*
X140960000Y-103680000D03*
X140960000Y-106220000D03*
X140960000Y-108760000D03*
X140960000Y-111300000D03*
X140960000Y-113840000D03*
X140960000Y-116380000D03*
X140960000Y-118920000D03*
X140960000Y-121460000D03*
X140960000Y-124000000D03*
X140960000Y-126540000D03*
X140960000Y-129080000D03*
X140960000Y-131620000D03*
X140960000Y-134160000D03*
X140960000Y-136700000D03*
X140960000Y-139240000D03*
X140960000Y-141780000D03*
X156200000Y-141780000D03*
X156200000Y-139240000D03*
X156200000Y-136700000D03*
X156200000Y-134160000D03*
X156200000Y-131620000D03*
X156200000Y-129080000D03*
X156200000Y-126540000D03*
X156200000Y-124000000D03*
X156200000Y-121460000D03*
X156200000Y-118920000D03*
X156200000Y-116380000D03*
X156200000Y-113840000D03*
X156200000Y-111300000D03*
X156200000Y-108760000D03*
X156200000Y-106220000D03*
X156200000Y-103680000D03*
X156200000Y-101140000D03*
X156200000Y-98600000D03*
X156200000Y-96060000D03*
X156200000Y-93520000D03*
X156200000Y-90980000D03*
X156200000Y-88440000D03*
X156200000Y-85900000D03*
X156200000Y-83360000D03*
%TD*%
D14*
%TO.C,TP6*%
X68900000Y-76300000D03*
%TD*%
D18*
%TO.C,J1*%
X144700000Y-65500000D03*
D19*
X142700000Y-65500000D03*
%TD*%
D12*
%TO.C,J4*%
X68680000Y-117620000D03*
D13*
X68680000Y-120160000D03*
X68680000Y-122700000D03*
X68680000Y-125240000D03*
X68680000Y-127780000D03*
X68680000Y-130320000D03*
%TD*%
D14*
%TO.C,TP4*%
X159480000Y-88780000D03*
%TD*%
%TO.C,TP14*%
X109280000Y-60300000D03*
%TD*%
%TO.C,TP10*%
X230780000Y-98780000D03*
%TD*%
%TO.C,TP5*%
X68840000Y-80740000D03*
%TD*%
%TO.C,TP13*%
X158500000Y-60000000D03*
%TD*%
D20*
%TO.C,J2*%
X157580000Y-64980000D03*
D21*
X152580000Y-64980000D03*
%TD*%
D15*
%TO.C,He1*%
X232500000Y-62500000D03*
%TD*%
D12*
%TO.C,J6*%
X230880000Y-118860000D03*
D13*
X230880000Y-116320000D03*
X230880000Y-113780000D03*
X230880000Y-111240000D03*
X230880000Y-108700000D03*
X230880000Y-106160000D03*
%TD*%
D15*
%TO.C,He2*%
X232500000Y-138500000D03*
%TD*%
D12*
%TO.C,J5*%
X230780000Y-88780000D03*
D13*
X230780000Y-86240000D03*
X230780000Y-83700000D03*
X230780000Y-81160000D03*
X230780000Y-78620000D03*
X230780000Y-76080000D03*
%TD*%
D14*
%TO.C,TP3*%
X159480000Y-81280000D03*
%TD*%
D12*
%TO.C,J3*%
X68780000Y-85720000D03*
D13*
X68780000Y-88260000D03*
X68780000Y-90800000D03*
X68780000Y-93340000D03*
X68780000Y-95880000D03*
X68780000Y-98420000D03*
%TD*%
D14*
%TO.C,TP15*%
X159380000Y-85080000D03*
%TD*%
%TO.C,TP7*%
X68780000Y-112180000D03*
%TD*%
%TO.C,TP9*%
X230680000Y-94180000D03*
%TD*%
%TO.C,TP1*%
X152380000Y-60000000D03*
%TD*%
D15*
%TO.C,H1*%
X68500000Y-62500000D03*
%TD*%
%LPD*%
M02*
