M48
; DRILL file {KiCad 9.0.7} date 2026-01-25T13:43:27-0500
; FORMAT={-:-/ absolute / metric / decimal}
; #@! TF.CreationDate,2026-01-25T13:43:27-05:00
; #@! TF.GenerationSoftware,Kicad,Pcbnew,9.0.7
; #@! TF.FileFunction,Plated,1,2,PTH
FMAT,2
METRIC
; #@! TA.AperFunction,Plated,PTH,ViaDrill
T1C0.300
; #@! TA.AperFunction,Plated,PTH,ViaDrill
T2C0.400
; #@! TA.AperFunction,Plated,PTH,ComponentDrill
T3C0.750
; #@! TA.AperFunction,Plated,PTH,ComponentDrill
T4C1.000
; #@! TA.AperFunction,Plated,PTH,ComponentDrill
T5C1.300
; #@! TA.AperFunction,Plated,PTH,ComponentDrill
T6C2.700
%
G90
G05
T1
X43.66Y-55.34
X47.16Y-57.64
X53.86Y-40.04
X53.959Y-56.84
X54.26Y-67.84
X59.46Y-73.84
X61.46Y-73.84
X61.96Y-68.04
X64.56Y-73.54
X64.66Y-67.94
X64.76Y-66.44
X66.86Y-66.34
X66.96Y-68.04
X67.383Y-73.559
X69.46Y-68.24
X69.854Y-67.031
X69.96Y-73.74
X71.549Y-66.829
X71.639Y-73.849
X71.661Y-68.131
X76.76Y-47.24
X76.86Y-42.24
X76.86Y-44.34
X76.86Y-49.34
X76.96Y-52.54
X77.06Y-54.54
T2
X34.36Y-48.24
X34.662Y-33.667
X34.96Y-38.44
X35.06Y-41.64
X36.56Y-69.64
X36.86Y-25.14
X38.36Y-56.14
X39.66Y-28.24
X39.76Y-53.44
X40.36Y-59.14
X40.36Y-61.64
X40.36Y-64.34
X40.46Y-66.64
X40.66Y-70.14
X43.26Y-53.44
X43.56Y-47.54
X43.66Y-58.14
X43.76Y-40.14
X44.46Y-37.34
X44.86Y-23.54
X45.56Y-30.44
X49.16Y-67.74
X49.46Y-60.14
X51.06Y-73.14
X52.06Y-60.24
X52.357Y-67.537
X53.16Y-43.54
X53.46Y-45.74
X53.76Y-48.44
X54.06Y-33.34
X54.36Y-35.84
X54.66Y-38.54
X55.446Y-76.464
X55.56Y-29.64
X55.66Y-54.14
X55.66Y-56.24
X55.86Y-51.04
X56.591Y-73.727
X57.66Y-63.44
X58.26Y-28.24
X59.66Y-62.54
X60.06Y-23.34
X63.345Y-77.106
X63.86Y-32.84
X63.96Y-38.14
X66.16Y-23.34
X67.86Y-38.44
X68.06Y-76.94
X71.96Y-28.24
X74.282Y-63.244
X74.36Y-76.94
X76.16Y-31.44
X76.26Y-34.54
X76.86Y-38.34
X77.633Y-72.343
X77.66Y-57.94
X77.76Y-67.44
X77.86Y-63.24
X78.06Y-34.24
X78.16Y-77.04
X78.26Y-31.64
X84.76Y-28.34
X85.06Y-62.34
X85.16Y-43.94
X85.76Y-49.94
X85.96Y-57.74
X87.76Y-23.84
X89.56Y-56.54
X90.06Y-28.14
X90.36Y-62.14
X90.56Y-77.34
X92.16Y-43.94
X92.86Y-31.94
X93.56Y-62.04
X93.839Y-56.831
X94.76Y-32.04
X94.96Y-39.04
X94.96Y-44.04
X96.56Y-61.74
X97.56Y-28.14
X97.66Y-23.54
T3
X39.66Y-73.84
X41.66Y-73.84
X43.66Y-73.84
X45.66Y-73.84
X47.66Y-73.84
T4
X38.36Y-60.32
X38.36Y-62.86
X38.36Y-65.4
X38.36Y-67.94
X40.288Y-33.008
X40.288Y-38.008
X41.0Y-25.84
X42.36Y-60.32
X42.36Y-62.86
X42.36Y-65.4
X42.36Y-67.94
X43.54Y-25.84
X44.9Y-60.32
X44.9Y-62.86
X44.9Y-65.4
X44.9Y-67.94
X46.08Y-25.84
X48.16Y-31.98
X48.16Y-34.52
X48.16Y-37.06
X48.16Y-39.6
X48.16Y-42.14
X48.16Y-44.68
X48.16Y-47.22
X48.16Y-49.76
X48.16Y-52.3
X48.16Y-54.84
X48.62Y-25.84
X51.16Y-25.84
X53.7Y-25.84
X56.24Y-25.84
X58.78Y-25.84
X58.82Y-32.02
X58.82Y-34.56
X58.82Y-37.1
X58.82Y-39.64
X58.82Y-42.18
X58.82Y-44.72
X58.82Y-47.26
X58.82Y-49.8
X58.82Y-52.34
X58.82Y-54.88
X58.82Y-57.42
X58.82Y-59.96
X61.32Y-25.84
X63.86Y-25.84
X71.5Y-32.02
X71.5Y-34.56
X71.5Y-37.1
X71.5Y-39.64
X71.5Y-42.18
X71.5Y-44.72
X71.5Y-47.26
X71.5Y-49.8
X71.5Y-52.34
X71.5Y-54.88
X71.5Y-57.42
X71.5Y-59.96
X71.62Y-25.84
X74.16Y-25.84
X76.7Y-25.84
X79.24Y-25.84
X81.17Y-31.98
X81.17Y-34.52
X81.17Y-37.06
X81.17Y-39.6
X81.17Y-42.14
X81.17Y-44.68
X81.17Y-47.22
X81.17Y-49.76
X81.17Y-52.3
X81.17Y-54.84
X81.78Y-25.84
X84.32Y-25.84
X86.86Y-25.84
X89.4Y-25.84
X91.94Y-25.84
X93.16Y-35.84
X93.16Y-40.84
X93.16Y-47.08
X93.16Y-52.08
X94.48Y-25.84
T5
X40.288Y-44.84
X40.288Y-49.84
X60.76Y-71.04
X65.76Y-71.04
X70.76Y-71.04
X83.06Y-69.04
X88.06Y-69.04
T6
X95.06Y-66.54
X95.06Y-71.54
M30
