%TF.GenerationSoftware,KiCad,Pcbnew,9.0.7*%
%TF.CreationDate,2026-01-25T13:43:23-05:00*%
%TF.ProjectId,brushlessMotorDriverDaughter,62727573-686c-4657-9373-4d6f746f7244,1*%
%TF.SameCoordinates,Original*%
%TF.FileFunction,Legend,Top*%
%TF.FilePolarity,Positive*%
%FSLAX46Y46*%
G04 Gerber Fmt 4.6, Leading zero omitted, Abs format (unit mm)*
G04 Created by KiCad (PCBNEW 9.0.7) date 2026-01-25 13:43:23*
%MOMM*%
%LPD*%
G01*
G04 APERTURE LIST*
%ADD10C,0.200000*%
%ADD11C,0.100000*%
%ADD12C,0.150000*%
%ADD13C,0.120000*%
G04 APERTURE END LIST*
D10*
X51427219Y-76670326D02*
X50427219Y-76670326D01*
X50903409Y-76670326D02*
X50903409Y-76098898D01*
X51427219Y-76098898D02*
X50427219Y-76098898D01*
X50903409Y-75622707D02*
X50903409Y-75289374D01*
X51427219Y-75146517D02*
X51427219Y-75622707D01*
X51427219Y-75622707D02*
X50427219Y-75622707D01*
X50427219Y-75622707D02*
X50427219Y-75146517D01*
D11*
X34088571Y-70181764D02*
X34088571Y-69431764D01*
X34088571Y-69788907D02*
X34517142Y-69788907D01*
X34517142Y-70181764D02*
X34517142Y-69431764D01*
X34838571Y-70146050D02*
X34945714Y-70181764D01*
X34945714Y-70181764D02*
X35124285Y-70181764D01*
X35124285Y-70181764D02*
X35195714Y-70146050D01*
X35195714Y-70146050D02*
X35231428Y-70110335D01*
X35231428Y-70110335D02*
X35267142Y-70038907D01*
X35267142Y-70038907D02*
X35267142Y-69967478D01*
X35267142Y-69967478D02*
X35231428Y-69896050D01*
X35231428Y-69896050D02*
X35195714Y-69860335D01*
X35195714Y-69860335D02*
X35124285Y-69824621D01*
X35124285Y-69824621D02*
X34981428Y-69788907D01*
X34981428Y-69788907D02*
X34909999Y-69753192D01*
X34909999Y-69753192D02*
X34874285Y-69717478D01*
X34874285Y-69717478D02*
X34838571Y-69646050D01*
X34838571Y-69646050D02*
X34838571Y-69574621D01*
X34838571Y-69574621D02*
X34874285Y-69503192D01*
X34874285Y-69503192D02*
X34909999Y-69467478D01*
X34909999Y-69467478D02*
X34981428Y-69431764D01*
X34981428Y-69431764D02*
X35159999Y-69431764D01*
X35159999Y-69431764D02*
X35267142Y-69467478D01*
X47388571Y-77067478D02*
X47317143Y-77031764D01*
X47317143Y-77031764D02*
X47210000Y-77031764D01*
X47210000Y-77031764D02*
X47102857Y-77067478D01*
X47102857Y-77067478D02*
X47031428Y-77138907D01*
X47031428Y-77138907D02*
X46995714Y-77210335D01*
X46995714Y-77210335D02*
X46960000Y-77353192D01*
X46960000Y-77353192D02*
X46960000Y-77460335D01*
X46960000Y-77460335D02*
X46995714Y-77603192D01*
X46995714Y-77603192D02*
X47031428Y-77674621D01*
X47031428Y-77674621D02*
X47102857Y-77746050D01*
X47102857Y-77746050D02*
X47210000Y-77781764D01*
X47210000Y-77781764D02*
X47281428Y-77781764D01*
X47281428Y-77781764D02*
X47388571Y-77746050D01*
X47388571Y-77746050D02*
X47424285Y-77710335D01*
X47424285Y-77710335D02*
X47424285Y-77460335D01*
X47424285Y-77460335D02*
X47281428Y-77460335D01*
X47745714Y-77781764D02*
X47745714Y-77031764D01*
X47745714Y-77031764D02*
X48174285Y-77781764D01*
X48174285Y-77781764D02*
X48174285Y-77031764D01*
X48531428Y-77781764D02*
X48531428Y-77031764D01*
X48531428Y-77031764D02*
X48709999Y-77031764D01*
X48709999Y-77031764D02*
X48817142Y-77067478D01*
X48817142Y-77067478D02*
X48888571Y-77138907D01*
X48888571Y-77138907D02*
X48924285Y-77210335D01*
X48924285Y-77210335D02*
X48959999Y-77353192D01*
X48959999Y-77353192D02*
X48959999Y-77460335D01*
X48959999Y-77460335D02*
X48924285Y-77603192D01*
X48924285Y-77603192D02*
X48888571Y-77674621D01*
X48888571Y-77674621D02*
X48817142Y-77746050D01*
X48817142Y-77746050D02*
X48709999Y-77781764D01*
X48709999Y-77781764D02*
X48531428Y-77781764D01*
X45070714Y-77781764D02*
X45070714Y-77031764D01*
X45070714Y-77388907D02*
X45499285Y-77388907D01*
X45499285Y-77781764D02*
X45499285Y-77031764D01*
X46284999Y-77710335D02*
X46249285Y-77746050D01*
X46249285Y-77746050D02*
X46142142Y-77781764D01*
X46142142Y-77781764D02*
X46070714Y-77781764D01*
X46070714Y-77781764D02*
X45963571Y-77746050D01*
X45963571Y-77746050D02*
X45892142Y-77674621D01*
X45892142Y-77674621D02*
X45856428Y-77603192D01*
X45856428Y-77603192D02*
X45820714Y-77460335D01*
X45820714Y-77460335D02*
X45820714Y-77353192D01*
X45820714Y-77353192D02*
X45856428Y-77210335D01*
X45856428Y-77210335D02*
X45892142Y-77138907D01*
X45892142Y-77138907D02*
X45963571Y-77067478D01*
X45963571Y-77067478D02*
X46070714Y-77031764D01*
X46070714Y-77031764D02*
X46142142Y-77031764D01*
X46142142Y-77031764D02*
X46249285Y-77067478D01*
X46249285Y-77067478D02*
X46284999Y-77103192D01*
X42970714Y-77781764D02*
X42970714Y-77031764D01*
X42970714Y-77388907D02*
X43399285Y-77388907D01*
X43399285Y-77781764D02*
X43399285Y-77031764D01*
X44006428Y-77388907D02*
X44113571Y-77424621D01*
X44113571Y-77424621D02*
X44149285Y-77460335D01*
X44149285Y-77460335D02*
X44184999Y-77531764D01*
X44184999Y-77531764D02*
X44184999Y-77638907D01*
X44184999Y-77638907D02*
X44149285Y-77710335D01*
X44149285Y-77710335D02*
X44113571Y-77746050D01*
X44113571Y-77746050D02*
X44042142Y-77781764D01*
X44042142Y-77781764D02*
X43756428Y-77781764D01*
X43756428Y-77781764D02*
X43756428Y-77031764D01*
X43756428Y-77031764D02*
X44006428Y-77031764D01*
X44006428Y-77031764D02*
X44077857Y-77067478D01*
X44077857Y-77067478D02*
X44113571Y-77103192D01*
X44113571Y-77103192D02*
X44149285Y-77174621D01*
X44149285Y-77174621D02*
X44149285Y-77246050D01*
X44149285Y-77246050D02*
X44113571Y-77317478D01*
X44113571Y-77317478D02*
X44077857Y-77353192D01*
X44077857Y-77353192D02*
X44006428Y-77388907D01*
X44006428Y-77388907D02*
X43756428Y-77388907D01*
X41024286Y-77781764D02*
X41024286Y-77031764D01*
X41024286Y-77388907D02*
X41452857Y-77388907D01*
X41452857Y-77781764D02*
X41452857Y-77031764D01*
X41774286Y-77567478D02*
X42131429Y-77567478D01*
X41702857Y-77781764D02*
X41952857Y-77031764D01*
X41952857Y-77031764D02*
X42202857Y-77781764D01*
X39088571Y-77781764D02*
X39088571Y-77031764D01*
X39088571Y-77388907D02*
X39517142Y-77388907D01*
X39517142Y-77781764D02*
X39517142Y-77031764D01*
X39838571Y-77746050D02*
X39945714Y-77781764D01*
X39945714Y-77781764D02*
X40124285Y-77781764D01*
X40124285Y-77781764D02*
X40195714Y-77746050D01*
X40195714Y-77746050D02*
X40231428Y-77710335D01*
X40231428Y-77710335D02*
X40267142Y-77638907D01*
X40267142Y-77638907D02*
X40267142Y-77567478D01*
X40267142Y-77567478D02*
X40231428Y-77496050D01*
X40231428Y-77496050D02*
X40195714Y-77460335D01*
X40195714Y-77460335D02*
X40124285Y-77424621D01*
X40124285Y-77424621D02*
X39981428Y-77388907D01*
X39981428Y-77388907D02*
X39909999Y-77353192D01*
X39909999Y-77353192D02*
X39874285Y-77317478D01*
X39874285Y-77317478D02*
X39838571Y-77246050D01*
X39838571Y-77246050D02*
X39838571Y-77174621D01*
X39838571Y-77174621D02*
X39874285Y-77103192D01*
X39874285Y-77103192D02*
X39909999Y-77067478D01*
X39909999Y-77067478D02*
X39981428Y-77031764D01*
X39981428Y-77031764D02*
X40159999Y-77031764D01*
X40159999Y-77031764D02*
X40267142Y-77067478D01*
D10*
X87929673Y-75226266D02*
X88691578Y-75226266D01*
X88310625Y-75607219D02*
X88310625Y-74845314D01*
X82629673Y-75126266D02*
X83391578Y-75126266D01*
D11*
X76287478Y-23811428D02*
X76251764Y-23882857D01*
X76251764Y-23882857D02*
X76251764Y-23989999D01*
X76251764Y-23989999D02*
X76287478Y-24097142D01*
X76287478Y-24097142D02*
X76358907Y-24168571D01*
X76358907Y-24168571D02*
X76430335Y-24204285D01*
X76430335Y-24204285D02*
X76573192Y-24239999D01*
X76573192Y-24239999D02*
X76680335Y-24239999D01*
X76680335Y-24239999D02*
X76823192Y-24204285D01*
X76823192Y-24204285D02*
X76894621Y-24168571D01*
X76894621Y-24168571D02*
X76966050Y-24097142D01*
X76966050Y-24097142D02*
X77001764Y-23989999D01*
X77001764Y-23989999D02*
X77001764Y-23918571D01*
X77001764Y-23918571D02*
X76966050Y-23811428D01*
X76966050Y-23811428D02*
X76930335Y-23775714D01*
X76930335Y-23775714D02*
X76680335Y-23775714D01*
X76680335Y-23775714D02*
X76680335Y-23918571D01*
X77001764Y-23454285D02*
X76251764Y-23454285D01*
X76251764Y-23454285D02*
X77001764Y-23025714D01*
X77001764Y-23025714D02*
X76251764Y-23025714D01*
X77001764Y-22668571D02*
X76251764Y-22668571D01*
X76251764Y-22668571D02*
X76251764Y-22490000D01*
X76251764Y-22490000D02*
X76287478Y-22382857D01*
X76287478Y-22382857D02*
X76358907Y-22311428D01*
X76358907Y-22311428D02*
X76430335Y-22275714D01*
X76430335Y-22275714D02*
X76573192Y-22240000D01*
X76573192Y-22240000D02*
X76680335Y-22240000D01*
X76680335Y-22240000D02*
X76823192Y-22275714D01*
X76823192Y-22275714D02*
X76894621Y-22311428D01*
X76894621Y-22311428D02*
X76966050Y-22382857D01*
X76966050Y-22382857D02*
X77001764Y-22490000D01*
X77001764Y-22490000D02*
X77001764Y-22668571D01*
X63487478Y-23811428D02*
X63451764Y-23882857D01*
X63451764Y-23882857D02*
X63451764Y-23989999D01*
X63451764Y-23989999D02*
X63487478Y-24097142D01*
X63487478Y-24097142D02*
X63558907Y-24168571D01*
X63558907Y-24168571D02*
X63630335Y-24204285D01*
X63630335Y-24204285D02*
X63773192Y-24239999D01*
X63773192Y-24239999D02*
X63880335Y-24239999D01*
X63880335Y-24239999D02*
X64023192Y-24204285D01*
X64023192Y-24204285D02*
X64094621Y-24168571D01*
X64094621Y-24168571D02*
X64166050Y-24097142D01*
X64166050Y-24097142D02*
X64201764Y-23989999D01*
X64201764Y-23989999D02*
X64201764Y-23918571D01*
X64201764Y-23918571D02*
X64166050Y-23811428D01*
X64166050Y-23811428D02*
X64130335Y-23775714D01*
X64130335Y-23775714D02*
X63880335Y-23775714D01*
X63880335Y-23775714D02*
X63880335Y-23918571D01*
X64201764Y-23454285D02*
X63451764Y-23454285D01*
X63451764Y-23454285D02*
X64201764Y-23025714D01*
X64201764Y-23025714D02*
X63451764Y-23025714D01*
X64201764Y-22668571D02*
X63451764Y-22668571D01*
X63451764Y-22668571D02*
X63451764Y-22490000D01*
X63451764Y-22490000D02*
X63487478Y-22382857D01*
X63487478Y-22382857D02*
X63558907Y-22311428D01*
X63558907Y-22311428D02*
X63630335Y-22275714D01*
X63630335Y-22275714D02*
X63773192Y-22240000D01*
X63773192Y-22240000D02*
X63880335Y-22240000D01*
X63880335Y-22240000D02*
X64023192Y-22275714D01*
X64023192Y-22275714D02*
X64094621Y-22311428D01*
X64094621Y-22311428D02*
X64166050Y-22382857D01*
X64166050Y-22382857D02*
X64201764Y-22490000D01*
X64201764Y-22490000D02*
X64201764Y-22668571D01*
X33816265Y-58764800D02*
X33959122Y-58812419D01*
X33959122Y-58812419D02*
X34197217Y-58812419D01*
X34197217Y-58812419D02*
X34292455Y-58764800D01*
X34292455Y-58764800D02*
X34340074Y-58717180D01*
X34340074Y-58717180D02*
X34387693Y-58621942D01*
X34387693Y-58621942D02*
X34387693Y-58526704D01*
X34387693Y-58526704D02*
X34340074Y-58431466D01*
X34340074Y-58431466D02*
X34292455Y-58383847D01*
X34292455Y-58383847D02*
X34197217Y-58336228D01*
X34197217Y-58336228D02*
X34006741Y-58288609D01*
X34006741Y-58288609D02*
X33911503Y-58240990D01*
X33911503Y-58240990D02*
X33863884Y-58193371D01*
X33863884Y-58193371D02*
X33816265Y-58098133D01*
X33816265Y-58098133D02*
X33816265Y-58002895D01*
X33816265Y-58002895D02*
X33863884Y-57907657D01*
X33863884Y-57907657D02*
X33911503Y-57860038D01*
X33911503Y-57860038D02*
X34006741Y-57812419D01*
X34006741Y-57812419D02*
X34244836Y-57812419D01*
X34244836Y-57812419D02*
X34387693Y-57860038D01*
X34816265Y-58812419D02*
X34816265Y-57812419D01*
X35816264Y-57860038D02*
X35721026Y-57812419D01*
X35721026Y-57812419D02*
X35578169Y-57812419D01*
X35578169Y-57812419D02*
X35435312Y-57860038D01*
X35435312Y-57860038D02*
X35340074Y-57955276D01*
X35340074Y-57955276D02*
X35292455Y-58050514D01*
X35292455Y-58050514D02*
X35244836Y-58240990D01*
X35244836Y-58240990D02*
X35244836Y-58383847D01*
X35244836Y-58383847D02*
X35292455Y-58574323D01*
X35292455Y-58574323D02*
X35340074Y-58669561D01*
X35340074Y-58669561D02*
X35435312Y-58764800D01*
X35435312Y-58764800D02*
X35578169Y-58812419D01*
X35578169Y-58812419D02*
X35673407Y-58812419D01*
X35673407Y-58812419D02*
X35816264Y-58764800D01*
X35816264Y-58764800D02*
X35863883Y-58717180D01*
X35863883Y-58717180D02*
X35863883Y-58383847D01*
X35863883Y-58383847D02*
X35673407Y-58383847D01*
X87066050Y-24229285D02*
X87101764Y-24122143D01*
X87101764Y-24122143D02*
X87101764Y-23943571D01*
X87101764Y-23943571D02*
X87066050Y-23872143D01*
X87066050Y-23872143D02*
X87030335Y-23836428D01*
X87030335Y-23836428D02*
X86958907Y-23800714D01*
X86958907Y-23800714D02*
X86887478Y-23800714D01*
X86887478Y-23800714D02*
X86816050Y-23836428D01*
X86816050Y-23836428D02*
X86780335Y-23872143D01*
X86780335Y-23872143D02*
X86744621Y-23943571D01*
X86744621Y-23943571D02*
X86708907Y-24086428D01*
X86708907Y-24086428D02*
X86673192Y-24157857D01*
X86673192Y-24157857D02*
X86637478Y-24193571D01*
X86637478Y-24193571D02*
X86566050Y-24229285D01*
X86566050Y-24229285D02*
X86494621Y-24229285D01*
X86494621Y-24229285D02*
X86423192Y-24193571D01*
X86423192Y-24193571D02*
X86387478Y-24157857D01*
X86387478Y-24157857D02*
X86351764Y-24086428D01*
X86351764Y-24086428D02*
X86351764Y-23907857D01*
X86351764Y-23907857D02*
X86387478Y-23800714D01*
X86708907Y-23229285D02*
X86744621Y-23122142D01*
X86744621Y-23122142D02*
X86780335Y-23086428D01*
X86780335Y-23086428D02*
X86851764Y-23050714D01*
X86851764Y-23050714D02*
X86958907Y-23050714D01*
X86958907Y-23050714D02*
X87030335Y-23086428D01*
X87030335Y-23086428D02*
X87066050Y-23122142D01*
X87066050Y-23122142D02*
X87101764Y-23193571D01*
X87101764Y-23193571D02*
X87101764Y-23479285D01*
X87101764Y-23479285D02*
X86351764Y-23479285D01*
X86351764Y-23479285D02*
X86351764Y-23229285D01*
X86351764Y-23229285D02*
X86387478Y-23157857D01*
X86387478Y-23157857D02*
X86423192Y-23122142D01*
X86423192Y-23122142D02*
X86494621Y-23086428D01*
X86494621Y-23086428D02*
X86566050Y-23086428D01*
X86566050Y-23086428D02*
X86637478Y-23122142D01*
X86637478Y-23122142D02*
X86673192Y-23157857D01*
X86673192Y-23157857D02*
X86708907Y-23229285D01*
X86708907Y-23229285D02*
X86708907Y-23479285D01*
X40651764Y-24339999D02*
X41401764Y-24089999D01*
X41401764Y-24089999D02*
X40651764Y-23839999D01*
X41401764Y-23589999D02*
X40651764Y-23589999D01*
X40651764Y-23589999D02*
X40651764Y-23411428D01*
X40651764Y-23411428D02*
X40687478Y-23304285D01*
X40687478Y-23304285D02*
X40758907Y-23232856D01*
X40758907Y-23232856D02*
X40830335Y-23197142D01*
X40830335Y-23197142D02*
X40973192Y-23161428D01*
X40973192Y-23161428D02*
X41080335Y-23161428D01*
X41080335Y-23161428D02*
X41223192Y-23197142D01*
X41223192Y-23197142D02*
X41294621Y-23232856D01*
X41294621Y-23232856D02*
X41366050Y-23304285D01*
X41366050Y-23304285D02*
X41401764Y-23411428D01*
X41401764Y-23411428D02*
X41401764Y-23589999D01*
X41330335Y-22411428D02*
X41366050Y-22447142D01*
X41366050Y-22447142D02*
X41401764Y-22554285D01*
X41401764Y-22554285D02*
X41401764Y-22625713D01*
X41401764Y-22625713D02*
X41366050Y-22732856D01*
X41366050Y-22732856D02*
X41294621Y-22804285D01*
X41294621Y-22804285D02*
X41223192Y-22839999D01*
X41223192Y-22839999D02*
X41080335Y-22875713D01*
X41080335Y-22875713D02*
X40973192Y-22875713D01*
X40973192Y-22875713D02*
X40830335Y-22839999D01*
X40830335Y-22839999D02*
X40758907Y-22804285D01*
X40758907Y-22804285D02*
X40687478Y-22732856D01*
X40687478Y-22732856D02*
X40651764Y-22625713D01*
X40651764Y-22625713D02*
X40651764Y-22554285D01*
X40651764Y-22554285D02*
X40687478Y-22447142D01*
X40687478Y-22447142D02*
X40723192Y-22411428D01*
D12*
X34145714Y-60847200D02*
X34288571Y-60894819D01*
X34288571Y-60894819D02*
X34526666Y-60894819D01*
X34526666Y-60894819D02*
X34621904Y-60847200D01*
X34621904Y-60847200D02*
X34669523Y-60799580D01*
X34669523Y-60799580D02*
X34717142Y-60704342D01*
X34717142Y-60704342D02*
X34717142Y-60609104D01*
X34717142Y-60609104D02*
X34669523Y-60513866D01*
X34669523Y-60513866D02*
X34621904Y-60466247D01*
X34621904Y-60466247D02*
X34526666Y-60418628D01*
X34526666Y-60418628D02*
X34336190Y-60371009D01*
X34336190Y-60371009D02*
X34240952Y-60323390D01*
X34240952Y-60323390D02*
X34193333Y-60275771D01*
X34193333Y-60275771D02*
X34145714Y-60180533D01*
X34145714Y-60180533D02*
X34145714Y-60085295D01*
X34145714Y-60085295D02*
X34193333Y-59990057D01*
X34193333Y-59990057D02*
X34240952Y-59942438D01*
X34240952Y-59942438D02*
X34336190Y-59894819D01*
X34336190Y-59894819D02*
X34574285Y-59894819D01*
X34574285Y-59894819D02*
X34717142Y-59942438D01*
X35145714Y-60894819D02*
X35145714Y-59894819D01*
X35145714Y-59894819D02*
X35383809Y-59894819D01*
X35383809Y-59894819D02*
X35526666Y-59942438D01*
X35526666Y-59942438D02*
X35621904Y-60037676D01*
X35621904Y-60037676D02*
X35669523Y-60132914D01*
X35669523Y-60132914D02*
X35717142Y-60323390D01*
X35717142Y-60323390D02*
X35717142Y-60466247D01*
X35717142Y-60466247D02*
X35669523Y-60656723D01*
X35669523Y-60656723D02*
X35621904Y-60751961D01*
X35621904Y-60751961D02*
X35526666Y-60847200D01*
X35526666Y-60847200D02*
X35383809Y-60894819D01*
X35383809Y-60894819D02*
X35145714Y-60894819D01*
X36098095Y-60609104D02*
X36574285Y-60609104D01*
X36002857Y-60894819D02*
X36336190Y-59894819D01*
X36336190Y-59894819D02*
X36669523Y-60894819D01*
D11*
X56208907Y-24036428D02*
X56244621Y-23929285D01*
X56244621Y-23929285D02*
X56280335Y-23893571D01*
X56280335Y-23893571D02*
X56351764Y-23857857D01*
X56351764Y-23857857D02*
X56458907Y-23857857D01*
X56458907Y-23857857D02*
X56530335Y-23893571D01*
X56530335Y-23893571D02*
X56566050Y-23929285D01*
X56566050Y-23929285D02*
X56601764Y-24000714D01*
X56601764Y-24000714D02*
X56601764Y-24286428D01*
X56601764Y-24286428D02*
X55851764Y-24286428D01*
X55851764Y-24286428D02*
X55851764Y-24036428D01*
X55851764Y-24036428D02*
X55887478Y-23965000D01*
X55887478Y-23965000D02*
X55923192Y-23929285D01*
X55923192Y-23929285D02*
X55994621Y-23893571D01*
X55994621Y-23893571D02*
X56066050Y-23893571D01*
X56066050Y-23893571D02*
X56137478Y-23929285D01*
X56137478Y-23929285D02*
X56173192Y-23965000D01*
X56173192Y-23965000D02*
X56208907Y-24036428D01*
X56208907Y-24036428D02*
X56208907Y-24286428D01*
X56601764Y-23107857D02*
X56244621Y-23357857D01*
X56601764Y-23536428D02*
X55851764Y-23536428D01*
X55851764Y-23536428D02*
X55851764Y-23250714D01*
X55851764Y-23250714D02*
X55887478Y-23179285D01*
X55887478Y-23179285D02*
X55923192Y-23143571D01*
X55923192Y-23143571D02*
X55994621Y-23107857D01*
X55994621Y-23107857D02*
X56101764Y-23107857D01*
X56101764Y-23107857D02*
X56173192Y-23143571D01*
X56173192Y-23143571D02*
X56208907Y-23179285D01*
X56208907Y-23179285D02*
X56244621Y-23250714D01*
X56244621Y-23250714D02*
X56244621Y-23536428D01*
X56601764Y-22786428D02*
X55851764Y-22786428D01*
X56601764Y-22357857D02*
X56173192Y-22679285D01*
X55851764Y-22357857D02*
X56280335Y-22786428D01*
D10*
X92029673Y-77207219D02*
X92029673Y-76207219D01*
X92029673Y-76207219D02*
X92410625Y-76207219D01*
X92410625Y-76207219D02*
X92505863Y-76254838D01*
X92505863Y-76254838D02*
X92553482Y-76302457D01*
X92553482Y-76302457D02*
X92601101Y-76397695D01*
X92601101Y-76397695D02*
X92601101Y-76540552D01*
X92601101Y-76540552D02*
X92553482Y-76635790D01*
X92553482Y-76635790D02*
X92505863Y-76683409D01*
X92505863Y-76683409D02*
X92410625Y-76731028D01*
X92410625Y-76731028D02*
X92029673Y-76731028D01*
X92934435Y-76207219D02*
X93172530Y-77207219D01*
X93172530Y-77207219D02*
X93363006Y-76492933D01*
X93363006Y-76492933D02*
X93553482Y-77207219D01*
X93553482Y-77207219D02*
X93791578Y-76207219D01*
X94743958Y-77207219D02*
X94410625Y-76731028D01*
X94172530Y-77207219D02*
X94172530Y-76207219D01*
X94172530Y-76207219D02*
X94553482Y-76207219D01*
X94553482Y-76207219D02*
X94648720Y-76254838D01*
X94648720Y-76254838D02*
X94696339Y-76302457D01*
X94696339Y-76302457D02*
X94743958Y-76397695D01*
X94743958Y-76397695D02*
X94743958Y-76540552D01*
X94743958Y-76540552D02*
X94696339Y-76635790D01*
X94696339Y-76635790D02*
X94648720Y-76683409D01*
X94648720Y-76683409D02*
X94553482Y-76731028D01*
X94553482Y-76731028D02*
X94172530Y-76731028D01*
X95934435Y-77207219D02*
X95934435Y-76207219D01*
X96410625Y-77207219D02*
X96410625Y-76207219D01*
X96410625Y-76207219D02*
X96982053Y-77207219D01*
X96982053Y-77207219D02*
X96982053Y-76207219D01*
D11*
X46145714Y-32297419D02*
X45574286Y-32297419D01*
X45860000Y-32297419D02*
X45860000Y-31297419D01*
X45860000Y-31297419D02*
X45764762Y-31440276D01*
X45764762Y-31440276D02*
X45669524Y-31535514D01*
X45669524Y-31535514D02*
X45574286Y-31583133D01*
D12*
X50469524Y-28190057D02*
X50517143Y-28142438D01*
X50517143Y-28142438D02*
X50612381Y-28094819D01*
X50612381Y-28094819D02*
X50850476Y-28094819D01*
X50850476Y-28094819D02*
X50945714Y-28142438D01*
X50945714Y-28142438D02*
X50993333Y-28190057D01*
X50993333Y-28190057D02*
X51040952Y-28285295D01*
X51040952Y-28285295D02*
X51040952Y-28380533D01*
X51040952Y-28380533D02*
X50993333Y-28523390D01*
X50993333Y-28523390D02*
X50421905Y-29094819D01*
X50421905Y-29094819D02*
X51040952Y-29094819D01*
X51326667Y-28094819D02*
X51660000Y-29094819D01*
X51660000Y-29094819D02*
X51993333Y-28094819D01*
X52469524Y-28523390D02*
X52374286Y-28475771D01*
X52374286Y-28475771D02*
X52326667Y-28428152D01*
X52326667Y-28428152D02*
X52279048Y-28332914D01*
X52279048Y-28332914D02*
X52279048Y-28285295D01*
X52279048Y-28285295D02*
X52326667Y-28190057D01*
X52326667Y-28190057D02*
X52374286Y-28142438D01*
X52374286Y-28142438D02*
X52469524Y-28094819D01*
X52469524Y-28094819D02*
X52660000Y-28094819D01*
X52660000Y-28094819D02*
X52755238Y-28142438D01*
X52755238Y-28142438D02*
X52802857Y-28190057D01*
X52802857Y-28190057D02*
X52850476Y-28285295D01*
X52850476Y-28285295D02*
X52850476Y-28332914D01*
X52850476Y-28332914D02*
X52802857Y-28428152D01*
X52802857Y-28428152D02*
X52755238Y-28475771D01*
X52755238Y-28475771D02*
X52660000Y-28523390D01*
X52660000Y-28523390D02*
X52469524Y-28523390D01*
X52469524Y-28523390D02*
X52374286Y-28571009D01*
X52374286Y-28571009D02*
X52326667Y-28618628D01*
X52326667Y-28618628D02*
X52279048Y-28713866D01*
X52279048Y-28713866D02*
X52279048Y-28904342D01*
X52279048Y-28904342D02*
X52326667Y-28999580D01*
X52326667Y-28999580D02*
X52374286Y-29047200D01*
X52374286Y-29047200D02*
X52469524Y-29094819D01*
X52469524Y-29094819D02*
X52660000Y-29094819D01*
X52660000Y-29094819D02*
X52755238Y-29047200D01*
X52755238Y-29047200D02*
X52802857Y-28999580D01*
X52802857Y-28999580D02*
X52850476Y-28904342D01*
X52850476Y-28904342D02*
X52850476Y-28713866D01*
X52850476Y-28713866D02*
X52802857Y-28618628D01*
X52802857Y-28618628D02*
X52755238Y-28571009D01*
X52755238Y-28571009D02*
X52660000Y-28523390D01*
D11*
X94801764Y-24175713D02*
X94051764Y-24175713D01*
X94408907Y-24175713D02*
X94408907Y-23747142D01*
X94801764Y-23747142D02*
X94051764Y-23747142D01*
X94587478Y-23425713D02*
X94587478Y-23068571D01*
X94801764Y-23497142D02*
X94051764Y-23247142D01*
X94051764Y-23247142D02*
X94801764Y-22997142D01*
X54001764Y-24289999D02*
X53251764Y-24289999D01*
X53251764Y-24289999D02*
X53251764Y-24111428D01*
X53251764Y-24111428D02*
X53287478Y-24004285D01*
X53287478Y-24004285D02*
X53358907Y-23932856D01*
X53358907Y-23932856D02*
X53430335Y-23897142D01*
X53430335Y-23897142D02*
X53573192Y-23861428D01*
X53573192Y-23861428D02*
X53680335Y-23861428D01*
X53680335Y-23861428D02*
X53823192Y-23897142D01*
X53823192Y-23897142D02*
X53894621Y-23932856D01*
X53894621Y-23932856D02*
X53966050Y-24004285D01*
X53966050Y-24004285D02*
X54001764Y-24111428D01*
X54001764Y-24111428D02*
X54001764Y-24289999D01*
X54001764Y-23539999D02*
X53251764Y-23539999D01*
X54001764Y-22754285D02*
X53644621Y-23004285D01*
X54001764Y-23182856D02*
X53251764Y-23182856D01*
X53251764Y-23182856D02*
X53251764Y-22897142D01*
X53251764Y-22897142D02*
X53287478Y-22825713D01*
X53287478Y-22825713D02*
X53323192Y-22789999D01*
X53323192Y-22789999D02*
X53394621Y-22754285D01*
X53394621Y-22754285D02*
X53501764Y-22754285D01*
X53501764Y-22754285D02*
X53573192Y-22789999D01*
X53573192Y-22789999D02*
X53608907Y-22825713D01*
X53608907Y-22825713D02*
X53644621Y-22897142D01*
X53644621Y-22897142D02*
X53644621Y-23182856D01*
X89801764Y-24229285D02*
X89051764Y-24229285D01*
X89408907Y-24229285D02*
X89408907Y-23800714D01*
X89801764Y-23800714D02*
X89051764Y-23800714D01*
X89408907Y-23193571D02*
X89444621Y-23086428D01*
X89444621Y-23086428D02*
X89480335Y-23050714D01*
X89480335Y-23050714D02*
X89551764Y-23015000D01*
X89551764Y-23015000D02*
X89658907Y-23015000D01*
X89658907Y-23015000D02*
X89730335Y-23050714D01*
X89730335Y-23050714D02*
X89766050Y-23086428D01*
X89766050Y-23086428D02*
X89801764Y-23157857D01*
X89801764Y-23157857D02*
X89801764Y-23443571D01*
X89801764Y-23443571D02*
X89051764Y-23443571D01*
X89051764Y-23443571D02*
X89051764Y-23193571D01*
X89051764Y-23193571D02*
X89087478Y-23122143D01*
X89087478Y-23122143D02*
X89123192Y-23086428D01*
X89123192Y-23086428D02*
X89194621Y-23050714D01*
X89194621Y-23050714D02*
X89266050Y-23050714D01*
X89266050Y-23050714D02*
X89337478Y-23086428D01*
X89337478Y-23086428D02*
X89373192Y-23122143D01*
X89373192Y-23122143D02*
X89408907Y-23193571D01*
X89408907Y-23193571D02*
X89408907Y-23443571D01*
X59066050Y-24204285D02*
X59101764Y-24097143D01*
X59101764Y-24097143D02*
X59101764Y-23918571D01*
X59101764Y-23918571D02*
X59066050Y-23847143D01*
X59066050Y-23847143D02*
X59030335Y-23811428D01*
X59030335Y-23811428D02*
X58958907Y-23775714D01*
X58958907Y-23775714D02*
X58887478Y-23775714D01*
X58887478Y-23775714D02*
X58816050Y-23811428D01*
X58816050Y-23811428D02*
X58780335Y-23847143D01*
X58780335Y-23847143D02*
X58744621Y-23918571D01*
X58744621Y-23918571D02*
X58708907Y-24061428D01*
X58708907Y-24061428D02*
X58673192Y-24132857D01*
X58673192Y-24132857D02*
X58637478Y-24168571D01*
X58637478Y-24168571D02*
X58566050Y-24204285D01*
X58566050Y-24204285D02*
X58494621Y-24204285D01*
X58494621Y-24204285D02*
X58423192Y-24168571D01*
X58423192Y-24168571D02*
X58387478Y-24132857D01*
X58387478Y-24132857D02*
X58351764Y-24061428D01*
X58351764Y-24061428D02*
X58351764Y-23882857D01*
X58351764Y-23882857D02*
X58387478Y-23775714D01*
X59101764Y-23454285D02*
X58351764Y-23454285D01*
X58351764Y-23454285D02*
X58351764Y-23168571D01*
X58351764Y-23168571D02*
X58387478Y-23097142D01*
X58387478Y-23097142D02*
X58423192Y-23061428D01*
X58423192Y-23061428D02*
X58494621Y-23025714D01*
X58494621Y-23025714D02*
X58601764Y-23025714D01*
X58601764Y-23025714D02*
X58673192Y-23061428D01*
X58673192Y-23061428D02*
X58708907Y-23097142D01*
X58708907Y-23097142D02*
X58744621Y-23168571D01*
X58744621Y-23168571D02*
X58744621Y-23454285D01*
X59101764Y-22704285D02*
X58351764Y-22704285D01*
X58351764Y-22704285D02*
X58351764Y-22525714D01*
X58351764Y-22525714D02*
X58387478Y-22418571D01*
X58387478Y-22418571D02*
X58458907Y-22347142D01*
X58458907Y-22347142D02*
X58530335Y-22311428D01*
X58530335Y-22311428D02*
X58673192Y-22275714D01*
X58673192Y-22275714D02*
X58780335Y-22275714D01*
X58780335Y-22275714D02*
X58923192Y-22311428D01*
X58923192Y-22311428D02*
X58994621Y-22347142D01*
X58994621Y-22347142D02*
X59066050Y-22418571D01*
X59066050Y-22418571D02*
X59101764Y-22525714D01*
X59101764Y-22525714D02*
X59101764Y-22704285D01*
X51401764Y-24293571D02*
X50651764Y-24293571D01*
X50651764Y-24293571D02*
X50651764Y-24007857D01*
X50651764Y-24007857D02*
X50687478Y-23936428D01*
X50687478Y-23936428D02*
X50723192Y-23900714D01*
X50723192Y-23900714D02*
X50794621Y-23865000D01*
X50794621Y-23865000D02*
X50901764Y-23865000D01*
X50901764Y-23865000D02*
X50973192Y-23900714D01*
X50973192Y-23900714D02*
X51008907Y-23936428D01*
X51008907Y-23936428D02*
X51044621Y-24007857D01*
X51044621Y-24007857D02*
X51044621Y-24293571D01*
X50651764Y-23615000D02*
X51401764Y-23436428D01*
X51401764Y-23436428D02*
X50866050Y-23293571D01*
X50866050Y-23293571D02*
X51401764Y-23150714D01*
X51401764Y-23150714D02*
X50651764Y-22972143D01*
X51401764Y-22686428D02*
X50651764Y-22686428D01*
X50651764Y-22686428D02*
X51187478Y-22436428D01*
X51187478Y-22436428D02*
X50651764Y-22186428D01*
X50651764Y-22186428D02*
X51401764Y-22186428D01*
D10*
X64982054Y-77559600D02*
X65124911Y-77607219D01*
X65124911Y-77607219D02*
X65363006Y-77607219D01*
X65363006Y-77607219D02*
X65458244Y-77559600D01*
X65458244Y-77559600D02*
X65505863Y-77511980D01*
X65505863Y-77511980D02*
X65553482Y-77416742D01*
X65553482Y-77416742D02*
X65553482Y-77321504D01*
X65553482Y-77321504D02*
X65505863Y-77226266D01*
X65505863Y-77226266D02*
X65458244Y-77178647D01*
X65458244Y-77178647D02*
X65363006Y-77131028D01*
X65363006Y-77131028D02*
X65172530Y-77083409D01*
X65172530Y-77083409D02*
X65077292Y-77035790D01*
X65077292Y-77035790D02*
X65029673Y-76988171D01*
X65029673Y-76988171D02*
X64982054Y-76892933D01*
X64982054Y-76892933D02*
X64982054Y-76797695D01*
X64982054Y-76797695D02*
X65029673Y-76702457D01*
X65029673Y-76702457D02*
X65077292Y-76654838D01*
X65077292Y-76654838D02*
X65172530Y-76607219D01*
X65172530Y-76607219D02*
X65410625Y-76607219D01*
X65410625Y-76607219D02*
X65553482Y-76654838D01*
X66315387Y-77083409D02*
X66458244Y-77131028D01*
X66458244Y-77131028D02*
X66505863Y-77178647D01*
X66505863Y-77178647D02*
X66553482Y-77273885D01*
X66553482Y-77273885D02*
X66553482Y-77416742D01*
X66553482Y-77416742D02*
X66505863Y-77511980D01*
X66505863Y-77511980D02*
X66458244Y-77559600D01*
X66458244Y-77559600D02*
X66363006Y-77607219D01*
X66363006Y-77607219D02*
X65982054Y-77607219D01*
X65982054Y-77607219D02*
X65982054Y-76607219D01*
X65982054Y-76607219D02*
X66315387Y-76607219D01*
X66315387Y-76607219D02*
X66410625Y-76654838D01*
X66410625Y-76654838D02*
X66458244Y-76702457D01*
X66458244Y-76702457D02*
X66505863Y-76797695D01*
X66505863Y-76797695D02*
X66505863Y-76892933D01*
X66505863Y-76892933D02*
X66458244Y-76988171D01*
X66458244Y-76988171D02*
X66410625Y-77035790D01*
X66410625Y-77035790D02*
X66315387Y-77083409D01*
X66315387Y-77083409D02*
X65982054Y-77083409D01*
D11*
X43123192Y-24232856D02*
X43087478Y-24197142D01*
X43087478Y-24197142D02*
X43051764Y-24125714D01*
X43051764Y-24125714D02*
X43051764Y-23947142D01*
X43051764Y-23947142D02*
X43087478Y-23875714D01*
X43087478Y-23875714D02*
X43123192Y-23839999D01*
X43123192Y-23839999D02*
X43194621Y-23804285D01*
X43194621Y-23804285D02*
X43266050Y-23804285D01*
X43266050Y-23804285D02*
X43373192Y-23839999D01*
X43373192Y-23839999D02*
X43801764Y-24268571D01*
X43801764Y-24268571D02*
X43801764Y-23804285D01*
X43051764Y-23589999D02*
X43801764Y-23339999D01*
X43801764Y-23339999D02*
X43051764Y-23089999D01*
X43373192Y-22732856D02*
X43337478Y-22804285D01*
X43337478Y-22804285D02*
X43301764Y-22839999D01*
X43301764Y-22839999D02*
X43230335Y-22875713D01*
X43230335Y-22875713D02*
X43194621Y-22875713D01*
X43194621Y-22875713D02*
X43123192Y-22839999D01*
X43123192Y-22839999D02*
X43087478Y-22804285D01*
X43087478Y-22804285D02*
X43051764Y-22732856D01*
X43051764Y-22732856D02*
X43051764Y-22589999D01*
X43051764Y-22589999D02*
X43087478Y-22518571D01*
X43087478Y-22518571D02*
X43123192Y-22482856D01*
X43123192Y-22482856D02*
X43194621Y-22447142D01*
X43194621Y-22447142D02*
X43230335Y-22447142D01*
X43230335Y-22447142D02*
X43301764Y-22482856D01*
X43301764Y-22482856D02*
X43337478Y-22518571D01*
X43337478Y-22518571D02*
X43373192Y-22589999D01*
X43373192Y-22589999D02*
X43373192Y-22732856D01*
X43373192Y-22732856D02*
X43408907Y-22804285D01*
X43408907Y-22804285D02*
X43444621Y-22839999D01*
X43444621Y-22839999D02*
X43516050Y-22875713D01*
X43516050Y-22875713D02*
X43658907Y-22875713D01*
X43658907Y-22875713D02*
X43730335Y-22839999D01*
X43730335Y-22839999D02*
X43766050Y-22804285D01*
X43766050Y-22804285D02*
X43801764Y-22732856D01*
X43801764Y-22732856D02*
X43801764Y-22589999D01*
X43801764Y-22589999D02*
X43766050Y-22518571D01*
X43766050Y-22518571D02*
X43730335Y-22482856D01*
X43730335Y-22482856D02*
X43658907Y-22447142D01*
X43658907Y-22447142D02*
X43516050Y-22447142D01*
X43516050Y-22447142D02*
X43444621Y-22482856D01*
X43444621Y-22482856D02*
X43408907Y-22518571D01*
X43408907Y-22518571D02*
X43373192Y-22589999D01*
X84701764Y-24229285D02*
X83951764Y-24229285D01*
X84308907Y-24229285D02*
X84308907Y-23800714D01*
X84701764Y-23800714D02*
X83951764Y-23800714D01*
X84630335Y-23015000D02*
X84666050Y-23050714D01*
X84666050Y-23050714D02*
X84701764Y-23157857D01*
X84701764Y-23157857D02*
X84701764Y-23229285D01*
X84701764Y-23229285D02*
X84666050Y-23336428D01*
X84666050Y-23336428D02*
X84594621Y-23407857D01*
X84594621Y-23407857D02*
X84523192Y-23443571D01*
X84523192Y-23443571D02*
X84380335Y-23479285D01*
X84380335Y-23479285D02*
X84273192Y-23479285D01*
X84273192Y-23479285D02*
X84130335Y-23443571D01*
X84130335Y-23443571D02*
X84058907Y-23407857D01*
X84058907Y-23407857D02*
X83987478Y-23336428D01*
X83987478Y-23336428D02*
X83951764Y-23229285D01*
X83951764Y-23229285D02*
X83951764Y-23157857D01*
X83951764Y-23157857D02*
X83987478Y-23050714D01*
X83987478Y-23050714D02*
X84023192Y-23015000D01*
D12*
X34169524Y-63447200D02*
X34312381Y-63494819D01*
X34312381Y-63494819D02*
X34550476Y-63494819D01*
X34550476Y-63494819D02*
X34645714Y-63447200D01*
X34645714Y-63447200D02*
X34693333Y-63399580D01*
X34693333Y-63399580D02*
X34740952Y-63304342D01*
X34740952Y-63304342D02*
X34740952Y-63209104D01*
X34740952Y-63209104D02*
X34693333Y-63113866D01*
X34693333Y-63113866D02*
X34645714Y-63066247D01*
X34645714Y-63066247D02*
X34550476Y-63018628D01*
X34550476Y-63018628D02*
X34360000Y-62971009D01*
X34360000Y-62971009D02*
X34264762Y-62923390D01*
X34264762Y-62923390D02*
X34217143Y-62875771D01*
X34217143Y-62875771D02*
X34169524Y-62780533D01*
X34169524Y-62780533D02*
X34169524Y-62685295D01*
X34169524Y-62685295D02*
X34217143Y-62590057D01*
X34217143Y-62590057D02*
X34264762Y-62542438D01*
X34264762Y-62542438D02*
X34360000Y-62494819D01*
X34360000Y-62494819D02*
X34598095Y-62494819D01*
X34598095Y-62494819D02*
X34740952Y-62542438D01*
X35740952Y-63399580D02*
X35693333Y-63447200D01*
X35693333Y-63447200D02*
X35550476Y-63494819D01*
X35550476Y-63494819D02*
X35455238Y-63494819D01*
X35455238Y-63494819D02*
X35312381Y-63447200D01*
X35312381Y-63447200D02*
X35217143Y-63351961D01*
X35217143Y-63351961D02*
X35169524Y-63256723D01*
X35169524Y-63256723D02*
X35121905Y-63066247D01*
X35121905Y-63066247D02*
X35121905Y-62923390D01*
X35121905Y-62923390D02*
X35169524Y-62732914D01*
X35169524Y-62732914D02*
X35217143Y-62637676D01*
X35217143Y-62637676D02*
X35312381Y-62542438D01*
X35312381Y-62542438D02*
X35455238Y-62494819D01*
X35455238Y-62494819D02*
X35550476Y-62494819D01*
X35550476Y-62494819D02*
X35693333Y-62542438D01*
X35693333Y-62542438D02*
X35740952Y-62590057D01*
X36645714Y-63494819D02*
X36169524Y-63494819D01*
X36169524Y-63494819D02*
X36169524Y-62494819D01*
D10*
X75327219Y-74170326D02*
X74327219Y-74170326D01*
X74327219Y-74170326D02*
X75041504Y-73836993D01*
X75041504Y-73836993D02*
X74327219Y-73503660D01*
X74327219Y-73503660D02*
X75327219Y-73503660D01*
X74327219Y-72836993D02*
X74327219Y-72646517D01*
X74327219Y-72646517D02*
X74374838Y-72551279D01*
X74374838Y-72551279D02*
X74470076Y-72456041D01*
X74470076Y-72456041D02*
X74660552Y-72408422D01*
X74660552Y-72408422D02*
X74993885Y-72408422D01*
X74993885Y-72408422D02*
X75184361Y-72456041D01*
X75184361Y-72456041D02*
X75279600Y-72551279D01*
X75279600Y-72551279D02*
X75327219Y-72646517D01*
X75327219Y-72646517D02*
X75327219Y-72836993D01*
X75327219Y-72836993D02*
X75279600Y-72932231D01*
X75279600Y-72932231D02*
X75184361Y-73027469D01*
X75184361Y-73027469D02*
X74993885Y-73075088D01*
X74993885Y-73075088D02*
X74660552Y-73075088D01*
X74660552Y-73075088D02*
X74470076Y-73027469D01*
X74470076Y-73027469D02*
X74374838Y-72932231D01*
X74374838Y-72932231D02*
X74327219Y-72836993D01*
X74327219Y-72122707D02*
X74327219Y-71551279D01*
X75327219Y-71836993D02*
X74327219Y-71836993D01*
X74327219Y-71027469D02*
X74327219Y-70836993D01*
X74327219Y-70836993D02*
X74374838Y-70741755D01*
X74374838Y-70741755D02*
X74470076Y-70646517D01*
X74470076Y-70646517D02*
X74660552Y-70598898D01*
X74660552Y-70598898D02*
X74993885Y-70598898D01*
X74993885Y-70598898D02*
X75184361Y-70646517D01*
X75184361Y-70646517D02*
X75279600Y-70741755D01*
X75279600Y-70741755D02*
X75327219Y-70836993D01*
X75327219Y-70836993D02*
X75327219Y-71027469D01*
X75327219Y-71027469D02*
X75279600Y-71122707D01*
X75279600Y-71122707D02*
X75184361Y-71217945D01*
X75184361Y-71217945D02*
X74993885Y-71265564D01*
X74993885Y-71265564D02*
X74660552Y-71265564D01*
X74660552Y-71265564D02*
X74470076Y-71217945D01*
X74470076Y-71217945D02*
X74374838Y-71122707D01*
X74374838Y-71122707D02*
X74327219Y-71027469D01*
X75327219Y-69598898D02*
X74851028Y-69932231D01*
X75327219Y-70170326D02*
X74327219Y-70170326D01*
X74327219Y-70170326D02*
X74327219Y-69789374D01*
X74327219Y-69789374D02*
X74374838Y-69694136D01*
X74374838Y-69694136D02*
X74422457Y-69646517D01*
X74422457Y-69646517D02*
X74517695Y-69598898D01*
X74517695Y-69598898D02*
X74660552Y-69598898D01*
X74660552Y-69598898D02*
X74755790Y-69646517D01*
X74755790Y-69646517D02*
X74803409Y-69694136D01*
X74803409Y-69694136D02*
X74851028Y-69789374D01*
X74851028Y-69789374D02*
X74851028Y-70170326D01*
X74327219Y-68217945D02*
X74327219Y-68027469D01*
X74327219Y-68027469D02*
X74374838Y-67932231D01*
X74374838Y-67932231D02*
X74470076Y-67836993D01*
X74470076Y-67836993D02*
X74660552Y-67789374D01*
X74660552Y-67789374D02*
X74993885Y-67789374D01*
X74993885Y-67789374D02*
X75184361Y-67836993D01*
X75184361Y-67836993D02*
X75279600Y-67932231D01*
X75279600Y-67932231D02*
X75327219Y-68027469D01*
X75327219Y-68027469D02*
X75327219Y-68217945D01*
X75327219Y-68217945D02*
X75279600Y-68313183D01*
X75279600Y-68313183D02*
X75184361Y-68408421D01*
X75184361Y-68408421D02*
X74993885Y-68456040D01*
X74993885Y-68456040D02*
X74660552Y-68456040D01*
X74660552Y-68456040D02*
X74470076Y-68408421D01*
X74470076Y-68408421D02*
X74374838Y-68313183D01*
X74374838Y-68313183D02*
X74327219Y-68217945D01*
X74327219Y-67360802D02*
X75136742Y-67360802D01*
X75136742Y-67360802D02*
X75231980Y-67313183D01*
X75231980Y-67313183D02*
X75279600Y-67265564D01*
X75279600Y-67265564D02*
X75327219Y-67170326D01*
X75327219Y-67170326D02*
X75327219Y-66979850D01*
X75327219Y-66979850D02*
X75279600Y-66884612D01*
X75279600Y-66884612D02*
X75231980Y-66836993D01*
X75231980Y-66836993D02*
X75136742Y-66789374D01*
X75136742Y-66789374D02*
X74327219Y-66789374D01*
X74327219Y-66456040D02*
X74327219Y-65884612D01*
X75327219Y-66170326D02*
X74327219Y-66170326D01*
X39329673Y-41907219D02*
X39329673Y-40907219D01*
X39329673Y-40907219D02*
X39710625Y-40907219D01*
X39710625Y-40907219D02*
X39805863Y-40954838D01*
X39805863Y-40954838D02*
X39853482Y-41002457D01*
X39853482Y-41002457D02*
X39901101Y-41097695D01*
X39901101Y-41097695D02*
X39901101Y-41240552D01*
X39901101Y-41240552D02*
X39853482Y-41335790D01*
X39853482Y-41335790D02*
X39805863Y-41383409D01*
X39805863Y-41383409D02*
X39710625Y-41431028D01*
X39710625Y-41431028D02*
X39329673Y-41431028D01*
X40234435Y-40907219D02*
X40472530Y-41907219D01*
X40472530Y-41907219D02*
X40663006Y-41192933D01*
X40663006Y-41192933D02*
X40853482Y-41907219D01*
X40853482Y-41907219D02*
X41091578Y-40907219D01*
X42043958Y-41907219D02*
X41710625Y-41431028D01*
X41472530Y-41907219D02*
X41472530Y-40907219D01*
X41472530Y-40907219D02*
X41853482Y-40907219D01*
X41853482Y-40907219D02*
X41948720Y-40954838D01*
X41948720Y-40954838D02*
X41996339Y-41002457D01*
X41996339Y-41002457D02*
X42043958Y-41097695D01*
X42043958Y-41097695D02*
X42043958Y-41240552D01*
X42043958Y-41240552D02*
X41996339Y-41335790D01*
X41996339Y-41335790D02*
X41948720Y-41383409D01*
X41948720Y-41383409D02*
X41853482Y-41431028D01*
X41853482Y-41431028D02*
X41472530Y-41431028D01*
X43424911Y-40907219D02*
X43615387Y-40907219D01*
X43615387Y-40907219D02*
X43710625Y-40954838D01*
X43710625Y-40954838D02*
X43805863Y-41050076D01*
X43805863Y-41050076D02*
X43853482Y-41240552D01*
X43853482Y-41240552D02*
X43853482Y-41573885D01*
X43853482Y-41573885D02*
X43805863Y-41764361D01*
X43805863Y-41764361D02*
X43710625Y-41859600D01*
X43710625Y-41859600D02*
X43615387Y-41907219D01*
X43615387Y-41907219D02*
X43424911Y-41907219D01*
X43424911Y-41907219D02*
X43329673Y-41859600D01*
X43329673Y-41859600D02*
X43234435Y-41764361D01*
X43234435Y-41764361D02*
X43186816Y-41573885D01*
X43186816Y-41573885D02*
X43186816Y-41240552D01*
X43186816Y-41240552D02*
X43234435Y-41050076D01*
X43234435Y-41050076D02*
X43329673Y-40954838D01*
X43329673Y-40954838D02*
X43424911Y-40907219D01*
X44282054Y-40907219D02*
X44282054Y-41716742D01*
X44282054Y-41716742D02*
X44329673Y-41811980D01*
X44329673Y-41811980D02*
X44377292Y-41859600D01*
X44377292Y-41859600D02*
X44472530Y-41907219D01*
X44472530Y-41907219D02*
X44663006Y-41907219D01*
X44663006Y-41907219D02*
X44758244Y-41859600D01*
X44758244Y-41859600D02*
X44805863Y-41811980D01*
X44805863Y-41811980D02*
X44853482Y-41716742D01*
X44853482Y-41716742D02*
X44853482Y-40907219D01*
X45186816Y-40907219D02*
X45758244Y-40907219D01*
X45472530Y-41907219D02*
X45472530Y-40907219D01*
D11*
X46458198Y-24207856D02*
X46493912Y-24100714D01*
X46493912Y-24100714D02*
X46493912Y-23922142D01*
X46493912Y-23922142D02*
X46458198Y-23850714D01*
X46458198Y-23850714D02*
X46422483Y-23814999D01*
X46422483Y-23814999D02*
X46351055Y-23779285D01*
X46351055Y-23779285D02*
X46279626Y-23779285D01*
X46279626Y-23779285D02*
X46208198Y-23814999D01*
X46208198Y-23814999D02*
X46172483Y-23850714D01*
X46172483Y-23850714D02*
X46136769Y-23922142D01*
X46136769Y-23922142D02*
X46101055Y-24064999D01*
X46101055Y-24064999D02*
X46065340Y-24136428D01*
X46065340Y-24136428D02*
X46029626Y-24172142D01*
X46029626Y-24172142D02*
X45958198Y-24207856D01*
X45958198Y-24207856D02*
X45886769Y-24207856D01*
X45886769Y-24207856D02*
X45815340Y-24172142D01*
X45815340Y-24172142D02*
X45779626Y-24136428D01*
X45779626Y-24136428D02*
X45743912Y-24064999D01*
X45743912Y-24064999D02*
X45743912Y-23886428D01*
X45743912Y-23886428D02*
X45779626Y-23779285D01*
X46493912Y-23457856D02*
X45743912Y-23457856D01*
X45779626Y-22707856D02*
X45743912Y-22779285D01*
X45743912Y-22779285D02*
X45743912Y-22886427D01*
X45743912Y-22886427D02*
X45779626Y-22993570D01*
X45779626Y-22993570D02*
X45851055Y-23064999D01*
X45851055Y-23064999D02*
X45922483Y-23100713D01*
X45922483Y-23100713D02*
X46065340Y-23136427D01*
X46065340Y-23136427D02*
X46172483Y-23136427D01*
X46172483Y-23136427D02*
X46315340Y-23100713D01*
X46315340Y-23100713D02*
X46386769Y-23064999D01*
X46386769Y-23064999D02*
X46458198Y-22993570D01*
X46458198Y-22993570D02*
X46493912Y-22886427D01*
X46493912Y-22886427D02*
X46493912Y-22814999D01*
X46493912Y-22814999D02*
X46458198Y-22707856D01*
X46458198Y-22707856D02*
X46422483Y-22672142D01*
X46422483Y-22672142D02*
X46172483Y-22672142D01*
X46172483Y-22672142D02*
X46172483Y-22814999D01*
D10*
X60082054Y-77659600D02*
X60224911Y-77707219D01*
X60224911Y-77707219D02*
X60463006Y-77707219D01*
X60463006Y-77707219D02*
X60558244Y-77659600D01*
X60558244Y-77659600D02*
X60605863Y-77611980D01*
X60605863Y-77611980D02*
X60653482Y-77516742D01*
X60653482Y-77516742D02*
X60653482Y-77421504D01*
X60653482Y-77421504D02*
X60605863Y-77326266D01*
X60605863Y-77326266D02*
X60558244Y-77278647D01*
X60558244Y-77278647D02*
X60463006Y-77231028D01*
X60463006Y-77231028D02*
X60272530Y-77183409D01*
X60272530Y-77183409D02*
X60177292Y-77135790D01*
X60177292Y-77135790D02*
X60129673Y-77088171D01*
X60129673Y-77088171D02*
X60082054Y-76992933D01*
X60082054Y-76992933D02*
X60082054Y-76897695D01*
X60082054Y-76897695D02*
X60129673Y-76802457D01*
X60129673Y-76802457D02*
X60177292Y-76754838D01*
X60177292Y-76754838D02*
X60272530Y-76707219D01*
X60272530Y-76707219D02*
X60510625Y-76707219D01*
X60510625Y-76707219D02*
X60653482Y-76754838D01*
X61653482Y-77611980D02*
X61605863Y-77659600D01*
X61605863Y-77659600D02*
X61463006Y-77707219D01*
X61463006Y-77707219D02*
X61367768Y-77707219D01*
X61367768Y-77707219D02*
X61224911Y-77659600D01*
X61224911Y-77659600D02*
X61129673Y-77564361D01*
X61129673Y-77564361D02*
X61082054Y-77469123D01*
X61082054Y-77469123D02*
X61034435Y-77278647D01*
X61034435Y-77278647D02*
X61034435Y-77135790D01*
X61034435Y-77135790D02*
X61082054Y-76945314D01*
X61082054Y-76945314D02*
X61129673Y-76850076D01*
X61129673Y-76850076D02*
X61224911Y-76754838D01*
X61224911Y-76754838D02*
X61367768Y-76707219D01*
X61367768Y-76707219D02*
X61463006Y-76707219D01*
X61463006Y-76707219D02*
X61605863Y-76754838D01*
X61605863Y-76754838D02*
X61653482Y-76802457D01*
D11*
X47199285Y-69678035D02*
X47199285Y-68928035D01*
X47199285Y-68928035D02*
X47449285Y-69463749D01*
X47449285Y-69463749D02*
X47699285Y-68928035D01*
X47699285Y-68928035D02*
X47699285Y-69678035D01*
X48020714Y-69463749D02*
X48377857Y-69463749D01*
X47949285Y-69678035D02*
X48199285Y-68928035D01*
X48199285Y-68928035D02*
X48449285Y-69678035D01*
X48699285Y-69678035D02*
X48699285Y-68928035D01*
X49127856Y-69678035D02*
X48806428Y-69249463D01*
X49127856Y-68928035D02*
X48699285Y-69356606D01*
X49449285Y-69285178D02*
X49699285Y-69285178D01*
X49806428Y-69678035D02*
X49449285Y-69678035D01*
X49449285Y-69678035D02*
X49449285Y-68928035D01*
X49449285Y-68928035D02*
X49806428Y-68928035D01*
X50663571Y-69642321D02*
X50770714Y-69678035D01*
X50770714Y-69678035D02*
X50949285Y-69678035D01*
X50949285Y-69678035D02*
X51020714Y-69642321D01*
X51020714Y-69642321D02*
X51056428Y-69606606D01*
X51056428Y-69606606D02*
X51092142Y-69535178D01*
X51092142Y-69535178D02*
X51092142Y-69463749D01*
X51092142Y-69463749D02*
X51056428Y-69392321D01*
X51056428Y-69392321D02*
X51020714Y-69356606D01*
X51020714Y-69356606D02*
X50949285Y-69320892D01*
X50949285Y-69320892D02*
X50806428Y-69285178D01*
X50806428Y-69285178D02*
X50734999Y-69249463D01*
X50734999Y-69249463D02*
X50699285Y-69213749D01*
X50699285Y-69213749D02*
X50663571Y-69142321D01*
X50663571Y-69142321D02*
X50663571Y-69070892D01*
X50663571Y-69070892D02*
X50699285Y-68999463D01*
X50699285Y-68999463D02*
X50734999Y-68963749D01*
X50734999Y-68963749D02*
X50806428Y-68928035D01*
X50806428Y-68928035D02*
X50984999Y-68928035D01*
X50984999Y-68928035D02*
X51092142Y-68963749D01*
X51413571Y-68928035D02*
X51413571Y-69535178D01*
X51413571Y-69535178D02*
X51449285Y-69606606D01*
X51449285Y-69606606D02*
X51485000Y-69642321D01*
X51485000Y-69642321D02*
X51556428Y-69678035D01*
X51556428Y-69678035D02*
X51699285Y-69678035D01*
X51699285Y-69678035D02*
X51770714Y-69642321D01*
X51770714Y-69642321D02*
X51806428Y-69606606D01*
X51806428Y-69606606D02*
X51842142Y-69535178D01*
X51842142Y-69535178D02*
X51842142Y-68928035D01*
X52627856Y-69678035D02*
X52377856Y-69320892D01*
X52199285Y-69678035D02*
X52199285Y-68928035D01*
X52199285Y-68928035D02*
X52484999Y-68928035D01*
X52484999Y-68928035D02*
X52556428Y-68963749D01*
X52556428Y-68963749D02*
X52592142Y-68999463D01*
X52592142Y-68999463D02*
X52627856Y-69070892D01*
X52627856Y-69070892D02*
X52627856Y-69178035D01*
X52627856Y-69178035D02*
X52592142Y-69249463D01*
X52592142Y-69249463D02*
X52556428Y-69285178D01*
X52556428Y-69285178D02*
X52484999Y-69320892D01*
X52484999Y-69320892D02*
X52199285Y-69320892D01*
X52949285Y-69285178D02*
X53199285Y-69285178D01*
X53306428Y-69678035D02*
X52949285Y-69678035D01*
X52949285Y-69678035D02*
X52949285Y-68928035D01*
X52949285Y-68928035D02*
X53306428Y-68928035D01*
X54092142Y-68928035D02*
X54520714Y-68928035D01*
X54306428Y-69678035D02*
X54306428Y-68928035D01*
X54913571Y-68928035D02*
X55056428Y-68928035D01*
X55056428Y-68928035D02*
X55127857Y-68963749D01*
X55127857Y-68963749D02*
X55199285Y-69035178D01*
X55199285Y-69035178D02*
X55235000Y-69178035D01*
X55235000Y-69178035D02*
X55235000Y-69428035D01*
X55235000Y-69428035D02*
X55199285Y-69570892D01*
X55199285Y-69570892D02*
X55127857Y-69642321D01*
X55127857Y-69642321D02*
X55056428Y-69678035D01*
X55056428Y-69678035D02*
X54913571Y-69678035D01*
X54913571Y-69678035D02*
X54842143Y-69642321D01*
X54842143Y-69642321D02*
X54770714Y-69570892D01*
X54770714Y-69570892D02*
X54735000Y-69428035D01*
X54735000Y-69428035D02*
X54735000Y-69178035D01*
X54735000Y-69178035D02*
X54770714Y-69035178D01*
X54770714Y-69035178D02*
X54842143Y-68963749D01*
X54842143Y-68963749D02*
X54913571Y-68928035D01*
X56127857Y-68928035D02*
X56127857Y-69535178D01*
X56127857Y-69535178D02*
X56163571Y-69606606D01*
X56163571Y-69606606D02*
X56199286Y-69642321D01*
X56199286Y-69642321D02*
X56270714Y-69678035D01*
X56270714Y-69678035D02*
X56413571Y-69678035D01*
X56413571Y-69678035D02*
X56485000Y-69642321D01*
X56485000Y-69642321D02*
X56520714Y-69606606D01*
X56520714Y-69606606D02*
X56556428Y-69535178D01*
X56556428Y-69535178D02*
X56556428Y-68928035D01*
X56877857Y-69642321D02*
X56985000Y-69678035D01*
X56985000Y-69678035D02*
X57163571Y-69678035D01*
X57163571Y-69678035D02*
X57235000Y-69642321D01*
X57235000Y-69642321D02*
X57270714Y-69606606D01*
X57270714Y-69606606D02*
X57306428Y-69535178D01*
X57306428Y-69535178D02*
X57306428Y-69463749D01*
X57306428Y-69463749D02*
X57270714Y-69392321D01*
X57270714Y-69392321D02*
X57235000Y-69356606D01*
X57235000Y-69356606D02*
X57163571Y-69320892D01*
X57163571Y-69320892D02*
X57020714Y-69285178D01*
X57020714Y-69285178D02*
X56949285Y-69249463D01*
X56949285Y-69249463D02*
X56913571Y-69213749D01*
X56913571Y-69213749D02*
X56877857Y-69142321D01*
X56877857Y-69142321D02*
X56877857Y-69070892D01*
X56877857Y-69070892D02*
X56913571Y-68999463D01*
X56913571Y-68999463D02*
X56949285Y-68963749D01*
X56949285Y-68963749D02*
X57020714Y-68928035D01*
X57020714Y-68928035D02*
X57199285Y-68928035D01*
X57199285Y-68928035D02*
X57306428Y-68963749D01*
X57627857Y-69285178D02*
X57877857Y-69285178D01*
X57985000Y-69678035D02*
X57627857Y-69678035D01*
X57627857Y-69678035D02*
X57627857Y-68928035D01*
X57627857Y-68928035D02*
X57985000Y-68928035D01*
X48109999Y-70814064D02*
X48074285Y-70849779D01*
X48074285Y-70849779D02*
X47967142Y-70885493D01*
X47967142Y-70885493D02*
X47895714Y-70885493D01*
X47895714Y-70885493D02*
X47788571Y-70849779D01*
X47788571Y-70849779D02*
X47717142Y-70778350D01*
X47717142Y-70778350D02*
X47681428Y-70706921D01*
X47681428Y-70706921D02*
X47645714Y-70564064D01*
X47645714Y-70564064D02*
X47645714Y-70456921D01*
X47645714Y-70456921D02*
X47681428Y-70314064D01*
X47681428Y-70314064D02*
X47717142Y-70242636D01*
X47717142Y-70242636D02*
X47788571Y-70171207D01*
X47788571Y-70171207D02*
X47895714Y-70135493D01*
X47895714Y-70135493D02*
X47967142Y-70135493D01*
X47967142Y-70135493D02*
X48074285Y-70171207D01*
X48074285Y-70171207D02*
X48109999Y-70206921D01*
X48574285Y-70135493D02*
X48717142Y-70135493D01*
X48717142Y-70135493D02*
X48788571Y-70171207D01*
X48788571Y-70171207D02*
X48859999Y-70242636D01*
X48859999Y-70242636D02*
X48895714Y-70385493D01*
X48895714Y-70385493D02*
X48895714Y-70635493D01*
X48895714Y-70635493D02*
X48859999Y-70778350D01*
X48859999Y-70778350D02*
X48788571Y-70849779D01*
X48788571Y-70849779D02*
X48717142Y-70885493D01*
X48717142Y-70885493D02*
X48574285Y-70885493D01*
X48574285Y-70885493D02*
X48502857Y-70849779D01*
X48502857Y-70849779D02*
X48431428Y-70778350D01*
X48431428Y-70778350D02*
X48395714Y-70635493D01*
X48395714Y-70635493D02*
X48395714Y-70385493D01*
X48395714Y-70385493D02*
X48431428Y-70242636D01*
X48431428Y-70242636D02*
X48502857Y-70171207D01*
X48502857Y-70171207D02*
X48574285Y-70135493D01*
X49645713Y-70885493D02*
X49395713Y-70528350D01*
X49217142Y-70885493D02*
X49217142Y-70135493D01*
X49217142Y-70135493D02*
X49502856Y-70135493D01*
X49502856Y-70135493D02*
X49574285Y-70171207D01*
X49574285Y-70171207D02*
X49609999Y-70206921D01*
X49609999Y-70206921D02*
X49645713Y-70278350D01*
X49645713Y-70278350D02*
X49645713Y-70385493D01*
X49645713Y-70385493D02*
X49609999Y-70456921D01*
X49609999Y-70456921D02*
X49574285Y-70492636D01*
X49574285Y-70492636D02*
X49502856Y-70528350D01*
X49502856Y-70528350D02*
X49217142Y-70528350D01*
X50395713Y-70885493D02*
X50145713Y-70528350D01*
X49967142Y-70885493D02*
X49967142Y-70135493D01*
X49967142Y-70135493D02*
X50252856Y-70135493D01*
X50252856Y-70135493D02*
X50324285Y-70171207D01*
X50324285Y-70171207D02*
X50359999Y-70206921D01*
X50359999Y-70206921D02*
X50395713Y-70278350D01*
X50395713Y-70278350D02*
X50395713Y-70385493D01*
X50395713Y-70385493D02*
X50359999Y-70456921D01*
X50359999Y-70456921D02*
X50324285Y-70492636D01*
X50324285Y-70492636D02*
X50252856Y-70528350D01*
X50252856Y-70528350D02*
X49967142Y-70528350D01*
X50717142Y-70492636D02*
X50967142Y-70492636D01*
X51074285Y-70885493D02*
X50717142Y-70885493D01*
X50717142Y-70885493D02*
X50717142Y-70135493D01*
X50717142Y-70135493D02*
X51074285Y-70135493D01*
X51824284Y-70814064D02*
X51788570Y-70849779D01*
X51788570Y-70849779D02*
X51681427Y-70885493D01*
X51681427Y-70885493D02*
X51609999Y-70885493D01*
X51609999Y-70885493D02*
X51502856Y-70849779D01*
X51502856Y-70849779D02*
X51431427Y-70778350D01*
X51431427Y-70778350D02*
X51395713Y-70706921D01*
X51395713Y-70706921D02*
X51359999Y-70564064D01*
X51359999Y-70564064D02*
X51359999Y-70456921D01*
X51359999Y-70456921D02*
X51395713Y-70314064D01*
X51395713Y-70314064D02*
X51431427Y-70242636D01*
X51431427Y-70242636D02*
X51502856Y-70171207D01*
X51502856Y-70171207D02*
X51609999Y-70135493D01*
X51609999Y-70135493D02*
X51681427Y-70135493D01*
X51681427Y-70135493D02*
X51788570Y-70171207D01*
X51788570Y-70171207D02*
X51824284Y-70206921D01*
X52038570Y-70135493D02*
X52467142Y-70135493D01*
X52252856Y-70885493D02*
X52252856Y-70135493D01*
X53502857Y-70135493D02*
X53502857Y-70671207D01*
X53502857Y-70671207D02*
X53467142Y-70778350D01*
X53467142Y-70778350D02*
X53395714Y-70849779D01*
X53395714Y-70849779D02*
X53288571Y-70885493D01*
X53288571Y-70885493D02*
X53217142Y-70885493D01*
X53860000Y-70135493D02*
X53860000Y-70742636D01*
X53860000Y-70742636D02*
X53895714Y-70814064D01*
X53895714Y-70814064D02*
X53931429Y-70849779D01*
X53931429Y-70849779D02*
X54002857Y-70885493D01*
X54002857Y-70885493D02*
X54145714Y-70885493D01*
X54145714Y-70885493D02*
X54217143Y-70849779D01*
X54217143Y-70849779D02*
X54252857Y-70814064D01*
X54252857Y-70814064D02*
X54288571Y-70742636D01*
X54288571Y-70742636D02*
X54288571Y-70135493D01*
X54645714Y-70885493D02*
X54645714Y-70135493D01*
X54645714Y-70135493D02*
X54895714Y-70671207D01*
X54895714Y-70671207D02*
X55145714Y-70135493D01*
X55145714Y-70135493D02*
X55145714Y-70885493D01*
X55502857Y-70885493D02*
X55502857Y-70135493D01*
X55502857Y-70135493D02*
X55788571Y-70135493D01*
X55788571Y-70135493D02*
X55860000Y-70171207D01*
X55860000Y-70171207D02*
X55895714Y-70206921D01*
X55895714Y-70206921D02*
X55931428Y-70278350D01*
X55931428Y-70278350D02*
X55931428Y-70385493D01*
X55931428Y-70385493D02*
X55895714Y-70456921D01*
X55895714Y-70456921D02*
X55860000Y-70492636D01*
X55860000Y-70492636D02*
X55788571Y-70528350D01*
X55788571Y-70528350D02*
X55502857Y-70528350D01*
X56252857Y-70492636D02*
X56502857Y-70492636D01*
X56610000Y-70885493D02*
X56252857Y-70885493D01*
X56252857Y-70885493D02*
X56252857Y-70135493D01*
X56252857Y-70135493D02*
X56610000Y-70135493D01*
X57359999Y-70885493D02*
X57109999Y-70528350D01*
X56931428Y-70885493D02*
X56931428Y-70135493D01*
X56931428Y-70135493D02*
X57217142Y-70135493D01*
X57217142Y-70135493D02*
X57288571Y-70171207D01*
X57288571Y-70171207D02*
X57324285Y-70206921D01*
X57324285Y-70206921D02*
X57359999Y-70278350D01*
X57359999Y-70278350D02*
X57359999Y-70385493D01*
X57359999Y-70385493D02*
X57324285Y-70456921D01*
X57324285Y-70456921D02*
X57288571Y-70492636D01*
X57288571Y-70492636D02*
X57217142Y-70528350D01*
X57217142Y-70528350D02*
X56931428Y-70528350D01*
X57645714Y-70849779D02*
X57752857Y-70885493D01*
X57752857Y-70885493D02*
X57931428Y-70885493D01*
X57931428Y-70885493D02*
X58002857Y-70849779D01*
X58002857Y-70849779D02*
X58038571Y-70814064D01*
X58038571Y-70814064D02*
X58074285Y-70742636D01*
X58074285Y-70742636D02*
X58074285Y-70671207D01*
X58074285Y-70671207D02*
X58038571Y-70599779D01*
X58038571Y-70599779D02*
X58002857Y-70564064D01*
X58002857Y-70564064D02*
X57931428Y-70528350D01*
X57931428Y-70528350D02*
X57788571Y-70492636D01*
X57788571Y-70492636D02*
X57717142Y-70456921D01*
X57717142Y-70456921D02*
X57681428Y-70421207D01*
X57681428Y-70421207D02*
X57645714Y-70349779D01*
X57645714Y-70349779D02*
X57645714Y-70278350D01*
X57645714Y-70278350D02*
X57681428Y-70206921D01*
X57681428Y-70206921D02*
X57717142Y-70171207D01*
X57717142Y-70171207D02*
X57788571Y-70135493D01*
X57788571Y-70135493D02*
X57967142Y-70135493D01*
X57967142Y-70135493D02*
X58074285Y-70171207D01*
X37232419Y-30536115D02*
X36232419Y-30536115D01*
X36232419Y-30536115D02*
X36946704Y-30202782D01*
X36946704Y-30202782D02*
X36232419Y-29869449D01*
X36232419Y-29869449D02*
X37232419Y-29869449D01*
X37232419Y-29393258D02*
X36232419Y-29393258D01*
X36232419Y-29393258D02*
X36232419Y-29155163D01*
X36232419Y-29155163D02*
X36280038Y-29012306D01*
X36280038Y-29012306D02*
X36375276Y-28917068D01*
X36375276Y-28917068D02*
X36470514Y-28869449D01*
X36470514Y-28869449D02*
X36660990Y-28821830D01*
X36660990Y-28821830D02*
X36803847Y-28821830D01*
X36803847Y-28821830D02*
X36994323Y-28869449D01*
X36994323Y-28869449D02*
X37089561Y-28917068D01*
X37089561Y-28917068D02*
X37184800Y-29012306D01*
X37184800Y-29012306D02*
X37232419Y-29155163D01*
X37232419Y-29155163D02*
X37232419Y-29393258D01*
X73851764Y-24268571D02*
X73851764Y-23804285D01*
X73851764Y-23804285D02*
X74137478Y-24054285D01*
X74137478Y-24054285D02*
X74137478Y-23947142D01*
X74137478Y-23947142D02*
X74173192Y-23875714D01*
X74173192Y-23875714D02*
X74208907Y-23839999D01*
X74208907Y-23839999D02*
X74280335Y-23804285D01*
X74280335Y-23804285D02*
X74458907Y-23804285D01*
X74458907Y-23804285D02*
X74530335Y-23839999D01*
X74530335Y-23839999D02*
X74566050Y-23875714D01*
X74566050Y-23875714D02*
X74601764Y-23947142D01*
X74601764Y-23947142D02*
X74601764Y-24161428D01*
X74601764Y-24161428D02*
X74566050Y-24232856D01*
X74566050Y-24232856D02*
X74530335Y-24268571D01*
X73851764Y-23161428D02*
X73851764Y-23304285D01*
X73851764Y-23304285D02*
X73887478Y-23375713D01*
X73887478Y-23375713D02*
X73923192Y-23411428D01*
X73923192Y-23411428D02*
X74030335Y-23482856D01*
X74030335Y-23482856D02*
X74173192Y-23518570D01*
X74173192Y-23518570D02*
X74458907Y-23518570D01*
X74458907Y-23518570D02*
X74530335Y-23482856D01*
X74530335Y-23482856D02*
X74566050Y-23447142D01*
X74566050Y-23447142D02*
X74601764Y-23375713D01*
X74601764Y-23375713D02*
X74601764Y-23232856D01*
X74601764Y-23232856D02*
X74566050Y-23161428D01*
X74566050Y-23161428D02*
X74530335Y-23125713D01*
X74530335Y-23125713D02*
X74458907Y-23089999D01*
X74458907Y-23089999D02*
X74280335Y-23089999D01*
X74280335Y-23089999D02*
X74208907Y-23125713D01*
X74208907Y-23125713D02*
X74173192Y-23161428D01*
X74173192Y-23161428D02*
X74137478Y-23232856D01*
X74137478Y-23232856D02*
X74137478Y-23375713D01*
X74137478Y-23375713D02*
X74173192Y-23447142D01*
X74173192Y-23447142D02*
X74208907Y-23482856D01*
X74208907Y-23482856D02*
X74280335Y-23518570D01*
X73851764Y-22875713D02*
X74601764Y-22625713D01*
X74601764Y-22625713D02*
X73851764Y-22375713D01*
X64760000Y-34392447D02*
X64760000Y-33630542D01*
X64569524Y-33821018D02*
X64760000Y-33630542D01*
X64760000Y-33630542D02*
X64950476Y-33821018D01*
X63974286Y-35002391D02*
X63974286Y-35811914D01*
X63974286Y-35811914D02*
X64021905Y-35907152D01*
X64021905Y-35907152D02*
X64069524Y-35954772D01*
X64069524Y-35954772D02*
X64164762Y-36002391D01*
X64164762Y-36002391D02*
X64355238Y-36002391D01*
X64355238Y-36002391D02*
X64450476Y-35954772D01*
X64450476Y-35954772D02*
X64498095Y-35907152D01*
X64498095Y-35907152D02*
X64545714Y-35811914D01*
X64545714Y-35811914D02*
X64545714Y-35002391D01*
X65021905Y-36002391D02*
X65021905Y-35002391D01*
X65021905Y-35002391D02*
X65402857Y-35002391D01*
X65402857Y-35002391D02*
X65498095Y-35050010D01*
X65498095Y-35050010D02*
X65545714Y-35097629D01*
X65545714Y-35097629D02*
X65593333Y-35192867D01*
X65593333Y-35192867D02*
X65593333Y-35335724D01*
X65593333Y-35335724D02*
X65545714Y-35430962D01*
X65545714Y-35430962D02*
X65498095Y-35478581D01*
X65498095Y-35478581D02*
X65402857Y-35526200D01*
X65402857Y-35526200D02*
X65021905Y-35526200D01*
D10*
X83029673Y-77107219D02*
X83029673Y-76107219D01*
X83029673Y-76107219D02*
X83410625Y-76107219D01*
X83410625Y-76107219D02*
X83505863Y-76154838D01*
X83505863Y-76154838D02*
X83553482Y-76202457D01*
X83553482Y-76202457D02*
X83601101Y-76297695D01*
X83601101Y-76297695D02*
X83601101Y-76440552D01*
X83601101Y-76440552D02*
X83553482Y-76535790D01*
X83553482Y-76535790D02*
X83505863Y-76583409D01*
X83505863Y-76583409D02*
X83410625Y-76631028D01*
X83410625Y-76631028D02*
X83029673Y-76631028D01*
X83934435Y-76107219D02*
X84172530Y-77107219D01*
X84172530Y-77107219D02*
X84363006Y-76392933D01*
X84363006Y-76392933D02*
X84553482Y-77107219D01*
X84553482Y-77107219D02*
X84791578Y-76107219D01*
X85743958Y-77107219D02*
X85410625Y-76631028D01*
X85172530Y-77107219D02*
X85172530Y-76107219D01*
X85172530Y-76107219D02*
X85553482Y-76107219D01*
X85553482Y-76107219D02*
X85648720Y-76154838D01*
X85648720Y-76154838D02*
X85696339Y-76202457D01*
X85696339Y-76202457D02*
X85743958Y-76297695D01*
X85743958Y-76297695D02*
X85743958Y-76440552D01*
X85743958Y-76440552D02*
X85696339Y-76535790D01*
X85696339Y-76535790D02*
X85648720Y-76583409D01*
X85648720Y-76583409D02*
X85553482Y-76631028D01*
X85553482Y-76631028D02*
X85172530Y-76631028D01*
X86934435Y-77107219D02*
X86934435Y-76107219D01*
X87410625Y-77107219D02*
X87410625Y-76107219D01*
X87410625Y-76107219D02*
X87982053Y-77107219D01*
X87982053Y-77107219D02*
X87982053Y-76107219D01*
D11*
X82066050Y-24229285D02*
X82101764Y-24122143D01*
X82101764Y-24122143D02*
X82101764Y-23943571D01*
X82101764Y-23943571D02*
X82066050Y-23872143D01*
X82066050Y-23872143D02*
X82030335Y-23836428D01*
X82030335Y-23836428D02*
X81958907Y-23800714D01*
X81958907Y-23800714D02*
X81887478Y-23800714D01*
X81887478Y-23800714D02*
X81816050Y-23836428D01*
X81816050Y-23836428D02*
X81780335Y-23872143D01*
X81780335Y-23872143D02*
X81744621Y-23943571D01*
X81744621Y-23943571D02*
X81708907Y-24086428D01*
X81708907Y-24086428D02*
X81673192Y-24157857D01*
X81673192Y-24157857D02*
X81637478Y-24193571D01*
X81637478Y-24193571D02*
X81566050Y-24229285D01*
X81566050Y-24229285D02*
X81494621Y-24229285D01*
X81494621Y-24229285D02*
X81423192Y-24193571D01*
X81423192Y-24193571D02*
X81387478Y-24157857D01*
X81387478Y-24157857D02*
X81351764Y-24086428D01*
X81351764Y-24086428D02*
X81351764Y-23907857D01*
X81351764Y-23907857D02*
X81387478Y-23800714D01*
X82030335Y-23050714D02*
X82066050Y-23086428D01*
X82066050Y-23086428D02*
X82101764Y-23193571D01*
X82101764Y-23193571D02*
X82101764Y-23264999D01*
X82101764Y-23264999D02*
X82066050Y-23372142D01*
X82066050Y-23372142D02*
X81994621Y-23443571D01*
X81994621Y-23443571D02*
X81923192Y-23479285D01*
X81923192Y-23479285D02*
X81780335Y-23514999D01*
X81780335Y-23514999D02*
X81673192Y-23514999D01*
X81673192Y-23514999D02*
X81530335Y-23479285D01*
X81530335Y-23479285D02*
X81458907Y-23443571D01*
X81458907Y-23443571D02*
X81387478Y-23372142D01*
X81387478Y-23372142D02*
X81351764Y-23264999D01*
X81351764Y-23264999D02*
X81351764Y-23193571D01*
X81351764Y-23193571D02*
X81387478Y-23086428D01*
X81387478Y-23086428D02*
X81423192Y-23050714D01*
X78887478Y-23811428D02*
X78851764Y-23882857D01*
X78851764Y-23882857D02*
X78851764Y-23989999D01*
X78851764Y-23989999D02*
X78887478Y-24097142D01*
X78887478Y-24097142D02*
X78958907Y-24168571D01*
X78958907Y-24168571D02*
X79030335Y-24204285D01*
X79030335Y-24204285D02*
X79173192Y-24239999D01*
X79173192Y-24239999D02*
X79280335Y-24239999D01*
X79280335Y-24239999D02*
X79423192Y-24204285D01*
X79423192Y-24204285D02*
X79494621Y-24168571D01*
X79494621Y-24168571D02*
X79566050Y-24097142D01*
X79566050Y-24097142D02*
X79601764Y-23989999D01*
X79601764Y-23989999D02*
X79601764Y-23918571D01*
X79601764Y-23918571D02*
X79566050Y-23811428D01*
X79566050Y-23811428D02*
X79530335Y-23775714D01*
X79530335Y-23775714D02*
X79280335Y-23775714D01*
X79280335Y-23775714D02*
X79280335Y-23918571D01*
X79601764Y-23454285D02*
X78851764Y-23454285D01*
X78851764Y-23454285D02*
X79601764Y-23025714D01*
X79601764Y-23025714D02*
X78851764Y-23025714D01*
X79601764Y-22668571D02*
X78851764Y-22668571D01*
X78851764Y-22668571D02*
X78851764Y-22490000D01*
X78851764Y-22490000D02*
X78887478Y-22382857D01*
X78887478Y-22382857D02*
X78958907Y-22311428D01*
X78958907Y-22311428D02*
X79030335Y-22275714D01*
X79030335Y-22275714D02*
X79173192Y-22240000D01*
X79173192Y-22240000D02*
X79280335Y-22240000D01*
X79280335Y-22240000D02*
X79423192Y-22275714D01*
X79423192Y-22275714D02*
X79494621Y-22311428D01*
X79494621Y-22311428D02*
X79566050Y-22382857D01*
X79566050Y-22382857D02*
X79601764Y-22490000D01*
X79601764Y-22490000D02*
X79601764Y-22668571D01*
X61308907Y-24022142D02*
X61308907Y-24272142D01*
X61701764Y-24272142D02*
X60951764Y-24272142D01*
X60951764Y-24272142D02*
X60951764Y-23914999D01*
X61701764Y-23272142D02*
X61701764Y-23629285D01*
X61701764Y-23629285D02*
X60951764Y-23629285D01*
X60951764Y-23129285D02*
X60951764Y-22700714D01*
X61701764Y-22914999D02*
X60951764Y-22914999D01*
D10*
X33929673Y-44726266D02*
X34691578Y-44726266D01*
X34310625Y-45107219D02*
X34310625Y-44345314D01*
D12*
X33855238Y-68494819D02*
X33855238Y-67494819D01*
X33855238Y-67494819D02*
X34236190Y-67494819D01*
X34236190Y-67494819D02*
X34331428Y-67542438D01*
X34331428Y-67542438D02*
X34379047Y-67590057D01*
X34379047Y-67590057D02*
X34426666Y-67685295D01*
X34426666Y-67685295D02*
X34426666Y-67828152D01*
X34426666Y-67828152D02*
X34379047Y-67923390D01*
X34379047Y-67923390D02*
X34331428Y-67971009D01*
X34331428Y-67971009D02*
X34236190Y-68018628D01*
X34236190Y-68018628D02*
X33855238Y-68018628D01*
X34760000Y-67494819D02*
X34998095Y-68494819D01*
X34998095Y-68494819D02*
X35188571Y-67780533D01*
X35188571Y-67780533D02*
X35379047Y-68494819D01*
X35379047Y-68494819D02*
X35617143Y-67494819D01*
X35998095Y-68494819D02*
X35998095Y-67494819D01*
X35998095Y-67494819D02*
X36331428Y-68209104D01*
X36331428Y-68209104D02*
X36664761Y-67494819D01*
X36664761Y-67494819D02*
X36664761Y-68494819D01*
D11*
X48187478Y-23811428D02*
X48151764Y-23882857D01*
X48151764Y-23882857D02*
X48151764Y-23989999D01*
X48151764Y-23989999D02*
X48187478Y-24097142D01*
X48187478Y-24097142D02*
X48258907Y-24168571D01*
X48258907Y-24168571D02*
X48330335Y-24204285D01*
X48330335Y-24204285D02*
X48473192Y-24239999D01*
X48473192Y-24239999D02*
X48580335Y-24239999D01*
X48580335Y-24239999D02*
X48723192Y-24204285D01*
X48723192Y-24204285D02*
X48794621Y-24168571D01*
X48794621Y-24168571D02*
X48866050Y-24097142D01*
X48866050Y-24097142D02*
X48901764Y-23989999D01*
X48901764Y-23989999D02*
X48901764Y-23918571D01*
X48901764Y-23918571D02*
X48866050Y-23811428D01*
X48866050Y-23811428D02*
X48830335Y-23775714D01*
X48830335Y-23775714D02*
X48580335Y-23775714D01*
X48580335Y-23775714D02*
X48580335Y-23918571D01*
X48901764Y-23454285D02*
X48151764Y-23454285D01*
X48151764Y-23454285D02*
X48901764Y-23025714D01*
X48901764Y-23025714D02*
X48151764Y-23025714D01*
X48901764Y-22668571D02*
X48151764Y-22668571D01*
X48151764Y-22668571D02*
X48151764Y-22490000D01*
X48151764Y-22490000D02*
X48187478Y-22382857D01*
X48187478Y-22382857D02*
X48258907Y-22311428D01*
X48258907Y-22311428D02*
X48330335Y-22275714D01*
X48330335Y-22275714D02*
X48473192Y-22240000D01*
X48473192Y-22240000D02*
X48580335Y-22240000D01*
X48580335Y-22240000D02*
X48723192Y-22275714D01*
X48723192Y-22275714D02*
X48794621Y-22311428D01*
X48794621Y-22311428D02*
X48866050Y-22382857D01*
X48866050Y-22382857D02*
X48901764Y-22490000D01*
X48901764Y-22490000D02*
X48901764Y-22668571D01*
D10*
X70282054Y-77559600D02*
X70424911Y-77607219D01*
X70424911Y-77607219D02*
X70663006Y-77607219D01*
X70663006Y-77607219D02*
X70758244Y-77559600D01*
X70758244Y-77559600D02*
X70805863Y-77511980D01*
X70805863Y-77511980D02*
X70853482Y-77416742D01*
X70853482Y-77416742D02*
X70853482Y-77321504D01*
X70853482Y-77321504D02*
X70805863Y-77226266D01*
X70805863Y-77226266D02*
X70758244Y-77178647D01*
X70758244Y-77178647D02*
X70663006Y-77131028D01*
X70663006Y-77131028D02*
X70472530Y-77083409D01*
X70472530Y-77083409D02*
X70377292Y-77035790D01*
X70377292Y-77035790D02*
X70329673Y-76988171D01*
X70329673Y-76988171D02*
X70282054Y-76892933D01*
X70282054Y-76892933D02*
X70282054Y-76797695D01*
X70282054Y-76797695D02*
X70329673Y-76702457D01*
X70329673Y-76702457D02*
X70377292Y-76654838D01*
X70377292Y-76654838D02*
X70472530Y-76607219D01*
X70472530Y-76607219D02*
X70710625Y-76607219D01*
X70710625Y-76607219D02*
X70853482Y-76654838D01*
X71234435Y-77321504D02*
X71710625Y-77321504D01*
X71139197Y-77607219D02*
X71472530Y-76607219D01*
X71472530Y-76607219D02*
X71805863Y-77607219D01*
D12*
X34074286Y-65847200D02*
X34217143Y-65894819D01*
X34217143Y-65894819D02*
X34455238Y-65894819D01*
X34455238Y-65894819D02*
X34550476Y-65847200D01*
X34550476Y-65847200D02*
X34598095Y-65799580D01*
X34598095Y-65799580D02*
X34645714Y-65704342D01*
X34645714Y-65704342D02*
X34645714Y-65609104D01*
X34645714Y-65609104D02*
X34598095Y-65513866D01*
X34598095Y-65513866D02*
X34550476Y-65466247D01*
X34550476Y-65466247D02*
X34455238Y-65418628D01*
X34455238Y-65418628D02*
X34264762Y-65371009D01*
X34264762Y-65371009D02*
X34169524Y-65323390D01*
X34169524Y-65323390D02*
X34121905Y-65275771D01*
X34121905Y-65275771D02*
X34074286Y-65180533D01*
X34074286Y-65180533D02*
X34074286Y-65085295D01*
X34074286Y-65085295D02*
X34121905Y-64990057D01*
X34121905Y-64990057D02*
X34169524Y-64942438D01*
X34169524Y-64942438D02*
X34264762Y-64894819D01*
X34264762Y-64894819D02*
X34502857Y-64894819D01*
X34502857Y-64894819D02*
X34645714Y-64942438D01*
X35074286Y-65894819D02*
X35074286Y-64894819D01*
X35074286Y-64894819D02*
X35455238Y-64894819D01*
X35455238Y-64894819D02*
X35550476Y-64942438D01*
X35550476Y-64942438D02*
X35598095Y-64990057D01*
X35598095Y-64990057D02*
X35645714Y-65085295D01*
X35645714Y-65085295D02*
X35645714Y-65228152D01*
X35645714Y-65228152D02*
X35598095Y-65323390D01*
X35598095Y-65323390D02*
X35550476Y-65371009D01*
X35550476Y-65371009D02*
X35455238Y-65418628D01*
X35455238Y-65418628D02*
X35074286Y-65418628D01*
X36074286Y-65894819D02*
X36074286Y-64894819D01*
X36074286Y-64894819D02*
X36312381Y-64894819D01*
X36312381Y-64894819D02*
X36455238Y-64942438D01*
X36455238Y-64942438D02*
X36550476Y-65037676D01*
X36550476Y-65037676D02*
X36598095Y-65132914D01*
X36598095Y-65132914D02*
X36645714Y-65323390D01*
X36645714Y-65323390D02*
X36645714Y-65466247D01*
X36645714Y-65466247D02*
X36598095Y-65656723D01*
X36598095Y-65656723D02*
X36550476Y-65751961D01*
X36550476Y-65751961D02*
X36455238Y-65847200D01*
X36455238Y-65847200D02*
X36312381Y-65894819D01*
X36312381Y-65894819D02*
X36074286Y-65894819D01*
D11*
X92166050Y-24175713D02*
X92201764Y-24068571D01*
X92201764Y-24068571D02*
X92201764Y-23889999D01*
X92201764Y-23889999D02*
X92166050Y-23818571D01*
X92166050Y-23818571D02*
X92130335Y-23782856D01*
X92130335Y-23782856D02*
X92058907Y-23747142D01*
X92058907Y-23747142D02*
X91987478Y-23747142D01*
X91987478Y-23747142D02*
X91916050Y-23782856D01*
X91916050Y-23782856D02*
X91880335Y-23818571D01*
X91880335Y-23818571D02*
X91844621Y-23889999D01*
X91844621Y-23889999D02*
X91808907Y-24032856D01*
X91808907Y-24032856D02*
X91773192Y-24104285D01*
X91773192Y-24104285D02*
X91737478Y-24139999D01*
X91737478Y-24139999D02*
X91666050Y-24175713D01*
X91666050Y-24175713D02*
X91594621Y-24175713D01*
X91594621Y-24175713D02*
X91523192Y-24139999D01*
X91523192Y-24139999D02*
X91487478Y-24104285D01*
X91487478Y-24104285D02*
X91451764Y-24032856D01*
X91451764Y-24032856D02*
X91451764Y-23854285D01*
X91451764Y-23854285D02*
X91487478Y-23747142D01*
X91987478Y-23461427D02*
X91987478Y-23104285D01*
X92201764Y-23532856D02*
X91451764Y-23282856D01*
X91451764Y-23282856D02*
X92201764Y-23032856D01*
D10*
X34646266Y-50070326D02*
X34646266Y-49308422D01*
D11*
X71151764Y-24268571D02*
X71151764Y-23804285D01*
X71151764Y-23804285D02*
X71437478Y-24054285D01*
X71437478Y-24054285D02*
X71437478Y-23947142D01*
X71437478Y-23947142D02*
X71473192Y-23875714D01*
X71473192Y-23875714D02*
X71508907Y-23839999D01*
X71508907Y-23839999D02*
X71580335Y-23804285D01*
X71580335Y-23804285D02*
X71758907Y-23804285D01*
X71758907Y-23804285D02*
X71830335Y-23839999D01*
X71830335Y-23839999D02*
X71866050Y-23875714D01*
X71866050Y-23875714D02*
X71901764Y-23947142D01*
X71901764Y-23947142D02*
X71901764Y-24161428D01*
X71901764Y-24161428D02*
X71866050Y-24232856D01*
X71866050Y-24232856D02*
X71830335Y-24268571D01*
X71151764Y-23161428D02*
X71151764Y-23304285D01*
X71151764Y-23304285D02*
X71187478Y-23375713D01*
X71187478Y-23375713D02*
X71223192Y-23411428D01*
X71223192Y-23411428D02*
X71330335Y-23482856D01*
X71330335Y-23482856D02*
X71473192Y-23518570D01*
X71473192Y-23518570D02*
X71758907Y-23518570D01*
X71758907Y-23518570D02*
X71830335Y-23482856D01*
X71830335Y-23482856D02*
X71866050Y-23447142D01*
X71866050Y-23447142D02*
X71901764Y-23375713D01*
X71901764Y-23375713D02*
X71901764Y-23232856D01*
X71901764Y-23232856D02*
X71866050Y-23161428D01*
X71866050Y-23161428D02*
X71830335Y-23125713D01*
X71830335Y-23125713D02*
X71758907Y-23089999D01*
X71758907Y-23089999D02*
X71580335Y-23089999D01*
X71580335Y-23089999D02*
X71508907Y-23125713D01*
X71508907Y-23125713D02*
X71473192Y-23161428D01*
X71473192Y-23161428D02*
X71437478Y-23232856D01*
X71437478Y-23232856D02*
X71437478Y-23375713D01*
X71437478Y-23375713D02*
X71473192Y-23447142D01*
X71473192Y-23447142D02*
X71508907Y-23482856D01*
X71508907Y-23482856D02*
X71580335Y-23518570D01*
X71151764Y-22875713D02*
X71901764Y-22625713D01*
X71901764Y-22625713D02*
X71151764Y-22375713D01*
X47560000Y-62634863D02*
X47667143Y-62670577D01*
X47667143Y-62670577D02*
X47845714Y-62670577D01*
X47845714Y-62670577D02*
X47917143Y-62634863D01*
X47917143Y-62634863D02*
X47952857Y-62599148D01*
X47952857Y-62599148D02*
X47988571Y-62527720D01*
X47988571Y-62527720D02*
X47988571Y-62456291D01*
X47988571Y-62456291D02*
X47952857Y-62384863D01*
X47952857Y-62384863D02*
X47917143Y-62349148D01*
X47917143Y-62349148D02*
X47845714Y-62313434D01*
X47845714Y-62313434D02*
X47702857Y-62277720D01*
X47702857Y-62277720D02*
X47631428Y-62242005D01*
X47631428Y-62242005D02*
X47595714Y-62206291D01*
X47595714Y-62206291D02*
X47560000Y-62134863D01*
X47560000Y-62134863D02*
X47560000Y-62063434D01*
X47560000Y-62063434D02*
X47595714Y-61992005D01*
X47595714Y-61992005D02*
X47631428Y-61956291D01*
X47631428Y-61956291D02*
X47702857Y-61920577D01*
X47702857Y-61920577D02*
X47881428Y-61920577D01*
X47881428Y-61920577D02*
X47988571Y-61956291D01*
X48310000Y-62670577D02*
X48310000Y-61920577D01*
X48310000Y-61920577D02*
X48488571Y-61920577D01*
X48488571Y-61920577D02*
X48595714Y-61956291D01*
X48595714Y-61956291D02*
X48667143Y-62027720D01*
X48667143Y-62027720D02*
X48702857Y-62099148D01*
X48702857Y-62099148D02*
X48738571Y-62242005D01*
X48738571Y-62242005D02*
X48738571Y-62349148D01*
X48738571Y-62349148D02*
X48702857Y-62492005D01*
X48702857Y-62492005D02*
X48667143Y-62563434D01*
X48667143Y-62563434D02*
X48595714Y-62634863D01*
X48595714Y-62634863D02*
X48488571Y-62670577D01*
X48488571Y-62670577D02*
X48310000Y-62670577D01*
X49024286Y-62456291D02*
X49381429Y-62456291D01*
X48952857Y-62670577D02*
X49202857Y-61920577D01*
X49202857Y-61920577D02*
X49452857Y-62670577D01*
X50274286Y-62384863D02*
X50845715Y-62384863D01*
X51738572Y-62634863D02*
X51845715Y-62670577D01*
X51845715Y-62670577D02*
X52024286Y-62670577D01*
X52024286Y-62670577D02*
X52095715Y-62634863D01*
X52095715Y-62634863D02*
X52131429Y-62599148D01*
X52131429Y-62599148D02*
X52167143Y-62527720D01*
X52167143Y-62527720D02*
X52167143Y-62456291D01*
X52167143Y-62456291D02*
X52131429Y-62384863D01*
X52131429Y-62384863D02*
X52095715Y-62349148D01*
X52095715Y-62349148D02*
X52024286Y-62313434D01*
X52024286Y-62313434D02*
X51881429Y-62277720D01*
X51881429Y-62277720D02*
X51810000Y-62242005D01*
X51810000Y-62242005D02*
X51774286Y-62206291D01*
X51774286Y-62206291D02*
X51738572Y-62134863D01*
X51738572Y-62134863D02*
X51738572Y-62063434D01*
X51738572Y-62063434D02*
X51774286Y-61992005D01*
X51774286Y-61992005D02*
X51810000Y-61956291D01*
X51810000Y-61956291D02*
X51881429Y-61920577D01*
X51881429Y-61920577D02*
X52060000Y-61920577D01*
X52060000Y-61920577D02*
X52167143Y-61956291D01*
X52488572Y-62670577D02*
X52488572Y-61920577D01*
X52488572Y-61920577D02*
X52774286Y-61920577D01*
X52774286Y-61920577D02*
X52845715Y-61956291D01*
X52845715Y-61956291D02*
X52881429Y-61992005D01*
X52881429Y-61992005D02*
X52917143Y-62063434D01*
X52917143Y-62063434D02*
X52917143Y-62170577D01*
X52917143Y-62170577D02*
X52881429Y-62242005D01*
X52881429Y-62242005D02*
X52845715Y-62277720D01*
X52845715Y-62277720D02*
X52774286Y-62313434D01*
X52774286Y-62313434D02*
X52488572Y-62313434D01*
X53238572Y-62670577D02*
X53238572Y-61920577D01*
X53238572Y-61920577D02*
X53417143Y-61920577D01*
X53417143Y-61920577D02*
X53524286Y-61956291D01*
X53524286Y-61956291D02*
X53595715Y-62027720D01*
X53595715Y-62027720D02*
X53631429Y-62099148D01*
X53631429Y-62099148D02*
X53667143Y-62242005D01*
X53667143Y-62242005D02*
X53667143Y-62349148D01*
X53667143Y-62349148D02*
X53631429Y-62492005D01*
X53631429Y-62492005D02*
X53595715Y-62563434D01*
X53595715Y-62563434D02*
X53524286Y-62634863D01*
X53524286Y-62634863D02*
X53417143Y-62670577D01*
X53417143Y-62670577D02*
X53238572Y-62670577D01*
X54524286Y-61884863D02*
X53881429Y-62849148D01*
X54738572Y-62634863D02*
X54845715Y-62670577D01*
X54845715Y-62670577D02*
X55024286Y-62670577D01*
X55024286Y-62670577D02*
X55095715Y-62634863D01*
X55095715Y-62634863D02*
X55131429Y-62599148D01*
X55131429Y-62599148D02*
X55167143Y-62527720D01*
X55167143Y-62527720D02*
X55167143Y-62456291D01*
X55167143Y-62456291D02*
X55131429Y-62384863D01*
X55131429Y-62384863D02*
X55095715Y-62349148D01*
X55095715Y-62349148D02*
X55024286Y-62313434D01*
X55024286Y-62313434D02*
X54881429Y-62277720D01*
X54881429Y-62277720D02*
X54810000Y-62242005D01*
X54810000Y-62242005D02*
X54774286Y-62206291D01*
X54774286Y-62206291D02*
X54738572Y-62134863D01*
X54738572Y-62134863D02*
X54738572Y-62063434D01*
X54738572Y-62063434D02*
X54774286Y-61992005D01*
X54774286Y-61992005D02*
X54810000Y-61956291D01*
X54810000Y-61956291D02*
X54881429Y-61920577D01*
X54881429Y-61920577D02*
X55060000Y-61920577D01*
X55060000Y-61920577D02*
X55167143Y-61956291D01*
X55488572Y-62670577D02*
X55488572Y-61920577D01*
X55488572Y-61920577D02*
X55667143Y-61920577D01*
X55667143Y-61920577D02*
X55774286Y-61956291D01*
X55774286Y-61956291D02*
X55845715Y-62027720D01*
X55845715Y-62027720D02*
X55881429Y-62099148D01*
X55881429Y-62099148D02*
X55917143Y-62242005D01*
X55917143Y-62242005D02*
X55917143Y-62349148D01*
X55917143Y-62349148D02*
X55881429Y-62492005D01*
X55881429Y-62492005D02*
X55845715Y-62563434D01*
X55845715Y-62563434D02*
X55774286Y-62634863D01*
X55774286Y-62634863D02*
X55667143Y-62670577D01*
X55667143Y-62670577D02*
X55488572Y-62670577D01*
X56202858Y-62456291D02*
X56560001Y-62456291D01*
X56131429Y-62670577D02*
X56381429Y-61920577D01*
X56381429Y-61920577D02*
X56631429Y-62670577D01*
X47470714Y-63842321D02*
X47577857Y-63878035D01*
X47577857Y-63878035D02*
X47756428Y-63878035D01*
X47756428Y-63878035D02*
X47827857Y-63842321D01*
X47827857Y-63842321D02*
X47863571Y-63806606D01*
X47863571Y-63806606D02*
X47899285Y-63735178D01*
X47899285Y-63735178D02*
X47899285Y-63663749D01*
X47899285Y-63663749D02*
X47863571Y-63592321D01*
X47863571Y-63592321D02*
X47827857Y-63556606D01*
X47827857Y-63556606D02*
X47756428Y-63520892D01*
X47756428Y-63520892D02*
X47613571Y-63485178D01*
X47613571Y-63485178D02*
X47542142Y-63449463D01*
X47542142Y-63449463D02*
X47506428Y-63413749D01*
X47506428Y-63413749D02*
X47470714Y-63342321D01*
X47470714Y-63342321D02*
X47470714Y-63270892D01*
X47470714Y-63270892D02*
X47506428Y-63199463D01*
X47506428Y-63199463D02*
X47542142Y-63163749D01*
X47542142Y-63163749D02*
X47613571Y-63128035D01*
X47613571Y-63128035D02*
X47792142Y-63128035D01*
X47792142Y-63128035D02*
X47899285Y-63163749D01*
X48649285Y-63806606D02*
X48613571Y-63842321D01*
X48613571Y-63842321D02*
X48506428Y-63878035D01*
X48506428Y-63878035D02*
X48435000Y-63878035D01*
X48435000Y-63878035D02*
X48327857Y-63842321D01*
X48327857Y-63842321D02*
X48256428Y-63770892D01*
X48256428Y-63770892D02*
X48220714Y-63699463D01*
X48220714Y-63699463D02*
X48185000Y-63556606D01*
X48185000Y-63556606D02*
X48185000Y-63449463D01*
X48185000Y-63449463D02*
X48220714Y-63306606D01*
X48220714Y-63306606D02*
X48256428Y-63235178D01*
X48256428Y-63235178D02*
X48327857Y-63163749D01*
X48327857Y-63163749D02*
X48435000Y-63128035D01*
X48435000Y-63128035D02*
X48506428Y-63128035D01*
X48506428Y-63128035D02*
X48613571Y-63163749D01*
X48613571Y-63163749D02*
X48649285Y-63199463D01*
X49327857Y-63878035D02*
X48970714Y-63878035D01*
X48970714Y-63878035D02*
X48970714Y-63128035D01*
X50149286Y-63592321D02*
X50720715Y-63592321D01*
X51649286Y-63878035D02*
X51649286Y-63128035D01*
X51649286Y-63128035D02*
X51935000Y-63128035D01*
X51935000Y-63128035D02*
X52006429Y-63163749D01*
X52006429Y-63163749D02*
X52042143Y-63199463D01*
X52042143Y-63199463D02*
X52077857Y-63270892D01*
X52077857Y-63270892D02*
X52077857Y-63378035D01*
X52077857Y-63378035D02*
X52042143Y-63449463D01*
X52042143Y-63449463D02*
X52006429Y-63485178D01*
X52006429Y-63485178D02*
X51935000Y-63520892D01*
X51935000Y-63520892D02*
X51649286Y-63520892D01*
X52327857Y-63128035D02*
X52506429Y-63878035D01*
X52506429Y-63878035D02*
X52649286Y-63342321D01*
X52649286Y-63342321D02*
X52792143Y-63878035D01*
X52792143Y-63878035D02*
X52970715Y-63128035D01*
X53256429Y-63878035D02*
X53256429Y-63128035D01*
X53256429Y-63128035D02*
X53506429Y-63663749D01*
X53506429Y-63663749D02*
X53756429Y-63128035D01*
X53756429Y-63128035D02*
X53756429Y-63878035D01*
X54649286Y-63092321D02*
X54006429Y-64056606D01*
X54863572Y-63842321D02*
X54970715Y-63878035D01*
X54970715Y-63878035D02*
X55149286Y-63878035D01*
X55149286Y-63878035D02*
X55220715Y-63842321D01*
X55220715Y-63842321D02*
X55256429Y-63806606D01*
X55256429Y-63806606D02*
X55292143Y-63735178D01*
X55292143Y-63735178D02*
X55292143Y-63663749D01*
X55292143Y-63663749D02*
X55256429Y-63592321D01*
X55256429Y-63592321D02*
X55220715Y-63556606D01*
X55220715Y-63556606D02*
X55149286Y-63520892D01*
X55149286Y-63520892D02*
X55006429Y-63485178D01*
X55006429Y-63485178D02*
X54935000Y-63449463D01*
X54935000Y-63449463D02*
X54899286Y-63413749D01*
X54899286Y-63413749D02*
X54863572Y-63342321D01*
X54863572Y-63342321D02*
X54863572Y-63270892D01*
X54863572Y-63270892D02*
X54899286Y-63199463D01*
X54899286Y-63199463D02*
X54935000Y-63163749D01*
X54935000Y-63163749D02*
X55006429Y-63128035D01*
X55006429Y-63128035D02*
X55185000Y-63128035D01*
X55185000Y-63128035D02*
X55292143Y-63163749D01*
X56042143Y-63806606D02*
X56006429Y-63842321D01*
X56006429Y-63842321D02*
X55899286Y-63878035D01*
X55899286Y-63878035D02*
X55827858Y-63878035D01*
X55827858Y-63878035D02*
X55720715Y-63842321D01*
X55720715Y-63842321D02*
X55649286Y-63770892D01*
X55649286Y-63770892D02*
X55613572Y-63699463D01*
X55613572Y-63699463D02*
X55577858Y-63556606D01*
X55577858Y-63556606D02*
X55577858Y-63449463D01*
X55577858Y-63449463D02*
X55613572Y-63306606D01*
X55613572Y-63306606D02*
X55649286Y-63235178D01*
X55649286Y-63235178D02*
X55720715Y-63163749D01*
X55720715Y-63163749D02*
X55827858Y-63128035D01*
X55827858Y-63128035D02*
X55899286Y-63128035D01*
X55899286Y-63128035D02*
X56006429Y-63163749D01*
X56006429Y-63163749D02*
X56042143Y-63199463D01*
X56720715Y-63878035D02*
X56363572Y-63878035D01*
X56363572Y-63878035D02*
X56363572Y-63128035D01*
X47506428Y-65049779D02*
X47613571Y-65085493D01*
X47613571Y-65085493D02*
X47792142Y-65085493D01*
X47792142Y-65085493D02*
X47863571Y-65049779D01*
X47863571Y-65049779D02*
X47899285Y-65014064D01*
X47899285Y-65014064D02*
X47934999Y-64942636D01*
X47934999Y-64942636D02*
X47934999Y-64871207D01*
X47934999Y-64871207D02*
X47899285Y-64799779D01*
X47899285Y-64799779D02*
X47863571Y-64764064D01*
X47863571Y-64764064D02*
X47792142Y-64728350D01*
X47792142Y-64728350D02*
X47649285Y-64692636D01*
X47649285Y-64692636D02*
X47577856Y-64656921D01*
X47577856Y-64656921D02*
X47542142Y-64621207D01*
X47542142Y-64621207D02*
X47506428Y-64549779D01*
X47506428Y-64549779D02*
X47506428Y-64478350D01*
X47506428Y-64478350D02*
X47542142Y-64406921D01*
X47542142Y-64406921D02*
X47577856Y-64371207D01*
X47577856Y-64371207D02*
X47649285Y-64335493D01*
X47649285Y-64335493D02*
X47827856Y-64335493D01*
X47827856Y-64335493D02*
X47934999Y-64371207D01*
X48256428Y-65085493D02*
X48256428Y-64335493D01*
X48256428Y-64335493D02*
X48542142Y-64335493D01*
X48542142Y-64335493D02*
X48613571Y-64371207D01*
X48613571Y-64371207D02*
X48649285Y-64406921D01*
X48649285Y-64406921D02*
X48684999Y-64478350D01*
X48684999Y-64478350D02*
X48684999Y-64585493D01*
X48684999Y-64585493D02*
X48649285Y-64656921D01*
X48649285Y-64656921D02*
X48613571Y-64692636D01*
X48613571Y-64692636D02*
X48542142Y-64728350D01*
X48542142Y-64728350D02*
X48256428Y-64728350D01*
X49006428Y-65085493D02*
X49006428Y-64335493D01*
X49006428Y-64335493D02*
X49184999Y-64335493D01*
X49184999Y-64335493D02*
X49292142Y-64371207D01*
X49292142Y-64371207D02*
X49363571Y-64442636D01*
X49363571Y-64442636D02*
X49399285Y-64514064D01*
X49399285Y-64514064D02*
X49434999Y-64656921D01*
X49434999Y-64656921D02*
X49434999Y-64764064D01*
X49434999Y-64764064D02*
X49399285Y-64906921D01*
X49399285Y-64906921D02*
X49363571Y-64978350D01*
X49363571Y-64978350D02*
X49292142Y-65049779D01*
X49292142Y-65049779D02*
X49184999Y-65085493D01*
X49184999Y-65085493D02*
X49006428Y-65085493D01*
X50327857Y-64799779D02*
X50899286Y-64799779D01*
X51792143Y-65049779D02*
X51899286Y-65085493D01*
X51899286Y-65085493D02*
X52077857Y-65085493D01*
X52077857Y-65085493D02*
X52149286Y-65049779D01*
X52149286Y-65049779D02*
X52185000Y-65014064D01*
X52185000Y-65014064D02*
X52220714Y-64942636D01*
X52220714Y-64942636D02*
X52220714Y-64871207D01*
X52220714Y-64871207D02*
X52185000Y-64799779D01*
X52185000Y-64799779D02*
X52149286Y-64764064D01*
X52149286Y-64764064D02*
X52077857Y-64728350D01*
X52077857Y-64728350D02*
X51935000Y-64692636D01*
X51935000Y-64692636D02*
X51863571Y-64656921D01*
X51863571Y-64656921D02*
X51827857Y-64621207D01*
X51827857Y-64621207D02*
X51792143Y-64549779D01*
X51792143Y-64549779D02*
X51792143Y-64478350D01*
X51792143Y-64478350D02*
X51827857Y-64406921D01*
X51827857Y-64406921D02*
X51863571Y-64371207D01*
X51863571Y-64371207D02*
X51935000Y-64335493D01*
X51935000Y-64335493D02*
X52113571Y-64335493D01*
X52113571Y-64335493D02*
X52220714Y-64371207D01*
X52542143Y-65085493D02*
X52542143Y-64335493D01*
X52542143Y-64335493D02*
X52827857Y-64335493D01*
X52827857Y-64335493D02*
X52899286Y-64371207D01*
X52899286Y-64371207D02*
X52935000Y-64406921D01*
X52935000Y-64406921D02*
X52970714Y-64478350D01*
X52970714Y-64478350D02*
X52970714Y-64585493D01*
X52970714Y-64585493D02*
X52935000Y-64656921D01*
X52935000Y-64656921D02*
X52899286Y-64692636D01*
X52899286Y-64692636D02*
X52827857Y-64728350D01*
X52827857Y-64728350D02*
X52542143Y-64728350D01*
X53292143Y-65085493D02*
X53292143Y-64335493D01*
X53292143Y-64335493D02*
X53470714Y-64335493D01*
X53470714Y-64335493D02*
X53577857Y-64371207D01*
X53577857Y-64371207D02*
X53649286Y-64442636D01*
X53649286Y-64442636D02*
X53685000Y-64514064D01*
X53685000Y-64514064D02*
X53720714Y-64656921D01*
X53720714Y-64656921D02*
X53720714Y-64764064D01*
X53720714Y-64764064D02*
X53685000Y-64906921D01*
X53685000Y-64906921D02*
X53649286Y-64978350D01*
X53649286Y-64978350D02*
X53577857Y-65049779D01*
X53577857Y-65049779D02*
X53470714Y-65085493D01*
X53470714Y-65085493D02*
X53292143Y-65085493D01*
X54577857Y-64299779D02*
X53935000Y-65264064D01*
X54792143Y-65049779D02*
X54899286Y-65085493D01*
X54899286Y-65085493D02*
X55077857Y-65085493D01*
X55077857Y-65085493D02*
X55149286Y-65049779D01*
X55149286Y-65049779D02*
X55185000Y-65014064D01*
X55185000Y-65014064D02*
X55220714Y-64942636D01*
X55220714Y-64942636D02*
X55220714Y-64871207D01*
X55220714Y-64871207D02*
X55185000Y-64799779D01*
X55185000Y-64799779D02*
X55149286Y-64764064D01*
X55149286Y-64764064D02*
X55077857Y-64728350D01*
X55077857Y-64728350D02*
X54935000Y-64692636D01*
X54935000Y-64692636D02*
X54863571Y-64656921D01*
X54863571Y-64656921D02*
X54827857Y-64621207D01*
X54827857Y-64621207D02*
X54792143Y-64549779D01*
X54792143Y-64549779D02*
X54792143Y-64478350D01*
X54792143Y-64478350D02*
X54827857Y-64406921D01*
X54827857Y-64406921D02*
X54863571Y-64371207D01*
X54863571Y-64371207D02*
X54935000Y-64335493D01*
X54935000Y-64335493D02*
X55113571Y-64335493D01*
X55113571Y-64335493D02*
X55220714Y-64371207D01*
X55542143Y-65085493D02*
X55542143Y-64335493D01*
X55542143Y-64335493D02*
X55720714Y-64335493D01*
X55720714Y-64335493D02*
X55827857Y-64371207D01*
X55827857Y-64371207D02*
X55899286Y-64442636D01*
X55899286Y-64442636D02*
X55935000Y-64514064D01*
X55935000Y-64514064D02*
X55970714Y-64656921D01*
X55970714Y-64656921D02*
X55970714Y-64764064D01*
X55970714Y-64764064D02*
X55935000Y-64906921D01*
X55935000Y-64906921D02*
X55899286Y-64978350D01*
X55899286Y-64978350D02*
X55827857Y-65049779D01*
X55827857Y-65049779D02*
X55720714Y-65085493D01*
X55720714Y-65085493D02*
X55542143Y-65085493D01*
X56256429Y-64871207D02*
X56613572Y-64871207D01*
X56185000Y-65085493D02*
X56435000Y-64335493D01*
X56435000Y-64335493D02*
X56685000Y-65085493D01*
X47309999Y-66292951D02*
X47309999Y-65542951D01*
X47309999Y-65542951D02*
X47595713Y-65542951D01*
X47595713Y-65542951D02*
X47667142Y-65578665D01*
X47667142Y-65578665D02*
X47702856Y-65614379D01*
X47702856Y-65614379D02*
X47738570Y-65685808D01*
X47738570Y-65685808D02*
X47738570Y-65792951D01*
X47738570Y-65792951D02*
X47702856Y-65864379D01*
X47702856Y-65864379D02*
X47667142Y-65900094D01*
X47667142Y-65900094D02*
X47595713Y-65935808D01*
X47595713Y-65935808D02*
X47309999Y-65935808D01*
X47988570Y-65542951D02*
X48167142Y-66292951D01*
X48167142Y-66292951D02*
X48309999Y-65757237D01*
X48309999Y-65757237D02*
X48452856Y-66292951D01*
X48452856Y-66292951D02*
X48631428Y-65542951D01*
X48917142Y-66292951D02*
X48917142Y-65542951D01*
X48917142Y-65542951D02*
X49167142Y-66078665D01*
X49167142Y-66078665D02*
X49417142Y-65542951D01*
X49417142Y-65542951D02*
X49417142Y-66292951D01*
X50345714Y-66007237D02*
X50917143Y-66007237D01*
X51845714Y-66292951D02*
X51845714Y-65542951D01*
X51845714Y-65542951D02*
X52131428Y-65542951D01*
X52131428Y-65542951D02*
X52202857Y-65578665D01*
X52202857Y-65578665D02*
X52238571Y-65614379D01*
X52238571Y-65614379D02*
X52274285Y-65685808D01*
X52274285Y-65685808D02*
X52274285Y-65792951D01*
X52274285Y-65792951D02*
X52238571Y-65864379D01*
X52238571Y-65864379D02*
X52202857Y-65900094D01*
X52202857Y-65900094D02*
X52131428Y-65935808D01*
X52131428Y-65935808D02*
X51845714Y-65935808D01*
X52524285Y-65542951D02*
X52702857Y-66292951D01*
X52702857Y-66292951D02*
X52845714Y-65757237D01*
X52845714Y-65757237D02*
X52988571Y-66292951D01*
X52988571Y-66292951D02*
X53167143Y-65542951D01*
X53452857Y-66292951D02*
X53452857Y-65542951D01*
X53452857Y-65542951D02*
X53702857Y-66078665D01*
X53702857Y-66078665D02*
X53952857Y-65542951D01*
X53952857Y-65542951D02*
X53952857Y-66292951D01*
X54845714Y-65507237D02*
X54202857Y-66471522D01*
X55060000Y-66257237D02*
X55167143Y-66292951D01*
X55167143Y-66292951D02*
X55345714Y-66292951D01*
X55345714Y-66292951D02*
X55417143Y-66257237D01*
X55417143Y-66257237D02*
X55452857Y-66221522D01*
X55452857Y-66221522D02*
X55488571Y-66150094D01*
X55488571Y-66150094D02*
X55488571Y-66078665D01*
X55488571Y-66078665D02*
X55452857Y-66007237D01*
X55452857Y-66007237D02*
X55417143Y-65971522D01*
X55417143Y-65971522D02*
X55345714Y-65935808D01*
X55345714Y-65935808D02*
X55202857Y-65900094D01*
X55202857Y-65900094D02*
X55131428Y-65864379D01*
X55131428Y-65864379D02*
X55095714Y-65828665D01*
X55095714Y-65828665D02*
X55060000Y-65757237D01*
X55060000Y-65757237D02*
X55060000Y-65685808D01*
X55060000Y-65685808D02*
X55095714Y-65614379D01*
X55095714Y-65614379D02*
X55131428Y-65578665D01*
X55131428Y-65578665D02*
X55202857Y-65542951D01*
X55202857Y-65542951D02*
X55381428Y-65542951D01*
X55381428Y-65542951D02*
X55488571Y-65578665D01*
X56238571Y-66221522D02*
X56202857Y-66257237D01*
X56202857Y-66257237D02*
X56095714Y-66292951D01*
X56095714Y-66292951D02*
X56024286Y-66292951D01*
X56024286Y-66292951D02*
X55917143Y-66257237D01*
X55917143Y-66257237D02*
X55845714Y-66185808D01*
X55845714Y-66185808D02*
X55810000Y-66114379D01*
X55810000Y-66114379D02*
X55774286Y-65971522D01*
X55774286Y-65971522D02*
X55774286Y-65864379D01*
X55774286Y-65864379D02*
X55810000Y-65721522D01*
X55810000Y-65721522D02*
X55845714Y-65650094D01*
X55845714Y-65650094D02*
X55917143Y-65578665D01*
X55917143Y-65578665D02*
X56024286Y-65542951D01*
X56024286Y-65542951D02*
X56095714Y-65542951D01*
X56095714Y-65542951D02*
X56202857Y-65578665D01*
X56202857Y-65578665D02*
X56238571Y-65614379D01*
X56917143Y-66292951D02*
X56560000Y-66292951D01*
X56560000Y-66292951D02*
X56560000Y-65542951D01*
D12*
X44014819Y-56806666D02*
X43538628Y-57139999D01*
X44014819Y-57378094D02*
X43014819Y-57378094D01*
X43014819Y-57378094D02*
X43014819Y-56997142D01*
X43014819Y-56997142D02*
X43062438Y-56901904D01*
X43062438Y-56901904D02*
X43110057Y-56854285D01*
X43110057Y-56854285D02*
X43205295Y-56806666D01*
X43205295Y-56806666D02*
X43348152Y-56806666D01*
X43348152Y-56806666D02*
X43443390Y-56854285D01*
X43443390Y-56854285D02*
X43491009Y-56901904D01*
X43491009Y-56901904D02*
X43538628Y-56997142D01*
X43538628Y-56997142D02*
X43538628Y-57378094D01*
X43110057Y-56425713D02*
X43062438Y-56378094D01*
X43062438Y-56378094D02*
X43014819Y-56282856D01*
X43014819Y-56282856D02*
X43014819Y-56044761D01*
X43014819Y-56044761D02*
X43062438Y-55949523D01*
X43062438Y-55949523D02*
X43110057Y-55901904D01*
X43110057Y-55901904D02*
X43205295Y-55854285D01*
X43205295Y-55854285D02*
X43300533Y-55854285D01*
X43300533Y-55854285D02*
X43443390Y-55901904D01*
X43443390Y-55901904D02*
X44014819Y-56473332D01*
X44014819Y-56473332D02*
X44014819Y-55854285D01*
X42820476Y-69774819D02*
X42820476Y-70489104D01*
X42820476Y-70489104D02*
X42772857Y-70631961D01*
X42772857Y-70631961D02*
X42677619Y-70727200D01*
X42677619Y-70727200D02*
X42534762Y-70774819D01*
X42534762Y-70774819D02*
X42439524Y-70774819D01*
X43820476Y-70774819D02*
X43249048Y-70774819D01*
X43534762Y-70774819D02*
X43534762Y-69774819D01*
X43534762Y-69774819D02*
X43439524Y-69917676D01*
X43439524Y-69917676D02*
X43344286Y-70012914D01*
X43344286Y-70012914D02*
X43249048Y-70060533D01*
X44439524Y-69774819D02*
X44534762Y-69774819D01*
X44534762Y-69774819D02*
X44630000Y-69822438D01*
X44630000Y-69822438D02*
X44677619Y-69870057D01*
X44677619Y-69870057D02*
X44725238Y-69965295D01*
X44725238Y-69965295D02*
X44772857Y-70155771D01*
X44772857Y-70155771D02*
X44772857Y-70393866D01*
X44772857Y-70393866D02*
X44725238Y-70584342D01*
X44725238Y-70584342D02*
X44677619Y-70679580D01*
X44677619Y-70679580D02*
X44630000Y-70727200D01*
X44630000Y-70727200D02*
X44534762Y-70774819D01*
X44534762Y-70774819D02*
X44439524Y-70774819D01*
X44439524Y-70774819D02*
X44344286Y-70727200D01*
X44344286Y-70727200D02*
X44296667Y-70679580D01*
X44296667Y-70679580D02*
X44249048Y-70584342D01*
X44249048Y-70584342D02*
X44201429Y-70393866D01*
X44201429Y-70393866D02*
X44201429Y-70155771D01*
X44201429Y-70155771D02*
X44249048Y-69965295D01*
X44249048Y-69965295D02*
X44296667Y-69870057D01*
X44296667Y-69870057D02*
X44344286Y-69822438D01*
X44344286Y-69822438D02*
X44439524Y-69774819D01*
X68694819Y-26173333D02*
X69409104Y-26173333D01*
X69409104Y-26173333D02*
X69551961Y-26220952D01*
X69551961Y-26220952D02*
X69647200Y-26316190D01*
X69647200Y-26316190D02*
X69694819Y-26459047D01*
X69694819Y-26459047D02*
X69694819Y-26554285D01*
X68694819Y-25220952D02*
X68694819Y-25697142D01*
X68694819Y-25697142D02*
X69171009Y-25744761D01*
X69171009Y-25744761D02*
X69123390Y-25697142D01*
X69123390Y-25697142D02*
X69075771Y-25601904D01*
X69075771Y-25601904D02*
X69075771Y-25363809D01*
X69075771Y-25363809D02*
X69123390Y-25268571D01*
X69123390Y-25268571D02*
X69171009Y-25220952D01*
X69171009Y-25220952D02*
X69266247Y-25173333D01*
X69266247Y-25173333D02*
X69504342Y-25173333D01*
X69504342Y-25173333D02*
X69599580Y-25220952D01*
X69599580Y-25220952D02*
X69647200Y-25268571D01*
X69647200Y-25268571D02*
X69694819Y-25363809D01*
X69694819Y-25363809D02*
X69694819Y-25601904D01*
X69694819Y-25601904D02*
X69647200Y-25697142D01*
X69647200Y-25697142D02*
X69599580Y-25744761D01*
X91926666Y-62794819D02*
X91926666Y-63509104D01*
X91926666Y-63509104D02*
X91879047Y-63651961D01*
X91879047Y-63651961D02*
X91783809Y-63747200D01*
X91783809Y-63747200D02*
X91640952Y-63794819D01*
X91640952Y-63794819D02*
X91545714Y-63794819D01*
X92307619Y-62794819D02*
X92926666Y-62794819D01*
X92926666Y-62794819D02*
X92593333Y-63175771D01*
X92593333Y-63175771D02*
X92736190Y-63175771D01*
X92736190Y-63175771D02*
X92831428Y-63223390D01*
X92831428Y-63223390D02*
X92879047Y-63271009D01*
X92879047Y-63271009D02*
X92926666Y-63366247D01*
X92926666Y-63366247D02*
X92926666Y-63604342D01*
X92926666Y-63604342D02*
X92879047Y-63699580D01*
X92879047Y-63699580D02*
X92831428Y-63747200D01*
X92831428Y-63747200D02*
X92736190Y-63794819D01*
X92736190Y-63794819D02*
X92450476Y-63794819D01*
X92450476Y-63794819D02*
X92355238Y-63747200D01*
X92355238Y-63747200D02*
X92307619Y-63699580D01*
X95174700Y-76111428D02*
X95174700Y-74968571D01*
X95746128Y-75539999D02*
X94603271Y-75539999D01*
X95174700Y-63111428D02*
X95174700Y-61968571D01*
X80826666Y-62894819D02*
X80826666Y-63609104D01*
X80826666Y-63609104D02*
X80779047Y-63751961D01*
X80779047Y-63751961D02*
X80683809Y-63847200D01*
X80683809Y-63847200D02*
X80540952Y-63894819D01*
X80540952Y-63894819D02*
X80445714Y-63894819D01*
X81731428Y-62894819D02*
X81540952Y-62894819D01*
X81540952Y-62894819D02*
X81445714Y-62942438D01*
X81445714Y-62942438D02*
X81398095Y-62990057D01*
X81398095Y-62990057D02*
X81302857Y-63132914D01*
X81302857Y-63132914D02*
X81255238Y-63323390D01*
X81255238Y-63323390D02*
X81255238Y-63704342D01*
X81255238Y-63704342D02*
X81302857Y-63799580D01*
X81302857Y-63799580D02*
X81350476Y-63847200D01*
X81350476Y-63847200D02*
X81445714Y-63894819D01*
X81445714Y-63894819D02*
X81636190Y-63894819D01*
X81636190Y-63894819D02*
X81731428Y-63847200D01*
X81731428Y-63847200D02*
X81779047Y-63799580D01*
X81779047Y-63799580D02*
X81826666Y-63704342D01*
X81826666Y-63704342D02*
X81826666Y-63466247D01*
X81826666Y-63466247D02*
X81779047Y-63371009D01*
X81779047Y-63371009D02*
X81731428Y-63323390D01*
X81731428Y-63323390D02*
X81636190Y-63275771D01*
X81636190Y-63275771D02*
X81445714Y-63275771D01*
X81445714Y-63275771D02*
X81350476Y-63323390D01*
X81350476Y-63323390D02*
X81302857Y-63371009D01*
X81302857Y-63371009D02*
X81255238Y-63466247D01*
X36764819Y-77006666D02*
X36288628Y-77339999D01*
X36764819Y-77578094D02*
X35764819Y-77578094D01*
X35764819Y-77578094D02*
X35764819Y-77197142D01*
X35764819Y-77197142D02*
X35812438Y-77101904D01*
X35812438Y-77101904D02*
X35860057Y-77054285D01*
X35860057Y-77054285D02*
X35955295Y-77006666D01*
X35955295Y-77006666D02*
X36098152Y-77006666D01*
X36098152Y-77006666D02*
X36193390Y-77054285D01*
X36193390Y-77054285D02*
X36241009Y-77101904D01*
X36241009Y-77101904D02*
X36288628Y-77197142D01*
X36288628Y-77197142D02*
X36288628Y-77578094D01*
X35764819Y-76149523D02*
X35764819Y-76339999D01*
X35764819Y-76339999D02*
X35812438Y-76435237D01*
X35812438Y-76435237D02*
X35860057Y-76482856D01*
X35860057Y-76482856D02*
X36002914Y-76578094D01*
X36002914Y-76578094D02*
X36193390Y-76625713D01*
X36193390Y-76625713D02*
X36574342Y-76625713D01*
X36574342Y-76625713D02*
X36669580Y-76578094D01*
X36669580Y-76578094D02*
X36717200Y-76530475D01*
X36717200Y-76530475D02*
X36764819Y-76435237D01*
X36764819Y-76435237D02*
X36764819Y-76244761D01*
X36764819Y-76244761D02*
X36717200Y-76149523D01*
X36717200Y-76149523D02*
X36669580Y-76101904D01*
X36669580Y-76101904D02*
X36574342Y-76054285D01*
X36574342Y-76054285D02*
X36336247Y-76054285D01*
X36336247Y-76054285D02*
X36241009Y-76101904D01*
X36241009Y-76101904D02*
X36193390Y-76149523D01*
X36193390Y-76149523D02*
X36145771Y-76244761D01*
X36145771Y-76244761D02*
X36145771Y-76435237D01*
X36145771Y-76435237D02*
X36193390Y-76530475D01*
X36193390Y-76530475D02*
X36241009Y-76578094D01*
X36241009Y-76578094D02*
X36336247Y-76625713D01*
X50626666Y-71694819D02*
X50626666Y-72409104D01*
X50626666Y-72409104D02*
X50579047Y-72551961D01*
X50579047Y-72551961D02*
X50483809Y-72647200D01*
X50483809Y-72647200D02*
X50340952Y-72694819D01*
X50340952Y-72694819D02*
X50245714Y-72694819D01*
X51245714Y-72123390D02*
X51150476Y-72075771D01*
X51150476Y-72075771D02*
X51102857Y-72028152D01*
X51102857Y-72028152D02*
X51055238Y-71932914D01*
X51055238Y-71932914D02*
X51055238Y-71885295D01*
X51055238Y-71885295D02*
X51102857Y-71790057D01*
X51102857Y-71790057D02*
X51150476Y-71742438D01*
X51150476Y-71742438D02*
X51245714Y-71694819D01*
X51245714Y-71694819D02*
X51436190Y-71694819D01*
X51436190Y-71694819D02*
X51531428Y-71742438D01*
X51531428Y-71742438D02*
X51579047Y-71790057D01*
X51579047Y-71790057D02*
X51626666Y-71885295D01*
X51626666Y-71885295D02*
X51626666Y-71932914D01*
X51626666Y-71932914D02*
X51579047Y-72028152D01*
X51579047Y-72028152D02*
X51531428Y-72075771D01*
X51531428Y-72075771D02*
X51436190Y-72123390D01*
X51436190Y-72123390D02*
X51245714Y-72123390D01*
X51245714Y-72123390D02*
X51150476Y-72171009D01*
X51150476Y-72171009D02*
X51102857Y-72218628D01*
X51102857Y-72218628D02*
X51055238Y-72313866D01*
X51055238Y-72313866D02*
X51055238Y-72504342D01*
X51055238Y-72504342D02*
X51102857Y-72599580D01*
X51102857Y-72599580D02*
X51150476Y-72647200D01*
X51150476Y-72647200D02*
X51245714Y-72694819D01*
X51245714Y-72694819D02*
X51436190Y-72694819D01*
X51436190Y-72694819D02*
X51531428Y-72647200D01*
X51531428Y-72647200D02*
X51579047Y-72599580D01*
X51579047Y-72599580D02*
X51626666Y-72504342D01*
X51626666Y-72504342D02*
X51626666Y-72313866D01*
X51626666Y-72313866D02*
X51579047Y-72218628D01*
X51579047Y-72218628D02*
X51531428Y-72171009D01*
X51531428Y-72171009D02*
X51436190Y-72123390D01*
X71166666Y-29094819D02*
X71166666Y-29809104D01*
X71166666Y-29809104D02*
X71119047Y-29951961D01*
X71119047Y-29951961D02*
X71023809Y-30047200D01*
X71023809Y-30047200D02*
X70880952Y-30094819D01*
X70880952Y-30094819D02*
X70785714Y-30094819D01*
X71595238Y-29190057D02*
X71642857Y-29142438D01*
X71642857Y-29142438D02*
X71738095Y-29094819D01*
X71738095Y-29094819D02*
X71976190Y-29094819D01*
X71976190Y-29094819D02*
X72071428Y-29142438D01*
X72071428Y-29142438D02*
X72119047Y-29190057D01*
X72119047Y-29190057D02*
X72166666Y-29285295D01*
X72166666Y-29285295D02*
X72166666Y-29380533D01*
X72166666Y-29380533D02*
X72119047Y-29523390D01*
X72119047Y-29523390D02*
X71547619Y-30094819D01*
X71547619Y-30094819D02*
X72166666Y-30094819D01*
X58486666Y-29094819D02*
X58486666Y-29809104D01*
X58486666Y-29809104D02*
X58439047Y-29951961D01*
X58439047Y-29951961D02*
X58343809Y-30047200D01*
X58343809Y-30047200D02*
X58200952Y-30094819D01*
X58200952Y-30094819D02*
X58105714Y-30094819D01*
X59486666Y-30094819D02*
X58915238Y-30094819D01*
X59200952Y-30094819D02*
X59200952Y-29094819D01*
X59200952Y-29094819D02*
X59105714Y-29237676D01*
X59105714Y-29237676D02*
X59010476Y-29332914D01*
X59010476Y-29332914D02*
X58915238Y-29380533D01*
X36814819Y-73778094D02*
X35814819Y-73778094D01*
X35814819Y-73778094D02*
X35814819Y-73539999D01*
X35814819Y-73539999D02*
X35862438Y-73397142D01*
X35862438Y-73397142D02*
X35957676Y-73301904D01*
X35957676Y-73301904D02*
X36052914Y-73254285D01*
X36052914Y-73254285D02*
X36243390Y-73206666D01*
X36243390Y-73206666D02*
X36386247Y-73206666D01*
X36386247Y-73206666D02*
X36576723Y-73254285D01*
X36576723Y-73254285D02*
X36671961Y-73301904D01*
X36671961Y-73301904D02*
X36767200Y-73397142D01*
X36767200Y-73397142D02*
X36814819Y-73539999D01*
X36814819Y-73539999D02*
X36814819Y-73778094D01*
X36148152Y-72349523D02*
X36814819Y-72349523D01*
X35767200Y-72587618D02*
X36481485Y-72825713D01*
X36481485Y-72825713D02*
X36481485Y-72206666D01*
X37550476Y-69774819D02*
X37550476Y-70489104D01*
X37550476Y-70489104D02*
X37502857Y-70631961D01*
X37502857Y-70631961D02*
X37407619Y-70727200D01*
X37407619Y-70727200D02*
X37264762Y-70774819D01*
X37264762Y-70774819D02*
X37169524Y-70774819D01*
X38550476Y-70774819D02*
X37979048Y-70774819D01*
X38264762Y-70774819D02*
X38264762Y-69774819D01*
X38264762Y-69774819D02*
X38169524Y-69917676D01*
X38169524Y-69917676D02*
X38074286Y-70012914D01*
X38074286Y-70012914D02*
X37979048Y-70060533D01*
X39502857Y-70774819D02*
X38931429Y-70774819D01*
X39217143Y-70774819D02*
X39217143Y-69774819D01*
X39217143Y-69774819D02*
X39121905Y-69917676D01*
X39121905Y-69917676D02*
X39026667Y-70012914D01*
X39026667Y-70012914D02*
X38931429Y-70060533D01*
X36493333Y-53794819D02*
X36160000Y-53318628D01*
X35921905Y-53794819D02*
X35921905Y-52794819D01*
X35921905Y-52794819D02*
X36302857Y-52794819D01*
X36302857Y-52794819D02*
X36398095Y-52842438D01*
X36398095Y-52842438D02*
X36445714Y-52890057D01*
X36445714Y-52890057D02*
X36493333Y-52985295D01*
X36493333Y-52985295D02*
X36493333Y-53128152D01*
X36493333Y-53128152D02*
X36445714Y-53223390D01*
X36445714Y-53223390D02*
X36398095Y-53271009D01*
X36398095Y-53271009D02*
X36302857Y-53318628D01*
X36302857Y-53318628D02*
X35921905Y-53318628D01*
X37350476Y-53128152D02*
X37350476Y-53794819D01*
X37112381Y-52747200D02*
X36874286Y-53461485D01*
X36874286Y-53461485D02*
X37493333Y-53461485D01*
X87319580Y-49706666D02*
X87367200Y-49754285D01*
X87367200Y-49754285D02*
X87414819Y-49897142D01*
X87414819Y-49897142D02*
X87414819Y-49992380D01*
X87414819Y-49992380D02*
X87367200Y-50135237D01*
X87367200Y-50135237D02*
X87271961Y-50230475D01*
X87271961Y-50230475D02*
X87176723Y-50278094D01*
X87176723Y-50278094D02*
X86986247Y-50325713D01*
X86986247Y-50325713D02*
X86843390Y-50325713D01*
X86843390Y-50325713D02*
X86652914Y-50278094D01*
X86652914Y-50278094D02*
X86557676Y-50230475D01*
X86557676Y-50230475D02*
X86462438Y-50135237D01*
X86462438Y-50135237D02*
X86414819Y-49992380D01*
X86414819Y-49992380D02*
X86414819Y-49897142D01*
X86414819Y-49897142D02*
X86462438Y-49754285D01*
X86462438Y-49754285D02*
X86510057Y-49706666D01*
X86510057Y-49325713D02*
X86462438Y-49278094D01*
X86462438Y-49278094D02*
X86414819Y-49182856D01*
X86414819Y-49182856D02*
X86414819Y-48944761D01*
X86414819Y-48944761D02*
X86462438Y-48849523D01*
X86462438Y-48849523D02*
X86510057Y-48801904D01*
X86510057Y-48801904D02*
X86605295Y-48754285D01*
X86605295Y-48754285D02*
X86700533Y-48754285D01*
X86700533Y-48754285D02*
X86843390Y-48801904D01*
X86843390Y-48801904D02*
X87414819Y-49373332D01*
X87414819Y-49373332D02*
X87414819Y-48754285D01*
X65426666Y-64174819D02*
X65426666Y-64889104D01*
X65426666Y-64889104D02*
X65379047Y-65031961D01*
X65379047Y-65031961D02*
X65283809Y-65127200D01*
X65283809Y-65127200D02*
X65140952Y-65174819D01*
X65140952Y-65174819D02*
X65045714Y-65174819D01*
X65807619Y-64174819D02*
X66474285Y-64174819D01*
X66474285Y-64174819D02*
X66045714Y-65174819D01*
X33921905Y-53794819D02*
X33921905Y-52794819D01*
X33921905Y-52794819D02*
X34160000Y-52794819D01*
X34160000Y-52794819D02*
X34302857Y-52842438D01*
X34302857Y-52842438D02*
X34398095Y-52937676D01*
X34398095Y-52937676D02*
X34445714Y-53032914D01*
X34445714Y-53032914D02*
X34493333Y-53223390D01*
X34493333Y-53223390D02*
X34493333Y-53366247D01*
X34493333Y-53366247D02*
X34445714Y-53556723D01*
X34445714Y-53556723D02*
X34398095Y-53651961D01*
X34398095Y-53651961D02*
X34302857Y-53747200D01*
X34302857Y-53747200D02*
X34160000Y-53794819D01*
X34160000Y-53794819D02*
X33921905Y-53794819D01*
X35445714Y-53794819D02*
X34874286Y-53794819D01*
X35160000Y-53794819D02*
X35160000Y-52794819D01*
X35160000Y-52794819D02*
X35064762Y-52937676D01*
X35064762Y-52937676D02*
X34969524Y-53032914D01*
X34969524Y-53032914D02*
X34874286Y-53080533D01*
X38814819Y-57506666D02*
X38338628Y-57839999D01*
X38814819Y-58078094D02*
X37814819Y-58078094D01*
X37814819Y-58078094D02*
X37814819Y-57697142D01*
X37814819Y-57697142D02*
X37862438Y-57601904D01*
X37862438Y-57601904D02*
X37910057Y-57554285D01*
X37910057Y-57554285D02*
X38005295Y-57506666D01*
X38005295Y-57506666D02*
X38148152Y-57506666D01*
X38148152Y-57506666D02*
X38243390Y-57554285D01*
X38243390Y-57554285D02*
X38291009Y-57601904D01*
X38291009Y-57601904D02*
X38338628Y-57697142D01*
X38338628Y-57697142D02*
X38338628Y-58078094D01*
X38814819Y-56554285D02*
X38814819Y-57125713D01*
X38814819Y-56839999D02*
X37814819Y-56839999D01*
X37814819Y-56839999D02*
X37957676Y-56935237D01*
X37957676Y-56935237D02*
X38052914Y-57030475D01*
X38052914Y-57030475D02*
X38100533Y-57125713D01*
X36126666Y-40894819D02*
X36126666Y-41609104D01*
X36126666Y-41609104D02*
X36079047Y-41751961D01*
X36079047Y-41751961D02*
X35983809Y-41847200D01*
X35983809Y-41847200D02*
X35840952Y-41894819D01*
X35840952Y-41894819D02*
X35745714Y-41894819D01*
X36650476Y-41894819D02*
X36840952Y-41894819D01*
X36840952Y-41894819D02*
X36936190Y-41847200D01*
X36936190Y-41847200D02*
X36983809Y-41799580D01*
X36983809Y-41799580D02*
X37079047Y-41656723D01*
X37079047Y-41656723D02*
X37126666Y-41466247D01*
X37126666Y-41466247D02*
X37126666Y-41085295D01*
X37126666Y-41085295D02*
X37079047Y-40990057D01*
X37079047Y-40990057D02*
X37031428Y-40942438D01*
X37031428Y-40942438D02*
X36936190Y-40894819D01*
X36936190Y-40894819D02*
X36745714Y-40894819D01*
X36745714Y-40894819D02*
X36650476Y-40942438D01*
X36650476Y-40942438D02*
X36602857Y-40990057D01*
X36602857Y-40990057D02*
X36555238Y-41085295D01*
X36555238Y-41085295D02*
X36555238Y-41323390D01*
X36555238Y-41323390D02*
X36602857Y-41418628D01*
X36602857Y-41418628D02*
X36650476Y-41466247D01*
X36650476Y-41466247D02*
X36745714Y-41513866D01*
X36745714Y-41513866D02*
X36936190Y-41513866D01*
X36936190Y-41513866D02*
X37031428Y-41466247D01*
X37031428Y-41466247D02*
X37079047Y-41418628D01*
X37079047Y-41418628D02*
X37126666Y-41323390D01*
X42614819Y-29006666D02*
X42138628Y-29339999D01*
X42614819Y-29578094D02*
X41614819Y-29578094D01*
X41614819Y-29578094D02*
X41614819Y-29197142D01*
X41614819Y-29197142D02*
X41662438Y-29101904D01*
X41662438Y-29101904D02*
X41710057Y-29054285D01*
X41710057Y-29054285D02*
X41805295Y-29006666D01*
X41805295Y-29006666D02*
X41948152Y-29006666D01*
X41948152Y-29006666D02*
X42043390Y-29054285D01*
X42043390Y-29054285D02*
X42091009Y-29101904D01*
X42091009Y-29101904D02*
X42138628Y-29197142D01*
X42138628Y-29197142D02*
X42138628Y-29578094D01*
X41614819Y-28101904D02*
X41614819Y-28578094D01*
X41614819Y-28578094D02*
X42091009Y-28625713D01*
X42091009Y-28625713D02*
X42043390Y-28578094D01*
X42043390Y-28578094D02*
X41995771Y-28482856D01*
X41995771Y-28482856D02*
X41995771Y-28244761D01*
X41995771Y-28244761D02*
X42043390Y-28149523D01*
X42043390Y-28149523D02*
X42091009Y-28101904D01*
X42091009Y-28101904D02*
X42186247Y-28054285D01*
X42186247Y-28054285D02*
X42424342Y-28054285D01*
X42424342Y-28054285D02*
X42519580Y-28101904D01*
X42519580Y-28101904D02*
X42567200Y-28149523D01*
X42567200Y-28149523D02*
X42614819Y-28244761D01*
X42614819Y-28244761D02*
X42614819Y-28482856D01*
X42614819Y-28482856D02*
X42567200Y-28578094D01*
X42567200Y-28578094D02*
X42519580Y-28625713D01*
X38074819Y-26173333D02*
X38789104Y-26173333D01*
X38789104Y-26173333D02*
X38931961Y-26220952D01*
X38931961Y-26220952D02*
X39027200Y-26316190D01*
X39027200Y-26316190D02*
X39074819Y-26459047D01*
X39074819Y-26459047D02*
X39074819Y-26554285D01*
X38408152Y-25268571D02*
X39074819Y-25268571D01*
X38027200Y-25506666D02*
X38741485Y-25744761D01*
X38741485Y-25744761D02*
X38741485Y-25125714D01*
X37314819Y-24006666D02*
X36838628Y-24339999D01*
X37314819Y-24578094D02*
X36314819Y-24578094D01*
X36314819Y-24578094D02*
X36314819Y-24197142D01*
X36314819Y-24197142D02*
X36362438Y-24101904D01*
X36362438Y-24101904D02*
X36410057Y-24054285D01*
X36410057Y-24054285D02*
X36505295Y-24006666D01*
X36505295Y-24006666D02*
X36648152Y-24006666D01*
X36648152Y-24006666D02*
X36743390Y-24054285D01*
X36743390Y-24054285D02*
X36791009Y-24101904D01*
X36791009Y-24101904D02*
X36838628Y-24197142D01*
X36838628Y-24197142D02*
X36838628Y-24578094D01*
X36314819Y-23673332D02*
X36314819Y-23054285D01*
X36314819Y-23054285D02*
X36695771Y-23387618D01*
X36695771Y-23387618D02*
X36695771Y-23244761D01*
X36695771Y-23244761D02*
X36743390Y-23149523D01*
X36743390Y-23149523D02*
X36791009Y-23101904D01*
X36791009Y-23101904D02*
X36886247Y-23054285D01*
X36886247Y-23054285D02*
X37124342Y-23054285D01*
X37124342Y-23054285D02*
X37219580Y-23101904D01*
X37219580Y-23101904D02*
X37267200Y-23149523D01*
X37267200Y-23149523D02*
X37314819Y-23244761D01*
X37314819Y-23244761D02*
X37314819Y-23530475D01*
X37314819Y-23530475D02*
X37267200Y-23625713D01*
X37267200Y-23625713D02*
X37219580Y-23673332D01*
X40180833Y-29967257D02*
X40133214Y-30014877D01*
X40133214Y-30014877D02*
X39990357Y-30062496D01*
X39990357Y-30062496D02*
X39895119Y-30062496D01*
X39895119Y-30062496D02*
X39752262Y-30014877D01*
X39752262Y-30014877D02*
X39657024Y-29919638D01*
X39657024Y-29919638D02*
X39609405Y-29824400D01*
X39609405Y-29824400D02*
X39561786Y-29633924D01*
X39561786Y-29633924D02*
X39561786Y-29491067D01*
X39561786Y-29491067D02*
X39609405Y-29300591D01*
X39609405Y-29300591D02*
X39657024Y-29205353D01*
X39657024Y-29205353D02*
X39752262Y-29110115D01*
X39752262Y-29110115D02*
X39895119Y-29062496D01*
X39895119Y-29062496D02*
X39990357Y-29062496D01*
X39990357Y-29062496D02*
X40133214Y-29110115D01*
X40133214Y-29110115D02*
X40180833Y-29157734D01*
X41085595Y-29062496D02*
X40609405Y-29062496D01*
X40609405Y-29062496D02*
X40561786Y-29538686D01*
X40561786Y-29538686D02*
X40609405Y-29491067D01*
X40609405Y-29491067D02*
X40704643Y-29443448D01*
X40704643Y-29443448D02*
X40942738Y-29443448D01*
X40942738Y-29443448D02*
X41037976Y-29491067D01*
X41037976Y-29491067D02*
X41085595Y-29538686D01*
X41085595Y-29538686D02*
X41133214Y-29633924D01*
X41133214Y-29633924D02*
X41133214Y-29872019D01*
X41133214Y-29872019D02*
X41085595Y-29967257D01*
X41085595Y-29967257D02*
X41037976Y-30014877D01*
X41037976Y-30014877D02*
X40942738Y-30062496D01*
X40942738Y-30062496D02*
X40704643Y-30062496D01*
X40704643Y-30062496D02*
X40609405Y-30014877D01*
X40609405Y-30014877D02*
X40561786Y-29967257D01*
X66493333Y-28199580D02*
X66445714Y-28247200D01*
X66445714Y-28247200D02*
X66302857Y-28294819D01*
X66302857Y-28294819D02*
X66207619Y-28294819D01*
X66207619Y-28294819D02*
X66064762Y-28247200D01*
X66064762Y-28247200D02*
X65969524Y-28151961D01*
X65969524Y-28151961D02*
X65921905Y-28056723D01*
X65921905Y-28056723D02*
X65874286Y-27866247D01*
X65874286Y-27866247D02*
X65874286Y-27723390D01*
X65874286Y-27723390D02*
X65921905Y-27532914D01*
X65921905Y-27532914D02*
X65969524Y-27437676D01*
X65969524Y-27437676D02*
X66064762Y-27342438D01*
X66064762Y-27342438D02*
X66207619Y-27294819D01*
X66207619Y-27294819D02*
X66302857Y-27294819D01*
X66302857Y-27294819D02*
X66445714Y-27342438D01*
X66445714Y-27342438D02*
X66493333Y-27390057D01*
X67350476Y-27628152D02*
X67350476Y-28294819D01*
X67112381Y-27247200D02*
X66874286Y-27961485D01*
X66874286Y-27961485D02*
X67493333Y-27961485D01*
X34221905Y-31994819D02*
X34221905Y-30994819D01*
X34221905Y-30994819D02*
X34460000Y-30994819D01*
X34460000Y-30994819D02*
X34602857Y-31042438D01*
X34602857Y-31042438D02*
X34698095Y-31137676D01*
X34698095Y-31137676D02*
X34745714Y-31232914D01*
X34745714Y-31232914D02*
X34793333Y-31423390D01*
X34793333Y-31423390D02*
X34793333Y-31566247D01*
X34793333Y-31566247D02*
X34745714Y-31756723D01*
X34745714Y-31756723D02*
X34698095Y-31851961D01*
X34698095Y-31851961D02*
X34602857Y-31947200D01*
X34602857Y-31947200D02*
X34460000Y-31994819D01*
X34460000Y-31994819D02*
X34221905Y-31994819D01*
X35174286Y-31090057D02*
X35221905Y-31042438D01*
X35221905Y-31042438D02*
X35317143Y-30994819D01*
X35317143Y-30994819D02*
X35555238Y-30994819D01*
X35555238Y-30994819D02*
X35650476Y-31042438D01*
X35650476Y-31042438D02*
X35698095Y-31090057D01*
X35698095Y-31090057D02*
X35745714Y-31185295D01*
X35745714Y-31185295D02*
X35745714Y-31280533D01*
X35745714Y-31280533D02*
X35698095Y-31423390D01*
X35698095Y-31423390D02*
X35126667Y-31994819D01*
X35126667Y-31994819D02*
X35745714Y-31994819D01*
X87269580Y-38506666D02*
X87317200Y-38554285D01*
X87317200Y-38554285D02*
X87364819Y-38697142D01*
X87364819Y-38697142D02*
X87364819Y-38792380D01*
X87364819Y-38792380D02*
X87317200Y-38935237D01*
X87317200Y-38935237D02*
X87221961Y-39030475D01*
X87221961Y-39030475D02*
X87126723Y-39078094D01*
X87126723Y-39078094D02*
X86936247Y-39125713D01*
X86936247Y-39125713D02*
X86793390Y-39125713D01*
X86793390Y-39125713D02*
X86602914Y-39078094D01*
X86602914Y-39078094D02*
X86507676Y-39030475D01*
X86507676Y-39030475D02*
X86412438Y-38935237D01*
X86412438Y-38935237D02*
X86364819Y-38792380D01*
X86364819Y-38792380D02*
X86364819Y-38697142D01*
X86364819Y-38697142D02*
X86412438Y-38554285D01*
X86412438Y-38554285D02*
X86460057Y-38506666D01*
X87364819Y-37554285D02*
X87364819Y-38125713D01*
X87364819Y-37839999D02*
X86364819Y-37839999D01*
X86364819Y-37839999D02*
X86507676Y-37935237D01*
X86507676Y-37935237D02*
X86602914Y-38030475D01*
X86602914Y-38030475D02*
X86650533Y-38125713D01*
X68493333Y-28199580D02*
X68445714Y-28247200D01*
X68445714Y-28247200D02*
X68302857Y-28294819D01*
X68302857Y-28294819D02*
X68207619Y-28294819D01*
X68207619Y-28294819D02*
X68064762Y-28247200D01*
X68064762Y-28247200D02*
X67969524Y-28151961D01*
X67969524Y-28151961D02*
X67921905Y-28056723D01*
X67921905Y-28056723D02*
X67874286Y-27866247D01*
X67874286Y-27866247D02*
X67874286Y-27723390D01*
X67874286Y-27723390D02*
X67921905Y-27532914D01*
X67921905Y-27532914D02*
X67969524Y-27437676D01*
X67969524Y-27437676D02*
X68064762Y-27342438D01*
X68064762Y-27342438D02*
X68207619Y-27294819D01*
X68207619Y-27294819D02*
X68302857Y-27294819D01*
X68302857Y-27294819D02*
X68445714Y-27342438D01*
X68445714Y-27342438D02*
X68493333Y-27390057D01*
X68826667Y-27294819D02*
X69445714Y-27294819D01*
X69445714Y-27294819D02*
X69112381Y-27675771D01*
X69112381Y-27675771D02*
X69255238Y-27675771D01*
X69255238Y-27675771D02*
X69350476Y-27723390D01*
X69350476Y-27723390D02*
X69398095Y-27771009D01*
X69398095Y-27771009D02*
X69445714Y-27866247D01*
X69445714Y-27866247D02*
X69445714Y-28104342D01*
X69445714Y-28104342D02*
X69398095Y-28199580D01*
X69398095Y-28199580D02*
X69350476Y-28247200D01*
X69350476Y-28247200D02*
X69255238Y-28294819D01*
X69255238Y-28294819D02*
X68969524Y-28294819D01*
X68969524Y-28294819D02*
X68874286Y-28247200D01*
X68874286Y-28247200D02*
X68826667Y-28199580D01*
X50121905Y-30794819D02*
X50121905Y-29794819D01*
X50121905Y-29794819D02*
X50360000Y-29794819D01*
X50360000Y-29794819D02*
X50502857Y-29842438D01*
X50502857Y-29842438D02*
X50598095Y-29937676D01*
X50598095Y-29937676D02*
X50645714Y-30032914D01*
X50645714Y-30032914D02*
X50693333Y-30223390D01*
X50693333Y-30223390D02*
X50693333Y-30366247D01*
X50693333Y-30366247D02*
X50645714Y-30556723D01*
X50645714Y-30556723D02*
X50598095Y-30651961D01*
X50598095Y-30651961D02*
X50502857Y-30747200D01*
X50502857Y-30747200D02*
X50360000Y-30794819D01*
X50360000Y-30794819D02*
X50121905Y-30794819D01*
X51026667Y-29794819D02*
X51645714Y-29794819D01*
X51645714Y-29794819D02*
X51312381Y-30175771D01*
X51312381Y-30175771D02*
X51455238Y-30175771D01*
X51455238Y-30175771D02*
X51550476Y-30223390D01*
X51550476Y-30223390D02*
X51598095Y-30271009D01*
X51598095Y-30271009D02*
X51645714Y-30366247D01*
X51645714Y-30366247D02*
X51645714Y-30604342D01*
X51645714Y-30604342D02*
X51598095Y-30699580D01*
X51598095Y-30699580D02*
X51550476Y-30747200D01*
X51550476Y-30747200D02*
X51455238Y-30794819D01*
X51455238Y-30794819D02*
X51169524Y-30794819D01*
X51169524Y-30794819D02*
X51074286Y-30747200D01*
X51074286Y-30747200D02*
X51026667Y-30699580D01*
D11*
X63798095Y-44497419D02*
X63798095Y-45306942D01*
X63798095Y-45306942D02*
X63845714Y-45402180D01*
X63845714Y-45402180D02*
X63893333Y-45449800D01*
X63893333Y-45449800D02*
X63988571Y-45497419D01*
X63988571Y-45497419D02*
X64179047Y-45497419D01*
X64179047Y-45497419D02*
X64274285Y-45449800D01*
X64274285Y-45449800D02*
X64321904Y-45402180D01*
X64321904Y-45402180D02*
X64369523Y-45306942D01*
X64369523Y-45306942D02*
X64369523Y-44497419D01*
X64798095Y-44592657D02*
X64845714Y-44545038D01*
X64845714Y-44545038D02*
X64940952Y-44497419D01*
X64940952Y-44497419D02*
X65179047Y-44497419D01*
X65179047Y-44497419D02*
X65274285Y-44545038D01*
X65274285Y-44545038D02*
X65321904Y-44592657D01*
X65321904Y-44592657D02*
X65369523Y-44687895D01*
X65369523Y-44687895D02*
X65369523Y-44783133D01*
X65369523Y-44783133D02*
X65321904Y-44925990D01*
X65321904Y-44925990D02*
X64750476Y-45497419D01*
X64750476Y-45497419D02*
X65369523Y-45497419D01*
D13*
%TO.C,R2*%
X42695000Y-56112936D02*
X42695000Y-56567064D01*
X41225000Y-56112936D02*
X41225000Y-56567064D01*
%TO.C,J10*%
X40980000Y-69320000D02*
X40980000Y-58940000D01*
X43630000Y-69320000D02*
X40980000Y-69320000D01*
X46280000Y-69320000D02*
X44900000Y-69320000D01*
X46280000Y-67940000D02*
X46280000Y-69320000D01*
X43630000Y-66670000D02*
X43630000Y-69320000D01*
X46280000Y-66670000D02*
X43630000Y-66670000D01*
X46280000Y-66670000D02*
X46280000Y-58940000D01*
X46280000Y-58940000D02*
X40980000Y-58940000D01*
%TO.C,J5*%
X95860000Y-27220000D02*
X95860000Y-24460000D01*
X72890000Y-27220000D02*
X95860000Y-27220000D01*
X72890000Y-27220000D02*
X72890000Y-24460000D01*
X72890000Y-24460000D02*
X95860000Y-24460000D01*
X71620000Y-27220000D02*
X70240000Y-27220000D01*
X70240000Y-27220000D02*
X70240000Y-25840000D01*
%TO.C,J3*%
X97770000Y-74250000D02*
X92350000Y-74250000D01*
X97770000Y-65530000D02*
X97770000Y-74250000D01*
X96470000Y-63830000D02*
X97770000Y-65530000D01*
X96470000Y-63830000D02*
X93650000Y-63830000D01*
X93650000Y-63830000D02*
X92350000Y-65530000D01*
X92350000Y-65530000D02*
X92350000Y-74250000D01*
%TO.C,J6*%
X88060000Y-64320000D02*
X87620000Y-63710000D01*
X88500000Y-63710000D01*
X88060000Y-64320000D01*
G36*
X88060000Y-64320000D02*
G01*
X87620000Y-63710000D01*
X88500000Y-63710000D01*
X88060000Y-64320000D01*
G37*
X90680000Y-74360000D02*
X80440000Y-74360000D01*
X90680000Y-71340000D02*
X80440000Y-71340000D01*
X90680000Y-66440000D02*
X80440000Y-66440000D01*
X90680000Y-64940000D02*
X80440000Y-64940000D01*
X90680000Y-64320000D02*
X90680000Y-74360000D01*
X88360000Y-64320000D02*
X90680000Y-64320000D01*
X80440000Y-74360000D02*
X80440000Y-64320000D01*
X80440000Y-64320000D02*
X87760000Y-64320000D01*
%TO.C,R6*%
X35395000Y-75612936D02*
X35395000Y-76067064D01*
X33925000Y-75612936D02*
X33925000Y-76067064D01*
%TO.C,J8*%
X37300000Y-71730000D02*
X37300000Y-72980000D01*
X37600000Y-73340000D02*
X38210000Y-73340000D01*
X37600000Y-74640000D02*
X38210000Y-74640000D01*
X38210000Y-72640000D02*
X38210000Y-76140000D01*
X38210000Y-76140000D02*
X49110000Y-76140000D01*
X38550000Y-71730000D02*
X37300000Y-71730000D01*
X39060000Y-71830000D02*
X39060000Y-72030000D01*
X39360000Y-71830000D02*
X39060000Y-71830000D01*
X39360000Y-71930000D02*
X39060000Y-71930000D01*
X39360000Y-72030000D02*
X39360000Y-71830000D01*
X40160000Y-72030000D02*
X40160000Y-72640000D01*
X40160000Y-72640000D02*
X38210000Y-72640000D01*
X40560000Y-75640000D02*
X40760000Y-75640000D01*
X40560000Y-76140000D02*
X40560000Y-75640000D01*
X40660000Y-76140000D02*
X40660000Y-75640000D01*
X40760000Y-75640000D02*
X40760000Y-76140000D01*
X42560000Y-75640000D02*
X42760000Y-75640000D01*
X42560000Y-76140000D02*
X42560000Y-75640000D01*
X42660000Y-76140000D02*
X42660000Y-75640000D01*
X42760000Y-75640000D02*
X42760000Y-76140000D01*
X44560000Y-75640000D02*
X44760000Y-75640000D01*
X44560000Y-76140000D02*
X44560000Y-75640000D01*
X44660000Y-76140000D02*
X44660000Y-75640000D01*
X44760000Y-75640000D02*
X44760000Y-76140000D01*
X46560000Y-75640000D02*
X46760000Y-75640000D01*
X46560000Y-76140000D02*
X46560000Y-75640000D01*
X46660000Y-76140000D02*
X46660000Y-75640000D01*
X46760000Y-75640000D02*
X46760000Y-76140000D01*
X47160000Y-72640000D02*
X47160000Y-72030000D01*
X49110000Y-72640000D02*
X47160000Y-72640000D01*
X49110000Y-76140000D02*
X49110000Y-72640000D01*
X49720000Y-73340000D02*
X49110000Y-73340000D01*
X49720000Y-74640000D02*
X49110000Y-74640000D01*
X37600000Y-72030000D02*
X49720000Y-72030000D01*
X49720000Y-76750000D01*
X37600000Y-76750000D01*
X37600000Y-72030000D01*
%TO.C,J2*%
X70120000Y-30640000D02*
X71500000Y-30640000D01*
X70120000Y-32020000D02*
X70120000Y-30640000D01*
X70120000Y-33290000D02*
X70120000Y-61340000D01*
X70120000Y-33290000D02*
X72880000Y-33290000D01*
X70120000Y-61340000D02*
X72880000Y-61340000D01*
X72880000Y-33290000D02*
X72880000Y-61340000D01*
%TO.C,J1*%
X57440000Y-30640000D02*
X58820000Y-30640000D01*
X57440000Y-32020000D02*
X57440000Y-30640000D01*
X57440000Y-33290000D02*
X57440000Y-61340000D01*
X57440000Y-33290000D02*
X60200000Y-33290000D01*
X57440000Y-61340000D02*
X60200000Y-61340000D01*
X60200000Y-33290000D02*
X60200000Y-61340000D01*
%TO.C,D4*%
X35620000Y-70255000D02*
X33700000Y-70255000D01*
X33700000Y-70255000D02*
X33700000Y-73115000D01*
X35620000Y-73115000D02*
X35620000Y-70255000D01*
%TO.C,J11*%
X39740000Y-58940000D02*
X36980000Y-58940000D01*
X39740000Y-66670000D02*
X39740000Y-58940000D01*
X39740000Y-66670000D02*
X36980000Y-66670000D01*
X36980000Y-66670000D02*
X36980000Y-58940000D01*
X39740000Y-67940000D02*
X39740000Y-69320000D01*
X39740000Y-69320000D02*
X38360000Y-69320000D01*
%TO.C,R4*%
X36025000Y-56067064D02*
X36025000Y-55612936D01*
X37495000Y-56067064D02*
X37495000Y-55612936D01*
%TO.C,C2*%
X91920000Y-50860000D02*
X88243000Y-50860000D01*
X91920000Y-50900000D02*
X88253000Y-50900000D01*
X91920000Y-50940000D02*
X88264000Y-50940000D01*
X91920000Y-50980000D02*
X88275000Y-50980000D01*
X91920000Y-51020000D02*
X88287000Y-51020000D01*
X91920000Y-51060000D02*
X88299000Y-51060000D01*
X91920000Y-51100000D02*
X88311000Y-51100000D01*
X91920000Y-51140000D02*
X88323000Y-51140000D01*
X91920000Y-51180000D02*
X88336000Y-51180000D01*
X91920000Y-51220000D02*
X88350000Y-51220000D01*
X91920000Y-51260000D02*
X88363000Y-51260000D01*
X91920000Y-51300000D02*
X88378000Y-51300000D01*
X91920000Y-51340000D02*
X88392000Y-51340000D01*
X91920000Y-51380000D02*
X88407000Y-51380000D01*
X91920000Y-51420000D02*
X88422000Y-51420000D01*
X91920000Y-51460000D02*
X88438000Y-51460000D01*
X91920000Y-51500000D02*
X88454000Y-51500000D01*
X91920000Y-51540000D02*
X88470000Y-51540000D01*
X91920000Y-51580000D02*
X88487000Y-51580000D01*
X91920000Y-51620000D02*
X88504000Y-51620000D01*
X91920000Y-51660000D02*
X88522000Y-51660000D01*
X91920000Y-51700000D02*
X88540000Y-51700000D01*
X91920000Y-51740000D02*
X88558000Y-51740000D01*
X91920000Y-51780000D02*
X88577000Y-51780000D01*
X91920000Y-51820000D02*
X88596000Y-51820000D01*
X91920000Y-51860000D02*
X88616000Y-51860000D01*
X91920000Y-51900000D02*
X88636000Y-51900000D01*
X91920000Y-51940000D02*
X88656000Y-51940000D01*
X91920000Y-51980000D02*
X88677000Y-51980000D01*
X91920000Y-52020000D02*
X88699000Y-52020000D01*
X91920000Y-52060000D02*
X88721000Y-52060000D01*
X91920000Y-52100000D02*
X88743000Y-52100000D01*
X91920000Y-52140000D02*
X88766000Y-52140000D01*
X91920000Y-52180000D02*
X88789000Y-52180000D01*
X91920000Y-52220000D02*
X88813000Y-52220000D01*
X91920000Y-52260000D02*
X88837000Y-52260000D01*
X91920000Y-52300000D02*
X88862000Y-52300000D01*
X91920000Y-52340000D02*
X88888000Y-52340000D01*
X91920000Y-52380000D02*
X88913000Y-52380000D01*
X91920000Y-52420000D02*
X88940000Y-52420000D01*
X91920000Y-52460000D02*
X88967000Y-52460000D01*
X91920000Y-52500000D02*
X88994000Y-52500000D01*
X91920000Y-52540000D02*
X89022000Y-52540000D01*
X91920000Y-52580000D02*
X89051000Y-52580000D01*
X91920000Y-52620000D02*
X89080000Y-52620000D01*
X91920000Y-52660000D02*
X89110000Y-52660000D01*
X91920000Y-52700000D02*
X89140000Y-52700000D01*
X91920000Y-52740000D02*
X89172000Y-52740000D01*
X91920000Y-52780000D02*
X89203000Y-52780000D01*
X91920000Y-52820000D02*
X89236000Y-52820000D01*
X91920000Y-52860000D02*
X89269000Y-52860000D01*
X91920000Y-52900000D02*
X89302000Y-52900000D01*
X91920000Y-52940000D02*
X89337000Y-52940000D01*
X91920000Y-52980000D02*
X89372000Y-52980000D01*
X91920000Y-53020000D02*
X89408000Y-53020000D01*
X91920000Y-53060000D02*
X89444000Y-53060000D01*
X91920000Y-53100000D02*
X89482000Y-53100000D01*
X91920000Y-53140000D02*
X89520000Y-53140000D01*
X91920000Y-53180000D02*
X89559000Y-53180000D01*
X91920000Y-53220000D02*
X89599000Y-53220000D01*
X91920000Y-53260000D02*
X89640000Y-53260000D01*
X91920000Y-53300000D02*
X89682000Y-53300000D01*
X93759000Y-54660000D02*
X92561000Y-54660000D01*
X94022000Y-54620000D02*
X92298000Y-54620000D01*
X94222000Y-54580000D02*
X92098000Y-54580000D01*
X94390000Y-54540000D02*
X91930000Y-54540000D01*
X94537000Y-54500000D02*
X91783000Y-54500000D01*
X94669000Y-54460000D02*
X91651000Y-54460000D01*
X94790000Y-54420000D02*
X91530000Y-54420000D01*
X94902000Y-54380000D02*
X91418000Y-54380000D01*
X95006000Y-54340000D02*
X91314000Y-54340000D01*
X95104000Y-54300000D02*
X91216000Y-54300000D01*
X95197000Y-54260000D02*
X91123000Y-54260000D01*
X95284000Y-54220000D02*
X91036000Y-54220000D01*
X95368000Y-54180000D02*
X90952000Y-54180000D01*
X95448000Y-54140000D02*
X90872000Y-54140000D01*
X95525000Y-54100000D02*
X90795000Y-54100000D01*
X95599000Y-54060000D02*
X90721000Y-54060000D01*
X95670000Y-54020000D02*
X90650000Y-54020000D01*
X95738000Y-53980000D02*
X90582000Y-53980000D01*
X95804000Y-53940000D02*
X90516000Y-53940000D01*
X95868000Y-53900000D02*
X90452000Y-53900000D01*
X95930000Y-53860000D02*
X90390000Y-53860000D01*
X95990000Y-53820000D02*
X90330000Y-53820000D01*
X96035000Y-44100354D02*
X96035000Y-45100354D01*
X96048000Y-53780000D02*
X90272000Y-53780000D01*
X96105000Y-53740000D02*
X90215000Y-53740000D01*
X96160000Y-53700000D02*
X90160000Y-53700000D01*
X96213000Y-53660000D02*
X90107000Y-53660000D01*
X96265000Y-53620000D02*
X90055000Y-53620000D01*
X96316000Y-53580000D02*
X90004000Y-53580000D01*
X96365000Y-53540000D02*
X89955000Y-53540000D01*
X96414000Y-53500000D02*
X89906000Y-53500000D01*
X96461000Y-53460000D02*
X89859000Y-53460000D01*
X96507000Y-53420000D02*
X89813000Y-53420000D01*
X96535000Y-44600354D02*
X95535000Y-44600354D01*
X96551000Y-53380000D02*
X89769000Y-53380000D01*
X96595000Y-53340000D02*
X89725000Y-53340000D01*
X96638000Y-53300000D02*
X94400000Y-53300000D01*
X96680000Y-53260000D02*
X94400000Y-53260000D01*
X96721000Y-53220000D02*
X94400000Y-53220000D01*
X96761000Y-53180000D02*
X94400000Y-53180000D01*
X96800000Y-53140000D02*
X94400000Y-53140000D01*
X96838000Y-53100000D02*
X94400000Y-53100000D01*
X96876000Y-53060000D02*
X94400000Y-53060000D01*
X96912000Y-53020000D02*
X94400000Y-53020000D01*
X96948000Y-52980000D02*
X94400000Y-52980000D01*
X96983000Y-52940000D02*
X94400000Y-52940000D01*
X97018000Y-52900000D02*
X94400000Y-52900000D01*
X97051000Y-52860000D02*
X94400000Y-52860000D01*
X97084000Y-52820000D02*
X94400000Y-52820000D01*
X97117000Y-52780000D02*
X94400000Y-52780000D01*
X97148000Y-52740000D02*
X94400000Y-52740000D01*
X97180000Y-52700000D02*
X94400000Y-52700000D01*
X97210000Y-52660000D02*
X94400000Y-52660000D01*
X97240000Y-52620000D02*
X94400000Y-52620000D01*
X97269000Y-52580000D02*
X94400000Y-52580000D01*
X97298000Y-52540000D02*
X94400000Y-52540000D01*
X97326000Y-52500000D02*
X94400000Y-52500000D01*
X97353000Y-52460000D02*
X94400000Y-52460000D01*
X97380000Y-52420000D02*
X94400000Y-52420000D01*
X97407000Y-52380000D02*
X94400000Y-52380000D01*
X97432000Y-52340000D02*
X94400000Y-52340000D01*
X97458000Y-52300000D02*
X94400000Y-52300000D01*
X97483000Y-52260000D02*
X94400000Y-52260000D01*
X97507000Y-52220000D02*
X94400000Y-52220000D01*
X97531000Y-52180000D02*
X94400000Y-52180000D01*
X97554000Y-52140000D02*
X94400000Y-52140000D01*
X97577000Y-52100000D02*
X94400000Y-52100000D01*
X97599000Y-52060000D02*
X94400000Y-52060000D01*
X97621000Y-52020000D02*
X94400000Y-52020000D01*
X97643000Y-51980000D02*
X94400000Y-51980000D01*
X97664000Y-51940000D02*
X94400000Y-51940000D01*
X97684000Y-51900000D02*
X94400000Y-51900000D01*
X97704000Y-51860000D02*
X94400000Y-51860000D01*
X97724000Y-51820000D02*
X94400000Y-51820000D01*
X97743000Y-51780000D02*
X94400000Y-51780000D01*
X97762000Y-51740000D02*
X94400000Y-51740000D01*
X97780000Y-51700000D02*
X94400000Y-51700000D01*
X97798000Y-51660000D02*
X94400000Y-51660000D01*
X97816000Y-51620000D02*
X94400000Y-51620000D01*
X97833000Y-51580000D02*
X94400000Y-51580000D01*
X97850000Y-51540000D02*
X94400000Y-51540000D01*
X97866000Y-51500000D02*
X94400000Y-51500000D01*
X97882000Y-51460000D02*
X94400000Y-51460000D01*
X97898000Y-51420000D02*
X94400000Y-51420000D01*
X97913000Y-51380000D02*
X94400000Y-51380000D01*
X97928000Y-51340000D02*
X94400000Y-51340000D01*
X97942000Y-51300000D02*
X94400000Y-51300000D01*
X97957000Y-51260000D02*
X94400000Y-51260000D01*
X97970000Y-51220000D02*
X94400000Y-51220000D01*
X97984000Y-51180000D02*
X94400000Y-51180000D01*
X97997000Y-51140000D02*
X94400000Y-51140000D01*
X98009000Y-51100000D02*
X94400000Y-51100000D01*
X98021000Y-51060000D02*
X94400000Y-51060000D01*
X98033000Y-51020000D02*
X94400000Y-51020000D01*
X98045000Y-50980000D02*
X94400000Y-50980000D01*
X98056000Y-50940000D02*
X94400000Y-50940000D01*
X98067000Y-50900000D02*
X94400000Y-50900000D01*
X98077000Y-50860000D02*
X94400000Y-50860000D01*
X98088000Y-50820000D02*
X88232000Y-50820000D01*
X98097000Y-50780000D02*
X88223000Y-50780000D01*
X98107000Y-50740000D02*
X88213000Y-50740000D01*
X98116000Y-50700000D02*
X88204000Y-50700000D01*
X98125000Y-50660000D02*
X88195000Y-50660000D01*
X98133000Y-50620000D02*
X88187000Y-50620000D01*
X98141000Y-50580000D02*
X88179000Y-50580000D01*
X98149000Y-50540000D02*
X88171000Y-50540000D01*
X98157000Y-50500000D02*
X88163000Y-50500000D01*
X98164000Y-50460000D02*
X88156000Y-50460000D01*
X98171000Y-50420000D02*
X88149000Y-50420000D01*
X98177000Y-50380000D02*
X88143000Y-50380000D01*
X98183000Y-50340000D02*
X88137000Y-50340000D01*
X98189000Y-50300000D02*
X88131000Y-50300000D01*
X98195000Y-50260000D02*
X88125000Y-50260000D01*
X98200000Y-50220000D02*
X88120000Y-50220000D01*
X98205000Y-50180000D02*
X88115000Y-50180000D01*
X98209000Y-50140000D02*
X88111000Y-50140000D01*
X98214000Y-50100000D02*
X88106000Y-50100000D01*
X98217000Y-50060000D02*
X88103000Y-50060000D01*
X98221000Y-50020000D02*
X88099000Y-50020000D01*
X98224000Y-49980000D02*
X88096000Y-49980000D01*
X98227000Y-49940000D02*
X88093000Y-49940000D01*
X98230000Y-49900000D02*
X88090000Y-49900000D01*
X98232000Y-49860000D02*
X88088000Y-49860000D01*
X98234000Y-49820000D02*
X88086000Y-49820000D01*
X98236000Y-49780000D02*
X88084000Y-49780000D01*
X98237000Y-49740000D02*
X88083000Y-49740000D01*
X98239000Y-49660000D02*
X88081000Y-49660000D01*
X98239000Y-49700000D02*
X88081000Y-49700000D01*
X98240000Y-49580000D02*
X88080000Y-49580000D01*
X98240000Y-49620000D02*
X88080000Y-49620000D01*
X98280000Y-49580000D02*
G75*
G02*
X88040000Y-49580000I-5120000J0D01*
G01*
X88040000Y-49580000D02*
G75*
G02*
X98280000Y-49580000I5120000J0D01*
G01*
%TO.C,J7*%
X58140000Y-65720000D02*
X73380000Y-65720000D01*
X58140000Y-68740000D02*
X73380000Y-68740000D01*
X58140000Y-73640000D02*
X73380000Y-73640000D01*
X58140000Y-75140000D02*
X73380000Y-75140000D01*
X58140000Y-75760000D02*
X58140000Y-65720000D01*
X60460000Y-75760000D02*
X58140000Y-75760000D01*
X73380000Y-65720000D02*
X73380000Y-75760000D01*
X73380000Y-75760000D02*
X61060000Y-75760000D01*
X61200000Y-76370000D02*
X60320000Y-76370000D01*
X60760000Y-75760000D01*
X61200000Y-76370000D01*
G36*
X61200000Y-76370000D02*
G01*
X60320000Y-76370000D01*
X60760000Y-75760000D01*
X61200000Y-76370000D01*
G37*
%TO.C,D1*%
X35720000Y-56852500D02*
X35720000Y-53992500D01*
X35720000Y-53992500D02*
X33800000Y-53992500D01*
X33800000Y-53992500D02*
X33800000Y-56852500D01*
%TO.C,R1*%
X39125000Y-56112936D02*
X39125000Y-56567064D01*
X40595000Y-56112936D02*
X40595000Y-56567064D01*
%TO.C,J9*%
X35567500Y-42220000D02*
X45607500Y-42220000D01*
X35567500Y-44540000D02*
X35567500Y-42220000D01*
X35567500Y-52460000D02*
X35567500Y-45140000D01*
X36187500Y-42220000D02*
X36187500Y-52460000D01*
X37687500Y-42220000D02*
X37687500Y-52460000D01*
X42587500Y-42220000D02*
X42587500Y-52460000D01*
X45607500Y-42220000D02*
X45607500Y-52460000D01*
X45607500Y-52460000D02*
X35567500Y-52460000D01*
X35567500Y-44840000D02*
X34957500Y-45280000D01*
X34957500Y-44400000D01*
X35567500Y-44840000D01*
G36*
X35567500Y-44840000D02*
G01*
X34957500Y-45280000D01*
X34957500Y-44400000D01*
X35567500Y-44840000D01*
G37*
%TO.C,R5*%
X44787064Y-27905000D02*
X44332936Y-27905000D01*
X44787064Y-29375000D02*
X44332936Y-29375000D01*
%TO.C,J4*%
X39620000Y-27220000D02*
X39620000Y-25840000D01*
X41000000Y-27220000D02*
X39620000Y-27220000D01*
X42270000Y-24460000D02*
X65240000Y-24460000D01*
X42270000Y-27220000D02*
X42270000Y-24460000D01*
X42270000Y-27220000D02*
X65240000Y-27220000D01*
X65240000Y-27220000D02*
X65240000Y-24460000D01*
%TO.C,R3*%
X34425000Y-25167064D02*
X34425000Y-24712936D01*
X35895000Y-25167064D02*
X35895000Y-24712936D01*
%TO.C,C5*%
X35207500Y-35467677D02*
X45367500Y-35467677D01*
X35207500Y-35507677D02*
X45367500Y-35507677D01*
X35208500Y-35387677D02*
X45366500Y-35387677D01*
X35208500Y-35427677D02*
X45366500Y-35427677D01*
X35210500Y-35347677D02*
X45364500Y-35347677D01*
X35211500Y-35307677D02*
X45363500Y-35307677D01*
X35213500Y-35267677D02*
X45361500Y-35267677D01*
X35215500Y-35227677D02*
X45359500Y-35227677D01*
X35217500Y-35187677D02*
X45357500Y-35187677D01*
X35220500Y-35147677D02*
X45354500Y-35147677D01*
X35223500Y-35107677D02*
X45351500Y-35107677D01*
X35226500Y-35067677D02*
X45348500Y-35067677D01*
X35230500Y-35027677D02*
X45344500Y-35027677D01*
X35233500Y-34987677D02*
X45341500Y-34987677D01*
X35238500Y-34947677D02*
X45336500Y-34947677D01*
X35242500Y-34907677D02*
X45332500Y-34907677D01*
X35247500Y-34867677D02*
X45327500Y-34867677D01*
X35252500Y-34827677D02*
X45322500Y-34827677D01*
X35258500Y-34787677D02*
X45316500Y-34787677D01*
X35264500Y-34747677D02*
X45310500Y-34747677D01*
X35270500Y-34707677D02*
X45304500Y-34707677D01*
X35276500Y-34667677D02*
X45298500Y-34667677D01*
X35283500Y-34627677D02*
X45291500Y-34627677D01*
X35290500Y-34587677D02*
X45284500Y-34587677D01*
X35298500Y-34547677D02*
X45276500Y-34547677D01*
X35306500Y-34507677D02*
X45268500Y-34507677D01*
X35314500Y-34467677D02*
X45260500Y-34467677D01*
X35322500Y-34427677D02*
X45252500Y-34427677D01*
X35331500Y-34387677D02*
X45243500Y-34387677D01*
X35340500Y-34347677D02*
X45234500Y-34347677D01*
X35350500Y-34307677D02*
X45224500Y-34307677D01*
X35359500Y-34267677D02*
X45215500Y-34267677D01*
X35370500Y-34227677D02*
X39047500Y-34227677D01*
X35380500Y-34187677D02*
X39047500Y-34187677D01*
X35391500Y-34147677D02*
X39047500Y-34147677D01*
X35402500Y-34107677D02*
X39047500Y-34107677D01*
X35414500Y-34067677D02*
X39047500Y-34067677D01*
X35426500Y-34027677D02*
X39047500Y-34027677D01*
X35438500Y-33987677D02*
X39047500Y-33987677D01*
X35450500Y-33947677D02*
X39047500Y-33947677D01*
X35463500Y-33907677D02*
X39047500Y-33907677D01*
X35477500Y-33867677D02*
X39047500Y-33867677D01*
X35490500Y-33827677D02*
X39047500Y-33827677D01*
X35505500Y-33787677D02*
X39047500Y-33787677D01*
X35519500Y-33747677D02*
X39047500Y-33747677D01*
X35534500Y-33707677D02*
X39047500Y-33707677D01*
X35549500Y-33667677D02*
X39047500Y-33667677D01*
X35565500Y-33627677D02*
X39047500Y-33627677D01*
X35581500Y-33587677D02*
X39047500Y-33587677D01*
X35597500Y-33547677D02*
X39047500Y-33547677D01*
X35614500Y-33507677D02*
X39047500Y-33507677D01*
X35631500Y-33467677D02*
X39047500Y-33467677D01*
X35649500Y-33427677D02*
X39047500Y-33427677D01*
X35667500Y-33387677D02*
X39047500Y-33387677D01*
X35685500Y-33347677D02*
X39047500Y-33347677D01*
X35704500Y-33307677D02*
X39047500Y-33307677D01*
X35723500Y-33267677D02*
X39047500Y-33267677D01*
X35743500Y-33227677D02*
X39047500Y-33227677D01*
X35763500Y-33187677D02*
X39047500Y-33187677D01*
X35783500Y-33147677D02*
X39047500Y-33147677D01*
X35804500Y-33107677D02*
X39047500Y-33107677D01*
X35826500Y-33067677D02*
X39047500Y-33067677D01*
X35848500Y-33027677D02*
X39047500Y-33027677D01*
X35870500Y-32987677D02*
X39047500Y-32987677D01*
X35893500Y-32947677D02*
X39047500Y-32947677D01*
X35916500Y-32907677D02*
X39047500Y-32907677D01*
X35940500Y-32867677D02*
X39047500Y-32867677D01*
X35964500Y-32827677D02*
X39047500Y-32827677D01*
X35989500Y-32787677D02*
X39047500Y-32787677D01*
X36015500Y-32747677D02*
X39047500Y-32747677D01*
X36040500Y-32707677D02*
X39047500Y-32707677D01*
X36067500Y-32667677D02*
X39047500Y-32667677D01*
X36094500Y-32627677D02*
X39047500Y-32627677D01*
X36121500Y-32587677D02*
X39047500Y-32587677D01*
X36149500Y-32547677D02*
X39047500Y-32547677D01*
X36178500Y-32507677D02*
X39047500Y-32507677D01*
X36207500Y-32467677D02*
X39047500Y-32467677D01*
X36237500Y-32427677D02*
X39047500Y-32427677D01*
X36267500Y-32387677D02*
X39047500Y-32387677D01*
X36299500Y-32347677D02*
X39047500Y-32347677D01*
X36330500Y-32307677D02*
X39047500Y-32307677D01*
X36363500Y-32267677D02*
X39047500Y-32267677D01*
X36396500Y-32227677D02*
X39047500Y-32227677D01*
X36429500Y-32187677D02*
X39047500Y-32187677D01*
X36464500Y-32147677D02*
X39047500Y-32147677D01*
X36499500Y-32107677D02*
X39047500Y-32107677D01*
X36535500Y-32067677D02*
X39047500Y-32067677D01*
X36571500Y-32027677D02*
X39047500Y-32027677D01*
X36609500Y-31987677D02*
X39047500Y-31987677D01*
X36647500Y-31947677D02*
X39047500Y-31947677D01*
X36686500Y-31907677D02*
X39047500Y-31907677D01*
X36726500Y-31867677D02*
X39047500Y-31867677D01*
X36767500Y-31827677D02*
X39047500Y-31827677D01*
X36809500Y-31787677D02*
X39047500Y-31787677D01*
X36852500Y-31747677D02*
X43722500Y-31747677D01*
X36896500Y-31707677D02*
X43678500Y-31707677D01*
X36912500Y-40487323D02*
X37912500Y-40487323D01*
X36940500Y-31667677D02*
X43634500Y-31667677D01*
X36986500Y-31627677D02*
X43588500Y-31627677D01*
X37033500Y-31587677D02*
X43541500Y-31587677D01*
X37082500Y-31547677D02*
X43492500Y-31547677D01*
X37131500Y-31507677D02*
X43443500Y-31507677D01*
X37182500Y-31467677D02*
X43392500Y-31467677D01*
X37234500Y-31427677D02*
X43340500Y-31427677D01*
X37287500Y-31387677D02*
X43287500Y-31387677D01*
X37342500Y-31347677D02*
X43232500Y-31347677D01*
X37399500Y-31307677D02*
X43175500Y-31307677D01*
X37412500Y-40987323D02*
X37412500Y-39987323D01*
X37457500Y-31267677D02*
X43117500Y-31267677D01*
X37517500Y-31227677D02*
X43057500Y-31227677D01*
X37579500Y-31187677D02*
X42995500Y-31187677D01*
X37643500Y-31147677D02*
X42931500Y-31147677D01*
X37709500Y-31107677D02*
X42865500Y-31107677D01*
X37777500Y-31067677D02*
X42797500Y-31067677D01*
X37848500Y-31027677D02*
X42726500Y-31027677D01*
X37922500Y-30987677D02*
X42652500Y-30987677D01*
X37999500Y-30947677D02*
X42575500Y-30947677D01*
X38079500Y-30907677D02*
X42495500Y-30907677D01*
X38163500Y-30867677D02*
X42411500Y-30867677D01*
X38250500Y-30827677D02*
X42324500Y-30827677D01*
X38343500Y-30787677D02*
X42231500Y-30787677D01*
X38441500Y-30747677D02*
X42133500Y-30747677D01*
X38545500Y-30707677D02*
X42029500Y-30707677D01*
X38657500Y-30667677D02*
X41917500Y-30667677D01*
X38778500Y-30627677D02*
X41796500Y-30627677D01*
X38910500Y-30587677D02*
X41664500Y-30587677D01*
X39057500Y-30547677D02*
X41517500Y-30547677D01*
X39225500Y-30507677D02*
X41349500Y-30507677D01*
X39425500Y-30467677D02*
X41149500Y-30467677D01*
X39688500Y-30427677D02*
X40886500Y-30427677D01*
X41527500Y-31787677D02*
X43765500Y-31787677D01*
X41527500Y-31827677D02*
X43807500Y-31827677D01*
X41527500Y-31867677D02*
X43848500Y-31867677D01*
X41527500Y-31907677D02*
X43888500Y-31907677D01*
X41527500Y-31947677D02*
X43927500Y-31947677D01*
X41527500Y-31987677D02*
X43965500Y-31987677D01*
X41527500Y-32027677D02*
X44003500Y-32027677D01*
X41527500Y-32067677D02*
X44039500Y-32067677D01*
X41527500Y-32107677D02*
X44075500Y-32107677D01*
X41527500Y-32147677D02*
X44110500Y-32147677D01*
X41527500Y-32187677D02*
X44145500Y-32187677D01*
X41527500Y-32227677D02*
X44178500Y-32227677D01*
X41527500Y-32267677D02*
X44211500Y-32267677D01*
X41527500Y-32307677D02*
X44244500Y-32307677D01*
X41527500Y-32347677D02*
X44275500Y-32347677D01*
X41527500Y-32387677D02*
X44307500Y-32387677D01*
X41527500Y-32427677D02*
X44337500Y-32427677D01*
X41527500Y-32467677D02*
X44367500Y-32467677D01*
X41527500Y-32507677D02*
X44396500Y-32507677D01*
X41527500Y-32547677D02*
X44425500Y-32547677D01*
X41527500Y-32587677D02*
X44453500Y-32587677D01*
X41527500Y-32627677D02*
X44480500Y-32627677D01*
X41527500Y-32667677D02*
X44507500Y-32667677D01*
X41527500Y-32707677D02*
X44534500Y-32707677D01*
X41527500Y-32747677D02*
X44559500Y-32747677D01*
X41527500Y-32787677D02*
X44585500Y-32787677D01*
X41527500Y-32827677D02*
X44610500Y-32827677D01*
X41527500Y-32867677D02*
X44634500Y-32867677D01*
X41527500Y-32907677D02*
X44658500Y-32907677D01*
X41527500Y-32947677D02*
X44681500Y-32947677D01*
X41527500Y-32987677D02*
X44704500Y-32987677D01*
X41527500Y-33027677D02*
X44726500Y-33027677D01*
X41527500Y-33067677D02*
X44748500Y-33067677D01*
X41527500Y-33107677D02*
X44770500Y-33107677D01*
X41527500Y-33147677D02*
X44791500Y-33147677D01*
X41527500Y-33187677D02*
X44811500Y-33187677D01*
X41527500Y-33227677D02*
X44831500Y-33227677D01*
X41527500Y-33267677D02*
X44851500Y-33267677D01*
X41527500Y-33307677D02*
X44870500Y-33307677D01*
X41527500Y-33347677D02*
X44889500Y-33347677D01*
X41527500Y-33387677D02*
X44907500Y-33387677D01*
X41527500Y-33427677D02*
X44925500Y-33427677D01*
X41527500Y-33467677D02*
X44943500Y-33467677D01*
X41527500Y-33507677D02*
X44960500Y-33507677D01*
X41527500Y-33547677D02*
X44977500Y-33547677D01*
X41527500Y-33587677D02*
X44993500Y-33587677D01*
X41527500Y-33627677D02*
X45009500Y-33627677D01*
X41527500Y-33667677D02*
X45025500Y-33667677D01*
X41527500Y-33707677D02*
X45040500Y-33707677D01*
X41527500Y-33747677D02*
X45055500Y-33747677D01*
X41527500Y-33787677D02*
X45069500Y-33787677D01*
X41527500Y-33827677D02*
X45084500Y-33827677D01*
X41527500Y-33867677D02*
X45097500Y-33867677D01*
X41527500Y-33907677D02*
X45111500Y-33907677D01*
X41527500Y-33947677D02*
X45124500Y-33947677D01*
X41527500Y-33987677D02*
X45136500Y-33987677D01*
X41527500Y-34027677D02*
X45148500Y-34027677D01*
X41527500Y-34067677D02*
X45160500Y-34067677D01*
X41527500Y-34107677D02*
X45172500Y-34107677D01*
X41527500Y-34147677D02*
X45183500Y-34147677D01*
X41527500Y-34187677D02*
X45194500Y-34187677D01*
X41527500Y-34227677D02*
X45204500Y-34227677D01*
X45407500Y-35507677D02*
G75*
G02*
X35167500Y-35507677I-5120000J0D01*
G01*
X35167500Y-35507677D02*
G75*
G02*
X45407500Y-35507677I5120000J0D01*
G01*
%TO.C,C4*%
X65925000Y-31101252D02*
X65925000Y-30578748D01*
X67395000Y-31101252D02*
X67395000Y-30578748D01*
%TO.C,D2*%
X34135000Y-27885000D02*
X34135000Y-30745000D01*
X34135000Y-30745000D02*
X36055000Y-30745000D01*
X36055000Y-30745000D02*
X36055000Y-27885000D01*
%TO.C,C1*%
X88080000Y-38300000D02*
X98240000Y-38300000D01*
X88080000Y-38340000D02*
X98240000Y-38340000D01*
X88081000Y-38220000D02*
X98239000Y-38220000D01*
X88081000Y-38260000D02*
X98239000Y-38260000D01*
X88083000Y-38180000D02*
X98237000Y-38180000D01*
X88084000Y-38140000D02*
X98236000Y-38140000D01*
X88086000Y-38100000D02*
X98234000Y-38100000D01*
X88088000Y-38060000D02*
X98232000Y-38060000D01*
X88090000Y-38020000D02*
X98230000Y-38020000D01*
X88093000Y-37980000D02*
X98227000Y-37980000D01*
X88096000Y-37940000D02*
X98224000Y-37940000D01*
X88099000Y-37900000D02*
X98221000Y-37900000D01*
X88103000Y-37860000D02*
X98217000Y-37860000D01*
X88106000Y-37820000D02*
X98214000Y-37820000D01*
X88111000Y-37780000D02*
X98209000Y-37780000D01*
X88115000Y-37740000D02*
X98205000Y-37740000D01*
X88120000Y-37700000D02*
X98200000Y-37700000D01*
X88125000Y-37660000D02*
X98195000Y-37660000D01*
X88131000Y-37620000D02*
X98189000Y-37620000D01*
X88137000Y-37580000D02*
X98183000Y-37580000D01*
X88143000Y-37540000D02*
X98177000Y-37540000D01*
X88149000Y-37500000D02*
X98171000Y-37500000D01*
X88156000Y-37460000D02*
X98164000Y-37460000D01*
X88163000Y-37420000D02*
X98157000Y-37420000D01*
X88171000Y-37380000D02*
X98149000Y-37380000D01*
X88179000Y-37340000D02*
X98141000Y-37340000D01*
X88187000Y-37300000D02*
X98133000Y-37300000D01*
X88195000Y-37260000D02*
X98125000Y-37260000D01*
X88204000Y-37220000D02*
X98116000Y-37220000D01*
X88213000Y-37180000D02*
X98107000Y-37180000D01*
X88223000Y-37140000D02*
X98097000Y-37140000D01*
X88232000Y-37100000D02*
X98088000Y-37100000D01*
X88243000Y-37060000D02*
X91920000Y-37060000D01*
X88253000Y-37020000D02*
X91920000Y-37020000D01*
X88264000Y-36980000D02*
X91920000Y-36980000D01*
X88275000Y-36940000D02*
X91920000Y-36940000D01*
X88287000Y-36900000D02*
X91920000Y-36900000D01*
X88299000Y-36860000D02*
X91920000Y-36860000D01*
X88311000Y-36820000D02*
X91920000Y-36820000D01*
X88323000Y-36780000D02*
X91920000Y-36780000D01*
X88336000Y-36740000D02*
X91920000Y-36740000D01*
X88350000Y-36700000D02*
X91920000Y-36700000D01*
X88363000Y-36660000D02*
X91920000Y-36660000D01*
X88378000Y-36620000D02*
X91920000Y-36620000D01*
X88392000Y-36580000D02*
X91920000Y-36580000D01*
X88407000Y-36540000D02*
X91920000Y-36540000D01*
X88422000Y-36500000D02*
X91920000Y-36500000D01*
X88438000Y-36460000D02*
X91920000Y-36460000D01*
X88454000Y-36420000D02*
X91920000Y-36420000D01*
X88470000Y-36380000D02*
X91920000Y-36380000D01*
X88487000Y-36340000D02*
X91920000Y-36340000D01*
X88504000Y-36300000D02*
X91920000Y-36300000D01*
X88522000Y-36260000D02*
X91920000Y-36260000D01*
X88540000Y-36220000D02*
X91920000Y-36220000D01*
X88558000Y-36180000D02*
X91920000Y-36180000D01*
X88577000Y-36140000D02*
X91920000Y-36140000D01*
X88596000Y-36100000D02*
X91920000Y-36100000D01*
X88616000Y-36060000D02*
X91920000Y-36060000D01*
X88636000Y-36020000D02*
X91920000Y-36020000D01*
X88656000Y-35980000D02*
X91920000Y-35980000D01*
X88677000Y-35940000D02*
X91920000Y-35940000D01*
X88699000Y-35900000D02*
X91920000Y-35900000D01*
X88721000Y-35860000D02*
X91920000Y-35860000D01*
X88743000Y-35820000D02*
X91920000Y-35820000D01*
X88766000Y-35780000D02*
X91920000Y-35780000D01*
X88789000Y-35740000D02*
X91920000Y-35740000D01*
X88813000Y-35700000D02*
X91920000Y-35700000D01*
X88837000Y-35660000D02*
X91920000Y-35660000D01*
X88862000Y-35620000D02*
X91920000Y-35620000D01*
X88888000Y-35580000D02*
X91920000Y-35580000D01*
X88913000Y-35540000D02*
X91920000Y-35540000D01*
X88940000Y-35500000D02*
X91920000Y-35500000D01*
X88967000Y-35460000D02*
X91920000Y-35460000D01*
X88994000Y-35420000D02*
X91920000Y-35420000D01*
X89022000Y-35380000D02*
X91920000Y-35380000D01*
X89051000Y-35340000D02*
X91920000Y-35340000D01*
X89080000Y-35300000D02*
X91920000Y-35300000D01*
X89110000Y-35260000D02*
X91920000Y-35260000D01*
X89140000Y-35220000D02*
X91920000Y-35220000D01*
X89172000Y-35180000D02*
X91920000Y-35180000D01*
X89203000Y-35140000D02*
X91920000Y-35140000D01*
X89236000Y-35100000D02*
X91920000Y-35100000D01*
X89269000Y-35060000D02*
X91920000Y-35060000D01*
X89302000Y-35020000D02*
X91920000Y-35020000D01*
X89337000Y-34980000D02*
X91920000Y-34980000D01*
X89372000Y-34940000D02*
X91920000Y-34940000D01*
X89408000Y-34900000D02*
X91920000Y-34900000D01*
X89444000Y-34860000D02*
X91920000Y-34860000D01*
X89482000Y-34820000D02*
X91920000Y-34820000D01*
X89520000Y-34780000D02*
X91920000Y-34780000D01*
X89559000Y-34740000D02*
X91920000Y-34740000D01*
X89599000Y-34700000D02*
X91920000Y-34700000D01*
X89640000Y-34660000D02*
X91920000Y-34660000D01*
X89682000Y-34620000D02*
X91920000Y-34620000D01*
X89725000Y-34580000D02*
X96595000Y-34580000D01*
X89769000Y-34540000D02*
X96551000Y-34540000D01*
X89785000Y-43319646D02*
X90785000Y-43319646D01*
X89813000Y-34500000D02*
X96507000Y-34500000D01*
X89859000Y-34460000D02*
X96461000Y-34460000D01*
X89906000Y-34420000D02*
X96414000Y-34420000D01*
X89955000Y-34380000D02*
X96365000Y-34380000D01*
X90004000Y-34340000D02*
X96316000Y-34340000D01*
X90055000Y-34300000D02*
X96265000Y-34300000D01*
X90107000Y-34260000D02*
X96213000Y-34260000D01*
X90160000Y-34220000D02*
X96160000Y-34220000D01*
X90215000Y-34180000D02*
X96105000Y-34180000D01*
X90272000Y-34140000D02*
X96048000Y-34140000D01*
X90285000Y-43819646D02*
X90285000Y-42819646D01*
X90330000Y-34100000D02*
X95990000Y-34100000D01*
X90390000Y-34060000D02*
X95930000Y-34060000D01*
X90452000Y-34020000D02*
X95868000Y-34020000D01*
X90516000Y-33980000D02*
X95804000Y-33980000D01*
X90582000Y-33940000D02*
X95738000Y-33940000D01*
X90650000Y-33900000D02*
X95670000Y-33900000D01*
X90721000Y-33860000D02*
X95599000Y-33860000D01*
X90795000Y-33820000D02*
X95525000Y-33820000D01*
X90872000Y-33780000D02*
X95448000Y-33780000D01*
X90952000Y-33740000D02*
X95368000Y-33740000D01*
X91036000Y-33700000D02*
X95284000Y-33700000D01*
X91123000Y-33660000D02*
X95197000Y-33660000D01*
X91216000Y-33620000D02*
X95104000Y-33620000D01*
X91314000Y-33580000D02*
X95006000Y-33580000D01*
X91418000Y-33540000D02*
X94902000Y-33540000D01*
X91530000Y-33500000D02*
X94790000Y-33500000D01*
X91651000Y-33460000D02*
X94669000Y-33460000D01*
X91783000Y-33420000D02*
X94537000Y-33420000D01*
X91930000Y-33380000D02*
X94390000Y-33380000D01*
X92098000Y-33340000D02*
X94222000Y-33340000D01*
X92298000Y-33300000D02*
X94022000Y-33300000D01*
X92561000Y-33260000D02*
X93759000Y-33260000D01*
X94400000Y-34620000D02*
X96638000Y-34620000D01*
X94400000Y-34660000D02*
X96680000Y-34660000D01*
X94400000Y-34700000D02*
X96721000Y-34700000D01*
X94400000Y-34740000D02*
X96761000Y-34740000D01*
X94400000Y-34780000D02*
X96800000Y-34780000D01*
X94400000Y-34820000D02*
X96838000Y-34820000D01*
X94400000Y-34860000D02*
X96876000Y-34860000D01*
X94400000Y-34900000D02*
X96912000Y-34900000D01*
X94400000Y-34940000D02*
X96948000Y-34940000D01*
X94400000Y-34980000D02*
X96983000Y-34980000D01*
X94400000Y-35020000D02*
X97018000Y-35020000D01*
X94400000Y-35060000D02*
X97051000Y-35060000D01*
X94400000Y-35100000D02*
X97084000Y-35100000D01*
X94400000Y-35140000D02*
X97117000Y-35140000D01*
X94400000Y-35180000D02*
X97148000Y-35180000D01*
X94400000Y-35220000D02*
X97180000Y-35220000D01*
X94400000Y-35260000D02*
X97210000Y-35260000D01*
X94400000Y-35300000D02*
X97240000Y-35300000D01*
X94400000Y-35340000D02*
X97269000Y-35340000D01*
X94400000Y-35380000D02*
X97298000Y-35380000D01*
X94400000Y-35420000D02*
X97326000Y-35420000D01*
X94400000Y-35460000D02*
X97353000Y-35460000D01*
X94400000Y-35500000D02*
X97380000Y-35500000D01*
X94400000Y-35540000D02*
X97407000Y-35540000D01*
X94400000Y-35580000D02*
X97432000Y-35580000D01*
X94400000Y-35620000D02*
X97458000Y-35620000D01*
X94400000Y-35660000D02*
X97483000Y-35660000D01*
X94400000Y-35700000D02*
X97507000Y-35700000D01*
X94400000Y-35740000D02*
X97531000Y-35740000D01*
X94400000Y-35780000D02*
X97554000Y-35780000D01*
X94400000Y-35820000D02*
X97577000Y-35820000D01*
X94400000Y-35860000D02*
X97599000Y-35860000D01*
X94400000Y-35900000D02*
X97621000Y-35900000D01*
X94400000Y-35940000D02*
X97643000Y-35940000D01*
X94400000Y-35980000D02*
X97664000Y-35980000D01*
X94400000Y-36020000D02*
X97684000Y-36020000D01*
X94400000Y-36060000D02*
X97704000Y-36060000D01*
X94400000Y-36100000D02*
X97724000Y-36100000D01*
X94400000Y-36140000D02*
X97743000Y-36140000D01*
X94400000Y-36180000D02*
X97762000Y-36180000D01*
X94400000Y-36220000D02*
X97780000Y-36220000D01*
X94400000Y-36260000D02*
X97798000Y-36260000D01*
X94400000Y-36300000D02*
X97816000Y-36300000D01*
X94400000Y-36340000D02*
X97833000Y-36340000D01*
X94400000Y-36380000D02*
X97850000Y-36380000D01*
X94400000Y-36420000D02*
X97866000Y-36420000D01*
X94400000Y-36460000D02*
X97882000Y-36460000D01*
X94400000Y-36500000D02*
X97898000Y-36500000D01*
X94400000Y-36540000D02*
X97913000Y-36540000D01*
X94400000Y-36580000D02*
X97928000Y-36580000D01*
X94400000Y-36620000D02*
X97942000Y-36620000D01*
X94400000Y-36660000D02*
X97957000Y-36660000D01*
X94400000Y-36700000D02*
X97970000Y-36700000D01*
X94400000Y-36740000D02*
X97984000Y-36740000D01*
X94400000Y-36780000D02*
X97997000Y-36780000D01*
X94400000Y-36820000D02*
X98009000Y-36820000D01*
X94400000Y-36860000D02*
X98021000Y-36860000D01*
X94400000Y-36900000D02*
X98033000Y-36900000D01*
X94400000Y-36940000D02*
X98045000Y-36940000D01*
X94400000Y-36980000D02*
X98056000Y-36980000D01*
X94400000Y-37020000D02*
X98067000Y-37020000D01*
X94400000Y-37060000D02*
X98077000Y-37060000D01*
X98280000Y-38340000D02*
G75*
G02*
X88040000Y-38340000I-5120000J0D01*
G01*
X88040000Y-38340000D02*
G75*
G02*
X98280000Y-38340000I5120000J0D01*
G01*
%TO.C,C3*%
X67925000Y-31101252D02*
X67925000Y-30578748D01*
X69395000Y-31101252D02*
X69395000Y-30578748D01*
%TO.C,D3*%
X47360000Y-29600000D02*
X50220000Y-29600000D01*
X50220000Y-27680000D02*
X47360000Y-27680000D01*
X50220000Y-29600000D02*
X50220000Y-27680000D01*
%TO.C,U2*%
X46780000Y-30600000D02*
X48160000Y-30600000D01*
X46780000Y-31980000D02*
X46780000Y-30600000D01*
X46780000Y-33250000D02*
X46780000Y-56220000D01*
X46780000Y-33250000D02*
X49540000Y-33250000D01*
X46780000Y-56220000D02*
X49540000Y-56220000D01*
X49540000Y-33250000D02*
X49540000Y-56220000D01*
X79790000Y-30600000D02*
X81170000Y-30600000D01*
X79790000Y-31980000D02*
X79790000Y-30600000D01*
X79790000Y-33250000D02*
X79790000Y-56220000D01*
X79790000Y-33250000D02*
X82550000Y-33250000D01*
X79790000Y-56220000D02*
X82550000Y-56220000D01*
X82550000Y-33250000D02*
X82550000Y-56220000D01*
%TD*%
M02*
