%TF.GenerationSoftware,KiCad,Pcbnew,9.0.7*%
%TF.CreationDate,2026-01-25T13:43:23-05:00*%
%TF.ProjectId,brushlessMotorDriverDaughter,62727573-686c-4657-9373-4d6f746f7244,1*%
%TF.SameCoordinates,Original*%
%TF.FileFunction,Legend,Bot*%
%TF.FilePolarity,Positive*%
%FSLAX46Y46*%
G04 Gerber Fmt 4.6, Leading zero omitted, Abs format (unit mm)*
G04 Created by KiCad (PCBNEW 9.0.7) date 2026-01-25 13:43:23*
%MOMM*%
%LPD*%
G01*
G04 APERTURE LIST*
%ADD10C,0.200000*%
G04 APERTURE END LIST*
D10*
X98090326Y-76307219D02*
X98090326Y-75307219D01*
X98090326Y-75307219D02*
X97852231Y-75307219D01*
X97852231Y-75307219D02*
X97709374Y-75354838D01*
X97709374Y-75354838D02*
X97614136Y-75450076D01*
X97614136Y-75450076D02*
X97566517Y-75545314D01*
X97566517Y-75545314D02*
X97518898Y-75735790D01*
X97518898Y-75735790D02*
X97518898Y-75878647D01*
X97518898Y-75878647D02*
X97566517Y-76069123D01*
X97566517Y-76069123D02*
X97614136Y-76164361D01*
X97614136Y-76164361D02*
X97709374Y-76259600D01*
X97709374Y-76259600D02*
X97852231Y-76307219D01*
X97852231Y-76307219D02*
X98090326Y-76307219D01*
X96709374Y-76259600D02*
X96804612Y-76307219D01*
X96804612Y-76307219D02*
X96995088Y-76307219D01*
X96995088Y-76307219D02*
X97090326Y-76259600D01*
X97090326Y-76259600D02*
X97137945Y-76164361D01*
X97137945Y-76164361D02*
X97137945Y-75783409D01*
X97137945Y-75783409D02*
X97090326Y-75688171D01*
X97090326Y-75688171D02*
X96995088Y-75640552D01*
X96995088Y-75640552D02*
X96804612Y-75640552D01*
X96804612Y-75640552D02*
X96709374Y-75688171D01*
X96709374Y-75688171D02*
X96661755Y-75783409D01*
X96661755Y-75783409D02*
X96661755Y-75878647D01*
X96661755Y-75878647D02*
X97137945Y-75973885D01*
X96280802Y-76259600D02*
X96185564Y-76307219D01*
X96185564Y-76307219D02*
X95995088Y-76307219D01*
X95995088Y-76307219D02*
X95899850Y-76259600D01*
X95899850Y-76259600D02*
X95852231Y-76164361D01*
X95852231Y-76164361D02*
X95852231Y-76116742D01*
X95852231Y-76116742D02*
X95899850Y-76021504D01*
X95899850Y-76021504D02*
X95995088Y-75973885D01*
X95995088Y-75973885D02*
X96137945Y-75973885D01*
X96137945Y-75973885D02*
X96233183Y-75926266D01*
X96233183Y-75926266D02*
X96280802Y-75831028D01*
X96280802Y-75831028D02*
X96280802Y-75783409D01*
X96280802Y-75783409D02*
X96233183Y-75688171D01*
X96233183Y-75688171D02*
X96137945Y-75640552D01*
X96137945Y-75640552D02*
X95995088Y-75640552D01*
X95995088Y-75640552D02*
X95899850Y-75688171D01*
X95423659Y-76307219D02*
X95423659Y-75640552D01*
X95423659Y-75307219D02*
X95471278Y-75354838D01*
X95471278Y-75354838D02*
X95423659Y-75402457D01*
X95423659Y-75402457D02*
X95376040Y-75354838D01*
X95376040Y-75354838D02*
X95423659Y-75307219D01*
X95423659Y-75307219D02*
X95423659Y-75402457D01*
X94518898Y-75640552D02*
X94518898Y-76450076D01*
X94518898Y-76450076D02*
X94566517Y-76545314D01*
X94566517Y-76545314D02*
X94614136Y-76592933D01*
X94614136Y-76592933D02*
X94709374Y-76640552D01*
X94709374Y-76640552D02*
X94852231Y-76640552D01*
X94852231Y-76640552D02*
X94947469Y-76592933D01*
X94518898Y-76259600D02*
X94614136Y-76307219D01*
X94614136Y-76307219D02*
X94804612Y-76307219D01*
X94804612Y-76307219D02*
X94899850Y-76259600D01*
X94899850Y-76259600D02*
X94947469Y-76211980D01*
X94947469Y-76211980D02*
X94995088Y-76116742D01*
X94995088Y-76116742D02*
X94995088Y-75831028D01*
X94995088Y-75831028D02*
X94947469Y-75735790D01*
X94947469Y-75735790D02*
X94899850Y-75688171D01*
X94899850Y-75688171D02*
X94804612Y-75640552D01*
X94804612Y-75640552D02*
X94614136Y-75640552D01*
X94614136Y-75640552D02*
X94518898Y-75688171D01*
X94042707Y-75640552D02*
X94042707Y-76307219D01*
X94042707Y-75735790D02*
X93995088Y-75688171D01*
X93995088Y-75688171D02*
X93899850Y-75640552D01*
X93899850Y-75640552D02*
X93756993Y-75640552D01*
X93756993Y-75640552D02*
X93661755Y-75688171D01*
X93661755Y-75688171D02*
X93614136Y-75783409D01*
X93614136Y-75783409D02*
X93614136Y-76307219D01*
X92756993Y-76259600D02*
X92852231Y-76307219D01*
X92852231Y-76307219D02*
X93042707Y-76307219D01*
X93042707Y-76307219D02*
X93137945Y-76259600D01*
X93137945Y-76259600D02*
X93185564Y-76164361D01*
X93185564Y-76164361D02*
X93185564Y-75783409D01*
X93185564Y-75783409D02*
X93137945Y-75688171D01*
X93137945Y-75688171D02*
X93042707Y-75640552D01*
X93042707Y-75640552D02*
X92852231Y-75640552D01*
X92852231Y-75640552D02*
X92756993Y-75688171D01*
X92756993Y-75688171D02*
X92709374Y-75783409D01*
X92709374Y-75783409D02*
X92709374Y-75878647D01*
X92709374Y-75878647D02*
X93185564Y-75973885D01*
X91852231Y-76307219D02*
X91852231Y-75307219D01*
X91852231Y-76259600D02*
X91947469Y-76307219D01*
X91947469Y-76307219D02*
X92137945Y-76307219D01*
X92137945Y-76307219D02*
X92233183Y-76259600D01*
X92233183Y-76259600D02*
X92280802Y-76211980D01*
X92280802Y-76211980D02*
X92328421Y-76116742D01*
X92328421Y-76116742D02*
X92328421Y-75831028D01*
X92328421Y-75831028D02*
X92280802Y-75735790D01*
X92280802Y-75735790D02*
X92233183Y-75688171D01*
X92233183Y-75688171D02*
X92137945Y-75640552D01*
X92137945Y-75640552D02*
X91947469Y-75640552D01*
X91947469Y-75640552D02*
X91852231Y-75688171D01*
X90280802Y-75783409D02*
X90137945Y-75831028D01*
X90137945Y-75831028D02*
X90090326Y-75878647D01*
X90090326Y-75878647D02*
X90042707Y-75973885D01*
X90042707Y-75973885D02*
X90042707Y-76116742D01*
X90042707Y-76116742D02*
X90090326Y-76211980D01*
X90090326Y-76211980D02*
X90137945Y-76259600D01*
X90137945Y-76259600D02*
X90233183Y-76307219D01*
X90233183Y-76307219D02*
X90614135Y-76307219D01*
X90614135Y-76307219D02*
X90614135Y-75307219D01*
X90614135Y-75307219D02*
X90280802Y-75307219D01*
X90280802Y-75307219D02*
X90185564Y-75354838D01*
X90185564Y-75354838D02*
X90137945Y-75402457D01*
X90137945Y-75402457D02*
X90090326Y-75497695D01*
X90090326Y-75497695D02*
X90090326Y-75592933D01*
X90090326Y-75592933D02*
X90137945Y-75688171D01*
X90137945Y-75688171D02*
X90185564Y-75735790D01*
X90185564Y-75735790D02*
X90280802Y-75783409D01*
X90280802Y-75783409D02*
X90614135Y-75783409D01*
X89709373Y-75640552D02*
X89471278Y-76307219D01*
X89233183Y-75640552D02*
X89471278Y-76307219D01*
X89471278Y-76307219D02*
X89566516Y-76545314D01*
X89566516Y-76545314D02*
X89614135Y-76592933D01*
X89614135Y-76592933D02*
X89709373Y-76640552D01*
X88852230Y-76211980D02*
X88804611Y-76259600D01*
X88804611Y-76259600D02*
X88852230Y-76307219D01*
X88852230Y-76307219D02*
X88899849Y-76259600D01*
X88899849Y-76259600D02*
X88852230Y-76211980D01*
X88852230Y-76211980D02*
X88852230Y-76307219D01*
X88852230Y-75688171D02*
X88804611Y-75735790D01*
X88804611Y-75735790D02*
X88852230Y-75783409D01*
X88852230Y-75783409D02*
X88899849Y-75735790D01*
X88899849Y-75735790D02*
X88852230Y-75688171D01*
X88852230Y-75688171D02*
X88852230Y-75783409D01*
X87280802Y-75783409D02*
X87137945Y-75831028D01*
X87137945Y-75831028D02*
X87090326Y-75878647D01*
X87090326Y-75878647D02*
X87042707Y-75973885D01*
X87042707Y-75973885D02*
X87042707Y-76116742D01*
X87042707Y-76116742D02*
X87090326Y-76211980D01*
X87090326Y-76211980D02*
X87137945Y-76259600D01*
X87137945Y-76259600D02*
X87233183Y-76307219D01*
X87233183Y-76307219D02*
X87614135Y-76307219D01*
X87614135Y-76307219D02*
X87614135Y-75307219D01*
X87614135Y-75307219D02*
X87280802Y-75307219D01*
X87280802Y-75307219D02*
X87185564Y-75354838D01*
X87185564Y-75354838D02*
X87137945Y-75402457D01*
X87137945Y-75402457D02*
X87090326Y-75497695D01*
X87090326Y-75497695D02*
X87090326Y-75592933D01*
X87090326Y-75592933D02*
X87137945Y-75688171D01*
X87137945Y-75688171D02*
X87185564Y-75735790D01*
X87185564Y-75735790D02*
X87280802Y-75783409D01*
X87280802Y-75783409D02*
X87614135Y-75783409D01*
X86614135Y-76307219D02*
X86614135Y-75640552D01*
X86614135Y-75307219D02*
X86661754Y-75354838D01*
X86661754Y-75354838D02*
X86614135Y-75402457D01*
X86614135Y-75402457D02*
X86566516Y-75354838D01*
X86566516Y-75354838D02*
X86614135Y-75307219D01*
X86614135Y-75307219D02*
X86614135Y-75402457D01*
X85709374Y-75640552D02*
X85709374Y-76450076D01*
X85709374Y-76450076D02*
X85756993Y-76545314D01*
X85756993Y-76545314D02*
X85804612Y-76592933D01*
X85804612Y-76592933D02*
X85899850Y-76640552D01*
X85899850Y-76640552D02*
X86042707Y-76640552D01*
X86042707Y-76640552D02*
X86137945Y-76592933D01*
X85709374Y-76259600D02*
X85804612Y-76307219D01*
X85804612Y-76307219D02*
X85995088Y-76307219D01*
X85995088Y-76307219D02*
X86090326Y-76259600D01*
X86090326Y-76259600D02*
X86137945Y-76211980D01*
X86137945Y-76211980D02*
X86185564Y-76116742D01*
X86185564Y-76116742D02*
X86185564Y-75831028D01*
X86185564Y-75831028D02*
X86137945Y-75735790D01*
X86137945Y-75735790D02*
X86090326Y-75688171D01*
X86090326Y-75688171D02*
X85995088Y-75640552D01*
X85995088Y-75640552D02*
X85804612Y-75640552D01*
X85804612Y-75640552D02*
X85709374Y-75688171D01*
X85233183Y-76307219D02*
X85233183Y-75307219D01*
X85233183Y-75307219D02*
X84852231Y-75307219D01*
X84852231Y-75307219D02*
X84756993Y-75354838D01*
X84756993Y-75354838D02*
X84709374Y-75402457D01*
X84709374Y-75402457D02*
X84661755Y-75497695D01*
X84661755Y-75497695D02*
X84661755Y-75640552D01*
X84661755Y-75640552D02*
X84709374Y-75735790D01*
X84709374Y-75735790D02*
X84756993Y-75783409D01*
X84756993Y-75783409D02*
X84852231Y-75831028D01*
X84852231Y-75831028D02*
X85233183Y-75831028D01*
X84233183Y-76307219D02*
X84233183Y-75640552D01*
X84233183Y-75307219D02*
X84280802Y-75354838D01*
X84280802Y-75354838D02*
X84233183Y-75402457D01*
X84233183Y-75402457D02*
X84185564Y-75354838D01*
X84185564Y-75354838D02*
X84233183Y-75307219D01*
X84233183Y-75307219D02*
X84233183Y-75402457D01*
X83376041Y-76259600D02*
X83471279Y-76307219D01*
X83471279Y-76307219D02*
X83661755Y-76307219D01*
X83661755Y-76307219D02*
X83756993Y-76259600D01*
X83756993Y-76259600D02*
X83804612Y-76164361D01*
X83804612Y-76164361D02*
X83804612Y-75783409D01*
X83804612Y-75783409D02*
X83756993Y-75688171D01*
X83756993Y-75688171D02*
X83661755Y-75640552D01*
X83661755Y-75640552D02*
X83471279Y-75640552D01*
X83471279Y-75640552D02*
X83376041Y-75688171D01*
X83376041Y-75688171D02*
X83328422Y-75783409D01*
X83328422Y-75783409D02*
X83328422Y-75878647D01*
X83328422Y-75878647D02*
X83804612Y-75973885D01*
X82899850Y-76307219D02*
X82899850Y-75640552D01*
X82899850Y-75831028D02*
X82852231Y-75735790D01*
X82852231Y-75735790D02*
X82804612Y-75688171D01*
X82804612Y-75688171D02*
X82709374Y-75640552D01*
X82709374Y-75640552D02*
X82614136Y-75640552D01*
X82137945Y-76307219D02*
X82233183Y-76259600D01*
X82233183Y-76259600D02*
X82280802Y-76211980D01*
X82280802Y-76211980D02*
X82328421Y-76116742D01*
X82328421Y-76116742D02*
X82328421Y-75831028D01*
X82328421Y-75831028D02*
X82280802Y-75735790D01*
X82280802Y-75735790D02*
X82233183Y-75688171D01*
X82233183Y-75688171D02*
X82137945Y-75640552D01*
X82137945Y-75640552D02*
X81995088Y-75640552D01*
X81995088Y-75640552D02*
X81899850Y-75688171D01*
X81899850Y-75688171D02*
X81852231Y-75735790D01*
X81852231Y-75735790D02*
X81804612Y-75831028D01*
X81804612Y-75831028D02*
X81804612Y-76116742D01*
X81804612Y-76116742D02*
X81852231Y-76211980D01*
X81852231Y-76211980D02*
X81899850Y-76259600D01*
X81899850Y-76259600D02*
X81995088Y-76307219D01*
X81995088Y-76307219D02*
X82137945Y-76307219D01*
X80947469Y-75640552D02*
X80947469Y-76450076D01*
X80947469Y-76450076D02*
X80995088Y-76545314D01*
X80995088Y-76545314D02*
X81042707Y-76592933D01*
X81042707Y-76592933D02*
X81137945Y-76640552D01*
X81137945Y-76640552D02*
X81280802Y-76640552D01*
X81280802Y-76640552D02*
X81376040Y-76592933D01*
X80947469Y-76259600D02*
X81042707Y-76307219D01*
X81042707Y-76307219D02*
X81233183Y-76307219D01*
X81233183Y-76307219D02*
X81328421Y-76259600D01*
X81328421Y-76259600D02*
X81376040Y-76211980D01*
X81376040Y-76211980D02*
X81423659Y-76116742D01*
X81423659Y-76116742D02*
X81423659Y-75831028D01*
X81423659Y-75831028D02*
X81376040Y-75735790D01*
X81376040Y-75735790D02*
X81328421Y-75688171D01*
X81328421Y-75688171D02*
X81233183Y-75640552D01*
X81233183Y-75640552D02*
X81042707Y-75640552D01*
X81042707Y-75640552D02*
X80947469Y-75688171D01*
X80471278Y-76307219D02*
X80471278Y-75640552D01*
X80471278Y-75307219D02*
X80518897Y-75354838D01*
X80518897Y-75354838D02*
X80471278Y-75402457D01*
X80471278Y-75402457D02*
X80423659Y-75354838D01*
X80423659Y-75354838D02*
X80471278Y-75307219D01*
X80471278Y-75307219D02*
X80471278Y-75402457D01*
X78947469Y-76688171D02*
X78995088Y-76640552D01*
X78995088Y-76640552D02*
X79090326Y-76497695D01*
X79090326Y-76497695D02*
X79137945Y-76402457D01*
X79137945Y-76402457D02*
X79185564Y-76259600D01*
X79185564Y-76259600D02*
X79233183Y-76021504D01*
X79233183Y-76021504D02*
X79233183Y-75831028D01*
X79233183Y-75831028D02*
X79185564Y-75592933D01*
X79185564Y-75592933D02*
X79137945Y-75450076D01*
X79137945Y-75450076D02*
X79090326Y-75354838D01*
X79090326Y-75354838D02*
X78995088Y-75211980D01*
X78995088Y-75211980D02*
X78947469Y-75164361D01*
X78614135Y-76259600D02*
X78471278Y-76307219D01*
X78471278Y-76307219D02*
X78233183Y-76307219D01*
X78233183Y-76307219D02*
X78137945Y-76259600D01*
X78137945Y-76259600D02*
X78090326Y-76211980D01*
X78090326Y-76211980D02*
X78042707Y-76116742D01*
X78042707Y-76116742D02*
X78042707Y-76021504D01*
X78042707Y-76021504D02*
X78090326Y-75926266D01*
X78090326Y-75926266D02*
X78137945Y-75878647D01*
X78137945Y-75878647D02*
X78233183Y-75831028D01*
X78233183Y-75831028D02*
X78423659Y-75783409D01*
X78423659Y-75783409D02*
X78518897Y-75735790D01*
X78518897Y-75735790D02*
X78566516Y-75688171D01*
X78566516Y-75688171D02*
X78614135Y-75592933D01*
X78614135Y-75592933D02*
X78614135Y-75497695D01*
X78614135Y-75497695D02*
X78566516Y-75402457D01*
X78566516Y-75402457D02*
X78518897Y-75354838D01*
X78518897Y-75354838D02*
X78423659Y-75307219D01*
X78423659Y-75307219D02*
X78185564Y-75307219D01*
X78185564Y-75307219D02*
X78042707Y-75354838D01*
X77614135Y-76307219D02*
X77614135Y-75307219D01*
X77614135Y-75307219D02*
X77233183Y-75307219D01*
X77233183Y-75307219D02*
X77137945Y-75354838D01*
X77137945Y-75354838D02*
X77090326Y-75402457D01*
X77090326Y-75402457D02*
X77042707Y-75497695D01*
X77042707Y-75497695D02*
X77042707Y-75640552D01*
X77042707Y-75640552D02*
X77090326Y-75735790D01*
X77090326Y-75735790D02*
X77137945Y-75783409D01*
X77137945Y-75783409D02*
X77233183Y-75831028D01*
X77233183Y-75831028D02*
X77614135Y-75831028D01*
X76709373Y-76688171D02*
X76661754Y-76640552D01*
X76661754Y-76640552D02*
X76566516Y-76497695D01*
X76566516Y-76497695D02*
X76518897Y-76402457D01*
X76518897Y-76402457D02*
X76471278Y-76259600D01*
X76471278Y-76259600D02*
X76423659Y-76021504D01*
X76423659Y-76021504D02*
X76423659Y-75831028D01*
X76423659Y-75831028D02*
X76471278Y-75592933D01*
X76471278Y-75592933D02*
X76518897Y-75450076D01*
X76518897Y-75450076D02*
X76566516Y-75354838D01*
X76566516Y-75354838D02*
X76661754Y-75211980D01*
X76661754Y-75211980D02*
X76709373Y-75164361D01*
M02*
