%TF.GenerationSoftware,KiCad,Pcbnew,9.0.7*%
%TF.CreationDate,2026-01-25T13:43:23-05:00*%
%TF.ProjectId,brushlessMotorDriverDaughter,62727573-686c-4657-9373-4d6f746f7244,1*%
%TF.SameCoordinates,Original*%
%TF.FileFunction,Soldermask,Bot*%
%TF.FilePolarity,Negative*%
%FSLAX46Y46*%
G04 Gerber Fmt 4.6, Leading zero omitted, Abs format (unit mm)*
G04 Created by KiCad (PCBNEW 9.0.7) date 2026-01-25 13:43:23*
%MOMM*%
%LPD*%
G01*
G04 APERTURE LIST*
G04 Aperture macros list*
%AMRoundRect*
0 Rectangle with rounded corners*
0 $1 Rounding radius*
0 $2 $3 $4 $5 $6 $7 $8 $9 X,Y pos of 4 corners*
0 Add a 4 corners polygon primitive as box body*
4,1,4,$2,$3,$4,$5,$6,$7,$8,$9,$2,$3,0*
0 Add four circle primitives for the rounded corners*
1,1,$1+$1,$2,$3*
1,1,$1+$1,$4,$5*
1,1,$1+$1,$6,$7*
1,1,$1+$1,$8,$9*
0 Add four rect primitives between the rounded corners*
20,1,$1+$1,$2,$3,$4,$5,0*
20,1,$1+$1,$4,$5,$6,$7,0*
20,1,$1+$1,$6,$7,$8,$9,0*
20,1,$1+$1,$8,$9,$2,$3,0*%
G04 Aperture macros list end*
%ADD10C,1.700000*%
%ADD11R,1.700000X1.700000*%
%ADD12C,3.800000*%
%ADD13RoundRect,0.760000X-1.140000X1.140000X-1.140000X-1.140000X1.140000X-1.140000X1.140000X1.140000X0*%
%ADD14C,2.600000*%
%ADD15RoundRect,0.250000X1.050000X1.050000X-1.050000X1.050000X-1.050000X-1.050000X1.050000X-1.050000X0*%
%ADD16RoundRect,0.250000X-0.350000X-0.625000X0.350000X-0.625000X0.350000X0.625000X-0.350000X0.625000X0*%
%ADD17O,1.200000X1.750000*%
%ADD18RoundRect,0.250000X-0.750000X0.750000X-0.750000X-0.750000X0.750000X-0.750000X0.750000X0.750000X0*%
%ADD19C,2.000000*%
%ADD20RoundRect,0.250000X-1.050000X-1.050000X1.050000X-1.050000X1.050000X1.050000X-1.050000X1.050000X0*%
%ADD21RoundRect,0.250000X-1.050000X1.050000X-1.050000X-1.050000X1.050000X-1.050000X1.050000X1.050000X0*%
%ADD22RoundRect,0.250000X0.750000X-0.750000X0.750000X0.750000X-0.750000X0.750000X-0.750000X-0.750000X0*%
G04 APERTURE END LIST*
D10*
%TO.C,J10*%
X42360000Y-60320000D03*
X44900000Y-60320000D03*
X42360000Y-62860000D03*
X44900000Y-62860000D03*
X42360000Y-65400000D03*
X44900000Y-65400000D03*
X42360000Y-67940000D03*
D11*
X44900000Y-67940000D03*
%TD*%
D10*
%TO.C,J5*%
X94480000Y-25840000D03*
X91940000Y-25840000D03*
X89400000Y-25840000D03*
X86860000Y-25840000D03*
X84320000Y-25840000D03*
X81780000Y-25840000D03*
X79240000Y-25840000D03*
X76700000Y-25840000D03*
X74160000Y-25840000D03*
D11*
X71620000Y-25840000D03*
%TD*%
D12*
%TO.C,J3*%
X95060000Y-71540000D03*
D13*
X95060000Y-66540000D03*
%TD*%
D14*
%TO.C,J6*%
X83060000Y-69040000D03*
D15*
X88060000Y-69040000D03*
%TD*%
D16*
%TO.C,J8*%
X39660000Y-73840000D03*
D17*
X41660000Y-73840000D03*
X43660000Y-73840000D03*
X45660000Y-73840000D03*
X47660000Y-73840000D03*
%TD*%
D11*
%TO.C,J2*%
X71500000Y-32020000D03*
D10*
X71500000Y-34560000D03*
X71500000Y-37100000D03*
X71500000Y-39640000D03*
X71500000Y-42180000D03*
X71500000Y-44720000D03*
X71500000Y-47260000D03*
X71500000Y-49800000D03*
X71500000Y-52340000D03*
X71500000Y-54880000D03*
X71500000Y-57420000D03*
X71500000Y-59960000D03*
%TD*%
D11*
%TO.C,J1*%
X58820000Y-32020000D03*
D10*
X58820000Y-34560000D03*
X58820000Y-37100000D03*
X58820000Y-39640000D03*
X58820000Y-42180000D03*
X58820000Y-44720000D03*
X58820000Y-47260000D03*
X58820000Y-49800000D03*
X58820000Y-52340000D03*
X58820000Y-54880000D03*
X58820000Y-57420000D03*
X58820000Y-59960000D03*
%TD*%
D11*
%TO.C,J11*%
X38360000Y-67940000D03*
D10*
X38360000Y-65400000D03*
X38360000Y-62860000D03*
X38360000Y-60320000D03*
%TD*%
D18*
%TO.C,C2*%
X93160000Y-47080000D03*
D19*
X93160000Y-52080000D03*
%TD*%
D20*
%TO.C,J7*%
X60760000Y-71040000D03*
D14*
X65760000Y-71040000D03*
X70760000Y-71040000D03*
%TD*%
D21*
%TO.C,J9*%
X40287500Y-44840000D03*
D14*
X40287500Y-49840000D03*
%TD*%
D11*
%TO.C,J4*%
X41000000Y-25840000D03*
D10*
X43540000Y-25840000D03*
X46080000Y-25840000D03*
X48620000Y-25840000D03*
X51160000Y-25840000D03*
X53700000Y-25840000D03*
X56240000Y-25840000D03*
X58780000Y-25840000D03*
X61320000Y-25840000D03*
X63860000Y-25840000D03*
%TD*%
D22*
%TO.C,C5*%
X40287500Y-38007677D03*
D19*
X40287500Y-33007677D03*
%TD*%
D22*
%TO.C,C1*%
X93160000Y-40840000D03*
D19*
X93160000Y-35840000D03*
%TD*%
D11*
%TO.C,U2*%
X48160000Y-31980000D03*
D10*
X48160000Y-34520000D03*
X48160000Y-37060000D03*
X48160000Y-42140000D03*
X48160000Y-44680000D03*
X48160000Y-47220000D03*
X48160000Y-49760000D03*
X48160000Y-52300000D03*
D11*
X81170000Y-31980000D03*
D10*
X81170000Y-34520000D03*
X48160000Y-39600000D03*
X48160000Y-54840000D03*
X81170000Y-37060000D03*
X81170000Y-39600000D03*
X81170000Y-42140000D03*
X81170000Y-44680000D03*
X81170000Y-47220000D03*
X81170000Y-49760000D03*
X81170000Y-52300000D03*
X81170000Y-54840000D03*
%TD*%
M02*
